M48
;DRILL file {KiCad 4.0.5} date 03/24/17 14:50:39
;FORMAT={-:-/ absolute / inch / decimal}
FMAT,2
INCH,TZ
T1C0.030
T2C0.031
T3C0.039
T4C0.040
%
G90
G05
M72
T1
X4.9787Y-5.5906
X5.0787Y-5.5906
X5.1787Y-5.5906
X6.4551Y-5.5906
X6.5551Y-5.5906
X6.6551Y-5.5906
X7.6913Y-2.7484
X7.7913Y-2.7484
X7.8913Y-2.7484
X7.9709Y-5.5906
X7.9913Y-2.7484
X8.0709Y-5.5906
X8.0913Y-1.9484
X8.0913Y-2.7484
X8.1709Y-5.5906
X8.1913Y-1.9484
X8.1913Y-2.7484
X8.2913Y-1.9484
X8.2913Y-2.7484
X8.3913Y-1.9484
X8.3913Y-2.7484
X8.4913Y-1.9484
X8.4913Y-2.7484
X8.5913Y-1.9484
X8.5913Y-2.7484
X8.6913Y-1.9484
X8.6913Y-2.7484
X8.7913Y-1.9484
X8.7913Y-2.7484
X8.8913Y-1.9484
X8.8913Y-2.7484
X8.9913Y-1.9484
X8.9913Y-2.7484
X9.0913Y-1.9484
X9.0913Y-2.7484
X9.1913Y-1.9484
X9.1913Y-2.7484
T2
X4.4488Y-5.5906
X4.5669Y-2.7165
X4.5669Y-2.9528
X4.6457Y-2.7165
X4.6457Y-2.9528
X4.6457Y-4.9213
X4.6457Y-5.1969
X4.8425Y-4.9213
X4.8425Y-5.1969
X4.8488Y-5.5906
X4.8819Y-2.1441
X4.8819Y-2.2441
X4.8819Y-2.3441
X4.8819Y-2.4441
X5.0197Y-2.6772
X5.0197Y-2.7559
X5.0331Y-4.7638
X5.0787Y-4.9394
X5.0787Y-5.0394
X5.0787Y-5.1394
X5.0787Y-5.2394
X5.0984Y-3.7205
X5.0984Y-3.9173
X5.0984Y-4.0291
X5.0984Y-4.4291
X5.1819Y-2.1441
X5.1819Y-2.2441
X5.1819Y-2.3441
X5.1819Y-2.4441
X5.315Y-5.5906
X5.374Y-3.7205
X5.374Y-3.9173
X5.374Y-4.0354
X5.374Y-4.4354
X5.3787Y-4.9394
X5.3787Y-5.0394
X5.3787Y-5.1394
X5.3787Y-5.2394
X5.4331Y-4.7638
X5.5118Y-2.2047
X5.5118Y-2.2835
X5.6299Y-4.0945
X5.6299Y-4.2913
X5.6299Y-4.4291
X5.6299Y-4.8291
X5.6299Y-5.0134
X5.6299Y-5.4134
X5.715Y-5.5906
X5.9189Y-5.5906
X6.1024Y-4.9213
X6.1024Y-5.1969
X6.2992Y-4.9213
X6.2992Y-5.1969
X6.3189Y-5.5906
X6.5291Y-4.7441
X6.5504Y-4.9378
X6.5504Y-5.0378
X6.5504Y-5.1378
X6.5504Y-5.2378
X6.5945Y-3.7402
X6.5945Y-3.937
X6.5945Y-4.0488
X6.5945Y-4.4488
X6.785Y-5.5906
X6.8504Y-4.9378
X6.8504Y-5.0378
X6.8504Y-5.1378
X6.8504Y-5.2378
X6.8701Y-3.7402
X6.8701Y-3.937
X6.8701Y-4.0551
X6.8701Y-4.4551
X6.9291Y-4.7441
X7.1063Y-4.1142
X7.1063Y-4.311
X7.1063Y-4.4488
X7.1063Y-4.8488
X7.1063Y-5.0134
X7.1063Y-5.4134
X7.185Y-5.5906
X7.4346Y-5.5906
X7.6181Y-4.9409
X7.6181Y-5.2165
X7.815Y-4.9409
X7.815Y-5.2165
X7.8346Y-5.5906
X8.0512Y-4.7441
X8.0858Y-4.9378
X8.0858Y-5.0378
X8.0858Y-5.1378
X8.0858Y-5.2378
X8.1102Y-3.7402
X8.1102Y-3.937
X8.1102Y-4.0551
X8.1102Y-4.4551
X8.3008Y-5.5906
X8.3661Y-3.7402
X8.3661Y-3.937
X8.3661Y-4.0551
X8.3661Y-4.4551
X8.3858Y-4.9378
X8.3858Y-5.0378
X8.3858Y-5.1378
X8.3858Y-5.2378
X8.4512Y-4.7441
X8.6417Y-4.0945
X8.6417Y-4.2913
X8.6417Y-4.4488
X8.6417Y-4.8488
X8.6417Y-5.0394
X8.6417Y-5.4394
X8.7008Y-5.5906
T3
X5.1854Y-4.6358
X5.2854Y-4.6358
X5.502Y-5.1657
X5.502Y-5.2657
X6.6815Y-4.6161
X6.7815Y-4.6161
X6.9783Y-5.1657
X6.9783Y-5.2657
X8.2071Y-4.6161
X8.3071Y-4.6161
X8.5138Y-5.187
X8.5138Y-5.287
T4
X5.1969Y-3.563
X5.2969Y-3.563
X6.6732Y-3.5827
X6.7732Y-3.5827
X8.1874Y-3.563
X8.2874Y-3.563
T0
M30
