G04 #@! TF.FileFunction,Legend,Top*
%FSLAX46Y46*%
G04 Gerber Fmt 4.6, Leading zero omitted, Abs format (unit mm)*
G04 Created by KiCad (PCBNEW 4.0.5) date 03/28/17 16:12:11*
%MOMM*%
%LPD*%
G01*
G04 APERTURE LIST*
%ADD10C,0.100000*%
%ADD11C,0.120000*%
%ADD12C,0.150000*%
G04 APERTURE END LIST*
D10*
D11*
X133810000Y-124070000D02*
G75*
G02X131810000Y-124070000I-1000000J0D01*
G01*
X131810000Y-124070000D02*
X130440000Y-124070000D01*
X130440000Y-124070000D02*
X130440000Y-134470000D01*
X130440000Y-134470000D02*
X135180000Y-134470000D01*
X135180000Y-134470000D02*
X135180000Y-124070000D01*
X135180000Y-124070000D02*
X133810000Y-124070000D01*
D12*
X130450000Y-92050000D02*
X132000000Y-92050000D01*
X135810000Y-91770000D02*
X133270000Y-91770000D01*
X133270000Y-91770000D02*
X133270000Y-89230000D01*
X132000000Y-88950000D02*
X130450000Y-88950000D01*
X130450000Y-88950000D02*
X130450000Y-92050000D01*
X133270000Y-89230000D02*
X135810000Y-89230000D01*
X135810000Y-89230000D02*
X135810000Y-91770000D01*
X167950000Y-92550000D02*
X169500000Y-92550000D01*
X173310000Y-92270000D02*
X170770000Y-92270000D01*
X170770000Y-92270000D02*
X170770000Y-89730000D01*
X169500000Y-89450000D02*
X167950000Y-89450000D01*
X167950000Y-89450000D02*
X167950000Y-92550000D01*
X170770000Y-89730000D02*
X173310000Y-89730000D01*
X173310000Y-89730000D02*
X173310000Y-92270000D01*
X206410000Y-92050000D02*
X207960000Y-92050000D01*
X211770000Y-91770000D02*
X209230000Y-91770000D01*
X209230000Y-91770000D02*
X209230000Y-89230000D01*
X207960000Y-88950000D02*
X206410000Y-88950000D01*
X206410000Y-88950000D02*
X206410000Y-92050000D01*
X209230000Y-89230000D02*
X211770000Y-89230000D01*
X211770000Y-89230000D02*
X211770000Y-91770000D01*
D11*
X126810000Y-63470000D02*
G75*
G02X128810000Y-63470000I1000000J0D01*
G01*
X128810000Y-63470000D02*
X130180000Y-63470000D01*
X130180000Y-63470000D02*
X130180000Y-53070000D01*
X130180000Y-53070000D02*
X125440000Y-53070000D01*
X125440000Y-53070000D02*
X125440000Y-63470000D01*
X125440000Y-63470000D02*
X126810000Y-63470000D01*
X171190000Y-124030000D02*
G75*
G02X169190000Y-124030000I-1000000J0D01*
G01*
X169190000Y-124030000D02*
X167820000Y-124030000D01*
X167820000Y-124030000D02*
X167820000Y-134430000D01*
X167820000Y-134430000D02*
X172560000Y-134430000D01*
X172560000Y-134430000D02*
X172560000Y-124030000D01*
X172560000Y-124030000D02*
X171190000Y-124030000D01*
X210190000Y-124030000D02*
G75*
G02X208190000Y-124030000I-1000000J0D01*
G01*
X208190000Y-124030000D02*
X206820000Y-124030000D01*
X206820000Y-124030000D02*
X206820000Y-134430000D01*
X206820000Y-134430000D02*
X211560000Y-134430000D01*
X211560000Y-134430000D02*
X211560000Y-124030000D01*
X211560000Y-124030000D02*
X210190000Y-124030000D01*
D12*
X230920000Y-77430000D02*
X187740000Y-77430000D01*
X230920000Y-52030000D02*
X230920000Y-77430000D01*
X187740000Y-52030000D02*
X230920000Y-52030000D01*
X187740000Y-77430000D02*
X187740000Y-52030000D01*
D11*
X128481400Y-71396863D02*
G75*
G03X128480000Y-66602564I-981400J2396863D01*
G01*
X126518600Y-71396863D02*
G75*
G02X126520000Y-66602564I981400J2396863D01*
G01*
X126518600Y-71396863D02*
G75*
G03X128480000Y-71397436I981400J2396863D01*
G01*
X130050000Y-69000000D02*
X124950000Y-69000000D01*
X130050000Y-69040000D02*
X128480000Y-69040000D01*
X126520000Y-69040000D02*
X124950000Y-69040000D01*
X130049000Y-69080000D02*
X128480000Y-69080000D01*
X126520000Y-69080000D02*
X124951000Y-69080000D01*
X130048000Y-69120000D02*
X128480000Y-69120000D01*
X126520000Y-69120000D02*
X124952000Y-69120000D01*
X130046000Y-69160000D02*
X128480000Y-69160000D01*
X126520000Y-69160000D02*
X124954000Y-69160000D01*
X130043000Y-69200000D02*
X128480000Y-69200000D01*
X126520000Y-69200000D02*
X124957000Y-69200000D01*
X130039000Y-69240000D02*
X128480000Y-69240000D01*
X126520000Y-69240000D02*
X124961000Y-69240000D01*
X130035000Y-69280000D02*
X128480000Y-69280000D01*
X126520000Y-69280000D02*
X124965000Y-69280000D01*
X130031000Y-69320000D02*
X128480000Y-69320000D01*
X126520000Y-69320000D02*
X124969000Y-69320000D01*
X130025000Y-69360000D02*
X128480000Y-69360000D01*
X126520000Y-69360000D02*
X124975000Y-69360000D01*
X130019000Y-69400000D02*
X128480000Y-69400000D01*
X126520000Y-69400000D02*
X124981000Y-69400000D01*
X130013000Y-69440000D02*
X128480000Y-69440000D01*
X126520000Y-69440000D02*
X124987000Y-69440000D01*
X130006000Y-69480000D02*
X128480000Y-69480000D01*
X126520000Y-69480000D02*
X124994000Y-69480000D01*
X129998000Y-69520000D02*
X128480000Y-69520000D01*
X126520000Y-69520000D02*
X125002000Y-69520000D01*
X129989000Y-69560000D02*
X128480000Y-69560000D01*
X126520000Y-69560000D02*
X125011000Y-69560000D01*
X129980000Y-69600000D02*
X128480000Y-69600000D01*
X126520000Y-69600000D02*
X125020000Y-69600000D01*
X129970000Y-69640000D02*
X128480000Y-69640000D01*
X126520000Y-69640000D02*
X125030000Y-69640000D01*
X129960000Y-69680000D02*
X128480000Y-69680000D01*
X126520000Y-69680000D02*
X125040000Y-69680000D01*
X129948000Y-69721000D02*
X128480000Y-69721000D01*
X126520000Y-69721000D02*
X125052000Y-69721000D01*
X129936000Y-69761000D02*
X128480000Y-69761000D01*
X126520000Y-69761000D02*
X125064000Y-69761000D01*
X129924000Y-69801000D02*
X128480000Y-69801000D01*
X126520000Y-69801000D02*
X125076000Y-69801000D01*
X129910000Y-69841000D02*
X128480000Y-69841000D01*
X126520000Y-69841000D02*
X125090000Y-69841000D01*
X129896000Y-69881000D02*
X128480000Y-69881000D01*
X126520000Y-69881000D02*
X125104000Y-69881000D01*
X129882000Y-69921000D02*
X128480000Y-69921000D01*
X126520000Y-69921000D02*
X125118000Y-69921000D01*
X129866000Y-69961000D02*
X128480000Y-69961000D01*
X126520000Y-69961000D02*
X125134000Y-69961000D01*
X129850000Y-70001000D02*
X128480000Y-70001000D01*
X126520000Y-70001000D02*
X125150000Y-70001000D01*
X129833000Y-70041000D02*
X128480000Y-70041000D01*
X126520000Y-70041000D02*
X125167000Y-70041000D01*
X129815000Y-70081000D02*
X128480000Y-70081000D01*
X126520000Y-70081000D02*
X125185000Y-70081000D01*
X129796000Y-70121000D02*
X128480000Y-70121000D01*
X126520000Y-70121000D02*
X125204000Y-70121000D01*
X129776000Y-70161000D02*
X128480000Y-70161000D01*
X126520000Y-70161000D02*
X125224000Y-70161000D01*
X129756000Y-70201000D02*
X128480000Y-70201000D01*
X126520000Y-70201000D02*
X125244000Y-70201000D01*
X129734000Y-70241000D02*
X128480000Y-70241000D01*
X126520000Y-70241000D02*
X125266000Y-70241000D01*
X129712000Y-70281000D02*
X128480000Y-70281000D01*
X126520000Y-70281000D02*
X125288000Y-70281000D01*
X129689000Y-70321000D02*
X128480000Y-70321000D01*
X126520000Y-70321000D02*
X125311000Y-70321000D01*
X129665000Y-70361000D02*
X128480000Y-70361000D01*
X126520000Y-70361000D02*
X125335000Y-70361000D01*
X129640000Y-70401000D02*
X128480000Y-70401000D01*
X126520000Y-70401000D02*
X125360000Y-70401000D01*
X129613000Y-70441000D02*
X128480000Y-70441000D01*
X126520000Y-70441000D02*
X125387000Y-70441000D01*
X129586000Y-70481000D02*
X128480000Y-70481000D01*
X126520000Y-70481000D02*
X125414000Y-70481000D01*
X129558000Y-70521000D02*
X128480000Y-70521000D01*
X126520000Y-70521000D02*
X125442000Y-70521000D01*
X129528000Y-70561000D02*
X128480000Y-70561000D01*
X126520000Y-70561000D02*
X125472000Y-70561000D01*
X129497000Y-70601000D02*
X128480000Y-70601000D01*
X126520000Y-70601000D02*
X125503000Y-70601000D01*
X129465000Y-70641000D02*
X128480000Y-70641000D01*
X126520000Y-70641000D02*
X125535000Y-70641000D01*
X129432000Y-70681000D02*
X128480000Y-70681000D01*
X126520000Y-70681000D02*
X125568000Y-70681000D01*
X129397000Y-70721000D02*
X128480000Y-70721000D01*
X126520000Y-70721000D02*
X125603000Y-70721000D01*
X129361000Y-70761000D02*
X128480000Y-70761000D01*
X126520000Y-70761000D02*
X125639000Y-70761000D01*
X129323000Y-70801000D02*
X128480000Y-70801000D01*
X126520000Y-70801000D02*
X125677000Y-70801000D01*
X129283000Y-70841000D02*
X128480000Y-70841000D01*
X126520000Y-70841000D02*
X125717000Y-70841000D01*
X129242000Y-70881000D02*
X128480000Y-70881000D01*
X126520000Y-70881000D02*
X125758000Y-70881000D01*
X129199000Y-70921000D02*
X128480000Y-70921000D01*
X126520000Y-70921000D02*
X125801000Y-70921000D01*
X129154000Y-70961000D02*
X128480000Y-70961000D01*
X126520000Y-70961000D02*
X125846000Y-70961000D01*
X129106000Y-71001000D02*
X125894000Y-71001000D01*
X129056000Y-71041000D02*
X125944000Y-71041000D01*
X129004000Y-71081000D02*
X125996000Y-71081000D01*
X128948000Y-71121000D02*
X126052000Y-71121000D01*
X128890000Y-71161000D02*
X126110000Y-71161000D01*
X128827000Y-71201000D02*
X126173000Y-71201000D01*
X128761000Y-71241000D02*
X126239000Y-71241000D01*
X128689000Y-71281000D02*
X126311000Y-71281000D01*
X128612000Y-71321000D02*
X126388000Y-71321000D01*
X128528000Y-71361000D02*
X126472000Y-71361000D01*
X128434000Y-71401000D02*
X126566000Y-71401000D01*
X128329000Y-71441000D02*
X126671000Y-71441000D01*
X128207000Y-71481000D02*
X126793000Y-71481000D01*
X128059000Y-71521000D02*
X126941000Y-71521000D01*
X127854000Y-71561000D02*
X127146000Y-71561000D01*
X127500000Y-65800000D02*
X127500000Y-67000000D01*
X128150000Y-66400000D02*
X126850000Y-66400000D01*
X114603137Y-75981400D02*
G75*
G03X119397436Y-75980000I2396863J981400D01*
G01*
X114603137Y-74018600D02*
G75*
G02X119397436Y-74020000I2396863J-981400D01*
G01*
X114603137Y-74018600D02*
G75*
G03X114602564Y-75980000I2396863J-981400D01*
G01*
X117000000Y-77550000D02*
X117000000Y-72450000D01*
X116960000Y-77550000D02*
X116960000Y-75980000D01*
X116960000Y-74020000D02*
X116960000Y-72450000D01*
X116920000Y-77549000D02*
X116920000Y-75980000D01*
X116920000Y-74020000D02*
X116920000Y-72451000D01*
X116880000Y-77548000D02*
X116880000Y-75980000D01*
X116880000Y-74020000D02*
X116880000Y-72452000D01*
X116840000Y-77546000D02*
X116840000Y-75980000D01*
X116840000Y-74020000D02*
X116840000Y-72454000D01*
X116800000Y-77543000D02*
X116800000Y-75980000D01*
X116800000Y-74020000D02*
X116800000Y-72457000D01*
X116760000Y-77539000D02*
X116760000Y-75980000D01*
X116760000Y-74020000D02*
X116760000Y-72461000D01*
X116720000Y-77535000D02*
X116720000Y-75980000D01*
X116720000Y-74020000D02*
X116720000Y-72465000D01*
X116680000Y-77531000D02*
X116680000Y-75980000D01*
X116680000Y-74020000D02*
X116680000Y-72469000D01*
X116640000Y-77525000D02*
X116640000Y-75980000D01*
X116640000Y-74020000D02*
X116640000Y-72475000D01*
X116600000Y-77519000D02*
X116600000Y-75980000D01*
X116600000Y-74020000D02*
X116600000Y-72481000D01*
X116560000Y-77513000D02*
X116560000Y-75980000D01*
X116560000Y-74020000D02*
X116560000Y-72487000D01*
X116520000Y-77506000D02*
X116520000Y-75980000D01*
X116520000Y-74020000D02*
X116520000Y-72494000D01*
X116480000Y-77498000D02*
X116480000Y-75980000D01*
X116480000Y-74020000D02*
X116480000Y-72502000D01*
X116440000Y-77489000D02*
X116440000Y-75980000D01*
X116440000Y-74020000D02*
X116440000Y-72511000D01*
X116400000Y-77480000D02*
X116400000Y-75980000D01*
X116400000Y-74020000D02*
X116400000Y-72520000D01*
X116360000Y-77470000D02*
X116360000Y-75980000D01*
X116360000Y-74020000D02*
X116360000Y-72530000D01*
X116320000Y-77460000D02*
X116320000Y-75980000D01*
X116320000Y-74020000D02*
X116320000Y-72540000D01*
X116279000Y-77448000D02*
X116279000Y-75980000D01*
X116279000Y-74020000D02*
X116279000Y-72552000D01*
X116239000Y-77436000D02*
X116239000Y-75980000D01*
X116239000Y-74020000D02*
X116239000Y-72564000D01*
X116199000Y-77424000D02*
X116199000Y-75980000D01*
X116199000Y-74020000D02*
X116199000Y-72576000D01*
X116159000Y-77410000D02*
X116159000Y-75980000D01*
X116159000Y-74020000D02*
X116159000Y-72590000D01*
X116119000Y-77396000D02*
X116119000Y-75980000D01*
X116119000Y-74020000D02*
X116119000Y-72604000D01*
X116079000Y-77382000D02*
X116079000Y-75980000D01*
X116079000Y-74020000D02*
X116079000Y-72618000D01*
X116039000Y-77366000D02*
X116039000Y-75980000D01*
X116039000Y-74020000D02*
X116039000Y-72634000D01*
X115999000Y-77350000D02*
X115999000Y-75980000D01*
X115999000Y-74020000D02*
X115999000Y-72650000D01*
X115959000Y-77333000D02*
X115959000Y-75980000D01*
X115959000Y-74020000D02*
X115959000Y-72667000D01*
X115919000Y-77315000D02*
X115919000Y-75980000D01*
X115919000Y-74020000D02*
X115919000Y-72685000D01*
X115879000Y-77296000D02*
X115879000Y-75980000D01*
X115879000Y-74020000D02*
X115879000Y-72704000D01*
X115839000Y-77276000D02*
X115839000Y-75980000D01*
X115839000Y-74020000D02*
X115839000Y-72724000D01*
X115799000Y-77256000D02*
X115799000Y-75980000D01*
X115799000Y-74020000D02*
X115799000Y-72744000D01*
X115759000Y-77234000D02*
X115759000Y-75980000D01*
X115759000Y-74020000D02*
X115759000Y-72766000D01*
X115719000Y-77212000D02*
X115719000Y-75980000D01*
X115719000Y-74020000D02*
X115719000Y-72788000D01*
X115679000Y-77189000D02*
X115679000Y-75980000D01*
X115679000Y-74020000D02*
X115679000Y-72811000D01*
X115639000Y-77165000D02*
X115639000Y-75980000D01*
X115639000Y-74020000D02*
X115639000Y-72835000D01*
X115599000Y-77140000D02*
X115599000Y-75980000D01*
X115599000Y-74020000D02*
X115599000Y-72860000D01*
X115559000Y-77113000D02*
X115559000Y-75980000D01*
X115559000Y-74020000D02*
X115559000Y-72887000D01*
X115519000Y-77086000D02*
X115519000Y-75980000D01*
X115519000Y-74020000D02*
X115519000Y-72914000D01*
X115479000Y-77058000D02*
X115479000Y-75980000D01*
X115479000Y-74020000D02*
X115479000Y-72942000D01*
X115439000Y-77028000D02*
X115439000Y-75980000D01*
X115439000Y-74020000D02*
X115439000Y-72972000D01*
X115399000Y-76997000D02*
X115399000Y-75980000D01*
X115399000Y-74020000D02*
X115399000Y-73003000D01*
X115359000Y-76965000D02*
X115359000Y-75980000D01*
X115359000Y-74020000D02*
X115359000Y-73035000D01*
X115319000Y-76932000D02*
X115319000Y-75980000D01*
X115319000Y-74020000D02*
X115319000Y-73068000D01*
X115279000Y-76897000D02*
X115279000Y-75980000D01*
X115279000Y-74020000D02*
X115279000Y-73103000D01*
X115239000Y-76861000D02*
X115239000Y-75980000D01*
X115239000Y-74020000D02*
X115239000Y-73139000D01*
X115199000Y-76823000D02*
X115199000Y-75980000D01*
X115199000Y-74020000D02*
X115199000Y-73177000D01*
X115159000Y-76783000D02*
X115159000Y-75980000D01*
X115159000Y-74020000D02*
X115159000Y-73217000D01*
X115119000Y-76742000D02*
X115119000Y-75980000D01*
X115119000Y-74020000D02*
X115119000Y-73258000D01*
X115079000Y-76699000D02*
X115079000Y-75980000D01*
X115079000Y-74020000D02*
X115079000Y-73301000D01*
X115039000Y-76654000D02*
X115039000Y-75980000D01*
X115039000Y-74020000D02*
X115039000Y-73346000D01*
X114999000Y-76606000D02*
X114999000Y-73394000D01*
X114959000Y-76556000D02*
X114959000Y-73444000D01*
X114919000Y-76504000D02*
X114919000Y-73496000D01*
X114879000Y-76448000D02*
X114879000Y-73552000D01*
X114839000Y-76390000D02*
X114839000Y-73610000D01*
X114799000Y-76327000D02*
X114799000Y-73673000D01*
X114759000Y-76261000D02*
X114759000Y-73739000D01*
X114719000Y-76189000D02*
X114719000Y-73811000D01*
X114679000Y-76112000D02*
X114679000Y-73888000D01*
X114639000Y-76028000D02*
X114639000Y-73972000D01*
X114599000Y-75934000D02*
X114599000Y-74066000D01*
X114559000Y-75829000D02*
X114559000Y-74171000D01*
X114519000Y-75707000D02*
X114519000Y-74293000D01*
X114479000Y-75559000D02*
X114479000Y-74441000D01*
X114439000Y-75354000D02*
X114439000Y-74646000D01*
X120200000Y-75000000D02*
X119000000Y-75000000D01*
X119600000Y-75650000D02*
X119600000Y-74350000D01*
X139018600Y-54603137D02*
G75*
G03X139020000Y-59397436I981400J-2396863D01*
G01*
X140981400Y-54603137D02*
G75*
G02X140980000Y-59397436I-981400J-2396863D01*
G01*
X140981400Y-54603137D02*
G75*
G03X139020000Y-54602564I-981400J-2396863D01*
G01*
X137450000Y-57000000D02*
X142550000Y-57000000D01*
X137450000Y-56960000D02*
X139020000Y-56960000D01*
X140980000Y-56960000D02*
X142550000Y-56960000D01*
X137451000Y-56920000D02*
X139020000Y-56920000D01*
X140980000Y-56920000D02*
X142549000Y-56920000D01*
X137452000Y-56880000D02*
X139020000Y-56880000D01*
X140980000Y-56880000D02*
X142548000Y-56880000D01*
X137454000Y-56840000D02*
X139020000Y-56840000D01*
X140980000Y-56840000D02*
X142546000Y-56840000D01*
X137457000Y-56800000D02*
X139020000Y-56800000D01*
X140980000Y-56800000D02*
X142543000Y-56800000D01*
X137461000Y-56760000D02*
X139020000Y-56760000D01*
X140980000Y-56760000D02*
X142539000Y-56760000D01*
X137465000Y-56720000D02*
X139020000Y-56720000D01*
X140980000Y-56720000D02*
X142535000Y-56720000D01*
X137469000Y-56680000D02*
X139020000Y-56680000D01*
X140980000Y-56680000D02*
X142531000Y-56680000D01*
X137475000Y-56640000D02*
X139020000Y-56640000D01*
X140980000Y-56640000D02*
X142525000Y-56640000D01*
X137481000Y-56600000D02*
X139020000Y-56600000D01*
X140980000Y-56600000D02*
X142519000Y-56600000D01*
X137487000Y-56560000D02*
X139020000Y-56560000D01*
X140980000Y-56560000D02*
X142513000Y-56560000D01*
X137494000Y-56520000D02*
X139020000Y-56520000D01*
X140980000Y-56520000D02*
X142506000Y-56520000D01*
X137502000Y-56480000D02*
X139020000Y-56480000D01*
X140980000Y-56480000D02*
X142498000Y-56480000D01*
X137511000Y-56440000D02*
X139020000Y-56440000D01*
X140980000Y-56440000D02*
X142489000Y-56440000D01*
X137520000Y-56400000D02*
X139020000Y-56400000D01*
X140980000Y-56400000D02*
X142480000Y-56400000D01*
X137530000Y-56360000D02*
X139020000Y-56360000D01*
X140980000Y-56360000D02*
X142470000Y-56360000D01*
X137540000Y-56320000D02*
X139020000Y-56320000D01*
X140980000Y-56320000D02*
X142460000Y-56320000D01*
X137552000Y-56279000D02*
X139020000Y-56279000D01*
X140980000Y-56279000D02*
X142448000Y-56279000D01*
X137564000Y-56239000D02*
X139020000Y-56239000D01*
X140980000Y-56239000D02*
X142436000Y-56239000D01*
X137576000Y-56199000D02*
X139020000Y-56199000D01*
X140980000Y-56199000D02*
X142424000Y-56199000D01*
X137590000Y-56159000D02*
X139020000Y-56159000D01*
X140980000Y-56159000D02*
X142410000Y-56159000D01*
X137604000Y-56119000D02*
X139020000Y-56119000D01*
X140980000Y-56119000D02*
X142396000Y-56119000D01*
X137618000Y-56079000D02*
X139020000Y-56079000D01*
X140980000Y-56079000D02*
X142382000Y-56079000D01*
X137634000Y-56039000D02*
X139020000Y-56039000D01*
X140980000Y-56039000D02*
X142366000Y-56039000D01*
X137650000Y-55999000D02*
X139020000Y-55999000D01*
X140980000Y-55999000D02*
X142350000Y-55999000D01*
X137667000Y-55959000D02*
X139020000Y-55959000D01*
X140980000Y-55959000D02*
X142333000Y-55959000D01*
X137685000Y-55919000D02*
X139020000Y-55919000D01*
X140980000Y-55919000D02*
X142315000Y-55919000D01*
X137704000Y-55879000D02*
X139020000Y-55879000D01*
X140980000Y-55879000D02*
X142296000Y-55879000D01*
X137724000Y-55839000D02*
X139020000Y-55839000D01*
X140980000Y-55839000D02*
X142276000Y-55839000D01*
X137744000Y-55799000D02*
X139020000Y-55799000D01*
X140980000Y-55799000D02*
X142256000Y-55799000D01*
X137766000Y-55759000D02*
X139020000Y-55759000D01*
X140980000Y-55759000D02*
X142234000Y-55759000D01*
X137788000Y-55719000D02*
X139020000Y-55719000D01*
X140980000Y-55719000D02*
X142212000Y-55719000D01*
X137811000Y-55679000D02*
X139020000Y-55679000D01*
X140980000Y-55679000D02*
X142189000Y-55679000D01*
X137835000Y-55639000D02*
X139020000Y-55639000D01*
X140980000Y-55639000D02*
X142165000Y-55639000D01*
X137860000Y-55599000D02*
X139020000Y-55599000D01*
X140980000Y-55599000D02*
X142140000Y-55599000D01*
X137887000Y-55559000D02*
X139020000Y-55559000D01*
X140980000Y-55559000D02*
X142113000Y-55559000D01*
X137914000Y-55519000D02*
X139020000Y-55519000D01*
X140980000Y-55519000D02*
X142086000Y-55519000D01*
X137942000Y-55479000D02*
X139020000Y-55479000D01*
X140980000Y-55479000D02*
X142058000Y-55479000D01*
X137972000Y-55439000D02*
X139020000Y-55439000D01*
X140980000Y-55439000D02*
X142028000Y-55439000D01*
X138003000Y-55399000D02*
X139020000Y-55399000D01*
X140980000Y-55399000D02*
X141997000Y-55399000D01*
X138035000Y-55359000D02*
X139020000Y-55359000D01*
X140980000Y-55359000D02*
X141965000Y-55359000D01*
X138068000Y-55319000D02*
X139020000Y-55319000D01*
X140980000Y-55319000D02*
X141932000Y-55319000D01*
X138103000Y-55279000D02*
X139020000Y-55279000D01*
X140980000Y-55279000D02*
X141897000Y-55279000D01*
X138139000Y-55239000D02*
X139020000Y-55239000D01*
X140980000Y-55239000D02*
X141861000Y-55239000D01*
X138177000Y-55199000D02*
X139020000Y-55199000D01*
X140980000Y-55199000D02*
X141823000Y-55199000D01*
X138217000Y-55159000D02*
X139020000Y-55159000D01*
X140980000Y-55159000D02*
X141783000Y-55159000D01*
X138258000Y-55119000D02*
X139020000Y-55119000D01*
X140980000Y-55119000D02*
X141742000Y-55119000D01*
X138301000Y-55079000D02*
X139020000Y-55079000D01*
X140980000Y-55079000D02*
X141699000Y-55079000D01*
X138346000Y-55039000D02*
X139020000Y-55039000D01*
X140980000Y-55039000D02*
X141654000Y-55039000D01*
X138394000Y-54999000D02*
X141606000Y-54999000D01*
X138444000Y-54959000D02*
X141556000Y-54959000D01*
X138496000Y-54919000D02*
X141504000Y-54919000D01*
X138552000Y-54879000D02*
X141448000Y-54879000D01*
X138610000Y-54839000D02*
X141390000Y-54839000D01*
X138673000Y-54799000D02*
X141327000Y-54799000D01*
X138739000Y-54759000D02*
X141261000Y-54759000D01*
X138811000Y-54719000D02*
X141189000Y-54719000D01*
X138888000Y-54679000D02*
X141112000Y-54679000D01*
X138972000Y-54639000D02*
X141028000Y-54639000D01*
X139066000Y-54599000D02*
X140934000Y-54599000D01*
X139171000Y-54559000D02*
X140829000Y-54559000D01*
X139293000Y-54519000D02*
X140707000Y-54519000D01*
X139441000Y-54479000D02*
X140559000Y-54479000D01*
X139646000Y-54439000D02*
X140354000Y-54439000D01*
X140000000Y-60200000D02*
X140000000Y-59000000D01*
X139350000Y-59600000D02*
X140650000Y-59600000D01*
X114603137Y-69981400D02*
G75*
G03X119397436Y-69980000I2396863J981400D01*
G01*
X114603137Y-68018600D02*
G75*
G02X119397436Y-68020000I2396863J-981400D01*
G01*
X114603137Y-68018600D02*
G75*
G03X114602564Y-69980000I2396863J-981400D01*
G01*
X117000000Y-71550000D02*
X117000000Y-66450000D01*
X116960000Y-71550000D02*
X116960000Y-69980000D01*
X116960000Y-68020000D02*
X116960000Y-66450000D01*
X116920000Y-71549000D02*
X116920000Y-69980000D01*
X116920000Y-68020000D02*
X116920000Y-66451000D01*
X116880000Y-71548000D02*
X116880000Y-69980000D01*
X116880000Y-68020000D02*
X116880000Y-66452000D01*
X116840000Y-71546000D02*
X116840000Y-69980000D01*
X116840000Y-68020000D02*
X116840000Y-66454000D01*
X116800000Y-71543000D02*
X116800000Y-69980000D01*
X116800000Y-68020000D02*
X116800000Y-66457000D01*
X116760000Y-71539000D02*
X116760000Y-69980000D01*
X116760000Y-68020000D02*
X116760000Y-66461000D01*
X116720000Y-71535000D02*
X116720000Y-69980000D01*
X116720000Y-68020000D02*
X116720000Y-66465000D01*
X116680000Y-71531000D02*
X116680000Y-69980000D01*
X116680000Y-68020000D02*
X116680000Y-66469000D01*
X116640000Y-71525000D02*
X116640000Y-69980000D01*
X116640000Y-68020000D02*
X116640000Y-66475000D01*
X116600000Y-71519000D02*
X116600000Y-69980000D01*
X116600000Y-68020000D02*
X116600000Y-66481000D01*
X116560000Y-71513000D02*
X116560000Y-69980000D01*
X116560000Y-68020000D02*
X116560000Y-66487000D01*
X116520000Y-71506000D02*
X116520000Y-69980000D01*
X116520000Y-68020000D02*
X116520000Y-66494000D01*
X116480000Y-71498000D02*
X116480000Y-69980000D01*
X116480000Y-68020000D02*
X116480000Y-66502000D01*
X116440000Y-71489000D02*
X116440000Y-69980000D01*
X116440000Y-68020000D02*
X116440000Y-66511000D01*
X116400000Y-71480000D02*
X116400000Y-69980000D01*
X116400000Y-68020000D02*
X116400000Y-66520000D01*
X116360000Y-71470000D02*
X116360000Y-69980000D01*
X116360000Y-68020000D02*
X116360000Y-66530000D01*
X116320000Y-71460000D02*
X116320000Y-69980000D01*
X116320000Y-68020000D02*
X116320000Y-66540000D01*
X116279000Y-71448000D02*
X116279000Y-69980000D01*
X116279000Y-68020000D02*
X116279000Y-66552000D01*
X116239000Y-71436000D02*
X116239000Y-69980000D01*
X116239000Y-68020000D02*
X116239000Y-66564000D01*
X116199000Y-71424000D02*
X116199000Y-69980000D01*
X116199000Y-68020000D02*
X116199000Y-66576000D01*
X116159000Y-71410000D02*
X116159000Y-69980000D01*
X116159000Y-68020000D02*
X116159000Y-66590000D01*
X116119000Y-71396000D02*
X116119000Y-69980000D01*
X116119000Y-68020000D02*
X116119000Y-66604000D01*
X116079000Y-71382000D02*
X116079000Y-69980000D01*
X116079000Y-68020000D02*
X116079000Y-66618000D01*
X116039000Y-71366000D02*
X116039000Y-69980000D01*
X116039000Y-68020000D02*
X116039000Y-66634000D01*
X115999000Y-71350000D02*
X115999000Y-69980000D01*
X115999000Y-68020000D02*
X115999000Y-66650000D01*
X115959000Y-71333000D02*
X115959000Y-69980000D01*
X115959000Y-68020000D02*
X115959000Y-66667000D01*
X115919000Y-71315000D02*
X115919000Y-69980000D01*
X115919000Y-68020000D02*
X115919000Y-66685000D01*
X115879000Y-71296000D02*
X115879000Y-69980000D01*
X115879000Y-68020000D02*
X115879000Y-66704000D01*
X115839000Y-71276000D02*
X115839000Y-69980000D01*
X115839000Y-68020000D02*
X115839000Y-66724000D01*
X115799000Y-71256000D02*
X115799000Y-69980000D01*
X115799000Y-68020000D02*
X115799000Y-66744000D01*
X115759000Y-71234000D02*
X115759000Y-69980000D01*
X115759000Y-68020000D02*
X115759000Y-66766000D01*
X115719000Y-71212000D02*
X115719000Y-69980000D01*
X115719000Y-68020000D02*
X115719000Y-66788000D01*
X115679000Y-71189000D02*
X115679000Y-69980000D01*
X115679000Y-68020000D02*
X115679000Y-66811000D01*
X115639000Y-71165000D02*
X115639000Y-69980000D01*
X115639000Y-68020000D02*
X115639000Y-66835000D01*
X115599000Y-71140000D02*
X115599000Y-69980000D01*
X115599000Y-68020000D02*
X115599000Y-66860000D01*
X115559000Y-71113000D02*
X115559000Y-69980000D01*
X115559000Y-68020000D02*
X115559000Y-66887000D01*
X115519000Y-71086000D02*
X115519000Y-69980000D01*
X115519000Y-68020000D02*
X115519000Y-66914000D01*
X115479000Y-71058000D02*
X115479000Y-69980000D01*
X115479000Y-68020000D02*
X115479000Y-66942000D01*
X115439000Y-71028000D02*
X115439000Y-69980000D01*
X115439000Y-68020000D02*
X115439000Y-66972000D01*
X115399000Y-70997000D02*
X115399000Y-69980000D01*
X115399000Y-68020000D02*
X115399000Y-67003000D01*
X115359000Y-70965000D02*
X115359000Y-69980000D01*
X115359000Y-68020000D02*
X115359000Y-67035000D01*
X115319000Y-70932000D02*
X115319000Y-69980000D01*
X115319000Y-68020000D02*
X115319000Y-67068000D01*
X115279000Y-70897000D02*
X115279000Y-69980000D01*
X115279000Y-68020000D02*
X115279000Y-67103000D01*
X115239000Y-70861000D02*
X115239000Y-69980000D01*
X115239000Y-68020000D02*
X115239000Y-67139000D01*
X115199000Y-70823000D02*
X115199000Y-69980000D01*
X115199000Y-68020000D02*
X115199000Y-67177000D01*
X115159000Y-70783000D02*
X115159000Y-69980000D01*
X115159000Y-68020000D02*
X115159000Y-67217000D01*
X115119000Y-70742000D02*
X115119000Y-69980000D01*
X115119000Y-68020000D02*
X115119000Y-67258000D01*
X115079000Y-70699000D02*
X115079000Y-69980000D01*
X115079000Y-68020000D02*
X115079000Y-67301000D01*
X115039000Y-70654000D02*
X115039000Y-69980000D01*
X115039000Y-68020000D02*
X115039000Y-67346000D01*
X114999000Y-70606000D02*
X114999000Y-67394000D01*
X114959000Y-70556000D02*
X114959000Y-67444000D01*
X114919000Y-70504000D02*
X114919000Y-67496000D01*
X114879000Y-70448000D02*
X114879000Y-67552000D01*
X114839000Y-70390000D02*
X114839000Y-67610000D01*
X114799000Y-70327000D02*
X114799000Y-67673000D01*
X114759000Y-70261000D02*
X114759000Y-67739000D01*
X114719000Y-70189000D02*
X114719000Y-67811000D01*
X114679000Y-70112000D02*
X114679000Y-67888000D01*
X114639000Y-70028000D02*
X114639000Y-67972000D01*
X114599000Y-69934000D02*
X114599000Y-68066000D01*
X114559000Y-69829000D02*
X114559000Y-68171000D01*
X114519000Y-69707000D02*
X114519000Y-68293000D01*
X114479000Y-69559000D02*
X114479000Y-68441000D01*
X114439000Y-69354000D02*
X114439000Y-68646000D01*
X120200000Y-69000000D02*
X119000000Y-69000000D01*
X119600000Y-69650000D02*
X119600000Y-68350000D01*
X117440000Y-129740000D02*
X123560000Y-129740000D01*
X117440000Y-134260000D02*
X123560000Y-134260000D01*
X117440000Y-129740000D02*
X117440000Y-131004000D01*
X117440000Y-132996000D02*
X117440000Y-134260000D01*
X123560000Y-129740000D02*
X123560000Y-131004000D01*
X123560000Y-132996000D02*
X123560000Y-134260000D01*
X154440000Y-129740000D02*
X160560000Y-129740000D01*
X154440000Y-134260000D02*
X160560000Y-134260000D01*
X154440000Y-129740000D02*
X154440000Y-131004000D01*
X154440000Y-132996000D02*
X154440000Y-134260000D01*
X160560000Y-129740000D02*
X160560000Y-131004000D01*
X160560000Y-132996000D02*
X160560000Y-134260000D01*
X192940000Y-130240000D02*
X199060000Y-130240000D01*
X192940000Y-134760000D02*
X199060000Y-134760000D01*
X192940000Y-130240000D02*
X192940000Y-131504000D01*
X192940000Y-133496000D02*
X192940000Y-134760000D01*
X199060000Y-130240000D02*
X199060000Y-131504000D01*
X199060000Y-133496000D02*
X199060000Y-134760000D01*
X117440000Y-122740000D02*
X123560000Y-122740000D01*
X117440000Y-127260000D02*
X123560000Y-127260000D01*
X117440000Y-122740000D02*
X117440000Y-124004000D01*
X117440000Y-125996000D02*
X117440000Y-127260000D01*
X123560000Y-122740000D02*
X123560000Y-124004000D01*
X123560000Y-125996000D02*
X123560000Y-127260000D01*
X154440000Y-122740000D02*
X160560000Y-122740000D01*
X154440000Y-127260000D02*
X160560000Y-127260000D01*
X154440000Y-122740000D02*
X154440000Y-124004000D01*
X154440000Y-125996000D02*
X154440000Y-127260000D01*
X160560000Y-122740000D02*
X160560000Y-124004000D01*
X160560000Y-125996000D02*
X160560000Y-127260000D01*
X192940000Y-123240000D02*
X199060000Y-123240000D01*
X192940000Y-127760000D02*
X199060000Y-127760000D01*
X192940000Y-123240000D02*
X192940000Y-124504000D01*
X192940000Y-126496000D02*
X192940000Y-127760000D01*
X199060000Y-123240000D02*
X199060000Y-124504000D01*
X199060000Y-126496000D02*
X199060000Y-127760000D01*
X134240000Y-100060000D02*
X134240000Y-93940000D01*
X138760000Y-100060000D02*
X138760000Y-93940000D01*
X134240000Y-100060000D02*
X135504000Y-100060000D01*
X137496000Y-100060000D02*
X138760000Y-100060000D01*
X134240000Y-93940000D02*
X135504000Y-93940000D01*
X137496000Y-93940000D02*
X138760000Y-93940000D01*
X127240000Y-100060000D02*
X127240000Y-93940000D01*
X131760000Y-100060000D02*
X131760000Y-93940000D01*
X127240000Y-100060000D02*
X128504000Y-100060000D01*
X130496000Y-100060000D02*
X131760000Y-100060000D01*
X127240000Y-93940000D02*
X128504000Y-93940000D01*
X130496000Y-93940000D02*
X131760000Y-93940000D01*
X172240000Y-100560000D02*
X172240000Y-94440000D01*
X176760000Y-100560000D02*
X176760000Y-94440000D01*
X172240000Y-100560000D02*
X173504000Y-100560000D01*
X175496000Y-100560000D02*
X176760000Y-100560000D01*
X172240000Y-94440000D02*
X173504000Y-94440000D01*
X175496000Y-94440000D02*
X176760000Y-94440000D01*
X165240000Y-100560000D02*
X165240000Y-94440000D01*
X169760000Y-100560000D02*
X169760000Y-94440000D01*
X165240000Y-100560000D02*
X166504000Y-100560000D01*
X168496000Y-100560000D02*
X169760000Y-100560000D01*
X165240000Y-94440000D02*
X166504000Y-94440000D01*
X168496000Y-94440000D02*
X169760000Y-94440000D01*
X210240000Y-100560000D02*
X210240000Y-94440000D01*
X214760000Y-100560000D02*
X214760000Y-94440000D01*
X210240000Y-100560000D02*
X211504000Y-100560000D01*
X213496000Y-100560000D02*
X214760000Y-100560000D01*
X210240000Y-94440000D02*
X211504000Y-94440000D01*
X213496000Y-94440000D02*
X214760000Y-94440000D01*
X203740000Y-100560000D02*
X203740000Y-94440000D01*
X208260000Y-100560000D02*
X208260000Y-94440000D01*
X203740000Y-100560000D02*
X205004000Y-100560000D01*
X206996000Y-100560000D02*
X208260000Y-100560000D01*
X203740000Y-94440000D02*
X205004000Y-94440000D01*
X206996000Y-94440000D02*
X208260000Y-94440000D01*
X145260000Y-103440000D02*
X145260000Y-109560000D01*
X140740000Y-103440000D02*
X140740000Y-109560000D01*
X145260000Y-103440000D02*
X143996000Y-103440000D01*
X142004000Y-103440000D02*
X140740000Y-103440000D01*
X145260000Y-109560000D02*
X143996000Y-109560000D01*
X142004000Y-109560000D02*
X140740000Y-109560000D01*
X182760000Y-103940000D02*
X182760000Y-110060000D01*
X178240000Y-103940000D02*
X178240000Y-110060000D01*
X182760000Y-103940000D02*
X181496000Y-103940000D01*
X179504000Y-103940000D02*
X178240000Y-103940000D01*
X182760000Y-110060000D02*
X181496000Y-110060000D01*
X179504000Y-110060000D02*
X178240000Y-110060000D01*
X221760000Y-103440000D02*
X221760000Y-109560000D01*
X217240000Y-103440000D02*
X217240000Y-109560000D01*
X221760000Y-103440000D02*
X220496000Y-103440000D01*
X218504000Y-103440000D02*
X217240000Y-103440000D01*
X221760000Y-109560000D02*
X220496000Y-109560000D01*
X218504000Y-109560000D02*
X217240000Y-109560000D01*
X121290000Y-143310000D02*
X121290000Y-140690000D01*
X121290000Y-140690000D02*
X114870000Y-140690000D01*
X114870000Y-140690000D02*
X114870000Y-143310000D01*
X114870000Y-143310000D02*
X121290000Y-143310000D01*
X122180000Y-142000000D02*
X121290000Y-142000000D01*
X113980000Y-142000000D02*
X114870000Y-142000000D01*
X143290000Y-143310000D02*
X143290000Y-140690000D01*
X143290000Y-140690000D02*
X136870000Y-140690000D01*
X136870000Y-140690000D02*
X136870000Y-143310000D01*
X136870000Y-143310000D02*
X143290000Y-143310000D01*
X144180000Y-142000000D02*
X143290000Y-142000000D01*
X135980000Y-142000000D02*
X136870000Y-142000000D01*
X137810000Y-104370000D02*
X135190000Y-104370000D01*
X135190000Y-104370000D02*
X135190000Y-110790000D01*
X135190000Y-110790000D02*
X137810000Y-110790000D01*
X137810000Y-110790000D02*
X137810000Y-104370000D01*
X136500000Y-103480000D02*
X136500000Y-104370000D01*
X136500000Y-111680000D02*
X136500000Y-110790000D01*
X130810000Y-104210000D02*
X128190000Y-104210000D01*
X128190000Y-104210000D02*
X128190000Y-110630000D01*
X128190000Y-110630000D02*
X130810000Y-110630000D01*
X130810000Y-110630000D02*
X130810000Y-104210000D01*
X129500000Y-103320000D02*
X129500000Y-104210000D01*
X129500000Y-111520000D02*
X129500000Y-110630000D01*
X129710000Y-119690000D02*
X129710000Y-122310000D01*
X129710000Y-122310000D02*
X136130000Y-122310000D01*
X136130000Y-122310000D02*
X136130000Y-119690000D01*
X136130000Y-119690000D02*
X129710000Y-119690000D01*
X128820000Y-121000000D02*
X129710000Y-121000000D01*
X137020000Y-121000000D02*
X136130000Y-121000000D01*
X141690000Y-135630000D02*
X144310000Y-135630000D01*
X144310000Y-135630000D02*
X144310000Y-129210000D01*
X144310000Y-129210000D02*
X141690000Y-129210000D01*
X141690000Y-129210000D02*
X141690000Y-135630000D01*
X143000000Y-136520000D02*
X143000000Y-135630000D01*
X143000000Y-128320000D02*
X143000000Y-129210000D01*
X141690000Y-120790000D02*
X144310000Y-120790000D01*
X144310000Y-120790000D02*
X144310000Y-114370000D01*
X144310000Y-114370000D02*
X141690000Y-114370000D01*
X141690000Y-114370000D02*
X141690000Y-120790000D01*
X143000000Y-121680000D02*
X143000000Y-120790000D01*
X143000000Y-113480000D02*
X143000000Y-114370000D01*
X158630000Y-143310000D02*
X158630000Y-140690000D01*
X158630000Y-140690000D02*
X152210000Y-140690000D01*
X152210000Y-140690000D02*
X152210000Y-143310000D01*
X152210000Y-143310000D02*
X158630000Y-143310000D01*
X159520000Y-142000000D02*
X158630000Y-142000000D01*
X151320000Y-142000000D02*
X152210000Y-142000000D01*
X180630000Y-143310000D02*
X180630000Y-140690000D01*
X180630000Y-140690000D02*
X174210000Y-140690000D01*
X174210000Y-140690000D02*
X174210000Y-143310000D01*
X174210000Y-143310000D02*
X180630000Y-143310000D01*
X181520000Y-142000000D02*
X180630000Y-142000000D01*
X173320000Y-142000000D02*
X174210000Y-142000000D01*
X197130000Y-143310000D02*
X197130000Y-140690000D01*
X197130000Y-140690000D02*
X190710000Y-140690000D01*
X190710000Y-140690000D02*
X190710000Y-143310000D01*
X190710000Y-143310000D02*
X197130000Y-143310000D01*
X198020000Y-142000000D02*
X197130000Y-142000000D01*
X189820000Y-142000000D02*
X190710000Y-142000000D01*
X219130000Y-143310000D02*
X219130000Y-140690000D01*
X219130000Y-140690000D02*
X212710000Y-140690000D01*
X212710000Y-140690000D02*
X212710000Y-143310000D01*
X212710000Y-143310000D02*
X219130000Y-143310000D01*
X220020000Y-142000000D02*
X219130000Y-142000000D01*
X211820000Y-142000000D02*
X212710000Y-142000000D01*
X175810000Y-104870000D02*
X173190000Y-104870000D01*
X173190000Y-104870000D02*
X173190000Y-111290000D01*
X173190000Y-111290000D02*
X175810000Y-111290000D01*
X175810000Y-111290000D02*
X175810000Y-104870000D01*
X174500000Y-103980000D02*
X174500000Y-104870000D01*
X174500000Y-112180000D02*
X174500000Y-111290000D01*
X168810000Y-104710000D02*
X166190000Y-104710000D01*
X166190000Y-104710000D02*
X166190000Y-111130000D01*
X166190000Y-111130000D02*
X168810000Y-111130000D01*
X168810000Y-111130000D02*
X168810000Y-104710000D01*
X167500000Y-103820000D02*
X167500000Y-104710000D01*
X167500000Y-112020000D02*
X167500000Y-111130000D01*
X213810000Y-104870000D02*
X211190000Y-104870000D01*
X211190000Y-104870000D02*
X211190000Y-111290000D01*
X211190000Y-111290000D02*
X213810000Y-111290000D01*
X213810000Y-111290000D02*
X213810000Y-104870000D01*
X212500000Y-103980000D02*
X212500000Y-104870000D01*
X212500000Y-112180000D02*
X212500000Y-111290000D01*
X207310000Y-104870000D02*
X204690000Y-104870000D01*
X204690000Y-104870000D02*
X204690000Y-111290000D01*
X204690000Y-111290000D02*
X207310000Y-111290000D01*
X207310000Y-111290000D02*
X207310000Y-104870000D01*
X206000000Y-103980000D02*
X206000000Y-104870000D01*
X206000000Y-112180000D02*
X206000000Y-111290000D01*
X167710000Y-119190000D02*
X167710000Y-121810000D01*
X167710000Y-121810000D02*
X174130000Y-121810000D01*
X174130000Y-121810000D02*
X174130000Y-119190000D01*
X174130000Y-119190000D02*
X167710000Y-119190000D01*
X166820000Y-120500000D02*
X167710000Y-120500000D01*
X175020000Y-120500000D02*
X174130000Y-120500000D01*
X206370000Y-119190000D02*
X206370000Y-121810000D01*
X206370000Y-121810000D02*
X212790000Y-121810000D01*
X212790000Y-121810000D02*
X212790000Y-119190000D01*
X212790000Y-119190000D02*
X206370000Y-119190000D01*
X205480000Y-120500000D02*
X206370000Y-120500000D01*
X213680000Y-120500000D02*
X212790000Y-120500000D01*
X179190000Y-135630000D02*
X181810000Y-135630000D01*
X181810000Y-135630000D02*
X181810000Y-129210000D01*
X181810000Y-129210000D02*
X179190000Y-129210000D01*
X179190000Y-129210000D02*
X179190000Y-135630000D01*
X180500000Y-136520000D02*
X180500000Y-135630000D01*
X180500000Y-128320000D02*
X180500000Y-129210000D01*
X218190000Y-136290000D02*
X220810000Y-136290000D01*
X220810000Y-136290000D02*
X220810000Y-129870000D01*
X220810000Y-129870000D02*
X218190000Y-129870000D01*
X218190000Y-129870000D02*
X218190000Y-136290000D01*
X219500000Y-137180000D02*
X219500000Y-136290000D01*
X219500000Y-128980000D02*
X219500000Y-129870000D01*
X179190000Y-121290000D02*
X181810000Y-121290000D01*
X181810000Y-121290000D02*
X181810000Y-114870000D01*
X181810000Y-114870000D02*
X179190000Y-114870000D01*
X179190000Y-114870000D02*
X179190000Y-121290000D01*
X180500000Y-122180000D02*
X180500000Y-121290000D01*
X180500000Y-113980000D02*
X180500000Y-114870000D01*
X218190000Y-121290000D02*
X220810000Y-121290000D01*
X220810000Y-121290000D02*
X220810000Y-114870000D01*
X220810000Y-114870000D02*
X218190000Y-114870000D01*
X218190000Y-114870000D02*
X218190000Y-121290000D01*
X219500000Y-122180000D02*
X219500000Y-121290000D01*
X219500000Y-113980000D02*
X219500000Y-114870000D01*
X141080000Y-132480000D02*
X141080000Y-129880000D01*
X141080000Y-129880000D02*
X138420000Y-129880000D01*
X138420000Y-129880000D02*
X138420000Y-132480000D01*
X138420000Y-132480000D02*
X141080000Y-132480000D01*
X141080000Y-133750000D02*
X141080000Y-135080000D01*
X141080000Y-135080000D02*
X139750000Y-135080000D01*
X132980000Y-119080000D02*
X135580000Y-119080000D01*
X135580000Y-119080000D02*
X135580000Y-116420000D01*
X135580000Y-116420000D02*
X132980000Y-116420000D01*
X132980000Y-116420000D02*
X132980000Y-119080000D01*
X131710000Y-119080000D02*
X130380000Y-119080000D01*
X130380000Y-119080000D02*
X130380000Y-117750000D01*
X178580000Y-132480000D02*
X178580000Y-129880000D01*
X178580000Y-129880000D02*
X175920000Y-129880000D01*
X175920000Y-129880000D02*
X175920000Y-132480000D01*
X175920000Y-132480000D02*
X178580000Y-132480000D01*
X178580000Y-133750000D02*
X178580000Y-135080000D01*
X178580000Y-135080000D02*
X177250000Y-135080000D01*
X170980000Y-118580000D02*
X173580000Y-118580000D01*
X173580000Y-118580000D02*
X173580000Y-115920000D01*
X173580000Y-115920000D02*
X170980000Y-115920000D01*
X170980000Y-115920000D02*
X170980000Y-118580000D01*
X169710000Y-118580000D02*
X168380000Y-118580000D01*
X168380000Y-118580000D02*
X168380000Y-117250000D01*
X217580000Y-133020000D02*
X217580000Y-130420000D01*
X217580000Y-130420000D02*
X214920000Y-130420000D01*
X214920000Y-130420000D02*
X214920000Y-133020000D01*
X214920000Y-133020000D02*
X217580000Y-133020000D01*
X217580000Y-134290000D02*
X217580000Y-135620000D01*
X217580000Y-135620000D02*
X216250000Y-135620000D01*
X209730000Y-118580000D02*
X212330000Y-118580000D01*
X212330000Y-118580000D02*
X212330000Y-115920000D01*
X212330000Y-115920000D02*
X209730000Y-115920000D01*
X209730000Y-115920000D02*
X209730000Y-118580000D01*
X208460000Y-118580000D02*
X207130000Y-118580000D01*
X207130000Y-118580000D02*
X207130000Y-117250000D01*
D12*
X132048095Y-122522381D02*
X132048095Y-123331905D01*
X132095714Y-123427143D01*
X132143333Y-123474762D01*
X132238571Y-123522381D01*
X132429048Y-123522381D01*
X132524286Y-123474762D01*
X132571905Y-123427143D01*
X132619524Y-123331905D01*
X132619524Y-122522381D01*
X133048095Y-122617619D02*
X133095714Y-122570000D01*
X133190952Y-122522381D01*
X133429048Y-122522381D01*
X133524286Y-122570000D01*
X133571905Y-122617619D01*
X133619524Y-122712857D01*
X133619524Y-122808095D01*
X133571905Y-122950952D01*
X133000476Y-123522381D01*
X133619524Y-123522381D01*
X131261905Y-85852381D02*
X131261905Y-84852381D01*
X131642858Y-84852381D01*
X131738096Y-84900000D01*
X131785715Y-84947619D01*
X131833334Y-85042857D01*
X131833334Y-85185714D01*
X131785715Y-85280952D01*
X131738096Y-85328571D01*
X131642858Y-85376190D01*
X131261905Y-85376190D01*
X132785715Y-85852381D02*
X132214286Y-85852381D01*
X132500000Y-85852381D02*
X132500000Y-84852381D01*
X132404762Y-84995238D01*
X132309524Y-85090476D01*
X132214286Y-85138095D01*
X168761905Y-86352381D02*
X168761905Y-85352381D01*
X169142858Y-85352381D01*
X169238096Y-85400000D01*
X169285715Y-85447619D01*
X169333334Y-85542857D01*
X169333334Y-85685714D01*
X169285715Y-85780952D01*
X169238096Y-85828571D01*
X169142858Y-85876190D01*
X168761905Y-85876190D01*
X169714286Y-85447619D02*
X169761905Y-85400000D01*
X169857143Y-85352381D01*
X170095239Y-85352381D01*
X170190477Y-85400000D01*
X170238096Y-85447619D01*
X170285715Y-85542857D01*
X170285715Y-85638095D01*
X170238096Y-85780952D01*
X169666667Y-86352381D01*
X170285715Y-86352381D01*
X207221905Y-85852381D02*
X207221905Y-84852381D01*
X207602858Y-84852381D01*
X207698096Y-84900000D01*
X207745715Y-84947619D01*
X207793334Y-85042857D01*
X207793334Y-85185714D01*
X207745715Y-85280952D01*
X207698096Y-85328571D01*
X207602858Y-85376190D01*
X207221905Y-85376190D01*
X208126667Y-84852381D02*
X208745715Y-84852381D01*
X208412381Y-85233333D01*
X208555239Y-85233333D01*
X208650477Y-85280952D01*
X208698096Y-85328571D01*
X208745715Y-85423810D01*
X208745715Y-85661905D01*
X208698096Y-85757143D01*
X208650477Y-85804762D01*
X208555239Y-85852381D01*
X208269524Y-85852381D01*
X208174286Y-85804762D01*
X208126667Y-85757143D01*
X127048095Y-63922381D02*
X127048095Y-64731905D01*
X127095714Y-64827143D01*
X127143333Y-64874762D01*
X127238571Y-64922381D01*
X127429048Y-64922381D01*
X127524286Y-64874762D01*
X127571905Y-64827143D01*
X127619524Y-64731905D01*
X127619524Y-63922381D01*
X128619524Y-64922381D02*
X128048095Y-64922381D01*
X128333809Y-64922381D02*
X128333809Y-63922381D01*
X128238571Y-64065238D01*
X128143333Y-64160476D01*
X128048095Y-64208095D01*
X169428095Y-122482381D02*
X169428095Y-123291905D01*
X169475714Y-123387143D01*
X169523333Y-123434762D01*
X169618571Y-123482381D01*
X169809048Y-123482381D01*
X169904286Y-123434762D01*
X169951905Y-123387143D01*
X169999524Y-123291905D01*
X169999524Y-122482381D01*
X170380476Y-122482381D02*
X170999524Y-122482381D01*
X170666190Y-122863333D01*
X170809048Y-122863333D01*
X170904286Y-122910952D01*
X170951905Y-122958571D01*
X170999524Y-123053810D01*
X170999524Y-123291905D01*
X170951905Y-123387143D01*
X170904286Y-123434762D01*
X170809048Y-123482381D01*
X170523333Y-123482381D01*
X170428095Y-123434762D01*
X170380476Y-123387143D01*
X208428095Y-122482381D02*
X208428095Y-123291905D01*
X208475714Y-123387143D01*
X208523333Y-123434762D01*
X208618571Y-123482381D01*
X208809048Y-123482381D01*
X208904286Y-123434762D01*
X208951905Y-123387143D01*
X208999524Y-123291905D01*
X208999524Y-122482381D01*
X209904286Y-122815714D02*
X209904286Y-123482381D01*
X209666190Y-122434762D02*
X209428095Y-123149048D01*
X210047143Y-123149048D01*
X128404762Y-139912381D02*
X128071428Y-139436190D01*
X127833333Y-139912381D02*
X127833333Y-138912381D01*
X128214286Y-138912381D01*
X128309524Y-138960000D01*
X128357143Y-139007619D01*
X128404762Y-139102857D01*
X128404762Y-139245714D01*
X128357143Y-139340952D01*
X128309524Y-139388571D01*
X128214286Y-139436190D01*
X127833333Y-139436190D01*
X128690476Y-138912381D02*
X129023809Y-139912381D01*
X129357143Y-138912381D01*
X130214286Y-139912381D02*
X129642857Y-139912381D01*
X129928571Y-139912381D02*
X129928571Y-138912381D01*
X129833333Y-139055238D01*
X129738095Y-139150476D01*
X129642857Y-139198095D01*
X165904762Y-139912381D02*
X165571428Y-139436190D01*
X165333333Y-139912381D02*
X165333333Y-138912381D01*
X165714286Y-138912381D01*
X165809524Y-138960000D01*
X165857143Y-139007619D01*
X165904762Y-139102857D01*
X165904762Y-139245714D01*
X165857143Y-139340952D01*
X165809524Y-139388571D01*
X165714286Y-139436190D01*
X165333333Y-139436190D01*
X166190476Y-138912381D02*
X166523809Y-139912381D01*
X166857143Y-138912381D01*
X167142857Y-139007619D02*
X167190476Y-138960000D01*
X167285714Y-138912381D01*
X167523810Y-138912381D01*
X167619048Y-138960000D01*
X167666667Y-139007619D01*
X167714286Y-139102857D01*
X167714286Y-139198095D01*
X167666667Y-139340952D01*
X167095238Y-139912381D01*
X167714286Y-139912381D01*
X204404762Y-139912381D02*
X204071428Y-139436190D01*
X203833333Y-139912381D02*
X203833333Y-138912381D01*
X204214286Y-138912381D01*
X204309524Y-138960000D01*
X204357143Y-139007619D01*
X204404762Y-139102857D01*
X204404762Y-139245714D01*
X204357143Y-139340952D01*
X204309524Y-139388571D01*
X204214286Y-139436190D01*
X203833333Y-139436190D01*
X204690476Y-138912381D02*
X205023809Y-139912381D01*
X205357143Y-138912381D01*
X205595238Y-138912381D02*
X206214286Y-138912381D01*
X205880952Y-139293333D01*
X206023810Y-139293333D01*
X206119048Y-139340952D01*
X206166667Y-139388571D01*
X206214286Y-139483810D01*
X206214286Y-139721905D01*
X206166667Y-139817143D01*
X206119048Y-139864762D01*
X206023810Y-139912381D01*
X205738095Y-139912381D01*
X205642857Y-139864762D01*
X205595238Y-139817143D01*
X204972381Y-65491905D02*
X205781905Y-65491905D01*
X205877143Y-65444286D01*
X205924762Y-65396667D01*
X205972381Y-65301429D01*
X205972381Y-65110952D01*
X205924762Y-65015714D01*
X205877143Y-64968095D01*
X205781905Y-64920476D01*
X204972381Y-64920476D01*
X204972381Y-63968095D02*
X204972381Y-64444286D01*
X205448571Y-64491905D01*
X205400952Y-64444286D01*
X205353333Y-64349048D01*
X205353333Y-64110952D01*
X205400952Y-64015714D01*
X205448571Y-63968095D01*
X205543810Y-63920476D01*
X205781905Y-63920476D01*
X205877143Y-63968095D01*
X205924762Y-64015714D01*
X205972381Y-64110952D01*
X205972381Y-64349048D01*
X205924762Y-64444286D01*
X205877143Y-64491905D01*
X131417143Y-69166666D02*
X131464762Y-69214285D01*
X131512381Y-69357142D01*
X131512381Y-69452380D01*
X131464762Y-69595238D01*
X131369524Y-69690476D01*
X131274286Y-69738095D01*
X131083810Y-69785714D01*
X130940952Y-69785714D01*
X130750476Y-69738095D01*
X130655238Y-69690476D01*
X130560000Y-69595238D01*
X130512381Y-69452380D01*
X130512381Y-69357142D01*
X130560000Y-69214285D01*
X130607619Y-69166666D01*
X131512381Y-68214285D02*
X131512381Y-68785714D01*
X131512381Y-68500000D02*
X130512381Y-68500000D01*
X130655238Y-68595238D01*
X130750476Y-68690476D01*
X130798095Y-68785714D01*
X116833334Y-78917143D02*
X116785715Y-78964762D01*
X116642858Y-79012381D01*
X116547620Y-79012381D01*
X116404762Y-78964762D01*
X116309524Y-78869524D01*
X116261905Y-78774286D01*
X116214286Y-78583810D01*
X116214286Y-78440952D01*
X116261905Y-78250476D01*
X116309524Y-78155238D01*
X116404762Y-78060000D01*
X116547620Y-78012381D01*
X116642858Y-78012381D01*
X116785715Y-78060000D01*
X116833334Y-78107619D01*
X117214286Y-78107619D02*
X117261905Y-78060000D01*
X117357143Y-78012381D01*
X117595239Y-78012381D01*
X117690477Y-78060000D01*
X117738096Y-78107619D01*
X117785715Y-78202857D01*
X117785715Y-78298095D01*
X117738096Y-78440952D01*
X117166667Y-79012381D01*
X117785715Y-79012381D01*
X136797143Y-57166666D02*
X136844762Y-57214285D01*
X136892381Y-57357142D01*
X136892381Y-57452380D01*
X136844762Y-57595238D01*
X136749524Y-57690476D01*
X136654286Y-57738095D01*
X136463810Y-57785714D01*
X136320952Y-57785714D01*
X136130476Y-57738095D01*
X136035238Y-57690476D01*
X135940000Y-57595238D01*
X135892381Y-57452380D01*
X135892381Y-57357142D01*
X135940000Y-57214285D01*
X135987619Y-57166666D01*
X135892381Y-56833333D02*
X135892381Y-56214285D01*
X136273333Y-56547619D01*
X136273333Y-56404761D01*
X136320952Y-56309523D01*
X136368571Y-56261904D01*
X136463810Y-56214285D01*
X136701905Y-56214285D01*
X136797143Y-56261904D01*
X136844762Y-56309523D01*
X136892381Y-56404761D01*
X136892381Y-56690476D01*
X136844762Y-56785714D01*
X136797143Y-56833333D01*
X116833334Y-72917143D02*
X116785715Y-72964762D01*
X116642858Y-73012381D01*
X116547620Y-73012381D01*
X116404762Y-72964762D01*
X116309524Y-72869524D01*
X116261905Y-72774286D01*
X116214286Y-72583810D01*
X116214286Y-72440952D01*
X116261905Y-72250476D01*
X116309524Y-72155238D01*
X116404762Y-72060000D01*
X116547620Y-72012381D01*
X116642858Y-72012381D01*
X116785715Y-72060000D01*
X116833334Y-72107619D01*
X117690477Y-72345714D02*
X117690477Y-73012381D01*
X117452381Y-71964762D02*
X117214286Y-72679048D01*
X117833334Y-72679048D01*
X120333334Y-129097143D02*
X120285715Y-129144762D01*
X120142858Y-129192381D01*
X120047620Y-129192381D01*
X119904762Y-129144762D01*
X119809524Y-129049524D01*
X119761905Y-128954286D01*
X119714286Y-128763810D01*
X119714286Y-128620952D01*
X119761905Y-128430476D01*
X119809524Y-128335238D01*
X119904762Y-128240000D01*
X120047620Y-128192381D01*
X120142858Y-128192381D01*
X120285715Y-128240000D01*
X120333334Y-128287619D01*
X121238096Y-128192381D02*
X120761905Y-128192381D01*
X120714286Y-128668571D01*
X120761905Y-128620952D01*
X120857143Y-128573333D01*
X121095239Y-128573333D01*
X121190477Y-128620952D01*
X121238096Y-128668571D01*
X121285715Y-128763810D01*
X121285715Y-129001905D01*
X121238096Y-129097143D01*
X121190477Y-129144762D01*
X121095239Y-129192381D01*
X120857143Y-129192381D01*
X120761905Y-129144762D01*
X120714286Y-129097143D01*
X157333334Y-129097143D02*
X157285715Y-129144762D01*
X157142858Y-129192381D01*
X157047620Y-129192381D01*
X156904762Y-129144762D01*
X156809524Y-129049524D01*
X156761905Y-128954286D01*
X156714286Y-128763810D01*
X156714286Y-128620952D01*
X156761905Y-128430476D01*
X156809524Y-128335238D01*
X156904762Y-128240000D01*
X157047620Y-128192381D01*
X157142858Y-128192381D01*
X157285715Y-128240000D01*
X157333334Y-128287619D01*
X158190477Y-128192381D02*
X158000000Y-128192381D01*
X157904762Y-128240000D01*
X157857143Y-128287619D01*
X157761905Y-128430476D01*
X157714286Y-128620952D01*
X157714286Y-129001905D01*
X157761905Y-129097143D01*
X157809524Y-129144762D01*
X157904762Y-129192381D01*
X158095239Y-129192381D01*
X158190477Y-129144762D01*
X158238096Y-129097143D01*
X158285715Y-129001905D01*
X158285715Y-128763810D01*
X158238096Y-128668571D01*
X158190477Y-128620952D01*
X158095239Y-128573333D01*
X157904762Y-128573333D01*
X157809524Y-128620952D01*
X157761905Y-128668571D01*
X157714286Y-128763810D01*
X195833334Y-129597143D02*
X195785715Y-129644762D01*
X195642858Y-129692381D01*
X195547620Y-129692381D01*
X195404762Y-129644762D01*
X195309524Y-129549524D01*
X195261905Y-129454286D01*
X195214286Y-129263810D01*
X195214286Y-129120952D01*
X195261905Y-128930476D01*
X195309524Y-128835238D01*
X195404762Y-128740000D01*
X195547620Y-128692381D01*
X195642858Y-128692381D01*
X195785715Y-128740000D01*
X195833334Y-128787619D01*
X196166667Y-128692381D02*
X196833334Y-128692381D01*
X196404762Y-129692381D01*
X120333334Y-122097143D02*
X120285715Y-122144762D01*
X120142858Y-122192381D01*
X120047620Y-122192381D01*
X119904762Y-122144762D01*
X119809524Y-122049524D01*
X119761905Y-121954286D01*
X119714286Y-121763810D01*
X119714286Y-121620952D01*
X119761905Y-121430476D01*
X119809524Y-121335238D01*
X119904762Y-121240000D01*
X120047620Y-121192381D01*
X120142858Y-121192381D01*
X120285715Y-121240000D01*
X120333334Y-121287619D01*
X120904762Y-121620952D02*
X120809524Y-121573333D01*
X120761905Y-121525714D01*
X120714286Y-121430476D01*
X120714286Y-121382857D01*
X120761905Y-121287619D01*
X120809524Y-121240000D01*
X120904762Y-121192381D01*
X121095239Y-121192381D01*
X121190477Y-121240000D01*
X121238096Y-121287619D01*
X121285715Y-121382857D01*
X121285715Y-121430476D01*
X121238096Y-121525714D01*
X121190477Y-121573333D01*
X121095239Y-121620952D01*
X120904762Y-121620952D01*
X120809524Y-121668571D01*
X120761905Y-121716190D01*
X120714286Y-121811429D01*
X120714286Y-122001905D01*
X120761905Y-122097143D01*
X120809524Y-122144762D01*
X120904762Y-122192381D01*
X121095239Y-122192381D01*
X121190477Y-122144762D01*
X121238096Y-122097143D01*
X121285715Y-122001905D01*
X121285715Y-121811429D01*
X121238096Y-121716190D01*
X121190477Y-121668571D01*
X121095239Y-121620952D01*
X157333334Y-122097143D02*
X157285715Y-122144762D01*
X157142858Y-122192381D01*
X157047620Y-122192381D01*
X156904762Y-122144762D01*
X156809524Y-122049524D01*
X156761905Y-121954286D01*
X156714286Y-121763810D01*
X156714286Y-121620952D01*
X156761905Y-121430476D01*
X156809524Y-121335238D01*
X156904762Y-121240000D01*
X157047620Y-121192381D01*
X157142858Y-121192381D01*
X157285715Y-121240000D01*
X157333334Y-121287619D01*
X157809524Y-122192381D02*
X158000000Y-122192381D01*
X158095239Y-122144762D01*
X158142858Y-122097143D01*
X158238096Y-121954286D01*
X158285715Y-121763810D01*
X158285715Y-121382857D01*
X158238096Y-121287619D01*
X158190477Y-121240000D01*
X158095239Y-121192381D01*
X157904762Y-121192381D01*
X157809524Y-121240000D01*
X157761905Y-121287619D01*
X157714286Y-121382857D01*
X157714286Y-121620952D01*
X157761905Y-121716190D01*
X157809524Y-121763810D01*
X157904762Y-121811429D01*
X158095239Y-121811429D01*
X158190477Y-121763810D01*
X158238096Y-121716190D01*
X158285715Y-121620952D01*
X195357143Y-122597143D02*
X195309524Y-122644762D01*
X195166667Y-122692381D01*
X195071429Y-122692381D01*
X194928571Y-122644762D01*
X194833333Y-122549524D01*
X194785714Y-122454286D01*
X194738095Y-122263810D01*
X194738095Y-122120952D01*
X194785714Y-121930476D01*
X194833333Y-121835238D01*
X194928571Y-121740000D01*
X195071429Y-121692381D01*
X195166667Y-121692381D01*
X195309524Y-121740000D01*
X195357143Y-121787619D01*
X196309524Y-122692381D02*
X195738095Y-122692381D01*
X196023809Y-122692381D02*
X196023809Y-121692381D01*
X195928571Y-121835238D01*
X195833333Y-121930476D01*
X195738095Y-121978095D01*
X196928571Y-121692381D02*
X197023810Y-121692381D01*
X197119048Y-121740000D01*
X197166667Y-121787619D01*
X197214286Y-121882857D01*
X197261905Y-122073333D01*
X197261905Y-122311429D01*
X197214286Y-122501905D01*
X197166667Y-122597143D01*
X197119048Y-122644762D01*
X197023810Y-122692381D01*
X196928571Y-122692381D01*
X196833333Y-122644762D01*
X196785714Y-122597143D01*
X196738095Y-122501905D01*
X196690476Y-122311429D01*
X196690476Y-122073333D01*
X196738095Y-121882857D01*
X196785714Y-121787619D01*
X196833333Y-121740000D01*
X196928571Y-121692381D01*
X133597143Y-97642857D02*
X133644762Y-97690476D01*
X133692381Y-97833333D01*
X133692381Y-97928571D01*
X133644762Y-98071429D01*
X133549524Y-98166667D01*
X133454286Y-98214286D01*
X133263810Y-98261905D01*
X133120952Y-98261905D01*
X132930476Y-98214286D01*
X132835238Y-98166667D01*
X132740000Y-98071429D01*
X132692381Y-97928571D01*
X132692381Y-97833333D01*
X132740000Y-97690476D01*
X132787619Y-97642857D01*
X133692381Y-96690476D02*
X133692381Y-97261905D01*
X133692381Y-96976191D02*
X132692381Y-96976191D01*
X132835238Y-97071429D01*
X132930476Y-97166667D01*
X132978095Y-97261905D01*
X133692381Y-95738095D02*
X133692381Y-96309524D01*
X133692381Y-96023810D02*
X132692381Y-96023810D01*
X132835238Y-96119048D01*
X132930476Y-96214286D01*
X132978095Y-96309524D01*
X126597143Y-97642857D02*
X126644762Y-97690476D01*
X126692381Y-97833333D01*
X126692381Y-97928571D01*
X126644762Y-98071429D01*
X126549524Y-98166667D01*
X126454286Y-98214286D01*
X126263810Y-98261905D01*
X126120952Y-98261905D01*
X125930476Y-98214286D01*
X125835238Y-98166667D01*
X125740000Y-98071429D01*
X125692381Y-97928571D01*
X125692381Y-97833333D01*
X125740000Y-97690476D01*
X125787619Y-97642857D01*
X126692381Y-96690476D02*
X126692381Y-97261905D01*
X126692381Y-96976191D02*
X125692381Y-96976191D01*
X125835238Y-97071429D01*
X125930476Y-97166667D01*
X125978095Y-97261905D01*
X125787619Y-96309524D02*
X125740000Y-96261905D01*
X125692381Y-96166667D01*
X125692381Y-95928571D01*
X125740000Y-95833333D01*
X125787619Y-95785714D01*
X125882857Y-95738095D01*
X125978095Y-95738095D01*
X126120952Y-95785714D01*
X126692381Y-96357143D01*
X126692381Y-95738095D01*
X171597143Y-98142857D02*
X171644762Y-98190476D01*
X171692381Y-98333333D01*
X171692381Y-98428571D01*
X171644762Y-98571429D01*
X171549524Y-98666667D01*
X171454286Y-98714286D01*
X171263810Y-98761905D01*
X171120952Y-98761905D01*
X170930476Y-98714286D01*
X170835238Y-98666667D01*
X170740000Y-98571429D01*
X170692381Y-98428571D01*
X170692381Y-98333333D01*
X170740000Y-98190476D01*
X170787619Y-98142857D01*
X171692381Y-97190476D02*
X171692381Y-97761905D01*
X171692381Y-97476191D02*
X170692381Y-97476191D01*
X170835238Y-97571429D01*
X170930476Y-97666667D01*
X170978095Y-97761905D01*
X170692381Y-96857143D02*
X170692381Y-96238095D01*
X171073333Y-96571429D01*
X171073333Y-96428571D01*
X171120952Y-96333333D01*
X171168571Y-96285714D01*
X171263810Y-96238095D01*
X171501905Y-96238095D01*
X171597143Y-96285714D01*
X171644762Y-96333333D01*
X171692381Y-96428571D01*
X171692381Y-96714286D01*
X171644762Y-96809524D01*
X171597143Y-96857143D01*
X164597143Y-98142857D02*
X164644762Y-98190476D01*
X164692381Y-98333333D01*
X164692381Y-98428571D01*
X164644762Y-98571429D01*
X164549524Y-98666667D01*
X164454286Y-98714286D01*
X164263810Y-98761905D01*
X164120952Y-98761905D01*
X163930476Y-98714286D01*
X163835238Y-98666667D01*
X163740000Y-98571429D01*
X163692381Y-98428571D01*
X163692381Y-98333333D01*
X163740000Y-98190476D01*
X163787619Y-98142857D01*
X164692381Y-97190476D02*
X164692381Y-97761905D01*
X164692381Y-97476191D02*
X163692381Y-97476191D01*
X163835238Y-97571429D01*
X163930476Y-97666667D01*
X163978095Y-97761905D01*
X164025714Y-96333333D02*
X164692381Y-96333333D01*
X163644762Y-96571429D02*
X164359048Y-96809524D01*
X164359048Y-96190476D01*
X209597143Y-98142857D02*
X209644762Y-98190476D01*
X209692381Y-98333333D01*
X209692381Y-98428571D01*
X209644762Y-98571429D01*
X209549524Y-98666667D01*
X209454286Y-98714286D01*
X209263810Y-98761905D01*
X209120952Y-98761905D01*
X208930476Y-98714286D01*
X208835238Y-98666667D01*
X208740000Y-98571429D01*
X208692381Y-98428571D01*
X208692381Y-98333333D01*
X208740000Y-98190476D01*
X208787619Y-98142857D01*
X209692381Y-97190476D02*
X209692381Y-97761905D01*
X209692381Y-97476191D02*
X208692381Y-97476191D01*
X208835238Y-97571429D01*
X208930476Y-97666667D01*
X208978095Y-97761905D01*
X208692381Y-96285714D02*
X208692381Y-96761905D01*
X209168571Y-96809524D01*
X209120952Y-96761905D01*
X209073333Y-96666667D01*
X209073333Y-96428571D01*
X209120952Y-96333333D01*
X209168571Y-96285714D01*
X209263810Y-96238095D01*
X209501905Y-96238095D01*
X209597143Y-96285714D01*
X209644762Y-96333333D01*
X209692381Y-96428571D01*
X209692381Y-96666667D01*
X209644762Y-96761905D01*
X209597143Y-96809524D01*
X203097143Y-98142857D02*
X203144762Y-98190476D01*
X203192381Y-98333333D01*
X203192381Y-98428571D01*
X203144762Y-98571429D01*
X203049524Y-98666667D01*
X202954286Y-98714286D01*
X202763810Y-98761905D01*
X202620952Y-98761905D01*
X202430476Y-98714286D01*
X202335238Y-98666667D01*
X202240000Y-98571429D01*
X202192381Y-98428571D01*
X202192381Y-98333333D01*
X202240000Y-98190476D01*
X202287619Y-98142857D01*
X203192381Y-97190476D02*
X203192381Y-97761905D01*
X203192381Y-97476191D02*
X202192381Y-97476191D01*
X202335238Y-97571429D01*
X202430476Y-97666667D01*
X202478095Y-97761905D01*
X202192381Y-96333333D02*
X202192381Y-96523810D01*
X202240000Y-96619048D01*
X202287619Y-96666667D01*
X202430476Y-96761905D01*
X202620952Y-96809524D01*
X203001905Y-96809524D01*
X203097143Y-96761905D01*
X203144762Y-96714286D01*
X203192381Y-96619048D01*
X203192381Y-96428571D01*
X203144762Y-96333333D01*
X203097143Y-96285714D01*
X203001905Y-96238095D01*
X202763810Y-96238095D01*
X202668571Y-96285714D01*
X202620952Y-96333333D01*
X202573333Y-96428571D01*
X202573333Y-96619048D01*
X202620952Y-96714286D01*
X202668571Y-96761905D01*
X202763810Y-96809524D01*
X146617143Y-107142857D02*
X146664762Y-107190476D01*
X146712381Y-107333333D01*
X146712381Y-107428571D01*
X146664762Y-107571429D01*
X146569524Y-107666667D01*
X146474286Y-107714286D01*
X146283810Y-107761905D01*
X146140952Y-107761905D01*
X145950476Y-107714286D01*
X145855238Y-107666667D01*
X145760000Y-107571429D01*
X145712381Y-107428571D01*
X145712381Y-107333333D01*
X145760000Y-107190476D01*
X145807619Y-107142857D01*
X146712381Y-106190476D02*
X146712381Y-106761905D01*
X146712381Y-106476191D02*
X145712381Y-106476191D01*
X145855238Y-106571429D01*
X145950476Y-106666667D01*
X145998095Y-106761905D01*
X145712381Y-105857143D02*
X145712381Y-105190476D01*
X146712381Y-105619048D01*
X184117143Y-107642857D02*
X184164762Y-107690476D01*
X184212381Y-107833333D01*
X184212381Y-107928571D01*
X184164762Y-108071429D01*
X184069524Y-108166667D01*
X183974286Y-108214286D01*
X183783810Y-108261905D01*
X183640952Y-108261905D01*
X183450476Y-108214286D01*
X183355238Y-108166667D01*
X183260000Y-108071429D01*
X183212381Y-107928571D01*
X183212381Y-107833333D01*
X183260000Y-107690476D01*
X183307619Y-107642857D01*
X184212381Y-106690476D02*
X184212381Y-107261905D01*
X184212381Y-106976191D02*
X183212381Y-106976191D01*
X183355238Y-107071429D01*
X183450476Y-107166667D01*
X183498095Y-107261905D01*
X183640952Y-106119048D02*
X183593333Y-106214286D01*
X183545714Y-106261905D01*
X183450476Y-106309524D01*
X183402857Y-106309524D01*
X183307619Y-106261905D01*
X183260000Y-106214286D01*
X183212381Y-106119048D01*
X183212381Y-105928571D01*
X183260000Y-105833333D01*
X183307619Y-105785714D01*
X183402857Y-105738095D01*
X183450476Y-105738095D01*
X183545714Y-105785714D01*
X183593333Y-105833333D01*
X183640952Y-105928571D01*
X183640952Y-106119048D01*
X183688571Y-106214286D01*
X183736190Y-106261905D01*
X183831429Y-106309524D01*
X184021905Y-106309524D01*
X184117143Y-106261905D01*
X184164762Y-106214286D01*
X184212381Y-106119048D01*
X184212381Y-105928571D01*
X184164762Y-105833333D01*
X184117143Y-105785714D01*
X184021905Y-105738095D01*
X183831429Y-105738095D01*
X183736190Y-105785714D01*
X183688571Y-105833333D01*
X183640952Y-105928571D01*
X223117143Y-107142857D02*
X223164762Y-107190476D01*
X223212381Y-107333333D01*
X223212381Y-107428571D01*
X223164762Y-107571429D01*
X223069524Y-107666667D01*
X222974286Y-107714286D01*
X222783810Y-107761905D01*
X222640952Y-107761905D01*
X222450476Y-107714286D01*
X222355238Y-107666667D01*
X222260000Y-107571429D01*
X222212381Y-107428571D01*
X222212381Y-107333333D01*
X222260000Y-107190476D01*
X222307619Y-107142857D01*
X223212381Y-106190476D02*
X223212381Y-106761905D01*
X223212381Y-106476191D02*
X222212381Y-106476191D01*
X222355238Y-106571429D01*
X222450476Y-106666667D01*
X222498095Y-106761905D01*
X223212381Y-105714286D02*
X223212381Y-105523810D01*
X223164762Y-105428571D01*
X223117143Y-105380952D01*
X222974286Y-105285714D01*
X222783810Y-105238095D01*
X222402857Y-105238095D01*
X222307619Y-105285714D01*
X222260000Y-105333333D01*
X222212381Y-105428571D01*
X222212381Y-105619048D01*
X222260000Y-105714286D01*
X222307619Y-105761905D01*
X222402857Y-105809524D01*
X222640952Y-105809524D01*
X222736190Y-105761905D01*
X222783810Y-105714286D01*
X222831429Y-105619048D01*
X222831429Y-105428571D01*
X222783810Y-105333333D01*
X222736190Y-105285714D01*
X222640952Y-105238095D01*
X117913334Y-144762381D02*
X117580000Y-144286190D01*
X117341905Y-144762381D02*
X117341905Y-143762381D01*
X117722858Y-143762381D01*
X117818096Y-143810000D01*
X117865715Y-143857619D01*
X117913334Y-143952857D01*
X117913334Y-144095714D01*
X117865715Y-144190952D01*
X117818096Y-144238571D01*
X117722858Y-144286190D01*
X117341905Y-144286190D01*
X118865715Y-144762381D02*
X118294286Y-144762381D01*
X118580000Y-144762381D02*
X118580000Y-143762381D01*
X118484762Y-143905238D01*
X118389524Y-144000476D01*
X118294286Y-144048095D01*
X139913334Y-144762381D02*
X139580000Y-144286190D01*
X139341905Y-144762381D02*
X139341905Y-143762381D01*
X139722858Y-143762381D01*
X139818096Y-143810000D01*
X139865715Y-143857619D01*
X139913334Y-143952857D01*
X139913334Y-144095714D01*
X139865715Y-144190952D01*
X139818096Y-144238571D01*
X139722858Y-144286190D01*
X139341905Y-144286190D01*
X140294286Y-143857619D02*
X140341905Y-143810000D01*
X140437143Y-143762381D01*
X140675239Y-143762381D01*
X140770477Y-143810000D01*
X140818096Y-143857619D01*
X140865715Y-143952857D01*
X140865715Y-144048095D01*
X140818096Y-144190952D01*
X140246667Y-144762381D01*
X140865715Y-144762381D01*
X139262381Y-107746666D02*
X138786190Y-108080000D01*
X139262381Y-108318095D02*
X138262381Y-108318095D01*
X138262381Y-107937142D01*
X138310000Y-107841904D01*
X138357619Y-107794285D01*
X138452857Y-107746666D01*
X138595714Y-107746666D01*
X138690952Y-107794285D01*
X138738571Y-107841904D01*
X138786190Y-107937142D01*
X138786190Y-108318095D01*
X138262381Y-107413333D02*
X138262381Y-106794285D01*
X138643333Y-107127619D01*
X138643333Y-106984761D01*
X138690952Y-106889523D01*
X138738571Y-106841904D01*
X138833810Y-106794285D01*
X139071905Y-106794285D01*
X139167143Y-106841904D01*
X139214762Y-106889523D01*
X139262381Y-106984761D01*
X139262381Y-107270476D01*
X139214762Y-107365714D01*
X139167143Y-107413333D01*
X132262381Y-107586666D02*
X131786190Y-107920000D01*
X132262381Y-108158095D02*
X131262381Y-108158095D01*
X131262381Y-107777142D01*
X131310000Y-107681904D01*
X131357619Y-107634285D01*
X131452857Y-107586666D01*
X131595714Y-107586666D01*
X131690952Y-107634285D01*
X131738571Y-107681904D01*
X131786190Y-107777142D01*
X131786190Y-108158095D01*
X131595714Y-106729523D02*
X132262381Y-106729523D01*
X131214762Y-106967619D02*
X131929048Y-107205714D01*
X131929048Y-106586666D01*
X132753334Y-119142381D02*
X132420000Y-118666190D01*
X132181905Y-119142381D02*
X132181905Y-118142381D01*
X132562858Y-118142381D01*
X132658096Y-118190000D01*
X132705715Y-118237619D01*
X132753334Y-118332857D01*
X132753334Y-118475714D01*
X132705715Y-118570952D01*
X132658096Y-118618571D01*
X132562858Y-118666190D01*
X132181905Y-118666190D01*
X133658096Y-118142381D02*
X133181905Y-118142381D01*
X133134286Y-118618571D01*
X133181905Y-118570952D01*
X133277143Y-118523333D01*
X133515239Y-118523333D01*
X133610477Y-118570952D01*
X133658096Y-118618571D01*
X133705715Y-118713810D01*
X133705715Y-118951905D01*
X133658096Y-119047143D01*
X133610477Y-119094762D01*
X133515239Y-119142381D01*
X133277143Y-119142381D01*
X133181905Y-119094762D01*
X133134286Y-119047143D01*
X141142381Y-132586666D02*
X140666190Y-132920000D01*
X141142381Y-133158095D02*
X140142381Y-133158095D01*
X140142381Y-132777142D01*
X140190000Y-132681904D01*
X140237619Y-132634285D01*
X140332857Y-132586666D01*
X140475714Y-132586666D01*
X140570952Y-132634285D01*
X140618571Y-132681904D01*
X140666190Y-132777142D01*
X140666190Y-133158095D01*
X140142381Y-131729523D02*
X140142381Y-131920000D01*
X140190000Y-132015238D01*
X140237619Y-132062857D01*
X140380476Y-132158095D01*
X140570952Y-132205714D01*
X140951905Y-132205714D01*
X141047143Y-132158095D01*
X141094762Y-132110476D01*
X141142381Y-132015238D01*
X141142381Y-131824761D01*
X141094762Y-131729523D01*
X141047143Y-131681904D01*
X140951905Y-131634285D01*
X140713810Y-131634285D01*
X140618571Y-131681904D01*
X140570952Y-131729523D01*
X140523333Y-131824761D01*
X140523333Y-132015238D01*
X140570952Y-132110476D01*
X140618571Y-132158095D01*
X140713810Y-132205714D01*
X141142381Y-117746666D02*
X140666190Y-118080000D01*
X141142381Y-118318095D02*
X140142381Y-118318095D01*
X140142381Y-117937142D01*
X140190000Y-117841904D01*
X140237619Y-117794285D01*
X140332857Y-117746666D01*
X140475714Y-117746666D01*
X140570952Y-117794285D01*
X140618571Y-117841904D01*
X140666190Y-117937142D01*
X140666190Y-118318095D01*
X140142381Y-117413333D02*
X140142381Y-116746666D01*
X141142381Y-117175238D01*
X155253334Y-144762381D02*
X154920000Y-144286190D01*
X154681905Y-144762381D02*
X154681905Y-143762381D01*
X155062858Y-143762381D01*
X155158096Y-143810000D01*
X155205715Y-143857619D01*
X155253334Y-143952857D01*
X155253334Y-144095714D01*
X155205715Y-144190952D01*
X155158096Y-144238571D01*
X155062858Y-144286190D01*
X154681905Y-144286190D01*
X155824762Y-144190952D02*
X155729524Y-144143333D01*
X155681905Y-144095714D01*
X155634286Y-144000476D01*
X155634286Y-143952857D01*
X155681905Y-143857619D01*
X155729524Y-143810000D01*
X155824762Y-143762381D01*
X156015239Y-143762381D01*
X156110477Y-143810000D01*
X156158096Y-143857619D01*
X156205715Y-143952857D01*
X156205715Y-144000476D01*
X156158096Y-144095714D01*
X156110477Y-144143333D01*
X156015239Y-144190952D01*
X155824762Y-144190952D01*
X155729524Y-144238571D01*
X155681905Y-144286190D01*
X155634286Y-144381429D01*
X155634286Y-144571905D01*
X155681905Y-144667143D01*
X155729524Y-144714762D01*
X155824762Y-144762381D01*
X156015239Y-144762381D01*
X156110477Y-144714762D01*
X156158096Y-144667143D01*
X156205715Y-144571905D01*
X156205715Y-144381429D01*
X156158096Y-144286190D01*
X156110477Y-144238571D01*
X156015239Y-144190952D01*
X177253334Y-144762381D02*
X176920000Y-144286190D01*
X176681905Y-144762381D02*
X176681905Y-143762381D01*
X177062858Y-143762381D01*
X177158096Y-143810000D01*
X177205715Y-143857619D01*
X177253334Y-143952857D01*
X177253334Y-144095714D01*
X177205715Y-144190952D01*
X177158096Y-144238571D01*
X177062858Y-144286190D01*
X176681905Y-144286190D01*
X177729524Y-144762381D02*
X177920000Y-144762381D01*
X178015239Y-144714762D01*
X178062858Y-144667143D01*
X178158096Y-144524286D01*
X178205715Y-144333810D01*
X178205715Y-143952857D01*
X178158096Y-143857619D01*
X178110477Y-143810000D01*
X178015239Y-143762381D01*
X177824762Y-143762381D01*
X177729524Y-143810000D01*
X177681905Y-143857619D01*
X177634286Y-143952857D01*
X177634286Y-144190952D01*
X177681905Y-144286190D01*
X177729524Y-144333810D01*
X177824762Y-144381429D01*
X178015239Y-144381429D01*
X178110477Y-144333810D01*
X178158096Y-144286190D01*
X178205715Y-144190952D01*
X193277143Y-144762381D02*
X192943809Y-144286190D01*
X192705714Y-144762381D02*
X192705714Y-143762381D01*
X193086667Y-143762381D01*
X193181905Y-143810000D01*
X193229524Y-143857619D01*
X193277143Y-143952857D01*
X193277143Y-144095714D01*
X193229524Y-144190952D01*
X193181905Y-144238571D01*
X193086667Y-144286190D01*
X192705714Y-144286190D01*
X194229524Y-144762381D02*
X193658095Y-144762381D01*
X193943809Y-144762381D02*
X193943809Y-143762381D01*
X193848571Y-143905238D01*
X193753333Y-144000476D01*
X193658095Y-144048095D01*
X194848571Y-143762381D02*
X194943810Y-143762381D01*
X195039048Y-143810000D01*
X195086667Y-143857619D01*
X195134286Y-143952857D01*
X195181905Y-144143333D01*
X195181905Y-144381429D01*
X195134286Y-144571905D01*
X195086667Y-144667143D01*
X195039048Y-144714762D01*
X194943810Y-144762381D01*
X194848571Y-144762381D01*
X194753333Y-144714762D01*
X194705714Y-144667143D01*
X194658095Y-144571905D01*
X194610476Y-144381429D01*
X194610476Y-144143333D01*
X194658095Y-143952857D01*
X194705714Y-143857619D01*
X194753333Y-143810000D01*
X194848571Y-143762381D01*
X215277143Y-144762381D02*
X214943809Y-144286190D01*
X214705714Y-144762381D02*
X214705714Y-143762381D01*
X215086667Y-143762381D01*
X215181905Y-143810000D01*
X215229524Y-143857619D01*
X215277143Y-143952857D01*
X215277143Y-144095714D01*
X215229524Y-144190952D01*
X215181905Y-144238571D01*
X215086667Y-144286190D01*
X214705714Y-144286190D01*
X216229524Y-144762381D02*
X215658095Y-144762381D01*
X215943809Y-144762381D02*
X215943809Y-143762381D01*
X215848571Y-143905238D01*
X215753333Y-144000476D01*
X215658095Y-144048095D01*
X217181905Y-144762381D02*
X216610476Y-144762381D01*
X216896190Y-144762381D02*
X216896190Y-143762381D01*
X216800952Y-143905238D01*
X216705714Y-144000476D01*
X216610476Y-144048095D01*
X177262381Y-108722857D02*
X176786190Y-109056191D01*
X177262381Y-109294286D02*
X176262381Y-109294286D01*
X176262381Y-108913333D01*
X176310000Y-108818095D01*
X176357619Y-108770476D01*
X176452857Y-108722857D01*
X176595714Y-108722857D01*
X176690952Y-108770476D01*
X176738571Y-108818095D01*
X176786190Y-108913333D01*
X176786190Y-109294286D01*
X177262381Y-107770476D02*
X177262381Y-108341905D01*
X177262381Y-108056191D02*
X176262381Y-108056191D01*
X176405238Y-108151429D01*
X176500476Y-108246667D01*
X176548095Y-108341905D01*
X176357619Y-107389524D02*
X176310000Y-107341905D01*
X176262381Y-107246667D01*
X176262381Y-107008571D01*
X176310000Y-106913333D01*
X176357619Y-106865714D01*
X176452857Y-106818095D01*
X176548095Y-106818095D01*
X176690952Y-106865714D01*
X177262381Y-107437143D01*
X177262381Y-106818095D01*
X170262381Y-108562857D02*
X169786190Y-108896191D01*
X170262381Y-109134286D02*
X169262381Y-109134286D01*
X169262381Y-108753333D01*
X169310000Y-108658095D01*
X169357619Y-108610476D01*
X169452857Y-108562857D01*
X169595714Y-108562857D01*
X169690952Y-108610476D01*
X169738571Y-108658095D01*
X169786190Y-108753333D01*
X169786190Y-109134286D01*
X170262381Y-107610476D02*
X170262381Y-108181905D01*
X170262381Y-107896191D02*
X169262381Y-107896191D01*
X169405238Y-107991429D01*
X169500476Y-108086667D01*
X169548095Y-108181905D01*
X169262381Y-107277143D02*
X169262381Y-106658095D01*
X169643333Y-106991429D01*
X169643333Y-106848571D01*
X169690952Y-106753333D01*
X169738571Y-106705714D01*
X169833810Y-106658095D01*
X170071905Y-106658095D01*
X170167143Y-106705714D01*
X170214762Y-106753333D01*
X170262381Y-106848571D01*
X170262381Y-107134286D01*
X170214762Y-107229524D01*
X170167143Y-107277143D01*
X215262381Y-108722857D02*
X214786190Y-109056191D01*
X215262381Y-109294286D02*
X214262381Y-109294286D01*
X214262381Y-108913333D01*
X214310000Y-108818095D01*
X214357619Y-108770476D01*
X214452857Y-108722857D01*
X214595714Y-108722857D01*
X214690952Y-108770476D01*
X214738571Y-108818095D01*
X214786190Y-108913333D01*
X214786190Y-109294286D01*
X215262381Y-107770476D02*
X215262381Y-108341905D01*
X215262381Y-108056191D02*
X214262381Y-108056191D01*
X214405238Y-108151429D01*
X214500476Y-108246667D01*
X214548095Y-108341905D01*
X214595714Y-106913333D02*
X215262381Y-106913333D01*
X214214762Y-107151429D02*
X214929048Y-107389524D01*
X214929048Y-106770476D01*
X208762381Y-108722857D02*
X208286190Y-109056191D01*
X208762381Y-109294286D02*
X207762381Y-109294286D01*
X207762381Y-108913333D01*
X207810000Y-108818095D01*
X207857619Y-108770476D01*
X207952857Y-108722857D01*
X208095714Y-108722857D01*
X208190952Y-108770476D01*
X208238571Y-108818095D01*
X208286190Y-108913333D01*
X208286190Y-109294286D01*
X208762381Y-107770476D02*
X208762381Y-108341905D01*
X208762381Y-108056191D02*
X207762381Y-108056191D01*
X207905238Y-108151429D01*
X208000476Y-108246667D01*
X208048095Y-108341905D01*
X207762381Y-106865714D02*
X207762381Y-107341905D01*
X208238571Y-107389524D01*
X208190952Y-107341905D01*
X208143333Y-107246667D01*
X208143333Y-107008571D01*
X208190952Y-106913333D01*
X208238571Y-106865714D01*
X208333810Y-106818095D01*
X208571905Y-106818095D01*
X208667143Y-106865714D01*
X208714762Y-106913333D01*
X208762381Y-107008571D01*
X208762381Y-107246667D01*
X208714762Y-107341905D01*
X208667143Y-107389524D01*
X170277143Y-118642381D02*
X169943809Y-118166190D01*
X169705714Y-118642381D02*
X169705714Y-117642381D01*
X170086667Y-117642381D01*
X170181905Y-117690000D01*
X170229524Y-117737619D01*
X170277143Y-117832857D01*
X170277143Y-117975714D01*
X170229524Y-118070952D01*
X170181905Y-118118571D01*
X170086667Y-118166190D01*
X169705714Y-118166190D01*
X171229524Y-118642381D02*
X170658095Y-118642381D01*
X170943809Y-118642381D02*
X170943809Y-117642381D01*
X170848571Y-117785238D01*
X170753333Y-117880476D01*
X170658095Y-117928095D01*
X172086667Y-117642381D02*
X171896190Y-117642381D01*
X171800952Y-117690000D01*
X171753333Y-117737619D01*
X171658095Y-117880476D01*
X171610476Y-118070952D01*
X171610476Y-118451905D01*
X171658095Y-118547143D01*
X171705714Y-118594762D01*
X171800952Y-118642381D01*
X171991429Y-118642381D01*
X172086667Y-118594762D01*
X172134286Y-118547143D01*
X172181905Y-118451905D01*
X172181905Y-118213810D01*
X172134286Y-118118571D01*
X172086667Y-118070952D01*
X171991429Y-118023333D01*
X171800952Y-118023333D01*
X171705714Y-118070952D01*
X171658095Y-118118571D01*
X171610476Y-118213810D01*
X208937143Y-118642381D02*
X208603809Y-118166190D01*
X208365714Y-118642381D02*
X208365714Y-117642381D01*
X208746667Y-117642381D01*
X208841905Y-117690000D01*
X208889524Y-117737619D01*
X208937143Y-117832857D01*
X208937143Y-117975714D01*
X208889524Y-118070952D01*
X208841905Y-118118571D01*
X208746667Y-118166190D01*
X208365714Y-118166190D01*
X209889524Y-118642381D02*
X209318095Y-118642381D01*
X209603809Y-118642381D02*
X209603809Y-117642381D01*
X209508571Y-117785238D01*
X209413333Y-117880476D01*
X209318095Y-117928095D01*
X210222857Y-117642381D02*
X210889524Y-117642381D01*
X210460952Y-118642381D01*
X178642381Y-133062857D02*
X178166190Y-133396191D01*
X178642381Y-133634286D02*
X177642381Y-133634286D01*
X177642381Y-133253333D01*
X177690000Y-133158095D01*
X177737619Y-133110476D01*
X177832857Y-133062857D01*
X177975714Y-133062857D01*
X178070952Y-133110476D01*
X178118571Y-133158095D01*
X178166190Y-133253333D01*
X178166190Y-133634286D01*
X178642381Y-132110476D02*
X178642381Y-132681905D01*
X178642381Y-132396191D02*
X177642381Y-132396191D01*
X177785238Y-132491429D01*
X177880476Y-132586667D01*
X177928095Y-132681905D01*
X178070952Y-131539048D02*
X178023333Y-131634286D01*
X177975714Y-131681905D01*
X177880476Y-131729524D01*
X177832857Y-131729524D01*
X177737619Y-131681905D01*
X177690000Y-131634286D01*
X177642381Y-131539048D01*
X177642381Y-131348571D01*
X177690000Y-131253333D01*
X177737619Y-131205714D01*
X177832857Y-131158095D01*
X177880476Y-131158095D01*
X177975714Y-131205714D01*
X178023333Y-131253333D01*
X178070952Y-131348571D01*
X178070952Y-131539048D01*
X178118571Y-131634286D01*
X178166190Y-131681905D01*
X178261429Y-131729524D01*
X178451905Y-131729524D01*
X178547143Y-131681905D01*
X178594762Y-131634286D01*
X178642381Y-131539048D01*
X178642381Y-131348571D01*
X178594762Y-131253333D01*
X178547143Y-131205714D01*
X178451905Y-131158095D01*
X178261429Y-131158095D01*
X178166190Y-131205714D01*
X178118571Y-131253333D01*
X178070952Y-131348571D01*
X217642381Y-133722857D02*
X217166190Y-134056191D01*
X217642381Y-134294286D02*
X216642381Y-134294286D01*
X216642381Y-133913333D01*
X216690000Y-133818095D01*
X216737619Y-133770476D01*
X216832857Y-133722857D01*
X216975714Y-133722857D01*
X217070952Y-133770476D01*
X217118571Y-133818095D01*
X217166190Y-133913333D01*
X217166190Y-134294286D01*
X217642381Y-132770476D02*
X217642381Y-133341905D01*
X217642381Y-133056191D02*
X216642381Y-133056191D01*
X216785238Y-133151429D01*
X216880476Y-133246667D01*
X216928095Y-133341905D01*
X217642381Y-132294286D02*
X217642381Y-132103810D01*
X217594762Y-132008571D01*
X217547143Y-131960952D01*
X217404286Y-131865714D01*
X217213810Y-131818095D01*
X216832857Y-131818095D01*
X216737619Y-131865714D01*
X216690000Y-131913333D01*
X216642381Y-132008571D01*
X216642381Y-132199048D01*
X216690000Y-132294286D01*
X216737619Y-132341905D01*
X216832857Y-132389524D01*
X217070952Y-132389524D01*
X217166190Y-132341905D01*
X217213810Y-132294286D01*
X217261429Y-132199048D01*
X217261429Y-132008571D01*
X217213810Y-131913333D01*
X217166190Y-131865714D01*
X217070952Y-131818095D01*
X178642381Y-118722857D02*
X178166190Y-119056191D01*
X178642381Y-119294286D02*
X177642381Y-119294286D01*
X177642381Y-118913333D01*
X177690000Y-118818095D01*
X177737619Y-118770476D01*
X177832857Y-118722857D01*
X177975714Y-118722857D01*
X178070952Y-118770476D01*
X178118571Y-118818095D01*
X178166190Y-118913333D01*
X178166190Y-119294286D01*
X177737619Y-118341905D02*
X177690000Y-118294286D01*
X177642381Y-118199048D01*
X177642381Y-117960952D01*
X177690000Y-117865714D01*
X177737619Y-117818095D01*
X177832857Y-117770476D01*
X177928095Y-117770476D01*
X178070952Y-117818095D01*
X178642381Y-118389524D01*
X178642381Y-117770476D01*
X177642381Y-117151429D02*
X177642381Y-117056190D01*
X177690000Y-116960952D01*
X177737619Y-116913333D01*
X177832857Y-116865714D01*
X178023333Y-116818095D01*
X178261429Y-116818095D01*
X178451905Y-116865714D01*
X178547143Y-116913333D01*
X178594762Y-116960952D01*
X178642381Y-117056190D01*
X178642381Y-117151429D01*
X178594762Y-117246667D01*
X178547143Y-117294286D01*
X178451905Y-117341905D01*
X178261429Y-117389524D01*
X178023333Y-117389524D01*
X177832857Y-117341905D01*
X177737619Y-117294286D01*
X177690000Y-117246667D01*
X177642381Y-117151429D01*
X217642381Y-118722857D02*
X217166190Y-119056191D01*
X217642381Y-119294286D02*
X216642381Y-119294286D01*
X216642381Y-118913333D01*
X216690000Y-118818095D01*
X216737619Y-118770476D01*
X216832857Y-118722857D01*
X216975714Y-118722857D01*
X217070952Y-118770476D01*
X217118571Y-118818095D01*
X217166190Y-118913333D01*
X217166190Y-119294286D01*
X216737619Y-118341905D02*
X216690000Y-118294286D01*
X216642381Y-118199048D01*
X216642381Y-117960952D01*
X216690000Y-117865714D01*
X216737619Y-117818095D01*
X216832857Y-117770476D01*
X216928095Y-117770476D01*
X217070952Y-117818095D01*
X217642381Y-118389524D01*
X217642381Y-117770476D01*
X217642381Y-116818095D02*
X217642381Y-117389524D01*
X217642381Y-117103810D02*
X216642381Y-117103810D01*
X216785238Y-117199048D01*
X216880476Y-117294286D01*
X216928095Y-117389524D01*
X139011905Y-136532381D02*
X139011905Y-135532381D01*
X139392858Y-135532381D01*
X139488096Y-135580000D01*
X139535715Y-135627619D01*
X139583334Y-135722857D01*
X139583334Y-135865714D01*
X139535715Y-135960952D01*
X139488096Y-136008571D01*
X139392858Y-136056190D01*
X139011905Y-136056190D01*
X140440477Y-135865714D02*
X140440477Y-136532381D01*
X140202381Y-135484762D02*
X139964286Y-136199048D01*
X140583334Y-136199048D01*
X129832381Y-118488095D02*
X128832381Y-118488095D01*
X128832381Y-118107142D01*
X128880000Y-118011904D01*
X128927619Y-117964285D01*
X129022857Y-117916666D01*
X129165714Y-117916666D01*
X129260952Y-117964285D01*
X129308571Y-118011904D01*
X129356190Y-118107142D01*
X129356190Y-118488095D01*
X128832381Y-117011904D02*
X128832381Y-117488095D01*
X129308571Y-117535714D01*
X129260952Y-117488095D01*
X129213333Y-117392857D01*
X129213333Y-117154761D01*
X129260952Y-117059523D01*
X129308571Y-117011904D01*
X129403810Y-116964285D01*
X129641905Y-116964285D01*
X129737143Y-117011904D01*
X129784762Y-117059523D01*
X129832381Y-117154761D01*
X129832381Y-117392857D01*
X129784762Y-117488095D01*
X129737143Y-117535714D01*
X176511905Y-136532381D02*
X176511905Y-135532381D01*
X176892858Y-135532381D01*
X176988096Y-135580000D01*
X177035715Y-135627619D01*
X177083334Y-135722857D01*
X177083334Y-135865714D01*
X177035715Y-135960952D01*
X176988096Y-136008571D01*
X176892858Y-136056190D01*
X176511905Y-136056190D01*
X177940477Y-135532381D02*
X177750000Y-135532381D01*
X177654762Y-135580000D01*
X177607143Y-135627619D01*
X177511905Y-135770476D01*
X177464286Y-135960952D01*
X177464286Y-136341905D01*
X177511905Y-136437143D01*
X177559524Y-136484762D01*
X177654762Y-136532381D01*
X177845239Y-136532381D01*
X177940477Y-136484762D01*
X177988096Y-136437143D01*
X178035715Y-136341905D01*
X178035715Y-136103810D01*
X177988096Y-136008571D01*
X177940477Y-135960952D01*
X177845239Y-135913333D01*
X177654762Y-135913333D01*
X177559524Y-135960952D01*
X177511905Y-136008571D01*
X177464286Y-136103810D01*
X167832381Y-117988095D02*
X166832381Y-117988095D01*
X166832381Y-117607142D01*
X166880000Y-117511904D01*
X166927619Y-117464285D01*
X167022857Y-117416666D01*
X167165714Y-117416666D01*
X167260952Y-117464285D01*
X167308571Y-117511904D01*
X167356190Y-117607142D01*
X167356190Y-117988095D01*
X166832381Y-117083333D02*
X166832381Y-116416666D01*
X167832381Y-116845238D01*
X215511905Y-137072381D02*
X215511905Y-136072381D01*
X215892858Y-136072381D01*
X215988096Y-136120000D01*
X216035715Y-136167619D01*
X216083334Y-136262857D01*
X216083334Y-136405714D01*
X216035715Y-136500952D01*
X215988096Y-136548571D01*
X215892858Y-136596190D01*
X215511905Y-136596190D01*
X216654762Y-136500952D02*
X216559524Y-136453333D01*
X216511905Y-136405714D01*
X216464286Y-136310476D01*
X216464286Y-136262857D01*
X216511905Y-136167619D01*
X216559524Y-136120000D01*
X216654762Y-136072381D01*
X216845239Y-136072381D01*
X216940477Y-136120000D01*
X216988096Y-136167619D01*
X217035715Y-136262857D01*
X217035715Y-136310476D01*
X216988096Y-136405714D01*
X216940477Y-136453333D01*
X216845239Y-136500952D01*
X216654762Y-136500952D01*
X216559524Y-136548571D01*
X216511905Y-136596190D01*
X216464286Y-136691429D01*
X216464286Y-136881905D01*
X216511905Y-136977143D01*
X216559524Y-137024762D01*
X216654762Y-137072381D01*
X216845239Y-137072381D01*
X216940477Y-137024762D01*
X216988096Y-136977143D01*
X217035715Y-136881905D01*
X217035715Y-136691429D01*
X216988096Y-136596190D01*
X216940477Y-136548571D01*
X216845239Y-136500952D01*
X206582381Y-117988095D02*
X205582381Y-117988095D01*
X205582381Y-117607142D01*
X205630000Y-117511904D01*
X205677619Y-117464285D01*
X205772857Y-117416666D01*
X205915714Y-117416666D01*
X206010952Y-117464285D01*
X206058571Y-117511904D01*
X206106190Y-117607142D01*
X206106190Y-117988095D01*
X206582381Y-116940476D02*
X206582381Y-116750000D01*
X206534762Y-116654761D01*
X206487143Y-116607142D01*
X206344286Y-116511904D01*
X206153810Y-116464285D01*
X205772857Y-116464285D01*
X205677619Y-116511904D01*
X205630000Y-116559523D01*
X205582381Y-116654761D01*
X205582381Y-116845238D01*
X205630000Y-116940476D01*
X205677619Y-116988095D01*
X205772857Y-117035714D01*
X206010952Y-117035714D01*
X206106190Y-116988095D01*
X206153810Y-116940476D01*
X206201429Y-116845238D01*
X206201429Y-116654761D01*
X206153810Y-116559523D01*
X206106190Y-116511904D01*
X206010952Y-116464285D01*
M02*
