G04 #@! TF.FileFunction,Copper,L2,Bot,Signal*
%FSLAX46Y46*%
G04 Gerber Fmt 4.6, Leading zero omitted, Abs format (unit mm)*
G04 Created by KiCad (PCBNEW 4.0.5) date 03/28/17 16:12:11*
%MOMM*%
%LPD*%
G01*
G04 APERTURE LIST*
%ADD10C,0.100000*%
%ADD11R,2.400000X1.600000*%
%ADD12O,2.400000X1.600000*%
%ADD13R,2.032000X2.032000*%
%ADD14O,2.032000X2.032000*%
%ADD15C,1.524000*%
%ADD16R,1.600000X1.600000*%
%ADD17C,1.600000*%
%ADD18O,1.600000X1.600000*%
%ADD19R,1.700000X1.700000*%
%ADD20O,1.700000X1.700000*%
%ADD21C,0.800000*%
%ADD22C,1.200000*%
%ADD23C,0.254000*%
G04 APERTURE END LIST*
D10*
D11*
X129000000Y-125460000D03*
D12*
X136620000Y-133080000D03*
X129000000Y-128000000D03*
X136620000Y-130540000D03*
X129000000Y-130540000D03*
X136620000Y-128000000D03*
X129000000Y-133080000D03*
X136620000Y-125460000D03*
D13*
X132000000Y-90500000D03*
D14*
X134540000Y-90500000D03*
D13*
X169500000Y-91000000D03*
D14*
X172040000Y-91000000D03*
D13*
X207960000Y-90500000D03*
D14*
X210500000Y-90500000D03*
D11*
X131620000Y-62080000D03*
D12*
X124000000Y-54460000D03*
X131620000Y-59540000D03*
X124000000Y-57000000D03*
X131620000Y-57000000D03*
X124000000Y-59540000D03*
X131620000Y-54460000D03*
X124000000Y-62080000D03*
D11*
X166380000Y-125420000D03*
D12*
X174000000Y-133040000D03*
X166380000Y-127960000D03*
X174000000Y-130500000D03*
X166380000Y-130500000D03*
X174000000Y-127960000D03*
X166380000Y-133040000D03*
X174000000Y-125420000D03*
D11*
X205380000Y-125420000D03*
D12*
X213000000Y-133040000D03*
X205380000Y-127960000D03*
X213000000Y-130500000D03*
X205380000Y-130500000D03*
X213000000Y-127960000D03*
X205380000Y-133040000D03*
X213000000Y-125420000D03*
D15*
X126460000Y-142000000D03*
X129000000Y-142000000D03*
X131540000Y-142000000D03*
X163960000Y-142000000D03*
X166500000Y-142000000D03*
X169040000Y-142000000D03*
X202460000Y-142000000D03*
X205000000Y-142000000D03*
X207540000Y-142000000D03*
X190280000Y-74890000D03*
X192820000Y-74890000D03*
X195360000Y-74890000D03*
X197900000Y-74890000D03*
X200440000Y-74890000D03*
X202980000Y-74890000D03*
X205520000Y-74890000D03*
X208060000Y-74890000D03*
X210600000Y-74890000D03*
X213140000Y-74890000D03*
X215680000Y-74890000D03*
X218220000Y-74890000D03*
X220760000Y-74890000D03*
X223300000Y-74890000D03*
X225840000Y-74890000D03*
X228380000Y-74890000D03*
X228380000Y-54570000D03*
X225840000Y-54570000D03*
X223300000Y-54570000D03*
X220760000Y-54570000D03*
X218220000Y-54570000D03*
X215680000Y-54570000D03*
X213140000Y-54570000D03*
X210600000Y-54570000D03*
X208060000Y-54570000D03*
X205520000Y-54570000D03*
X202980000Y-54570000D03*
X200440000Y-54570000D03*
D16*
X127500000Y-68000000D03*
D17*
X127500000Y-70000000D03*
D16*
X118000000Y-75000000D03*
D17*
X116000000Y-75000000D03*
D16*
X140000000Y-58000000D03*
D17*
X140000000Y-56000000D03*
D16*
X118000000Y-69000000D03*
D17*
X116000000Y-69000000D03*
X118000000Y-132000000D03*
X123000000Y-132000000D03*
X155000000Y-132000000D03*
X160000000Y-132000000D03*
X193500000Y-132500000D03*
X198500000Y-132500000D03*
X118000000Y-125000000D03*
X123000000Y-125000000D03*
X155000000Y-125000000D03*
X160000000Y-125000000D03*
X193500000Y-125500000D03*
X198500000Y-125500000D03*
X136500000Y-99500000D03*
X136500000Y-94500000D03*
X129500000Y-99500000D03*
X129500000Y-94500000D03*
X174500000Y-100000000D03*
X174500000Y-95000000D03*
X167500000Y-100000000D03*
X167500000Y-95000000D03*
X212500000Y-100000000D03*
X212500000Y-95000000D03*
X206000000Y-100000000D03*
X206000000Y-95000000D03*
X143000000Y-104000000D03*
X143000000Y-109000000D03*
X180500000Y-104500000D03*
X180500000Y-109500000D03*
X219500000Y-104000000D03*
X219500000Y-109000000D03*
X123160000Y-142000000D03*
D18*
X113000000Y-142000000D03*
D17*
X145160000Y-142000000D03*
D18*
X135000000Y-142000000D03*
D17*
X136500000Y-102500000D03*
D18*
X136500000Y-112660000D03*
D17*
X129500000Y-102340000D03*
D18*
X129500000Y-112500000D03*
D17*
X127840000Y-121000000D03*
D18*
X138000000Y-121000000D03*
D17*
X143000000Y-137500000D03*
D18*
X143000000Y-127340000D03*
D17*
X143000000Y-122660000D03*
D18*
X143000000Y-112500000D03*
D17*
X160500000Y-142000000D03*
D18*
X150340000Y-142000000D03*
D17*
X182500000Y-142000000D03*
D18*
X172340000Y-142000000D03*
D17*
X199000000Y-142000000D03*
D18*
X188840000Y-142000000D03*
D17*
X221000000Y-142000000D03*
D18*
X210840000Y-142000000D03*
D17*
X174500000Y-103000000D03*
D18*
X174500000Y-113160000D03*
D17*
X167500000Y-102840000D03*
D18*
X167500000Y-113000000D03*
D17*
X212500000Y-103000000D03*
D18*
X212500000Y-113160000D03*
D17*
X206000000Y-103000000D03*
D18*
X206000000Y-113160000D03*
D17*
X165840000Y-120500000D03*
D18*
X176000000Y-120500000D03*
D17*
X204500000Y-120500000D03*
D18*
X214660000Y-120500000D03*
D17*
X180500000Y-137500000D03*
D18*
X180500000Y-127340000D03*
D17*
X219500000Y-138160000D03*
D18*
X219500000Y-128000000D03*
D17*
X180500000Y-123160000D03*
D18*
X180500000Y-113000000D03*
D17*
X219500000Y-123160000D03*
D18*
X219500000Y-113000000D03*
D19*
X139750000Y-133750000D03*
D20*
X139750000Y-131210000D03*
D19*
X131710000Y-117750000D03*
D20*
X134250000Y-117750000D03*
D19*
X177250000Y-133750000D03*
D20*
X177250000Y-131210000D03*
D19*
X169710000Y-117250000D03*
D20*
X172250000Y-117250000D03*
D19*
X216250000Y-134290000D03*
D20*
X216250000Y-131750000D03*
D19*
X208460000Y-117250000D03*
D20*
X211000000Y-117250000D03*
D21*
X140000000Y-58000000D02*
X138400000Y-58000000D01*
X138400000Y-58000000D02*
X136860000Y-59540000D01*
X136860000Y-59540000D02*
X133620000Y-59540000D01*
X133620000Y-59540000D02*
X131620000Y-59540000D01*
X131620000Y-54460000D02*
X138460000Y-54460000D01*
X138460000Y-54460000D02*
X140000000Y-56000000D01*
X129500000Y-94500000D02*
X129500000Y-93000000D01*
X129500000Y-93000000D02*
X132000000Y-90500000D01*
X167500000Y-95000000D02*
X167500000Y-93000000D01*
X167500000Y-93000000D02*
X169500000Y-91000000D01*
X206000000Y-95000000D02*
X206000000Y-92460000D01*
X206000000Y-92460000D02*
X207960000Y-90500000D01*
X155000000Y-90000000D02*
X168402000Y-76598000D01*
X208060000Y-74890000D02*
X206297999Y-76652001D01*
X206297999Y-76652001D02*
X168456001Y-76652001D01*
X168456001Y-76652001D02*
X168402000Y-76598000D01*
X155000000Y-97000000D02*
X155000000Y-90000000D01*
X143000000Y-109000000D02*
X143799999Y-108200001D01*
X143799999Y-108200001D02*
X155000000Y-97000000D01*
X143000000Y-112500000D02*
X143000000Y-109000000D01*
X210600000Y-74890000D02*
X195490000Y-90000000D01*
X195490000Y-90000000D02*
X195490000Y-94510000D01*
X195490000Y-94510000D02*
X180500000Y-109500000D01*
X180500000Y-113000000D02*
X180500000Y-109500000D01*
X221300001Y-107199999D02*
X221300001Y-84328000D01*
X213140000Y-75967630D02*
X221300001Y-84127631D01*
X221300001Y-84127631D02*
X221300001Y-84328000D01*
X213140000Y-74890000D02*
X213140000Y-75967630D01*
X219500000Y-113000000D02*
X219500000Y-110500000D01*
X219500000Y-109000000D02*
X221300001Y-107199999D01*
X219500000Y-110500000D02*
X219500000Y-109000000D01*
D22*
X190698000Y-67000000D02*
X192820000Y-69122000D01*
X192820000Y-69122000D02*
X192820000Y-74890000D01*
X188722000Y-67000000D02*
X131320000Y-67000000D01*
X188722000Y-67000000D02*
X190698000Y-67000000D01*
X127500000Y-68000000D02*
X130320000Y-68000000D01*
X130320000Y-68000000D02*
X131320000Y-67000000D01*
X126400000Y-62080000D02*
X124000000Y-62080000D01*
X131320000Y-67000000D02*
X126400000Y-62080000D01*
D21*
X124000000Y-62080000D02*
X124000000Y-66100000D01*
X124000000Y-66100000D02*
X125900000Y-68000000D01*
X125900000Y-68000000D02*
X127500000Y-68000000D01*
X123920000Y-62000000D02*
X124000000Y-62080000D01*
X124000000Y-62080000D02*
X124400000Y-62080000D01*
X124000000Y-54460000D02*
X122000000Y-54460000D01*
X122000000Y-54460000D02*
X116000000Y-60460000D01*
X116000000Y-60460000D02*
X116000000Y-67868630D01*
X116000000Y-67868630D02*
X116000000Y-69000000D01*
X116000000Y-75000000D02*
X116000000Y-142500000D01*
X118500000Y-145000000D02*
X132000000Y-145000000D01*
X116000000Y-142500000D02*
X118500000Y-145000000D01*
X132000000Y-145000000D02*
X171500000Y-145000000D01*
X138320000Y-142000000D02*
X135320000Y-145000000D01*
X135320000Y-145000000D02*
X132000000Y-145000000D01*
X172740000Y-145000000D02*
X171500000Y-145000000D01*
X171500000Y-145000000D02*
X218000000Y-145000000D01*
X175740000Y-142000000D02*
X172740000Y-145000000D01*
X218000000Y-145000000D02*
X221000000Y-142000000D01*
X205380000Y-133040000D02*
X205780000Y-133040000D01*
X205780000Y-133040000D02*
X214740000Y-142000000D01*
X214740000Y-142000000D02*
X219868630Y-142000000D01*
X219868630Y-142000000D02*
X221000000Y-142000000D01*
X175740000Y-142000000D02*
X182500000Y-142000000D01*
X166780000Y-133040000D02*
X175740000Y-142000000D01*
X166780000Y-133040000D02*
X166380000Y-133040000D01*
X129000000Y-133080000D02*
X129400000Y-133080000D01*
X129400000Y-133080000D02*
X138320000Y-142000000D01*
X138320000Y-142000000D02*
X144028630Y-142000000D01*
X144028630Y-142000000D02*
X145160000Y-142000000D01*
X116000000Y-69000000D02*
X116000000Y-75000000D01*
X129000000Y-138000000D02*
X129000000Y-142000000D01*
X123000000Y-132000000D02*
X124460000Y-130540000D01*
X124460000Y-130540000D02*
X129000000Y-130540000D01*
X129000000Y-138000000D02*
X123000000Y-132000000D01*
X166500000Y-142000000D02*
X166500000Y-138500000D01*
X166500000Y-138500000D02*
X160000000Y-132000000D01*
X166380000Y-130500000D02*
X161500000Y-130500000D01*
X161500000Y-130500000D02*
X160000000Y-132000000D01*
X205000000Y-142000000D02*
X205000000Y-139000000D01*
X205000000Y-139000000D02*
X198500000Y-132500000D01*
X205380000Y-130500000D02*
X200500000Y-130500000D01*
X200500000Y-130500000D02*
X198500000Y-132500000D01*
X127840000Y-121000000D02*
X128460000Y-121000000D01*
X128460000Y-121000000D02*
X131710000Y-117750000D01*
X129000000Y-128000000D02*
X129000000Y-125460000D01*
X129000000Y-125460000D02*
X129000000Y-122160000D01*
X129000000Y-122160000D02*
X127840000Y-121000000D01*
X129000000Y-125460000D02*
X123460000Y-125460000D01*
X123460000Y-125460000D02*
X123000000Y-125000000D01*
X166460000Y-120500000D02*
X169710000Y-117250000D01*
X166380000Y-125420000D02*
X166380000Y-122750000D01*
X166380000Y-122750000D02*
X166380000Y-121040000D01*
X166380000Y-122230000D02*
X166380000Y-122750000D01*
X165840000Y-120500000D02*
X166460000Y-120500000D01*
X166380000Y-121040000D02*
X165840000Y-120500000D01*
X166380000Y-127960000D02*
X166380000Y-125420000D01*
X166380000Y-125420000D02*
X160420000Y-125420000D01*
X160420000Y-125420000D02*
X160000000Y-125000000D01*
X204500000Y-120500000D02*
X205210000Y-120500000D01*
X205210000Y-120500000D02*
X208460000Y-117250000D01*
X198500000Y-125500000D02*
X205300000Y-125500000D01*
X205300000Y-125500000D02*
X205380000Y-125420000D01*
X205380000Y-127960000D02*
X205380000Y-125420000D01*
X205380000Y-125420000D02*
X205380000Y-121380000D01*
X205380000Y-121380000D02*
X204500000Y-120500000D01*
X136500000Y-99500000D02*
X136500000Y-102500000D01*
X136500000Y-94500000D02*
X136500000Y-92460000D01*
X136500000Y-92460000D02*
X134540000Y-90500000D01*
X129500000Y-99500000D02*
X129500000Y-102340000D01*
X174500000Y-103000000D02*
X174500000Y-100000000D01*
X174500000Y-95000000D02*
X174500000Y-93460000D01*
X174500000Y-93460000D02*
X172040000Y-91000000D01*
X167500000Y-100000000D02*
X167500000Y-102840000D01*
X212500000Y-100000000D02*
X212500000Y-103000000D01*
X212500000Y-95000000D02*
X212500000Y-92500000D01*
X212500000Y-92500000D02*
X210500000Y-90500000D01*
X206000000Y-100000000D02*
X206000000Y-103000000D01*
X126460000Y-142000000D02*
X123160000Y-142000000D01*
X131540000Y-142000000D02*
X135000000Y-142000000D01*
X160500000Y-142000000D02*
X163960000Y-142000000D01*
X169040000Y-142000000D02*
X172340000Y-142000000D01*
X199000000Y-142000000D02*
X202460000Y-142000000D01*
X207540000Y-142000000D02*
X210840000Y-142000000D01*
X143000000Y-137500000D02*
X143000000Y-137000000D01*
X143000000Y-137000000D02*
X139750000Y-133750000D01*
X143000000Y-137500000D02*
X139750000Y-137500000D01*
X139750000Y-137500000D02*
X139440000Y-137500000D01*
X144800001Y-120960001D02*
X137299999Y-113459999D01*
X139440000Y-137500000D02*
X136620000Y-134680000D01*
X136620000Y-134680000D02*
X136620000Y-133080000D01*
X143000000Y-137500000D02*
X144800001Y-135699999D01*
X144800001Y-135699999D02*
X144800001Y-120960001D01*
X137299999Y-113459999D02*
X136500000Y-112660000D01*
X136660000Y-112820000D02*
X136500000Y-112660000D01*
X134250000Y-117750000D02*
X134250000Y-116547919D01*
X134250000Y-116547919D02*
X131002080Y-113299999D01*
X131002080Y-113299999D02*
X130299999Y-113299999D01*
X130299999Y-113299999D02*
X129500000Y-112500000D01*
X138000000Y-121000000D02*
X137500000Y-121000000D01*
X137500000Y-121000000D02*
X134250000Y-117750000D01*
X133500000Y-129420000D02*
X133500000Y-125500000D01*
X133500000Y-125500000D02*
X138000000Y-121000000D01*
X136620000Y-130540000D02*
X134620000Y-130540000D01*
X134620000Y-130540000D02*
X133500000Y-129420000D01*
X136620000Y-128000000D02*
X139750000Y-128000000D01*
X139750000Y-128000000D02*
X142340000Y-128000000D01*
X139750000Y-131210000D02*
X139750000Y-130007919D01*
X139750000Y-130007919D02*
X139750000Y-128000000D01*
X143000000Y-122660000D02*
X143000000Y-127340000D01*
X142340000Y-128000000D02*
X143000000Y-127340000D01*
X180500000Y-137500000D02*
X180500000Y-137000000D01*
X180500000Y-137000000D02*
X177250000Y-133750000D01*
X176860000Y-137500000D02*
X177000000Y-137500000D01*
X177000000Y-137500000D02*
X179368630Y-137500000D01*
X183000000Y-121660000D02*
X174500000Y-113160000D01*
X183000000Y-135000000D02*
X183000000Y-121660000D01*
X180500000Y-137500000D02*
X183000000Y-135000000D01*
X174000000Y-133040000D02*
X174000000Y-134640000D01*
X174000000Y-134640000D02*
X176860000Y-137500000D01*
X179368630Y-137500000D02*
X180500000Y-137500000D01*
X172250000Y-117250000D02*
X172250000Y-116047919D01*
X172250000Y-116047919D02*
X169202081Y-113000000D01*
X169202081Y-113000000D02*
X168631370Y-113000000D01*
X168631370Y-113000000D02*
X167500000Y-113000000D01*
X174250000Y-117618630D02*
X173881370Y-117250000D01*
X173881370Y-117250000D02*
X172250000Y-117250000D01*
X176000000Y-120500000D02*
X176000000Y-119368630D01*
X176000000Y-119368630D02*
X174250000Y-117618630D01*
X175000000Y-120500000D02*
X176000000Y-120500000D01*
X170500000Y-129000000D02*
X170500000Y-124868630D01*
X174868630Y-120500000D02*
X176000000Y-120500000D01*
X170500000Y-124868630D02*
X174868630Y-120500000D01*
X172000000Y-130500000D02*
X170500000Y-129000000D01*
X174000000Y-130500000D02*
X172000000Y-130500000D01*
X219500000Y-138160000D02*
X219500000Y-137540000D01*
X219500000Y-137540000D02*
X216250000Y-134290000D01*
X216520000Y-138160000D02*
X216250000Y-137890000D01*
X216250000Y-137890000D02*
X213000000Y-134640000D01*
X221300001Y-121960001D02*
X213299999Y-113959999D01*
X220299999Y-137200001D02*
X221300001Y-136199999D01*
X221300001Y-136199999D02*
X221300001Y-121960001D01*
X213299999Y-113959999D02*
X212500000Y-113160000D01*
X219500000Y-138160000D02*
X220299999Y-137360001D01*
X220299999Y-137360001D02*
X220299999Y-137200001D01*
X219500000Y-138160000D02*
X216520000Y-138160000D01*
X213000000Y-134640000D02*
X213000000Y-133040000D01*
X211000000Y-117250000D02*
X211000000Y-116047919D01*
X211000000Y-116047919D02*
X208112081Y-113160000D01*
X208112081Y-113160000D02*
X207131370Y-113160000D01*
X207131370Y-113160000D02*
X206000000Y-113160000D01*
X214660000Y-120500000D02*
X214250000Y-120500000D01*
X214250000Y-120500000D02*
X211000000Y-117250000D01*
X209500000Y-129000000D02*
X209500000Y-125500000D01*
X214660000Y-120500000D02*
X209660000Y-125500000D01*
X209660000Y-125500000D02*
X209500000Y-125500000D01*
X213000000Y-130500000D02*
X211000000Y-130500000D01*
X211000000Y-130500000D02*
X209500000Y-129000000D01*
X177250000Y-127960000D02*
X179880000Y-127960000D01*
X174000000Y-127960000D02*
X177250000Y-127960000D01*
X177250000Y-127960000D02*
X177250000Y-131210000D01*
X180500000Y-123160000D02*
X180500000Y-127340000D01*
X179880000Y-127960000D02*
X180500000Y-127340000D01*
X213000000Y-127960000D02*
X216250000Y-127960000D01*
X216250000Y-127960000D02*
X219460000Y-127960000D01*
X216250000Y-131750000D02*
X216250000Y-130547919D01*
X216250000Y-130547919D02*
X216250000Y-127960000D01*
X219500000Y-123160000D02*
X219500000Y-128000000D01*
X219460000Y-127960000D02*
X219500000Y-128000000D01*
D23*
G36*
X125373000Y-53429347D02*
X125066483Y-53182834D01*
X124527000Y-53025000D01*
X124127000Y-53025000D01*
X124127000Y-54333000D01*
X124147000Y-54333000D01*
X124147000Y-54587000D01*
X124127000Y-54587000D01*
X124127000Y-54607000D01*
X123873000Y-54607000D01*
X123873000Y-54587000D01*
X122330085Y-54587000D01*
X122208096Y-54809039D01*
X122225633Y-54891819D01*
X122495500Y-55384896D01*
X122853186Y-55672561D01*
X122482496Y-55920248D01*
X122151484Y-56415642D01*
X122035248Y-57000000D01*
X122151484Y-57584358D01*
X122339003Y-57865000D01*
X122000000Y-57865000D01*
X121769205Y-57908427D01*
X121557233Y-58044827D01*
X121415029Y-58252949D01*
X121365000Y-58500000D01*
X121365000Y-70000000D01*
X121408427Y-70230795D01*
X121544827Y-70442767D01*
X121752949Y-70584971D01*
X122000000Y-70635000D01*
X125373000Y-70635000D01*
X125373000Y-79873000D01*
X111200000Y-79873000D01*
X111200000Y-74783223D01*
X114553035Y-74783223D01*
X114580222Y-75353454D01*
X114746136Y-75754005D01*
X114992255Y-75828139D01*
X115820395Y-75000000D01*
X114992255Y-74171861D01*
X114746136Y-74245995D01*
X114553035Y-74783223D01*
X111200000Y-74783223D01*
X111200000Y-73992255D01*
X115171861Y-73992255D01*
X116000000Y-74820395D01*
X116014142Y-74806252D01*
X116193748Y-74985858D01*
X116179605Y-75000000D01*
X116193748Y-75014143D01*
X116014142Y-75193748D01*
X116000000Y-75179605D01*
X115171861Y-76007745D01*
X115245995Y-76253864D01*
X115783223Y-76446965D01*
X116353454Y-76419778D01*
X116654631Y-76295026D01*
X116668672Y-76316846D01*
X116911615Y-76482843D01*
X117200000Y-76541242D01*
X118800000Y-76541242D01*
X119069410Y-76490549D01*
X119316846Y-76331328D01*
X119482843Y-76088385D01*
X119541242Y-75800000D01*
X119541242Y-74200000D01*
X119490549Y-73930590D01*
X119331328Y-73683154D01*
X119088385Y-73517157D01*
X118800000Y-73458758D01*
X117200000Y-73458758D01*
X116930590Y-73509451D01*
X116683154Y-73668672D01*
X116654631Y-73710417D01*
X116216777Y-73553035D01*
X115646546Y-73580222D01*
X115245995Y-73746136D01*
X115171861Y-73992255D01*
X111200000Y-73992255D01*
X111200000Y-68783223D01*
X114553035Y-68783223D01*
X114580222Y-69353454D01*
X114746136Y-69754005D01*
X114992255Y-69828139D01*
X115820395Y-69000000D01*
X114992255Y-68171861D01*
X114746136Y-68245995D01*
X114553035Y-68783223D01*
X111200000Y-68783223D01*
X111200000Y-67992255D01*
X115171861Y-67992255D01*
X116000000Y-68820395D01*
X116014142Y-68806252D01*
X116193748Y-68985858D01*
X116179605Y-69000000D01*
X116193748Y-69014143D01*
X116014142Y-69193748D01*
X116000000Y-69179605D01*
X115171861Y-70007745D01*
X115245995Y-70253864D01*
X115783223Y-70446965D01*
X116353454Y-70419778D01*
X116654631Y-70295026D01*
X116668672Y-70316846D01*
X116911615Y-70482843D01*
X117200000Y-70541242D01*
X118800000Y-70541242D01*
X119069410Y-70490549D01*
X119316846Y-70331328D01*
X119482843Y-70088385D01*
X119541242Y-69800000D01*
X119541242Y-68200000D01*
X119490549Y-67930590D01*
X119331328Y-67683154D01*
X119088385Y-67517157D01*
X118800000Y-67458758D01*
X117200000Y-67458758D01*
X116930590Y-67509451D01*
X116683154Y-67668672D01*
X116654631Y-67710417D01*
X116216777Y-67553035D01*
X115646546Y-67580222D01*
X115245995Y-67746136D01*
X115171861Y-67992255D01*
X111200000Y-67992255D01*
X111200000Y-54110961D01*
X122208096Y-54110961D01*
X122330085Y-54333000D01*
X123873000Y-54333000D01*
X123873000Y-53025000D01*
X123473000Y-53025000D01*
X122933517Y-53182834D01*
X122495500Y-53535104D01*
X122225633Y-54028181D01*
X122208096Y-54110961D01*
X111200000Y-54110961D01*
X111200000Y-52127000D01*
X125373000Y-52127000D01*
X125373000Y-53429347D01*
X125373000Y-53429347D01*
G37*
X125373000Y-53429347D02*
X125066483Y-53182834D01*
X124527000Y-53025000D01*
X124127000Y-53025000D01*
X124127000Y-54333000D01*
X124147000Y-54333000D01*
X124147000Y-54587000D01*
X124127000Y-54587000D01*
X124127000Y-54607000D01*
X123873000Y-54607000D01*
X123873000Y-54587000D01*
X122330085Y-54587000D01*
X122208096Y-54809039D01*
X122225633Y-54891819D01*
X122495500Y-55384896D01*
X122853186Y-55672561D01*
X122482496Y-55920248D01*
X122151484Y-56415642D01*
X122035248Y-57000000D01*
X122151484Y-57584358D01*
X122339003Y-57865000D01*
X122000000Y-57865000D01*
X121769205Y-57908427D01*
X121557233Y-58044827D01*
X121415029Y-58252949D01*
X121365000Y-58500000D01*
X121365000Y-70000000D01*
X121408427Y-70230795D01*
X121544827Y-70442767D01*
X121752949Y-70584971D01*
X122000000Y-70635000D01*
X125373000Y-70635000D01*
X125373000Y-79873000D01*
X111200000Y-79873000D01*
X111200000Y-74783223D01*
X114553035Y-74783223D01*
X114580222Y-75353454D01*
X114746136Y-75754005D01*
X114992255Y-75828139D01*
X115820395Y-75000000D01*
X114992255Y-74171861D01*
X114746136Y-74245995D01*
X114553035Y-74783223D01*
X111200000Y-74783223D01*
X111200000Y-73992255D01*
X115171861Y-73992255D01*
X116000000Y-74820395D01*
X116014142Y-74806252D01*
X116193748Y-74985858D01*
X116179605Y-75000000D01*
X116193748Y-75014143D01*
X116014142Y-75193748D01*
X116000000Y-75179605D01*
X115171861Y-76007745D01*
X115245995Y-76253864D01*
X115783223Y-76446965D01*
X116353454Y-76419778D01*
X116654631Y-76295026D01*
X116668672Y-76316846D01*
X116911615Y-76482843D01*
X117200000Y-76541242D01*
X118800000Y-76541242D01*
X119069410Y-76490549D01*
X119316846Y-76331328D01*
X119482843Y-76088385D01*
X119541242Y-75800000D01*
X119541242Y-74200000D01*
X119490549Y-73930590D01*
X119331328Y-73683154D01*
X119088385Y-73517157D01*
X118800000Y-73458758D01*
X117200000Y-73458758D01*
X116930590Y-73509451D01*
X116683154Y-73668672D01*
X116654631Y-73710417D01*
X116216777Y-73553035D01*
X115646546Y-73580222D01*
X115245995Y-73746136D01*
X115171861Y-73992255D01*
X111200000Y-73992255D01*
X111200000Y-68783223D01*
X114553035Y-68783223D01*
X114580222Y-69353454D01*
X114746136Y-69754005D01*
X114992255Y-69828139D01*
X115820395Y-69000000D01*
X114992255Y-68171861D01*
X114746136Y-68245995D01*
X114553035Y-68783223D01*
X111200000Y-68783223D01*
X111200000Y-67992255D01*
X115171861Y-67992255D01*
X116000000Y-68820395D01*
X116014142Y-68806252D01*
X116193748Y-68985858D01*
X116179605Y-69000000D01*
X116193748Y-69014143D01*
X116014142Y-69193748D01*
X116000000Y-69179605D01*
X115171861Y-70007745D01*
X115245995Y-70253864D01*
X115783223Y-70446965D01*
X116353454Y-70419778D01*
X116654631Y-70295026D01*
X116668672Y-70316846D01*
X116911615Y-70482843D01*
X117200000Y-70541242D01*
X118800000Y-70541242D01*
X119069410Y-70490549D01*
X119316846Y-70331328D01*
X119482843Y-70088385D01*
X119541242Y-69800000D01*
X119541242Y-68200000D01*
X119490549Y-67930590D01*
X119331328Y-67683154D01*
X119088385Y-67517157D01*
X118800000Y-67458758D01*
X117200000Y-67458758D01*
X116930590Y-67509451D01*
X116683154Y-67668672D01*
X116654631Y-67710417D01*
X116216777Y-67553035D01*
X115646546Y-67580222D01*
X115245995Y-67746136D01*
X115171861Y-67992255D01*
X111200000Y-67992255D01*
X111200000Y-54110961D01*
X122208096Y-54110961D01*
X122330085Y-54333000D01*
X123873000Y-54333000D01*
X123873000Y-53025000D01*
X123473000Y-53025000D01*
X122933517Y-53182834D01*
X122495500Y-53535104D01*
X122225633Y-54028181D01*
X122208096Y-54110961D01*
X111200000Y-54110961D01*
X111200000Y-52127000D01*
X125373000Y-52127000D01*
X125373000Y-53429347D01*
G36*
X129771484Y-58955642D02*
X129655248Y-59540000D01*
X129771484Y-60124358D01*
X130102496Y-60619752D01*
X130102989Y-60620081D01*
X129903154Y-60748672D01*
X129737157Y-60991615D01*
X129678758Y-61280000D01*
X129678758Y-62880000D01*
X129729451Y-63149410D01*
X129888672Y-63396846D01*
X130131615Y-63562843D01*
X130420000Y-63621242D01*
X132820000Y-63621242D01*
X133089410Y-63570549D01*
X133336846Y-63411328D01*
X133502843Y-63168385D01*
X133561242Y-62880000D01*
X133561242Y-61280000D01*
X133510549Y-61010590D01*
X133351328Y-60763154D01*
X133210603Y-60667000D01*
X136860000Y-60667000D01*
X137291284Y-60581212D01*
X137656909Y-60336909D01*
X138673603Y-59320215D01*
X138911615Y-59482843D01*
X139200000Y-59541242D01*
X140800000Y-59541242D01*
X141069410Y-59490549D01*
X141316846Y-59331328D01*
X141482843Y-59088385D01*
X141541242Y-58800000D01*
X141541242Y-58627000D01*
X149873000Y-58627000D01*
X149873000Y-69873000D01*
X129027112Y-69873000D01*
X129027265Y-69697593D01*
X128814752Y-69183273D01*
X128838327Y-69159698D01*
X128935000Y-68926309D01*
X128935000Y-68285750D01*
X128776250Y-68127000D01*
X127627000Y-68127000D01*
X127627000Y-68147000D01*
X127373000Y-68147000D01*
X127373000Y-68127000D01*
X126223750Y-68127000D01*
X126065000Y-68285750D01*
X126065000Y-68926309D01*
X126161673Y-69159698D01*
X126185584Y-69183609D01*
X125973265Y-69694928D01*
X125973110Y-69873000D01*
X122127000Y-69873000D01*
X122127000Y-67073691D01*
X126065000Y-67073691D01*
X126065000Y-67714250D01*
X126223750Y-67873000D01*
X127373000Y-67873000D01*
X127373000Y-66723750D01*
X127627000Y-66723750D01*
X127627000Y-67873000D01*
X128776250Y-67873000D01*
X128935000Y-67714250D01*
X128935000Y-67073691D01*
X128838327Y-66840302D01*
X128659699Y-66661673D01*
X128426310Y-66565000D01*
X127785750Y-66565000D01*
X127627000Y-66723750D01*
X127373000Y-66723750D01*
X127214250Y-66565000D01*
X126573690Y-66565000D01*
X126340301Y-66661673D01*
X126161673Y-66840302D01*
X126065000Y-67073691D01*
X122127000Y-67073691D01*
X122127000Y-62429039D01*
X122208096Y-62429039D01*
X122225633Y-62511819D01*
X122495500Y-63004896D01*
X122933517Y-63357166D01*
X123473000Y-63515000D01*
X123873000Y-63515000D01*
X123873000Y-62207000D01*
X124127000Y-62207000D01*
X124127000Y-63515000D01*
X124527000Y-63515000D01*
X125066483Y-63357166D01*
X125504500Y-63004896D01*
X125774367Y-62511819D01*
X125791904Y-62429039D01*
X125669915Y-62207000D01*
X124127000Y-62207000D01*
X123873000Y-62207000D01*
X122330085Y-62207000D01*
X122208096Y-62429039D01*
X122127000Y-62429039D01*
X122127000Y-60001269D01*
X122151484Y-60124358D01*
X122482496Y-60619752D01*
X122853186Y-60867439D01*
X122495500Y-61155104D01*
X122225633Y-61648181D01*
X122208096Y-61730961D01*
X122330085Y-61953000D01*
X123873000Y-61953000D01*
X123873000Y-61933000D01*
X124127000Y-61933000D01*
X124127000Y-61953000D01*
X125669915Y-61953000D01*
X125791904Y-61730961D01*
X125774367Y-61648181D01*
X125504500Y-61155104D01*
X125146814Y-60867439D01*
X125517504Y-60619752D01*
X125848516Y-60124358D01*
X125964752Y-59540000D01*
X125848516Y-58955642D01*
X125628924Y-58627000D01*
X129991076Y-58627000D01*
X129771484Y-58955642D01*
X129771484Y-58955642D01*
G37*
X129771484Y-58955642D02*
X129655248Y-59540000D01*
X129771484Y-60124358D01*
X130102496Y-60619752D01*
X130102989Y-60620081D01*
X129903154Y-60748672D01*
X129737157Y-60991615D01*
X129678758Y-61280000D01*
X129678758Y-62880000D01*
X129729451Y-63149410D01*
X129888672Y-63396846D01*
X130131615Y-63562843D01*
X130420000Y-63621242D01*
X132820000Y-63621242D01*
X133089410Y-63570549D01*
X133336846Y-63411328D01*
X133502843Y-63168385D01*
X133561242Y-62880000D01*
X133561242Y-61280000D01*
X133510549Y-61010590D01*
X133351328Y-60763154D01*
X133210603Y-60667000D01*
X136860000Y-60667000D01*
X137291284Y-60581212D01*
X137656909Y-60336909D01*
X138673603Y-59320215D01*
X138911615Y-59482843D01*
X139200000Y-59541242D01*
X140800000Y-59541242D01*
X141069410Y-59490549D01*
X141316846Y-59331328D01*
X141482843Y-59088385D01*
X141541242Y-58800000D01*
X141541242Y-58627000D01*
X149873000Y-58627000D01*
X149873000Y-69873000D01*
X129027112Y-69873000D01*
X129027265Y-69697593D01*
X128814752Y-69183273D01*
X128838327Y-69159698D01*
X128935000Y-68926309D01*
X128935000Y-68285750D01*
X128776250Y-68127000D01*
X127627000Y-68127000D01*
X127627000Y-68147000D01*
X127373000Y-68147000D01*
X127373000Y-68127000D01*
X126223750Y-68127000D01*
X126065000Y-68285750D01*
X126065000Y-68926309D01*
X126161673Y-69159698D01*
X126185584Y-69183609D01*
X125973265Y-69694928D01*
X125973110Y-69873000D01*
X122127000Y-69873000D01*
X122127000Y-67073691D01*
X126065000Y-67073691D01*
X126065000Y-67714250D01*
X126223750Y-67873000D01*
X127373000Y-67873000D01*
X127373000Y-66723750D01*
X127627000Y-66723750D01*
X127627000Y-67873000D01*
X128776250Y-67873000D01*
X128935000Y-67714250D01*
X128935000Y-67073691D01*
X128838327Y-66840302D01*
X128659699Y-66661673D01*
X128426310Y-66565000D01*
X127785750Y-66565000D01*
X127627000Y-66723750D01*
X127373000Y-66723750D01*
X127214250Y-66565000D01*
X126573690Y-66565000D01*
X126340301Y-66661673D01*
X126161673Y-66840302D01*
X126065000Y-67073691D01*
X122127000Y-67073691D01*
X122127000Y-62429039D01*
X122208096Y-62429039D01*
X122225633Y-62511819D01*
X122495500Y-63004896D01*
X122933517Y-63357166D01*
X123473000Y-63515000D01*
X123873000Y-63515000D01*
X123873000Y-62207000D01*
X124127000Y-62207000D01*
X124127000Y-63515000D01*
X124527000Y-63515000D01*
X125066483Y-63357166D01*
X125504500Y-63004896D01*
X125774367Y-62511819D01*
X125791904Y-62429039D01*
X125669915Y-62207000D01*
X124127000Y-62207000D01*
X123873000Y-62207000D01*
X122330085Y-62207000D01*
X122208096Y-62429039D01*
X122127000Y-62429039D01*
X122127000Y-60001269D01*
X122151484Y-60124358D01*
X122482496Y-60619752D01*
X122853186Y-60867439D01*
X122495500Y-61155104D01*
X122225633Y-61648181D01*
X122208096Y-61730961D01*
X122330085Y-61953000D01*
X123873000Y-61953000D01*
X123873000Y-61933000D01*
X124127000Y-61933000D01*
X124127000Y-61953000D01*
X125669915Y-61953000D01*
X125791904Y-61730961D01*
X125774367Y-61648181D01*
X125504500Y-61155104D01*
X125146814Y-60867439D01*
X125517504Y-60619752D01*
X125848516Y-60124358D01*
X125964752Y-59540000D01*
X125848516Y-58955642D01*
X125628924Y-58627000D01*
X129991076Y-58627000D01*
X129771484Y-58955642D01*
G36*
X236780000Y-144873000D02*
X219720818Y-144873000D01*
X221066759Y-143527059D01*
X221302407Y-143527265D01*
X221863846Y-143295283D01*
X222293773Y-142866106D01*
X222526735Y-142305072D01*
X222527265Y-141697593D01*
X222295283Y-141136154D01*
X221866106Y-140706227D01*
X221305072Y-140473265D01*
X220697593Y-140472735D01*
X220136154Y-140704717D01*
X219967577Y-140873000D01*
X215206819Y-140873000D01*
X207337535Y-133003717D01*
X207228516Y-132455642D01*
X206897504Y-131960248D01*
X206612778Y-131770000D01*
X206897504Y-131579752D01*
X207228516Y-131084358D01*
X207344752Y-130500000D01*
X207228516Y-129915642D01*
X206897504Y-129420248D01*
X206612778Y-129230000D01*
X206897504Y-129039752D01*
X207228516Y-128544358D01*
X207344752Y-127960000D01*
X207228516Y-127375642D01*
X206897504Y-126880248D01*
X206897011Y-126879919D01*
X207096846Y-126751328D01*
X207262843Y-126508385D01*
X207321242Y-126220000D01*
X207321242Y-124620000D01*
X207270549Y-124350590D01*
X207111328Y-124103154D01*
X206868385Y-123937157D01*
X206580000Y-123878758D01*
X206507000Y-123878758D01*
X206507000Y-121380000D01*
X206421212Y-120948716D01*
X206394732Y-120909086D01*
X208462576Y-118841242D01*
X209310000Y-118841242D01*
X209579410Y-118790549D01*
X209826846Y-118631328D01*
X209955433Y-118443136D01*
X210396508Y-118737853D01*
X211000000Y-118857895D01*
X211011741Y-118855559D01*
X212861182Y-120705000D01*
X209116998Y-124449184D01*
X209068716Y-124458788D01*
X208703091Y-124703091D01*
X208458788Y-125068716D01*
X208373000Y-125500000D01*
X208373000Y-129000000D01*
X208458788Y-129431284D01*
X208703091Y-129796909D01*
X210203090Y-131296909D01*
X210445360Y-131458788D01*
X210568716Y-131541212D01*
X211000000Y-131627000D01*
X211553208Y-131627000D01*
X211767222Y-131770000D01*
X211482496Y-131960248D01*
X211151484Y-132455642D01*
X211035248Y-133040000D01*
X211151484Y-133624358D01*
X211482496Y-134119752D01*
X211873000Y-134380679D01*
X211873000Y-134640000D01*
X211958788Y-135071284D01*
X212203091Y-135436909D01*
X215453091Y-138686909D01*
X215723091Y-138956910D01*
X215977648Y-139126999D01*
X216088716Y-139201212D01*
X216520000Y-139287000D01*
X218467412Y-139287000D01*
X218633894Y-139453773D01*
X219194928Y-139686735D01*
X219802407Y-139687265D01*
X220363846Y-139455283D01*
X220793773Y-139026106D01*
X221026735Y-138465072D01*
X221026943Y-138226876D01*
X221096908Y-138156911D01*
X221341211Y-137791286D01*
X221350815Y-137743003D01*
X222096910Y-136996909D01*
X222341213Y-136631284D01*
X222367942Y-136496908D01*
X222427001Y-136199999D01*
X222427001Y-121960001D01*
X222341213Y-121528717D01*
X222096910Y-121163091D01*
X214096910Y-113163092D01*
X214096908Y-113163089D01*
X214017837Y-113084018D01*
X213910764Y-112545726D01*
X213579752Y-112050332D01*
X213084358Y-111719320D01*
X212500000Y-111603084D01*
X211915642Y-111719320D01*
X211420248Y-112050332D01*
X211089236Y-112545726D01*
X210973000Y-113130084D01*
X210973000Y-113189916D01*
X211089236Y-113774274D01*
X211420248Y-114269668D01*
X211915642Y-114600680D01*
X212453934Y-114707753D01*
X212503089Y-114756908D01*
X212503092Y-114756910D01*
X219379074Y-121632893D01*
X219197593Y-121632735D01*
X218636154Y-121864717D01*
X218206227Y-122293894D01*
X217973265Y-122854928D01*
X217972735Y-123462407D01*
X218204717Y-124023846D01*
X218373000Y-124192423D01*
X218373000Y-126833000D01*
X214446792Y-126833000D01*
X214232778Y-126690000D01*
X214517504Y-126499752D01*
X214848516Y-126004358D01*
X214964752Y-125420000D01*
X214848516Y-124835642D01*
X214517504Y-124340248D01*
X214022110Y-124009236D01*
X213437752Y-123893000D01*
X212860818Y-123893000D01*
X214735981Y-122017837D01*
X215274274Y-121910764D01*
X215769668Y-121579752D01*
X216100680Y-121084358D01*
X216216916Y-120500000D01*
X216100680Y-119915642D01*
X215769668Y-119420248D01*
X215274274Y-119089236D01*
X214689916Y-118973000D01*
X214630084Y-118973000D01*
X214368792Y-119024974D01*
X212577000Y-117233182D01*
X212577000Y-117219105D01*
X212456958Y-116615613D01*
X212127000Y-116121797D01*
X212127000Y-116047919D01*
X212041212Y-115616635D01*
X211796909Y-115251010D01*
X208908990Y-112363091D01*
X208543365Y-112118788D01*
X208112081Y-112033000D01*
X207053813Y-112033000D01*
X206584358Y-111719320D01*
X206000000Y-111603084D01*
X205415642Y-111719320D01*
X204920248Y-112050332D01*
X204589236Y-112545726D01*
X204473000Y-113130084D01*
X204473000Y-113189916D01*
X204589236Y-113774274D01*
X204920248Y-114269668D01*
X205415642Y-114600680D01*
X206000000Y-114716916D01*
X206584358Y-114600680D01*
X207053813Y-114287000D01*
X207645263Y-114287000D01*
X209017021Y-115658758D01*
X207610000Y-115658758D01*
X207340590Y-115709451D01*
X207093154Y-115868672D01*
X206927157Y-116111615D01*
X206868758Y-116400000D01*
X206868758Y-117247424D01*
X205043792Y-119072390D01*
X204805072Y-118973265D01*
X204197593Y-118972735D01*
X203636154Y-119204717D01*
X203206227Y-119633894D01*
X202973265Y-120194928D01*
X202972735Y-120802407D01*
X203204717Y-121363846D01*
X203633894Y-121793773D01*
X204194928Y-122026735D01*
X204253000Y-122026786D01*
X204253000Y-123878758D01*
X204180000Y-123878758D01*
X203910590Y-123929451D01*
X203663154Y-124088672D01*
X203497157Y-124331615D01*
X203488776Y-124373000D01*
X199532588Y-124373000D01*
X199366106Y-124206227D01*
X198805072Y-123973265D01*
X198197593Y-123972735D01*
X197636154Y-124204717D01*
X197206227Y-124633894D01*
X196973265Y-125194928D01*
X196972735Y-125802407D01*
X197204717Y-126363846D01*
X197633894Y-126793773D01*
X198194928Y-127026735D01*
X198802407Y-127027265D01*
X199363846Y-126795283D01*
X199532423Y-126627000D01*
X203577988Y-126627000D01*
X203648672Y-126736846D01*
X203861258Y-126882101D01*
X203531484Y-127375642D01*
X203415248Y-127960000D01*
X203531484Y-128544358D01*
X203862496Y-129039752D01*
X204147222Y-129230000D01*
X203933208Y-129373000D01*
X200500000Y-129373000D01*
X200068716Y-129458788D01*
X199703091Y-129703091D01*
X198433241Y-130972941D01*
X198197593Y-130972735D01*
X197636154Y-131204717D01*
X197206227Y-131633894D01*
X196973265Y-132194928D01*
X196972735Y-132802407D01*
X197204717Y-133363846D01*
X197633894Y-133793773D01*
X198194928Y-134026735D01*
X198433125Y-134026943D01*
X203873000Y-139466818D01*
X203873000Y-141021106D01*
X203738423Y-141155448D01*
X203730261Y-141175105D01*
X203723049Y-141157651D01*
X203304552Y-140738423D01*
X202757480Y-140511259D01*
X202165119Y-140510742D01*
X201617651Y-140736951D01*
X201481364Y-140873000D01*
X200032588Y-140873000D01*
X199866106Y-140706227D01*
X199305072Y-140473265D01*
X198697593Y-140472735D01*
X198136154Y-140704717D01*
X197706227Y-141133894D01*
X197473265Y-141694928D01*
X197472735Y-142302407D01*
X197704717Y-142863846D01*
X198133894Y-143293773D01*
X198694928Y-143526735D01*
X199302407Y-143527265D01*
X199863846Y-143295283D01*
X200032423Y-143127000D01*
X201481106Y-143127000D01*
X201615448Y-143261577D01*
X202162520Y-143488741D01*
X202754881Y-143489258D01*
X203302349Y-143263049D01*
X203721577Y-142844552D01*
X203729739Y-142824895D01*
X203736951Y-142842349D01*
X204155448Y-143261577D01*
X204702520Y-143488741D01*
X205294881Y-143489258D01*
X205842349Y-143263049D01*
X206261577Y-142844552D01*
X206269739Y-142824895D01*
X206276951Y-142842349D01*
X206695448Y-143261577D01*
X207242520Y-143488741D01*
X207834881Y-143489258D01*
X208382349Y-143263049D01*
X208518636Y-143127000D01*
X209801044Y-143127000D01*
X210225726Y-143410764D01*
X210810084Y-143527000D01*
X210869916Y-143527000D01*
X211454274Y-143410764D01*
X211949668Y-143079752D01*
X212280680Y-142584358D01*
X212396916Y-142000000D01*
X212280680Y-141415642D01*
X211949668Y-140920248D01*
X211454274Y-140589236D01*
X210869916Y-140473000D01*
X210810084Y-140473000D01*
X210225726Y-140589236D01*
X209801044Y-140873000D01*
X208518894Y-140873000D01*
X208384552Y-140738423D01*
X207837480Y-140511259D01*
X207245119Y-140510742D01*
X206697651Y-140736951D01*
X206278423Y-141155448D01*
X206270261Y-141175105D01*
X206263049Y-141157651D01*
X206127000Y-141021364D01*
X206127000Y-139000000D01*
X206041212Y-138568716D01*
X205796909Y-138203091D01*
X200093818Y-132500000D01*
X200966818Y-131627000D01*
X203933208Y-131627000D01*
X204147222Y-131770000D01*
X203862496Y-131960248D01*
X203531484Y-132455642D01*
X203415248Y-133040000D01*
X203531484Y-133624358D01*
X203862496Y-134119752D01*
X204357890Y-134450764D01*
X204942248Y-134567000D01*
X205713182Y-134567000D01*
X213943091Y-142796910D01*
X214144197Y-142931284D01*
X214308716Y-143041212D01*
X214740000Y-143127000D01*
X218279182Y-143127000D01*
X217533182Y-143873000D01*
X175460819Y-143873000D01*
X176206819Y-143127000D01*
X181467412Y-143127000D01*
X181633894Y-143293773D01*
X182194928Y-143526735D01*
X182802407Y-143527265D01*
X183363846Y-143295283D01*
X183793773Y-142866106D01*
X184026735Y-142305072D01*
X184027001Y-142000000D01*
X187283084Y-142000000D01*
X187399320Y-142584358D01*
X187730332Y-143079752D01*
X188225726Y-143410764D01*
X188810084Y-143527000D01*
X188869916Y-143527000D01*
X189454274Y-143410764D01*
X189949668Y-143079752D01*
X190280680Y-142584358D01*
X190396916Y-142000000D01*
X190280680Y-141415642D01*
X189949668Y-140920248D01*
X189454274Y-140589236D01*
X188869916Y-140473000D01*
X188810084Y-140473000D01*
X188225726Y-140589236D01*
X187730332Y-140920248D01*
X187399320Y-141415642D01*
X187283084Y-142000000D01*
X184027001Y-142000000D01*
X184027265Y-141697593D01*
X183795283Y-141136154D01*
X183366106Y-140706227D01*
X182805072Y-140473265D01*
X182197593Y-140472735D01*
X181636154Y-140704717D01*
X181467577Y-140873000D01*
X176206819Y-140873000D01*
X168337535Y-133003717D01*
X168228516Y-132455642D01*
X167897504Y-131960248D01*
X167612778Y-131770000D01*
X167897504Y-131579752D01*
X168228516Y-131084358D01*
X168344752Y-130500000D01*
X168228516Y-129915642D01*
X167897504Y-129420248D01*
X167612778Y-129230000D01*
X167897504Y-129039752D01*
X168228516Y-128544358D01*
X168344752Y-127960000D01*
X168228516Y-127375642D01*
X167897504Y-126880248D01*
X167897011Y-126879919D01*
X168096846Y-126751328D01*
X168262843Y-126508385D01*
X168321242Y-126220000D01*
X168321242Y-124620000D01*
X168270549Y-124350590D01*
X168111328Y-124103154D01*
X167868385Y-123937157D01*
X167580000Y-123878758D01*
X167507000Y-123878758D01*
X167507000Y-121046818D01*
X169712576Y-118841242D01*
X170560000Y-118841242D01*
X170829410Y-118790549D01*
X171076846Y-118631328D01*
X171205433Y-118443136D01*
X171646508Y-118737853D01*
X172250000Y-118857895D01*
X172853492Y-118737853D01*
X173365107Y-118396002D01*
X173377804Y-118377000D01*
X173414551Y-118377000D01*
X173453091Y-118415540D01*
X173453094Y-118415542D01*
X174486552Y-119449000D01*
X174437346Y-119458788D01*
X174071721Y-119703091D01*
X169703091Y-124071721D01*
X169458788Y-124437346D01*
X169373000Y-124868630D01*
X169373000Y-129000000D01*
X169458788Y-129431284D01*
X169703091Y-129796909D01*
X171203090Y-131296909D01*
X171445360Y-131458788D01*
X171568716Y-131541212D01*
X172000000Y-131627000D01*
X172553208Y-131627000D01*
X172767222Y-131770000D01*
X172482496Y-131960248D01*
X172151484Y-132455642D01*
X172035248Y-133040000D01*
X172151484Y-133624358D01*
X172482496Y-134119752D01*
X172873000Y-134380679D01*
X172873000Y-134640000D01*
X172958788Y-135071284D01*
X173203091Y-135436909D01*
X176063091Y-138296909D01*
X176428716Y-138541212D01*
X176860000Y-138627000D01*
X179467412Y-138627000D01*
X179633894Y-138793773D01*
X180194928Y-139026735D01*
X180802407Y-139027265D01*
X181363846Y-138795283D01*
X181793773Y-138366106D01*
X182026735Y-137805072D01*
X182026943Y-137566875D01*
X183796909Y-135796909D01*
X184041212Y-135431284D01*
X184127000Y-135000000D01*
X184127000Y-133507745D01*
X192671861Y-133507745D01*
X192745995Y-133753864D01*
X193283223Y-133946965D01*
X193853454Y-133919778D01*
X194254005Y-133753864D01*
X194328139Y-133507745D01*
X193500000Y-132679605D01*
X192671861Y-133507745D01*
X184127000Y-133507745D01*
X184127000Y-132283223D01*
X192053035Y-132283223D01*
X192080222Y-132853454D01*
X192246136Y-133254005D01*
X192492255Y-133328139D01*
X193320395Y-132500000D01*
X193679605Y-132500000D01*
X194507745Y-133328139D01*
X194753864Y-133254005D01*
X194946965Y-132716777D01*
X194919778Y-132146546D01*
X194753864Y-131745995D01*
X194507745Y-131671861D01*
X193679605Y-132500000D01*
X193320395Y-132500000D01*
X192492255Y-131671861D01*
X192246136Y-131745995D01*
X192053035Y-132283223D01*
X184127000Y-132283223D01*
X184127000Y-131492255D01*
X192671861Y-131492255D01*
X193500000Y-132320395D01*
X194328139Y-131492255D01*
X194254005Y-131246136D01*
X193716777Y-131053035D01*
X193146546Y-131080222D01*
X192745995Y-131246136D01*
X192671861Y-131492255D01*
X184127000Y-131492255D01*
X184127000Y-126507745D01*
X192671861Y-126507745D01*
X192745995Y-126753864D01*
X193283223Y-126946965D01*
X193853454Y-126919778D01*
X194254005Y-126753864D01*
X194328139Y-126507745D01*
X193500000Y-125679605D01*
X192671861Y-126507745D01*
X184127000Y-126507745D01*
X184127000Y-125283223D01*
X192053035Y-125283223D01*
X192080222Y-125853454D01*
X192246136Y-126254005D01*
X192492255Y-126328139D01*
X193320395Y-125500000D01*
X193679605Y-125500000D01*
X194507745Y-126328139D01*
X194753864Y-126254005D01*
X194946965Y-125716777D01*
X194919778Y-125146546D01*
X194753864Y-124745995D01*
X194507745Y-124671861D01*
X193679605Y-125500000D01*
X193320395Y-125500000D01*
X192492255Y-124671861D01*
X192246136Y-124745995D01*
X192053035Y-125283223D01*
X184127000Y-125283223D01*
X184127000Y-124492255D01*
X192671861Y-124492255D01*
X193500000Y-125320395D01*
X194328139Y-124492255D01*
X194254005Y-124246136D01*
X193716777Y-124053035D01*
X193146546Y-124080222D01*
X192745995Y-124246136D01*
X192671861Y-124492255D01*
X184127000Y-124492255D01*
X184127000Y-121660000D01*
X184041212Y-121228716D01*
X184014533Y-121188788D01*
X183796909Y-120863090D01*
X176017837Y-113084019D01*
X175910764Y-112545726D01*
X175579752Y-112050332D01*
X175084358Y-111719320D01*
X174500000Y-111603084D01*
X173915642Y-111719320D01*
X173420248Y-112050332D01*
X173089236Y-112545726D01*
X172973000Y-113130084D01*
X172973000Y-113189916D01*
X173089236Y-113774274D01*
X173420248Y-114269668D01*
X173915642Y-114600680D01*
X174453935Y-114707753D01*
X181873000Y-122126819D01*
X181873000Y-122484243D01*
X181795283Y-122296154D01*
X181366106Y-121866227D01*
X180805072Y-121633265D01*
X180197593Y-121632735D01*
X179636154Y-121864717D01*
X179206227Y-122293894D01*
X178973265Y-122854928D01*
X178972735Y-123462407D01*
X179204717Y-124023846D01*
X179373000Y-124192423D01*
X179373000Y-126301044D01*
X179089236Y-126725726D01*
X179067898Y-126833000D01*
X175446792Y-126833000D01*
X175232778Y-126690000D01*
X175517504Y-126499752D01*
X175848516Y-126004358D01*
X175964752Y-125420000D01*
X175848516Y-124835642D01*
X175517504Y-124340248D01*
X175022110Y-124009236D01*
X174437752Y-123893000D01*
X173562248Y-123893000D01*
X172977890Y-124009236D01*
X172903519Y-124058929D01*
X175185483Y-121776965D01*
X175385726Y-121910764D01*
X175970084Y-122027000D01*
X176029916Y-122027000D01*
X176614274Y-121910764D01*
X177109668Y-121579752D01*
X177440680Y-121084358D01*
X177556916Y-120500000D01*
X177440680Y-119915642D01*
X177127000Y-119446187D01*
X177127000Y-119368630D01*
X177041212Y-118937346D01*
X176995819Y-118869410D01*
X176796910Y-118571721D01*
X175046912Y-116821724D01*
X175046910Y-116821721D01*
X174678279Y-116453091D01*
X174312654Y-116208788D01*
X173881370Y-116123000D01*
X173377804Y-116123000D01*
X173377000Y-116121797D01*
X173377000Y-116047919D01*
X173291212Y-115616635D01*
X173046909Y-115251009D01*
X169998990Y-112203091D01*
X169633365Y-111958788D01*
X169202081Y-111873000D01*
X168553813Y-111873000D01*
X168084358Y-111559320D01*
X167500000Y-111443084D01*
X166915642Y-111559320D01*
X166420248Y-111890332D01*
X166089236Y-112385726D01*
X165973000Y-112970084D01*
X165973000Y-113029916D01*
X166089236Y-113614274D01*
X166420248Y-114109668D01*
X166915642Y-114440680D01*
X167500000Y-114556916D01*
X168084358Y-114440680D01*
X168553813Y-114127000D01*
X168735263Y-114127000D01*
X170267020Y-115658758D01*
X168860000Y-115658758D01*
X168590590Y-115709451D01*
X168343154Y-115868672D01*
X168177157Y-116111615D01*
X168118758Y-116400000D01*
X168118758Y-117247424D01*
X166320198Y-119045984D01*
X166145072Y-118973265D01*
X165537593Y-118972735D01*
X164976154Y-119204717D01*
X164546227Y-119633894D01*
X164313265Y-120194928D01*
X164312735Y-120802407D01*
X164544717Y-121363846D01*
X164973894Y-121793773D01*
X165253000Y-121909668D01*
X165253000Y-123878758D01*
X165180000Y-123878758D01*
X164910590Y-123929451D01*
X164663154Y-124088672D01*
X164523542Y-124293000D01*
X161360090Y-124293000D01*
X161295283Y-124136154D01*
X160866106Y-123706227D01*
X160305072Y-123473265D01*
X159697593Y-123472735D01*
X159136154Y-123704717D01*
X158706227Y-124133894D01*
X158473265Y-124694928D01*
X158472735Y-125302407D01*
X158704717Y-125863846D01*
X159133894Y-126293773D01*
X159694928Y-126526735D01*
X160302407Y-126527265D01*
X160308379Y-126524797D01*
X160420000Y-126547000D01*
X164526509Y-126547000D01*
X164648672Y-126736846D01*
X164861258Y-126882101D01*
X164531484Y-127375642D01*
X164415248Y-127960000D01*
X164531484Y-128544358D01*
X164862496Y-129039752D01*
X165147222Y-129230000D01*
X164933208Y-129373000D01*
X161500000Y-129373000D01*
X161068716Y-129458788D01*
X160703090Y-129703091D01*
X159933241Y-130472941D01*
X159697593Y-130472735D01*
X159136154Y-130704717D01*
X158706227Y-131133894D01*
X158473265Y-131694928D01*
X158472735Y-132302407D01*
X158704717Y-132863846D01*
X159133894Y-133293773D01*
X159694928Y-133526735D01*
X159933125Y-133526943D01*
X165373000Y-138966818D01*
X165373000Y-141021106D01*
X165238423Y-141155448D01*
X165230261Y-141175105D01*
X165223049Y-141157651D01*
X164804552Y-140738423D01*
X164257480Y-140511259D01*
X163665119Y-140510742D01*
X163117651Y-140736951D01*
X162981364Y-140873000D01*
X161532588Y-140873000D01*
X161366106Y-140706227D01*
X160805072Y-140473265D01*
X160197593Y-140472735D01*
X159636154Y-140704717D01*
X159206227Y-141133894D01*
X158973265Y-141694928D01*
X158972735Y-142302407D01*
X159204717Y-142863846D01*
X159633894Y-143293773D01*
X160194928Y-143526735D01*
X160802407Y-143527265D01*
X161363846Y-143295283D01*
X161532423Y-143127000D01*
X162981106Y-143127000D01*
X163115448Y-143261577D01*
X163662520Y-143488741D01*
X164254881Y-143489258D01*
X164802349Y-143263049D01*
X165221577Y-142844552D01*
X165229739Y-142824895D01*
X165236951Y-142842349D01*
X165655448Y-143261577D01*
X166202520Y-143488741D01*
X166794881Y-143489258D01*
X167342349Y-143263049D01*
X167761577Y-142844552D01*
X167769739Y-142824895D01*
X167776951Y-142842349D01*
X168195448Y-143261577D01*
X168742520Y-143488741D01*
X169334881Y-143489258D01*
X169882349Y-143263049D01*
X170018636Y-143127000D01*
X171301044Y-143127000D01*
X171725726Y-143410764D01*
X172310084Y-143527000D01*
X172369916Y-143527000D01*
X172681075Y-143465107D01*
X172273182Y-143873000D01*
X138040819Y-143873000D01*
X138786819Y-143127000D01*
X144127412Y-143127000D01*
X144293894Y-143293773D01*
X144854928Y-143526735D01*
X145462407Y-143527265D01*
X146023846Y-143295283D01*
X146453773Y-142866106D01*
X146686735Y-142305072D01*
X146687001Y-142000000D01*
X148783084Y-142000000D01*
X148899320Y-142584358D01*
X149230332Y-143079752D01*
X149725726Y-143410764D01*
X150310084Y-143527000D01*
X150369916Y-143527000D01*
X150954274Y-143410764D01*
X151449668Y-143079752D01*
X151780680Y-142584358D01*
X151896916Y-142000000D01*
X151780680Y-141415642D01*
X151449668Y-140920248D01*
X150954274Y-140589236D01*
X150369916Y-140473000D01*
X150310084Y-140473000D01*
X149725726Y-140589236D01*
X149230332Y-140920248D01*
X148899320Y-141415642D01*
X148783084Y-142000000D01*
X146687001Y-142000000D01*
X146687265Y-141697593D01*
X146455283Y-141136154D01*
X146026106Y-140706227D01*
X145465072Y-140473265D01*
X144857593Y-140472735D01*
X144296154Y-140704717D01*
X144127577Y-140873000D01*
X138786818Y-140873000D01*
X130957535Y-133043717D01*
X130848516Y-132495642D01*
X130517504Y-132000248D01*
X130232778Y-131810000D01*
X130517504Y-131619752D01*
X130848516Y-131124358D01*
X130964752Y-130540000D01*
X130848516Y-129955642D01*
X130517504Y-129460248D01*
X130232778Y-129270000D01*
X130517504Y-129079752D01*
X130848516Y-128584358D01*
X130964752Y-128000000D01*
X130848516Y-127415642D01*
X130517504Y-126920248D01*
X130517011Y-126919919D01*
X130716846Y-126791328D01*
X130882843Y-126548385D01*
X130941242Y-126260000D01*
X130941242Y-124660000D01*
X130890549Y-124390590D01*
X130731328Y-124143154D01*
X130488385Y-123977157D01*
X130200000Y-123918758D01*
X130127000Y-123918758D01*
X130127000Y-122160000D01*
X130041212Y-121728716D01*
X130027897Y-121708788D01*
X129796910Y-121363091D01*
X129743818Y-121310000D01*
X131712576Y-119341242D01*
X132560000Y-119341242D01*
X132829410Y-119290549D01*
X133076846Y-119131328D01*
X133205433Y-118943136D01*
X133646508Y-119237853D01*
X134250000Y-119357895D01*
X134261741Y-119355559D01*
X136156182Y-121250000D01*
X132703091Y-124703091D01*
X132458788Y-125068716D01*
X132373000Y-125500000D01*
X132373000Y-129420000D01*
X132458788Y-129851284D01*
X132703091Y-130216909D01*
X133823091Y-131336909D01*
X134188716Y-131581212D01*
X134620000Y-131667000D01*
X135173208Y-131667000D01*
X135387222Y-131810000D01*
X135102496Y-132000248D01*
X134771484Y-132495642D01*
X134655248Y-133080000D01*
X134771484Y-133664358D01*
X135102496Y-134159752D01*
X135493000Y-134420679D01*
X135493000Y-134680000D01*
X135578788Y-135111284D01*
X135823091Y-135476909D01*
X138643090Y-138296909D01*
X138947038Y-138500000D01*
X139008716Y-138541212D01*
X139440000Y-138627000D01*
X141967412Y-138627000D01*
X142133894Y-138793773D01*
X142694928Y-139026735D01*
X143302407Y-139027265D01*
X143863846Y-138795283D01*
X144293773Y-138366106D01*
X144526735Y-137805072D01*
X144526943Y-137566875D01*
X145596910Y-136496908D01*
X145841213Y-136131283D01*
X145927001Y-135699999D01*
X145927001Y-133007745D01*
X154171861Y-133007745D01*
X154245995Y-133253864D01*
X154783223Y-133446965D01*
X155353454Y-133419778D01*
X155754005Y-133253864D01*
X155828139Y-133007745D01*
X155000000Y-132179605D01*
X154171861Y-133007745D01*
X145927001Y-133007745D01*
X145927001Y-131783223D01*
X153553035Y-131783223D01*
X153580222Y-132353454D01*
X153746136Y-132754005D01*
X153992255Y-132828139D01*
X154820395Y-132000000D01*
X155179605Y-132000000D01*
X156007745Y-132828139D01*
X156253864Y-132754005D01*
X156446965Y-132216777D01*
X156419778Y-131646546D01*
X156253864Y-131245995D01*
X156007745Y-131171861D01*
X155179605Y-132000000D01*
X154820395Y-132000000D01*
X153992255Y-131171861D01*
X153746136Y-131245995D01*
X153553035Y-131783223D01*
X145927001Y-131783223D01*
X145927001Y-130992255D01*
X154171861Y-130992255D01*
X155000000Y-131820395D01*
X155828139Y-130992255D01*
X155754005Y-130746136D01*
X155216777Y-130553035D01*
X154646546Y-130580222D01*
X154245995Y-130746136D01*
X154171861Y-130992255D01*
X145927001Y-130992255D01*
X145927001Y-126007745D01*
X154171861Y-126007745D01*
X154245995Y-126253864D01*
X154783223Y-126446965D01*
X155353454Y-126419778D01*
X155754005Y-126253864D01*
X155828139Y-126007745D01*
X155000000Y-125179605D01*
X154171861Y-126007745D01*
X145927001Y-126007745D01*
X145927001Y-124783223D01*
X153553035Y-124783223D01*
X153580222Y-125353454D01*
X153746136Y-125754005D01*
X153992255Y-125828139D01*
X154820395Y-125000000D01*
X155179605Y-125000000D01*
X156007745Y-125828139D01*
X156253864Y-125754005D01*
X156446965Y-125216777D01*
X156419778Y-124646546D01*
X156253864Y-124245995D01*
X156007745Y-124171861D01*
X155179605Y-125000000D01*
X154820395Y-125000000D01*
X153992255Y-124171861D01*
X153746136Y-124245995D01*
X153553035Y-124783223D01*
X145927001Y-124783223D01*
X145927001Y-123992255D01*
X154171861Y-123992255D01*
X155000000Y-124820395D01*
X155828139Y-123992255D01*
X155754005Y-123746136D01*
X155216777Y-123553035D01*
X154646546Y-123580222D01*
X154245995Y-123746136D01*
X154171861Y-123992255D01*
X145927001Y-123992255D01*
X145927001Y-120960001D01*
X145841213Y-120528717D01*
X145765659Y-120415642D01*
X145596911Y-120163092D01*
X138096910Y-112663092D01*
X138096908Y-112663089D01*
X138017837Y-112584018D01*
X137910764Y-112045726D01*
X137579752Y-111550332D01*
X137084358Y-111219320D01*
X136500000Y-111103084D01*
X135915642Y-111219320D01*
X135420248Y-111550332D01*
X135089236Y-112045726D01*
X134973000Y-112630084D01*
X134973000Y-112689916D01*
X135089236Y-113274274D01*
X135420248Y-113769668D01*
X135915642Y-114100680D01*
X136453934Y-114207753D01*
X136503089Y-114256908D01*
X136503092Y-114256910D01*
X143432259Y-121186078D01*
X143305072Y-121133265D01*
X142697593Y-121132735D01*
X142136154Y-121364717D01*
X141706227Y-121793894D01*
X141473265Y-122354928D01*
X141472735Y-122962407D01*
X141704717Y-123523846D01*
X141873000Y-123692423D01*
X141873000Y-126301044D01*
X141589236Y-126725726D01*
X141559941Y-126873000D01*
X138066792Y-126873000D01*
X137852778Y-126730000D01*
X138137504Y-126539752D01*
X138468516Y-126044358D01*
X138584752Y-125460000D01*
X138468516Y-124875642D01*
X138137504Y-124380248D01*
X137642110Y-124049236D01*
X137057752Y-123933000D01*
X136660818Y-123933000D01*
X138075981Y-122517837D01*
X138614274Y-122410764D01*
X139109668Y-122079752D01*
X139440680Y-121584358D01*
X139556916Y-121000000D01*
X139440680Y-120415642D01*
X139109668Y-119920248D01*
X138614274Y-119589236D01*
X138029916Y-119473000D01*
X137970084Y-119473000D01*
X137633724Y-119539906D01*
X135827000Y-117733182D01*
X135827000Y-117719105D01*
X135706958Y-117115613D01*
X135377000Y-116621797D01*
X135377000Y-116547919D01*
X135291212Y-116116635D01*
X135282768Y-116103998D01*
X135046910Y-115751010D01*
X131798989Y-112503090D01*
X131433364Y-112258787D01*
X131002080Y-112172999D01*
X130967906Y-112172999D01*
X130910764Y-111885726D01*
X130579752Y-111390332D01*
X130084358Y-111059320D01*
X129500000Y-110943084D01*
X128915642Y-111059320D01*
X128420248Y-111390332D01*
X128089236Y-111885726D01*
X127973000Y-112470084D01*
X127973000Y-112529916D01*
X128089236Y-113114274D01*
X128420248Y-113609668D01*
X128915642Y-113940680D01*
X129453934Y-114047753D01*
X129503089Y-114096908D01*
X129868714Y-114341211D01*
X129940269Y-114355444D01*
X130299999Y-114426999D01*
X130535262Y-114426999D01*
X132267020Y-116158758D01*
X130860000Y-116158758D01*
X130590590Y-116209451D01*
X130343154Y-116368672D01*
X130177157Y-116611615D01*
X130118758Y-116900000D01*
X130118758Y-117747424D01*
X128320198Y-119545984D01*
X128145072Y-119473265D01*
X127537593Y-119472735D01*
X126976154Y-119704717D01*
X126546227Y-120133894D01*
X126313265Y-120694928D01*
X126312735Y-121302407D01*
X126544717Y-121863846D01*
X126973894Y-122293773D01*
X127534928Y-122526735D01*
X127773124Y-122526943D01*
X127873000Y-122626819D01*
X127873000Y-123918758D01*
X127800000Y-123918758D01*
X127530590Y-123969451D01*
X127283154Y-124128672D01*
X127143542Y-124333000D01*
X124376618Y-124333000D01*
X124295283Y-124136154D01*
X123866106Y-123706227D01*
X123305072Y-123473265D01*
X122697593Y-123472735D01*
X122136154Y-123704717D01*
X121706227Y-124133894D01*
X121473265Y-124694928D01*
X121472735Y-125302407D01*
X121704717Y-125863846D01*
X122133894Y-126293773D01*
X122694928Y-126526735D01*
X123159064Y-126527140D01*
X123460000Y-126587000D01*
X127146509Y-126587000D01*
X127268672Y-126776846D01*
X127481258Y-126922101D01*
X127151484Y-127415642D01*
X127035248Y-128000000D01*
X127151484Y-128584358D01*
X127482496Y-129079752D01*
X127767222Y-129270000D01*
X127553208Y-129413000D01*
X124460000Y-129413000D01*
X124028716Y-129498788D01*
X123663091Y-129743091D01*
X122933241Y-130472941D01*
X122697593Y-130472735D01*
X122136154Y-130704717D01*
X121706227Y-131133894D01*
X121473265Y-131694928D01*
X121472735Y-132302407D01*
X121704717Y-132863846D01*
X122133894Y-133293773D01*
X122694928Y-133526735D01*
X122933125Y-133526943D01*
X127873000Y-138466819D01*
X127873000Y-141021106D01*
X127738423Y-141155448D01*
X127730261Y-141175105D01*
X127723049Y-141157651D01*
X127304552Y-140738423D01*
X126757480Y-140511259D01*
X126165119Y-140510742D01*
X125617651Y-140736951D01*
X125481364Y-140873000D01*
X124192588Y-140873000D01*
X124026106Y-140706227D01*
X123465072Y-140473265D01*
X122857593Y-140472735D01*
X122296154Y-140704717D01*
X121866227Y-141133894D01*
X121633265Y-141694928D01*
X121632735Y-142302407D01*
X121864717Y-142863846D01*
X122293894Y-143293773D01*
X122854928Y-143526735D01*
X123462407Y-143527265D01*
X124023846Y-143295283D01*
X124192423Y-143127000D01*
X125481106Y-143127000D01*
X125615448Y-143261577D01*
X126162520Y-143488741D01*
X126754881Y-143489258D01*
X127302349Y-143263049D01*
X127721577Y-142844552D01*
X127729739Y-142824895D01*
X127736951Y-142842349D01*
X128155448Y-143261577D01*
X128702520Y-143488741D01*
X129294881Y-143489258D01*
X129842349Y-143263049D01*
X130261577Y-142844552D01*
X130269739Y-142824895D01*
X130276951Y-142842349D01*
X130695448Y-143261577D01*
X131242520Y-143488741D01*
X131834881Y-143489258D01*
X132382349Y-143263049D01*
X132518636Y-143127000D01*
X133961044Y-143127000D01*
X134385726Y-143410764D01*
X134970084Y-143527000D01*
X135029916Y-143527000D01*
X135241211Y-143484971D01*
X134853182Y-143873000D01*
X118966818Y-143873000D01*
X117127000Y-142033182D01*
X117127000Y-133052608D01*
X117171861Y-133007747D01*
X117245995Y-133253864D01*
X117783223Y-133446965D01*
X118353454Y-133419778D01*
X118754005Y-133253864D01*
X118828139Y-133007745D01*
X118000000Y-132179605D01*
X117985858Y-132193748D01*
X117806252Y-132014142D01*
X117820395Y-132000000D01*
X118179605Y-132000000D01*
X119007745Y-132828139D01*
X119253864Y-132754005D01*
X119446965Y-132216777D01*
X119419778Y-131646546D01*
X119253864Y-131245995D01*
X119007745Y-131171861D01*
X118179605Y-132000000D01*
X117820395Y-132000000D01*
X117806252Y-131985858D01*
X117985858Y-131806252D01*
X118000000Y-131820395D01*
X118828139Y-130992255D01*
X118754005Y-130746136D01*
X118216777Y-130553035D01*
X117646546Y-130580222D01*
X117245995Y-130746136D01*
X117171861Y-130992253D01*
X117127000Y-130947392D01*
X117127000Y-126052608D01*
X117171861Y-126007747D01*
X117245995Y-126253864D01*
X117783223Y-126446965D01*
X118353454Y-126419778D01*
X118754005Y-126253864D01*
X118828139Y-126007745D01*
X118000000Y-125179605D01*
X117985858Y-125193748D01*
X117806252Y-125014142D01*
X117820395Y-125000000D01*
X118179605Y-125000000D01*
X119007745Y-125828139D01*
X119253864Y-125754005D01*
X119446965Y-125216777D01*
X119419778Y-124646546D01*
X119253864Y-124245995D01*
X119007745Y-124171861D01*
X118179605Y-125000000D01*
X117820395Y-125000000D01*
X117806252Y-124985858D01*
X117985858Y-124806252D01*
X118000000Y-124820395D01*
X118828139Y-123992255D01*
X118754005Y-123746136D01*
X118216777Y-123553035D01*
X117646546Y-123580222D01*
X117245995Y-123746136D01*
X117171861Y-123992253D01*
X117127000Y-123947392D01*
X117127000Y-105007745D01*
X142171861Y-105007745D01*
X142245995Y-105253864D01*
X142783223Y-105446965D01*
X143353454Y-105419778D01*
X143754005Y-105253864D01*
X143828139Y-105007745D01*
X143000000Y-104179605D01*
X142171861Y-105007745D01*
X117127000Y-105007745D01*
X117127000Y-99802407D01*
X127972735Y-99802407D01*
X128204717Y-100363846D01*
X128373000Y-100532423D01*
X128373000Y-101307412D01*
X128206227Y-101473894D01*
X127973265Y-102034928D01*
X127972735Y-102642407D01*
X128204717Y-103203846D01*
X128633894Y-103633773D01*
X129194928Y-103866735D01*
X129802407Y-103867265D01*
X130363846Y-103635283D01*
X130793773Y-103206106D01*
X131026735Y-102645072D01*
X131027265Y-102037593D01*
X130795283Y-101476154D01*
X130627000Y-101307577D01*
X130627000Y-100532588D01*
X130793773Y-100366106D01*
X131026735Y-99805072D01*
X131026737Y-99802407D01*
X134972735Y-99802407D01*
X135204717Y-100363846D01*
X135373000Y-100532423D01*
X135373000Y-101467412D01*
X135206227Y-101633894D01*
X134973265Y-102194928D01*
X134972735Y-102802407D01*
X135204717Y-103363846D01*
X135633894Y-103793773D01*
X136194928Y-104026735D01*
X136802407Y-104027265D01*
X137363846Y-103795283D01*
X137375927Y-103783223D01*
X141553035Y-103783223D01*
X141580222Y-104353454D01*
X141746136Y-104754005D01*
X141992255Y-104828139D01*
X142820395Y-104000000D01*
X143179605Y-104000000D01*
X144007745Y-104828139D01*
X144253864Y-104754005D01*
X144446965Y-104216777D01*
X144419778Y-103646546D01*
X144253864Y-103245995D01*
X144007745Y-103171861D01*
X143179605Y-104000000D01*
X142820395Y-104000000D01*
X141992255Y-103171861D01*
X141746136Y-103245995D01*
X141553035Y-103783223D01*
X137375927Y-103783223D01*
X137793773Y-103366106D01*
X137949009Y-102992255D01*
X142171861Y-102992255D01*
X143000000Y-103820395D01*
X143828139Y-102992255D01*
X143754005Y-102746136D01*
X143216777Y-102553035D01*
X142646546Y-102580222D01*
X142245995Y-102746136D01*
X142171861Y-102992255D01*
X137949009Y-102992255D01*
X138026735Y-102805072D01*
X138027265Y-102197593D01*
X137795283Y-101636154D01*
X137627000Y-101467577D01*
X137627000Y-100532588D01*
X137793773Y-100366106D01*
X138026735Y-99805072D01*
X138027265Y-99197593D01*
X137795283Y-98636154D01*
X137366106Y-98206227D01*
X136805072Y-97973265D01*
X136197593Y-97972735D01*
X135636154Y-98204717D01*
X135206227Y-98633894D01*
X134973265Y-99194928D01*
X134972735Y-99802407D01*
X131026737Y-99802407D01*
X131027265Y-99197593D01*
X130795283Y-98636154D01*
X130366106Y-98206227D01*
X129805072Y-97973265D01*
X129197593Y-97972735D01*
X128636154Y-98204717D01*
X128206227Y-98633894D01*
X127973265Y-99194928D01*
X127972735Y-99802407D01*
X117127000Y-99802407D01*
X117127000Y-94802407D01*
X127972735Y-94802407D01*
X128204717Y-95363846D01*
X128633894Y-95793773D01*
X129194928Y-96026735D01*
X129802407Y-96027265D01*
X130363846Y-95795283D01*
X130793773Y-95366106D01*
X131026735Y-94805072D01*
X131027265Y-94197593D01*
X130795283Y-93636154D01*
X130627000Y-93467577D01*
X130627000Y-93466818D01*
X131836576Y-92257242D01*
X133016000Y-92257242D01*
X133285410Y-92206549D01*
X133532846Y-92047328D01*
X133599207Y-91950207D01*
X133838836Y-92110322D01*
X134505853Y-92243000D01*
X134574147Y-92243000D01*
X134670096Y-92223915D01*
X135373000Y-92926819D01*
X135373000Y-93467412D01*
X135206227Y-93633894D01*
X134973265Y-94194928D01*
X134972735Y-94802407D01*
X135204717Y-95363846D01*
X135633894Y-95793773D01*
X136194928Y-96026735D01*
X136802407Y-96027265D01*
X137363846Y-95795283D01*
X137793773Y-95366106D01*
X138026735Y-94805072D01*
X138027265Y-94197593D01*
X137795283Y-93636154D01*
X137627000Y-93467577D01*
X137627000Y-92460000D01*
X137541212Y-92028716D01*
X137391319Y-91804385D01*
X137296910Y-91663091D01*
X136286731Y-90652912D01*
X136317147Y-90500000D01*
X136184469Y-89832983D01*
X135806634Y-89267513D01*
X135241164Y-88889678D01*
X134574147Y-88757000D01*
X134505853Y-88757000D01*
X133838836Y-88889678D01*
X133600115Y-89049187D01*
X133547328Y-88967154D01*
X133304385Y-88801157D01*
X133016000Y-88742758D01*
X130984000Y-88742758D01*
X130714590Y-88793451D01*
X130467154Y-88952672D01*
X130301157Y-89195615D01*
X130242758Y-89484000D01*
X130242758Y-90663424D01*
X128703091Y-92203091D01*
X128458788Y-92568716D01*
X128373000Y-93000000D01*
X128373000Y-93467412D01*
X128206227Y-93633894D01*
X127973265Y-94194928D01*
X127972735Y-94802407D01*
X117127000Y-94802407D01*
X117127000Y-80635000D01*
X125500000Y-80635000D01*
X125730795Y-80591573D01*
X125942767Y-80455173D01*
X126084971Y-80247051D01*
X126135000Y-80000000D01*
X126135000Y-70635000D01*
X126196842Y-70635000D01*
X126246136Y-70754005D01*
X126492255Y-70828139D01*
X126685394Y-70635000D01*
X127044606Y-70635000D01*
X126671861Y-71007745D01*
X126745995Y-71253864D01*
X127283223Y-71446965D01*
X127853454Y-71419778D01*
X128254005Y-71253864D01*
X128328139Y-71007745D01*
X127955394Y-70635000D01*
X128314606Y-70635000D01*
X128507745Y-70828139D01*
X128753864Y-70754005D01*
X128796639Y-70635000D01*
X150000000Y-70635000D01*
X150230795Y-70591573D01*
X150442767Y-70455173D01*
X150584971Y-70247051D01*
X150635000Y-70000000D01*
X150635000Y-68327000D01*
X190148338Y-68327000D01*
X191493000Y-69671662D01*
X191493000Y-73997515D01*
X191124552Y-73628423D01*
X190577480Y-73401259D01*
X189985119Y-73400742D01*
X189437651Y-73626951D01*
X189018423Y-74045448D01*
X188791259Y-74592520D01*
X188790742Y-75184881D01*
X188931277Y-75525001D01*
X168673480Y-75525001D01*
X168402000Y-75471000D01*
X167970716Y-75556788D01*
X167605091Y-75801091D01*
X154203091Y-89203091D01*
X153958788Y-89568716D01*
X153873000Y-90000000D01*
X153873000Y-96533181D01*
X143003092Y-107403090D01*
X143003089Y-107403092D01*
X142933240Y-107472941D01*
X142697593Y-107472735D01*
X142136154Y-107704717D01*
X141706227Y-108133894D01*
X141473265Y-108694928D01*
X141472735Y-109302407D01*
X141704717Y-109863846D01*
X141873000Y-110032423D01*
X141873000Y-111461044D01*
X141589236Y-111885726D01*
X141473000Y-112470084D01*
X141473000Y-112529916D01*
X141589236Y-113114274D01*
X141920248Y-113609668D01*
X142415642Y-113940680D01*
X143000000Y-114056916D01*
X143584358Y-113940680D01*
X144079752Y-113609668D01*
X144410764Y-113114274D01*
X144527000Y-112529916D01*
X144527000Y-112470084D01*
X144410764Y-111885726D01*
X144127000Y-111461044D01*
X144127000Y-110032588D01*
X144293773Y-109866106D01*
X144526735Y-109305072D01*
X144526943Y-109066876D01*
X144596908Y-108996911D01*
X144596910Y-108996908D01*
X148086073Y-105507745D01*
X179671861Y-105507745D01*
X179745995Y-105753864D01*
X180283223Y-105946965D01*
X180853454Y-105919778D01*
X181254005Y-105753864D01*
X181328139Y-105507745D01*
X180500000Y-104679605D01*
X179671861Y-105507745D01*
X148086073Y-105507745D01*
X153291411Y-100302407D01*
X165972735Y-100302407D01*
X166204717Y-100863846D01*
X166373000Y-101032423D01*
X166373000Y-101807412D01*
X166206227Y-101973894D01*
X165973265Y-102534928D01*
X165972735Y-103142407D01*
X166204717Y-103703846D01*
X166633894Y-104133773D01*
X167194928Y-104366735D01*
X167802407Y-104367265D01*
X168363846Y-104135283D01*
X168793773Y-103706106D01*
X169026735Y-103145072D01*
X169027265Y-102537593D01*
X168795283Y-101976154D01*
X168627000Y-101807577D01*
X168627000Y-101032588D01*
X168793773Y-100866106D01*
X169026735Y-100305072D01*
X169026737Y-100302407D01*
X172972735Y-100302407D01*
X173204717Y-100863846D01*
X173373000Y-101032423D01*
X173373000Y-101967412D01*
X173206227Y-102133894D01*
X172973265Y-102694928D01*
X172972735Y-103302407D01*
X173204717Y-103863846D01*
X173633894Y-104293773D01*
X174194928Y-104526735D01*
X174802407Y-104527265D01*
X175363846Y-104295283D01*
X175375927Y-104283223D01*
X179053035Y-104283223D01*
X179080222Y-104853454D01*
X179246136Y-105254005D01*
X179492255Y-105328139D01*
X180320395Y-104500000D01*
X180679605Y-104500000D01*
X181507745Y-105328139D01*
X181753864Y-105254005D01*
X181946965Y-104716777D01*
X181919778Y-104146546D01*
X181753864Y-103745995D01*
X181507745Y-103671861D01*
X180679605Y-104500000D01*
X180320395Y-104500000D01*
X179492255Y-103671861D01*
X179246136Y-103745995D01*
X179053035Y-104283223D01*
X175375927Y-104283223D01*
X175793773Y-103866106D01*
X175949009Y-103492255D01*
X179671861Y-103492255D01*
X180500000Y-104320395D01*
X181328139Y-103492255D01*
X181254005Y-103246136D01*
X180716777Y-103053035D01*
X180146546Y-103080222D01*
X179745995Y-103246136D01*
X179671861Y-103492255D01*
X175949009Y-103492255D01*
X176026735Y-103305072D01*
X176027265Y-102697593D01*
X175795283Y-102136154D01*
X175627000Y-101967577D01*
X175627000Y-101032588D01*
X175793773Y-100866106D01*
X176026735Y-100305072D01*
X176027265Y-99697593D01*
X175795283Y-99136154D01*
X175366106Y-98706227D01*
X174805072Y-98473265D01*
X174197593Y-98472735D01*
X173636154Y-98704717D01*
X173206227Y-99133894D01*
X172973265Y-99694928D01*
X172972735Y-100302407D01*
X169026737Y-100302407D01*
X169027265Y-99697593D01*
X168795283Y-99136154D01*
X168366106Y-98706227D01*
X167805072Y-98473265D01*
X167197593Y-98472735D01*
X166636154Y-98704717D01*
X166206227Y-99133894D01*
X165973265Y-99694928D01*
X165972735Y-100302407D01*
X153291411Y-100302407D01*
X155796909Y-97796910D01*
X156041212Y-97431284D01*
X156127000Y-97000000D01*
X156127000Y-95302407D01*
X165972735Y-95302407D01*
X166204717Y-95863846D01*
X166633894Y-96293773D01*
X167194928Y-96526735D01*
X167802407Y-96527265D01*
X168363846Y-96295283D01*
X168793773Y-95866106D01*
X169026735Y-95305072D01*
X169027265Y-94697593D01*
X168795283Y-94136154D01*
X168627000Y-93967577D01*
X168627000Y-93466818D01*
X169336576Y-92757242D01*
X170516000Y-92757242D01*
X170785410Y-92706549D01*
X171032846Y-92547328D01*
X171099207Y-92450207D01*
X171338836Y-92610322D01*
X172005853Y-92743000D01*
X172074147Y-92743000D01*
X172170096Y-92723915D01*
X173373000Y-93926819D01*
X173373000Y-93967412D01*
X173206227Y-94133894D01*
X172973265Y-94694928D01*
X172972735Y-95302407D01*
X173204717Y-95863846D01*
X173633894Y-96293773D01*
X174194928Y-96526735D01*
X174802407Y-96527265D01*
X175363846Y-96295283D01*
X175793773Y-95866106D01*
X176026735Y-95305072D01*
X176027265Y-94697593D01*
X175795283Y-94136154D01*
X175627000Y-93967577D01*
X175627000Y-93460000D01*
X175541212Y-93028716D01*
X175476110Y-92931284D01*
X175296909Y-92663090D01*
X173786731Y-91152912D01*
X173817147Y-91000000D01*
X173684469Y-90332983D01*
X173306634Y-89767513D01*
X172741164Y-89389678D01*
X172074147Y-89257000D01*
X172005853Y-89257000D01*
X171338836Y-89389678D01*
X171100115Y-89549187D01*
X171047328Y-89467154D01*
X170804385Y-89301157D01*
X170516000Y-89242758D01*
X168484000Y-89242758D01*
X168214590Y-89293451D01*
X167967154Y-89452672D01*
X167801157Y-89695615D01*
X167742758Y-89984000D01*
X167742758Y-91163424D01*
X166703091Y-92203091D01*
X166458788Y-92568716D01*
X166373000Y-93000000D01*
X166373000Y-93967412D01*
X166206227Y-94133894D01*
X165973265Y-94694928D01*
X165972735Y-95302407D01*
X156127000Y-95302407D01*
X156127000Y-90466818D01*
X168814817Y-77779001D01*
X206117181Y-77779001D01*
X194693091Y-89203091D01*
X194448788Y-89568716D01*
X194363000Y-90000000D01*
X194363000Y-94043181D01*
X180433241Y-107972941D01*
X180197593Y-107972735D01*
X179636154Y-108204717D01*
X179206227Y-108633894D01*
X178973265Y-109194928D01*
X178972735Y-109802407D01*
X179204717Y-110363846D01*
X179373000Y-110532423D01*
X179373000Y-111961044D01*
X179089236Y-112385726D01*
X178973000Y-112970084D01*
X178973000Y-113029916D01*
X179089236Y-113614274D01*
X179420248Y-114109668D01*
X179915642Y-114440680D01*
X180500000Y-114556916D01*
X181084358Y-114440680D01*
X181579752Y-114109668D01*
X181910764Y-113614274D01*
X182027000Y-113029916D01*
X182027000Y-112970084D01*
X181910764Y-112385726D01*
X181627000Y-111961044D01*
X181627000Y-110532588D01*
X181793773Y-110366106D01*
X182026735Y-109805072D01*
X182026943Y-109566875D01*
X191291411Y-100302407D01*
X204472735Y-100302407D01*
X204704717Y-100863846D01*
X204873000Y-101032423D01*
X204873000Y-101967412D01*
X204706227Y-102133894D01*
X204473265Y-102694928D01*
X204472735Y-103302407D01*
X204704717Y-103863846D01*
X205133894Y-104293773D01*
X205694928Y-104526735D01*
X206302407Y-104527265D01*
X206863846Y-104295283D01*
X207293773Y-103866106D01*
X207526735Y-103305072D01*
X207527265Y-102697593D01*
X207295283Y-102136154D01*
X207127000Y-101967577D01*
X207127000Y-101032588D01*
X207293773Y-100866106D01*
X207526735Y-100305072D01*
X207526737Y-100302407D01*
X210972735Y-100302407D01*
X211204717Y-100863846D01*
X211373000Y-101032423D01*
X211373000Y-101967412D01*
X211206227Y-102133894D01*
X210973265Y-102694928D01*
X210972735Y-103302407D01*
X211204717Y-103863846D01*
X211633894Y-104293773D01*
X212194928Y-104526735D01*
X212802407Y-104527265D01*
X213363846Y-104295283D01*
X213793773Y-103866106D01*
X213828189Y-103783223D01*
X218053035Y-103783223D01*
X218080222Y-104353454D01*
X218246136Y-104754005D01*
X218492255Y-104828139D01*
X219320395Y-104000000D01*
X218492255Y-103171861D01*
X218246136Y-103245995D01*
X218053035Y-103783223D01*
X213828189Y-103783223D01*
X214026735Y-103305072D01*
X214027265Y-102697593D01*
X213795283Y-102136154D01*
X213627000Y-101967577D01*
X213627000Y-101032588D01*
X213793773Y-100866106D01*
X214026735Y-100305072D01*
X214027265Y-99697593D01*
X213795283Y-99136154D01*
X213366106Y-98706227D01*
X212805072Y-98473265D01*
X212197593Y-98472735D01*
X211636154Y-98704717D01*
X211206227Y-99133894D01*
X210973265Y-99694928D01*
X210972735Y-100302407D01*
X207526737Y-100302407D01*
X207527265Y-99697593D01*
X207295283Y-99136154D01*
X206866106Y-98706227D01*
X206305072Y-98473265D01*
X205697593Y-98472735D01*
X205136154Y-98704717D01*
X204706227Y-99133894D01*
X204473265Y-99694928D01*
X204472735Y-100302407D01*
X191291411Y-100302407D01*
X196286909Y-95306910D01*
X196289917Y-95302407D01*
X204472735Y-95302407D01*
X204704717Y-95863846D01*
X205133894Y-96293773D01*
X205694928Y-96526735D01*
X206302407Y-96527265D01*
X206863846Y-96295283D01*
X207293773Y-95866106D01*
X207526735Y-95305072D01*
X207527265Y-94697593D01*
X207295283Y-94136154D01*
X207127000Y-93967577D01*
X207127000Y-92926818D01*
X207796577Y-92257242D01*
X208976000Y-92257242D01*
X209245410Y-92206549D01*
X209492846Y-92047328D01*
X209559207Y-91950207D01*
X209798836Y-92110322D01*
X210465853Y-92243000D01*
X210534147Y-92243000D01*
X210630096Y-92223914D01*
X211373000Y-92966818D01*
X211373000Y-93967412D01*
X211206227Y-94133894D01*
X210973265Y-94694928D01*
X210972735Y-95302407D01*
X211204717Y-95863846D01*
X211633894Y-96293773D01*
X212194928Y-96526735D01*
X212802407Y-96527265D01*
X213363846Y-96295283D01*
X213793773Y-95866106D01*
X214026735Y-95305072D01*
X214027265Y-94697593D01*
X213795283Y-94136154D01*
X213627000Y-93967577D01*
X213627000Y-92500000D01*
X213541212Y-92068716D01*
X213296909Y-91703091D01*
X212246731Y-90652913D01*
X212277147Y-90500000D01*
X212144469Y-89832983D01*
X211766634Y-89267513D01*
X211201164Y-88889678D01*
X210534147Y-88757000D01*
X210465853Y-88757000D01*
X209798836Y-88889678D01*
X209560115Y-89049187D01*
X209507328Y-88967154D01*
X209264385Y-88801157D01*
X208976000Y-88742758D01*
X206944000Y-88742758D01*
X206674590Y-88793451D01*
X206427154Y-88952672D01*
X206261157Y-89195615D01*
X206202758Y-89484000D01*
X206202758Y-90663423D01*
X205203091Y-91663091D01*
X204958788Y-92028716D01*
X204873000Y-92460000D01*
X204873000Y-93967412D01*
X204706227Y-94133894D01*
X204473265Y-94694928D01*
X204472735Y-95302407D01*
X196289917Y-95302407D01*
X196531212Y-94941284D01*
X196580215Y-94694928D01*
X196617000Y-94510000D01*
X196617000Y-90466818D01*
X210704726Y-76379092D01*
X210894881Y-76379258D01*
X211442349Y-76153049D01*
X211861577Y-75734552D01*
X211869739Y-75714895D01*
X211876951Y-75732349D01*
X212013000Y-75868636D01*
X212013000Y-75967630D01*
X212098788Y-76398914D01*
X212343091Y-76764539D01*
X220173001Y-84594449D01*
X220173001Y-102717020D01*
X219716777Y-102553035D01*
X219146546Y-102580222D01*
X218745995Y-102746136D01*
X218671861Y-102992255D01*
X219500000Y-103820395D01*
X219514142Y-103806252D01*
X219693748Y-103985858D01*
X219679605Y-104000000D01*
X219693748Y-104014142D01*
X219514142Y-104193748D01*
X219500000Y-104179605D01*
X218671861Y-105007745D01*
X218745995Y-105253864D01*
X219283223Y-105446965D01*
X219853454Y-105419778D01*
X220173001Y-105287417D01*
X220173001Y-106733181D01*
X219433241Y-107472941D01*
X219197593Y-107472735D01*
X218636154Y-107704717D01*
X218206227Y-108133894D01*
X217973265Y-108694928D01*
X217972735Y-109302407D01*
X218204717Y-109863846D01*
X218373000Y-110032423D01*
X218373000Y-111961044D01*
X218089236Y-112385726D01*
X217973000Y-112970084D01*
X217973000Y-113029916D01*
X218089236Y-113614274D01*
X218420248Y-114109668D01*
X218915642Y-114440680D01*
X219500000Y-114556916D01*
X220084358Y-114440680D01*
X220579752Y-114109668D01*
X220910764Y-113614274D01*
X221027000Y-113029916D01*
X221027000Y-112970084D01*
X220910764Y-112385726D01*
X220627000Y-111961044D01*
X220627000Y-110032588D01*
X220793773Y-109866106D01*
X221026735Y-109305072D01*
X221026943Y-109066875D01*
X222096910Y-107996908D01*
X222341213Y-107631283D01*
X222427001Y-107199999D01*
X222427001Y-84127631D01*
X222341213Y-83696347D01*
X222096910Y-83330722D01*
X214976218Y-76210030D01*
X215382520Y-76378741D01*
X215974881Y-76379258D01*
X216522349Y-76153049D01*
X216941577Y-75734552D01*
X216949739Y-75714895D01*
X216956951Y-75732349D01*
X217375448Y-76151577D01*
X217922520Y-76378741D01*
X218514881Y-76379258D01*
X219062349Y-76153049D01*
X219481577Y-75734552D01*
X219489739Y-75714895D01*
X219496951Y-75732349D01*
X219915448Y-76151577D01*
X220462520Y-76378741D01*
X221054881Y-76379258D01*
X221602349Y-76153049D01*
X222021577Y-75734552D01*
X222029739Y-75714895D01*
X222036951Y-75732349D01*
X222455448Y-76151577D01*
X223002520Y-76378741D01*
X223594881Y-76379258D01*
X224142349Y-76153049D01*
X224561577Y-75734552D01*
X224569739Y-75714895D01*
X224576951Y-75732349D01*
X224995448Y-76151577D01*
X225542520Y-76378741D01*
X226134881Y-76379258D01*
X226682349Y-76153049D01*
X227101577Y-75734552D01*
X227109739Y-75714895D01*
X227116951Y-75732349D01*
X227535448Y-76151577D01*
X228082520Y-76378741D01*
X228674881Y-76379258D01*
X229222349Y-76153049D01*
X229641577Y-75734552D01*
X229868741Y-75187480D01*
X229869258Y-74595119D01*
X229643049Y-74047651D01*
X229224552Y-73628423D01*
X228677480Y-73401259D01*
X228085119Y-73400742D01*
X227537651Y-73626951D01*
X227118423Y-74045448D01*
X227110261Y-74065105D01*
X227103049Y-74047651D01*
X226684552Y-73628423D01*
X226137480Y-73401259D01*
X225545119Y-73400742D01*
X224997651Y-73626951D01*
X224578423Y-74045448D01*
X224570261Y-74065105D01*
X224563049Y-74047651D01*
X224144552Y-73628423D01*
X223597480Y-73401259D01*
X223005119Y-73400742D01*
X222457651Y-73626951D01*
X222038423Y-74045448D01*
X222030261Y-74065105D01*
X222023049Y-74047651D01*
X221604552Y-73628423D01*
X221057480Y-73401259D01*
X220465119Y-73400742D01*
X219917651Y-73626951D01*
X219498423Y-74045448D01*
X219490261Y-74065105D01*
X219483049Y-74047651D01*
X219064552Y-73628423D01*
X218517480Y-73401259D01*
X217925119Y-73400742D01*
X217377651Y-73626951D01*
X216958423Y-74045448D01*
X216950261Y-74065105D01*
X216943049Y-74047651D01*
X216524552Y-73628423D01*
X215977480Y-73401259D01*
X215385119Y-73400742D01*
X214837651Y-73626951D01*
X214418423Y-74045448D01*
X214410261Y-74065105D01*
X214403049Y-74047651D01*
X213984552Y-73628423D01*
X213437480Y-73401259D01*
X212845119Y-73400742D01*
X212297651Y-73626951D01*
X211878423Y-74045448D01*
X211870261Y-74065105D01*
X211863049Y-74047651D01*
X211444552Y-73628423D01*
X210897480Y-73401259D01*
X210305119Y-73400742D01*
X209757651Y-73626951D01*
X209338423Y-74045448D01*
X209330261Y-74065105D01*
X209323049Y-74047651D01*
X208904552Y-73628423D01*
X208357480Y-73401259D01*
X207765119Y-73400742D01*
X207217651Y-73626951D01*
X206798423Y-74045448D01*
X206790261Y-74065105D01*
X206783049Y-74047651D01*
X206364552Y-73628423D01*
X205817480Y-73401259D01*
X205225119Y-73400742D01*
X204677651Y-73626951D01*
X204258423Y-74045448D01*
X204250261Y-74065105D01*
X204243049Y-74047651D01*
X203824552Y-73628423D01*
X203277480Y-73401259D01*
X202685119Y-73400742D01*
X202137651Y-73626951D01*
X201718423Y-74045448D01*
X201710261Y-74065105D01*
X201703049Y-74047651D01*
X201284552Y-73628423D01*
X200737480Y-73401259D01*
X200145119Y-73400742D01*
X199597651Y-73626951D01*
X199178423Y-74045448D01*
X199126859Y-74169629D01*
X199122397Y-74158857D01*
X198880213Y-74089392D01*
X198079605Y-74890000D01*
X198093748Y-74904143D01*
X197914143Y-75083748D01*
X197900000Y-75069605D01*
X197885858Y-75083748D01*
X197706253Y-74904143D01*
X197720395Y-74890000D01*
X196919787Y-74089392D01*
X196677603Y-74158857D01*
X196673616Y-74170033D01*
X196623049Y-74047651D01*
X196485426Y-73909787D01*
X197099392Y-73909787D01*
X197900000Y-74710395D01*
X198700608Y-73909787D01*
X198631143Y-73667603D01*
X198107698Y-73480856D01*
X197552632Y-73508638D01*
X197168857Y-73667603D01*
X197099392Y-73909787D01*
X196485426Y-73909787D01*
X196204552Y-73628423D01*
X195657480Y-73401259D01*
X195065119Y-73400742D01*
X194517651Y-73626951D01*
X194147000Y-73996956D01*
X194147000Y-69122000D01*
X194045988Y-68614179D01*
X193758331Y-68183669D01*
X191636331Y-66061669D01*
X191205821Y-65774012D01*
X190698000Y-65673000D01*
X150635000Y-65673000D01*
X150635000Y-58500000D01*
X150591573Y-58269205D01*
X150455173Y-58057233D01*
X150247051Y-57915029D01*
X150000000Y-57865000D01*
X141541242Y-57865000D01*
X141541242Y-57200000D01*
X141490549Y-56930590D01*
X141354675Y-56719437D01*
X141526735Y-56305072D01*
X141527265Y-55697593D01*
X141295283Y-55136154D01*
X141024484Y-54864881D01*
X198950742Y-54864881D01*
X199176951Y-55412349D01*
X199595448Y-55831577D01*
X200142520Y-56058741D01*
X200734881Y-56059258D01*
X201282349Y-55833049D01*
X201701577Y-55414552D01*
X201709739Y-55394895D01*
X201716951Y-55412349D01*
X202135448Y-55831577D01*
X202682520Y-56058741D01*
X203274881Y-56059258D01*
X203822349Y-55833049D01*
X204241577Y-55414552D01*
X204249739Y-55394895D01*
X204256951Y-55412349D01*
X204675448Y-55831577D01*
X205222520Y-56058741D01*
X205814881Y-56059258D01*
X206362349Y-55833049D01*
X206781577Y-55414552D01*
X206789739Y-55394895D01*
X206796951Y-55412349D01*
X207215448Y-55831577D01*
X207762520Y-56058741D01*
X208354881Y-56059258D01*
X208902349Y-55833049D01*
X209321577Y-55414552D01*
X209329739Y-55394895D01*
X209336951Y-55412349D01*
X209755448Y-55831577D01*
X210302520Y-56058741D01*
X210894881Y-56059258D01*
X211442349Y-55833049D01*
X211861577Y-55414552D01*
X211869739Y-55394895D01*
X211876951Y-55412349D01*
X212295448Y-55831577D01*
X212842520Y-56058741D01*
X213434881Y-56059258D01*
X213982349Y-55833049D01*
X214401577Y-55414552D01*
X214409739Y-55394895D01*
X214416951Y-55412349D01*
X214835448Y-55831577D01*
X215382520Y-56058741D01*
X215974881Y-56059258D01*
X216522349Y-55833049D01*
X216941577Y-55414552D01*
X216949739Y-55394895D01*
X216956951Y-55412349D01*
X217375448Y-55831577D01*
X217922520Y-56058741D01*
X218514881Y-56059258D01*
X219062349Y-55833049D01*
X219481577Y-55414552D01*
X219489739Y-55394895D01*
X219496951Y-55412349D01*
X219915448Y-55831577D01*
X220462520Y-56058741D01*
X221054881Y-56059258D01*
X221602349Y-55833049D01*
X222021577Y-55414552D01*
X222029739Y-55394895D01*
X222036951Y-55412349D01*
X222455448Y-55831577D01*
X223002520Y-56058741D01*
X223594881Y-56059258D01*
X224142349Y-55833049D01*
X224561577Y-55414552D01*
X224569739Y-55394895D01*
X224576951Y-55412349D01*
X224995448Y-55831577D01*
X225542520Y-56058741D01*
X226134881Y-56059258D01*
X226682349Y-55833049D01*
X227101577Y-55414552D01*
X227109739Y-55394895D01*
X227116951Y-55412349D01*
X227535448Y-55831577D01*
X228082520Y-56058741D01*
X228674881Y-56059258D01*
X229222349Y-55833049D01*
X229641577Y-55414552D01*
X229868741Y-54867480D01*
X229869258Y-54275119D01*
X229643049Y-53727651D01*
X229224552Y-53308423D01*
X228677480Y-53081259D01*
X228085119Y-53080742D01*
X227537651Y-53306951D01*
X227118423Y-53725448D01*
X227110261Y-53745105D01*
X227103049Y-53727651D01*
X226684552Y-53308423D01*
X226137480Y-53081259D01*
X225545119Y-53080742D01*
X224997651Y-53306951D01*
X224578423Y-53725448D01*
X224570261Y-53745105D01*
X224563049Y-53727651D01*
X224144552Y-53308423D01*
X223597480Y-53081259D01*
X223005119Y-53080742D01*
X222457651Y-53306951D01*
X222038423Y-53725448D01*
X222030261Y-53745105D01*
X222023049Y-53727651D01*
X221604552Y-53308423D01*
X221057480Y-53081259D01*
X220465119Y-53080742D01*
X219917651Y-53306951D01*
X219498423Y-53725448D01*
X219490261Y-53745105D01*
X219483049Y-53727651D01*
X219064552Y-53308423D01*
X218517480Y-53081259D01*
X217925119Y-53080742D01*
X217377651Y-53306951D01*
X216958423Y-53725448D01*
X216950261Y-53745105D01*
X216943049Y-53727651D01*
X216524552Y-53308423D01*
X215977480Y-53081259D01*
X215385119Y-53080742D01*
X214837651Y-53306951D01*
X214418423Y-53725448D01*
X214410261Y-53745105D01*
X214403049Y-53727651D01*
X213984552Y-53308423D01*
X213437480Y-53081259D01*
X212845119Y-53080742D01*
X212297651Y-53306951D01*
X211878423Y-53725448D01*
X211870261Y-53745105D01*
X211863049Y-53727651D01*
X211444552Y-53308423D01*
X210897480Y-53081259D01*
X210305119Y-53080742D01*
X209757651Y-53306951D01*
X209338423Y-53725448D01*
X209330261Y-53745105D01*
X209323049Y-53727651D01*
X208904552Y-53308423D01*
X208357480Y-53081259D01*
X207765119Y-53080742D01*
X207217651Y-53306951D01*
X206798423Y-53725448D01*
X206790261Y-53745105D01*
X206783049Y-53727651D01*
X206364552Y-53308423D01*
X205817480Y-53081259D01*
X205225119Y-53080742D01*
X204677651Y-53306951D01*
X204258423Y-53725448D01*
X204250261Y-53745105D01*
X204243049Y-53727651D01*
X203824552Y-53308423D01*
X203277480Y-53081259D01*
X202685119Y-53080742D01*
X202137651Y-53306951D01*
X201718423Y-53725448D01*
X201710261Y-53745105D01*
X201703049Y-53727651D01*
X201284552Y-53308423D01*
X200737480Y-53081259D01*
X200145119Y-53080742D01*
X199597651Y-53306951D01*
X199178423Y-53725448D01*
X198951259Y-54272520D01*
X198950742Y-54864881D01*
X141024484Y-54864881D01*
X140866106Y-54706227D01*
X140305072Y-54473265D01*
X140066875Y-54473057D01*
X139256909Y-53663091D01*
X138891284Y-53418788D01*
X138460000Y-53333000D01*
X133066792Y-53333000D01*
X132642110Y-53049236D01*
X132057752Y-52933000D01*
X131182248Y-52933000D01*
X130597890Y-53049236D01*
X130102496Y-53380248D01*
X129771484Y-53875642D01*
X129655248Y-54460000D01*
X129771484Y-55044358D01*
X130102496Y-55539752D01*
X130473186Y-55787439D01*
X130115500Y-56075104D01*
X129845633Y-56568181D01*
X129828096Y-56650961D01*
X129950085Y-56873000D01*
X131493000Y-56873000D01*
X131493000Y-56853000D01*
X131747000Y-56853000D01*
X131747000Y-56873000D01*
X133289915Y-56873000D01*
X133411904Y-56650961D01*
X133394367Y-56568181D01*
X133124500Y-56075104D01*
X132766814Y-55787439D01*
X133066792Y-55587000D01*
X137993182Y-55587000D01*
X138472941Y-56066759D01*
X138472735Y-56302407D01*
X138646337Y-56722555D01*
X138543542Y-56873000D01*
X138400000Y-56873000D01*
X137968716Y-56958788D01*
X137603091Y-57203091D01*
X136941182Y-57865000D01*
X133157282Y-57865000D01*
X133394367Y-57431819D01*
X133411904Y-57349039D01*
X133289915Y-57127000D01*
X131747000Y-57127000D01*
X131747000Y-57147000D01*
X131493000Y-57147000D01*
X131493000Y-57127000D01*
X129950085Y-57127000D01*
X129828096Y-57349039D01*
X129845633Y-57431819D01*
X130082718Y-57865000D01*
X126135000Y-57865000D01*
X126135000Y-52000000D01*
X126091573Y-51769205D01*
X125955173Y-51557233D01*
X125747051Y-51415029D01*
X125500000Y-51365000D01*
X111200000Y-51365000D01*
X111200000Y-50875000D01*
X236780000Y-50875000D01*
X236780000Y-144873000D01*
X236780000Y-144873000D01*
G37*
X236780000Y-144873000D02*
X219720818Y-144873000D01*
X221066759Y-143527059D01*
X221302407Y-143527265D01*
X221863846Y-143295283D01*
X222293773Y-142866106D01*
X222526735Y-142305072D01*
X222527265Y-141697593D01*
X222295283Y-141136154D01*
X221866106Y-140706227D01*
X221305072Y-140473265D01*
X220697593Y-140472735D01*
X220136154Y-140704717D01*
X219967577Y-140873000D01*
X215206819Y-140873000D01*
X207337535Y-133003717D01*
X207228516Y-132455642D01*
X206897504Y-131960248D01*
X206612778Y-131770000D01*
X206897504Y-131579752D01*
X207228516Y-131084358D01*
X207344752Y-130500000D01*
X207228516Y-129915642D01*
X206897504Y-129420248D01*
X206612778Y-129230000D01*
X206897504Y-129039752D01*
X207228516Y-128544358D01*
X207344752Y-127960000D01*
X207228516Y-127375642D01*
X206897504Y-126880248D01*
X206897011Y-126879919D01*
X207096846Y-126751328D01*
X207262843Y-126508385D01*
X207321242Y-126220000D01*
X207321242Y-124620000D01*
X207270549Y-124350590D01*
X207111328Y-124103154D01*
X206868385Y-123937157D01*
X206580000Y-123878758D01*
X206507000Y-123878758D01*
X206507000Y-121380000D01*
X206421212Y-120948716D01*
X206394732Y-120909086D01*
X208462576Y-118841242D01*
X209310000Y-118841242D01*
X209579410Y-118790549D01*
X209826846Y-118631328D01*
X209955433Y-118443136D01*
X210396508Y-118737853D01*
X211000000Y-118857895D01*
X211011741Y-118855559D01*
X212861182Y-120705000D01*
X209116998Y-124449184D01*
X209068716Y-124458788D01*
X208703091Y-124703091D01*
X208458788Y-125068716D01*
X208373000Y-125500000D01*
X208373000Y-129000000D01*
X208458788Y-129431284D01*
X208703091Y-129796909D01*
X210203090Y-131296909D01*
X210445360Y-131458788D01*
X210568716Y-131541212D01*
X211000000Y-131627000D01*
X211553208Y-131627000D01*
X211767222Y-131770000D01*
X211482496Y-131960248D01*
X211151484Y-132455642D01*
X211035248Y-133040000D01*
X211151484Y-133624358D01*
X211482496Y-134119752D01*
X211873000Y-134380679D01*
X211873000Y-134640000D01*
X211958788Y-135071284D01*
X212203091Y-135436909D01*
X215453091Y-138686909D01*
X215723091Y-138956910D01*
X215977648Y-139126999D01*
X216088716Y-139201212D01*
X216520000Y-139287000D01*
X218467412Y-139287000D01*
X218633894Y-139453773D01*
X219194928Y-139686735D01*
X219802407Y-139687265D01*
X220363846Y-139455283D01*
X220793773Y-139026106D01*
X221026735Y-138465072D01*
X221026943Y-138226876D01*
X221096908Y-138156911D01*
X221341211Y-137791286D01*
X221350815Y-137743003D01*
X222096910Y-136996909D01*
X222341213Y-136631284D01*
X222367942Y-136496908D01*
X222427001Y-136199999D01*
X222427001Y-121960001D01*
X222341213Y-121528717D01*
X222096910Y-121163091D01*
X214096910Y-113163092D01*
X214096908Y-113163089D01*
X214017837Y-113084018D01*
X213910764Y-112545726D01*
X213579752Y-112050332D01*
X213084358Y-111719320D01*
X212500000Y-111603084D01*
X211915642Y-111719320D01*
X211420248Y-112050332D01*
X211089236Y-112545726D01*
X210973000Y-113130084D01*
X210973000Y-113189916D01*
X211089236Y-113774274D01*
X211420248Y-114269668D01*
X211915642Y-114600680D01*
X212453934Y-114707753D01*
X212503089Y-114756908D01*
X212503092Y-114756910D01*
X219379074Y-121632893D01*
X219197593Y-121632735D01*
X218636154Y-121864717D01*
X218206227Y-122293894D01*
X217973265Y-122854928D01*
X217972735Y-123462407D01*
X218204717Y-124023846D01*
X218373000Y-124192423D01*
X218373000Y-126833000D01*
X214446792Y-126833000D01*
X214232778Y-126690000D01*
X214517504Y-126499752D01*
X214848516Y-126004358D01*
X214964752Y-125420000D01*
X214848516Y-124835642D01*
X214517504Y-124340248D01*
X214022110Y-124009236D01*
X213437752Y-123893000D01*
X212860818Y-123893000D01*
X214735981Y-122017837D01*
X215274274Y-121910764D01*
X215769668Y-121579752D01*
X216100680Y-121084358D01*
X216216916Y-120500000D01*
X216100680Y-119915642D01*
X215769668Y-119420248D01*
X215274274Y-119089236D01*
X214689916Y-118973000D01*
X214630084Y-118973000D01*
X214368792Y-119024974D01*
X212577000Y-117233182D01*
X212577000Y-117219105D01*
X212456958Y-116615613D01*
X212127000Y-116121797D01*
X212127000Y-116047919D01*
X212041212Y-115616635D01*
X211796909Y-115251010D01*
X208908990Y-112363091D01*
X208543365Y-112118788D01*
X208112081Y-112033000D01*
X207053813Y-112033000D01*
X206584358Y-111719320D01*
X206000000Y-111603084D01*
X205415642Y-111719320D01*
X204920248Y-112050332D01*
X204589236Y-112545726D01*
X204473000Y-113130084D01*
X204473000Y-113189916D01*
X204589236Y-113774274D01*
X204920248Y-114269668D01*
X205415642Y-114600680D01*
X206000000Y-114716916D01*
X206584358Y-114600680D01*
X207053813Y-114287000D01*
X207645263Y-114287000D01*
X209017021Y-115658758D01*
X207610000Y-115658758D01*
X207340590Y-115709451D01*
X207093154Y-115868672D01*
X206927157Y-116111615D01*
X206868758Y-116400000D01*
X206868758Y-117247424D01*
X205043792Y-119072390D01*
X204805072Y-118973265D01*
X204197593Y-118972735D01*
X203636154Y-119204717D01*
X203206227Y-119633894D01*
X202973265Y-120194928D01*
X202972735Y-120802407D01*
X203204717Y-121363846D01*
X203633894Y-121793773D01*
X204194928Y-122026735D01*
X204253000Y-122026786D01*
X204253000Y-123878758D01*
X204180000Y-123878758D01*
X203910590Y-123929451D01*
X203663154Y-124088672D01*
X203497157Y-124331615D01*
X203488776Y-124373000D01*
X199532588Y-124373000D01*
X199366106Y-124206227D01*
X198805072Y-123973265D01*
X198197593Y-123972735D01*
X197636154Y-124204717D01*
X197206227Y-124633894D01*
X196973265Y-125194928D01*
X196972735Y-125802407D01*
X197204717Y-126363846D01*
X197633894Y-126793773D01*
X198194928Y-127026735D01*
X198802407Y-127027265D01*
X199363846Y-126795283D01*
X199532423Y-126627000D01*
X203577988Y-126627000D01*
X203648672Y-126736846D01*
X203861258Y-126882101D01*
X203531484Y-127375642D01*
X203415248Y-127960000D01*
X203531484Y-128544358D01*
X203862496Y-129039752D01*
X204147222Y-129230000D01*
X203933208Y-129373000D01*
X200500000Y-129373000D01*
X200068716Y-129458788D01*
X199703091Y-129703091D01*
X198433241Y-130972941D01*
X198197593Y-130972735D01*
X197636154Y-131204717D01*
X197206227Y-131633894D01*
X196973265Y-132194928D01*
X196972735Y-132802407D01*
X197204717Y-133363846D01*
X197633894Y-133793773D01*
X198194928Y-134026735D01*
X198433125Y-134026943D01*
X203873000Y-139466818D01*
X203873000Y-141021106D01*
X203738423Y-141155448D01*
X203730261Y-141175105D01*
X203723049Y-141157651D01*
X203304552Y-140738423D01*
X202757480Y-140511259D01*
X202165119Y-140510742D01*
X201617651Y-140736951D01*
X201481364Y-140873000D01*
X200032588Y-140873000D01*
X199866106Y-140706227D01*
X199305072Y-140473265D01*
X198697593Y-140472735D01*
X198136154Y-140704717D01*
X197706227Y-141133894D01*
X197473265Y-141694928D01*
X197472735Y-142302407D01*
X197704717Y-142863846D01*
X198133894Y-143293773D01*
X198694928Y-143526735D01*
X199302407Y-143527265D01*
X199863846Y-143295283D01*
X200032423Y-143127000D01*
X201481106Y-143127000D01*
X201615448Y-143261577D01*
X202162520Y-143488741D01*
X202754881Y-143489258D01*
X203302349Y-143263049D01*
X203721577Y-142844552D01*
X203729739Y-142824895D01*
X203736951Y-142842349D01*
X204155448Y-143261577D01*
X204702520Y-143488741D01*
X205294881Y-143489258D01*
X205842349Y-143263049D01*
X206261577Y-142844552D01*
X206269739Y-142824895D01*
X206276951Y-142842349D01*
X206695448Y-143261577D01*
X207242520Y-143488741D01*
X207834881Y-143489258D01*
X208382349Y-143263049D01*
X208518636Y-143127000D01*
X209801044Y-143127000D01*
X210225726Y-143410764D01*
X210810084Y-143527000D01*
X210869916Y-143527000D01*
X211454274Y-143410764D01*
X211949668Y-143079752D01*
X212280680Y-142584358D01*
X212396916Y-142000000D01*
X212280680Y-141415642D01*
X211949668Y-140920248D01*
X211454274Y-140589236D01*
X210869916Y-140473000D01*
X210810084Y-140473000D01*
X210225726Y-140589236D01*
X209801044Y-140873000D01*
X208518894Y-140873000D01*
X208384552Y-140738423D01*
X207837480Y-140511259D01*
X207245119Y-140510742D01*
X206697651Y-140736951D01*
X206278423Y-141155448D01*
X206270261Y-141175105D01*
X206263049Y-141157651D01*
X206127000Y-141021364D01*
X206127000Y-139000000D01*
X206041212Y-138568716D01*
X205796909Y-138203091D01*
X200093818Y-132500000D01*
X200966818Y-131627000D01*
X203933208Y-131627000D01*
X204147222Y-131770000D01*
X203862496Y-131960248D01*
X203531484Y-132455642D01*
X203415248Y-133040000D01*
X203531484Y-133624358D01*
X203862496Y-134119752D01*
X204357890Y-134450764D01*
X204942248Y-134567000D01*
X205713182Y-134567000D01*
X213943091Y-142796910D01*
X214144197Y-142931284D01*
X214308716Y-143041212D01*
X214740000Y-143127000D01*
X218279182Y-143127000D01*
X217533182Y-143873000D01*
X175460819Y-143873000D01*
X176206819Y-143127000D01*
X181467412Y-143127000D01*
X181633894Y-143293773D01*
X182194928Y-143526735D01*
X182802407Y-143527265D01*
X183363846Y-143295283D01*
X183793773Y-142866106D01*
X184026735Y-142305072D01*
X184027001Y-142000000D01*
X187283084Y-142000000D01*
X187399320Y-142584358D01*
X187730332Y-143079752D01*
X188225726Y-143410764D01*
X188810084Y-143527000D01*
X188869916Y-143527000D01*
X189454274Y-143410764D01*
X189949668Y-143079752D01*
X190280680Y-142584358D01*
X190396916Y-142000000D01*
X190280680Y-141415642D01*
X189949668Y-140920248D01*
X189454274Y-140589236D01*
X188869916Y-140473000D01*
X188810084Y-140473000D01*
X188225726Y-140589236D01*
X187730332Y-140920248D01*
X187399320Y-141415642D01*
X187283084Y-142000000D01*
X184027001Y-142000000D01*
X184027265Y-141697593D01*
X183795283Y-141136154D01*
X183366106Y-140706227D01*
X182805072Y-140473265D01*
X182197593Y-140472735D01*
X181636154Y-140704717D01*
X181467577Y-140873000D01*
X176206819Y-140873000D01*
X168337535Y-133003717D01*
X168228516Y-132455642D01*
X167897504Y-131960248D01*
X167612778Y-131770000D01*
X167897504Y-131579752D01*
X168228516Y-131084358D01*
X168344752Y-130500000D01*
X168228516Y-129915642D01*
X167897504Y-129420248D01*
X167612778Y-129230000D01*
X167897504Y-129039752D01*
X168228516Y-128544358D01*
X168344752Y-127960000D01*
X168228516Y-127375642D01*
X167897504Y-126880248D01*
X167897011Y-126879919D01*
X168096846Y-126751328D01*
X168262843Y-126508385D01*
X168321242Y-126220000D01*
X168321242Y-124620000D01*
X168270549Y-124350590D01*
X168111328Y-124103154D01*
X167868385Y-123937157D01*
X167580000Y-123878758D01*
X167507000Y-123878758D01*
X167507000Y-121046818D01*
X169712576Y-118841242D01*
X170560000Y-118841242D01*
X170829410Y-118790549D01*
X171076846Y-118631328D01*
X171205433Y-118443136D01*
X171646508Y-118737853D01*
X172250000Y-118857895D01*
X172853492Y-118737853D01*
X173365107Y-118396002D01*
X173377804Y-118377000D01*
X173414551Y-118377000D01*
X173453091Y-118415540D01*
X173453094Y-118415542D01*
X174486552Y-119449000D01*
X174437346Y-119458788D01*
X174071721Y-119703091D01*
X169703091Y-124071721D01*
X169458788Y-124437346D01*
X169373000Y-124868630D01*
X169373000Y-129000000D01*
X169458788Y-129431284D01*
X169703091Y-129796909D01*
X171203090Y-131296909D01*
X171445360Y-131458788D01*
X171568716Y-131541212D01*
X172000000Y-131627000D01*
X172553208Y-131627000D01*
X172767222Y-131770000D01*
X172482496Y-131960248D01*
X172151484Y-132455642D01*
X172035248Y-133040000D01*
X172151484Y-133624358D01*
X172482496Y-134119752D01*
X172873000Y-134380679D01*
X172873000Y-134640000D01*
X172958788Y-135071284D01*
X173203091Y-135436909D01*
X176063091Y-138296909D01*
X176428716Y-138541212D01*
X176860000Y-138627000D01*
X179467412Y-138627000D01*
X179633894Y-138793773D01*
X180194928Y-139026735D01*
X180802407Y-139027265D01*
X181363846Y-138795283D01*
X181793773Y-138366106D01*
X182026735Y-137805072D01*
X182026943Y-137566875D01*
X183796909Y-135796909D01*
X184041212Y-135431284D01*
X184127000Y-135000000D01*
X184127000Y-133507745D01*
X192671861Y-133507745D01*
X192745995Y-133753864D01*
X193283223Y-133946965D01*
X193853454Y-133919778D01*
X194254005Y-133753864D01*
X194328139Y-133507745D01*
X193500000Y-132679605D01*
X192671861Y-133507745D01*
X184127000Y-133507745D01*
X184127000Y-132283223D01*
X192053035Y-132283223D01*
X192080222Y-132853454D01*
X192246136Y-133254005D01*
X192492255Y-133328139D01*
X193320395Y-132500000D01*
X193679605Y-132500000D01*
X194507745Y-133328139D01*
X194753864Y-133254005D01*
X194946965Y-132716777D01*
X194919778Y-132146546D01*
X194753864Y-131745995D01*
X194507745Y-131671861D01*
X193679605Y-132500000D01*
X193320395Y-132500000D01*
X192492255Y-131671861D01*
X192246136Y-131745995D01*
X192053035Y-132283223D01*
X184127000Y-132283223D01*
X184127000Y-131492255D01*
X192671861Y-131492255D01*
X193500000Y-132320395D01*
X194328139Y-131492255D01*
X194254005Y-131246136D01*
X193716777Y-131053035D01*
X193146546Y-131080222D01*
X192745995Y-131246136D01*
X192671861Y-131492255D01*
X184127000Y-131492255D01*
X184127000Y-126507745D01*
X192671861Y-126507745D01*
X192745995Y-126753864D01*
X193283223Y-126946965D01*
X193853454Y-126919778D01*
X194254005Y-126753864D01*
X194328139Y-126507745D01*
X193500000Y-125679605D01*
X192671861Y-126507745D01*
X184127000Y-126507745D01*
X184127000Y-125283223D01*
X192053035Y-125283223D01*
X192080222Y-125853454D01*
X192246136Y-126254005D01*
X192492255Y-126328139D01*
X193320395Y-125500000D01*
X193679605Y-125500000D01*
X194507745Y-126328139D01*
X194753864Y-126254005D01*
X194946965Y-125716777D01*
X194919778Y-125146546D01*
X194753864Y-124745995D01*
X194507745Y-124671861D01*
X193679605Y-125500000D01*
X193320395Y-125500000D01*
X192492255Y-124671861D01*
X192246136Y-124745995D01*
X192053035Y-125283223D01*
X184127000Y-125283223D01*
X184127000Y-124492255D01*
X192671861Y-124492255D01*
X193500000Y-125320395D01*
X194328139Y-124492255D01*
X194254005Y-124246136D01*
X193716777Y-124053035D01*
X193146546Y-124080222D01*
X192745995Y-124246136D01*
X192671861Y-124492255D01*
X184127000Y-124492255D01*
X184127000Y-121660000D01*
X184041212Y-121228716D01*
X184014533Y-121188788D01*
X183796909Y-120863090D01*
X176017837Y-113084019D01*
X175910764Y-112545726D01*
X175579752Y-112050332D01*
X175084358Y-111719320D01*
X174500000Y-111603084D01*
X173915642Y-111719320D01*
X173420248Y-112050332D01*
X173089236Y-112545726D01*
X172973000Y-113130084D01*
X172973000Y-113189916D01*
X173089236Y-113774274D01*
X173420248Y-114269668D01*
X173915642Y-114600680D01*
X174453935Y-114707753D01*
X181873000Y-122126819D01*
X181873000Y-122484243D01*
X181795283Y-122296154D01*
X181366106Y-121866227D01*
X180805072Y-121633265D01*
X180197593Y-121632735D01*
X179636154Y-121864717D01*
X179206227Y-122293894D01*
X178973265Y-122854928D01*
X178972735Y-123462407D01*
X179204717Y-124023846D01*
X179373000Y-124192423D01*
X179373000Y-126301044D01*
X179089236Y-126725726D01*
X179067898Y-126833000D01*
X175446792Y-126833000D01*
X175232778Y-126690000D01*
X175517504Y-126499752D01*
X175848516Y-126004358D01*
X175964752Y-125420000D01*
X175848516Y-124835642D01*
X175517504Y-124340248D01*
X175022110Y-124009236D01*
X174437752Y-123893000D01*
X173562248Y-123893000D01*
X172977890Y-124009236D01*
X172903519Y-124058929D01*
X175185483Y-121776965D01*
X175385726Y-121910764D01*
X175970084Y-122027000D01*
X176029916Y-122027000D01*
X176614274Y-121910764D01*
X177109668Y-121579752D01*
X177440680Y-121084358D01*
X177556916Y-120500000D01*
X177440680Y-119915642D01*
X177127000Y-119446187D01*
X177127000Y-119368630D01*
X177041212Y-118937346D01*
X176995819Y-118869410D01*
X176796910Y-118571721D01*
X175046912Y-116821724D01*
X175046910Y-116821721D01*
X174678279Y-116453091D01*
X174312654Y-116208788D01*
X173881370Y-116123000D01*
X173377804Y-116123000D01*
X173377000Y-116121797D01*
X173377000Y-116047919D01*
X173291212Y-115616635D01*
X173046909Y-115251009D01*
X169998990Y-112203091D01*
X169633365Y-111958788D01*
X169202081Y-111873000D01*
X168553813Y-111873000D01*
X168084358Y-111559320D01*
X167500000Y-111443084D01*
X166915642Y-111559320D01*
X166420248Y-111890332D01*
X166089236Y-112385726D01*
X165973000Y-112970084D01*
X165973000Y-113029916D01*
X166089236Y-113614274D01*
X166420248Y-114109668D01*
X166915642Y-114440680D01*
X167500000Y-114556916D01*
X168084358Y-114440680D01*
X168553813Y-114127000D01*
X168735263Y-114127000D01*
X170267020Y-115658758D01*
X168860000Y-115658758D01*
X168590590Y-115709451D01*
X168343154Y-115868672D01*
X168177157Y-116111615D01*
X168118758Y-116400000D01*
X168118758Y-117247424D01*
X166320198Y-119045984D01*
X166145072Y-118973265D01*
X165537593Y-118972735D01*
X164976154Y-119204717D01*
X164546227Y-119633894D01*
X164313265Y-120194928D01*
X164312735Y-120802407D01*
X164544717Y-121363846D01*
X164973894Y-121793773D01*
X165253000Y-121909668D01*
X165253000Y-123878758D01*
X165180000Y-123878758D01*
X164910590Y-123929451D01*
X164663154Y-124088672D01*
X164523542Y-124293000D01*
X161360090Y-124293000D01*
X161295283Y-124136154D01*
X160866106Y-123706227D01*
X160305072Y-123473265D01*
X159697593Y-123472735D01*
X159136154Y-123704717D01*
X158706227Y-124133894D01*
X158473265Y-124694928D01*
X158472735Y-125302407D01*
X158704717Y-125863846D01*
X159133894Y-126293773D01*
X159694928Y-126526735D01*
X160302407Y-126527265D01*
X160308379Y-126524797D01*
X160420000Y-126547000D01*
X164526509Y-126547000D01*
X164648672Y-126736846D01*
X164861258Y-126882101D01*
X164531484Y-127375642D01*
X164415248Y-127960000D01*
X164531484Y-128544358D01*
X164862496Y-129039752D01*
X165147222Y-129230000D01*
X164933208Y-129373000D01*
X161500000Y-129373000D01*
X161068716Y-129458788D01*
X160703090Y-129703091D01*
X159933241Y-130472941D01*
X159697593Y-130472735D01*
X159136154Y-130704717D01*
X158706227Y-131133894D01*
X158473265Y-131694928D01*
X158472735Y-132302407D01*
X158704717Y-132863846D01*
X159133894Y-133293773D01*
X159694928Y-133526735D01*
X159933125Y-133526943D01*
X165373000Y-138966818D01*
X165373000Y-141021106D01*
X165238423Y-141155448D01*
X165230261Y-141175105D01*
X165223049Y-141157651D01*
X164804552Y-140738423D01*
X164257480Y-140511259D01*
X163665119Y-140510742D01*
X163117651Y-140736951D01*
X162981364Y-140873000D01*
X161532588Y-140873000D01*
X161366106Y-140706227D01*
X160805072Y-140473265D01*
X160197593Y-140472735D01*
X159636154Y-140704717D01*
X159206227Y-141133894D01*
X158973265Y-141694928D01*
X158972735Y-142302407D01*
X159204717Y-142863846D01*
X159633894Y-143293773D01*
X160194928Y-143526735D01*
X160802407Y-143527265D01*
X161363846Y-143295283D01*
X161532423Y-143127000D01*
X162981106Y-143127000D01*
X163115448Y-143261577D01*
X163662520Y-143488741D01*
X164254881Y-143489258D01*
X164802349Y-143263049D01*
X165221577Y-142844552D01*
X165229739Y-142824895D01*
X165236951Y-142842349D01*
X165655448Y-143261577D01*
X166202520Y-143488741D01*
X166794881Y-143489258D01*
X167342349Y-143263049D01*
X167761577Y-142844552D01*
X167769739Y-142824895D01*
X167776951Y-142842349D01*
X168195448Y-143261577D01*
X168742520Y-143488741D01*
X169334881Y-143489258D01*
X169882349Y-143263049D01*
X170018636Y-143127000D01*
X171301044Y-143127000D01*
X171725726Y-143410764D01*
X172310084Y-143527000D01*
X172369916Y-143527000D01*
X172681075Y-143465107D01*
X172273182Y-143873000D01*
X138040819Y-143873000D01*
X138786819Y-143127000D01*
X144127412Y-143127000D01*
X144293894Y-143293773D01*
X144854928Y-143526735D01*
X145462407Y-143527265D01*
X146023846Y-143295283D01*
X146453773Y-142866106D01*
X146686735Y-142305072D01*
X146687001Y-142000000D01*
X148783084Y-142000000D01*
X148899320Y-142584358D01*
X149230332Y-143079752D01*
X149725726Y-143410764D01*
X150310084Y-143527000D01*
X150369916Y-143527000D01*
X150954274Y-143410764D01*
X151449668Y-143079752D01*
X151780680Y-142584358D01*
X151896916Y-142000000D01*
X151780680Y-141415642D01*
X151449668Y-140920248D01*
X150954274Y-140589236D01*
X150369916Y-140473000D01*
X150310084Y-140473000D01*
X149725726Y-140589236D01*
X149230332Y-140920248D01*
X148899320Y-141415642D01*
X148783084Y-142000000D01*
X146687001Y-142000000D01*
X146687265Y-141697593D01*
X146455283Y-141136154D01*
X146026106Y-140706227D01*
X145465072Y-140473265D01*
X144857593Y-140472735D01*
X144296154Y-140704717D01*
X144127577Y-140873000D01*
X138786818Y-140873000D01*
X130957535Y-133043717D01*
X130848516Y-132495642D01*
X130517504Y-132000248D01*
X130232778Y-131810000D01*
X130517504Y-131619752D01*
X130848516Y-131124358D01*
X130964752Y-130540000D01*
X130848516Y-129955642D01*
X130517504Y-129460248D01*
X130232778Y-129270000D01*
X130517504Y-129079752D01*
X130848516Y-128584358D01*
X130964752Y-128000000D01*
X130848516Y-127415642D01*
X130517504Y-126920248D01*
X130517011Y-126919919D01*
X130716846Y-126791328D01*
X130882843Y-126548385D01*
X130941242Y-126260000D01*
X130941242Y-124660000D01*
X130890549Y-124390590D01*
X130731328Y-124143154D01*
X130488385Y-123977157D01*
X130200000Y-123918758D01*
X130127000Y-123918758D01*
X130127000Y-122160000D01*
X130041212Y-121728716D01*
X130027897Y-121708788D01*
X129796910Y-121363091D01*
X129743818Y-121310000D01*
X131712576Y-119341242D01*
X132560000Y-119341242D01*
X132829410Y-119290549D01*
X133076846Y-119131328D01*
X133205433Y-118943136D01*
X133646508Y-119237853D01*
X134250000Y-119357895D01*
X134261741Y-119355559D01*
X136156182Y-121250000D01*
X132703091Y-124703091D01*
X132458788Y-125068716D01*
X132373000Y-125500000D01*
X132373000Y-129420000D01*
X132458788Y-129851284D01*
X132703091Y-130216909D01*
X133823091Y-131336909D01*
X134188716Y-131581212D01*
X134620000Y-131667000D01*
X135173208Y-131667000D01*
X135387222Y-131810000D01*
X135102496Y-132000248D01*
X134771484Y-132495642D01*
X134655248Y-133080000D01*
X134771484Y-133664358D01*
X135102496Y-134159752D01*
X135493000Y-134420679D01*
X135493000Y-134680000D01*
X135578788Y-135111284D01*
X135823091Y-135476909D01*
X138643090Y-138296909D01*
X138947038Y-138500000D01*
X139008716Y-138541212D01*
X139440000Y-138627000D01*
X141967412Y-138627000D01*
X142133894Y-138793773D01*
X142694928Y-139026735D01*
X143302407Y-139027265D01*
X143863846Y-138795283D01*
X144293773Y-138366106D01*
X144526735Y-137805072D01*
X144526943Y-137566875D01*
X145596910Y-136496908D01*
X145841213Y-136131283D01*
X145927001Y-135699999D01*
X145927001Y-133007745D01*
X154171861Y-133007745D01*
X154245995Y-133253864D01*
X154783223Y-133446965D01*
X155353454Y-133419778D01*
X155754005Y-133253864D01*
X155828139Y-133007745D01*
X155000000Y-132179605D01*
X154171861Y-133007745D01*
X145927001Y-133007745D01*
X145927001Y-131783223D01*
X153553035Y-131783223D01*
X153580222Y-132353454D01*
X153746136Y-132754005D01*
X153992255Y-132828139D01*
X154820395Y-132000000D01*
X155179605Y-132000000D01*
X156007745Y-132828139D01*
X156253864Y-132754005D01*
X156446965Y-132216777D01*
X156419778Y-131646546D01*
X156253864Y-131245995D01*
X156007745Y-131171861D01*
X155179605Y-132000000D01*
X154820395Y-132000000D01*
X153992255Y-131171861D01*
X153746136Y-131245995D01*
X153553035Y-131783223D01*
X145927001Y-131783223D01*
X145927001Y-130992255D01*
X154171861Y-130992255D01*
X155000000Y-131820395D01*
X155828139Y-130992255D01*
X155754005Y-130746136D01*
X155216777Y-130553035D01*
X154646546Y-130580222D01*
X154245995Y-130746136D01*
X154171861Y-130992255D01*
X145927001Y-130992255D01*
X145927001Y-126007745D01*
X154171861Y-126007745D01*
X154245995Y-126253864D01*
X154783223Y-126446965D01*
X155353454Y-126419778D01*
X155754005Y-126253864D01*
X155828139Y-126007745D01*
X155000000Y-125179605D01*
X154171861Y-126007745D01*
X145927001Y-126007745D01*
X145927001Y-124783223D01*
X153553035Y-124783223D01*
X153580222Y-125353454D01*
X153746136Y-125754005D01*
X153992255Y-125828139D01*
X154820395Y-125000000D01*
X155179605Y-125000000D01*
X156007745Y-125828139D01*
X156253864Y-125754005D01*
X156446965Y-125216777D01*
X156419778Y-124646546D01*
X156253864Y-124245995D01*
X156007745Y-124171861D01*
X155179605Y-125000000D01*
X154820395Y-125000000D01*
X153992255Y-124171861D01*
X153746136Y-124245995D01*
X153553035Y-124783223D01*
X145927001Y-124783223D01*
X145927001Y-123992255D01*
X154171861Y-123992255D01*
X155000000Y-124820395D01*
X155828139Y-123992255D01*
X155754005Y-123746136D01*
X155216777Y-123553035D01*
X154646546Y-123580222D01*
X154245995Y-123746136D01*
X154171861Y-123992255D01*
X145927001Y-123992255D01*
X145927001Y-120960001D01*
X145841213Y-120528717D01*
X145765659Y-120415642D01*
X145596911Y-120163092D01*
X138096910Y-112663092D01*
X138096908Y-112663089D01*
X138017837Y-112584018D01*
X137910764Y-112045726D01*
X137579752Y-111550332D01*
X137084358Y-111219320D01*
X136500000Y-111103084D01*
X135915642Y-111219320D01*
X135420248Y-111550332D01*
X135089236Y-112045726D01*
X134973000Y-112630084D01*
X134973000Y-112689916D01*
X135089236Y-113274274D01*
X135420248Y-113769668D01*
X135915642Y-114100680D01*
X136453934Y-114207753D01*
X136503089Y-114256908D01*
X136503092Y-114256910D01*
X143432259Y-121186078D01*
X143305072Y-121133265D01*
X142697593Y-121132735D01*
X142136154Y-121364717D01*
X141706227Y-121793894D01*
X141473265Y-122354928D01*
X141472735Y-122962407D01*
X141704717Y-123523846D01*
X141873000Y-123692423D01*
X141873000Y-126301044D01*
X141589236Y-126725726D01*
X141559941Y-126873000D01*
X138066792Y-126873000D01*
X137852778Y-126730000D01*
X138137504Y-126539752D01*
X138468516Y-126044358D01*
X138584752Y-125460000D01*
X138468516Y-124875642D01*
X138137504Y-124380248D01*
X137642110Y-124049236D01*
X137057752Y-123933000D01*
X136660818Y-123933000D01*
X138075981Y-122517837D01*
X138614274Y-122410764D01*
X139109668Y-122079752D01*
X139440680Y-121584358D01*
X139556916Y-121000000D01*
X139440680Y-120415642D01*
X139109668Y-119920248D01*
X138614274Y-119589236D01*
X138029916Y-119473000D01*
X137970084Y-119473000D01*
X137633724Y-119539906D01*
X135827000Y-117733182D01*
X135827000Y-117719105D01*
X135706958Y-117115613D01*
X135377000Y-116621797D01*
X135377000Y-116547919D01*
X135291212Y-116116635D01*
X135282768Y-116103998D01*
X135046910Y-115751010D01*
X131798989Y-112503090D01*
X131433364Y-112258787D01*
X131002080Y-112172999D01*
X130967906Y-112172999D01*
X130910764Y-111885726D01*
X130579752Y-111390332D01*
X130084358Y-111059320D01*
X129500000Y-110943084D01*
X128915642Y-111059320D01*
X128420248Y-111390332D01*
X128089236Y-111885726D01*
X127973000Y-112470084D01*
X127973000Y-112529916D01*
X128089236Y-113114274D01*
X128420248Y-113609668D01*
X128915642Y-113940680D01*
X129453934Y-114047753D01*
X129503089Y-114096908D01*
X129868714Y-114341211D01*
X129940269Y-114355444D01*
X130299999Y-114426999D01*
X130535262Y-114426999D01*
X132267020Y-116158758D01*
X130860000Y-116158758D01*
X130590590Y-116209451D01*
X130343154Y-116368672D01*
X130177157Y-116611615D01*
X130118758Y-116900000D01*
X130118758Y-117747424D01*
X128320198Y-119545984D01*
X128145072Y-119473265D01*
X127537593Y-119472735D01*
X126976154Y-119704717D01*
X126546227Y-120133894D01*
X126313265Y-120694928D01*
X126312735Y-121302407D01*
X126544717Y-121863846D01*
X126973894Y-122293773D01*
X127534928Y-122526735D01*
X127773124Y-122526943D01*
X127873000Y-122626819D01*
X127873000Y-123918758D01*
X127800000Y-123918758D01*
X127530590Y-123969451D01*
X127283154Y-124128672D01*
X127143542Y-124333000D01*
X124376618Y-124333000D01*
X124295283Y-124136154D01*
X123866106Y-123706227D01*
X123305072Y-123473265D01*
X122697593Y-123472735D01*
X122136154Y-123704717D01*
X121706227Y-124133894D01*
X121473265Y-124694928D01*
X121472735Y-125302407D01*
X121704717Y-125863846D01*
X122133894Y-126293773D01*
X122694928Y-126526735D01*
X123159064Y-126527140D01*
X123460000Y-126587000D01*
X127146509Y-126587000D01*
X127268672Y-126776846D01*
X127481258Y-126922101D01*
X127151484Y-127415642D01*
X127035248Y-128000000D01*
X127151484Y-128584358D01*
X127482496Y-129079752D01*
X127767222Y-129270000D01*
X127553208Y-129413000D01*
X124460000Y-129413000D01*
X124028716Y-129498788D01*
X123663091Y-129743091D01*
X122933241Y-130472941D01*
X122697593Y-130472735D01*
X122136154Y-130704717D01*
X121706227Y-131133894D01*
X121473265Y-131694928D01*
X121472735Y-132302407D01*
X121704717Y-132863846D01*
X122133894Y-133293773D01*
X122694928Y-133526735D01*
X122933125Y-133526943D01*
X127873000Y-138466819D01*
X127873000Y-141021106D01*
X127738423Y-141155448D01*
X127730261Y-141175105D01*
X127723049Y-141157651D01*
X127304552Y-140738423D01*
X126757480Y-140511259D01*
X126165119Y-140510742D01*
X125617651Y-140736951D01*
X125481364Y-140873000D01*
X124192588Y-140873000D01*
X124026106Y-140706227D01*
X123465072Y-140473265D01*
X122857593Y-140472735D01*
X122296154Y-140704717D01*
X121866227Y-141133894D01*
X121633265Y-141694928D01*
X121632735Y-142302407D01*
X121864717Y-142863846D01*
X122293894Y-143293773D01*
X122854928Y-143526735D01*
X123462407Y-143527265D01*
X124023846Y-143295283D01*
X124192423Y-143127000D01*
X125481106Y-143127000D01*
X125615448Y-143261577D01*
X126162520Y-143488741D01*
X126754881Y-143489258D01*
X127302349Y-143263049D01*
X127721577Y-142844552D01*
X127729739Y-142824895D01*
X127736951Y-142842349D01*
X128155448Y-143261577D01*
X128702520Y-143488741D01*
X129294881Y-143489258D01*
X129842349Y-143263049D01*
X130261577Y-142844552D01*
X130269739Y-142824895D01*
X130276951Y-142842349D01*
X130695448Y-143261577D01*
X131242520Y-143488741D01*
X131834881Y-143489258D01*
X132382349Y-143263049D01*
X132518636Y-143127000D01*
X133961044Y-143127000D01*
X134385726Y-143410764D01*
X134970084Y-143527000D01*
X135029916Y-143527000D01*
X135241211Y-143484971D01*
X134853182Y-143873000D01*
X118966818Y-143873000D01*
X117127000Y-142033182D01*
X117127000Y-133052608D01*
X117171861Y-133007747D01*
X117245995Y-133253864D01*
X117783223Y-133446965D01*
X118353454Y-133419778D01*
X118754005Y-133253864D01*
X118828139Y-133007745D01*
X118000000Y-132179605D01*
X117985858Y-132193748D01*
X117806252Y-132014142D01*
X117820395Y-132000000D01*
X118179605Y-132000000D01*
X119007745Y-132828139D01*
X119253864Y-132754005D01*
X119446965Y-132216777D01*
X119419778Y-131646546D01*
X119253864Y-131245995D01*
X119007745Y-131171861D01*
X118179605Y-132000000D01*
X117820395Y-132000000D01*
X117806252Y-131985858D01*
X117985858Y-131806252D01*
X118000000Y-131820395D01*
X118828139Y-130992255D01*
X118754005Y-130746136D01*
X118216777Y-130553035D01*
X117646546Y-130580222D01*
X117245995Y-130746136D01*
X117171861Y-130992253D01*
X117127000Y-130947392D01*
X117127000Y-126052608D01*
X117171861Y-126007747D01*
X117245995Y-126253864D01*
X117783223Y-126446965D01*
X118353454Y-126419778D01*
X118754005Y-126253864D01*
X118828139Y-126007745D01*
X118000000Y-125179605D01*
X117985858Y-125193748D01*
X117806252Y-125014142D01*
X117820395Y-125000000D01*
X118179605Y-125000000D01*
X119007745Y-125828139D01*
X119253864Y-125754005D01*
X119446965Y-125216777D01*
X119419778Y-124646546D01*
X119253864Y-124245995D01*
X119007745Y-124171861D01*
X118179605Y-125000000D01*
X117820395Y-125000000D01*
X117806252Y-124985858D01*
X117985858Y-124806252D01*
X118000000Y-124820395D01*
X118828139Y-123992255D01*
X118754005Y-123746136D01*
X118216777Y-123553035D01*
X117646546Y-123580222D01*
X117245995Y-123746136D01*
X117171861Y-123992253D01*
X117127000Y-123947392D01*
X117127000Y-105007745D01*
X142171861Y-105007745D01*
X142245995Y-105253864D01*
X142783223Y-105446965D01*
X143353454Y-105419778D01*
X143754005Y-105253864D01*
X143828139Y-105007745D01*
X143000000Y-104179605D01*
X142171861Y-105007745D01*
X117127000Y-105007745D01*
X117127000Y-99802407D01*
X127972735Y-99802407D01*
X128204717Y-100363846D01*
X128373000Y-100532423D01*
X128373000Y-101307412D01*
X128206227Y-101473894D01*
X127973265Y-102034928D01*
X127972735Y-102642407D01*
X128204717Y-103203846D01*
X128633894Y-103633773D01*
X129194928Y-103866735D01*
X129802407Y-103867265D01*
X130363846Y-103635283D01*
X130793773Y-103206106D01*
X131026735Y-102645072D01*
X131027265Y-102037593D01*
X130795283Y-101476154D01*
X130627000Y-101307577D01*
X130627000Y-100532588D01*
X130793773Y-100366106D01*
X131026735Y-99805072D01*
X131026737Y-99802407D01*
X134972735Y-99802407D01*
X135204717Y-100363846D01*
X135373000Y-100532423D01*
X135373000Y-101467412D01*
X135206227Y-101633894D01*
X134973265Y-102194928D01*
X134972735Y-102802407D01*
X135204717Y-103363846D01*
X135633894Y-103793773D01*
X136194928Y-104026735D01*
X136802407Y-104027265D01*
X137363846Y-103795283D01*
X137375927Y-103783223D01*
X141553035Y-103783223D01*
X141580222Y-104353454D01*
X141746136Y-104754005D01*
X141992255Y-104828139D01*
X142820395Y-104000000D01*
X143179605Y-104000000D01*
X144007745Y-104828139D01*
X144253864Y-104754005D01*
X144446965Y-104216777D01*
X144419778Y-103646546D01*
X144253864Y-103245995D01*
X144007745Y-103171861D01*
X143179605Y-104000000D01*
X142820395Y-104000000D01*
X141992255Y-103171861D01*
X141746136Y-103245995D01*
X141553035Y-103783223D01*
X137375927Y-103783223D01*
X137793773Y-103366106D01*
X137949009Y-102992255D01*
X142171861Y-102992255D01*
X143000000Y-103820395D01*
X143828139Y-102992255D01*
X143754005Y-102746136D01*
X143216777Y-102553035D01*
X142646546Y-102580222D01*
X142245995Y-102746136D01*
X142171861Y-102992255D01*
X137949009Y-102992255D01*
X138026735Y-102805072D01*
X138027265Y-102197593D01*
X137795283Y-101636154D01*
X137627000Y-101467577D01*
X137627000Y-100532588D01*
X137793773Y-100366106D01*
X138026735Y-99805072D01*
X138027265Y-99197593D01*
X137795283Y-98636154D01*
X137366106Y-98206227D01*
X136805072Y-97973265D01*
X136197593Y-97972735D01*
X135636154Y-98204717D01*
X135206227Y-98633894D01*
X134973265Y-99194928D01*
X134972735Y-99802407D01*
X131026737Y-99802407D01*
X131027265Y-99197593D01*
X130795283Y-98636154D01*
X130366106Y-98206227D01*
X129805072Y-97973265D01*
X129197593Y-97972735D01*
X128636154Y-98204717D01*
X128206227Y-98633894D01*
X127973265Y-99194928D01*
X127972735Y-99802407D01*
X117127000Y-99802407D01*
X117127000Y-94802407D01*
X127972735Y-94802407D01*
X128204717Y-95363846D01*
X128633894Y-95793773D01*
X129194928Y-96026735D01*
X129802407Y-96027265D01*
X130363846Y-95795283D01*
X130793773Y-95366106D01*
X131026735Y-94805072D01*
X131027265Y-94197593D01*
X130795283Y-93636154D01*
X130627000Y-93467577D01*
X130627000Y-93466818D01*
X131836576Y-92257242D01*
X133016000Y-92257242D01*
X133285410Y-92206549D01*
X133532846Y-92047328D01*
X133599207Y-91950207D01*
X133838836Y-92110322D01*
X134505853Y-92243000D01*
X134574147Y-92243000D01*
X134670096Y-92223915D01*
X135373000Y-92926819D01*
X135373000Y-93467412D01*
X135206227Y-93633894D01*
X134973265Y-94194928D01*
X134972735Y-94802407D01*
X135204717Y-95363846D01*
X135633894Y-95793773D01*
X136194928Y-96026735D01*
X136802407Y-96027265D01*
X137363846Y-95795283D01*
X137793773Y-95366106D01*
X138026735Y-94805072D01*
X138027265Y-94197593D01*
X137795283Y-93636154D01*
X137627000Y-93467577D01*
X137627000Y-92460000D01*
X137541212Y-92028716D01*
X137391319Y-91804385D01*
X137296910Y-91663091D01*
X136286731Y-90652912D01*
X136317147Y-90500000D01*
X136184469Y-89832983D01*
X135806634Y-89267513D01*
X135241164Y-88889678D01*
X134574147Y-88757000D01*
X134505853Y-88757000D01*
X133838836Y-88889678D01*
X133600115Y-89049187D01*
X133547328Y-88967154D01*
X133304385Y-88801157D01*
X133016000Y-88742758D01*
X130984000Y-88742758D01*
X130714590Y-88793451D01*
X130467154Y-88952672D01*
X130301157Y-89195615D01*
X130242758Y-89484000D01*
X130242758Y-90663424D01*
X128703091Y-92203091D01*
X128458788Y-92568716D01*
X128373000Y-93000000D01*
X128373000Y-93467412D01*
X128206227Y-93633894D01*
X127973265Y-94194928D01*
X127972735Y-94802407D01*
X117127000Y-94802407D01*
X117127000Y-80635000D01*
X125500000Y-80635000D01*
X125730795Y-80591573D01*
X125942767Y-80455173D01*
X126084971Y-80247051D01*
X126135000Y-80000000D01*
X126135000Y-70635000D01*
X126196842Y-70635000D01*
X126246136Y-70754005D01*
X126492255Y-70828139D01*
X126685394Y-70635000D01*
X127044606Y-70635000D01*
X126671861Y-71007745D01*
X126745995Y-71253864D01*
X127283223Y-71446965D01*
X127853454Y-71419778D01*
X128254005Y-71253864D01*
X128328139Y-71007745D01*
X127955394Y-70635000D01*
X128314606Y-70635000D01*
X128507745Y-70828139D01*
X128753864Y-70754005D01*
X128796639Y-70635000D01*
X150000000Y-70635000D01*
X150230795Y-70591573D01*
X150442767Y-70455173D01*
X150584971Y-70247051D01*
X150635000Y-70000000D01*
X150635000Y-68327000D01*
X190148338Y-68327000D01*
X191493000Y-69671662D01*
X191493000Y-73997515D01*
X191124552Y-73628423D01*
X190577480Y-73401259D01*
X189985119Y-73400742D01*
X189437651Y-73626951D01*
X189018423Y-74045448D01*
X188791259Y-74592520D01*
X188790742Y-75184881D01*
X188931277Y-75525001D01*
X168673480Y-75525001D01*
X168402000Y-75471000D01*
X167970716Y-75556788D01*
X167605091Y-75801091D01*
X154203091Y-89203091D01*
X153958788Y-89568716D01*
X153873000Y-90000000D01*
X153873000Y-96533181D01*
X143003092Y-107403090D01*
X143003089Y-107403092D01*
X142933240Y-107472941D01*
X142697593Y-107472735D01*
X142136154Y-107704717D01*
X141706227Y-108133894D01*
X141473265Y-108694928D01*
X141472735Y-109302407D01*
X141704717Y-109863846D01*
X141873000Y-110032423D01*
X141873000Y-111461044D01*
X141589236Y-111885726D01*
X141473000Y-112470084D01*
X141473000Y-112529916D01*
X141589236Y-113114274D01*
X141920248Y-113609668D01*
X142415642Y-113940680D01*
X143000000Y-114056916D01*
X143584358Y-113940680D01*
X144079752Y-113609668D01*
X144410764Y-113114274D01*
X144527000Y-112529916D01*
X144527000Y-112470084D01*
X144410764Y-111885726D01*
X144127000Y-111461044D01*
X144127000Y-110032588D01*
X144293773Y-109866106D01*
X144526735Y-109305072D01*
X144526943Y-109066876D01*
X144596908Y-108996911D01*
X144596910Y-108996908D01*
X148086073Y-105507745D01*
X179671861Y-105507745D01*
X179745995Y-105753864D01*
X180283223Y-105946965D01*
X180853454Y-105919778D01*
X181254005Y-105753864D01*
X181328139Y-105507745D01*
X180500000Y-104679605D01*
X179671861Y-105507745D01*
X148086073Y-105507745D01*
X153291411Y-100302407D01*
X165972735Y-100302407D01*
X166204717Y-100863846D01*
X166373000Y-101032423D01*
X166373000Y-101807412D01*
X166206227Y-101973894D01*
X165973265Y-102534928D01*
X165972735Y-103142407D01*
X166204717Y-103703846D01*
X166633894Y-104133773D01*
X167194928Y-104366735D01*
X167802407Y-104367265D01*
X168363846Y-104135283D01*
X168793773Y-103706106D01*
X169026735Y-103145072D01*
X169027265Y-102537593D01*
X168795283Y-101976154D01*
X168627000Y-101807577D01*
X168627000Y-101032588D01*
X168793773Y-100866106D01*
X169026735Y-100305072D01*
X169026737Y-100302407D01*
X172972735Y-100302407D01*
X173204717Y-100863846D01*
X173373000Y-101032423D01*
X173373000Y-101967412D01*
X173206227Y-102133894D01*
X172973265Y-102694928D01*
X172972735Y-103302407D01*
X173204717Y-103863846D01*
X173633894Y-104293773D01*
X174194928Y-104526735D01*
X174802407Y-104527265D01*
X175363846Y-104295283D01*
X175375927Y-104283223D01*
X179053035Y-104283223D01*
X179080222Y-104853454D01*
X179246136Y-105254005D01*
X179492255Y-105328139D01*
X180320395Y-104500000D01*
X180679605Y-104500000D01*
X181507745Y-105328139D01*
X181753864Y-105254005D01*
X181946965Y-104716777D01*
X181919778Y-104146546D01*
X181753864Y-103745995D01*
X181507745Y-103671861D01*
X180679605Y-104500000D01*
X180320395Y-104500000D01*
X179492255Y-103671861D01*
X179246136Y-103745995D01*
X179053035Y-104283223D01*
X175375927Y-104283223D01*
X175793773Y-103866106D01*
X175949009Y-103492255D01*
X179671861Y-103492255D01*
X180500000Y-104320395D01*
X181328139Y-103492255D01*
X181254005Y-103246136D01*
X180716777Y-103053035D01*
X180146546Y-103080222D01*
X179745995Y-103246136D01*
X179671861Y-103492255D01*
X175949009Y-103492255D01*
X176026735Y-103305072D01*
X176027265Y-102697593D01*
X175795283Y-102136154D01*
X175627000Y-101967577D01*
X175627000Y-101032588D01*
X175793773Y-100866106D01*
X176026735Y-100305072D01*
X176027265Y-99697593D01*
X175795283Y-99136154D01*
X175366106Y-98706227D01*
X174805072Y-98473265D01*
X174197593Y-98472735D01*
X173636154Y-98704717D01*
X173206227Y-99133894D01*
X172973265Y-99694928D01*
X172972735Y-100302407D01*
X169026737Y-100302407D01*
X169027265Y-99697593D01*
X168795283Y-99136154D01*
X168366106Y-98706227D01*
X167805072Y-98473265D01*
X167197593Y-98472735D01*
X166636154Y-98704717D01*
X166206227Y-99133894D01*
X165973265Y-99694928D01*
X165972735Y-100302407D01*
X153291411Y-100302407D01*
X155796909Y-97796910D01*
X156041212Y-97431284D01*
X156127000Y-97000000D01*
X156127000Y-95302407D01*
X165972735Y-95302407D01*
X166204717Y-95863846D01*
X166633894Y-96293773D01*
X167194928Y-96526735D01*
X167802407Y-96527265D01*
X168363846Y-96295283D01*
X168793773Y-95866106D01*
X169026735Y-95305072D01*
X169027265Y-94697593D01*
X168795283Y-94136154D01*
X168627000Y-93967577D01*
X168627000Y-93466818D01*
X169336576Y-92757242D01*
X170516000Y-92757242D01*
X170785410Y-92706549D01*
X171032846Y-92547328D01*
X171099207Y-92450207D01*
X171338836Y-92610322D01*
X172005853Y-92743000D01*
X172074147Y-92743000D01*
X172170096Y-92723915D01*
X173373000Y-93926819D01*
X173373000Y-93967412D01*
X173206227Y-94133894D01*
X172973265Y-94694928D01*
X172972735Y-95302407D01*
X173204717Y-95863846D01*
X173633894Y-96293773D01*
X174194928Y-96526735D01*
X174802407Y-96527265D01*
X175363846Y-96295283D01*
X175793773Y-95866106D01*
X176026735Y-95305072D01*
X176027265Y-94697593D01*
X175795283Y-94136154D01*
X175627000Y-93967577D01*
X175627000Y-93460000D01*
X175541212Y-93028716D01*
X175476110Y-92931284D01*
X175296909Y-92663090D01*
X173786731Y-91152912D01*
X173817147Y-91000000D01*
X173684469Y-90332983D01*
X173306634Y-89767513D01*
X172741164Y-89389678D01*
X172074147Y-89257000D01*
X172005853Y-89257000D01*
X171338836Y-89389678D01*
X171100115Y-89549187D01*
X171047328Y-89467154D01*
X170804385Y-89301157D01*
X170516000Y-89242758D01*
X168484000Y-89242758D01*
X168214590Y-89293451D01*
X167967154Y-89452672D01*
X167801157Y-89695615D01*
X167742758Y-89984000D01*
X167742758Y-91163424D01*
X166703091Y-92203091D01*
X166458788Y-92568716D01*
X166373000Y-93000000D01*
X166373000Y-93967412D01*
X166206227Y-94133894D01*
X165973265Y-94694928D01*
X165972735Y-95302407D01*
X156127000Y-95302407D01*
X156127000Y-90466818D01*
X168814817Y-77779001D01*
X206117181Y-77779001D01*
X194693091Y-89203091D01*
X194448788Y-89568716D01*
X194363000Y-90000000D01*
X194363000Y-94043181D01*
X180433241Y-107972941D01*
X180197593Y-107972735D01*
X179636154Y-108204717D01*
X179206227Y-108633894D01*
X178973265Y-109194928D01*
X178972735Y-109802407D01*
X179204717Y-110363846D01*
X179373000Y-110532423D01*
X179373000Y-111961044D01*
X179089236Y-112385726D01*
X178973000Y-112970084D01*
X178973000Y-113029916D01*
X179089236Y-113614274D01*
X179420248Y-114109668D01*
X179915642Y-114440680D01*
X180500000Y-114556916D01*
X181084358Y-114440680D01*
X181579752Y-114109668D01*
X181910764Y-113614274D01*
X182027000Y-113029916D01*
X182027000Y-112970084D01*
X181910764Y-112385726D01*
X181627000Y-111961044D01*
X181627000Y-110532588D01*
X181793773Y-110366106D01*
X182026735Y-109805072D01*
X182026943Y-109566875D01*
X191291411Y-100302407D01*
X204472735Y-100302407D01*
X204704717Y-100863846D01*
X204873000Y-101032423D01*
X204873000Y-101967412D01*
X204706227Y-102133894D01*
X204473265Y-102694928D01*
X204472735Y-103302407D01*
X204704717Y-103863846D01*
X205133894Y-104293773D01*
X205694928Y-104526735D01*
X206302407Y-104527265D01*
X206863846Y-104295283D01*
X207293773Y-103866106D01*
X207526735Y-103305072D01*
X207527265Y-102697593D01*
X207295283Y-102136154D01*
X207127000Y-101967577D01*
X207127000Y-101032588D01*
X207293773Y-100866106D01*
X207526735Y-100305072D01*
X207526737Y-100302407D01*
X210972735Y-100302407D01*
X211204717Y-100863846D01*
X211373000Y-101032423D01*
X211373000Y-101967412D01*
X211206227Y-102133894D01*
X210973265Y-102694928D01*
X210972735Y-103302407D01*
X211204717Y-103863846D01*
X211633894Y-104293773D01*
X212194928Y-104526735D01*
X212802407Y-104527265D01*
X213363846Y-104295283D01*
X213793773Y-103866106D01*
X213828189Y-103783223D01*
X218053035Y-103783223D01*
X218080222Y-104353454D01*
X218246136Y-104754005D01*
X218492255Y-104828139D01*
X219320395Y-104000000D01*
X218492255Y-103171861D01*
X218246136Y-103245995D01*
X218053035Y-103783223D01*
X213828189Y-103783223D01*
X214026735Y-103305072D01*
X214027265Y-102697593D01*
X213795283Y-102136154D01*
X213627000Y-101967577D01*
X213627000Y-101032588D01*
X213793773Y-100866106D01*
X214026735Y-100305072D01*
X214027265Y-99697593D01*
X213795283Y-99136154D01*
X213366106Y-98706227D01*
X212805072Y-98473265D01*
X212197593Y-98472735D01*
X211636154Y-98704717D01*
X211206227Y-99133894D01*
X210973265Y-99694928D01*
X210972735Y-100302407D01*
X207526737Y-100302407D01*
X207527265Y-99697593D01*
X207295283Y-99136154D01*
X206866106Y-98706227D01*
X206305072Y-98473265D01*
X205697593Y-98472735D01*
X205136154Y-98704717D01*
X204706227Y-99133894D01*
X204473265Y-99694928D01*
X204472735Y-100302407D01*
X191291411Y-100302407D01*
X196286909Y-95306910D01*
X196289917Y-95302407D01*
X204472735Y-95302407D01*
X204704717Y-95863846D01*
X205133894Y-96293773D01*
X205694928Y-96526735D01*
X206302407Y-96527265D01*
X206863846Y-96295283D01*
X207293773Y-95866106D01*
X207526735Y-95305072D01*
X207527265Y-94697593D01*
X207295283Y-94136154D01*
X207127000Y-93967577D01*
X207127000Y-92926818D01*
X207796577Y-92257242D01*
X208976000Y-92257242D01*
X209245410Y-92206549D01*
X209492846Y-92047328D01*
X209559207Y-91950207D01*
X209798836Y-92110322D01*
X210465853Y-92243000D01*
X210534147Y-92243000D01*
X210630096Y-92223914D01*
X211373000Y-92966818D01*
X211373000Y-93967412D01*
X211206227Y-94133894D01*
X210973265Y-94694928D01*
X210972735Y-95302407D01*
X211204717Y-95863846D01*
X211633894Y-96293773D01*
X212194928Y-96526735D01*
X212802407Y-96527265D01*
X213363846Y-96295283D01*
X213793773Y-95866106D01*
X214026735Y-95305072D01*
X214027265Y-94697593D01*
X213795283Y-94136154D01*
X213627000Y-93967577D01*
X213627000Y-92500000D01*
X213541212Y-92068716D01*
X213296909Y-91703091D01*
X212246731Y-90652913D01*
X212277147Y-90500000D01*
X212144469Y-89832983D01*
X211766634Y-89267513D01*
X211201164Y-88889678D01*
X210534147Y-88757000D01*
X210465853Y-88757000D01*
X209798836Y-88889678D01*
X209560115Y-89049187D01*
X209507328Y-88967154D01*
X209264385Y-88801157D01*
X208976000Y-88742758D01*
X206944000Y-88742758D01*
X206674590Y-88793451D01*
X206427154Y-88952672D01*
X206261157Y-89195615D01*
X206202758Y-89484000D01*
X206202758Y-90663423D01*
X205203091Y-91663091D01*
X204958788Y-92028716D01*
X204873000Y-92460000D01*
X204873000Y-93967412D01*
X204706227Y-94133894D01*
X204473265Y-94694928D01*
X204472735Y-95302407D01*
X196289917Y-95302407D01*
X196531212Y-94941284D01*
X196580215Y-94694928D01*
X196617000Y-94510000D01*
X196617000Y-90466818D01*
X210704726Y-76379092D01*
X210894881Y-76379258D01*
X211442349Y-76153049D01*
X211861577Y-75734552D01*
X211869739Y-75714895D01*
X211876951Y-75732349D01*
X212013000Y-75868636D01*
X212013000Y-75967630D01*
X212098788Y-76398914D01*
X212343091Y-76764539D01*
X220173001Y-84594449D01*
X220173001Y-102717020D01*
X219716777Y-102553035D01*
X219146546Y-102580222D01*
X218745995Y-102746136D01*
X218671861Y-102992255D01*
X219500000Y-103820395D01*
X219514142Y-103806252D01*
X219693748Y-103985858D01*
X219679605Y-104000000D01*
X219693748Y-104014142D01*
X219514142Y-104193748D01*
X219500000Y-104179605D01*
X218671861Y-105007745D01*
X218745995Y-105253864D01*
X219283223Y-105446965D01*
X219853454Y-105419778D01*
X220173001Y-105287417D01*
X220173001Y-106733181D01*
X219433241Y-107472941D01*
X219197593Y-107472735D01*
X218636154Y-107704717D01*
X218206227Y-108133894D01*
X217973265Y-108694928D01*
X217972735Y-109302407D01*
X218204717Y-109863846D01*
X218373000Y-110032423D01*
X218373000Y-111961044D01*
X218089236Y-112385726D01*
X217973000Y-112970084D01*
X217973000Y-113029916D01*
X218089236Y-113614274D01*
X218420248Y-114109668D01*
X218915642Y-114440680D01*
X219500000Y-114556916D01*
X220084358Y-114440680D01*
X220579752Y-114109668D01*
X220910764Y-113614274D01*
X221027000Y-113029916D01*
X221027000Y-112970084D01*
X220910764Y-112385726D01*
X220627000Y-111961044D01*
X220627000Y-110032588D01*
X220793773Y-109866106D01*
X221026735Y-109305072D01*
X221026943Y-109066875D01*
X222096910Y-107996908D01*
X222341213Y-107631283D01*
X222427001Y-107199999D01*
X222427001Y-84127631D01*
X222341213Y-83696347D01*
X222096910Y-83330722D01*
X214976218Y-76210030D01*
X215382520Y-76378741D01*
X215974881Y-76379258D01*
X216522349Y-76153049D01*
X216941577Y-75734552D01*
X216949739Y-75714895D01*
X216956951Y-75732349D01*
X217375448Y-76151577D01*
X217922520Y-76378741D01*
X218514881Y-76379258D01*
X219062349Y-76153049D01*
X219481577Y-75734552D01*
X219489739Y-75714895D01*
X219496951Y-75732349D01*
X219915448Y-76151577D01*
X220462520Y-76378741D01*
X221054881Y-76379258D01*
X221602349Y-76153049D01*
X222021577Y-75734552D01*
X222029739Y-75714895D01*
X222036951Y-75732349D01*
X222455448Y-76151577D01*
X223002520Y-76378741D01*
X223594881Y-76379258D01*
X224142349Y-76153049D01*
X224561577Y-75734552D01*
X224569739Y-75714895D01*
X224576951Y-75732349D01*
X224995448Y-76151577D01*
X225542520Y-76378741D01*
X226134881Y-76379258D01*
X226682349Y-76153049D01*
X227101577Y-75734552D01*
X227109739Y-75714895D01*
X227116951Y-75732349D01*
X227535448Y-76151577D01*
X228082520Y-76378741D01*
X228674881Y-76379258D01*
X229222349Y-76153049D01*
X229641577Y-75734552D01*
X229868741Y-75187480D01*
X229869258Y-74595119D01*
X229643049Y-74047651D01*
X229224552Y-73628423D01*
X228677480Y-73401259D01*
X228085119Y-73400742D01*
X227537651Y-73626951D01*
X227118423Y-74045448D01*
X227110261Y-74065105D01*
X227103049Y-74047651D01*
X226684552Y-73628423D01*
X226137480Y-73401259D01*
X225545119Y-73400742D01*
X224997651Y-73626951D01*
X224578423Y-74045448D01*
X224570261Y-74065105D01*
X224563049Y-74047651D01*
X224144552Y-73628423D01*
X223597480Y-73401259D01*
X223005119Y-73400742D01*
X222457651Y-73626951D01*
X222038423Y-74045448D01*
X222030261Y-74065105D01*
X222023049Y-74047651D01*
X221604552Y-73628423D01*
X221057480Y-73401259D01*
X220465119Y-73400742D01*
X219917651Y-73626951D01*
X219498423Y-74045448D01*
X219490261Y-74065105D01*
X219483049Y-74047651D01*
X219064552Y-73628423D01*
X218517480Y-73401259D01*
X217925119Y-73400742D01*
X217377651Y-73626951D01*
X216958423Y-74045448D01*
X216950261Y-74065105D01*
X216943049Y-74047651D01*
X216524552Y-73628423D01*
X215977480Y-73401259D01*
X215385119Y-73400742D01*
X214837651Y-73626951D01*
X214418423Y-74045448D01*
X214410261Y-74065105D01*
X214403049Y-74047651D01*
X213984552Y-73628423D01*
X213437480Y-73401259D01*
X212845119Y-73400742D01*
X212297651Y-73626951D01*
X211878423Y-74045448D01*
X211870261Y-74065105D01*
X211863049Y-74047651D01*
X211444552Y-73628423D01*
X210897480Y-73401259D01*
X210305119Y-73400742D01*
X209757651Y-73626951D01*
X209338423Y-74045448D01*
X209330261Y-74065105D01*
X209323049Y-74047651D01*
X208904552Y-73628423D01*
X208357480Y-73401259D01*
X207765119Y-73400742D01*
X207217651Y-73626951D01*
X206798423Y-74045448D01*
X206790261Y-74065105D01*
X206783049Y-74047651D01*
X206364552Y-73628423D01*
X205817480Y-73401259D01*
X205225119Y-73400742D01*
X204677651Y-73626951D01*
X204258423Y-74045448D01*
X204250261Y-74065105D01*
X204243049Y-74047651D01*
X203824552Y-73628423D01*
X203277480Y-73401259D01*
X202685119Y-73400742D01*
X202137651Y-73626951D01*
X201718423Y-74045448D01*
X201710261Y-74065105D01*
X201703049Y-74047651D01*
X201284552Y-73628423D01*
X200737480Y-73401259D01*
X200145119Y-73400742D01*
X199597651Y-73626951D01*
X199178423Y-74045448D01*
X199126859Y-74169629D01*
X199122397Y-74158857D01*
X198880213Y-74089392D01*
X198079605Y-74890000D01*
X198093748Y-74904143D01*
X197914143Y-75083748D01*
X197900000Y-75069605D01*
X197885858Y-75083748D01*
X197706253Y-74904143D01*
X197720395Y-74890000D01*
X196919787Y-74089392D01*
X196677603Y-74158857D01*
X196673616Y-74170033D01*
X196623049Y-74047651D01*
X196485426Y-73909787D01*
X197099392Y-73909787D01*
X197900000Y-74710395D01*
X198700608Y-73909787D01*
X198631143Y-73667603D01*
X198107698Y-73480856D01*
X197552632Y-73508638D01*
X197168857Y-73667603D01*
X197099392Y-73909787D01*
X196485426Y-73909787D01*
X196204552Y-73628423D01*
X195657480Y-73401259D01*
X195065119Y-73400742D01*
X194517651Y-73626951D01*
X194147000Y-73996956D01*
X194147000Y-69122000D01*
X194045988Y-68614179D01*
X193758331Y-68183669D01*
X191636331Y-66061669D01*
X191205821Y-65774012D01*
X190698000Y-65673000D01*
X150635000Y-65673000D01*
X150635000Y-58500000D01*
X150591573Y-58269205D01*
X150455173Y-58057233D01*
X150247051Y-57915029D01*
X150000000Y-57865000D01*
X141541242Y-57865000D01*
X141541242Y-57200000D01*
X141490549Y-56930590D01*
X141354675Y-56719437D01*
X141526735Y-56305072D01*
X141527265Y-55697593D01*
X141295283Y-55136154D01*
X141024484Y-54864881D01*
X198950742Y-54864881D01*
X199176951Y-55412349D01*
X199595448Y-55831577D01*
X200142520Y-56058741D01*
X200734881Y-56059258D01*
X201282349Y-55833049D01*
X201701577Y-55414552D01*
X201709739Y-55394895D01*
X201716951Y-55412349D01*
X202135448Y-55831577D01*
X202682520Y-56058741D01*
X203274881Y-56059258D01*
X203822349Y-55833049D01*
X204241577Y-55414552D01*
X204249739Y-55394895D01*
X204256951Y-55412349D01*
X204675448Y-55831577D01*
X205222520Y-56058741D01*
X205814881Y-56059258D01*
X206362349Y-55833049D01*
X206781577Y-55414552D01*
X206789739Y-55394895D01*
X206796951Y-55412349D01*
X207215448Y-55831577D01*
X207762520Y-56058741D01*
X208354881Y-56059258D01*
X208902349Y-55833049D01*
X209321577Y-55414552D01*
X209329739Y-55394895D01*
X209336951Y-55412349D01*
X209755448Y-55831577D01*
X210302520Y-56058741D01*
X210894881Y-56059258D01*
X211442349Y-55833049D01*
X211861577Y-55414552D01*
X211869739Y-55394895D01*
X211876951Y-55412349D01*
X212295448Y-55831577D01*
X212842520Y-56058741D01*
X213434881Y-56059258D01*
X213982349Y-55833049D01*
X214401577Y-55414552D01*
X214409739Y-55394895D01*
X214416951Y-55412349D01*
X214835448Y-55831577D01*
X215382520Y-56058741D01*
X215974881Y-56059258D01*
X216522349Y-55833049D01*
X216941577Y-55414552D01*
X216949739Y-55394895D01*
X216956951Y-55412349D01*
X217375448Y-55831577D01*
X217922520Y-56058741D01*
X218514881Y-56059258D01*
X219062349Y-55833049D01*
X219481577Y-55414552D01*
X219489739Y-55394895D01*
X219496951Y-55412349D01*
X219915448Y-55831577D01*
X220462520Y-56058741D01*
X221054881Y-56059258D01*
X221602349Y-55833049D01*
X222021577Y-55414552D01*
X222029739Y-55394895D01*
X222036951Y-55412349D01*
X222455448Y-55831577D01*
X223002520Y-56058741D01*
X223594881Y-56059258D01*
X224142349Y-55833049D01*
X224561577Y-55414552D01*
X224569739Y-55394895D01*
X224576951Y-55412349D01*
X224995448Y-55831577D01*
X225542520Y-56058741D01*
X226134881Y-56059258D01*
X226682349Y-55833049D01*
X227101577Y-55414552D01*
X227109739Y-55394895D01*
X227116951Y-55412349D01*
X227535448Y-55831577D01*
X228082520Y-56058741D01*
X228674881Y-56059258D01*
X229222349Y-55833049D01*
X229641577Y-55414552D01*
X229868741Y-54867480D01*
X229869258Y-54275119D01*
X229643049Y-53727651D01*
X229224552Y-53308423D01*
X228677480Y-53081259D01*
X228085119Y-53080742D01*
X227537651Y-53306951D01*
X227118423Y-53725448D01*
X227110261Y-53745105D01*
X227103049Y-53727651D01*
X226684552Y-53308423D01*
X226137480Y-53081259D01*
X225545119Y-53080742D01*
X224997651Y-53306951D01*
X224578423Y-53725448D01*
X224570261Y-53745105D01*
X224563049Y-53727651D01*
X224144552Y-53308423D01*
X223597480Y-53081259D01*
X223005119Y-53080742D01*
X222457651Y-53306951D01*
X222038423Y-53725448D01*
X222030261Y-53745105D01*
X222023049Y-53727651D01*
X221604552Y-53308423D01*
X221057480Y-53081259D01*
X220465119Y-53080742D01*
X219917651Y-53306951D01*
X219498423Y-53725448D01*
X219490261Y-53745105D01*
X219483049Y-53727651D01*
X219064552Y-53308423D01*
X218517480Y-53081259D01*
X217925119Y-53080742D01*
X217377651Y-53306951D01*
X216958423Y-53725448D01*
X216950261Y-53745105D01*
X216943049Y-53727651D01*
X216524552Y-53308423D01*
X215977480Y-53081259D01*
X215385119Y-53080742D01*
X214837651Y-53306951D01*
X214418423Y-53725448D01*
X214410261Y-53745105D01*
X214403049Y-53727651D01*
X213984552Y-53308423D01*
X213437480Y-53081259D01*
X212845119Y-53080742D01*
X212297651Y-53306951D01*
X211878423Y-53725448D01*
X211870261Y-53745105D01*
X211863049Y-53727651D01*
X211444552Y-53308423D01*
X210897480Y-53081259D01*
X210305119Y-53080742D01*
X209757651Y-53306951D01*
X209338423Y-53725448D01*
X209330261Y-53745105D01*
X209323049Y-53727651D01*
X208904552Y-53308423D01*
X208357480Y-53081259D01*
X207765119Y-53080742D01*
X207217651Y-53306951D01*
X206798423Y-53725448D01*
X206790261Y-53745105D01*
X206783049Y-53727651D01*
X206364552Y-53308423D01*
X205817480Y-53081259D01*
X205225119Y-53080742D01*
X204677651Y-53306951D01*
X204258423Y-53725448D01*
X204250261Y-53745105D01*
X204243049Y-53727651D01*
X203824552Y-53308423D01*
X203277480Y-53081259D01*
X202685119Y-53080742D01*
X202137651Y-53306951D01*
X201718423Y-53725448D01*
X201710261Y-53745105D01*
X201703049Y-53727651D01*
X201284552Y-53308423D01*
X200737480Y-53081259D01*
X200145119Y-53080742D01*
X199597651Y-53306951D01*
X199178423Y-53725448D01*
X198951259Y-54272520D01*
X198950742Y-54864881D01*
X141024484Y-54864881D01*
X140866106Y-54706227D01*
X140305072Y-54473265D01*
X140066875Y-54473057D01*
X139256909Y-53663091D01*
X138891284Y-53418788D01*
X138460000Y-53333000D01*
X133066792Y-53333000D01*
X132642110Y-53049236D01*
X132057752Y-52933000D01*
X131182248Y-52933000D01*
X130597890Y-53049236D01*
X130102496Y-53380248D01*
X129771484Y-53875642D01*
X129655248Y-54460000D01*
X129771484Y-55044358D01*
X130102496Y-55539752D01*
X130473186Y-55787439D01*
X130115500Y-56075104D01*
X129845633Y-56568181D01*
X129828096Y-56650961D01*
X129950085Y-56873000D01*
X131493000Y-56873000D01*
X131493000Y-56853000D01*
X131747000Y-56853000D01*
X131747000Y-56873000D01*
X133289915Y-56873000D01*
X133411904Y-56650961D01*
X133394367Y-56568181D01*
X133124500Y-56075104D01*
X132766814Y-55787439D01*
X133066792Y-55587000D01*
X137993182Y-55587000D01*
X138472941Y-56066759D01*
X138472735Y-56302407D01*
X138646337Y-56722555D01*
X138543542Y-56873000D01*
X138400000Y-56873000D01*
X137968716Y-56958788D01*
X137603091Y-57203091D01*
X136941182Y-57865000D01*
X133157282Y-57865000D01*
X133394367Y-57431819D01*
X133411904Y-57349039D01*
X133289915Y-57127000D01*
X131747000Y-57127000D01*
X131747000Y-57147000D01*
X131493000Y-57147000D01*
X131493000Y-57127000D01*
X129950085Y-57127000D01*
X129828096Y-57349039D01*
X129845633Y-57431819D01*
X130082718Y-57865000D01*
X126135000Y-57865000D01*
X126135000Y-52000000D01*
X126091573Y-51769205D01*
X125955173Y-51557233D01*
X125747051Y-51415029D01*
X125500000Y-51365000D01*
X111200000Y-51365000D01*
X111200000Y-50875000D01*
X236780000Y-50875000D01*
X236780000Y-144873000D01*
M02*
