G04 #@! TF.FileFunction,Copper,L1,Top,Signal*
%FSLAX46Y46*%
G04 Gerber Fmt 4.6, Leading zero omitted, Abs format (unit mm)*
G04 Created by KiCad (PCBNEW 4.0.5) date 03/24/17 14:53:25*
%MOMM*%
%LPD*%
G01*
G04 APERTURE LIST*
%ADD10C,0.100000*%
%ADD11R,2.400000X1.600000*%
%ADD12O,2.400000X1.600000*%
%ADD13R,2.032000X2.032000*%
%ADD14O,2.032000X2.032000*%
%ADD15C,1.524000*%
%ADD16R,1.600000X1.600000*%
%ADD17C,1.600000*%
%ADD18O,1.600000X1.600000*%
%ADD19R,1.700000X1.700000*%
%ADD20O,1.700000X1.700000*%
%ADD21C,0.800000*%
%ADD22C,0.254000*%
G04 APERTURE END LIST*
D10*
D11*
X129000000Y-125460000D03*
D12*
X136620000Y-133080000D03*
X129000000Y-128000000D03*
X136620000Y-130540000D03*
X129000000Y-130540000D03*
X136620000Y-128000000D03*
X129000000Y-133080000D03*
X136620000Y-125460000D03*
D13*
X132000000Y-90500000D03*
D14*
X134540000Y-90500000D03*
D13*
X169500000Y-91000000D03*
D14*
X172040000Y-91000000D03*
D13*
X207960000Y-90500000D03*
D14*
X210500000Y-90500000D03*
D11*
X131620000Y-62080000D03*
D12*
X124000000Y-54460000D03*
X131620000Y-59540000D03*
X124000000Y-57000000D03*
X131620000Y-57000000D03*
X124000000Y-59540000D03*
X131620000Y-54460000D03*
X124000000Y-62080000D03*
D11*
X166380000Y-125420000D03*
D12*
X174000000Y-133040000D03*
X166380000Y-127960000D03*
X174000000Y-130500000D03*
X166380000Y-130500000D03*
X174000000Y-127960000D03*
X166380000Y-133040000D03*
X174000000Y-125420000D03*
D11*
X205380000Y-125420000D03*
D12*
X213000000Y-133040000D03*
X205380000Y-127960000D03*
X213000000Y-130500000D03*
X205380000Y-130500000D03*
X213000000Y-127960000D03*
X205380000Y-133040000D03*
X213000000Y-125420000D03*
D15*
X126460000Y-142000000D03*
X129000000Y-142000000D03*
X131540000Y-142000000D03*
X163960000Y-142000000D03*
X166500000Y-142000000D03*
X169040000Y-142000000D03*
X202460000Y-142000000D03*
X205000000Y-142000000D03*
X207540000Y-142000000D03*
X195360000Y-69810000D03*
X197900000Y-69810000D03*
X200440000Y-69810000D03*
X202980000Y-69810000D03*
X205520000Y-69810000D03*
X208060000Y-69810000D03*
X210600000Y-69810000D03*
X213140000Y-69810000D03*
X215680000Y-69810000D03*
X218220000Y-69810000D03*
X220760000Y-69810000D03*
X223300000Y-69810000D03*
X225840000Y-69810000D03*
X228380000Y-69810000D03*
X230920000Y-69810000D03*
X233460000Y-69810000D03*
X233460000Y-49490000D03*
X230920000Y-49490000D03*
X228380000Y-49490000D03*
X225840000Y-49490000D03*
X223300000Y-49490000D03*
X220760000Y-49490000D03*
X218220000Y-49490000D03*
X215680000Y-49490000D03*
X213140000Y-49490000D03*
X210600000Y-49490000D03*
X208060000Y-49490000D03*
X205520000Y-49490000D03*
D16*
X127500000Y-68000000D03*
D17*
X127500000Y-70000000D03*
D16*
X118000000Y-75000000D03*
D17*
X116000000Y-75000000D03*
D16*
X140000000Y-58000000D03*
D17*
X140000000Y-56000000D03*
D16*
X118000000Y-69000000D03*
D17*
X116000000Y-69000000D03*
X118000000Y-132000000D03*
X123000000Y-132000000D03*
X155000000Y-132000000D03*
X160000000Y-132000000D03*
X193500000Y-132500000D03*
X198500000Y-132500000D03*
X118000000Y-125000000D03*
X123000000Y-125000000D03*
X155000000Y-125000000D03*
X160000000Y-125000000D03*
X193500000Y-125500000D03*
X198500000Y-125500000D03*
X136500000Y-99500000D03*
X136500000Y-94500000D03*
X129500000Y-99500000D03*
X129500000Y-94500000D03*
X174500000Y-100000000D03*
X174500000Y-95000000D03*
X167500000Y-100000000D03*
X167500000Y-95000000D03*
X212500000Y-100000000D03*
X212500000Y-95000000D03*
X206000000Y-100000000D03*
X206000000Y-95000000D03*
X143000000Y-104000000D03*
X143000000Y-109000000D03*
X180500000Y-104500000D03*
X180500000Y-109500000D03*
X219500000Y-104000000D03*
X219500000Y-109000000D03*
X123160000Y-142000000D03*
D18*
X113000000Y-142000000D03*
D17*
X145160000Y-142000000D03*
D18*
X135000000Y-142000000D03*
D17*
X136500000Y-102500000D03*
D18*
X136500000Y-112660000D03*
D17*
X129500000Y-102340000D03*
D18*
X129500000Y-112500000D03*
D17*
X127840000Y-121000000D03*
D18*
X138000000Y-121000000D03*
D17*
X143000000Y-137500000D03*
D18*
X143000000Y-127340000D03*
D17*
X143000000Y-122660000D03*
D18*
X143000000Y-112500000D03*
D17*
X160500000Y-142000000D03*
D18*
X150340000Y-142000000D03*
D17*
X182500000Y-142000000D03*
D18*
X172340000Y-142000000D03*
D17*
X199000000Y-142000000D03*
D18*
X188840000Y-142000000D03*
D17*
X221000000Y-142000000D03*
D18*
X210840000Y-142000000D03*
D17*
X174500000Y-103000000D03*
D18*
X174500000Y-113160000D03*
D17*
X167500000Y-102840000D03*
D18*
X167500000Y-113000000D03*
D17*
X212500000Y-103000000D03*
D18*
X212500000Y-113160000D03*
D17*
X206000000Y-103000000D03*
D18*
X206000000Y-113160000D03*
D17*
X165840000Y-120500000D03*
D18*
X176000000Y-120500000D03*
D17*
X204500000Y-120500000D03*
D18*
X214660000Y-120500000D03*
D17*
X180500000Y-137500000D03*
D18*
X180500000Y-127340000D03*
D17*
X219500000Y-138160000D03*
D18*
X219500000Y-128000000D03*
D17*
X180500000Y-123160000D03*
D18*
X180500000Y-113000000D03*
D17*
X219500000Y-123160000D03*
D18*
X219500000Y-113000000D03*
D19*
X139750000Y-133750000D03*
D20*
X139750000Y-131210000D03*
D19*
X131710000Y-117750000D03*
D20*
X134250000Y-117750000D03*
D19*
X177250000Y-133750000D03*
D20*
X177250000Y-131210000D03*
D19*
X169710000Y-117250000D03*
D20*
X172250000Y-117250000D03*
D19*
X216250000Y-134290000D03*
D20*
X216250000Y-131750000D03*
D19*
X208460000Y-117250000D03*
D20*
X211000000Y-117250000D03*
D21*
X127500000Y-68000000D02*
X125900000Y-68000000D01*
X125900000Y-68000000D02*
X124000000Y-66100000D01*
X124000000Y-66100000D02*
X124000000Y-63680000D01*
X124000000Y-63680000D02*
X124000000Y-62080000D01*
X136620000Y-125460000D02*
X143784002Y-125460000D01*
X143784002Y-125460000D02*
X150340000Y-132015998D01*
X150340000Y-132015998D02*
X150340000Y-137840000D01*
X150340000Y-137840000D02*
X150340000Y-142000000D01*
X174000000Y-125420000D02*
X181244002Y-125420000D01*
X181244002Y-125420000D02*
X188840000Y-133015998D01*
X188840000Y-133015998D02*
X188840000Y-138260000D01*
X188840000Y-138260000D02*
X188840000Y-142000000D01*
X213000000Y-125420000D02*
X219584002Y-125420000D01*
X228500000Y-134335998D02*
X228500000Y-142000000D01*
X219584002Y-125420000D02*
X228500000Y-134335998D01*
X228500000Y-142000000D02*
X225500000Y-145000000D01*
X225500000Y-145000000D02*
X185500000Y-145000000D01*
X213405598Y-125420000D02*
X213000000Y-125420000D01*
X185500000Y-145000000D02*
X186000000Y-145000000D01*
X147500000Y-145000000D02*
X185500000Y-145000000D01*
X150340000Y-142000000D02*
X150340000Y-138774402D01*
X136620000Y-125460000D02*
X137025598Y-125460000D01*
X116000000Y-145000000D02*
X147500000Y-145000000D01*
X150340000Y-142000000D02*
X147500000Y-144840000D01*
X147500000Y-144840000D02*
X147500000Y-145000000D01*
X188840000Y-142000000D02*
X186000000Y-144840000D01*
X186000000Y-144840000D02*
X186000000Y-145000000D01*
X113000000Y-142000000D02*
X116000000Y-145000000D01*
X136220000Y-125460000D02*
X136620000Y-125460000D01*
X124000000Y-112000000D02*
X113000000Y-123000000D01*
X113000000Y-123000000D02*
X113000000Y-142000000D01*
X124000000Y-62080000D02*
X124000000Y-112000000D01*
D22*
G36*
X236780000Y-144873000D02*
X227220818Y-144873000D01*
X229296910Y-142796909D01*
X229541212Y-142431284D01*
X229627000Y-142000000D01*
X229627000Y-134335998D01*
X229541212Y-133904714D01*
X229296909Y-133539088D01*
X220380911Y-124623091D01*
X220219210Y-124515046D01*
X220363846Y-124455283D01*
X220793773Y-124026106D01*
X221026735Y-123465072D01*
X221027265Y-122857593D01*
X220795283Y-122296154D01*
X220366106Y-121866227D01*
X219805072Y-121633265D01*
X219197593Y-121632735D01*
X218636154Y-121864717D01*
X218206227Y-122293894D01*
X217973265Y-122854928D01*
X217972735Y-123462407D01*
X218204717Y-124023846D01*
X218473401Y-124293000D01*
X214446792Y-124293000D01*
X214022110Y-124009236D01*
X213437752Y-123893000D01*
X212562248Y-123893000D01*
X211977890Y-124009236D01*
X211482496Y-124340248D01*
X211151484Y-124835642D01*
X211035248Y-125420000D01*
X211151484Y-126004358D01*
X211482496Y-126499752D01*
X211767222Y-126690000D01*
X211482496Y-126880248D01*
X211151484Y-127375642D01*
X211035248Y-127960000D01*
X211151484Y-128544358D01*
X211482496Y-129039752D01*
X211767222Y-129230000D01*
X211482496Y-129420248D01*
X211151484Y-129915642D01*
X211035248Y-130500000D01*
X211151484Y-131084358D01*
X211482496Y-131579752D01*
X211767222Y-131770000D01*
X211482496Y-131960248D01*
X211151484Y-132455642D01*
X211035248Y-133040000D01*
X211151484Y-133624358D01*
X211482496Y-134119752D01*
X211977890Y-134450764D01*
X212562248Y-134567000D01*
X213437752Y-134567000D01*
X214022110Y-134450764D01*
X214517504Y-134119752D01*
X214658758Y-133908351D01*
X214658758Y-135140000D01*
X214709451Y-135409410D01*
X214868672Y-135656846D01*
X215111615Y-135822843D01*
X215400000Y-135881242D01*
X217100000Y-135881242D01*
X217369410Y-135830549D01*
X217616846Y-135671328D01*
X217782843Y-135428385D01*
X217841242Y-135140000D01*
X217841242Y-133440000D01*
X217790549Y-133170590D01*
X217631328Y-132923154D01*
X217443136Y-132794567D01*
X217737853Y-132353492D01*
X217857895Y-131750000D01*
X217737853Y-131146508D01*
X217396002Y-130634893D01*
X216884387Y-130293042D01*
X216280895Y-130173000D01*
X216219105Y-130173000D01*
X215615613Y-130293042D01*
X215103998Y-130634893D01*
X214867523Y-130988801D01*
X214964752Y-130500000D01*
X214848516Y-129915642D01*
X214517504Y-129420248D01*
X214232778Y-129230000D01*
X214517504Y-129039752D01*
X214848516Y-128544358D01*
X214964752Y-127960000D01*
X214848516Y-127375642D01*
X214517504Y-126880248D01*
X214232778Y-126690000D01*
X214446792Y-126547000D01*
X218977579Y-126547000D01*
X218915642Y-126559320D01*
X218420248Y-126890332D01*
X218089236Y-127385726D01*
X217973000Y-127970084D01*
X217973000Y-128029916D01*
X218089236Y-128614274D01*
X218420248Y-129109668D01*
X218915642Y-129440680D01*
X219500000Y-129556916D01*
X220084358Y-129440680D01*
X220579752Y-129109668D01*
X220910764Y-128614274D01*
X220956173Y-128385989D01*
X227373000Y-134802817D01*
X227373000Y-141533181D01*
X225033182Y-143873000D01*
X188560819Y-143873000D01*
X188915982Y-143517837D01*
X189454274Y-143410764D01*
X189949668Y-143079752D01*
X190280680Y-142584358D01*
X190336763Y-142302407D01*
X197472735Y-142302407D01*
X197704717Y-142863846D01*
X198133894Y-143293773D01*
X198694928Y-143526735D01*
X199302407Y-143527265D01*
X199863846Y-143295283D01*
X200293773Y-142866106D01*
X200526735Y-142305072D01*
X200526743Y-142294881D01*
X200970742Y-142294881D01*
X201196951Y-142842349D01*
X201615448Y-143261577D01*
X202162520Y-143488741D01*
X202754881Y-143489258D01*
X203302349Y-143263049D01*
X203721577Y-142844552D01*
X203729739Y-142824895D01*
X203736951Y-142842349D01*
X204155448Y-143261577D01*
X204702520Y-143488741D01*
X205294881Y-143489258D01*
X205842349Y-143263049D01*
X206261577Y-142844552D01*
X206269739Y-142824895D01*
X206276951Y-142842349D01*
X206695448Y-143261577D01*
X207242520Y-143488741D01*
X207834881Y-143489258D01*
X208382349Y-143263049D01*
X208801577Y-142844552D01*
X209028741Y-142297480D01*
X209029000Y-142000000D01*
X209283084Y-142000000D01*
X209399320Y-142584358D01*
X209730332Y-143079752D01*
X210225726Y-143410764D01*
X210810084Y-143527000D01*
X210869916Y-143527000D01*
X211454274Y-143410764D01*
X211949668Y-143079752D01*
X212280680Y-142584358D01*
X212336763Y-142302407D01*
X219472735Y-142302407D01*
X219704717Y-142863846D01*
X220133894Y-143293773D01*
X220694928Y-143526735D01*
X221302407Y-143527265D01*
X221863846Y-143295283D01*
X222293773Y-142866106D01*
X222526735Y-142305072D01*
X222527265Y-141697593D01*
X222295283Y-141136154D01*
X221866106Y-140706227D01*
X221305072Y-140473265D01*
X220697593Y-140472735D01*
X220136154Y-140704717D01*
X219706227Y-141133894D01*
X219473265Y-141694928D01*
X219472735Y-142302407D01*
X212336763Y-142302407D01*
X212396916Y-142000000D01*
X212280680Y-141415642D01*
X211949668Y-140920248D01*
X211454274Y-140589236D01*
X210869916Y-140473000D01*
X210810084Y-140473000D01*
X210225726Y-140589236D01*
X209730332Y-140920248D01*
X209399320Y-141415642D01*
X209283084Y-142000000D01*
X209029000Y-142000000D01*
X209029258Y-141705119D01*
X208803049Y-141157651D01*
X208384552Y-140738423D01*
X207837480Y-140511259D01*
X207245119Y-140510742D01*
X206697651Y-140736951D01*
X206278423Y-141155448D01*
X206270261Y-141175105D01*
X206263049Y-141157651D01*
X205844552Y-140738423D01*
X205297480Y-140511259D01*
X204705119Y-140510742D01*
X204157651Y-140736951D01*
X203738423Y-141155448D01*
X203730261Y-141175105D01*
X203723049Y-141157651D01*
X203304552Y-140738423D01*
X202757480Y-140511259D01*
X202165119Y-140510742D01*
X201617651Y-140736951D01*
X201198423Y-141155448D01*
X200971259Y-141702520D01*
X200970742Y-142294881D01*
X200526743Y-142294881D01*
X200527265Y-141697593D01*
X200295283Y-141136154D01*
X199866106Y-140706227D01*
X199305072Y-140473265D01*
X198697593Y-140472735D01*
X198136154Y-140704717D01*
X197706227Y-141133894D01*
X197473265Y-141694928D01*
X197472735Y-142302407D01*
X190336763Y-142302407D01*
X190396916Y-142000000D01*
X190280680Y-141415642D01*
X189967000Y-140946187D01*
X189967000Y-138462407D01*
X217972735Y-138462407D01*
X218204717Y-139023846D01*
X218633894Y-139453773D01*
X219194928Y-139686735D01*
X219802407Y-139687265D01*
X220363846Y-139455283D01*
X220793773Y-139026106D01*
X221026735Y-138465072D01*
X221027265Y-137857593D01*
X220795283Y-137296154D01*
X220366106Y-136866227D01*
X219805072Y-136633265D01*
X219197593Y-136632735D01*
X218636154Y-136864717D01*
X218206227Y-137293894D01*
X217973265Y-137854928D01*
X217972735Y-138462407D01*
X189967000Y-138462407D01*
X189967000Y-133507745D01*
X192671861Y-133507745D01*
X192745995Y-133753864D01*
X193283223Y-133946965D01*
X193853454Y-133919778D01*
X194254005Y-133753864D01*
X194328139Y-133507745D01*
X193500000Y-132679605D01*
X192671861Y-133507745D01*
X189967000Y-133507745D01*
X189967000Y-133015998D01*
X189881212Y-132584714D01*
X189881212Y-132584713D01*
X189679763Y-132283223D01*
X192053035Y-132283223D01*
X192080222Y-132853454D01*
X192246136Y-133254005D01*
X192492255Y-133328139D01*
X193320395Y-132500000D01*
X193679605Y-132500000D01*
X194507745Y-133328139D01*
X194753864Y-133254005D01*
X194916186Y-132802407D01*
X196972735Y-132802407D01*
X197204717Y-133363846D01*
X197633894Y-133793773D01*
X198194928Y-134026735D01*
X198802407Y-134027265D01*
X199363846Y-133795283D01*
X199793773Y-133366106D01*
X200026735Y-132805072D01*
X200027265Y-132197593D01*
X199795283Y-131636154D01*
X199366106Y-131206227D01*
X198805072Y-130973265D01*
X198197593Y-130972735D01*
X197636154Y-131204717D01*
X197206227Y-131633894D01*
X196973265Y-132194928D01*
X196972735Y-132802407D01*
X194916186Y-132802407D01*
X194946965Y-132716777D01*
X194919778Y-132146546D01*
X194753864Y-131745995D01*
X194507745Y-131671861D01*
X193679605Y-132500000D01*
X193320395Y-132500000D01*
X192492255Y-131671861D01*
X192246136Y-131745995D01*
X192053035Y-132283223D01*
X189679763Y-132283223D01*
X189636909Y-132219088D01*
X188910076Y-131492255D01*
X192671861Y-131492255D01*
X193500000Y-132320395D01*
X194328139Y-131492255D01*
X194254005Y-131246136D01*
X193716777Y-131053035D01*
X193146546Y-131080222D01*
X192745995Y-131246136D01*
X192671861Y-131492255D01*
X188910076Y-131492255D01*
X185377821Y-127960000D01*
X203415248Y-127960000D01*
X203531484Y-128544358D01*
X203862496Y-129039752D01*
X204147222Y-129230000D01*
X203862496Y-129420248D01*
X203531484Y-129915642D01*
X203415248Y-130500000D01*
X203531484Y-131084358D01*
X203862496Y-131579752D01*
X204147222Y-131770000D01*
X203862496Y-131960248D01*
X203531484Y-132455642D01*
X203415248Y-133040000D01*
X203531484Y-133624358D01*
X203862496Y-134119752D01*
X204357890Y-134450764D01*
X204942248Y-134567000D01*
X205817752Y-134567000D01*
X206402110Y-134450764D01*
X206897504Y-134119752D01*
X207228516Y-133624358D01*
X207344752Y-133040000D01*
X207228516Y-132455642D01*
X206897504Y-131960248D01*
X206612778Y-131770000D01*
X206897504Y-131579752D01*
X207228516Y-131084358D01*
X207344752Y-130500000D01*
X207228516Y-129915642D01*
X206897504Y-129420248D01*
X206612778Y-129230000D01*
X206897504Y-129039752D01*
X207228516Y-128544358D01*
X207344752Y-127960000D01*
X207228516Y-127375642D01*
X206897504Y-126880248D01*
X206897011Y-126879919D01*
X207096846Y-126751328D01*
X207262843Y-126508385D01*
X207321242Y-126220000D01*
X207321242Y-124620000D01*
X207270549Y-124350590D01*
X207111328Y-124103154D01*
X206868385Y-123937157D01*
X206580000Y-123878758D01*
X204180000Y-123878758D01*
X203910590Y-123929451D01*
X203663154Y-124088672D01*
X203497157Y-124331615D01*
X203438758Y-124620000D01*
X203438758Y-126220000D01*
X203489451Y-126489410D01*
X203648672Y-126736846D01*
X203861258Y-126882101D01*
X203531484Y-127375642D01*
X203415248Y-127960000D01*
X185377821Y-127960000D01*
X183925566Y-126507745D01*
X192671861Y-126507745D01*
X192745995Y-126753864D01*
X193283223Y-126946965D01*
X193853454Y-126919778D01*
X194254005Y-126753864D01*
X194328139Y-126507745D01*
X193500000Y-125679605D01*
X192671861Y-126507745D01*
X183925566Y-126507745D01*
X182701044Y-125283223D01*
X192053035Y-125283223D01*
X192080222Y-125853454D01*
X192246136Y-126254005D01*
X192492255Y-126328139D01*
X193320395Y-125500000D01*
X193679605Y-125500000D01*
X194507745Y-126328139D01*
X194753864Y-126254005D01*
X194916186Y-125802407D01*
X196972735Y-125802407D01*
X197204717Y-126363846D01*
X197633894Y-126793773D01*
X198194928Y-127026735D01*
X198802407Y-127027265D01*
X199363846Y-126795283D01*
X199793773Y-126366106D01*
X200026735Y-125805072D01*
X200027265Y-125197593D01*
X199795283Y-124636154D01*
X199366106Y-124206227D01*
X198805072Y-123973265D01*
X198197593Y-123972735D01*
X197636154Y-124204717D01*
X197206227Y-124633894D01*
X196973265Y-125194928D01*
X196972735Y-125802407D01*
X194916186Y-125802407D01*
X194946965Y-125716777D01*
X194919778Y-125146546D01*
X194753864Y-124745995D01*
X194507745Y-124671861D01*
X193679605Y-125500000D01*
X193320395Y-125500000D01*
X192492255Y-124671861D01*
X192246136Y-124745995D01*
X192053035Y-125283223D01*
X182701044Y-125283223D01*
X182040911Y-124623091D01*
X181845102Y-124492255D01*
X192671861Y-124492255D01*
X193500000Y-125320395D01*
X194328139Y-124492255D01*
X194254005Y-124246136D01*
X193716777Y-124053035D01*
X193146546Y-124080222D01*
X192745995Y-124246136D01*
X192671861Y-124492255D01*
X181845102Y-124492255D01*
X181675286Y-124378788D01*
X181479489Y-124339841D01*
X181793773Y-124026106D01*
X182026735Y-123465072D01*
X182027265Y-122857593D01*
X181795283Y-122296154D01*
X181366106Y-121866227D01*
X180805072Y-121633265D01*
X180197593Y-121632735D01*
X179636154Y-121864717D01*
X179206227Y-122293894D01*
X178973265Y-122854928D01*
X178972735Y-123462407D01*
X179204717Y-124023846D01*
X179473401Y-124293000D01*
X175446792Y-124293000D01*
X175022110Y-124009236D01*
X174437752Y-123893000D01*
X173562248Y-123893000D01*
X172977890Y-124009236D01*
X172482496Y-124340248D01*
X172151484Y-124835642D01*
X172035248Y-125420000D01*
X172151484Y-126004358D01*
X172482496Y-126499752D01*
X172767222Y-126690000D01*
X172482496Y-126880248D01*
X172151484Y-127375642D01*
X172035248Y-127960000D01*
X172151484Y-128544358D01*
X172482496Y-129039752D01*
X172767222Y-129230000D01*
X172482496Y-129420248D01*
X172151484Y-129915642D01*
X172035248Y-130500000D01*
X172151484Y-131084358D01*
X172482496Y-131579752D01*
X172767222Y-131770000D01*
X172482496Y-131960248D01*
X172151484Y-132455642D01*
X172035248Y-133040000D01*
X172151484Y-133624358D01*
X172482496Y-134119752D01*
X172977890Y-134450764D01*
X173562248Y-134567000D01*
X174437752Y-134567000D01*
X175022110Y-134450764D01*
X175517504Y-134119752D01*
X175658758Y-133908351D01*
X175658758Y-134600000D01*
X175709451Y-134869410D01*
X175868672Y-135116846D01*
X176111615Y-135282843D01*
X176400000Y-135341242D01*
X178100000Y-135341242D01*
X178369410Y-135290549D01*
X178616846Y-135131328D01*
X178782843Y-134888385D01*
X178841242Y-134600000D01*
X178841242Y-132900000D01*
X178790549Y-132630590D01*
X178631328Y-132383154D01*
X178443136Y-132254567D01*
X178737853Y-131813492D01*
X178857895Y-131210000D01*
X178737853Y-130606508D01*
X178396002Y-130094893D01*
X177884387Y-129753042D01*
X177280895Y-129633000D01*
X177219105Y-129633000D01*
X176615613Y-129753042D01*
X176103998Y-130094893D01*
X175934600Y-130348415D01*
X175848516Y-129915642D01*
X175517504Y-129420248D01*
X175232778Y-129230000D01*
X175517504Y-129039752D01*
X175848516Y-128544358D01*
X175964752Y-127960000D01*
X175848516Y-127375642D01*
X175517504Y-126880248D01*
X175232778Y-126690000D01*
X175446792Y-126547000D01*
X179208657Y-126547000D01*
X179089236Y-126725726D01*
X178973000Y-127310084D01*
X178973000Y-127369916D01*
X179089236Y-127954274D01*
X179420248Y-128449668D01*
X179915642Y-128780680D01*
X180500000Y-128896916D01*
X181084358Y-128780680D01*
X181579752Y-128449668D01*
X181910764Y-127954274D01*
X181956173Y-127725989D01*
X187713000Y-133482817D01*
X187713000Y-140946187D01*
X187399320Y-141415642D01*
X187292247Y-141953934D01*
X185373182Y-143873000D01*
X150060819Y-143873000D01*
X150415982Y-143517837D01*
X150954274Y-143410764D01*
X151449668Y-143079752D01*
X151780680Y-142584358D01*
X151836763Y-142302407D01*
X158972735Y-142302407D01*
X159204717Y-142863846D01*
X159633894Y-143293773D01*
X160194928Y-143526735D01*
X160802407Y-143527265D01*
X161363846Y-143295283D01*
X161793773Y-142866106D01*
X162026735Y-142305072D01*
X162026743Y-142294881D01*
X162470742Y-142294881D01*
X162696951Y-142842349D01*
X163115448Y-143261577D01*
X163662520Y-143488741D01*
X164254881Y-143489258D01*
X164802349Y-143263049D01*
X165221577Y-142844552D01*
X165229739Y-142824895D01*
X165236951Y-142842349D01*
X165655448Y-143261577D01*
X166202520Y-143488741D01*
X166794881Y-143489258D01*
X167342349Y-143263049D01*
X167761577Y-142844552D01*
X167769739Y-142824895D01*
X167776951Y-142842349D01*
X168195448Y-143261577D01*
X168742520Y-143488741D01*
X169334881Y-143489258D01*
X169882349Y-143263049D01*
X170301577Y-142844552D01*
X170528741Y-142297480D01*
X170529000Y-142000000D01*
X170783084Y-142000000D01*
X170899320Y-142584358D01*
X171230332Y-143079752D01*
X171725726Y-143410764D01*
X172310084Y-143527000D01*
X172369916Y-143527000D01*
X172954274Y-143410764D01*
X173449668Y-143079752D01*
X173780680Y-142584358D01*
X173836763Y-142302407D01*
X180972735Y-142302407D01*
X181204717Y-142863846D01*
X181633894Y-143293773D01*
X182194928Y-143526735D01*
X182802407Y-143527265D01*
X183363846Y-143295283D01*
X183793773Y-142866106D01*
X184026735Y-142305072D01*
X184027265Y-141697593D01*
X183795283Y-141136154D01*
X183366106Y-140706227D01*
X182805072Y-140473265D01*
X182197593Y-140472735D01*
X181636154Y-140704717D01*
X181206227Y-141133894D01*
X180973265Y-141694928D01*
X180972735Y-142302407D01*
X173836763Y-142302407D01*
X173896916Y-142000000D01*
X173780680Y-141415642D01*
X173449668Y-140920248D01*
X172954274Y-140589236D01*
X172369916Y-140473000D01*
X172310084Y-140473000D01*
X171725726Y-140589236D01*
X171230332Y-140920248D01*
X170899320Y-141415642D01*
X170783084Y-142000000D01*
X170529000Y-142000000D01*
X170529258Y-141705119D01*
X170303049Y-141157651D01*
X169884552Y-140738423D01*
X169337480Y-140511259D01*
X168745119Y-140510742D01*
X168197651Y-140736951D01*
X167778423Y-141155448D01*
X167770261Y-141175105D01*
X167763049Y-141157651D01*
X167344552Y-140738423D01*
X166797480Y-140511259D01*
X166205119Y-140510742D01*
X165657651Y-140736951D01*
X165238423Y-141155448D01*
X165230261Y-141175105D01*
X165223049Y-141157651D01*
X164804552Y-140738423D01*
X164257480Y-140511259D01*
X163665119Y-140510742D01*
X163117651Y-140736951D01*
X162698423Y-141155448D01*
X162471259Y-141702520D01*
X162470742Y-142294881D01*
X162026743Y-142294881D01*
X162027265Y-141697593D01*
X161795283Y-141136154D01*
X161366106Y-140706227D01*
X160805072Y-140473265D01*
X160197593Y-140472735D01*
X159636154Y-140704717D01*
X159206227Y-141133894D01*
X158973265Y-141694928D01*
X158972735Y-142302407D01*
X151836763Y-142302407D01*
X151896916Y-142000000D01*
X151780680Y-141415642D01*
X151467000Y-140946187D01*
X151467000Y-137802407D01*
X178972735Y-137802407D01*
X179204717Y-138363846D01*
X179633894Y-138793773D01*
X180194928Y-139026735D01*
X180802407Y-139027265D01*
X181363846Y-138795283D01*
X181793773Y-138366106D01*
X182026735Y-137805072D01*
X182027265Y-137197593D01*
X181795283Y-136636154D01*
X181366106Y-136206227D01*
X180805072Y-135973265D01*
X180197593Y-135972735D01*
X179636154Y-136204717D01*
X179206227Y-136633894D01*
X178973265Y-137194928D01*
X178972735Y-137802407D01*
X151467000Y-137802407D01*
X151467000Y-133007745D01*
X154171861Y-133007745D01*
X154245995Y-133253864D01*
X154783223Y-133446965D01*
X155353454Y-133419778D01*
X155754005Y-133253864D01*
X155828139Y-133007745D01*
X155000000Y-132179605D01*
X154171861Y-133007745D01*
X151467000Y-133007745D01*
X151467000Y-132015998D01*
X151420699Y-131783223D01*
X153553035Y-131783223D01*
X153580222Y-132353454D01*
X153746136Y-132754005D01*
X153992255Y-132828139D01*
X154820395Y-132000000D01*
X155179605Y-132000000D01*
X156007745Y-132828139D01*
X156253864Y-132754005D01*
X156416186Y-132302407D01*
X158472735Y-132302407D01*
X158704717Y-132863846D01*
X159133894Y-133293773D01*
X159694928Y-133526735D01*
X160302407Y-133527265D01*
X160863846Y-133295283D01*
X161293773Y-132866106D01*
X161526735Y-132305072D01*
X161527265Y-131697593D01*
X161295283Y-131136154D01*
X160866106Y-130706227D01*
X160305072Y-130473265D01*
X159697593Y-130472735D01*
X159136154Y-130704717D01*
X158706227Y-131133894D01*
X158473265Y-131694928D01*
X158472735Y-132302407D01*
X156416186Y-132302407D01*
X156446965Y-132216777D01*
X156419778Y-131646546D01*
X156253864Y-131245995D01*
X156007745Y-131171861D01*
X155179605Y-132000000D01*
X154820395Y-132000000D01*
X153992255Y-131171861D01*
X153746136Y-131245995D01*
X153553035Y-131783223D01*
X151420699Y-131783223D01*
X151381212Y-131584714D01*
X151136909Y-131219088D01*
X150910076Y-130992255D01*
X154171861Y-130992255D01*
X155000000Y-131820395D01*
X155828139Y-130992255D01*
X155754005Y-130746136D01*
X155216777Y-130553035D01*
X154646546Y-130580222D01*
X154245995Y-130746136D01*
X154171861Y-130992255D01*
X150910076Y-130992255D01*
X147877821Y-127960000D01*
X164415248Y-127960000D01*
X164531484Y-128544358D01*
X164862496Y-129039752D01*
X165147222Y-129230000D01*
X164862496Y-129420248D01*
X164531484Y-129915642D01*
X164415248Y-130500000D01*
X164531484Y-131084358D01*
X164862496Y-131579752D01*
X165147222Y-131770000D01*
X164862496Y-131960248D01*
X164531484Y-132455642D01*
X164415248Y-133040000D01*
X164531484Y-133624358D01*
X164862496Y-134119752D01*
X165357890Y-134450764D01*
X165942248Y-134567000D01*
X166817752Y-134567000D01*
X167402110Y-134450764D01*
X167897504Y-134119752D01*
X168228516Y-133624358D01*
X168344752Y-133040000D01*
X168228516Y-132455642D01*
X167897504Y-131960248D01*
X167612778Y-131770000D01*
X167897504Y-131579752D01*
X168228516Y-131084358D01*
X168344752Y-130500000D01*
X168228516Y-129915642D01*
X167897504Y-129420248D01*
X167612778Y-129230000D01*
X167897504Y-129039752D01*
X168228516Y-128544358D01*
X168344752Y-127960000D01*
X168228516Y-127375642D01*
X167897504Y-126880248D01*
X167897011Y-126879919D01*
X168096846Y-126751328D01*
X168262843Y-126508385D01*
X168321242Y-126220000D01*
X168321242Y-124620000D01*
X168270549Y-124350590D01*
X168111328Y-124103154D01*
X167868385Y-123937157D01*
X167580000Y-123878758D01*
X165180000Y-123878758D01*
X164910590Y-123929451D01*
X164663154Y-124088672D01*
X164497157Y-124331615D01*
X164438758Y-124620000D01*
X164438758Y-126220000D01*
X164489451Y-126489410D01*
X164648672Y-126736846D01*
X164861258Y-126882101D01*
X164531484Y-127375642D01*
X164415248Y-127960000D01*
X147877821Y-127960000D01*
X145925566Y-126007745D01*
X154171861Y-126007745D01*
X154245995Y-126253864D01*
X154783223Y-126446965D01*
X155353454Y-126419778D01*
X155754005Y-126253864D01*
X155828139Y-126007745D01*
X155000000Y-125179605D01*
X154171861Y-126007745D01*
X145925566Y-126007745D01*
X144701044Y-124783223D01*
X153553035Y-124783223D01*
X153580222Y-125353454D01*
X153746136Y-125754005D01*
X153992255Y-125828139D01*
X154820395Y-125000000D01*
X155179605Y-125000000D01*
X156007745Y-125828139D01*
X156253864Y-125754005D01*
X156416186Y-125302407D01*
X158472735Y-125302407D01*
X158704717Y-125863846D01*
X159133894Y-126293773D01*
X159694928Y-126526735D01*
X160302407Y-126527265D01*
X160863846Y-126295283D01*
X161293773Y-125866106D01*
X161526735Y-125305072D01*
X161527265Y-124697593D01*
X161295283Y-124136154D01*
X160866106Y-123706227D01*
X160305072Y-123473265D01*
X159697593Y-123472735D01*
X159136154Y-123704717D01*
X158706227Y-124133894D01*
X158473265Y-124694928D01*
X158472735Y-125302407D01*
X156416186Y-125302407D01*
X156446965Y-125216777D01*
X156419778Y-124646546D01*
X156253864Y-124245995D01*
X156007745Y-124171861D01*
X155179605Y-125000000D01*
X154820395Y-125000000D01*
X153992255Y-124171861D01*
X153746136Y-124245995D01*
X153553035Y-124783223D01*
X144701044Y-124783223D01*
X144580911Y-124663091D01*
X144215286Y-124418788D01*
X143784002Y-124333000D01*
X138066792Y-124333000D01*
X137642110Y-124049236D01*
X137057752Y-123933000D01*
X136182248Y-123933000D01*
X135597890Y-124049236D01*
X135102496Y-124380248D01*
X134771484Y-124875642D01*
X134655248Y-125460000D01*
X134771484Y-126044358D01*
X135102496Y-126539752D01*
X135387222Y-126730000D01*
X135102496Y-126920248D01*
X134771484Y-127415642D01*
X134655248Y-128000000D01*
X134771484Y-128584358D01*
X135102496Y-129079752D01*
X135387222Y-129270000D01*
X135102496Y-129460248D01*
X134771484Y-129955642D01*
X134655248Y-130540000D01*
X134771484Y-131124358D01*
X135102496Y-131619752D01*
X135387222Y-131810000D01*
X135102496Y-132000248D01*
X134771484Y-132495642D01*
X134655248Y-133080000D01*
X134771484Y-133664358D01*
X135102496Y-134159752D01*
X135597890Y-134490764D01*
X136182248Y-134607000D01*
X137057752Y-134607000D01*
X137642110Y-134490764D01*
X138137504Y-134159752D01*
X138158758Y-134127943D01*
X138158758Y-134600000D01*
X138209451Y-134869410D01*
X138368672Y-135116846D01*
X138611615Y-135282843D01*
X138900000Y-135341242D01*
X140600000Y-135341242D01*
X140869410Y-135290549D01*
X141116846Y-135131328D01*
X141282843Y-134888385D01*
X141341242Y-134600000D01*
X141341242Y-132900000D01*
X141290549Y-132630590D01*
X141131328Y-132383154D01*
X140943136Y-132254567D01*
X141237853Y-131813492D01*
X141357895Y-131210000D01*
X141237853Y-130606508D01*
X140896002Y-130094893D01*
X140384387Y-129753042D01*
X139780895Y-129633000D01*
X139719105Y-129633000D01*
X139115613Y-129753042D01*
X138603998Y-130094893D01*
X138520940Y-130219197D01*
X138468516Y-129955642D01*
X138137504Y-129460248D01*
X137852778Y-129270000D01*
X138137504Y-129079752D01*
X138468516Y-128584358D01*
X138584752Y-128000000D01*
X138468516Y-127415642D01*
X138137504Y-126920248D01*
X137852778Y-126730000D01*
X138066792Y-126587000D01*
X141681930Y-126587000D01*
X141589236Y-126725726D01*
X141473000Y-127310084D01*
X141473000Y-127369916D01*
X141589236Y-127954274D01*
X141920248Y-128449668D01*
X142415642Y-128780680D01*
X143000000Y-128896916D01*
X143584358Y-128780680D01*
X144079752Y-128449668D01*
X144410764Y-127954274D01*
X144456173Y-127725989D01*
X149213000Y-132482817D01*
X149213000Y-140946187D01*
X148899320Y-141415642D01*
X148792247Y-141953934D01*
X146873182Y-143873000D01*
X116466819Y-143873000D01*
X114896226Y-142302407D01*
X121632735Y-142302407D01*
X121864717Y-142863846D01*
X122293894Y-143293773D01*
X122854928Y-143526735D01*
X123462407Y-143527265D01*
X124023846Y-143295283D01*
X124453773Y-142866106D01*
X124686735Y-142305072D01*
X124686743Y-142294881D01*
X124970742Y-142294881D01*
X125196951Y-142842349D01*
X125615448Y-143261577D01*
X126162520Y-143488741D01*
X126754881Y-143489258D01*
X127302349Y-143263049D01*
X127721577Y-142844552D01*
X127729739Y-142824895D01*
X127736951Y-142842349D01*
X128155448Y-143261577D01*
X128702520Y-143488741D01*
X129294881Y-143489258D01*
X129842349Y-143263049D01*
X130261577Y-142844552D01*
X130269739Y-142824895D01*
X130276951Y-142842349D01*
X130695448Y-143261577D01*
X131242520Y-143488741D01*
X131834881Y-143489258D01*
X132382349Y-143263049D01*
X132801577Y-142844552D01*
X133028741Y-142297480D01*
X133029000Y-142000000D01*
X133443084Y-142000000D01*
X133559320Y-142584358D01*
X133890332Y-143079752D01*
X134385726Y-143410764D01*
X134970084Y-143527000D01*
X135029916Y-143527000D01*
X135614274Y-143410764D01*
X136109668Y-143079752D01*
X136440680Y-142584358D01*
X136496763Y-142302407D01*
X143632735Y-142302407D01*
X143864717Y-142863846D01*
X144293894Y-143293773D01*
X144854928Y-143526735D01*
X145462407Y-143527265D01*
X146023846Y-143295283D01*
X146453773Y-142866106D01*
X146686735Y-142305072D01*
X146687265Y-141697593D01*
X146455283Y-141136154D01*
X146026106Y-140706227D01*
X145465072Y-140473265D01*
X144857593Y-140472735D01*
X144296154Y-140704717D01*
X143866227Y-141133894D01*
X143633265Y-141694928D01*
X143632735Y-142302407D01*
X136496763Y-142302407D01*
X136556916Y-142000000D01*
X136440680Y-141415642D01*
X136109668Y-140920248D01*
X135614274Y-140589236D01*
X135029916Y-140473000D01*
X134970084Y-140473000D01*
X134385726Y-140589236D01*
X133890332Y-140920248D01*
X133559320Y-141415642D01*
X133443084Y-142000000D01*
X133029000Y-142000000D01*
X133029258Y-141705119D01*
X132803049Y-141157651D01*
X132384552Y-140738423D01*
X131837480Y-140511259D01*
X131245119Y-140510742D01*
X130697651Y-140736951D01*
X130278423Y-141155448D01*
X130270261Y-141175105D01*
X130263049Y-141157651D01*
X129844552Y-140738423D01*
X129297480Y-140511259D01*
X128705119Y-140510742D01*
X128157651Y-140736951D01*
X127738423Y-141155448D01*
X127730261Y-141175105D01*
X127723049Y-141157651D01*
X127304552Y-140738423D01*
X126757480Y-140511259D01*
X126165119Y-140510742D01*
X125617651Y-140736951D01*
X125198423Y-141155448D01*
X124971259Y-141702520D01*
X124970742Y-142294881D01*
X124686743Y-142294881D01*
X124687265Y-141697593D01*
X124455283Y-141136154D01*
X124026106Y-140706227D01*
X123465072Y-140473265D01*
X122857593Y-140472735D01*
X122296154Y-140704717D01*
X121866227Y-141133894D01*
X121633265Y-141694928D01*
X121632735Y-142302407D01*
X114896226Y-142302407D01*
X114547753Y-141953935D01*
X114440680Y-141415642D01*
X114127000Y-140946187D01*
X114127000Y-137802407D01*
X141472735Y-137802407D01*
X141704717Y-138363846D01*
X142133894Y-138793773D01*
X142694928Y-139026735D01*
X143302407Y-139027265D01*
X143863846Y-138795283D01*
X144293773Y-138366106D01*
X144526735Y-137805072D01*
X144527265Y-137197593D01*
X144295283Y-136636154D01*
X143866106Y-136206227D01*
X143305072Y-135973265D01*
X142697593Y-135972735D01*
X142136154Y-136204717D01*
X141706227Y-136633894D01*
X141473265Y-137194928D01*
X141472735Y-137802407D01*
X114127000Y-137802407D01*
X114127000Y-133007745D01*
X117171861Y-133007745D01*
X117245995Y-133253864D01*
X117783223Y-133446965D01*
X118353454Y-133419778D01*
X118754005Y-133253864D01*
X118828139Y-133007745D01*
X118000000Y-132179605D01*
X117171861Y-133007745D01*
X114127000Y-133007745D01*
X114127000Y-131783223D01*
X116553035Y-131783223D01*
X116580222Y-132353454D01*
X116746136Y-132754005D01*
X116992255Y-132828139D01*
X117820395Y-132000000D01*
X118179605Y-132000000D01*
X119007745Y-132828139D01*
X119253864Y-132754005D01*
X119416186Y-132302407D01*
X121472735Y-132302407D01*
X121704717Y-132863846D01*
X122133894Y-133293773D01*
X122694928Y-133526735D01*
X123302407Y-133527265D01*
X123863846Y-133295283D01*
X124293773Y-132866106D01*
X124526735Y-132305072D01*
X124527265Y-131697593D01*
X124295283Y-131136154D01*
X123866106Y-130706227D01*
X123305072Y-130473265D01*
X122697593Y-130472735D01*
X122136154Y-130704717D01*
X121706227Y-131133894D01*
X121473265Y-131694928D01*
X121472735Y-132302407D01*
X119416186Y-132302407D01*
X119446965Y-132216777D01*
X119419778Y-131646546D01*
X119253864Y-131245995D01*
X119007745Y-131171861D01*
X118179605Y-132000000D01*
X117820395Y-132000000D01*
X116992255Y-131171861D01*
X116746136Y-131245995D01*
X116553035Y-131783223D01*
X114127000Y-131783223D01*
X114127000Y-130992255D01*
X117171861Y-130992255D01*
X118000000Y-131820395D01*
X118828139Y-130992255D01*
X118754005Y-130746136D01*
X118216777Y-130553035D01*
X117646546Y-130580222D01*
X117245995Y-130746136D01*
X117171861Y-130992255D01*
X114127000Y-130992255D01*
X114127000Y-128000000D01*
X127035248Y-128000000D01*
X127151484Y-128584358D01*
X127482496Y-129079752D01*
X127767222Y-129270000D01*
X127482496Y-129460248D01*
X127151484Y-129955642D01*
X127035248Y-130540000D01*
X127151484Y-131124358D01*
X127482496Y-131619752D01*
X127767222Y-131810000D01*
X127482496Y-132000248D01*
X127151484Y-132495642D01*
X127035248Y-133080000D01*
X127151484Y-133664358D01*
X127482496Y-134159752D01*
X127977890Y-134490764D01*
X128562248Y-134607000D01*
X129437752Y-134607000D01*
X130022110Y-134490764D01*
X130517504Y-134159752D01*
X130848516Y-133664358D01*
X130964752Y-133080000D01*
X130848516Y-132495642D01*
X130517504Y-132000248D01*
X130232778Y-131810000D01*
X130517504Y-131619752D01*
X130848516Y-131124358D01*
X130964752Y-130540000D01*
X130848516Y-129955642D01*
X130517504Y-129460248D01*
X130232778Y-129270000D01*
X130517504Y-129079752D01*
X130848516Y-128584358D01*
X130964752Y-128000000D01*
X130848516Y-127415642D01*
X130517504Y-126920248D01*
X130517011Y-126919919D01*
X130716846Y-126791328D01*
X130882843Y-126548385D01*
X130941242Y-126260000D01*
X130941242Y-124660000D01*
X130890549Y-124390590D01*
X130731328Y-124143154D01*
X130488385Y-123977157D01*
X130200000Y-123918758D01*
X127800000Y-123918758D01*
X127530590Y-123969451D01*
X127283154Y-124128672D01*
X127117157Y-124371615D01*
X127058758Y-124660000D01*
X127058758Y-126260000D01*
X127109451Y-126529410D01*
X127268672Y-126776846D01*
X127481258Y-126922101D01*
X127151484Y-127415642D01*
X127035248Y-128000000D01*
X114127000Y-128000000D01*
X114127000Y-126007745D01*
X117171861Y-126007745D01*
X117245995Y-126253864D01*
X117783223Y-126446965D01*
X118353454Y-126419778D01*
X118754005Y-126253864D01*
X118828139Y-126007745D01*
X118000000Y-125179605D01*
X117171861Y-126007745D01*
X114127000Y-126007745D01*
X114127000Y-124783223D01*
X116553035Y-124783223D01*
X116580222Y-125353454D01*
X116746136Y-125754005D01*
X116992255Y-125828139D01*
X117820395Y-125000000D01*
X118179605Y-125000000D01*
X119007745Y-125828139D01*
X119253864Y-125754005D01*
X119416186Y-125302407D01*
X121472735Y-125302407D01*
X121704717Y-125863846D01*
X122133894Y-126293773D01*
X122694928Y-126526735D01*
X123302407Y-126527265D01*
X123863846Y-126295283D01*
X124293773Y-125866106D01*
X124526735Y-125305072D01*
X124527265Y-124697593D01*
X124295283Y-124136154D01*
X123866106Y-123706227D01*
X123305072Y-123473265D01*
X122697593Y-123472735D01*
X122136154Y-123704717D01*
X121706227Y-124133894D01*
X121473265Y-124694928D01*
X121472735Y-125302407D01*
X119416186Y-125302407D01*
X119446965Y-125216777D01*
X119419778Y-124646546D01*
X119253864Y-124245995D01*
X119007745Y-124171861D01*
X118179605Y-125000000D01*
X117820395Y-125000000D01*
X116992255Y-124171861D01*
X116746136Y-124245995D01*
X116553035Y-124783223D01*
X114127000Y-124783223D01*
X114127000Y-123992255D01*
X117171861Y-123992255D01*
X118000000Y-124820395D01*
X118828139Y-123992255D01*
X118754005Y-123746136D01*
X118216777Y-123553035D01*
X117646546Y-123580222D01*
X117245995Y-123746136D01*
X117171861Y-123992255D01*
X114127000Y-123992255D01*
X114127000Y-123466818D01*
X114631411Y-122962407D01*
X141472735Y-122962407D01*
X141704717Y-123523846D01*
X142133894Y-123953773D01*
X142694928Y-124186735D01*
X143302407Y-124187265D01*
X143774366Y-123992255D01*
X154171861Y-123992255D01*
X155000000Y-124820395D01*
X155828139Y-123992255D01*
X155754005Y-123746136D01*
X155216777Y-123553035D01*
X154646546Y-123580222D01*
X154245995Y-123746136D01*
X154171861Y-123992255D01*
X143774366Y-123992255D01*
X143863846Y-123955283D01*
X144293773Y-123526106D01*
X144526735Y-122965072D01*
X144527265Y-122357593D01*
X144295283Y-121796154D01*
X143866106Y-121366227D01*
X143305072Y-121133265D01*
X142697593Y-121132735D01*
X142136154Y-121364717D01*
X141706227Y-121793894D01*
X141473265Y-122354928D01*
X141472735Y-122962407D01*
X114631411Y-122962407D01*
X116291411Y-121302407D01*
X126312735Y-121302407D01*
X126544717Y-121863846D01*
X126973894Y-122293773D01*
X127534928Y-122526735D01*
X128142407Y-122527265D01*
X128703846Y-122295283D01*
X129133773Y-121866106D01*
X129366735Y-121305072D01*
X129367001Y-121000000D01*
X136443084Y-121000000D01*
X136559320Y-121584358D01*
X136890332Y-122079752D01*
X137385726Y-122410764D01*
X137970084Y-122527000D01*
X138029916Y-122527000D01*
X138614274Y-122410764D01*
X139109668Y-122079752D01*
X139440680Y-121584358D01*
X139556916Y-121000000D01*
X139517613Y-120802407D01*
X164312735Y-120802407D01*
X164544717Y-121363846D01*
X164973894Y-121793773D01*
X165534928Y-122026735D01*
X166142407Y-122027265D01*
X166703846Y-121795283D01*
X167133773Y-121366106D01*
X167366735Y-120805072D01*
X167367001Y-120500000D01*
X174443084Y-120500000D01*
X174559320Y-121084358D01*
X174890332Y-121579752D01*
X175385726Y-121910764D01*
X175970084Y-122027000D01*
X176029916Y-122027000D01*
X176614274Y-121910764D01*
X177109668Y-121579752D01*
X177440680Y-121084358D01*
X177496763Y-120802407D01*
X202972735Y-120802407D01*
X203204717Y-121363846D01*
X203633894Y-121793773D01*
X204194928Y-122026735D01*
X204802407Y-122027265D01*
X205363846Y-121795283D01*
X205793773Y-121366106D01*
X206026735Y-120805072D01*
X206027001Y-120500000D01*
X213103084Y-120500000D01*
X213219320Y-121084358D01*
X213550332Y-121579752D01*
X214045726Y-121910764D01*
X214630084Y-122027000D01*
X214689916Y-122027000D01*
X215274274Y-121910764D01*
X215769668Y-121579752D01*
X216100680Y-121084358D01*
X216216916Y-120500000D01*
X216100680Y-119915642D01*
X215769668Y-119420248D01*
X215274274Y-119089236D01*
X214689916Y-118973000D01*
X214630084Y-118973000D01*
X214045726Y-119089236D01*
X213550332Y-119420248D01*
X213219320Y-119915642D01*
X213103084Y-120500000D01*
X206027001Y-120500000D01*
X206027265Y-120197593D01*
X205795283Y-119636154D01*
X205366106Y-119206227D01*
X204805072Y-118973265D01*
X204197593Y-118972735D01*
X203636154Y-119204717D01*
X203206227Y-119633894D01*
X202973265Y-120194928D01*
X202972735Y-120802407D01*
X177496763Y-120802407D01*
X177556916Y-120500000D01*
X177440680Y-119915642D01*
X177109668Y-119420248D01*
X176614274Y-119089236D01*
X176029916Y-118973000D01*
X175970084Y-118973000D01*
X175385726Y-119089236D01*
X174890332Y-119420248D01*
X174559320Y-119915642D01*
X174443084Y-120500000D01*
X167367001Y-120500000D01*
X167367265Y-120197593D01*
X167135283Y-119636154D01*
X166706106Y-119206227D01*
X166145072Y-118973265D01*
X165537593Y-118972735D01*
X164976154Y-119204717D01*
X164546227Y-119633894D01*
X164313265Y-120194928D01*
X164312735Y-120802407D01*
X139517613Y-120802407D01*
X139440680Y-120415642D01*
X139109668Y-119920248D01*
X138614274Y-119589236D01*
X138029916Y-119473000D01*
X137970084Y-119473000D01*
X137385726Y-119589236D01*
X136890332Y-119920248D01*
X136559320Y-120415642D01*
X136443084Y-121000000D01*
X129367001Y-121000000D01*
X129367265Y-120697593D01*
X129135283Y-120136154D01*
X128706106Y-119706227D01*
X128145072Y-119473265D01*
X127537593Y-119472735D01*
X126976154Y-119704717D01*
X126546227Y-120133894D01*
X126313265Y-120694928D01*
X126312735Y-121302407D01*
X116291411Y-121302407D01*
X120693818Y-116900000D01*
X130118758Y-116900000D01*
X130118758Y-118600000D01*
X130169451Y-118869410D01*
X130328672Y-119116846D01*
X130571615Y-119282843D01*
X130860000Y-119341242D01*
X132560000Y-119341242D01*
X132829410Y-119290549D01*
X133076846Y-119131328D01*
X133205433Y-118943136D01*
X133646508Y-119237853D01*
X134250000Y-119357895D01*
X134853492Y-119237853D01*
X135365107Y-118896002D01*
X135706958Y-118384387D01*
X135827000Y-117780895D01*
X135827000Y-117719105D01*
X135706958Y-117115613D01*
X135365107Y-116603998D01*
X135059804Y-116400000D01*
X168118758Y-116400000D01*
X168118758Y-118100000D01*
X168169451Y-118369410D01*
X168328672Y-118616846D01*
X168571615Y-118782843D01*
X168860000Y-118841242D01*
X170560000Y-118841242D01*
X170829410Y-118790549D01*
X171076846Y-118631328D01*
X171205433Y-118443136D01*
X171646508Y-118737853D01*
X172250000Y-118857895D01*
X172853492Y-118737853D01*
X173365107Y-118396002D01*
X173706958Y-117884387D01*
X173827000Y-117280895D01*
X173827000Y-117219105D01*
X173706958Y-116615613D01*
X173562890Y-116400000D01*
X206868758Y-116400000D01*
X206868758Y-118100000D01*
X206919451Y-118369410D01*
X207078672Y-118616846D01*
X207321615Y-118782843D01*
X207610000Y-118841242D01*
X209310000Y-118841242D01*
X209579410Y-118790549D01*
X209826846Y-118631328D01*
X209955433Y-118443136D01*
X210396508Y-118737853D01*
X211000000Y-118857895D01*
X211603492Y-118737853D01*
X212115107Y-118396002D01*
X212456958Y-117884387D01*
X212577000Y-117280895D01*
X212577000Y-117219105D01*
X212456958Y-116615613D01*
X212115107Y-116103998D01*
X211603492Y-115762147D01*
X211000000Y-115642105D01*
X210396508Y-115762147D01*
X209953807Y-116057951D01*
X209841328Y-115883154D01*
X209598385Y-115717157D01*
X209310000Y-115658758D01*
X207610000Y-115658758D01*
X207340590Y-115709451D01*
X207093154Y-115868672D01*
X206927157Y-116111615D01*
X206868758Y-116400000D01*
X173562890Y-116400000D01*
X173365107Y-116103998D01*
X172853492Y-115762147D01*
X172250000Y-115642105D01*
X171646508Y-115762147D01*
X171203807Y-116057951D01*
X171091328Y-115883154D01*
X170848385Y-115717157D01*
X170560000Y-115658758D01*
X168860000Y-115658758D01*
X168590590Y-115709451D01*
X168343154Y-115868672D01*
X168177157Y-116111615D01*
X168118758Y-116400000D01*
X135059804Y-116400000D01*
X134853492Y-116262147D01*
X134250000Y-116142105D01*
X133646508Y-116262147D01*
X133203807Y-116557951D01*
X133091328Y-116383154D01*
X132848385Y-116217157D01*
X132560000Y-116158758D01*
X130860000Y-116158758D01*
X130590590Y-116209451D01*
X130343154Y-116368672D01*
X130177157Y-116611615D01*
X130118758Y-116900000D01*
X120693818Y-116900000D01*
X124796909Y-112796909D01*
X125015286Y-112470084D01*
X127973000Y-112470084D01*
X127973000Y-112529916D01*
X128089236Y-113114274D01*
X128420248Y-113609668D01*
X128915642Y-113940680D01*
X129500000Y-114056916D01*
X130084358Y-113940680D01*
X130579752Y-113609668D01*
X130910764Y-113114274D01*
X131007075Y-112630084D01*
X134973000Y-112630084D01*
X134973000Y-112689916D01*
X135089236Y-113274274D01*
X135420248Y-113769668D01*
X135915642Y-114100680D01*
X136500000Y-114216916D01*
X137084358Y-114100680D01*
X137579752Y-113769668D01*
X137910764Y-113274274D01*
X138027000Y-112689916D01*
X138027000Y-112630084D01*
X137995175Y-112470084D01*
X141473000Y-112470084D01*
X141473000Y-112529916D01*
X141589236Y-113114274D01*
X141920248Y-113609668D01*
X142415642Y-113940680D01*
X143000000Y-114056916D01*
X143584358Y-113940680D01*
X144079752Y-113609668D01*
X144410764Y-113114274D01*
X144439445Y-112970084D01*
X165973000Y-112970084D01*
X165973000Y-113029916D01*
X166089236Y-113614274D01*
X166420248Y-114109668D01*
X166915642Y-114440680D01*
X167500000Y-114556916D01*
X168084358Y-114440680D01*
X168579752Y-114109668D01*
X168910764Y-113614274D01*
X169007075Y-113130084D01*
X172973000Y-113130084D01*
X172973000Y-113189916D01*
X173089236Y-113774274D01*
X173420248Y-114269668D01*
X173915642Y-114600680D01*
X174500000Y-114716916D01*
X175084358Y-114600680D01*
X175579752Y-114269668D01*
X175910764Y-113774274D01*
X176027000Y-113189916D01*
X176027000Y-113130084D01*
X175995175Y-112970084D01*
X178973000Y-112970084D01*
X178973000Y-113029916D01*
X179089236Y-113614274D01*
X179420248Y-114109668D01*
X179915642Y-114440680D01*
X180500000Y-114556916D01*
X181084358Y-114440680D01*
X181579752Y-114109668D01*
X181910764Y-113614274D01*
X182007075Y-113130084D01*
X204473000Y-113130084D01*
X204473000Y-113189916D01*
X204589236Y-113774274D01*
X204920248Y-114269668D01*
X205415642Y-114600680D01*
X206000000Y-114716916D01*
X206584358Y-114600680D01*
X207079752Y-114269668D01*
X207410764Y-113774274D01*
X207527000Y-113189916D01*
X207527000Y-113130084D01*
X210973000Y-113130084D01*
X210973000Y-113189916D01*
X211089236Y-113774274D01*
X211420248Y-114269668D01*
X211915642Y-114600680D01*
X212500000Y-114716916D01*
X213084358Y-114600680D01*
X213579752Y-114269668D01*
X213910764Y-113774274D01*
X214027000Y-113189916D01*
X214027000Y-113130084D01*
X213995175Y-112970084D01*
X217973000Y-112970084D01*
X217973000Y-113029916D01*
X218089236Y-113614274D01*
X218420248Y-114109668D01*
X218915642Y-114440680D01*
X219500000Y-114556916D01*
X220084358Y-114440680D01*
X220579752Y-114109668D01*
X220910764Y-113614274D01*
X221027000Y-113029916D01*
X221027000Y-112970084D01*
X220910764Y-112385726D01*
X220579752Y-111890332D01*
X220084358Y-111559320D01*
X219500000Y-111443084D01*
X218915642Y-111559320D01*
X218420248Y-111890332D01*
X218089236Y-112385726D01*
X217973000Y-112970084D01*
X213995175Y-112970084D01*
X213910764Y-112545726D01*
X213579752Y-112050332D01*
X213084358Y-111719320D01*
X212500000Y-111603084D01*
X211915642Y-111719320D01*
X211420248Y-112050332D01*
X211089236Y-112545726D01*
X210973000Y-113130084D01*
X207527000Y-113130084D01*
X207410764Y-112545726D01*
X207079752Y-112050332D01*
X206584358Y-111719320D01*
X206000000Y-111603084D01*
X205415642Y-111719320D01*
X204920248Y-112050332D01*
X204589236Y-112545726D01*
X204473000Y-113130084D01*
X182007075Y-113130084D01*
X182027000Y-113029916D01*
X182027000Y-112970084D01*
X181910764Y-112385726D01*
X181579752Y-111890332D01*
X181084358Y-111559320D01*
X180500000Y-111443084D01*
X179915642Y-111559320D01*
X179420248Y-111890332D01*
X179089236Y-112385726D01*
X178973000Y-112970084D01*
X175995175Y-112970084D01*
X175910764Y-112545726D01*
X175579752Y-112050332D01*
X175084358Y-111719320D01*
X174500000Y-111603084D01*
X173915642Y-111719320D01*
X173420248Y-112050332D01*
X173089236Y-112545726D01*
X172973000Y-113130084D01*
X169007075Y-113130084D01*
X169027000Y-113029916D01*
X169027000Y-112970084D01*
X168910764Y-112385726D01*
X168579752Y-111890332D01*
X168084358Y-111559320D01*
X167500000Y-111443084D01*
X166915642Y-111559320D01*
X166420248Y-111890332D01*
X166089236Y-112385726D01*
X165973000Y-112970084D01*
X144439445Y-112970084D01*
X144527000Y-112529916D01*
X144527000Y-112470084D01*
X144410764Y-111885726D01*
X144079752Y-111390332D01*
X143584358Y-111059320D01*
X143000000Y-110943084D01*
X142415642Y-111059320D01*
X141920248Y-111390332D01*
X141589236Y-111885726D01*
X141473000Y-112470084D01*
X137995175Y-112470084D01*
X137910764Y-112045726D01*
X137579752Y-111550332D01*
X137084358Y-111219320D01*
X136500000Y-111103084D01*
X135915642Y-111219320D01*
X135420248Y-111550332D01*
X135089236Y-112045726D01*
X134973000Y-112630084D01*
X131007075Y-112630084D01*
X131027000Y-112529916D01*
X131027000Y-112470084D01*
X130910764Y-111885726D01*
X130579752Y-111390332D01*
X130084358Y-111059320D01*
X129500000Y-110943084D01*
X128915642Y-111059320D01*
X128420248Y-111390332D01*
X128089236Y-111885726D01*
X127973000Y-112470084D01*
X125015286Y-112470084D01*
X125041212Y-112431284D01*
X125050274Y-112385726D01*
X125127000Y-112000000D01*
X125127000Y-109302407D01*
X141472735Y-109302407D01*
X141704717Y-109863846D01*
X142133894Y-110293773D01*
X142694928Y-110526735D01*
X143302407Y-110527265D01*
X143863846Y-110295283D01*
X144293773Y-109866106D01*
X144320223Y-109802407D01*
X178972735Y-109802407D01*
X179204717Y-110363846D01*
X179633894Y-110793773D01*
X180194928Y-111026735D01*
X180802407Y-111027265D01*
X181363846Y-110795283D01*
X181793773Y-110366106D01*
X182026735Y-109805072D01*
X182027173Y-109302407D01*
X217972735Y-109302407D01*
X218204717Y-109863846D01*
X218633894Y-110293773D01*
X219194928Y-110526735D01*
X219802407Y-110527265D01*
X220363846Y-110295283D01*
X220793773Y-109866106D01*
X221026735Y-109305072D01*
X221027265Y-108697593D01*
X220795283Y-108136154D01*
X220366106Y-107706227D01*
X219805072Y-107473265D01*
X219197593Y-107472735D01*
X218636154Y-107704717D01*
X218206227Y-108133894D01*
X217973265Y-108694928D01*
X217972735Y-109302407D01*
X182027173Y-109302407D01*
X182027265Y-109197593D01*
X181795283Y-108636154D01*
X181366106Y-108206227D01*
X180805072Y-107973265D01*
X180197593Y-107972735D01*
X179636154Y-108204717D01*
X179206227Y-108633894D01*
X178973265Y-109194928D01*
X178972735Y-109802407D01*
X144320223Y-109802407D01*
X144526735Y-109305072D01*
X144527265Y-108697593D01*
X144295283Y-108136154D01*
X143866106Y-107706227D01*
X143305072Y-107473265D01*
X142697593Y-107472735D01*
X142136154Y-107704717D01*
X141706227Y-108133894D01*
X141473265Y-108694928D01*
X141472735Y-109302407D01*
X125127000Y-109302407D01*
X125127000Y-105507745D01*
X179671861Y-105507745D01*
X179745995Y-105753864D01*
X180283223Y-105946965D01*
X180853454Y-105919778D01*
X181254005Y-105753864D01*
X181328139Y-105507745D01*
X180500000Y-104679605D01*
X179671861Y-105507745D01*
X125127000Y-105507745D01*
X125127000Y-105007745D01*
X142171861Y-105007745D01*
X142245995Y-105253864D01*
X142783223Y-105446965D01*
X143353454Y-105419778D01*
X143754005Y-105253864D01*
X143828139Y-105007745D01*
X143000000Y-104179605D01*
X142171861Y-105007745D01*
X125127000Y-105007745D01*
X125127000Y-99802407D01*
X127972735Y-99802407D01*
X128204717Y-100363846D01*
X128633894Y-100793773D01*
X128937937Y-100920023D01*
X128636154Y-101044717D01*
X128206227Y-101473894D01*
X127973265Y-102034928D01*
X127972735Y-102642407D01*
X128204717Y-103203846D01*
X128633894Y-103633773D01*
X129194928Y-103866735D01*
X129802407Y-103867265D01*
X130363846Y-103635283D01*
X130793773Y-103206106D01*
X131026735Y-102645072D01*
X131027265Y-102037593D01*
X130795283Y-101476154D01*
X130366106Y-101046227D01*
X130062063Y-100919977D01*
X130363846Y-100795283D01*
X130793773Y-100366106D01*
X131026735Y-99805072D01*
X131026737Y-99802407D01*
X134972735Y-99802407D01*
X135204717Y-100363846D01*
X135633894Y-100793773D01*
X136131074Y-101000220D01*
X135636154Y-101204717D01*
X135206227Y-101633894D01*
X134973265Y-102194928D01*
X134972735Y-102802407D01*
X135204717Y-103363846D01*
X135633894Y-103793773D01*
X136194928Y-104026735D01*
X136802407Y-104027265D01*
X137363846Y-103795283D01*
X137375927Y-103783223D01*
X141553035Y-103783223D01*
X141580222Y-104353454D01*
X141746136Y-104754005D01*
X141992255Y-104828139D01*
X142820395Y-104000000D01*
X143179605Y-104000000D01*
X144007745Y-104828139D01*
X144253864Y-104754005D01*
X144446965Y-104216777D01*
X144419778Y-103646546D01*
X144253864Y-103245995D01*
X144007745Y-103171861D01*
X143179605Y-104000000D01*
X142820395Y-104000000D01*
X141992255Y-103171861D01*
X141746136Y-103245995D01*
X141553035Y-103783223D01*
X137375927Y-103783223D01*
X137793773Y-103366106D01*
X137949009Y-102992255D01*
X142171861Y-102992255D01*
X143000000Y-103820395D01*
X143828139Y-102992255D01*
X143754005Y-102746136D01*
X143216777Y-102553035D01*
X142646546Y-102580222D01*
X142245995Y-102746136D01*
X142171861Y-102992255D01*
X137949009Y-102992255D01*
X138026735Y-102805072D01*
X138027265Y-102197593D01*
X137795283Y-101636154D01*
X137366106Y-101206227D01*
X136868926Y-100999780D01*
X137363846Y-100795283D01*
X137793773Y-100366106D01*
X137820223Y-100302407D01*
X165972735Y-100302407D01*
X166204717Y-100863846D01*
X166633894Y-101293773D01*
X166937937Y-101420023D01*
X166636154Y-101544717D01*
X166206227Y-101973894D01*
X165973265Y-102534928D01*
X165972735Y-103142407D01*
X166204717Y-103703846D01*
X166633894Y-104133773D01*
X167194928Y-104366735D01*
X167802407Y-104367265D01*
X168363846Y-104135283D01*
X168793773Y-103706106D01*
X169026735Y-103145072D01*
X169027265Y-102537593D01*
X168795283Y-101976154D01*
X168366106Y-101546227D01*
X168062063Y-101419977D01*
X168363846Y-101295283D01*
X168793773Y-100866106D01*
X169026735Y-100305072D01*
X169026737Y-100302407D01*
X172972735Y-100302407D01*
X173204717Y-100863846D01*
X173633894Y-101293773D01*
X174131074Y-101500220D01*
X173636154Y-101704717D01*
X173206227Y-102133894D01*
X172973265Y-102694928D01*
X172972735Y-103302407D01*
X173204717Y-103863846D01*
X173633894Y-104293773D01*
X174194928Y-104526735D01*
X174802407Y-104527265D01*
X175363846Y-104295283D01*
X175375927Y-104283223D01*
X179053035Y-104283223D01*
X179080222Y-104853454D01*
X179246136Y-105254005D01*
X179492255Y-105328139D01*
X180320395Y-104500000D01*
X180679605Y-104500000D01*
X181507745Y-105328139D01*
X181753864Y-105254005D01*
X181842379Y-105007745D01*
X218671861Y-105007745D01*
X218745995Y-105253864D01*
X219283223Y-105446965D01*
X219853454Y-105419778D01*
X220254005Y-105253864D01*
X220328139Y-105007745D01*
X219500000Y-104179605D01*
X218671861Y-105007745D01*
X181842379Y-105007745D01*
X181946965Y-104716777D01*
X181919778Y-104146546D01*
X181753864Y-103745995D01*
X181507745Y-103671861D01*
X180679605Y-104500000D01*
X180320395Y-104500000D01*
X179492255Y-103671861D01*
X179246136Y-103745995D01*
X179053035Y-104283223D01*
X175375927Y-104283223D01*
X175793773Y-103866106D01*
X175949009Y-103492255D01*
X179671861Y-103492255D01*
X180500000Y-104320395D01*
X181328139Y-103492255D01*
X181254005Y-103246136D01*
X180716777Y-103053035D01*
X180146546Y-103080222D01*
X179745995Y-103246136D01*
X179671861Y-103492255D01*
X175949009Y-103492255D01*
X176026735Y-103305072D01*
X176027265Y-102697593D01*
X175795283Y-102136154D01*
X175366106Y-101706227D01*
X174868926Y-101499780D01*
X175363846Y-101295283D01*
X175793773Y-100866106D01*
X176026735Y-100305072D01*
X176026737Y-100302407D01*
X204472735Y-100302407D01*
X204704717Y-100863846D01*
X205133894Y-101293773D01*
X205631074Y-101500220D01*
X205136154Y-101704717D01*
X204706227Y-102133894D01*
X204473265Y-102694928D01*
X204472735Y-103302407D01*
X204704717Y-103863846D01*
X205133894Y-104293773D01*
X205694928Y-104526735D01*
X206302407Y-104527265D01*
X206863846Y-104295283D01*
X207293773Y-103866106D01*
X207526735Y-103305072D01*
X207527265Y-102697593D01*
X207295283Y-102136154D01*
X206866106Y-101706227D01*
X206368926Y-101499780D01*
X206863846Y-101295283D01*
X207293773Y-100866106D01*
X207526735Y-100305072D01*
X207526737Y-100302407D01*
X210972735Y-100302407D01*
X211204717Y-100863846D01*
X211633894Y-101293773D01*
X212131074Y-101500220D01*
X211636154Y-101704717D01*
X211206227Y-102133894D01*
X210973265Y-102694928D01*
X210972735Y-103302407D01*
X211204717Y-103863846D01*
X211633894Y-104293773D01*
X212194928Y-104526735D01*
X212802407Y-104527265D01*
X213363846Y-104295283D01*
X213793773Y-103866106D01*
X213828189Y-103783223D01*
X218053035Y-103783223D01*
X218080222Y-104353454D01*
X218246136Y-104754005D01*
X218492255Y-104828139D01*
X219320395Y-104000000D01*
X219679605Y-104000000D01*
X220507745Y-104828139D01*
X220753864Y-104754005D01*
X220946965Y-104216777D01*
X220919778Y-103646546D01*
X220753864Y-103245995D01*
X220507745Y-103171861D01*
X219679605Y-104000000D01*
X219320395Y-104000000D01*
X218492255Y-103171861D01*
X218246136Y-103245995D01*
X218053035Y-103783223D01*
X213828189Y-103783223D01*
X214026735Y-103305072D01*
X214027007Y-102992255D01*
X218671861Y-102992255D01*
X219500000Y-103820395D01*
X220328139Y-102992255D01*
X220254005Y-102746136D01*
X219716777Y-102553035D01*
X219146546Y-102580222D01*
X218745995Y-102746136D01*
X218671861Y-102992255D01*
X214027007Y-102992255D01*
X214027265Y-102697593D01*
X213795283Y-102136154D01*
X213366106Y-101706227D01*
X212868926Y-101499780D01*
X213363846Y-101295283D01*
X213793773Y-100866106D01*
X214026735Y-100305072D01*
X214027265Y-99697593D01*
X213795283Y-99136154D01*
X213366106Y-98706227D01*
X212805072Y-98473265D01*
X212197593Y-98472735D01*
X211636154Y-98704717D01*
X211206227Y-99133894D01*
X210973265Y-99694928D01*
X210972735Y-100302407D01*
X207526737Y-100302407D01*
X207527265Y-99697593D01*
X207295283Y-99136154D01*
X206866106Y-98706227D01*
X206305072Y-98473265D01*
X205697593Y-98472735D01*
X205136154Y-98704717D01*
X204706227Y-99133894D01*
X204473265Y-99694928D01*
X204472735Y-100302407D01*
X176026737Y-100302407D01*
X176027265Y-99697593D01*
X175795283Y-99136154D01*
X175366106Y-98706227D01*
X174805072Y-98473265D01*
X174197593Y-98472735D01*
X173636154Y-98704717D01*
X173206227Y-99133894D01*
X172973265Y-99694928D01*
X172972735Y-100302407D01*
X169026737Y-100302407D01*
X169027265Y-99697593D01*
X168795283Y-99136154D01*
X168366106Y-98706227D01*
X167805072Y-98473265D01*
X167197593Y-98472735D01*
X166636154Y-98704717D01*
X166206227Y-99133894D01*
X165973265Y-99694928D01*
X165972735Y-100302407D01*
X137820223Y-100302407D01*
X138026735Y-99805072D01*
X138027265Y-99197593D01*
X137795283Y-98636154D01*
X137366106Y-98206227D01*
X136805072Y-97973265D01*
X136197593Y-97972735D01*
X135636154Y-98204717D01*
X135206227Y-98633894D01*
X134973265Y-99194928D01*
X134972735Y-99802407D01*
X131026737Y-99802407D01*
X131027265Y-99197593D01*
X130795283Y-98636154D01*
X130366106Y-98206227D01*
X129805072Y-97973265D01*
X129197593Y-97972735D01*
X128636154Y-98204717D01*
X128206227Y-98633894D01*
X127973265Y-99194928D01*
X127972735Y-99802407D01*
X125127000Y-99802407D01*
X125127000Y-94802407D01*
X127972735Y-94802407D01*
X128204717Y-95363846D01*
X128633894Y-95793773D01*
X129194928Y-96026735D01*
X129802407Y-96027265D01*
X130363846Y-95795283D01*
X130793773Y-95366106D01*
X131026735Y-94805072D01*
X131026737Y-94802407D01*
X134972735Y-94802407D01*
X135204717Y-95363846D01*
X135633894Y-95793773D01*
X136194928Y-96026735D01*
X136802407Y-96027265D01*
X137363846Y-95795283D01*
X137793773Y-95366106D01*
X137820223Y-95302407D01*
X165972735Y-95302407D01*
X166204717Y-95863846D01*
X166633894Y-96293773D01*
X167194928Y-96526735D01*
X167802407Y-96527265D01*
X168363846Y-96295283D01*
X168793773Y-95866106D01*
X169026735Y-95305072D01*
X169026737Y-95302407D01*
X172972735Y-95302407D01*
X173204717Y-95863846D01*
X173633894Y-96293773D01*
X174194928Y-96526735D01*
X174802407Y-96527265D01*
X175363846Y-96295283D01*
X175793773Y-95866106D01*
X176026735Y-95305072D01*
X176026737Y-95302407D01*
X204472735Y-95302407D01*
X204704717Y-95863846D01*
X205133894Y-96293773D01*
X205694928Y-96526735D01*
X206302407Y-96527265D01*
X206863846Y-96295283D01*
X207293773Y-95866106D01*
X207526735Y-95305072D01*
X207526737Y-95302407D01*
X210972735Y-95302407D01*
X211204717Y-95863846D01*
X211633894Y-96293773D01*
X212194928Y-96526735D01*
X212802407Y-96527265D01*
X213363846Y-96295283D01*
X213793773Y-95866106D01*
X214026735Y-95305072D01*
X214027265Y-94697593D01*
X213795283Y-94136154D01*
X213366106Y-93706227D01*
X212805072Y-93473265D01*
X212197593Y-93472735D01*
X211636154Y-93704717D01*
X211206227Y-94133894D01*
X210973265Y-94694928D01*
X210972735Y-95302407D01*
X207526737Y-95302407D01*
X207527265Y-94697593D01*
X207295283Y-94136154D01*
X206866106Y-93706227D01*
X206305072Y-93473265D01*
X205697593Y-93472735D01*
X205136154Y-93704717D01*
X204706227Y-94133894D01*
X204473265Y-94694928D01*
X204472735Y-95302407D01*
X176026737Y-95302407D01*
X176027265Y-94697593D01*
X175795283Y-94136154D01*
X175366106Y-93706227D01*
X174805072Y-93473265D01*
X174197593Y-93472735D01*
X173636154Y-93704717D01*
X173206227Y-94133894D01*
X172973265Y-94694928D01*
X172972735Y-95302407D01*
X169026737Y-95302407D01*
X169027265Y-94697593D01*
X168795283Y-94136154D01*
X168366106Y-93706227D01*
X167805072Y-93473265D01*
X167197593Y-93472735D01*
X166636154Y-93704717D01*
X166206227Y-94133894D01*
X165973265Y-94694928D01*
X165972735Y-95302407D01*
X137820223Y-95302407D01*
X138026735Y-94805072D01*
X138027265Y-94197593D01*
X137795283Y-93636154D01*
X137366106Y-93206227D01*
X136805072Y-92973265D01*
X136197593Y-92972735D01*
X135636154Y-93204717D01*
X135206227Y-93633894D01*
X134973265Y-94194928D01*
X134972735Y-94802407D01*
X131026737Y-94802407D01*
X131027265Y-94197593D01*
X130795283Y-93636154D01*
X130366106Y-93206227D01*
X129805072Y-92973265D01*
X129197593Y-92972735D01*
X128636154Y-93204717D01*
X128206227Y-93633894D01*
X127973265Y-94194928D01*
X127972735Y-94802407D01*
X125127000Y-94802407D01*
X125127000Y-89484000D01*
X130242758Y-89484000D01*
X130242758Y-91516000D01*
X130293451Y-91785410D01*
X130452672Y-92032846D01*
X130695615Y-92198843D01*
X130984000Y-92257242D01*
X133016000Y-92257242D01*
X133285410Y-92206549D01*
X133532846Y-92047328D01*
X133599207Y-91950207D01*
X133838836Y-92110322D01*
X134505853Y-92243000D01*
X134574147Y-92243000D01*
X135241164Y-92110322D01*
X135806634Y-91732487D01*
X136184469Y-91167017D01*
X136317147Y-90500000D01*
X136214509Y-89984000D01*
X167742758Y-89984000D01*
X167742758Y-92016000D01*
X167793451Y-92285410D01*
X167952672Y-92532846D01*
X168195615Y-92698843D01*
X168484000Y-92757242D01*
X170516000Y-92757242D01*
X170785410Y-92706549D01*
X171032846Y-92547328D01*
X171099207Y-92450207D01*
X171338836Y-92610322D01*
X172005853Y-92743000D01*
X172074147Y-92743000D01*
X172741164Y-92610322D01*
X173306634Y-92232487D01*
X173684469Y-91667017D01*
X173817147Y-91000000D01*
X173684469Y-90332983D01*
X173306634Y-89767513D01*
X172882327Y-89484000D01*
X206202758Y-89484000D01*
X206202758Y-91516000D01*
X206253451Y-91785410D01*
X206412672Y-92032846D01*
X206655615Y-92198843D01*
X206944000Y-92257242D01*
X208976000Y-92257242D01*
X209245410Y-92206549D01*
X209492846Y-92047328D01*
X209559207Y-91950207D01*
X209798836Y-92110322D01*
X210465853Y-92243000D01*
X210534147Y-92243000D01*
X211201164Y-92110322D01*
X211766634Y-91732487D01*
X212144469Y-91167017D01*
X212277147Y-90500000D01*
X212144469Y-89832983D01*
X211766634Y-89267513D01*
X211201164Y-88889678D01*
X210534147Y-88757000D01*
X210465853Y-88757000D01*
X209798836Y-88889678D01*
X209560115Y-89049187D01*
X209507328Y-88967154D01*
X209264385Y-88801157D01*
X208976000Y-88742758D01*
X206944000Y-88742758D01*
X206674590Y-88793451D01*
X206427154Y-88952672D01*
X206261157Y-89195615D01*
X206202758Y-89484000D01*
X172882327Y-89484000D01*
X172741164Y-89389678D01*
X172074147Y-89257000D01*
X172005853Y-89257000D01*
X171338836Y-89389678D01*
X171100115Y-89549187D01*
X171047328Y-89467154D01*
X170804385Y-89301157D01*
X170516000Y-89242758D01*
X168484000Y-89242758D01*
X168214590Y-89293451D01*
X167967154Y-89452672D01*
X167801157Y-89695615D01*
X167742758Y-89984000D01*
X136214509Y-89984000D01*
X136184469Y-89832983D01*
X135806634Y-89267513D01*
X135241164Y-88889678D01*
X134574147Y-88757000D01*
X134505853Y-88757000D01*
X133838836Y-88889678D01*
X133600115Y-89049187D01*
X133547328Y-88967154D01*
X133304385Y-88801157D01*
X133016000Y-88742758D01*
X130984000Y-88742758D01*
X130714590Y-88793451D01*
X130467154Y-88952672D01*
X130301157Y-89195615D01*
X130242758Y-89484000D01*
X125127000Y-89484000D01*
X125127000Y-71007745D01*
X126671861Y-71007745D01*
X126745995Y-71253864D01*
X127283223Y-71446965D01*
X127853454Y-71419778D01*
X128254005Y-71253864D01*
X128328139Y-71007745D01*
X127500000Y-70179605D01*
X126671861Y-71007745D01*
X125127000Y-71007745D01*
X125127000Y-68812885D01*
X125421094Y-69009392D01*
X125468716Y-69041212D01*
X125900000Y-69127000D01*
X126046509Y-69127000D01*
X126168672Y-69316846D01*
X126210417Y-69345369D01*
X126053035Y-69783223D01*
X126080222Y-70353454D01*
X126246136Y-70754005D01*
X126492255Y-70828139D01*
X127320395Y-70000000D01*
X127306252Y-69985858D01*
X127485858Y-69806253D01*
X127500000Y-69820395D01*
X127514143Y-69806253D01*
X127693748Y-69985858D01*
X127679605Y-70000000D01*
X128507745Y-70828139D01*
X128753864Y-70754005D01*
X128946965Y-70216777D01*
X128941631Y-70104881D01*
X193870742Y-70104881D01*
X194096951Y-70652349D01*
X194515448Y-71071577D01*
X195062520Y-71298741D01*
X195654881Y-71299258D01*
X196202349Y-71073049D01*
X196621577Y-70654552D01*
X196629739Y-70634895D01*
X196636951Y-70652349D01*
X197055448Y-71071577D01*
X197602520Y-71298741D01*
X198194881Y-71299258D01*
X198742349Y-71073049D01*
X199161577Y-70654552D01*
X199169739Y-70634895D01*
X199176951Y-70652349D01*
X199595448Y-71071577D01*
X200142520Y-71298741D01*
X200734881Y-71299258D01*
X201282349Y-71073049D01*
X201565679Y-70790213D01*
X202179392Y-70790213D01*
X202248857Y-71032397D01*
X202772302Y-71219144D01*
X203327368Y-71191362D01*
X203711143Y-71032397D01*
X203780608Y-70790213D01*
X202980000Y-69989605D01*
X202179392Y-70790213D01*
X201565679Y-70790213D01*
X201701577Y-70654552D01*
X201753141Y-70530371D01*
X201757603Y-70541143D01*
X201999787Y-70610608D01*
X202800395Y-69810000D01*
X203159605Y-69810000D01*
X203960213Y-70610608D01*
X204202397Y-70541143D01*
X204206384Y-70529967D01*
X204256951Y-70652349D01*
X204675448Y-71071577D01*
X205222520Y-71298741D01*
X205814881Y-71299258D01*
X206362349Y-71073049D01*
X206781577Y-70654552D01*
X206789739Y-70634895D01*
X206796951Y-70652349D01*
X207215448Y-71071577D01*
X207762520Y-71298741D01*
X208354881Y-71299258D01*
X208902349Y-71073049D01*
X209321577Y-70654552D01*
X209329739Y-70634895D01*
X209336951Y-70652349D01*
X209755448Y-71071577D01*
X210302520Y-71298741D01*
X210894881Y-71299258D01*
X211442349Y-71073049D01*
X211861577Y-70654552D01*
X211869739Y-70634895D01*
X211876951Y-70652349D01*
X212295448Y-71071577D01*
X212842520Y-71298741D01*
X213434881Y-71299258D01*
X213982349Y-71073049D01*
X214401577Y-70654552D01*
X214409739Y-70634895D01*
X214416951Y-70652349D01*
X214835448Y-71071577D01*
X215382520Y-71298741D01*
X215974881Y-71299258D01*
X216522349Y-71073049D01*
X216941577Y-70654552D01*
X216949739Y-70634895D01*
X216956951Y-70652349D01*
X217375448Y-71071577D01*
X217922520Y-71298741D01*
X218514881Y-71299258D01*
X219062349Y-71073049D01*
X219481577Y-70654552D01*
X219489739Y-70634895D01*
X219496951Y-70652349D01*
X219915448Y-71071577D01*
X220462520Y-71298741D01*
X221054881Y-71299258D01*
X221602349Y-71073049D01*
X222021577Y-70654552D01*
X222029739Y-70634895D01*
X222036951Y-70652349D01*
X222455448Y-71071577D01*
X223002520Y-71298741D01*
X223594881Y-71299258D01*
X224142349Y-71073049D01*
X224561577Y-70654552D01*
X224569739Y-70634895D01*
X224576951Y-70652349D01*
X224995448Y-71071577D01*
X225542520Y-71298741D01*
X226134881Y-71299258D01*
X226682349Y-71073049D01*
X227101577Y-70654552D01*
X227109739Y-70634895D01*
X227116951Y-70652349D01*
X227535448Y-71071577D01*
X228082520Y-71298741D01*
X228674881Y-71299258D01*
X229222349Y-71073049D01*
X229641577Y-70654552D01*
X229649739Y-70634895D01*
X229656951Y-70652349D01*
X230075448Y-71071577D01*
X230622520Y-71298741D01*
X231214881Y-71299258D01*
X231762349Y-71073049D01*
X232181577Y-70654552D01*
X232189739Y-70634895D01*
X232196951Y-70652349D01*
X232615448Y-71071577D01*
X233162520Y-71298741D01*
X233754881Y-71299258D01*
X234302349Y-71073049D01*
X234721577Y-70654552D01*
X234948741Y-70107480D01*
X234949258Y-69515119D01*
X234723049Y-68967651D01*
X234304552Y-68548423D01*
X233757480Y-68321259D01*
X233165119Y-68320742D01*
X232617651Y-68546951D01*
X232198423Y-68965448D01*
X232190261Y-68985105D01*
X232183049Y-68967651D01*
X231764552Y-68548423D01*
X231217480Y-68321259D01*
X230625119Y-68320742D01*
X230077651Y-68546951D01*
X229658423Y-68965448D01*
X229650261Y-68985105D01*
X229643049Y-68967651D01*
X229224552Y-68548423D01*
X228677480Y-68321259D01*
X228085119Y-68320742D01*
X227537651Y-68546951D01*
X227118423Y-68965448D01*
X227110261Y-68985105D01*
X227103049Y-68967651D01*
X226684552Y-68548423D01*
X226137480Y-68321259D01*
X225545119Y-68320742D01*
X224997651Y-68546951D01*
X224578423Y-68965448D01*
X224570261Y-68985105D01*
X224563049Y-68967651D01*
X224144552Y-68548423D01*
X223597480Y-68321259D01*
X223005119Y-68320742D01*
X222457651Y-68546951D01*
X222038423Y-68965448D01*
X222030261Y-68985105D01*
X222023049Y-68967651D01*
X221604552Y-68548423D01*
X221057480Y-68321259D01*
X220465119Y-68320742D01*
X219917651Y-68546951D01*
X219498423Y-68965448D01*
X219490261Y-68985105D01*
X219483049Y-68967651D01*
X219064552Y-68548423D01*
X218517480Y-68321259D01*
X217925119Y-68320742D01*
X217377651Y-68546951D01*
X216958423Y-68965448D01*
X216950261Y-68985105D01*
X216943049Y-68967651D01*
X216524552Y-68548423D01*
X215977480Y-68321259D01*
X215385119Y-68320742D01*
X214837651Y-68546951D01*
X214418423Y-68965448D01*
X214410261Y-68985105D01*
X214403049Y-68967651D01*
X213984552Y-68548423D01*
X213437480Y-68321259D01*
X212845119Y-68320742D01*
X212297651Y-68546951D01*
X211878423Y-68965448D01*
X211870261Y-68985105D01*
X211863049Y-68967651D01*
X211444552Y-68548423D01*
X210897480Y-68321259D01*
X210305119Y-68320742D01*
X209757651Y-68546951D01*
X209338423Y-68965448D01*
X209330261Y-68985105D01*
X209323049Y-68967651D01*
X208904552Y-68548423D01*
X208357480Y-68321259D01*
X207765119Y-68320742D01*
X207217651Y-68546951D01*
X206798423Y-68965448D01*
X206790261Y-68985105D01*
X206783049Y-68967651D01*
X206364552Y-68548423D01*
X205817480Y-68321259D01*
X205225119Y-68320742D01*
X204677651Y-68546951D01*
X204258423Y-68965448D01*
X204206859Y-69089629D01*
X204202397Y-69078857D01*
X203960213Y-69009392D01*
X203159605Y-69810000D01*
X202800395Y-69810000D01*
X201999787Y-69009392D01*
X201757603Y-69078857D01*
X201753616Y-69090033D01*
X201703049Y-68967651D01*
X201565426Y-68829787D01*
X202179392Y-68829787D01*
X202980000Y-69630395D01*
X203780608Y-68829787D01*
X203711143Y-68587603D01*
X203187698Y-68400856D01*
X202632632Y-68428638D01*
X202248857Y-68587603D01*
X202179392Y-68829787D01*
X201565426Y-68829787D01*
X201284552Y-68548423D01*
X200737480Y-68321259D01*
X200145119Y-68320742D01*
X199597651Y-68546951D01*
X199178423Y-68965448D01*
X199170261Y-68985105D01*
X199163049Y-68967651D01*
X198744552Y-68548423D01*
X198197480Y-68321259D01*
X197605119Y-68320742D01*
X197057651Y-68546951D01*
X196638423Y-68965448D01*
X196630261Y-68985105D01*
X196623049Y-68967651D01*
X196204552Y-68548423D01*
X195657480Y-68321259D01*
X195065119Y-68320742D01*
X194517651Y-68546951D01*
X194098423Y-68965448D01*
X193871259Y-69512520D01*
X193870742Y-70104881D01*
X128941631Y-70104881D01*
X128919778Y-69646546D01*
X128795026Y-69345369D01*
X128816846Y-69331328D01*
X128982843Y-69088385D01*
X129041242Y-68800000D01*
X129041242Y-67200000D01*
X128990549Y-66930590D01*
X128831328Y-66683154D01*
X128588385Y-66517157D01*
X128300000Y-66458758D01*
X126700000Y-66458758D01*
X126430590Y-66509451D01*
X126183154Y-66668672D01*
X126174766Y-66680948D01*
X125127000Y-65633182D01*
X125127000Y-63420679D01*
X125517504Y-63159752D01*
X125848516Y-62664358D01*
X125964752Y-62080000D01*
X125848516Y-61495642D01*
X125517504Y-61000248D01*
X125232778Y-60810000D01*
X125517504Y-60619752D01*
X125848516Y-60124358D01*
X125964752Y-59540000D01*
X129655248Y-59540000D01*
X129771484Y-60124358D01*
X130102496Y-60619752D01*
X130102989Y-60620081D01*
X129903154Y-60748672D01*
X129737157Y-60991615D01*
X129678758Y-61280000D01*
X129678758Y-62880000D01*
X129729451Y-63149410D01*
X129888672Y-63396846D01*
X130131615Y-63562843D01*
X130420000Y-63621242D01*
X132820000Y-63621242D01*
X133089410Y-63570549D01*
X133336846Y-63411328D01*
X133502843Y-63168385D01*
X133561242Y-62880000D01*
X133561242Y-61280000D01*
X133510549Y-61010590D01*
X133351328Y-60763154D01*
X133138742Y-60617899D01*
X133468516Y-60124358D01*
X133584752Y-59540000D01*
X133468516Y-58955642D01*
X133137504Y-58460248D01*
X132766814Y-58212561D01*
X133124500Y-57924896D01*
X133394367Y-57431819D01*
X133411904Y-57349039D01*
X133330022Y-57200000D01*
X138458758Y-57200000D01*
X138458758Y-58800000D01*
X138509451Y-59069410D01*
X138668672Y-59316846D01*
X138911615Y-59482843D01*
X139200000Y-59541242D01*
X140800000Y-59541242D01*
X141069410Y-59490549D01*
X141316846Y-59331328D01*
X141482843Y-59088385D01*
X141541242Y-58800000D01*
X141541242Y-57200000D01*
X141490549Y-56930590D01*
X141354675Y-56719437D01*
X141526735Y-56305072D01*
X141527265Y-55697593D01*
X141295283Y-55136154D01*
X140866106Y-54706227D01*
X140305072Y-54473265D01*
X139697593Y-54472735D01*
X139136154Y-54704717D01*
X138706227Y-55133894D01*
X138473265Y-55694928D01*
X138472735Y-56302407D01*
X138646337Y-56722555D01*
X138517157Y-56911615D01*
X138458758Y-57200000D01*
X133330022Y-57200000D01*
X133289915Y-57127000D01*
X131747000Y-57127000D01*
X131747000Y-57147000D01*
X131493000Y-57147000D01*
X131493000Y-57127000D01*
X129950085Y-57127000D01*
X129828096Y-57349039D01*
X129845633Y-57431819D01*
X130115500Y-57924896D01*
X130473186Y-58212561D01*
X130102496Y-58460248D01*
X129771484Y-58955642D01*
X129655248Y-59540000D01*
X125964752Y-59540000D01*
X125848516Y-58955642D01*
X125517504Y-58460248D01*
X125232778Y-58270000D01*
X125517504Y-58079752D01*
X125848516Y-57584358D01*
X125964752Y-57000000D01*
X125848516Y-56415642D01*
X125517504Y-55920248D01*
X125232778Y-55730000D01*
X125517504Y-55539752D01*
X125848516Y-55044358D01*
X125964752Y-54460000D01*
X129655248Y-54460000D01*
X129771484Y-55044358D01*
X130102496Y-55539752D01*
X130473186Y-55787439D01*
X130115500Y-56075104D01*
X129845633Y-56568181D01*
X129828096Y-56650961D01*
X129950085Y-56873000D01*
X131493000Y-56873000D01*
X131493000Y-56853000D01*
X131747000Y-56853000D01*
X131747000Y-56873000D01*
X133289915Y-56873000D01*
X133411904Y-56650961D01*
X133394367Y-56568181D01*
X133124500Y-56075104D01*
X132766814Y-55787439D01*
X133137504Y-55539752D01*
X133468516Y-55044358D01*
X133584752Y-54460000D01*
X133468516Y-53875642D01*
X133137504Y-53380248D01*
X132642110Y-53049236D01*
X132057752Y-52933000D01*
X131182248Y-52933000D01*
X130597890Y-53049236D01*
X130102496Y-53380248D01*
X129771484Y-53875642D01*
X129655248Y-54460000D01*
X125964752Y-54460000D01*
X125848516Y-53875642D01*
X125517504Y-53380248D01*
X125022110Y-53049236D01*
X124437752Y-52933000D01*
X123562248Y-52933000D01*
X122977890Y-53049236D01*
X122482496Y-53380248D01*
X122151484Y-53875642D01*
X122035248Y-54460000D01*
X122151484Y-55044358D01*
X122482496Y-55539752D01*
X122767222Y-55730000D01*
X122482496Y-55920248D01*
X122151484Y-56415642D01*
X122035248Y-57000000D01*
X122151484Y-57584358D01*
X122482496Y-58079752D01*
X122767222Y-58270000D01*
X122482496Y-58460248D01*
X122151484Y-58955642D01*
X122035248Y-59540000D01*
X122151484Y-60124358D01*
X122482496Y-60619752D01*
X122767222Y-60810000D01*
X122482496Y-61000248D01*
X122151484Y-61495642D01*
X122035248Y-62080000D01*
X122151484Y-62664358D01*
X122482496Y-63159752D01*
X122873000Y-63420679D01*
X122873000Y-111533182D01*
X112203091Y-122203091D01*
X111958788Y-122568716D01*
X111873000Y-123000000D01*
X111873000Y-140946187D01*
X111559320Y-141415642D01*
X111443084Y-142000000D01*
X111559320Y-142584358D01*
X111890332Y-143079752D01*
X112385726Y-143410764D01*
X112924019Y-143517837D01*
X114279181Y-144873000D01*
X111200000Y-144873000D01*
X111200000Y-75302407D01*
X114472735Y-75302407D01*
X114704717Y-75863846D01*
X115133894Y-76293773D01*
X115694928Y-76526735D01*
X116302407Y-76527265D01*
X116816727Y-76314752D01*
X116840302Y-76338327D01*
X117073691Y-76435000D01*
X117714250Y-76435000D01*
X117873000Y-76276250D01*
X117873000Y-75127000D01*
X118127000Y-75127000D01*
X118127000Y-76276250D01*
X118285750Y-76435000D01*
X118926309Y-76435000D01*
X119159698Y-76338327D01*
X119338327Y-76159699D01*
X119435000Y-75926310D01*
X119435000Y-75285750D01*
X119276250Y-75127000D01*
X118127000Y-75127000D01*
X117873000Y-75127000D01*
X117853000Y-75127000D01*
X117853000Y-74873000D01*
X117873000Y-74873000D01*
X117873000Y-73723750D01*
X118127000Y-73723750D01*
X118127000Y-74873000D01*
X119276250Y-74873000D01*
X119435000Y-74714250D01*
X119435000Y-74073690D01*
X119338327Y-73840301D01*
X119159698Y-73661673D01*
X118926309Y-73565000D01*
X118285750Y-73565000D01*
X118127000Y-73723750D01*
X117873000Y-73723750D01*
X117714250Y-73565000D01*
X117073691Y-73565000D01*
X116840302Y-73661673D01*
X116816391Y-73685584D01*
X116305072Y-73473265D01*
X115697593Y-73472735D01*
X115136154Y-73704717D01*
X114706227Y-74133894D01*
X114473265Y-74694928D01*
X114472735Y-75302407D01*
X111200000Y-75302407D01*
X111200000Y-69302407D01*
X114472735Y-69302407D01*
X114704717Y-69863846D01*
X115133894Y-70293773D01*
X115694928Y-70526735D01*
X116302407Y-70527265D01*
X116816727Y-70314752D01*
X116840302Y-70338327D01*
X117073691Y-70435000D01*
X117714250Y-70435000D01*
X117873000Y-70276250D01*
X117873000Y-69127000D01*
X118127000Y-69127000D01*
X118127000Y-70276250D01*
X118285750Y-70435000D01*
X118926309Y-70435000D01*
X119159698Y-70338327D01*
X119338327Y-70159699D01*
X119435000Y-69926310D01*
X119435000Y-69285750D01*
X119276250Y-69127000D01*
X118127000Y-69127000D01*
X117873000Y-69127000D01*
X117853000Y-69127000D01*
X117853000Y-68873000D01*
X117873000Y-68873000D01*
X117873000Y-67723750D01*
X118127000Y-67723750D01*
X118127000Y-68873000D01*
X119276250Y-68873000D01*
X119435000Y-68714250D01*
X119435000Y-68073690D01*
X119338327Y-67840301D01*
X119159698Y-67661673D01*
X118926309Y-67565000D01*
X118285750Y-67565000D01*
X118127000Y-67723750D01*
X117873000Y-67723750D01*
X117714250Y-67565000D01*
X117073691Y-67565000D01*
X116840302Y-67661673D01*
X116816391Y-67685584D01*
X116305072Y-67473265D01*
X115697593Y-67472735D01*
X115136154Y-67704717D01*
X114706227Y-68133894D01*
X114473265Y-68694928D01*
X114472735Y-69302407D01*
X111200000Y-69302407D01*
X111200000Y-49784881D01*
X204030742Y-49784881D01*
X204256951Y-50332349D01*
X204675448Y-50751577D01*
X205222520Y-50978741D01*
X205814881Y-50979258D01*
X206362349Y-50753049D01*
X206781577Y-50334552D01*
X206789739Y-50314895D01*
X206796951Y-50332349D01*
X207215448Y-50751577D01*
X207762520Y-50978741D01*
X208354881Y-50979258D01*
X208902349Y-50753049D01*
X209321577Y-50334552D01*
X209329739Y-50314895D01*
X209336951Y-50332349D01*
X209755448Y-50751577D01*
X210302520Y-50978741D01*
X210894881Y-50979258D01*
X211442349Y-50753049D01*
X211861577Y-50334552D01*
X211869739Y-50314895D01*
X211876951Y-50332349D01*
X212295448Y-50751577D01*
X212842520Y-50978741D01*
X213434881Y-50979258D01*
X213982349Y-50753049D01*
X214401577Y-50334552D01*
X214409739Y-50314895D01*
X214416951Y-50332349D01*
X214835448Y-50751577D01*
X215382520Y-50978741D01*
X215974881Y-50979258D01*
X216522349Y-50753049D01*
X216941577Y-50334552D01*
X216949739Y-50314895D01*
X216956951Y-50332349D01*
X217375448Y-50751577D01*
X217922520Y-50978741D01*
X218514881Y-50979258D01*
X219062349Y-50753049D01*
X219481577Y-50334552D01*
X219489739Y-50314895D01*
X219496951Y-50332349D01*
X219915448Y-50751577D01*
X220462520Y-50978741D01*
X221054881Y-50979258D01*
X221602349Y-50753049D01*
X222021577Y-50334552D01*
X222029739Y-50314895D01*
X222036951Y-50332349D01*
X222455448Y-50751577D01*
X223002520Y-50978741D01*
X223594881Y-50979258D01*
X224142349Y-50753049D01*
X224561577Y-50334552D01*
X224569739Y-50314895D01*
X224576951Y-50332349D01*
X224995448Y-50751577D01*
X225542520Y-50978741D01*
X226134881Y-50979258D01*
X226682349Y-50753049D01*
X227101577Y-50334552D01*
X227109739Y-50314895D01*
X227116951Y-50332349D01*
X227535448Y-50751577D01*
X228082520Y-50978741D01*
X228674881Y-50979258D01*
X229222349Y-50753049D01*
X229641577Y-50334552D01*
X229649739Y-50314895D01*
X229656951Y-50332349D01*
X230075448Y-50751577D01*
X230622520Y-50978741D01*
X231214881Y-50979258D01*
X231762349Y-50753049D01*
X232181577Y-50334552D01*
X232189739Y-50314895D01*
X232196951Y-50332349D01*
X232615448Y-50751577D01*
X233162520Y-50978741D01*
X233754881Y-50979258D01*
X234302349Y-50753049D01*
X234721577Y-50334552D01*
X234948741Y-49787480D01*
X234949258Y-49195119D01*
X234723049Y-48647651D01*
X234304552Y-48228423D01*
X233757480Y-48001259D01*
X233165119Y-48000742D01*
X232617651Y-48226951D01*
X232198423Y-48645448D01*
X232190261Y-48665105D01*
X232183049Y-48647651D01*
X231764552Y-48228423D01*
X231217480Y-48001259D01*
X230625119Y-48000742D01*
X230077651Y-48226951D01*
X229658423Y-48645448D01*
X229650261Y-48665105D01*
X229643049Y-48647651D01*
X229224552Y-48228423D01*
X228677480Y-48001259D01*
X228085119Y-48000742D01*
X227537651Y-48226951D01*
X227118423Y-48645448D01*
X227110261Y-48665105D01*
X227103049Y-48647651D01*
X226684552Y-48228423D01*
X226137480Y-48001259D01*
X225545119Y-48000742D01*
X224997651Y-48226951D01*
X224578423Y-48645448D01*
X224570261Y-48665105D01*
X224563049Y-48647651D01*
X224144552Y-48228423D01*
X223597480Y-48001259D01*
X223005119Y-48000742D01*
X222457651Y-48226951D01*
X222038423Y-48645448D01*
X222030261Y-48665105D01*
X222023049Y-48647651D01*
X221604552Y-48228423D01*
X221057480Y-48001259D01*
X220465119Y-48000742D01*
X219917651Y-48226951D01*
X219498423Y-48645448D01*
X219490261Y-48665105D01*
X219483049Y-48647651D01*
X219064552Y-48228423D01*
X218517480Y-48001259D01*
X217925119Y-48000742D01*
X217377651Y-48226951D01*
X216958423Y-48645448D01*
X216950261Y-48665105D01*
X216943049Y-48647651D01*
X216524552Y-48228423D01*
X215977480Y-48001259D01*
X215385119Y-48000742D01*
X214837651Y-48226951D01*
X214418423Y-48645448D01*
X214410261Y-48665105D01*
X214403049Y-48647651D01*
X213984552Y-48228423D01*
X213437480Y-48001259D01*
X212845119Y-48000742D01*
X212297651Y-48226951D01*
X211878423Y-48645448D01*
X211870261Y-48665105D01*
X211863049Y-48647651D01*
X211444552Y-48228423D01*
X210897480Y-48001259D01*
X210305119Y-48000742D01*
X209757651Y-48226951D01*
X209338423Y-48645448D01*
X209330261Y-48665105D01*
X209323049Y-48647651D01*
X208904552Y-48228423D01*
X208357480Y-48001259D01*
X207765119Y-48000742D01*
X207217651Y-48226951D01*
X206798423Y-48645448D01*
X206790261Y-48665105D01*
X206783049Y-48647651D01*
X206364552Y-48228423D01*
X205817480Y-48001259D01*
X205225119Y-48000742D01*
X204677651Y-48226951D01*
X204258423Y-48645448D01*
X204031259Y-49192520D01*
X204030742Y-49784881D01*
X111200000Y-49784881D01*
X111200000Y-46127000D01*
X236780000Y-46127000D01*
X236780000Y-144873000D01*
X236780000Y-144873000D01*
G37*
X236780000Y-144873000D02*
X227220818Y-144873000D01*
X229296910Y-142796909D01*
X229541212Y-142431284D01*
X229627000Y-142000000D01*
X229627000Y-134335998D01*
X229541212Y-133904714D01*
X229296909Y-133539088D01*
X220380911Y-124623091D01*
X220219210Y-124515046D01*
X220363846Y-124455283D01*
X220793773Y-124026106D01*
X221026735Y-123465072D01*
X221027265Y-122857593D01*
X220795283Y-122296154D01*
X220366106Y-121866227D01*
X219805072Y-121633265D01*
X219197593Y-121632735D01*
X218636154Y-121864717D01*
X218206227Y-122293894D01*
X217973265Y-122854928D01*
X217972735Y-123462407D01*
X218204717Y-124023846D01*
X218473401Y-124293000D01*
X214446792Y-124293000D01*
X214022110Y-124009236D01*
X213437752Y-123893000D01*
X212562248Y-123893000D01*
X211977890Y-124009236D01*
X211482496Y-124340248D01*
X211151484Y-124835642D01*
X211035248Y-125420000D01*
X211151484Y-126004358D01*
X211482496Y-126499752D01*
X211767222Y-126690000D01*
X211482496Y-126880248D01*
X211151484Y-127375642D01*
X211035248Y-127960000D01*
X211151484Y-128544358D01*
X211482496Y-129039752D01*
X211767222Y-129230000D01*
X211482496Y-129420248D01*
X211151484Y-129915642D01*
X211035248Y-130500000D01*
X211151484Y-131084358D01*
X211482496Y-131579752D01*
X211767222Y-131770000D01*
X211482496Y-131960248D01*
X211151484Y-132455642D01*
X211035248Y-133040000D01*
X211151484Y-133624358D01*
X211482496Y-134119752D01*
X211977890Y-134450764D01*
X212562248Y-134567000D01*
X213437752Y-134567000D01*
X214022110Y-134450764D01*
X214517504Y-134119752D01*
X214658758Y-133908351D01*
X214658758Y-135140000D01*
X214709451Y-135409410D01*
X214868672Y-135656846D01*
X215111615Y-135822843D01*
X215400000Y-135881242D01*
X217100000Y-135881242D01*
X217369410Y-135830549D01*
X217616846Y-135671328D01*
X217782843Y-135428385D01*
X217841242Y-135140000D01*
X217841242Y-133440000D01*
X217790549Y-133170590D01*
X217631328Y-132923154D01*
X217443136Y-132794567D01*
X217737853Y-132353492D01*
X217857895Y-131750000D01*
X217737853Y-131146508D01*
X217396002Y-130634893D01*
X216884387Y-130293042D01*
X216280895Y-130173000D01*
X216219105Y-130173000D01*
X215615613Y-130293042D01*
X215103998Y-130634893D01*
X214867523Y-130988801D01*
X214964752Y-130500000D01*
X214848516Y-129915642D01*
X214517504Y-129420248D01*
X214232778Y-129230000D01*
X214517504Y-129039752D01*
X214848516Y-128544358D01*
X214964752Y-127960000D01*
X214848516Y-127375642D01*
X214517504Y-126880248D01*
X214232778Y-126690000D01*
X214446792Y-126547000D01*
X218977579Y-126547000D01*
X218915642Y-126559320D01*
X218420248Y-126890332D01*
X218089236Y-127385726D01*
X217973000Y-127970084D01*
X217973000Y-128029916D01*
X218089236Y-128614274D01*
X218420248Y-129109668D01*
X218915642Y-129440680D01*
X219500000Y-129556916D01*
X220084358Y-129440680D01*
X220579752Y-129109668D01*
X220910764Y-128614274D01*
X220956173Y-128385989D01*
X227373000Y-134802817D01*
X227373000Y-141533181D01*
X225033182Y-143873000D01*
X188560819Y-143873000D01*
X188915982Y-143517837D01*
X189454274Y-143410764D01*
X189949668Y-143079752D01*
X190280680Y-142584358D01*
X190336763Y-142302407D01*
X197472735Y-142302407D01*
X197704717Y-142863846D01*
X198133894Y-143293773D01*
X198694928Y-143526735D01*
X199302407Y-143527265D01*
X199863846Y-143295283D01*
X200293773Y-142866106D01*
X200526735Y-142305072D01*
X200526743Y-142294881D01*
X200970742Y-142294881D01*
X201196951Y-142842349D01*
X201615448Y-143261577D01*
X202162520Y-143488741D01*
X202754881Y-143489258D01*
X203302349Y-143263049D01*
X203721577Y-142844552D01*
X203729739Y-142824895D01*
X203736951Y-142842349D01*
X204155448Y-143261577D01*
X204702520Y-143488741D01*
X205294881Y-143489258D01*
X205842349Y-143263049D01*
X206261577Y-142844552D01*
X206269739Y-142824895D01*
X206276951Y-142842349D01*
X206695448Y-143261577D01*
X207242520Y-143488741D01*
X207834881Y-143489258D01*
X208382349Y-143263049D01*
X208801577Y-142844552D01*
X209028741Y-142297480D01*
X209029000Y-142000000D01*
X209283084Y-142000000D01*
X209399320Y-142584358D01*
X209730332Y-143079752D01*
X210225726Y-143410764D01*
X210810084Y-143527000D01*
X210869916Y-143527000D01*
X211454274Y-143410764D01*
X211949668Y-143079752D01*
X212280680Y-142584358D01*
X212336763Y-142302407D01*
X219472735Y-142302407D01*
X219704717Y-142863846D01*
X220133894Y-143293773D01*
X220694928Y-143526735D01*
X221302407Y-143527265D01*
X221863846Y-143295283D01*
X222293773Y-142866106D01*
X222526735Y-142305072D01*
X222527265Y-141697593D01*
X222295283Y-141136154D01*
X221866106Y-140706227D01*
X221305072Y-140473265D01*
X220697593Y-140472735D01*
X220136154Y-140704717D01*
X219706227Y-141133894D01*
X219473265Y-141694928D01*
X219472735Y-142302407D01*
X212336763Y-142302407D01*
X212396916Y-142000000D01*
X212280680Y-141415642D01*
X211949668Y-140920248D01*
X211454274Y-140589236D01*
X210869916Y-140473000D01*
X210810084Y-140473000D01*
X210225726Y-140589236D01*
X209730332Y-140920248D01*
X209399320Y-141415642D01*
X209283084Y-142000000D01*
X209029000Y-142000000D01*
X209029258Y-141705119D01*
X208803049Y-141157651D01*
X208384552Y-140738423D01*
X207837480Y-140511259D01*
X207245119Y-140510742D01*
X206697651Y-140736951D01*
X206278423Y-141155448D01*
X206270261Y-141175105D01*
X206263049Y-141157651D01*
X205844552Y-140738423D01*
X205297480Y-140511259D01*
X204705119Y-140510742D01*
X204157651Y-140736951D01*
X203738423Y-141155448D01*
X203730261Y-141175105D01*
X203723049Y-141157651D01*
X203304552Y-140738423D01*
X202757480Y-140511259D01*
X202165119Y-140510742D01*
X201617651Y-140736951D01*
X201198423Y-141155448D01*
X200971259Y-141702520D01*
X200970742Y-142294881D01*
X200526743Y-142294881D01*
X200527265Y-141697593D01*
X200295283Y-141136154D01*
X199866106Y-140706227D01*
X199305072Y-140473265D01*
X198697593Y-140472735D01*
X198136154Y-140704717D01*
X197706227Y-141133894D01*
X197473265Y-141694928D01*
X197472735Y-142302407D01*
X190336763Y-142302407D01*
X190396916Y-142000000D01*
X190280680Y-141415642D01*
X189967000Y-140946187D01*
X189967000Y-138462407D01*
X217972735Y-138462407D01*
X218204717Y-139023846D01*
X218633894Y-139453773D01*
X219194928Y-139686735D01*
X219802407Y-139687265D01*
X220363846Y-139455283D01*
X220793773Y-139026106D01*
X221026735Y-138465072D01*
X221027265Y-137857593D01*
X220795283Y-137296154D01*
X220366106Y-136866227D01*
X219805072Y-136633265D01*
X219197593Y-136632735D01*
X218636154Y-136864717D01*
X218206227Y-137293894D01*
X217973265Y-137854928D01*
X217972735Y-138462407D01*
X189967000Y-138462407D01*
X189967000Y-133507745D01*
X192671861Y-133507745D01*
X192745995Y-133753864D01*
X193283223Y-133946965D01*
X193853454Y-133919778D01*
X194254005Y-133753864D01*
X194328139Y-133507745D01*
X193500000Y-132679605D01*
X192671861Y-133507745D01*
X189967000Y-133507745D01*
X189967000Y-133015998D01*
X189881212Y-132584714D01*
X189881212Y-132584713D01*
X189679763Y-132283223D01*
X192053035Y-132283223D01*
X192080222Y-132853454D01*
X192246136Y-133254005D01*
X192492255Y-133328139D01*
X193320395Y-132500000D01*
X193679605Y-132500000D01*
X194507745Y-133328139D01*
X194753864Y-133254005D01*
X194916186Y-132802407D01*
X196972735Y-132802407D01*
X197204717Y-133363846D01*
X197633894Y-133793773D01*
X198194928Y-134026735D01*
X198802407Y-134027265D01*
X199363846Y-133795283D01*
X199793773Y-133366106D01*
X200026735Y-132805072D01*
X200027265Y-132197593D01*
X199795283Y-131636154D01*
X199366106Y-131206227D01*
X198805072Y-130973265D01*
X198197593Y-130972735D01*
X197636154Y-131204717D01*
X197206227Y-131633894D01*
X196973265Y-132194928D01*
X196972735Y-132802407D01*
X194916186Y-132802407D01*
X194946965Y-132716777D01*
X194919778Y-132146546D01*
X194753864Y-131745995D01*
X194507745Y-131671861D01*
X193679605Y-132500000D01*
X193320395Y-132500000D01*
X192492255Y-131671861D01*
X192246136Y-131745995D01*
X192053035Y-132283223D01*
X189679763Y-132283223D01*
X189636909Y-132219088D01*
X188910076Y-131492255D01*
X192671861Y-131492255D01*
X193500000Y-132320395D01*
X194328139Y-131492255D01*
X194254005Y-131246136D01*
X193716777Y-131053035D01*
X193146546Y-131080222D01*
X192745995Y-131246136D01*
X192671861Y-131492255D01*
X188910076Y-131492255D01*
X185377821Y-127960000D01*
X203415248Y-127960000D01*
X203531484Y-128544358D01*
X203862496Y-129039752D01*
X204147222Y-129230000D01*
X203862496Y-129420248D01*
X203531484Y-129915642D01*
X203415248Y-130500000D01*
X203531484Y-131084358D01*
X203862496Y-131579752D01*
X204147222Y-131770000D01*
X203862496Y-131960248D01*
X203531484Y-132455642D01*
X203415248Y-133040000D01*
X203531484Y-133624358D01*
X203862496Y-134119752D01*
X204357890Y-134450764D01*
X204942248Y-134567000D01*
X205817752Y-134567000D01*
X206402110Y-134450764D01*
X206897504Y-134119752D01*
X207228516Y-133624358D01*
X207344752Y-133040000D01*
X207228516Y-132455642D01*
X206897504Y-131960248D01*
X206612778Y-131770000D01*
X206897504Y-131579752D01*
X207228516Y-131084358D01*
X207344752Y-130500000D01*
X207228516Y-129915642D01*
X206897504Y-129420248D01*
X206612778Y-129230000D01*
X206897504Y-129039752D01*
X207228516Y-128544358D01*
X207344752Y-127960000D01*
X207228516Y-127375642D01*
X206897504Y-126880248D01*
X206897011Y-126879919D01*
X207096846Y-126751328D01*
X207262843Y-126508385D01*
X207321242Y-126220000D01*
X207321242Y-124620000D01*
X207270549Y-124350590D01*
X207111328Y-124103154D01*
X206868385Y-123937157D01*
X206580000Y-123878758D01*
X204180000Y-123878758D01*
X203910590Y-123929451D01*
X203663154Y-124088672D01*
X203497157Y-124331615D01*
X203438758Y-124620000D01*
X203438758Y-126220000D01*
X203489451Y-126489410D01*
X203648672Y-126736846D01*
X203861258Y-126882101D01*
X203531484Y-127375642D01*
X203415248Y-127960000D01*
X185377821Y-127960000D01*
X183925566Y-126507745D01*
X192671861Y-126507745D01*
X192745995Y-126753864D01*
X193283223Y-126946965D01*
X193853454Y-126919778D01*
X194254005Y-126753864D01*
X194328139Y-126507745D01*
X193500000Y-125679605D01*
X192671861Y-126507745D01*
X183925566Y-126507745D01*
X182701044Y-125283223D01*
X192053035Y-125283223D01*
X192080222Y-125853454D01*
X192246136Y-126254005D01*
X192492255Y-126328139D01*
X193320395Y-125500000D01*
X193679605Y-125500000D01*
X194507745Y-126328139D01*
X194753864Y-126254005D01*
X194916186Y-125802407D01*
X196972735Y-125802407D01*
X197204717Y-126363846D01*
X197633894Y-126793773D01*
X198194928Y-127026735D01*
X198802407Y-127027265D01*
X199363846Y-126795283D01*
X199793773Y-126366106D01*
X200026735Y-125805072D01*
X200027265Y-125197593D01*
X199795283Y-124636154D01*
X199366106Y-124206227D01*
X198805072Y-123973265D01*
X198197593Y-123972735D01*
X197636154Y-124204717D01*
X197206227Y-124633894D01*
X196973265Y-125194928D01*
X196972735Y-125802407D01*
X194916186Y-125802407D01*
X194946965Y-125716777D01*
X194919778Y-125146546D01*
X194753864Y-124745995D01*
X194507745Y-124671861D01*
X193679605Y-125500000D01*
X193320395Y-125500000D01*
X192492255Y-124671861D01*
X192246136Y-124745995D01*
X192053035Y-125283223D01*
X182701044Y-125283223D01*
X182040911Y-124623091D01*
X181845102Y-124492255D01*
X192671861Y-124492255D01*
X193500000Y-125320395D01*
X194328139Y-124492255D01*
X194254005Y-124246136D01*
X193716777Y-124053035D01*
X193146546Y-124080222D01*
X192745995Y-124246136D01*
X192671861Y-124492255D01*
X181845102Y-124492255D01*
X181675286Y-124378788D01*
X181479489Y-124339841D01*
X181793773Y-124026106D01*
X182026735Y-123465072D01*
X182027265Y-122857593D01*
X181795283Y-122296154D01*
X181366106Y-121866227D01*
X180805072Y-121633265D01*
X180197593Y-121632735D01*
X179636154Y-121864717D01*
X179206227Y-122293894D01*
X178973265Y-122854928D01*
X178972735Y-123462407D01*
X179204717Y-124023846D01*
X179473401Y-124293000D01*
X175446792Y-124293000D01*
X175022110Y-124009236D01*
X174437752Y-123893000D01*
X173562248Y-123893000D01*
X172977890Y-124009236D01*
X172482496Y-124340248D01*
X172151484Y-124835642D01*
X172035248Y-125420000D01*
X172151484Y-126004358D01*
X172482496Y-126499752D01*
X172767222Y-126690000D01*
X172482496Y-126880248D01*
X172151484Y-127375642D01*
X172035248Y-127960000D01*
X172151484Y-128544358D01*
X172482496Y-129039752D01*
X172767222Y-129230000D01*
X172482496Y-129420248D01*
X172151484Y-129915642D01*
X172035248Y-130500000D01*
X172151484Y-131084358D01*
X172482496Y-131579752D01*
X172767222Y-131770000D01*
X172482496Y-131960248D01*
X172151484Y-132455642D01*
X172035248Y-133040000D01*
X172151484Y-133624358D01*
X172482496Y-134119752D01*
X172977890Y-134450764D01*
X173562248Y-134567000D01*
X174437752Y-134567000D01*
X175022110Y-134450764D01*
X175517504Y-134119752D01*
X175658758Y-133908351D01*
X175658758Y-134600000D01*
X175709451Y-134869410D01*
X175868672Y-135116846D01*
X176111615Y-135282843D01*
X176400000Y-135341242D01*
X178100000Y-135341242D01*
X178369410Y-135290549D01*
X178616846Y-135131328D01*
X178782843Y-134888385D01*
X178841242Y-134600000D01*
X178841242Y-132900000D01*
X178790549Y-132630590D01*
X178631328Y-132383154D01*
X178443136Y-132254567D01*
X178737853Y-131813492D01*
X178857895Y-131210000D01*
X178737853Y-130606508D01*
X178396002Y-130094893D01*
X177884387Y-129753042D01*
X177280895Y-129633000D01*
X177219105Y-129633000D01*
X176615613Y-129753042D01*
X176103998Y-130094893D01*
X175934600Y-130348415D01*
X175848516Y-129915642D01*
X175517504Y-129420248D01*
X175232778Y-129230000D01*
X175517504Y-129039752D01*
X175848516Y-128544358D01*
X175964752Y-127960000D01*
X175848516Y-127375642D01*
X175517504Y-126880248D01*
X175232778Y-126690000D01*
X175446792Y-126547000D01*
X179208657Y-126547000D01*
X179089236Y-126725726D01*
X178973000Y-127310084D01*
X178973000Y-127369916D01*
X179089236Y-127954274D01*
X179420248Y-128449668D01*
X179915642Y-128780680D01*
X180500000Y-128896916D01*
X181084358Y-128780680D01*
X181579752Y-128449668D01*
X181910764Y-127954274D01*
X181956173Y-127725989D01*
X187713000Y-133482817D01*
X187713000Y-140946187D01*
X187399320Y-141415642D01*
X187292247Y-141953934D01*
X185373182Y-143873000D01*
X150060819Y-143873000D01*
X150415982Y-143517837D01*
X150954274Y-143410764D01*
X151449668Y-143079752D01*
X151780680Y-142584358D01*
X151836763Y-142302407D01*
X158972735Y-142302407D01*
X159204717Y-142863846D01*
X159633894Y-143293773D01*
X160194928Y-143526735D01*
X160802407Y-143527265D01*
X161363846Y-143295283D01*
X161793773Y-142866106D01*
X162026735Y-142305072D01*
X162026743Y-142294881D01*
X162470742Y-142294881D01*
X162696951Y-142842349D01*
X163115448Y-143261577D01*
X163662520Y-143488741D01*
X164254881Y-143489258D01*
X164802349Y-143263049D01*
X165221577Y-142844552D01*
X165229739Y-142824895D01*
X165236951Y-142842349D01*
X165655448Y-143261577D01*
X166202520Y-143488741D01*
X166794881Y-143489258D01*
X167342349Y-143263049D01*
X167761577Y-142844552D01*
X167769739Y-142824895D01*
X167776951Y-142842349D01*
X168195448Y-143261577D01*
X168742520Y-143488741D01*
X169334881Y-143489258D01*
X169882349Y-143263049D01*
X170301577Y-142844552D01*
X170528741Y-142297480D01*
X170529000Y-142000000D01*
X170783084Y-142000000D01*
X170899320Y-142584358D01*
X171230332Y-143079752D01*
X171725726Y-143410764D01*
X172310084Y-143527000D01*
X172369916Y-143527000D01*
X172954274Y-143410764D01*
X173449668Y-143079752D01*
X173780680Y-142584358D01*
X173836763Y-142302407D01*
X180972735Y-142302407D01*
X181204717Y-142863846D01*
X181633894Y-143293773D01*
X182194928Y-143526735D01*
X182802407Y-143527265D01*
X183363846Y-143295283D01*
X183793773Y-142866106D01*
X184026735Y-142305072D01*
X184027265Y-141697593D01*
X183795283Y-141136154D01*
X183366106Y-140706227D01*
X182805072Y-140473265D01*
X182197593Y-140472735D01*
X181636154Y-140704717D01*
X181206227Y-141133894D01*
X180973265Y-141694928D01*
X180972735Y-142302407D01*
X173836763Y-142302407D01*
X173896916Y-142000000D01*
X173780680Y-141415642D01*
X173449668Y-140920248D01*
X172954274Y-140589236D01*
X172369916Y-140473000D01*
X172310084Y-140473000D01*
X171725726Y-140589236D01*
X171230332Y-140920248D01*
X170899320Y-141415642D01*
X170783084Y-142000000D01*
X170529000Y-142000000D01*
X170529258Y-141705119D01*
X170303049Y-141157651D01*
X169884552Y-140738423D01*
X169337480Y-140511259D01*
X168745119Y-140510742D01*
X168197651Y-140736951D01*
X167778423Y-141155448D01*
X167770261Y-141175105D01*
X167763049Y-141157651D01*
X167344552Y-140738423D01*
X166797480Y-140511259D01*
X166205119Y-140510742D01*
X165657651Y-140736951D01*
X165238423Y-141155448D01*
X165230261Y-141175105D01*
X165223049Y-141157651D01*
X164804552Y-140738423D01*
X164257480Y-140511259D01*
X163665119Y-140510742D01*
X163117651Y-140736951D01*
X162698423Y-141155448D01*
X162471259Y-141702520D01*
X162470742Y-142294881D01*
X162026743Y-142294881D01*
X162027265Y-141697593D01*
X161795283Y-141136154D01*
X161366106Y-140706227D01*
X160805072Y-140473265D01*
X160197593Y-140472735D01*
X159636154Y-140704717D01*
X159206227Y-141133894D01*
X158973265Y-141694928D01*
X158972735Y-142302407D01*
X151836763Y-142302407D01*
X151896916Y-142000000D01*
X151780680Y-141415642D01*
X151467000Y-140946187D01*
X151467000Y-137802407D01*
X178972735Y-137802407D01*
X179204717Y-138363846D01*
X179633894Y-138793773D01*
X180194928Y-139026735D01*
X180802407Y-139027265D01*
X181363846Y-138795283D01*
X181793773Y-138366106D01*
X182026735Y-137805072D01*
X182027265Y-137197593D01*
X181795283Y-136636154D01*
X181366106Y-136206227D01*
X180805072Y-135973265D01*
X180197593Y-135972735D01*
X179636154Y-136204717D01*
X179206227Y-136633894D01*
X178973265Y-137194928D01*
X178972735Y-137802407D01*
X151467000Y-137802407D01*
X151467000Y-133007745D01*
X154171861Y-133007745D01*
X154245995Y-133253864D01*
X154783223Y-133446965D01*
X155353454Y-133419778D01*
X155754005Y-133253864D01*
X155828139Y-133007745D01*
X155000000Y-132179605D01*
X154171861Y-133007745D01*
X151467000Y-133007745D01*
X151467000Y-132015998D01*
X151420699Y-131783223D01*
X153553035Y-131783223D01*
X153580222Y-132353454D01*
X153746136Y-132754005D01*
X153992255Y-132828139D01*
X154820395Y-132000000D01*
X155179605Y-132000000D01*
X156007745Y-132828139D01*
X156253864Y-132754005D01*
X156416186Y-132302407D01*
X158472735Y-132302407D01*
X158704717Y-132863846D01*
X159133894Y-133293773D01*
X159694928Y-133526735D01*
X160302407Y-133527265D01*
X160863846Y-133295283D01*
X161293773Y-132866106D01*
X161526735Y-132305072D01*
X161527265Y-131697593D01*
X161295283Y-131136154D01*
X160866106Y-130706227D01*
X160305072Y-130473265D01*
X159697593Y-130472735D01*
X159136154Y-130704717D01*
X158706227Y-131133894D01*
X158473265Y-131694928D01*
X158472735Y-132302407D01*
X156416186Y-132302407D01*
X156446965Y-132216777D01*
X156419778Y-131646546D01*
X156253864Y-131245995D01*
X156007745Y-131171861D01*
X155179605Y-132000000D01*
X154820395Y-132000000D01*
X153992255Y-131171861D01*
X153746136Y-131245995D01*
X153553035Y-131783223D01*
X151420699Y-131783223D01*
X151381212Y-131584714D01*
X151136909Y-131219088D01*
X150910076Y-130992255D01*
X154171861Y-130992255D01*
X155000000Y-131820395D01*
X155828139Y-130992255D01*
X155754005Y-130746136D01*
X155216777Y-130553035D01*
X154646546Y-130580222D01*
X154245995Y-130746136D01*
X154171861Y-130992255D01*
X150910076Y-130992255D01*
X147877821Y-127960000D01*
X164415248Y-127960000D01*
X164531484Y-128544358D01*
X164862496Y-129039752D01*
X165147222Y-129230000D01*
X164862496Y-129420248D01*
X164531484Y-129915642D01*
X164415248Y-130500000D01*
X164531484Y-131084358D01*
X164862496Y-131579752D01*
X165147222Y-131770000D01*
X164862496Y-131960248D01*
X164531484Y-132455642D01*
X164415248Y-133040000D01*
X164531484Y-133624358D01*
X164862496Y-134119752D01*
X165357890Y-134450764D01*
X165942248Y-134567000D01*
X166817752Y-134567000D01*
X167402110Y-134450764D01*
X167897504Y-134119752D01*
X168228516Y-133624358D01*
X168344752Y-133040000D01*
X168228516Y-132455642D01*
X167897504Y-131960248D01*
X167612778Y-131770000D01*
X167897504Y-131579752D01*
X168228516Y-131084358D01*
X168344752Y-130500000D01*
X168228516Y-129915642D01*
X167897504Y-129420248D01*
X167612778Y-129230000D01*
X167897504Y-129039752D01*
X168228516Y-128544358D01*
X168344752Y-127960000D01*
X168228516Y-127375642D01*
X167897504Y-126880248D01*
X167897011Y-126879919D01*
X168096846Y-126751328D01*
X168262843Y-126508385D01*
X168321242Y-126220000D01*
X168321242Y-124620000D01*
X168270549Y-124350590D01*
X168111328Y-124103154D01*
X167868385Y-123937157D01*
X167580000Y-123878758D01*
X165180000Y-123878758D01*
X164910590Y-123929451D01*
X164663154Y-124088672D01*
X164497157Y-124331615D01*
X164438758Y-124620000D01*
X164438758Y-126220000D01*
X164489451Y-126489410D01*
X164648672Y-126736846D01*
X164861258Y-126882101D01*
X164531484Y-127375642D01*
X164415248Y-127960000D01*
X147877821Y-127960000D01*
X145925566Y-126007745D01*
X154171861Y-126007745D01*
X154245995Y-126253864D01*
X154783223Y-126446965D01*
X155353454Y-126419778D01*
X155754005Y-126253864D01*
X155828139Y-126007745D01*
X155000000Y-125179605D01*
X154171861Y-126007745D01*
X145925566Y-126007745D01*
X144701044Y-124783223D01*
X153553035Y-124783223D01*
X153580222Y-125353454D01*
X153746136Y-125754005D01*
X153992255Y-125828139D01*
X154820395Y-125000000D01*
X155179605Y-125000000D01*
X156007745Y-125828139D01*
X156253864Y-125754005D01*
X156416186Y-125302407D01*
X158472735Y-125302407D01*
X158704717Y-125863846D01*
X159133894Y-126293773D01*
X159694928Y-126526735D01*
X160302407Y-126527265D01*
X160863846Y-126295283D01*
X161293773Y-125866106D01*
X161526735Y-125305072D01*
X161527265Y-124697593D01*
X161295283Y-124136154D01*
X160866106Y-123706227D01*
X160305072Y-123473265D01*
X159697593Y-123472735D01*
X159136154Y-123704717D01*
X158706227Y-124133894D01*
X158473265Y-124694928D01*
X158472735Y-125302407D01*
X156416186Y-125302407D01*
X156446965Y-125216777D01*
X156419778Y-124646546D01*
X156253864Y-124245995D01*
X156007745Y-124171861D01*
X155179605Y-125000000D01*
X154820395Y-125000000D01*
X153992255Y-124171861D01*
X153746136Y-124245995D01*
X153553035Y-124783223D01*
X144701044Y-124783223D01*
X144580911Y-124663091D01*
X144215286Y-124418788D01*
X143784002Y-124333000D01*
X138066792Y-124333000D01*
X137642110Y-124049236D01*
X137057752Y-123933000D01*
X136182248Y-123933000D01*
X135597890Y-124049236D01*
X135102496Y-124380248D01*
X134771484Y-124875642D01*
X134655248Y-125460000D01*
X134771484Y-126044358D01*
X135102496Y-126539752D01*
X135387222Y-126730000D01*
X135102496Y-126920248D01*
X134771484Y-127415642D01*
X134655248Y-128000000D01*
X134771484Y-128584358D01*
X135102496Y-129079752D01*
X135387222Y-129270000D01*
X135102496Y-129460248D01*
X134771484Y-129955642D01*
X134655248Y-130540000D01*
X134771484Y-131124358D01*
X135102496Y-131619752D01*
X135387222Y-131810000D01*
X135102496Y-132000248D01*
X134771484Y-132495642D01*
X134655248Y-133080000D01*
X134771484Y-133664358D01*
X135102496Y-134159752D01*
X135597890Y-134490764D01*
X136182248Y-134607000D01*
X137057752Y-134607000D01*
X137642110Y-134490764D01*
X138137504Y-134159752D01*
X138158758Y-134127943D01*
X138158758Y-134600000D01*
X138209451Y-134869410D01*
X138368672Y-135116846D01*
X138611615Y-135282843D01*
X138900000Y-135341242D01*
X140600000Y-135341242D01*
X140869410Y-135290549D01*
X141116846Y-135131328D01*
X141282843Y-134888385D01*
X141341242Y-134600000D01*
X141341242Y-132900000D01*
X141290549Y-132630590D01*
X141131328Y-132383154D01*
X140943136Y-132254567D01*
X141237853Y-131813492D01*
X141357895Y-131210000D01*
X141237853Y-130606508D01*
X140896002Y-130094893D01*
X140384387Y-129753042D01*
X139780895Y-129633000D01*
X139719105Y-129633000D01*
X139115613Y-129753042D01*
X138603998Y-130094893D01*
X138520940Y-130219197D01*
X138468516Y-129955642D01*
X138137504Y-129460248D01*
X137852778Y-129270000D01*
X138137504Y-129079752D01*
X138468516Y-128584358D01*
X138584752Y-128000000D01*
X138468516Y-127415642D01*
X138137504Y-126920248D01*
X137852778Y-126730000D01*
X138066792Y-126587000D01*
X141681930Y-126587000D01*
X141589236Y-126725726D01*
X141473000Y-127310084D01*
X141473000Y-127369916D01*
X141589236Y-127954274D01*
X141920248Y-128449668D01*
X142415642Y-128780680D01*
X143000000Y-128896916D01*
X143584358Y-128780680D01*
X144079752Y-128449668D01*
X144410764Y-127954274D01*
X144456173Y-127725989D01*
X149213000Y-132482817D01*
X149213000Y-140946187D01*
X148899320Y-141415642D01*
X148792247Y-141953934D01*
X146873182Y-143873000D01*
X116466819Y-143873000D01*
X114896226Y-142302407D01*
X121632735Y-142302407D01*
X121864717Y-142863846D01*
X122293894Y-143293773D01*
X122854928Y-143526735D01*
X123462407Y-143527265D01*
X124023846Y-143295283D01*
X124453773Y-142866106D01*
X124686735Y-142305072D01*
X124686743Y-142294881D01*
X124970742Y-142294881D01*
X125196951Y-142842349D01*
X125615448Y-143261577D01*
X126162520Y-143488741D01*
X126754881Y-143489258D01*
X127302349Y-143263049D01*
X127721577Y-142844552D01*
X127729739Y-142824895D01*
X127736951Y-142842349D01*
X128155448Y-143261577D01*
X128702520Y-143488741D01*
X129294881Y-143489258D01*
X129842349Y-143263049D01*
X130261577Y-142844552D01*
X130269739Y-142824895D01*
X130276951Y-142842349D01*
X130695448Y-143261577D01*
X131242520Y-143488741D01*
X131834881Y-143489258D01*
X132382349Y-143263049D01*
X132801577Y-142844552D01*
X133028741Y-142297480D01*
X133029000Y-142000000D01*
X133443084Y-142000000D01*
X133559320Y-142584358D01*
X133890332Y-143079752D01*
X134385726Y-143410764D01*
X134970084Y-143527000D01*
X135029916Y-143527000D01*
X135614274Y-143410764D01*
X136109668Y-143079752D01*
X136440680Y-142584358D01*
X136496763Y-142302407D01*
X143632735Y-142302407D01*
X143864717Y-142863846D01*
X144293894Y-143293773D01*
X144854928Y-143526735D01*
X145462407Y-143527265D01*
X146023846Y-143295283D01*
X146453773Y-142866106D01*
X146686735Y-142305072D01*
X146687265Y-141697593D01*
X146455283Y-141136154D01*
X146026106Y-140706227D01*
X145465072Y-140473265D01*
X144857593Y-140472735D01*
X144296154Y-140704717D01*
X143866227Y-141133894D01*
X143633265Y-141694928D01*
X143632735Y-142302407D01*
X136496763Y-142302407D01*
X136556916Y-142000000D01*
X136440680Y-141415642D01*
X136109668Y-140920248D01*
X135614274Y-140589236D01*
X135029916Y-140473000D01*
X134970084Y-140473000D01*
X134385726Y-140589236D01*
X133890332Y-140920248D01*
X133559320Y-141415642D01*
X133443084Y-142000000D01*
X133029000Y-142000000D01*
X133029258Y-141705119D01*
X132803049Y-141157651D01*
X132384552Y-140738423D01*
X131837480Y-140511259D01*
X131245119Y-140510742D01*
X130697651Y-140736951D01*
X130278423Y-141155448D01*
X130270261Y-141175105D01*
X130263049Y-141157651D01*
X129844552Y-140738423D01*
X129297480Y-140511259D01*
X128705119Y-140510742D01*
X128157651Y-140736951D01*
X127738423Y-141155448D01*
X127730261Y-141175105D01*
X127723049Y-141157651D01*
X127304552Y-140738423D01*
X126757480Y-140511259D01*
X126165119Y-140510742D01*
X125617651Y-140736951D01*
X125198423Y-141155448D01*
X124971259Y-141702520D01*
X124970742Y-142294881D01*
X124686743Y-142294881D01*
X124687265Y-141697593D01*
X124455283Y-141136154D01*
X124026106Y-140706227D01*
X123465072Y-140473265D01*
X122857593Y-140472735D01*
X122296154Y-140704717D01*
X121866227Y-141133894D01*
X121633265Y-141694928D01*
X121632735Y-142302407D01*
X114896226Y-142302407D01*
X114547753Y-141953935D01*
X114440680Y-141415642D01*
X114127000Y-140946187D01*
X114127000Y-137802407D01*
X141472735Y-137802407D01*
X141704717Y-138363846D01*
X142133894Y-138793773D01*
X142694928Y-139026735D01*
X143302407Y-139027265D01*
X143863846Y-138795283D01*
X144293773Y-138366106D01*
X144526735Y-137805072D01*
X144527265Y-137197593D01*
X144295283Y-136636154D01*
X143866106Y-136206227D01*
X143305072Y-135973265D01*
X142697593Y-135972735D01*
X142136154Y-136204717D01*
X141706227Y-136633894D01*
X141473265Y-137194928D01*
X141472735Y-137802407D01*
X114127000Y-137802407D01*
X114127000Y-133007745D01*
X117171861Y-133007745D01*
X117245995Y-133253864D01*
X117783223Y-133446965D01*
X118353454Y-133419778D01*
X118754005Y-133253864D01*
X118828139Y-133007745D01*
X118000000Y-132179605D01*
X117171861Y-133007745D01*
X114127000Y-133007745D01*
X114127000Y-131783223D01*
X116553035Y-131783223D01*
X116580222Y-132353454D01*
X116746136Y-132754005D01*
X116992255Y-132828139D01*
X117820395Y-132000000D01*
X118179605Y-132000000D01*
X119007745Y-132828139D01*
X119253864Y-132754005D01*
X119416186Y-132302407D01*
X121472735Y-132302407D01*
X121704717Y-132863846D01*
X122133894Y-133293773D01*
X122694928Y-133526735D01*
X123302407Y-133527265D01*
X123863846Y-133295283D01*
X124293773Y-132866106D01*
X124526735Y-132305072D01*
X124527265Y-131697593D01*
X124295283Y-131136154D01*
X123866106Y-130706227D01*
X123305072Y-130473265D01*
X122697593Y-130472735D01*
X122136154Y-130704717D01*
X121706227Y-131133894D01*
X121473265Y-131694928D01*
X121472735Y-132302407D01*
X119416186Y-132302407D01*
X119446965Y-132216777D01*
X119419778Y-131646546D01*
X119253864Y-131245995D01*
X119007745Y-131171861D01*
X118179605Y-132000000D01*
X117820395Y-132000000D01*
X116992255Y-131171861D01*
X116746136Y-131245995D01*
X116553035Y-131783223D01*
X114127000Y-131783223D01*
X114127000Y-130992255D01*
X117171861Y-130992255D01*
X118000000Y-131820395D01*
X118828139Y-130992255D01*
X118754005Y-130746136D01*
X118216777Y-130553035D01*
X117646546Y-130580222D01*
X117245995Y-130746136D01*
X117171861Y-130992255D01*
X114127000Y-130992255D01*
X114127000Y-128000000D01*
X127035248Y-128000000D01*
X127151484Y-128584358D01*
X127482496Y-129079752D01*
X127767222Y-129270000D01*
X127482496Y-129460248D01*
X127151484Y-129955642D01*
X127035248Y-130540000D01*
X127151484Y-131124358D01*
X127482496Y-131619752D01*
X127767222Y-131810000D01*
X127482496Y-132000248D01*
X127151484Y-132495642D01*
X127035248Y-133080000D01*
X127151484Y-133664358D01*
X127482496Y-134159752D01*
X127977890Y-134490764D01*
X128562248Y-134607000D01*
X129437752Y-134607000D01*
X130022110Y-134490764D01*
X130517504Y-134159752D01*
X130848516Y-133664358D01*
X130964752Y-133080000D01*
X130848516Y-132495642D01*
X130517504Y-132000248D01*
X130232778Y-131810000D01*
X130517504Y-131619752D01*
X130848516Y-131124358D01*
X130964752Y-130540000D01*
X130848516Y-129955642D01*
X130517504Y-129460248D01*
X130232778Y-129270000D01*
X130517504Y-129079752D01*
X130848516Y-128584358D01*
X130964752Y-128000000D01*
X130848516Y-127415642D01*
X130517504Y-126920248D01*
X130517011Y-126919919D01*
X130716846Y-126791328D01*
X130882843Y-126548385D01*
X130941242Y-126260000D01*
X130941242Y-124660000D01*
X130890549Y-124390590D01*
X130731328Y-124143154D01*
X130488385Y-123977157D01*
X130200000Y-123918758D01*
X127800000Y-123918758D01*
X127530590Y-123969451D01*
X127283154Y-124128672D01*
X127117157Y-124371615D01*
X127058758Y-124660000D01*
X127058758Y-126260000D01*
X127109451Y-126529410D01*
X127268672Y-126776846D01*
X127481258Y-126922101D01*
X127151484Y-127415642D01*
X127035248Y-128000000D01*
X114127000Y-128000000D01*
X114127000Y-126007745D01*
X117171861Y-126007745D01*
X117245995Y-126253864D01*
X117783223Y-126446965D01*
X118353454Y-126419778D01*
X118754005Y-126253864D01*
X118828139Y-126007745D01*
X118000000Y-125179605D01*
X117171861Y-126007745D01*
X114127000Y-126007745D01*
X114127000Y-124783223D01*
X116553035Y-124783223D01*
X116580222Y-125353454D01*
X116746136Y-125754005D01*
X116992255Y-125828139D01*
X117820395Y-125000000D01*
X118179605Y-125000000D01*
X119007745Y-125828139D01*
X119253864Y-125754005D01*
X119416186Y-125302407D01*
X121472735Y-125302407D01*
X121704717Y-125863846D01*
X122133894Y-126293773D01*
X122694928Y-126526735D01*
X123302407Y-126527265D01*
X123863846Y-126295283D01*
X124293773Y-125866106D01*
X124526735Y-125305072D01*
X124527265Y-124697593D01*
X124295283Y-124136154D01*
X123866106Y-123706227D01*
X123305072Y-123473265D01*
X122697593Y-123472735D01*
X122136154Y-123704717D01*
X121706227Y-124133894D01*
X121473265Y-124694928D01*
X121472735Y-125302407D01*
X119416186Y-125302407D01*
X119446965Y-125216777D01*
X119419778Y-124646546D01*
X119253864Y-124245995D01*
X119007745Y-124171861D01*
X118179605Y-125000000D01*
X117820395Y-125000000D01*
X116992255Y-124171861D01*
X116746136Y-124245995D01*
X116553035Y-124783223D01*
X114127000Y-124783223D01*
X114127000Y-123992255D01*
X117171861Y-123992255D01*
X118000000Y-124820395D01*
X118828139Y-123992255D01*
X118754005Y-123746136D01*
X118216777Y-123553035D01*
X117646546Y-123580222D01*
X117245995Y-123746136D01*
X117171861Y-123992255D01*
X114127000Y-123992255D01*
X114127000Y-123466818D01*
X114631411Y-122962407D01*
X141472735Y-122962407D01*
X141704717Y-123523846D01*
X142133894Y-123953773D01*
X142694928Y-124186735D01*
X143302407Y-124187265D01*
X143774366Y-123992255D01*
X154171861Y-123992255D01*
X155000000Y-124820395D01*
X155828139Y-123992255D01*
X155754005Y-123746136D01*
X155216777Y-123553035D01*
X154646546Y-123580222D01*
X154245995Y-123746136D01*
X154171861Y-123992255D01*
X143774366Y-123992255D01*
X143863846Y-123955283D01*
X144293773Y-123526106D01*
X144526735Y-122965072D01*
X144527265Y-122357593D01*
X144295283Y-121796154D01*
X143866106Y-121366227D01*
X143305072Y-121133265D01*
X142697593Y-121132735D01*
X142136154Y-121364717D01*
X141706227Y-121793894D01*
X141473265Y-122354928D01*
X141472735Y-122962407D01*
X114631411Y-122962407D01*
X116291411Y-121302407D01*
X126312735Y-121302407D01*
X126544717Y-121863846D01*
X126973894Y-122293773D01*
X127534928Y-122526735D01*
X128142407Y-122527265D01*
X128703846Y-122295283D01*
X129133773Y-121866106D01*
X129366735Y-121305072D01*
X129367001Y-121000000D01*
X136443084Y-121000000D01*
X136559320Y-121584358D01*
X136890332Y-122079752D01*
X137385726Y-122410764D01*
X137970084Y-122527000D01*
X138029916Y-122527000D01*
X138614274Y-122410764D01*
X139109668Y-122079752D01*
X139440680Y-121584358D01*
X139556916Y-121000000D01*
X139517613Y-120802407D01*
X164312735Y-120802407D01*
X164544717Y-121363846D01*
X164973894Y-121793773D01*
X165534928Y-122026735D01*
X166142407Y-122027265D01*
X166703846Y-121795283D01*
X167133773Y-121366106D01*
X167366735Y-120805072D01*
X167367001Y-120500000D01*
X174443084Y-120500000D01*
X174559320Y-121084358D01*
X174890332Y-121579752D01*
X175385726Y-121910764D01*
X175970084Y-122027000D01*
X176029916Y-122027000D01*
X176614274Y-121910764D01*
X177109668Y-121579752D01*
X177440680Y-121084358D01*
X177496763Y-120802407D01*
X202972735Y-120802407D01*
X203204717Y-121363846D01*
X203633894Y-121793773D01*
X204194928Y-122026735D01*
X204802407Y-122027265D01*
X205363846Y-121795283D01*
X205793773Y-121366106D01*
X206026735Y-120805072D01*
X206027001Y-120500000D01*
X213103084Y-120500000D01*
X213219320Y-121084358D01*
X213550332Y-121579752D01*
X214045726Y-121910764D01*
X214630084Y-122027000D01*
X214689916Y-122027000D01*
X215274274Y-121910764D01*
X215769668Y-121579752D01*
X216100680Y-121084358D01*
X216216916Y-120500000D01*
X216100680Y-119915642D01*
X215769668Y-119420248D01*
X215274274Y-119089236D01*
X214689916Y-118973000D01*
X214630084Y-118973000D01*
X214045726Y-119089236D01*
X213550332Y-119420248D01*
X213219320Y-119915642D01*
X213103084Y-120500000D01*
X206027001Y-120500000D01*
X206027265Y-120197593D01*
X205795283Y-119636154D01*
X205366106Y-119206227D01*
X204805072Y-118973265D01*
X204197593Y-118972735D01*
X203636154Y-119204717D01*
X203206227Y-119633894D01*
X202973265Y-120194928D01*
X202972735Y-120802407D01*
X177496763Y-120802407D01*
X177556916Y-120500000D01*
X177440680Y-119915642D01*
X177109668Y-119420248D01*
X176614274Y-119089236D01*
X176029916Y-118973000D01*
X175970084Y-118973000D01*
X175385726Y-119089236D01*
X174890332Y-119420248D01*
X174559320Y-119915642D01*
X174443084Y-120500000D01*
X167367001Y-120500000D01*
X167367265Y-120197593D01*
X167135283Y-119636154D01*
X166706106Y-119206227D01*
X166145072Y-118973265D01*
X165537593Y-118972735D01*
X164976154Y-119204717D01*
X164546227Y-119633894D01*
X164313265Y-120194928D01*
X164312735Y-120802407D01*
X139517613Y-120802407D01*
X139440680Y-120415642D01*
X139109668Y-119920248D01*
X138614274Y-119589236D01*
X138029916Y-119473000D01*
X137970084Y-119473000D01*
X137385726Y-119589236D01*
X136890332Y-119920248D01*
X136559320Y-120415642D01*
X136443084Y-121000000D01*
X129367001Y-121000000D01*
X129367265Y-120697593D01*
X129135283Y-120136154D01*
X128706106Y-119706227D01*
X128145072Y-119473265D01*
X127537593Y-119472735D01*
X126976154Y-119704717D01*
X126546227Y-120133894D01*
X126313265Y-120694928D01*
X126312735Y-121302407D01*
X116291411Y-121302407D01*
X120693818Y-116900000D01*
X130118758Y-116900000D01*
X130118758Y-118600000D01*
X130169451Y-118869410D01*
X130328672Y-119116846D01*
X130571615Y-119282843D01*
X130860000Y-119341242D01*
X132560000Y-119341242D01*
X132829410Y-119290549D01*
X133076846Y-119131328D01*
X133205433Y-118943136D01*
X133646508Y-119237853D01*
X134250000Y-119357895D01*
X134853492Y-119237853D01*
X135365107Y-118896002D01*
X135706958Y-118384387D01*
X135827000Y-117780895D01*
X135827000Y-117719105D01*
X135706958Y-117115613D01*
X135365107Y-116603998D01*
X135059804Y-116400000D01*
X168118758Y-116400000D01*
X168118758Y-118100000D01*
X168169451Y-118369410D01*
X168328672Y-118616846D01*
X168571615Y-118782843D01*
X168860000Y-118841242D01*
X170560000Y-118841242D01*
X170829410Y-118790549D01*
X171076846Y-118631328D01*
X171205433Y-118443136D01*
X171646508Y-118737853D01*
X172250000Y-118857895D01*
X172853492Y-118737853D01*
X173365107Y-118396002D01*
X173706958Y-117884387D01*
X173827000Y-117280895D01*
X173827000Y-117219105D01*
X173706958Y-116615613D01*
X173562890Y-116400000D01*
X206868758Y-116400000D01*
X206868758Y-118100000D01*
X206919451Y-118369410D01*
X207078672Y-118616846D01*
X207321615Y-118782843D01*
X207610000Y-118841242D01*
X209310000Y-118841242D01*
X209579410Y-118790549D01*
X209826846Y-118631328D01*
X209955433Y-118443136D01*
X210396508Y-118737853D01*
X211000000Y-118857895D01*
X211603492Y-118737853D01*
X212115107Y-118396002D01*
X212456958Y-117884387D01*
X212577000Y-117280895D01*
X212577000Y-117219105D01*
X212456958Y-116615613D01*
X212115107Y-116103998D01*
X211603492Y-115762147D01*
X211000000Y-115642105D01*
X210396508Y-115762147D01*
X209953807Y-116057951D01*
X209841328Y-115883154D01*
X209598385Y-115717157D01*
X209310000Y-115658758D01*
X207610000Y-115658758D01*
X207340590Y-115709451D01*
X207093154Y-115868672D01*
X206927157Y-116111615D01*
X206868758Y-116400000D01*
X173562890Y-116400000D01*
X173365107Y-116103998D01*
X172853492Y-115762147D01*
X172250000Y-115642105D01*
X171646508Y-115762147D01*
X171203807Y-116057951D01*
X171091328Y-115883154D01*
X170848385Y-115717157D01*
X170560000Y-115658758D01*
X168860000Y-115658758D01*
X168590590Y-115709451D01*
X168343154Y-115868672D01*
X168177157Y-116111615D01*
X168118758Y-116400000D01*
X135059804Y-116400000D01*
X134853492Y-116262147D01*
X134250000Y-116142105D01*
X133646508Y-116262147D01*
X133203807Y-116557951D01*
X133091328Y-116383154D01*
X132848385Y-116217157D01*
X132560000Y-116158758D01*
X130860000Y-116158758D01*
X130590590Y-116209451D01*
X130343154Y-116368672D01*
X130177157Y-116611615D01*
X130118758Y-116900000D01*
X120693818Y-116900000D01*
X124796909Y-112796909D01*
X125015286Y-112470084D01*
X127973000Y-112470084D01*
X127973000Y-112529916D01*
X128089236Y-113114274D01*
X128420248Y-113609668D01*
X128915642Y-113940680D01*
X129500000Y-114056916D01*
X130084358Y-113940680D01*
X130579752Y-113609668D01*
X130910764Y-113114274D01*
X131007075Y-112630084D01*
X134973000Y-112630084D01*
X134973000Y-112689916D01*
X135089236Y-113274274D01*
X135420248Y-113769668D01*
X135915642Y-114100680D01*
X136500000Y-114216916D01*
X137084358Y-114100680D01*
X137579752Y-113769668D01*
X137910764Y-113274274D01*
X138027000Y-112689916D01*
X138027000Y-112630084D01*
X137995175Y-112470084D01*
X141473000Y-112470084D01*
X141473000Y-112529916D01*
X141589236Y-113114274D01*
X141920248Y-113609668D01*
X142415642Y-113940680D01*
X143000000Y-114056916D01*
X143584358Y-113940680D01*
X144079752Y-113609668D01*
X144410764Y-113114274D01*
X144439445Y-112970084D01*
X165973000Y-112970084D01*
X165973000Y-113029916D01*
X166089236Y-113614274D01*
X166420248Y-114109668D01*
X166915642Y-114440680D01*
X167500000Y-114556916D01*
X168084358Y-114440680D01*
X168579752Y-114109668D01*
X168910764Y-113614274D01*
X169007075Y-113130084D01*
X172973000Y-113130084D01*
X172973000Y-113189916D01*
X173089236Y-113774274D01*
X173420248Y-114269668D01*
X173915642Y-114600680D01*
X174500000Y-114716916D01*
X175084358Y-114600680D01*
X175579752Y-114269668D01*
X175910764Y-113774274D01*
X176027000Y-113189916D01*
X176027000Y-113130084D01*
X175995175Y-112970084D01*
X178973000Y-112970084D01*
X178973000Y-113029916D01*
X179089236Y-113614274D01*
X179420248Y-114109668D01*
X179915642Y-114440680D01*
X180500000Y-114556916D01*
X181084358Y-114440680D01*
X181579752Y-114109668D01*
X181910764Y-113614274D01*
X182007075Y-113130084D01*
X204473000Y-113130084D01*
X204473000Y-113189916D01*
X204589236Y-113774274D01*
X204920248Y-114269668D01*
X205415642Y-114600680D01*
X206000000Y-114716916D01*
X206584358Y-114600680D01*
X207079752Y-114269668D01*
X207410764Y-113774274D01*
X207527000Y-113189916D01*
X207527000Y-113130084D01*
X210973000Y-113130084D01*
X210973000Y-113189916D01*
X211089236Y-113774274D01*
X211420248Y-114269668D01*
X211915642Y-114600680D01*
X212500000Y-114716916D01*
X213084358Y-114600680D01*
X213579752Y-114269668D01*
X213910764Y-113774274D01*
X214027000Y-113189916D01*
X214027000Y-113130084D01*
X213995175Y-112970084D01*
X217973000Y-112970084D01*
X217973000Y-113029916D01*
X218089236Y-113614274D01*
X218420248Y-114109668D01*
X218915642Y-114440680D01*
X219500000Y-114556916D01*
X220084358Y-114440680D01*
X220579752Y-114109668D01*
X220910764Y-113614274D01*
X221027000Y-113029916D01*
X221027000Y-112970084D01*
X220910764Y-112385726D01*
X220579752Y-111890332D01*
X220084358Y-111559320D01*
X219500000Y-111443084D01*
X218915642Y-111559320D01*
X218420248Y-111890332D01*
X218089236Y-112385726D01*
X217973000Y-112970084D01*
X213995175Y-112970084D01*
X213910764Y-112545726D01*
X213579752Y-112050332D01*
X213084358Y-111719320D01*
X212500000Y-111603084D01*
X211915642Y-111719320D01*
X211420248Y-112050332D01*
X211089236Y-112545726D01*
X210973000Y-113130084D01*
X207527000Y-113130084D01*
X207410764Y-112545726D01*
X207079752Y-112050332D01*
X206584358Y-111719320D01*
X206000000Y-111603084D01*
X205415642Y-111719320D01*
X204920248Y-112050332D01*
X204589236Y-112545726D01*
X204473000Y-113130084D01*
X182007075Y-113130084D01*
X182027000Y-113029916D01*
X182027000Y-112970084D01*
X181910764Y-112385726D01*
X181579752Y-111890332D01*
X181084358Y-111559320D01*
X180500000Y-111443084D01*
X179915642Y-111559320D01*
X179420248Y-111890332D01*
X179089236Y-112385726D01*
X178973000Y-112970084D01*
X175995175Y-112970084D01*
X175910764Y-112545726D01*
X175579752Y-112050332D01*
X175084358Y-111719320D01*
X174500000Y-111603084D01*
X173915642Y-111719320D01*
X173420248Y-112050332D01*
X173089236Y-112545726D01*
X172973000Y-113130084D01*
X169007075Y-113130084D01*
X169027000Y-113029916D01*
X169027000Y-112970084D01*
X168910764Y-112385726D01*
X168579752Y-111890332D01*
X168084358Y-111559320D01*
X167500000Y-111443084D01*
X166915642Y-111559320D01*
X166420248Y-111890332D01*
X166089236Y-112385726D01*
X165973000Y-112970084D01*
X144439445Y-112970084D01*
X144527000Y-112529916D01*
X144527000Y-112470084D01*
X144410764Y-111885726D01*
X144079752Y-111390332D01*
X143584358Y-111059320D01*
X143000000Y-110943084D01*
X142415642Y-111059320D01*
X141920248Y-111390332D01*
X141589236Y-111885726D01*
X141473000Y-112470084D01*
X137995175Y-112470084D01*
X137910764Y-112045726D01*
X137579752Y-111550332D01*
X137084358Y-111219320D01*
X136500000Y-111103084D01*
X135915642Y-111219320D01*
X135420248Y-111550332D01*
X135089236Y-112045726D01*
X134973000Y-112630084D01*
X131007075Y-112630084D01*
X131027000Y-112529916D01*
X131027000Y-112470084D01*
X130910764Y-111885726D01*
X130579752Y-111390332D01*
X130084358Y-111059320D01*
X129500000Y-110943084D01*
X128915642Y-111059320D01*
X128420248Y-111390332D01*
X128089236Y-111885726D01*
X127973000Y-112470084D01*
X125015286Y-112470084D01*
X125041212Y-112431284D01*
X125050274Y-112385726D01*
X125127000Y-112000000D01*
X125127000Y-109302407D01*
X141472735Y-109302407D01*
X141704717Y-109863846D01*
X142133894Y-110293773D01*
X142694928Y-110526735D01*
X143302407Y-110527265D01*
X143863846Y-110295283D01*
X144293773Y-109866106D01*
X144320223Y-109802407D01*
X178972735Y-109802407D01*
X179204717Y-110363846D01*
X179633894Y-110793773D01*
X180194928Y-111026735D01*
X180802407Y-111027265D01*
X181363846Y-110795283D01*
X181793773Y-110366106D01*
X182026735Y-109805072D01*
X182027173Y-109302407D01*
X217972735Y-109302407D01*
X218204717Y-109863846D01*
X218633894Y-110293773D01*
X219194928Y-110526735D01*
X219802407Y-110527265D01*
X220363846Y-110295283D01*
X220793773Y-109866106D01*
X221026735Y-109305072D01*
X221027265Y-108697593D01*
X220795283Y-108136154D01*
X220366106Y-107706227D01*
X219805072Y-107473265D01*
X219197593Y-107472735D01*
X218636154Y-107704717D01*
X218206227Y-108133894D01*
X217973265Y-108694928D01*
X217972735Y-109302407D01*
X182027173Y-109302407D01*
X182027265Y-109197593D01*
X181795283Y-108636154D01*
X181366106Y-108206227D01*
X180805072Y-107973265D01*
X180197593Y-107972735D01*
X179636154Y-108204717D01*
X179206227Y-108633894D01*
X178973265Y-109194928D01*
X178972735Y-109802407D01*
X144320223Y-109802407D01*
X144526735Y-109305072D01*
X144527265Y-108697593D01*
X144295283Y-108136154D01*
X143866106Y-107706227D01*
X143305072Y-107473265D01*
X142697593Y-107472735D01*
X142136154Y-107704717D01*
X141706227Y-108133894D01*
X141473265Y-108694928D01*
X141472735Y-109302407D01*
X125127000Y-109302407D01*
X125127000Y-105507745D01*
X179671861Y-105507745D01*
X179745995Y-105753864D01*
X180283223Y-105946965D01*
X180853454Y-105919778D01*
X181254005Y-105753864D01*
X181328139Y-105507745D01*
X180500000Y-104679605D01*
X179671861Y-105507745D01*
X125127000Y-105507745D01*
X125127000Y-105007745D01*
X142171861Y-105007745D01*
X142245995Y-105253864D01*
X142783223Y-105446965D01*
X143353454Y-105419778D01*
X143754005Y-105253864D01*
X143828139Y-105007745D01*
X143000000Y-104179605D01*
X142171861Y-105007745D01*
X125127000Y-105007745D01*
X125127000Y-99802407D01*
X127972735Y-99802407D01*
X128204717Y-100363846D01*
X128633894Y-100793773D01*
X128937937Y-100920023D01*
X128636154Y-101044717D01*
X128206227Y-101473894D01*
X127973265Y-102034928D01*
X127972735Y-102642407D01*
X128204717Y-103203846D01*
X128633894Y-103633773D01*
X129194928Y-103866735D01*
X129802407Y-103867265D01*
X130363846Y-103635283D01*
X130793773Y-103206106D01*
X131026735Y-102645072D01*
X131027265Y-102037593D01*
X130795283Y-101476154D01*
X130366106Y-101046227D01*
X130062063Y-100919977D01*
X130363846Y-100795283D01*
X130793773Y-100366106D01*
X131026735Y-99805072D01*
X131026737Y-99802407D01*
X134972735Y-99802407D01*
X135204717Y-100363846D01*
X135633894Y-100793773D01*
X136131074Y-101000220D01*
X135636154Y-101204717D01*
X135206227Y-101633894D01*
X134973265Y-102194928D01*
X134972735Y-102802407D01*
X135204717Y-103363846D01*
X135633894Y-103793773D01*
X136194928Y-104026735D01*
X136802407Y-104027265D01*
X137363846Y-103795283D01*
X137375927Y-103783223D01*
X141553035Y-103783223D01*
X141580222Y-104353454D01*
X141746136Y-104754005D01*
X141992255Y-104828139D01*
X142820395Y-104000000D01*
X143179605Y-104000000D01*
X144007745Y-104828139D01*
X144253864Y-104754005D01*
X144446965Y-104216777D01*
X144419778Y-103646546D01*
X144253864Y-103245995D01*
X144007745Y-103171861D01*
X143179605Y-104000000D01*
X142820395Y-104000000D01*
X141992255Y-103171861D01*
X141746136Y-103245995D01*
X141553035Y-103783223D01*
X137375927Y-103783223D01*
X137793773Y-103366106D01*
X137949009Y-102992255D01*
X142171861Y-102992255D01*
X143000000Y-103820395D01*
X143828139Y-102992255D01*
X143754005Y-102746136D01*
X143216777Y-102553035D01*
X142646546Y-102580222D01*
X142245995Y-102746136D01*
X142171861Y-102992255D01*
X137949009Y-102992255D01*
X138026735Y-102805072D01*
X138027265Y-102197593D01*
X137795283Y-101636154D01*
X137366106Y-101206227D01*
X136868926Y-100999780D01*
X137363846Y-100795283D01*
X137793773Y-100366106D01*
X137820223Y-100302407D01*
X165972735Y-100302407D01*
X166204717Y-100863846D01*
X166633894Y-101293773D01*
X166937937Y-101420023D01*
X166636154Y-101544717D01*
X166206227Y-101973894D01*
X165973265Y-102534928D01*
X165972735Y-103142407D01*
X166204717Y-103703846D01*
X166633894Y-104133773D01*
X167194928Y-104366735D01*
X167802407Y-104367265D01*
X168363846Y-104135283D01*
X168793773Y-103706106D01*
X169026735Y-103145072D01*
X169027265Y-102537593D01*
X168795283Y-101976154D01*
X168366106Y-101546227D01*
X168062063Y-101419977D01*
X168363846Y-101295283D01*
X168793773Y-100866106D01*
X169026735Y-100305072D01*
X169026737Y-100302407D01*
X172972735Y-100302407D01*
X173204717Y-100863846D01*
X173633894Y-101293773D01*
X174131074Y-101500220D01*
X173636154Y-101704717D01*
X173206227Y-102133894D01*
X172973265Y-102694928D01*
X172972735Y-103302407D01*
X173204717Y-103863846D01*
X173633894Y-104293773D01*
X174194928Y-104526735D01*
X174802407Y-104527265D01*
X175363846Y-104295283D01*
X175375927Y-104283223D01*
X179053035Y-104283223D01*
X179080222Y-104853454D01*
X179246136Y-105254005D01*
X179492255Y-105328139D01*
X180320395Y-104500000D01*
X180679605Y-104500000D01*
X181507745Y-105328139D01*
X181753864Y-105254005D01*
X181842379Y-105007745D01*
X218671861Y-105007745D01*
X218745995Y-105253864D01*
X219283223Y-105446965D01*
X219853454Y-105419778D01*
X220254005Y-105253864D01*
X220328139Y-105007745D01*
X219500000Y-104179605D01*
X218671861Y-105007745D01*
X181842379Y-105007745D01*
X181946965Y-104716777D01*
X181919778Y-104146546D01*
X181753864Y-103745995D01*
X181507745Y-103671861D01*
X180679605Y-104500000D01*
X180320395Y-104500000D01*
X179492255Y-103671861D01*
X179246136Y-103745995D01*
X179053035Y-104283223D01*
X175375927Y-104283223D01*
X175793773Y-103866106D01*
X175949009Y-103492255D01*
X179671861Y-103492255D01*
X180500000Y-104320395D01*
X181328139Y-103492255D01*
X181254005Y-103246136D01*
X180716777Y-103053035D01*
X180146546Y-103080222D01*
X179745995Y-103246136D01*
X179671861Y-103492255D01*
X175949009Y-103492255D01*
X176026735Y-103305072D01*
X176027265Y-102697593D01*
X175795283Y-102136154D01*
X175366106Y-101706227D01*
X174868926Y-101499780D01*
X175363846Y-101295283D01*
X175793773Y-100866106D01*
X176026735Y-100305072D01*
X176026737Y-100302407D01*
X204472735Y-100302407D01*
X204704717Y-100863846D01*
X205133894Y-101293773D01*
X205631074Y-101500220D01*
X205136154Y-101704717D01*
X204706227Y-102133894D01*
X204473265Y-102694928D01*
X204472735Y-103302407D01*
X204704717Y-103863846D01*
X205133894Y-104293773D01*
X205694928Y-104526735D01*
X206302407Y-104527265D01*
X206863846Y-104295283D01*
X207293773Y-103866106D01*
X207526735Y-103305072D01*
X207527265Y-102697593D01*
X207295283Y-102136154D01*
X206866106Y-101706227D01*
X206368926Y-101499780D01*
X206863846Y-101295283D01*
X207293773Y-100866106D01*
X207526735Y-100305072D01*
X207526737Y-100302407D01*
X210972735Y-100302407D01*
X211204717Y-100863846D01*
X211633894Y-101293773D01*
X212131074Y-101500220D01*
X211636154Y-101704717D01*
X211206227Y-102133894D01*
X210973265Y-102694928D01*
X210972735Y-103302407D01*
X211204717Y-103863846D01*
X211633894Y-104293773D01*
X212194928Y-104526735D01*
X212802407Y-104527265D01*
X213363846Y-104295283D01*
X213793773Y-103866106D01*
X213828189Y-103783223D01*
X218053035Y-103783223D01*
X218080222Y-104353454D01*
X218246136Y-104754005D01*
X218492255Y-104828139D01*
X219320395Y-104000000D01*
X219679605Y-104000000D01*
X220507745Y-104828139D01*
X220753864Y-104754005D01*
X220946965Y-104216777D01*
X220919778Y-103646546D01*
X220753864Y-103245995D01*
X220507745Y-103171861D01*
X219679605Y-104000000D01*
X219320395Y-104000000D01*
X218492255Y-103171861D01*
X218246136Y-103245995D01*
X218053035Y-103783223D01*
X213828189Y-103783223D01*
X214026735Y-103305072D01*
X214027007Y-102992255D01*
X218671861Y-102992255D01*
X219500000Y-103820395D01*
X220328139Y-102992255D01*
X220254005Y-102746136D01*
X219716777Y-102553035D01*
X219146546Y-102580222D01*
X218745995Y-102746136D01*
X218671861Y-102992255D01*
X214027007Y-102992255D01*
X214027265Y-102697593D01*
X213795283Y-102136154D01*
X213366106Y-101706227D01*
X212868926Y-101499780D01*
X213363846Y-101295283D01*
X213793773Y-100866106D01*
X214026735Y-100305072D01*
X214027265Y-99697593D01*
X213795283Y-99136154D01*
X213366106Y-98706227D01*
X212805072Y-98473265D01*
X212197593Y-98472735D01*
X211636154Y-98704717D01*
X211206227Y-99133894D01*
X210973265Y-99694928D01*
X210972735Y-100302407D01*
X207526737Y-100302407D01*
X207527265Y-99697593D01*
X207295283Y-99136154D01*
X206866106Y-98706227D01*
X206305072Y-98473265D01*
X205697593Y-98472735D01*
X205136154Y-98704717D01*
X204706227Y-99133894D01*
X204473265Y-99694928D01*
X204472735Y-100302407D01*
X176026737Y-100302407D01*
X176027265Y-99697593D01*
X175795283Y-99136154D01*
X175366106Y-98706227D01*
X174805072Y-98473265D01*
X174197593Y-98472735D01*
X173636154Y-98704717D01*
X173206227Y-99133894D01*
X172973265Y-99694928D01*
X172972735Y-100302407D01*
X169026737Y-100302407D01*
X169027265Y-99697593D01*
X168795283Y-99136154D01*
X168366106Y-98706227D01*
X167805072Y-98473265D01*
X167197593Y-98472735D01*
X166636154Y-98704717D01*
X166206227Y-99133894D01*
X165973265Y-99694928D01*
X165972735Y-100302407D01*
X137820223Y-100302407D01*
X138026735Y-99805072D01*
X138027265Y-99197593D01*
X137795283Y-98636154D01*
X137366106Y-98206227D01*
X136805072Y-97973265D01*
X136197593Y-97972735D01*
X135636154Y-98204717D01*
X135206227Y-98633894D01*
X134973265Y-99194928D01*
X134972735Y-99802407D01*
X131026737Y-99802407D01*
X131027265Y-99197593D01*
X130795283Y-98636154D01*
X130366106Y-98206227D01*
X129805072Y-97973265D01*
X129197593Y-97972735D01*
X128636154Y-98204717D01*
X128206227Y-98633894D01*
X127973265Y-99194928D01*
X127972735Y-99802407D01*
X125127000Y-99802407D01*
X125127000Y-94802407D01*
X127972735Y-94802407D01*
X128204717Y-95363846D01*
X128633894Y-95793773D01*
X129194928Y-96026735D01*
X129802407Y-96027265D01*
X130363846Y-95795283D01*
X130793773Y-95366106D01*
X131026735Y-94805072D01*
X131026737Y-94802407D01*
X134972735Y-94802407D01*
X135204717Y-95363846D01*
X135633894Y-95793773D01*
X136194928Y-96026735D01*
X136802407Y-96027265D01*
X137363846Y-95795283D01*
X137793773Y-95366106D01*
X137820223Y-95302407D01*
X165972735Y-95302407D01*
X166204717Y-95863846D01*
X166633894Y-96293773D01*
X167194928Y-96526735D01*
X167802407Y-96527265D01*
X168363846Y-96295283D01*
X168793773Y-95866106D01*
X169026735Y-95305072D01*
X169026737Y-95302407D01*
X172972735Y-95302407D01*
X173204717Y-95863846D01*
X173633894Y-96293773D01*
X174194928Y-96526735D01*
X174802407Y-96527265D01*
X175363846Y-96295283D01*
X175793773Y-95866106D01*
X176026735Y-95305072D01*
X176026737Y-95302407D01*
X204472735Y-95302407D01*
X204704717Y-95863846D01*
X205133894Y-96293773D01*
X205694928Y-96526735D01*
X206302407Y-96527265D01*
X206863846Y-96295283D01*
X207293773Y-95866106D01*
X207526735Y-95305072D01*
X207526737Y-95302407D01*
X210972735Y-95302407D01*
X211204717Y-95863846D01*
X211633894Y-96293773D01*
X212194928Y-96526735D01*
X212802407Y-96527265D01*
X213363846Y-96295283D01*
X213793773Y-95866106D01*
X214026735Y-95305072D01*
X214027265Y-94697593D01*
X213795283Y-94136154D01*
X213366106Y-93706227D01*
X212805072Y-93473265D01*
X212197593Y-93472735D01*
X211636154Y-93704717D01*
X211206227Y-94133894D01*
X210973265Y-94694928D01*
X210972735Y-95302407D01*
X207526737Y-95302407D01*
X207527265Y-94697593D01*
X207295283Y-94136154D01*
X206866106Y-93706227D01*
X206305072Y-93473265D01*
X205697593Y-93472735D01*
X205136154Y-93704717D01*
X204706227Y-94133894D01*
X204473265Y-94694928D01*
X204472735Y-95302407D01*
X176026737Y-95302407D01*
X176027265Y-94697593D01*
X175795283Y-94136154D01*
X175366106Y-93706227D01*
X174805072Y-93473265D01*
X174197593Y-93472735D01*
X173636154Y-93704717D01*
X173206227Y-94133894D01*
X172973265Y-94694928D01*
X172972735Y-95302407D01*
X169026737Y-95302407D01*
X169027265Y-94697593D01*
X168795283Y-94136154D01*
X168366106Y-93706227D01*
X167805072Y-93473265D01*
X167197593Y-93472735D01*
X166636154Y-93704717D01*
X166206227Y-94133894D01*
X165973265Y-94694928D01*
X165972735Y-95302407D01*
X137820223Y-95302407D01*
X138026735Y-94805072D01*
X138027265Y-94197593D01*
X137795283Y-93636154D01*
X137366106Y-93206227D01*
X136805072Y-92973265D01*
X136197593Y-92972735D01*
X135636154Y-93204717D01*
X135206227Y-93633894D01*
X134973265Y-94194928D01*
X134972735Y-94802407D01*
X131026737Y-94802407D01*
X131027265Y-94197593D01*
X130795283Y-93636154D01*
X130366106Y-93206227D01*
X129805072Y-92973265D01*
X129197593Y-92972735D01*
X128636154Y-93204717D01*
X128206227Y-93633894D01*
X127973265Y-94194928D01*
X127972735Y-94802407D01*
X125127000Y-94802407D01*
X125127000Y-89484000D01*
X130242758Y-89484000D01*
X130242758Y-91516000D01*
X130293451Y-91785410D01*
X130452672Y-92032846D01*
X130695615Y-92198843D01*
X130984000Y-92257242D01*
X133016000Y-92257242D01*
X133285410Y-92206549D01*
X133532846Y-92047328D01*
X133599207Y-91950207D01*
X133838836Y-92110322D01*
X134505853Y-92243000D01*
X134574147Y-92243000D01*
X135241164Y-92110322D01*
X135806634Y-91732487D01*
X136184469Y-91167017D01*
X136317147Y-90500000D01*
X136214509Y-89984000D01*
X167742758Y-89984000D01*
X167742758Y-92016000D01*
X167793451Y-92285410D01*
X167952672Y-92532846D01*
X168195615Y-92698843D01*
X168484000Y-92757242D01*
X170516000Y-92757242D01*
X170785410Y-92706549D01*
X171032846Y-92547328D01*
X171099207Y-92450207D01*
X171338836Y-92610322D01*
X172005853Y-92743000D01*
X172074147Y-92743000D01*
X172741164Y-92610322D01*
X173306634Y-92232487D01*
X173684469Y-91667017D01*
X173817147Y-91000000D01*
X173684469Y-90332983D01*
X173306634Y-89767513D01*
X172882327Y-89484000D01*
X206202758Y-89484000D01*
X206202758Y-91516000D01*
X206253451Y-91785410D01*
X206412672Y-92032846D01*
X206655615Y-92198843D01*
X206944000Y-92257242D01*
X208976000Y-92257242D01*
X209245410Y-92206549D01*
X209492846Y-92047328D01*
X209559207Y-91950207D01*
X209798836Y-92110322D01*
X210465853Y-92243000D01*
X210534147Y-92243000D01*
X211201164Y-92110322D01*
X211766634Y-91732487D01*
X212144469Y-91167017D01*
X212277147Y-90500000D01*
X212144469Y-89832983D01*
X211766634Y-89267513D01*
X211201164Y-88889678D01*
X210534147Y-88757000D01*
X210465853Y-88757000D01*
X209798836Y-88889678D01*
X209560115Y-89049187D01*
X209507328Y-88967154D01*
X209264385Y-88801157D01*
X208976000Y-88742758D01*
X206944000Y-88742758D01*
X206674590Y-88793451D01*
X206427154Y-88952672D01*
X206261157Y-89195615D01*
X206202758Y-89484000D01*
X172882327Y-89484000D01*
X172741164Y-89389678D01*
X172074147Y-89257000D01*
X172005853Y-89257000D01*
X171338836Y-89389678D01*
X171100115Y-89549187D01*
X171047328Y-89467154D01*
X170804385Y-89301157D01*
X170516000Y-89242758D01*
X168484000Y-89242758D01*
X168214590Y-89293451D01*
X167967154Y-89452672D01*
X167801157Y-89695615D01*
X167742758Y-89984000D01*
X136214509Y-89984000D01*
X136184469Y-89832983D01*
X135806634Y-89267513D01*
X135241164Y-88889678D01*
X134574147Y-88757000D01*
X134505853Y-88757000D01*
X133838836Y-88889678D01*
X133600115Y-89049187D01*
X133547328Y-88967154D01*
X133304385Y-88801157D01*
X133016000Y-88742758D01*
X130984000Y-88742758D01*
X130714590Y-88793451D01*
X130467154Y-88952672D01*
X130301157Y-89195615D01*
X130242758Y-89484000D01*
X125127000Y-89484000D01*
X125127000Y-71007745D01*
X126671861Y-71007745D01*
X126745995Y-71253864D01*
X127283223Y-71446965D01*
X127853454Y-71419778D01*
X128254005Y-71253864D01*
X128328139Y-71007745D01*
X127500000Y-70179605D01*
X126671861Y-71007745D01*
X125127000Y-71007745D01*
X125127000Y-68812885D01*
X125421094Y-69009392D01*
X125468716Y-69041212D01*
X125900000Y-69127000D01*
X126046509Y-69127000D01*
X126168672Y-69316846D01*
X126210417Y-69345369D01*
X126053035Y-69783223D01*
X126080222Y-70353454D01*
X126246136Y-70754005D01*
X126492255Y-70828139D01*
X127320395Y-70000000D01*
X127306252Y-69985858D01*
X127485858Y-69806253D01*
X127500000Y-69820395D01*
X127514143Y-69806253D01*
X127693748Y-69985858D01*
X127679605Y-70000000D01*
X128507745Y-70828139D01*
X128753864Y-70754005D01*
X128946965Y-70216777D01*
X128941631Y-70104881D01*
X193870742Y-70104881D01*
X194096951Y-70652349D01*
X194515448Y-71071577D01*
X195062520Y-71298741D01*
X195654881Y-71299258D01*
X196202349Y-71073049D01*
X196621577Y-70654552D01*
X196629739Y-70634895D01*
X196636951Y-70652349D01*
X197055448Y-71071577D01*
X197602520Y-71298741D01*
X198194881Y-71299258D01*
X198742349Y-71073049D01*
X199161577Y-70654552D01*
X199169739Y-70634895D01*
X199176951Y-70652349D01*
X199595448Y-71071577D01*
X200142520Y-71298741D01*
X200734881Y-71299258D01*
X201282349Y-71073049D01*
X201565679Y-70790213D01*
X202179392Y-70790213D01*
X202248857Y-71032397D01*
X202772302Y-71219144D01*
X203327368Y-71191362D01*
X203711143Y-71032397D01*
X203780608Y-70790213D01*
X202980000Y-69989605D01*
X202179392Y-70790213D01*
X201565679Y-70790213D01*
X201701577Y-70654552D01*
X201753141Y-70530371D01*
X201757603Y-70541143D01*
X201999787Y-70610608D01*
X202800395Y-69810000D01*
X203159605Y-69810000D01*
X203960213Y-70610608D01*
X204202397Y-70541143D01*
X204206384Y-70529967D01*
X204256951Y-70652349D01*
X204675448Y-71071577D01*
X205222520Y-71298741D01*
X205814881Y-71299258D01*
X206362349Y-71073049D01*
X206781577Y-70654552D01*
X206789739Y-70634895D01*
X206796951Y-70652349D01*
X207215448Y-71071577D01*
X207762520Y-71298741D01*
X208354881Y-71299258D01*
X208902349Y-71073049D01*
X209321577Y-70654552D01*
X209329739Y-70634895D01*
X209336951Y-70652349D01*
X209755448Y-71071577D01*
X210302520Y-71298741D01*
X210894881Y-71299258D01*
X211442349Y-71073049D01*
X211861577Y-70654552D01*
X211869739Y-70634895D01*
X211876951Y-70652349D01*
X212295448Y-71071577D01*
X212842520Y-71298741D01*
X213434881Y-71299258D01*
X213982349Y-71073049D01*
X214401577Y-70654552D01*
X214409739Y-70634895D01*
X214416951Y-70652349D01*
X214835448Y-71071577D01*
X215382520Y-71298741D01*
X215974881Y-71299258D01*
X216522349Y-71073049D01*
X216941577Y-70654552D01*
X216949739Y-70634895D01*
X216956951Y-70652349D01*
X217375448Y-71071577D01*
X217922520Y-71298741D01*
X218514881Y-71299258D01*
X219062349Y-71073049D01*
X219481577Y-70654552D01*
X219489739Y-70634895D01*
X219496951Y-70652349D01*
X219915448Y-71071577D01*
X220462520Y-71298741D01*
X221054881Y-71299258D01*
X221602349Y-71073049D01*
X222021577Y-70654552D01*
X222029739Y-70634895D01*
X222036951Y-70652349D01*
X222455448Y-71071577D01*
X223002520Y-71298741D01*
X223594881Y-71299258D01*
X224142349Y-71073049D01*
X224561577Y-70654552D01*
X224569739Y-70634895D01*
X224576951Y-70652349D01*
X224995448Y-71071577D01*
X225542520Y-71298741D01*
X226134881Y-71299258D01*
X226682349Y-71073049D01*
X227101577Y-70654552D01*
X227109739Y-70634895D01*
X227116951Y-70652349D01*
X227535448Y-71071577D01*
X228082520Y-71298741D01*
X228674881Y-71299258D01*
X229222349Y-71073049D01*
X229641577Y-70654552D01*
X229649739Y-70634895D01*
X229656951Y-70652349D01*
X230075448Y-71071577D01*
X230622520Y-71298741D01*
X231214881Y-71299258D01*
X231762349Y-71073049D01*
X232181577Y-70654552D01*
X232189739Y-70634895D01*
X232196951Y-70652349D01*
X232615448Y-71071577D01*
X233162520Y-71298741D01*
X233754881Y-71299258D01*
X234302349Y-71073049D01*
X234721577Y-70654552D01*
X234948741Y-70107480D01*
X234949258Y-69515119D01*
X234723049Y-68967651D01*
X234304552Y-68548423D01*
X233757480Y-68321259D01*
X233165119Y-68320742D01*
X232617651Y-68546951D01*
X232198423Y-68965448D01*
X232190261Y-68985105D01*
X232183049Y-68967651D01*
X231764552Y-68548423D01*
X231217480Y-68321259D01*
X230625119Y-68320742D01*
X230077651Y-68546951D01*
X229658423Y-68965448D01*
X229650261Y-68985105D01*
X229643049Y-68967651D01*
X229224552Y-68548423D01*
X228677480Y-68321259D01*
X228085119Y-68320742D01*
X227537651Y-68546951D01*
X227118423Y-68965448D01*
X227110261Y-68985105D01*
X227103049Y-68967651D01*
X226684552Y-68548423D01*
X226137480Y-68321259D01*
X225545119Y-68320742D01*
X224997651Y-68546951D01*
X224578423Y-68965448D01*
X224570261Y-68985105D01*
X224563049Y-68967651D01*
X224144552Y-68548423D01*
X223597480Y-68321259D01*
X223005119Y-68320742D01*
X222457651Y-68546951D01*
X222038423Y-68965448D01*
X222030261Y-68985105D01*
X222023049Y-68967651D01*
X221604552Y-68548423D01*
X221057480Y-68321259D01*
X220465119Y-68320742D01*
X219917651Y-68546951D01*
X219498423Y-68965448D01*
X219490261Y-68985105D01*
X219483049Y-68967651D01*
X219064552Y-68548423D01*
X218517480Y-68321259D01*
X217925119Y-68320742D01*
X217377651Y-68546951D01*
X216958423Y-68965448D01*
X216950261Y-68985105D01*
X216943049Y-68967651D01*
X216524552Y-68548423D01*
X215977480Y-68321259D01*
X215385119Y-68320742D01*
X214837651Y-68546951D01*
X214418423Y-68965448D01*
X214410261Y-68985105D01*
X214403049Y-68967651D01*
X213984552Y-68548423D01*
X213437480Y-68321259D01*
X212845119Y-68320742D01*
X212297651Y-68546951D01*
X211878423Y-68965448D01*
X211870261Y-68985105D01*
X211863049Y-68967651D01*
X211444552Y-68548423D01*
X210897480Y-68321259D01*
X210305119Y-68320742D01*
X209757651Y-68546951D01*
X209338423Y-68965448D01*
X209330261Y-68985105D01*
X209323049Y-68967651D01*
X208904552Y-68548423D01*
X208357480Y-68321259D01*
X207765119Y-68320742D01*
X207217651Y-68546951D01*
X206798423Y-68965448D01*
X206790261Y-68985105D01*
X206783049Y-68967651D01*
X206364552Y-68548423D01*
X205817480Y-68321259D01*
X205225119Y-68320742D01*
X204677651Y-68546951D01*
X204258423Y-68965448D01*
X204206859Y-69089629D01*
X204202397Y-69078857D01*
X203960213Y-69009392D01*
X203159605Y-69810000D01*
X202800395Y-69810000D01*
X201999787Y-69009392D01*
X201757603Y-69078857D01*
X201753616Y-69090033D01*
X201703049Y-68967651D01*
X201565426Y-68829787D01*
X202179392Y-68829787D01*
X202980000Y-69630395D01*
X203780608Y-68829787D01*
X203711143Y-68587603D01*
X203187698Y-68400856D01*
X202632632Y-68428638D01*
X202248857Y-68587603D01*
X202179392Y-68829787D01*
X201565426Y-68829787D01*
X201284552Y-68548423D01*
X200737480Y-68321259D01*
X200145119Y-68320742D01*
X199597651Y-68546951D01*
X199178423Y-68965448D01*
X199170261Y-68985105D01*
X199163049Y-68967651D01*
X198744552Y-68548423D01*
X198197480Y-68321259D01*
X197605119Y-68320742D01*
X197057651Y-68546951D01*
X196638423Y-68965448D01*
X196630261Y-68985105D01*
X196623049Y-68967651D01*
X196204552Y-68548423D01*
X195657480Y-68321259D01*
X195065119Y-68320742D01*
X194517651Y-68546951D01*
X194098423Y-68965448D01*
X193871259Y-69512520D01*
X193870742Y-70104881D01*
X128941631Y-70104881D01*
X128919778Y-69646546D01*
X128795026Y-69345369D01*
X128816846Y-69331328D01*
X128982843Y-69088385D01*
X129041242Y-68800000D01*
X129041242Y-67200000D01*
X128990549Y-66930590D01*
X128831328Y-66683154D01*
X128588385Y-66517157D01*
X128300000Y-66458758D01*
X126700000Y-66458758D01*
X126430590Y-66509451D01*
X126183154Y-66668672D01*
X126174766Y-66680948D01*
X125127000Y-65633182D01*
X125127000Y-63420679D01*
X125517504Y-63159752D01*
X125848516Y-62664358D01*
X125964752Y-62080000D01*
X125848516Y-61495642D01*
X125517504Y-61000248D01*
X125232778Y-60810000D01*
X125517504Y-60619752D01*
X125848516Y-60124358D01*
X125964752Y-59540000D01*
X129655248Y-59540000D01*
X129771484Y-60124358D01*
X130102496Y-60619752D01*
X130102989Y-60620081D01*
X129903154Y-60748672D01*
X129737157Y-60991615D01*
X129678758Y-61280000D01*
X129678758Y-62880000D01*
X129729451Y-63149410D01*
X129888672Y-63396846D01*
X130131615Y-63562843D01*
X130420000Y-63621242D01*
X132820000Y-63621242D01*
X133089410Y-63570549D01*
X133336846Y-63411328D01*
X133502843Y-63168385D01*
X133561242Y-62880000D01*
X133561242Y-61280000D01*
X133510549Y-61010590D01*
X133351328Y-60763154D01*
X133138742Y-60617899D01*
X133468516Y-60124358D01*
X133584752Y-59540000D01*
X133468516Y-58955642D01*
X133137504Y-58460248D01*
X132766814Y-58212561D01*
X133124500Y-57924896D01*
X133394367Y-57431819D01*
X133411904Y-57349039D01*
X133330022Y-57200000D01*
X138458758Y-57200000D01*
X138458758Y-58800000D01*
X138509451Y-59069410D01*
X138668672Y-59316846D01*
X138911615Y-59482843D01*
X139200000Y-59541242D01*
X140800000Y-59541242D01*
X141069410Y-59490549D01*
X141316846Y-59331328D01*
X141482843Y-59088385D01*
X141541242Y-58800000D01*
X141541242Y-57200000D01*
X141490549Y-56930590D01*
X141354675Y-56719437D01*
X141526735Y-56305072D01*
X141527265Y-55697593D01*
X141295283Y-55136154D01*
X140866106Y-54706227D01*
X140305072Y-54473265D01*
X139697593Y-54472735D01*
X139136154Y-54704717D01*
X138706227Y-55133894D01*
X138473265Y-55694928D01*
X138472735Y-56302407D01*
X138646337Y-56722555D01*
X138517157Y-56911615D01*
X138458758Y-57200000D01*
X133330022Y-57200000D01*
X133289915Y-57127000D01*
X131747000Y-57127000D01*
X131747000Y-57147000D01*
X131493000Y-57147000D01*
X131493000Y-57127000D01*
X129950085Y-57127000D01*
X129828096Y-57349039D01*
X129845633Y-57431819D01*
X130115500Y-57924896D01*
X130473186Y-58212561D01*
X130102496Y-58460248D01*
X129771484Y-58955642D01*
X129655248Y-59540000D01*
X125964752Y-59540000D01*
X125848516Y-58955642D01*
X125517504Y-58460248D01*
X125232778Y-58270000D01*
X125517504Y-58079752D01*
X125848516Y-57584358D01*
X125964752Y-57000000D01*
X125848516Y-56415642D01*
X125517504Y-55920248D01*
X125232778Y-55730000D01*
X125517504Y-55539752D01*
X125848516Y-55044358D01*
X125964752Y-54460000D01*
X129655248Y-54460000D01*
X129771484Y-55044358D01*
X130102496Y-55539752D01*
X130473186Y-55787439D01*
X130115500Y-56075104D01*
X129845633Y-56568181D01*
X129828096Y-56650961D01*
X129950085Y-56873000D01*
X131493000Y-56873000D01*
X131493000Y-56853000D01*
X131747000Y-56853000D01*
X131747000Y-56873000D01*
X133289915Y-56873000D01*
X133411904Y-56650961D01*
X133394367Y-56568181D01*
X133124500Y-56075104D01*
X132766814Y-55787439D01*
X133137504Y-55539752D01*
X133468516Y-55044358D01*
X133584752Y-54460000D01*
X133468516Y-53875642D01*
X133137504Y-53380248D01*
X132642110Y-53049236D01*
X132057752Y-52933000D01*
X131182248Y-52933000D01*
X130597890Y-53049236D01*
X130102496Y-53380248D01*
X129771484Y-53875642D01*
X129655248Y-54460000D01*
X125964752Y-54460000D01*
X125848516Y-53875642D01*
X125517504Y-53380248D01*
X125022110Y-53049236D01*
X124437752Y-52933000D01*
X123562248Y-52933000D01*
X122977890Y-53049236D01*
X122482496Y-53380248D01*
X122151484Y-53875642D01*
X122035248Y-54460000D01*
X122151484Y-55044358D01*
X122482496Y-55539752D01*
X122767222Y-55730000D01*
X122482496Y-55920248D01*
X122151484Y-56415642D01*
X122035248Y-57000000D01*
X122151484Y-57584358D01*
X122482496Y-58079752D01*
X122767222Y-58270000D01*
X122482496Y-58460248D01*
X122151484Y-58955642D01*
X122035248Y-59540000D01*
X122151484Y-60124358D01*
X122482496Y-60619752D01*
X122767222Y-60810000D01*
X122482496Y-61000248D01*
X122151484Y-61495642D01*
X122035248Y-62080000D01*
X122151484Y-62664358D01*
X122482496Y-63159752D01*
X122873000Y-63420679D01*
X122873000Y-111533182D01*
X112203091Y-122203091D01*
X111958788Y-122568716D01*
X111873000Y-123000000D01*
X111873000Y-140946187D01*
X111559320Y-141415642D01*
X111443084Y-142000000D01*
X111559320Y-142584358D01*
X111890332Y-143079752D01*
X112385726Y-143410764D01*
X112924019Y-143517837D01*
X114279181Y-144873000D01*
X111200000Y-144873000D01*
X111200000Y-75302407D01*
X114472735Y-75302407D01*
X114704717Y-75863846D01*
X115133894Y-76293773D01*
X115694928Y-76526735D01*
X116302407Y-76527265D01*
X116816727Y-76314752D01*
X116840302Y-76338327D01*
X117073691Y-76435000D01*
X117714250Y-76435000D01*
X117873000Y-76276250D01*
X117873000Y-75127000D01*
X118127000Y-75127000D01*
X118127000Y-76276250D01*
X118285750Y-76435000D01*
X118926309Y-76435000D01*
X119159698Y-76338327D01*
X119338327Y-76159699D01*
X119435000Y-75926310D01*
X119435000Y-75285750D01*
X119276250Y-75127000D01*
X118127000Y-75127000D01*
X117873000Y-75127000D01*
X117853000Y-75127000D01*
X117853000Y-74873000D01*
X117873000Y-74873000D01*
X117873000Y-73723750D01*
X118127000Y-73723750D01*
X118127000Y-74873000D01*
X119276250Y-74873000D01*
X119435000Y-74714250D01*
X119435000Y-74073690D01*
X119338327Y-73840301D01*
X119159698Y-73661673D01*
X118926309Y-73565000D01*
X118285750Y-73565000D01*
X118127000Y-73723750D01*
X117873000Y-73723750D01*
X117714250Y-73565000D01*
X117073691Y-73565000D01*
X116840302Y-73661673D01*
X116816391Y-73685584D01*
X116305072Y-73473265D01*
X115697593Y-73472735D01*
X115136154Y-73704717D01*
X114706227Y-74133894D01*
X114473265Y-74694928D01*
X114472735Y-75302407D01*
X111200000Y-75302407D01*
X111200000Y-69302407D01*
X114472735Y-69302407D01*
X114704717Y-69863846D01*
X115133894Y-70293773D01*
X115694928Y-70526735D01*
X116302407Y-70527265D01*
X116816727Y-70314752D01*
X116840302Y-70338327D01*
X117073691Y-70435000D01*
X117714250Y-70435000D01*
X117873000Y-70276250D01*
X117873000Y-69127000D01*
X118127000Y-69127000D01*
X118127000Y-70276250D01*
X118285750Y-70435000D01*
X118926309Y-70435000D01*
X119159698Y-70338327D01*
X119338327Y-70159699D01*
X119435000Y-69926310D01*
X119435000Y-69285750D01*
X119276250Y-69127000D01*
X118127000Y-69127000D01*
X117873000Y-69127000D01*
X117853000Y-69127000D01*
X117853000Y-68873000D01*
X117873000Y-68873000D01*
X117873000Y-67723750D01*
X118127000Y-67723750D01*
X118127000Y-68873000D01*
X119276250Y-68873000D01*
X119435000Y-68714250D01*
X119435000Y-68073690D01*
X119338327Y-67840301D01*
X119159698Y-67661673D01*
X118926309Y-67565000D01*
X118285750Y-67565000D01*
X118127000Y-67723750D01*
X117873000Y-67723750D01*
X117714250Y-67565000D01*
X117073691Y-67565000D01*
X116840302Y-67661673D01*
X116816391Y-67685584D01*
X116305072Y-67473265D01*
X115697593Y-67472735D01*
X115136154Y-67704717D01*
X114706227Y-68133894D01*
X114473265Y-68694928D01*
X114472735Y-69302407D01*
X111200000Y-69302407D01*
X111200000Y-49784881D01*
X204030742Y-49784881D01*
X204256951Y-50332349D01*
X204675448Y-50751577D01*
X205222520Y-50978741D01*
X205814881Y-50979258D01*
X206362349Y-50753049D01*
X206781577Y-50334552D01*
X206789739Y-50314895D01*
X206796951Y-50332349D01*
X207215448Y-50751577D01*
X207762520Y-50978741D01*
X208354881Y-50979258D01*
X208902349Y-50753049D01*
X209321577Y-50334552D01*
X209329739Y-50314895D01*
X209336951Y-50332349D01*
X209755448Y-50751577D01*
X210302520Y-50978741D01*
X210894881Y-50979258D01*
X211442349Y-50753049D01*
X211861577Y-50334552D01*
X211869739Y-50314895D01*
X211876951Y-50332349D01*
X212295448Y-50751577D01*
X212842520Y-50978741D01*
X213434881Y-50979258D01*
X213982349Y-50753049D01*
X214401577Y-50334552D01*
X214409739Y-50314895D01*
X214416951Y-50332349D01*
X214835448Y-50751577D01*
X215382520Y-50978741D01*
X215974881Y-50979258D01*
X216522349Y-50753049D01*
X216941577Y-50334552D01*
X216949739Y-50314895D01*
X216956951Y-50332349D01*
X217375448Y-50751577D01*
X217922520Y-50978741D01*
X218514881Y-50979258D01*
X219062349Y-50753049D01*
X219481577Y-50334552D01*
X219489739Y-50314895D01*
X219496951Y-50332349D01*
X219915448Y-50751577D01*
X220462520Y-50978741D01*
X221054881Y-50979258D01*
X221602349Y-50753049D01*
X222021577Y-50334552D01*
X222029739Y-50314895D01*
X222036951Y-50332349D01*
X222455448Y-50751577D01*
X223002520Y-50978741D01*
X223594881Y-50979258D01*
X224142349Y-50753049D01*
X224561577Y-50334552D01*
X224569739Y-50314895D01*
X224576951Y-50332349D01*
X224995448Y-50751577D01*
X225542520Y-50978741D01*
X226134881Y-50979258D01*
X226682349Y-50753049D01*
X227101577Y-50334552D01*
X227109739Y-50314895D01*
X227116951Y-50332349D01*
X227535448Y-50751577D01*
X228082520Y-50978741D01*
X228674881Y-50979258D01*
X229222349Y-50753049D01*
X229641577Y-50334552D01*
X229649739Y-50314895D01*
X229656951Y-50332349D01*
X230075448Y-50751577D01*
X230622520Y-50978741D01*
X231214881Y-50979258D01*
X231762349Y-50753049D01*
X232181577Y-50334552D01*
X232189739Y-50314895D01*
X232196951Y-50332349D01*
X232615448Y-50751577D01*
X233162520Y-50978741D01*
X233754881Y-50979258D01*
X234302349Y-50753049D01*
X234721577Y-50334552D01*
X234948741Y-49787480D01*
X234949258Y-49195119D01*
X234723049Y-48647651D01*
X234304552Y-48228423D01*
X233757480Y-48001259D01*
X233165119Y-48000742D01*
X232617651Y-48226951D01*
X232198423Y-48645448D01*
X232190261Y-48665105D01*
X232183049Y-48647651D01*
X231764552Y-48228423D01*
X231217480Y-48001259D01*
X230625119Y-48000742D01*
X230077651Y-48226951D01*
X229658423Y-48645448D01*
X229650261Y-48665105D01*
X229643049Y-48647651D01*
X229224552Y-48228423D01*
X228677480Y-48001259D01*
X228085119Y-48000742D01*
X227537651Y-48226951D01*
X227118423Y-48645448D01*
X227110261Y-48665105D01*
X227103049Y-48647651D01*
X226684552Y-48228423D01*
X226137480Y-48001259D01*
X225545119Y-48000742D01*
X224997651Y-48226951D01*
X224578423Y-48645448D01*
X224570261Y-48665105D01*
X224563049Y-48647651D01*
X224144552Y-48228423D01*
X223597480Y-48001259D01*
X223005119Y-48000742D01*
X222457651Y-48226951D01*
X222038423Y-48645448D01*
X222030261Y-48665105D01*
X222023049Y-48647651D01*
X221604552Y-48228423D01*
X221057480Y-48001259D01*
X220465119Y-48000742D01*
X219917651Y-48226951D01*
X219498423Y-48645448D01*
X219490261Y-48665105D01*
X219483049Y-48647651D01*
X219064552Y-48228423D01*
X218517480Y-48001259D01*
X217925119Y-48000742D01*
X217377651Y-48226951D01*
X216958423Y-48645448D01*
X216950261Y-48665105D01*
X216943049Y-48647651D01*
X216524552Y-48228423D01*
X215977480Y-48001259D01*
X215385119Y-48000742D01*
X214837651Y-48226951D01*
X214418423Y-48645448D01*
X214410261Y-48665105D01*
X214403049Y-48647651D01*
X213984552Y-48228423D01*
X213437480Y-48001259D01*
X212845119Y-48000742D01*
X212297651Y-48226951D01*
X211878423Y-48645448D01*
X211870261Y-48665105D01*
X211863049Y-48647651D01*
X211444552Y-48228423D01*
X210897480Y-48001259D01*
X210305119Y-48000742D01*
X209757651Y-48226951D01*
X209338423Y-48645448D01*
X209330261Y-48665105D01*
X209323049Y-48647651D01*
X208904552Y-48228423D01*
X208357480Y-48001259D01*
X207765119Y-48000742D01*
X207217651Y-48226951D01*
X206798423Y-48645448D01*
X206790261Y-48665105D01*
X206783049Y-48647651D01*
X206364552Y-48228423D01*
X205817480Y-48001259D01*
X205225119Y-48000742D01*
X204677651Y-48226951D01*
X204258423Y-48645448D01*
X204031259Y-49192520D01*
X204030742Y-49784881D01*
X111200000Y-49784881D01*
X111200000Y-46127000D01*
X236780000Y-46127000D01*
X236780000Y-144873000D01*
M02*
