M48
;DRILL file {KiCad 4.0.5} date Wednesday, February 01, 2017 'PMt' 03:55:00 PM
;FORMAT={-:-/ absolute / inch / decimal}
FMAT,2
INCH,TZ
T1C0.030
T2C0.031
T3C0.039
T4C0.040
%
G90
G05
M72
T1
X5.Y-5.7
X5.1Y-5.7
X5.2Y-5.7
X6.54Y-5.7
X6.64Y-5.7
X6.74Y-5.7
X8.02Y-5.7
X8.12Y-5.7
X8.22Y-5.7
T2
X4.7Y-5.05
X4.7Y-5.45
X4.95Y-4.95
X4.95Y-5.05
X4.95Y-5.15
X4.95Y-5.25
X5.06Y-3.09
X5.06Y-3.39
X5.16Y-3.09
X5.16Y-3.39
X5.25Y-4.95
X5.25Y-5.05
X5.25Y-5.15
X5.25Y-5.25
X5.26Y-3.09
X5.26Y-3.39
X5.36Y-3.09
X5.36Y-3.39
X5.5Y-4.79
X5.5Y-5.19
X5.76Y-4.79
X5.76Y-5.19
X5.99Y-3.34
X6.2Y-5.05
X6.2Y-5.45
X6.45Y-4.95
X6.45Y-5.05
X6.45Y-5.15
X6.45Y-5.25
X6.75Y-4.95
X6.75Y-5.05
X6.75Y-5.15
X6.75Y-5.25
X7.05Y-4.8
X7.05Y-5.2
X7.3Y-4.8
X7.3Y-5.2
X7.7Y-5.05
X7.7Y-5.45
X7.95Y-4.95
X7.95Y-5.05
X7.95Y-5.15
X7.95Y-5.25
X8.25Y-4.95
X8.25Y-5.05
X8.25Y-5.15
X8.25Y-5.25
X8.55Y-4.8
X8.55Y-5.2
X8.8Y-4.8
X8.8Y-5.2
X9.15Y-4.275
X9.15Y-4.45
T3
X4.9067Y-3.9313
X4.9331Y-4.01
X5.0367Y-2.5313
X5.0631Y-2.61
X5.13Y-4.01
X5.1565Y-4.0887
X5.26Y-2.61
X5.2865Y-2.6887
X5.4235Y-3.9313
X5.45Y-4.01
X5.6013Y-3.3633
X5.6469Y-4.01
X5.6733Y-4.0887
X5.68Y-3.14
X5.68Y-3.3369
X5.7587Y-3.1135
T4
X4.55Y-5.15
X4.55Y-5.25
X5.66Y-4.645
X5.76Y-4.645
X6.Y-5.15
X6.Y-5.25
X7.2Y-4.67
X7.3Y-4.67
X7.5Y-5.15
X7.5Y-5.25
X8.7Y-4.665
X8.8Y-4.665
X9.15Y-3.755
X9.15Y-3.855
X9.15Y-3.955
X9.15Y-4.055
X9.15Y-4.155
T0
M30
