G04 #@! TF.FileFunction,Copper,L2,Bot,Signal*
%FSLAX46Y46*%
G04 Gerber Fmt 4.6, Leading zero omitted, Abs format (unit mm)*
G04 Created by KiCad (PCBNEW 4.0.5) date Wednesday, February 01, 2017 'PMt' 03:54:53 PM*
%MOMM*%
%LPD*%
G01*
G04 APERTURE LIST*
%ADD10C,0.100000*%
%ADD11R,2.000000X2.000000*%
%ADD12C,2.000000*%
%ADD13R,2.032000X2.032000*%
%ADD14O,2.032000X2.032000*%
%ADD15R,2.032000X1.727200*%
%ADD16O,2.032000X1.727200*%
%ADD17C,1.600000*%
%ADD18O,1.600000X1.600000*%
%ADD19R,1.600000X2.400000*%
%ADD20O,1.600000X2.400000*%
%ADD21R,2.400000X1.600000*%
%ADD22O,2.400000X1.600000*%
%ADD23C,1.524000*%
%ADD24C,1.000000*%
%ADD25C,0.800000*%
%ADD26C,0.254000*%
G04 APERTURE END LIST*
D10*
D11*
X144272000Y-84756000D03*
D12*
X144272000Y-79756000D03*
D11*
X142272000Y-85428144D03*
D12*
X146272000Y-79083856D03*
D11*
X125302000Y-101854000D03*
D12*
X130302000Y-101854000D03*
D11*
X124629856Y-99854000D03*
D12*
X130974144Y-103854000D03*
D11*
X133604000Y-66294000D03*
D12*
X128604000Y-66294000D03*
D11*
X134276144Y-68294000D03*
D12*
X127931856Y-64294000D03*
D11*
X143430000Y-101854000D03*
D12*
X138430000Y-101854000D03*
D11*
X144102144Y-103854000D03*
D12*
X137757856Y-99854000D03*
D13*
X190500000Y-130810000D03*
D14*
X190500000Y-133350000D03*
D13*
X152400000Y-130810000D03*
D14*
X152400000Y-133350000D03*
D13*
X115570000Y-130810000D03*
D14*
X115570000Y-133350000D03*
D15*
X232410000Y-105537000D03*
D16*
X232410000Y-102997000D03*
X232410000Y-100457000D03*
X232410000Y-97917000D03*
X232410000Y-95377000D03*
D17*
X195580000Y-128270000D03*
D18*
X195580000Y-138430000D03*
D17*
X223520000Y-132080000D03*
D18*
X223520000Y-121920000D03*
D17*
X217170000Y-132080000D03*
D18*
X217170000Y-121920000D03*
D17*
X157480000Y-128270000D03*
D18*
X157480000Y-138430000D03*
D17*
X119380000Y-128270000D03*
D18*
X119380000Y-138430000D03*
D17*
X185420000Y-132080000D03*
D18*
X185420000Y-121920000D03*
D17*
X146304000Y-131826000D03*
D18*
X146304000Y-121666000D03*
D17*
X179070000Y-132080000D03*
D18*
X179070000Y-121920000D03*
D17*
X139700000Y-131826000D03*
D18*
X139700000Y-121666000D03*
D19*
X136144000Y-78486000D03*
D20*
X128524000Y-86106000D03*
X133604000Y-78486000D03*
X131064000Y-86106000D03*
X131064000Y-78486000D03*
X133604000Y-86106000D03*
X128524000Y-78486000D03*
X136144000Y-86106000D03*
D21*
X201930000Y-125730000D03*
D22*
X209550000Y-133350000D03*
X201930000Y-128270000D03*
X209550000Y-130810000D03*
X201930000Y-130810000D03*
X209550000Y-128270000D03*
X201930000Y-133350000D03*
X209550000Y-125730000D03*
D21*
X163830000Y-125730000D03*
D22*
X171450000Y-133350000D03*
X163830000Y-128270000D03*
X171450000Y-130810000D03*
X163830000Y-130810000D03*
X171450000Y-128270000D03*
X163830000Y-133350000D03*
X171450000Y-125730000D03*
D21*
X125730000Y-125730000D03*
D22*
X133350000Y-133350000D03*
X125730000Y-128270000D03*
X133350000Y-130810000D03*
X125730000Y-130810000D03*
X133350000Y-128270000D03*
X125730000Y-133350000D03*
X133350000Y-125730000D03*
D13*
X223520000Y-118491000D03*
D14*
X220980000Y-118491000D03*
D13*
X185420000Y-118618000D03*
D14*
X182880000Y-118618000D03*
D13*
X146304000Y-117983000D03*
D14*
X143764000Y-117983000D03*
D23*
X203708000Y-144780000D03*
X206248000Y-144780000D03*
X208788000Y-144780000D03*
X166116000Y-144780000D03*
X168656000Y-144780000D03*
X171196000Y-144780000D03*
X127000000Y-144780000D03*
X129540000Y-144780000D03*
X132080000Y-144780000D03*
D24*
X152146000Y-84836000D03*
X232410000Y-113030000D03*
X232410000Y-108585000D03*
D25*
X144272000Y-84756000D02*
X152066000Y-84756000D01*
X152066000Y-84756000D02*
X152146000Y-84836000D01*
X136144000Y-86106000D02*
X141594144Y-86106000D01*
X141594144Y-86106000D02*
X142272000Y-85428144D01*
X232410000Y-113030000D02*
X231140000Y-113030000D01*
X232410000Y-105537000D02*
X232410000Y-108585000D01*
X129540000Y-141224000D02*
X129540000Y-144780000D01*
X127254000Y-138938000D02*
X129540000Y-141224000D01*
X206248000Y-140208000D02*
X206248000Y-144780000D01*
X204724000Y-138684000D02*
X206248000Y-140208000D01*
X163830000Y-133350000D02*
X163830000Y-136906000D01*
X163830000Y-136906000D02*
X168656000Y-141732000D01*
X168656000Y-141732000D02*
X168656000Y-144780000D01*
X125730000Y-137414000D02*
X125730000Y-133350000D01*
X127254000Y-138938000D02*
X125730000Y-137414000D01*
X204724000Y-138684000D02*
X201930000Y-135890000D01*
X201930000Y-135890000D02*
X201930000Y-133350000D01*
X133604000Y-71120000D02*
X134276144Y-70447856D01*
X134276144Y-70447856D02*
X134276144Y-68294000D01*
X133604000Y-78486000D02*
X133604000Y-71120000D01*
X195580000Y-138430000D02*
X201930000Y-144780000D01*
X201930000Y-144780000D02*
X203708000Y-144780000D01*
X190500000Y-130810000D02*
X201930000Y-130810000D01*
X152400000Y-130810000D02*
X163830000Y-130810000D01*
X115570000Y-130810000D02*
X125730000Y-130810000D01*
X228473000Y-120777000D02*
X228473000Y-102578000D01*
X228473000Y-102578000D02*
X230594000Y-100457000D01*
X230594000Y-100457000D02*
X232410000Y-100457000D01*
X217170000Y-132080000D02*
X228473000Y-120777000D01*
X179070000Y-132080000D02*
X180201370Y-132080000D01*
X180201370Y-132080000D02*
X214364370Y-97917000D01*
X214364370Y-97917000D02*
X230594000Y-97917000D01*
X230594000Y-97917000D02*
X232410000Y-97917000D01*
X232410000Y-95377000D02*
X179095400Y-95377000D01*
X179095400Y-95377000D02*
X142646400Y-131826000D01*
X142646400Y-131826000D02*
X139700000Y-131826000D01*
X163830000Y-144780000D02*
X163068000Y-144018000D01*
X166116000Y-144780000D02*
X163830000Y-144780000D01*
X163068000Y-144018000D02*
X157480000Y-138430000D01*
X119380000Y-138430000D02*
X125730000Y-144780000D01*
X125730000Y-144780000D02*
X127000000Y-144780000D01*
X223520000Y-121920000D02*
X217170000Y-121920000D01*
X217170000Y-121920000D02*
X198120000Y-121920000D01*
X198120000Y-121920000D02*
X195580000Y-124460000D01*
X195580000Y-124460000D02*
X195580000Y-128270000D01*
X223520000Y-118491000D02*
X223520000Y-121920000D01*
X185420000Y-121920000D02*
X179070000Y-121920000D01*
X157480000Y-128270000D02*
X157480000Y-124460000D01*
X157480000Y-124460000D02*
X160020000Y-121920000D01*
X160020000Y-121920000D02*
X179070000Y-121920000D01*
X185420000Y-118618000D02*
X185420000Y-121920000D01*
X119380000Y-124460000D02*
X119380000Y-128270000D01*
X122174000Y-121666000D02*
X119380000Y-124460000D01*
X139700000Y-121666000D02*
X122174000Y-121666000D01*
X146304000Y-121666000D02*
X139700000Y-121666000D01*
X146304000Y-117983000D02*
X146304000Y-121666000D01*
D26*
G36*
X236780000Y-145923000D02*
X209750608Y-145923000D01*
X210049577Y-145624552D01*
X210276741Y-145077480D01*
X210277258Y-144485119D01*
X210051049Y-143937651D01*
X209632552Y-143518423D01*
X209085480Y-143291259D01*
X208493119Y-143290742D01*
X207945651Y-143516951D01*
X207526423Y-143935448D01*
X207518261Y-143955105D01*
X207511049Y-143937651D01*
X207375000Y-143801364D01*
X207375000Y-140208000D01*
X207289212Y-139776716D01*
X207289212Y-139776715D01*
X207044909Y-139411090D01*
X205520912Y-137887094D01*
X205520910Y-137887091D01*
X203057000Y-135423182D01*
X203057000Y-134690679D01*
X203447504Y-134429752D01*
X203778516Y-133934358D01*
X203894752Y-133350000D01*
X203778516Y-132765642D01*
X203447504Y-132270248D01*
X203162778Y-132080000D01*
X203447504Y-131889752D01*
X203778516Y-131394358D01*
X203894752Y-130810000D01*
X203778516Y-130225642D01*
X203447504Y-129730248D01*
X203162778Y-129540000D01*
X203447504Y-129349752D01*
X203778516Y-128854358D01*
X203894752Y-128270000D01*
X203778516Y-127685642D01*
X203447504Y-127190248D01*
X203447011Y-127189919D01*
X203646846Y-127061328D01*
X203812843Y-126818385D01*
X203871242Y-126530000D01*
X203871242Y-125730000D01*
X207585248Y-125730000D01*
X207701484Y-126314358D01*
X208032496Y-126809752D01*
X208317222Y-127000000D01*
X208032496Y-127190248D01*
X207701484Y-127685642D01*
X207585248Y-128270000D01*
X207701484Y-128854358D01*
X208032496Y-129349752D01*
X208317222Y-129540000D01*
X208032496Y-129730248D01*
X207701484Y-130225642D01*
X207585248Y-130810000D01*
X207701484Y-131394358D01*
X208032496Y-131889752D01*
X208317222Y-132080000D01*
X208032496Y-132270248D01*
X207701484Y-132765642D01*
X207585248Y-133350000D01*
X207701484Y-133934358D01*
X208032496Y-134429752D01*
X208527890Y-134760764D01*
X209112248Y-134877000D01*
X209987752Y-134877000D01*
X210572110Y-134760764D01*
X211067504Y-134429752D01*
X211398516Y-133934358D01*
X211514752Y-133350000D01*
X211398516Y-132765642D01*
X211067504Y-132270248D01*
X210782778Y-132080000D01*
X211067504Y-131889752D01*
X211398516Y-131394358D01*
X211514752Y-130810000D01*
X211398516Y-130225642D01*
X211067504Y-129730248D01*
X210782778Y-129540000D01*
X211067504Y-129349752D01*
X211398516Y-128854358D01*
X211514752Y-128270000D01*
X211398516Y-127685642D01*
X211067504Y-127190248D01*
X210782778Y-127000000D01*
X211067504Y-126809752D01*
X211398516Y-126314358D01*
X211514752Y-125730000D01*
X211398516Y-125145642D01*
X211067504Y-124650248D01*
X210572110Y-124319236D01*
X209987752Y-124203000D01*
X209112248Y-124203000D01*
X208527890Y-124319236D01*
X208032496Y-124650248D01*
X207701484Y-125145642D01*
X207585248Y-125730000D01*
X203871242Y-125730000D01*
X203871242Y-124930000D01*
X203820549Y-124660590D01*
X203661328Y-124413154D01*
X203418385Y-124247157D01*
X203130000Y-124188758D01*
X200730000Y-124188758D01*
X200460590Y-124239451D01*
X200213154Y-124398672D01*
X200047157Y-124641615D01*
X199988758Y-124930000D01*
X199988758Y-126530000D01*
X200039451Y-126799410D01*
X200198672Y-127046846D01*
X200411258Y-127192101D01*
X200081484Y-127685642D01*
X199965248Y-128270000D01*
X200081484Y-128854358D01*
X200412496Y-129349752D01*
X200697222Y-129540000D01*
X200483208Y-129683000D01*
X196158949Y-129683000D01*
X196443846Y-129565283D01*
X196873773Y-129136106D01*
X197106735Y-128575072D01*
X197107265Y-127967593D01*
X196875283Y-127406154D01*
X196707000Y-127237577D01*
X196707000Y-124926818D01*
X198586819Y-123047000D01*
X216116187Y-123047000D01*
X216585642Y-123360680D01*
X217170000Y-123476916D01*
X217754358Y-123360680D01*
X218223813Y-123047000D01*
X222466187Y-123047000D01*
X222935642Y-123360680D01*
X223520000Y-123476916D01*
X224104358Y-123360680D01*
X224599752Y-123029668D01*
X224930764Y-122534274D01*
X225047000Y-121949916D01*
X225047000Y-121890084D01*
X224930764Y-121305726D01*
X224647000Y-120881044D01*
X224647000Y-120227356D01*
X224805410Y-120197549D01*
X225052846Y-120038328D01*
X225218843Y-119795385D01*
X225277242Y-119507000D01*
X225277242Y-117475000D01*
X225226549Y-117205590D01*
X225067328Y-116958154D01*
X224824385Y-116792157D01*
X224536000Y-116733758D01*
X222504000Y-116733758D01*
X222234590Y-116784451D01*
X221987154Y-116943672D01*
X221868599Y-117117182D01*
X221362946Y-116885017D01*
X221107000Y-117003633D01*
X221107000Y-118364000D01*
X221127000Y-118364000D01*
X221127000Y-118618000D01*
X221107000Y-118618000D01*
X221107000Y-119978367D01*
X221362946Y-120096983D01*
X221869943Y-119864201D01*
X221972672Y-120023846D01*
X222215615Y-120189843D01*
X222393000Y-120225764D01*
X222393000Y-120793000D01*
X218223813Y-120793000D01*
X217754358Y-120479320D01*
X217170000Y-120363084D01*
X216585642Y-120479320D01*
X216116187Y-120793000D01*
X198120000Y-120793000D01*
X197760270Y-120864555D01*
X197688715Y-120878788D01*
X197323090Y-121123091D01*
X194783091Y-123663091D01*
X194538788Y-124028716D01*
X194453000Y-124460000D01*
X194453000Y-127237412D01*
X194286227Y-127403894D01*
X194053265Y-127964928D01*
X194052735Y-128572407D01*
X194284717Y-129133846D01*
X194713894Y-129563773D01*
X195001024Y-129683000D01*
X192236356Y-129683000D01*
X192206549Y-129524590D01*
X192047328Y-129277154D01*
X191804385Y-129111157D01*
X191516000Y-129052758D01*
X189484000Y-129052758D01*
X189214590Y-129103451D01*
X188967154Y-129262672D01*
X188801157Y-129505615D01*
X188742758Y-129794000D01*
X188742758Y-131826000D01*
X188793451Y-132095410D01*
X188952672Y-132342846D01*
X189126182Y-132461401D01*
X188894017Y-132967054D01*
X189012633Y-133223000D01*
X190373000Y-133223000D01*
X190373000Y-133203000D01*
X190627000Y-133203000D01*
X190627000Y-133223000D01*
X191987367Y-133223000D01*
X192105983Y-132967054D01*
X191873201Y-132460057D01*
X192032846Y-132357328D01*
X192198843Y-132114385D01*
X192234764Y-131937000D01*
X200483208Y-131937000D01*
X200697222Y-132080000D01*
X200412496Y-132270248D01*
X200081484Y-132765642D01*
X199965248Y-133350000D01*
X200081484Y-133934358D01*
X200412496Y-134429752D01*
X200803000Y-134690679D01*
X200803000Y-135890000D01*
X200888788Y-136321284D01*
X201133091Y-136686909D01*
X203927091Y-139480910D01*
X203927094Y-139480912D01*
X205121000Y-140674819D01*
X205121000Y-143801106D01*
X204986423Y-143935448D01*
X204978261Y-143955105D01*
X204971049Y-143937651D01*
X204552552Y-143518423D01*
X204005480Y-143291259D01*
X203413119Y-143290742D01*
X202865651Y-143516951D01*
X202729364Y-143653000D01*
X202396818Y-143653000D01*
X197097837Y-138354019D01*
X196990764Y-137815726D01*
X196659752Y-137320332D01*
X196164358Y-136989320D01*
X195580000Y-136873084D01*
X194995642Y-136989320D01*
X194500248Y-137320332D01*
X194169236Y-137815726D01*
X194053000Y-138400084D01*
X194053000Y-138459916D01*
X194169236Y-139044274D01*
X194500248Y-139539668D01*
X194995642Y-139870680D01*
X195533935Y-139977753D01*
X201133091Y-145576909D01*
X201498716Y-145821212D01*
X201930000Y-145907000D01*
X202729106Y-145907000D01*
X202745078Y-145923000D01*
X172158608Y-145923000D01*
X172457577Y-145624552D01*
X172684741Y-145077480D01*
X172685258Y-144485119D01*
X172459049Y-143937651D01*
X172040552Y-143518423D01*
X171493480Y-143291259D01*
X170901119Y-143290742D01*
X170353651Y-143516951D01*
X169934423Y-143935448D01*
X169926261Y-143955105D01*
X169919049Y-143937651D01*
X169783000Y-143801364D01*
X169783000Y-141732000D01*
X169697212Y-141300716D01*
X169645952Y-141224000D01*
X169452910Y-140935091D01*
X164957000Y-136439182D01*
X164957000Y-134690679D01*
X165347504Y-134429752D01*
X165678516Y-133934358D01*
X165794752Y-133350000D01*
X165678516Y-132765642D01*
X165347504Y-132270248D01*
X165062778Y-132080000D01*
X165347504Y-131889752D01*
X165678516Y-131394358D01*
X165794752Y-130810000D01*
X165678516Y-130225642D01*
X165347504Y-129730248D01*
X165062778Y-129540000D01*
X165347504Y-129349752D01*
X165678516Y-128854358D01*
X165794752Y-128270000D01*
X165678516Y-127685642D01*
X165347504Y-127190248D01*
X165347011Y-127189919D01*
X165546846Y-127061328D01*
X165712843Y-126818385D01*
X165771242Y-126530000D01*
X165771242Y-125730000D01*
X169485248Y-125730000D01*
X169601484Y-126314358D01*
X169932496Y-126809752D01*
X170217222Y-127000000D01*
X169932496Y-127190248D01*
X169601484Y-127685642D01*
X169485248Y-128270000D01*
X169601484Y-128854358D01*
X169932496Y-129349752D01*
X170217222Y-129540000D01*
X169932496Y-129730248D01*
X169601484Y-130225642D01*
X169485248Y-130810000D01*
X169601484Y-131394358D01*
X169932496Y-131889752D01*
X170217222Y-132080000D01*
X169932496Y-132270248D01*
X169601484Y-132765642D01*
X169485248Y-133350000D01*
X169601484Y-133934358D01*
X169932496Y-134429752D01*
X170427890Y-134760764D01*
X171012248Y-134877000D01*
X171887752Y-134877000D01*
X172472110Y-134760764D01*
X172967504Y-134429752D01*
X173298516Y-133934358D01*
X173338579Y-133732946D01*
X188894017Y-133732946D01*
X189162812Y-134318379D01*
X189635182Y-134756385D01*
X190117056Y-134955975D01*
X190373000Y-134836836D01*
X190373000Y-133477000D01*
X190627000Y-133477000D01*
X190627000Y-134836836D01*
X190882944Y-134955975D01*
X191364818Y-134756385D01*
X191837188Y-134318379D01*
X192105983Y-133732946D01*
X191987367Y-133477000D01*
X190627000Y-133477000D01*
X190373000Y-133477000D01*
X189012633Y-133477000D01*
X188894017Y-133732946D01*
X173338579Y-133732946D01*
X173414752Y-133350000D01*
X173298516Y-132765642D01*
X172967504Y-132270248D01*
X172682778Y-132080000D01*
X172967504Y-131889752D01*
X173298516Y-131394358D01*
X173414752Y-130810000D01*
X173298516Y-130225642D01*
X172967504Y-129730248D01*
X172682778Y-129540000D01*
X172967504Y-129349752D01*
X173298516Y-128854358D01*
X173414752Y-128270000D01*
X173298516Y-127685642D01*
X172967504Y-127190248D01*
X172682778Y-127000000D01*
X172967504Y-126809752D01*
X173298516Y-126314358D01*
X173414752Y-125730000D01*
X173298516Y-125145642D01*
X172967504Y-124650248D01*
X172472110Y-124319236D01*
X171887752Y-124203000D01*
X171012248Y-124203000D01*
X170427890Y-124319236D01*
X169932496Y-124650248D01*
X169601484Y-125145642D01*
X169485248Y-125730000D01*
X165771242Y-125730000D01*
X165771242Y-124930000D01*
X165720549Y-124660590D01*
X165561328Y-124413154D01*
X165318385Y-124247157D01*
X165030000Y-124188758D01*
X162630000Y-124188758D01*
X162360590Y-124239451D01*
X162113154Y-124398672D01*
X161947157Y-124641615D01*
X161888758Y-124930000D01*
X161888758Y-126530000D01*
X161939451Y-126799410D01*
X162098672Y-127046846D01*
X162311258Y-127192101D01*
X161981484Y-127685642D01*
X161865248Y-128270000D01*
X161981484Y-128854358D01*
X162312496Y-129349752D01*
X162597222Y-129540000D01*
X162383208Y-129683000D01*
X158058949Y-129683000D01*
X158343846Y-129565283D01*
X158773773Y-129136106D01*
X159006735Y-128575072D01*
X159007265Y-127967593D01*
X158775283Y-127406154D01*
X158607000Y-127237577D01*
X158607000Y-124926818D01*
X160486819Y-123047000D01*
X178016187Y-123047000D01*
X178485642Y-123360680D01*
X179070000Y-123476916D01*
X179654358Y-123360680D01*
X180123813Y-123047000D01*
X184366187Y-123047000D01*
X184835642Y-123360680D01*
X185420000Y-123476916D01*
X186004358Y-123360680D01*
X186499752Y-123029668D01*
X186830764Y-122534274D01*
X186947000Y-121949916D01*
X186947000Y-121890084D01*
X186830764Y-121305726D01*
X186547000Y-120881044D01*
X186547000Y-120354356D01*
X186705410Y-120324549D01*
X186952846Y-120165328D01*
X187118843Y-119922385D01*
X187177242Y-119634000D01*
X187177242Y-117602000D01*
X187126549Y-117332590D01*
X186967328Y-117085154D01*
X186724385Y-116919157D01*
X186436000Y-116860758D01*
X184404000Y-116860758D01*
X184134590Y-116911451D01*
X183887154Y-117070672D01*
X183768599Y-117244182D01*
X183262946Y-117012017D01*
X183007000Y-117130633D01*
X183007000Y-118491000D01*
X183027000Y-118491000D01*
X183027000Y-118745000D01*
X183007000Y-118745000D01*
X183007000Y-120105367D01*
X183262946Y-120223983D01*
X183769943Y-119991201D01*
X183872672Y-120150846D01*
X184115615Y-120316843D01*
X184293000Y-120352764D01*
X184293000Y-120793000D01*
X180123813Y-120793000D01*
X179654358Y-120479320D01*
X179070000Y-120363084D01*
X178485642Y-120479320D01*
X178016187Y-120793000D01*
X160020000Y-120793000D01*
X159660270Y-120864555D01*
X159588715Y-120878788D01*
X159223090Y-121123091D01*
X156683091Y-123663091D01*
X156438788Y-124028716D01*
X156353000Y-124460000D01*
X156353000Y-127237412D01*
X156186227Y-127403894D01*
X155953265Y-127964928D01*
X155952735Y-128572407D01*
X156184717Y-129133846D01*
X156613894Y-129563773D01*
X156901024Y-129683000D01*
X154136356Y-129683000D01*
X154106549Y-129524590D01*
X153947328Y-129277154D01*
X153704385Y-129111157D01*
X153416000Y-129052758D01*
X151384000Y-129052758D01*
X151114590Y-129103451D01*
X150867154Y-129262672D01*
X150701157Y-129505615D01*
X150642758Y-129794000D01*
X150642758Y-131826000D01*
X150693451Y-132095410D01*
X150852672Y-132342846D01*
X151026182Y-132461401D01*
X150794017Y-132967054D01*
X150912633Y-133223000D01*
X152273000Y-133223000D01*
X152273000Y-133203000D01*
X152527000Y-133203000D01*
X152527000Y-133223000D01*
X153887367Y-133223000D01*
X154005983Y-132967054D01*
X153773201Y-132460057D01*
X153932846Y-132357328D01*
X154098843Y-132114385D01*
X154134764Y-131937000D01*
X162383208Y-131937000D01*
X162597222Y-132080000D01*
X162312496Y-132270248D01*
X161981484Y-132765642D01*
X161865248Y-133350000D01*
X161981484Y-133934358D01*
X162312496Y-134429752D01*
X162703000Y-134690679D01*
X162703000Y-136906000D01*
X162788788Y-137337284D01*
X163033091Y-137702909D01*
X167529000Y-142198819D01*
X167529000Y-143801106D01*
X167394423Y-143935448D01*
X167386261Y-143955105D01*
X167379049Y-143937651D01*
X166960552Y-143518423D01*
X166413480Y-143291259D01*
X165821119Y-143290742D01*
X165273651Y-143516951D01*
X165137364Y-143653000D01*
X164296819Y-143653000D01*
X163864911Y-143221093D01*
X163864909Y-143221090D01*
X158997837Y-138354019D01*
X158890764Y-137815726D01*
X158559752Y-137320332D01*
X158064358Y-136989320D01*
X157480000Y-136873084D01*
X156895642Y-136989320D01*
X156400248Y-137320332D01*
X156069236Y-137815726D01*
X155953000Y-138400084D01*
X155953000Y-138459916D01*
X156069236Y-139044274D01*
X156400248Y-139539668D01*
X156895642Y-139870680D01*
X157433935Y-139977753D01*
X162271090Y-144814909D01*
X162271093Y-144814911D01*
X163033091Y-145576910D01*
X163398716Y-145821212D01*
X163830000Y-145907000D01*
X165137106Y-145907000D01*
X165153078Y-145923000D01*
X133042608Y-145923000D01*
X133341577Y-145624552D01*
X133568741Y-145077480D01*
X133569258Y-144485119D01*
X133343049Y-143937651D01*
X132924552Y-143518423D01*
X132377480Y-143291259D01*
X131785119Y-143290742D01*
X131237651Y-143516951D01*
X130818423Y-143935448D01*
X130810261Y-143955105D01*
X130803049Y-143937651D01*
X130667000Y-143801364D01*
X130667000Y-141224000D01*
X130581212Y-140792716D01*
X130336909Y-140427091D01*
X128050911Y-138141093D01*
X128050909Y-138141090D01*
X126857000Y-136947182D01*
X126857000Y-134690679D01*
X127247504Y-134429752D01*
X127578516Y-133934358D01*
X127694752Y-133350000D01*
X127578516Y-132765642D01*
X127247504Y-132270248D01*
X126962778Y-132080000D01*
X127247504Y-131889752D01*
X127578516Y-131394358D01*
X127694752Y-130810000D01*
X127578516Y-130225642D01*
X127247504Y-129730248D01*
X126962778Y-129540000D01*
X127247504Y-129349752D01*
X127578516Y-128854358D01*
X127694752Y-128270000D01*
X127578516Y-127685642D01*
X127247504Y-127190248D01*
X127247011Y-127189919D01*
X127446846Y-127061328D01*
X127612843Y-126818385D01*
X127671242Y-126530000D01*
X127671242Y-125730000D01*
X131385248Y-125730000D01*
X131501484Y-126314358D01*
X131832496Y-126809752D01*
X132117222Y-127000000D01*
X131832496Y-127190248D01*
X131501484Y-127685642D01*
X131385248Y-128270000D01*
X131501484Y-128854358D01*
X131832496Y-129349752D01*
X132117222Y-129540000D01*
X131832496Y-129730248D01*
X131501484Y-130225642D01*
X131385248Y-130810000D01*
X131501484Y-131394358D01*
X131832496Y-131889752D01*
X132117222Y-132080000D01*
X131832496Y-132270248D01*
X131501484Y-132765642D01*
X131385248Y-133350000D01*
X131501484Y-133934358D01*
X131832496Y-134429752D01*
X132327890Y-134760764D01*
X132912248Y-134877000D01*
X133787752Y-134877000D01*
X134372110Y-134760764D01*
X134867504Y-134429752D01*
X135198516Y-133934358D01*
X135238579Y-133732946D01*
X150794017Y-133732946D01*
X151062812Y-134318379D01*
X151535182Y-134756385D01*
X152017056Y-134955975D01*
X152273000Y-134836836D01*
X152273000Y-133477000D01*
X152527000Y-133477000D01*
X152527000Y-134836836D01*
X152782944Y-134955975D01*
X153264818Y-134756385D01*
X153737188Y-134318379D01*
X154005983Y-133732946D01*
X153887367Y-133477000D01*
X152527000Y-133477000D01*
X152273000Y-133477000D01*
X150912633Y-133477000D01*
X150794017Y-133732946D01*
X135238579Y-133732946D01*
X135314752Y-133350000D01*
X135198516Y-132765642D01*
X134867504Y-132270248D01*
X134655225Y-132128407D01*
X138172735Y-132128407D01*
X138404717Y-132689846D01*
X138833894Y-133119773D01*
X139394928Y-133352735D01*
X140002407Y-133353265D01*
X140563846Y-133121283D01*
X140732423Y-132953000D01*
X142646400Y-132953000D01*
X143077684Y-132867212D01*
X143127770Y-132833745D01*
X145475861Y-132833745D01*
X145549995Y-133079864D01*
X146087223Y-133272965D01*
X146657454Y-133245778D01*
X147058005Y-133079864D01*
X147132139Y-132833745D01*
X146304000Y-132005605D01*
X145475861Y-132833745D01*
X143127770Y-132833745D01*
X143443309Y-132622909D01*
X145182305Y-130883913D01*
X145296253Y-130997861D01*
X145050136Y-131071995D01*
X144857035Y-131609223D01*
X144884222Y-132179454D01*
X145050136Y-132580005D01*
X145296255Y-132654139D01*
X146124395Y-131826000D01*
X146483605Y-131826000D01*
X147311745Y-132654139D01*
X147557864Y-132580005D01*
X147750965Y-132042777D01*
X147723778Y-131472546D01*
X147557864Y-131071995D01*
X147311745Y-130997861D01*
X146483605Y-131826000D01*
X146124395Y-131826000D01*
X146110252Y-131811858D01*
X146289858Y-131632252D01*
X146304000Y-131646395D01*
X147132139Y-130818255D01*
X147058005Y-130572136D01*
X146520777Y-130379035D01*
X145950546Y-130406222D01*
X145549995Y-130572136D01*
X145475861Y-130818253D01*
X145361913Y-130704305D01*
X157065274Y-119000944D01*
X181274025Y-119000944D01*
X181473615Y-119482818D01*
X181911621Y-119955188D01*
X182497054Y-120223983D01*
X182753000Y-120105367D01*
X182753000Y-118745000D01*
X181393164Y-118745000D01*
X181274025Y-119000944D01*
X157065274Y-119000944D01*
X157831162Y-118235056D01*
X181274025Y-118235056D01*
X181393164Y-118491000D01*
X182753000Y-118491000D01*
X182753000Y-117130633D01*
X182497054Y-117012017D01*
X181911621Y-117280812D01*
X181473615Y-117753182D01*
X181274025Y-118235056D01*
X157831162Y-118235056D01*
X179562218Y-96504000D01*
X231102135Y-96504000D01*
X231316150Y-96647000D01*
X231102135Y-96790000D01*
X214364370Y-96790000D01*
X213933086Y-96875788D01*
X213567461Y-97120091D01*
X179911530Y-130776022D01*
X179375072Y-130553265D01*
X178767593Y-130552735D01*
X178206154Y-130784717D01*
X177776227Y-131213894D01*
X177543265Y-131774928D01*
X177542735Y-132382407D01*
X177774717Y-132943846D01*
X178203894Y-133373773D01*
X178764928Y-133606735D01*
X179372407Y-133607265D01*
X179933846Y-133375283D01*
X180102423Y-133207000D01*
X180201370Y-133207000D01*
X180632654Y-133121212D01*
X180682740Y-133087745D01*
X184591861Y-133087745D01*
X184665995Y-133333864D01*
X185203223Y-133526965D01*
X185773454Y-133499778D01*
X186174005Y-133333864D01*
X186248139Y-133087745D01*
X185420000Y-132259605D01*
X184591861Y-133087745D01*
X180682740Y-133087745D01*
X180998279Y-132876909D01*
X182011965Y-131863223D01*
X183973035Y-131863223D01*
X184000222Y-132433454D01*
X184166136Y-132834005D01*
X184412255Y-132908139D01*
X185240395Y-132080000D01*
X185599605Y-132080000D01*
X186427745Y-132908139D01*
X186673864Y-132834005D01*
X186866965Y-132296777D01*
X186839778Y-131726546D01*
X186673864Y-131325995D01*
X186427745Y-131251861D01*
X185599605Y-132080000D01*
X185240395Y-132080000D01*
X184412255Y-131251861D01*
X184166136Y-131325995D01*
X183973035Y-131863223D01*
X182011965Y-131863223D01*
X182802933Y-131072255D01*
X184591861Y-131072255D01*
X185420000Y-131900395D01*
X186248139Y-131072255D01*
X186174005Y-130826136D01*
X185636777Y-130633035D01*
X185066546Y-130660222D01*
X184665995Y-130826136D01*
X184591861Y-131072255D01*
X182802933Y-131072255D01*
X195001244Y-118873944D01*
X219374025Y-118873944D01*
X219573615Y-119355818D01*
X220011621Y-119828188D01*
X220597054Y-120096983D01*
X220853000Y-119978367D01*
X220853000Y-118618000D01*
X219493164Y-118618000D01*
X219374025Y-118873944D01*
X195001244Y-118873944D01*
X195767132Y-118108056D01*
X219374025Y-118108056D01*
X219493164Y-118364000D01*
X220853000Y-118364000D01*
X220853000Y-117003633D01*
X220597054Y-116885017D01*
X220011621Y-117153812D01*
X219573615Y-117626182D01*
X219374025Y-118108056D01*
X195767132Y-118108056D01*
X214831188Y-99044000D01*
X231102135Y-99044000D01*
X231316150Y-99187000D01*
X231102135Y-99330000D01*
X230594000Y-99330000D01*
X230162716Y-99415788D01*
X229797091Y-99660091D01*
X227676091Y-101781091D01*
X227431788Y-102146716D01*
X227346000Y-102578000D01*
X227346000Y-120310182D01*
X217103241Y-130552941D01*
X216867593Y-130552735D01*
X216306154Y-130784717D01*
X215876227Y-131213894D01*
X215643265Y-131774928D01*
X215642735Y-132382407D01*
X215874717Y-132943846D01*
X216303894Y-133373773D01*
X216864928Y-133606735D01*
X217472407Y-133607265D01*
X218033846Y-133375283D01*
X218321886Y-133087745D01*
X222691861Y-133087745D01*
X222765995Y-133333864D01*
X223303223Y-133526965D01*
X223873454Y-133499778D01*
X224274005Y-133333864D01*
X224348139Y-133087745D01*
X223520000Y-132259605D01*
X222691861Y-133087745D01*
X218321886Y-133087745D01*
X218463773Y-132946106D01*
X218696735Y-132385072D01*
X218696943Y-132146875D01*
X218980595Y-131863223D01*
X222073035Y-131863223D01*
X222100222Y-132433454D01*
X222266136Y-132834005D01*
X222512255Y-132908139D01*
X223340395Y-132080000D01*
X223699605Y-132080000D01*
X224527745Y-132908139D01*
X224773864Y-132834005D01*
X224966965Y-132296777D01*
X224939778Y-131726546D01*
X224773864Y-131325995D01*
X224527745Y-131251861D01*
X223699605Y-132080000D01*
X223340395Y-132080000D01*
X222512255Y-131251861D01*
X222266136Y-131325995D01*
X222073035Y-131863223D01*
X218980595Y-131863223D01*
X219771563Y-131072255D01*
X222691861Y-131072255D01*
X223520000Y-131900395D01*
X224348139Y-131072255D01*
X224274005Y-130826136D01*
X223736777Y-130633035D01*
X223166546Y-130660222D01*
X222765995Y-130826136D01*
X222691861Y-131072255D01*
X219771563Y-131072255D01*
X229269909Y-121573909D01*
X229514212Y-121208284D01*
X229600000Y-120777000D01*
X229600000Y-113030000D01*
X230013000Y-113030000D01*
X230098788Y-113461284D01*
X230343091Y-113826909D01*
X230708716Y-114071212D01*
X231140000Y-114157000D01*
X231924553Y-114157000D01*
X232164864Y-114256786D01*
X232652995Y-114257212D01*
X233104131Y-114070806D01*
X233449593Y-113725947D01*
X233636786Y-113275136D01*
X233637212Y-112787005D01*
X233450806Y-112335869D01*
X233105947Y-111990407D01*
X232655136Y-111803214D01*
X232167005Y-111802788D01*
X231924474Y-111903000D01*
X231140000Y-111903000D01*
X230708716Y-111988788D01*
X230343091Y-112233091D01*
X230098788Y-112598716D01*
X230013000Y-113030000D01*
X229600000Y-113030000D01*
X229600000Y-104673400D01*
X230652758Y-104673400D01*
X230652758Y-106400600D01*
X230703451Y-106670010D01*
X230862672Y-106917446D01*
X231105615Y-107083443D01*
X231283000Y-107119364D01*
X231283000Y-108099553D01*
X231183214Y-108339864D01*
X231182788Y-108827995D01*
X231369194Y-109279131D01*
X231714053Y-109624593D01*
X232164864Y-109811786D01*
X232652995Y-109812212D01*
X233104131Y-109625806D01*
X233449593Y-109280947D01*
X233636786Y-108830136D01*
X233637212Y-108342005D01*
X233537000Y-108099474D01*
X233537000Y-107120956D01*
X233695410Y-107091149D01*
X233942846Y-106931928D01*
X234108843Y-106688985D01*
X234167242Y-106400600D01*
X234167242Y-104673400D01*
X234116549Y-104403990D01*
X233957328Y-104156554D01*
X233714385Y-103990557D01*
X233668661Y-103981298D01*
X233760732Y-103899036D01*
X234014709Y-103371791D01*
X234017358Y-103356026D01*
X233896217Y-103124000D01*
X232537000Y-103124000D01*
X232537000Y-103144000D01*
X232283000Y-103144000D01*
X232283000Y-103124000D01*
X230923783Y-103124000D01*
X230802642Y-103356026D01*
X230805291Y-103371791D01*
X231059268Y-103899036D01*
X231148121Y-103978423D01*
X231124590Y-103982851D01*
X230877154Y-104142072D01*
X230711157Y-104385015D01*
X230652758Y-104673400D01*
X229600000Y-104673400D01*
X229600000Y-103044818D01*
X231060818Y-101584000D01*
X231102135Y-101584000D01*
X231404806Y-101786238D01*
X231059268Y-102094964D01*
X230805291Y-102622209D01*
X230802642Y-102637974D01*
X230923783Y-102870000D01*
X232283000Y-102870000D01*
X232283000Y-102850000D01*
X232537000Y-102850000D01*
X232537000Y-102870000D01*
X233896217Y-102870000D01*
X234017358Y-102637974D01*
X234014709Y-102622209D01*
X233760732Y-102094964D01*
X233415194Y-101786238D01*
X233721271Y-101581724D01*
X234066070Y-101065696D01*
X234187147Y-100457000D01*
X234066070Y-99848304D01*
X233721271Y-99332276D01*
X233503850Y-99187000D01*
X233721271Y-99041724D01*
X234066070Y-98525696D01*
X234187147Y-97917000D01*
X234066070Y-97308304D01*
X233721271Y-96792276D01*
X233503850Y-96647000D01*
X233721271Y-96501724D01*
X234066070Y-95985696D01*
X234187147Y-95377000D01*
X234066070Y-94768304D01*
X233721271Y-94252276D01*
X233205243Y-93907477D01*
X232596547Y-93786400D01*
X232223453Y-93786400D01*
X231614757Y-93907477D01*
X231102135Y-94250000D01*
X179095400Y-94250000D01*
X178664116Y-94335788D01*
X178298491Y-94580091D01*
X142179582Y-130699000D01*
X140732588Y-130699000D01*
X140566106Y-130532227D01*
X140005072Y-130299265D01*
X139397593Y-130298735D01*
X138836154Y-130530717D01*
X138406227Y-130959894D01*
X138173265Y-131520928D01*
X138172735Y-132128407D01*
X134655225Y-132128407D01*
X134582778Y-132080000D01*
X134867504Y-131889752D01*
X135198516Y-131394358D01*
X135314752Y-130810000D01*
X135198516Y-130225642D01*
X134867504Y-129730248D01*
X134582778Y-129540000D01*
X134867504Y-129349752D01*
X135198516Y-128854358D01*
X135314752Y-128270000D01*
X135198516Y-127685642D01*
X134867504Y-127190248D01*
X134582778Y-127000000D01*
X134867504Y-126809752D01*
X135198516Y-126314358D01*
X135314752Y-125730000D01*
X135198516Y-125145642D01*
X134867504Y-124650248D01*
X134372110Y-124319236D01*
X133787752Y-124203000D01*
X132912248Y-124203000D01*
X132327890Y-124319236D01*
X131832496Y-124650248D01*
X131501484Y-125145642D01*
X131385248Y-125730000D01*
X127671242Y-125730000D01*
X127671242Y-124930000D01*
X127620549Y-124660590D01*
X127461328Y-124413154D01*
X127218385Y-124247157D01*
X126930000Y-124188758D01*
X124530000Y-124188758D01*
X124260590Y-124239451D01*
X124013154Y-124398672D01*
X123847157Y-124641615D01*
X123788758Y-124930000D01*
X123788758Y-126530000D01*
X123839451Y-126799410D01*
X123998672Y-127046846D01*
X124211258Y-127192101D01*
X123881484Y-127685642D01*
X123765248Y-128270000D01*
X123881484Y-128854358D01*
X124212496Y-129349752D01*
X124497222Y-129540000D01*
X124283208Y-129683000D01*
X119958949Y-129683000D01*
X120243846Y-129565283D01*
X120673773Y-129136106D01*
X120906735Y-128575072D01*
X120907265Y-127967593D01*
X120675283Y-127406154D01*
X120507000Y-127237577D01*
X120507000Y-124926818D01*
X122640819Y-122793000D01*
X138646187Y-122793000D01*
X139115642Y-123106680D01*
X139700000Y-123222916D01*
X140284358Y-123106680D01*
X140753813Y-122793000D01*
X145250187Y-122793000D01*
X145719642Y-123106680D01*
X146304000Y-123222916D01*
X146888358Y-123106680D01*
X147383752Y-122775668D01*
X147714764Y-122280274D01*
X147831000Y-121695916D01*
X147831000Y-121636084D01*
X147714764Y-121051726D01*
X147431000Y-120627044D01*
X147431000Y-119719356D01*
X147589410Y-119689549D01*
X147836846Y-119530328D01*
X148002843Y-119287385D01*
X148061242Y-118999000D01*
X148061242Y-116967000D01*
X148010549Y-116697590D01*
X147851328Y-116450154D01*
X147608385Y-116284157D01*
X147320000Y-116225758D01*
X145288000Y-116225758D01*
X145018590Y-116276451D01*
X144771154Y-116435672D01*
X144652599Y-116609182D01*
X144146946Y-116377017D01*
X143891000Y-116495633D01*
X143891000Y-117856000D01*
X143911000Y-117856000D01*
X143911000Y-118110000D01*
X143891000Y-118110000D01*
X143891000Y-119470367D01*
X144146946Y-119588983D01*
X144653943Y-119356201D01*
X144756672Y-119515846D01*
X144999615Y-119681843D01*
X145177000Y-119717764D01*
X145177000Y-120539000D01*
X140753813Y-120539000D01*
X140284358Y-120225320D01*
X139700000Y-120109084D01*
X139115642Y-120225320D01*
X138646187Y-120539000D01*
X122174000Y-120539000D01*
X121742716Y-120624788D01*
X121377091Y-120869090D01*
X118583091Y-123663091D01*
X118338788Y-124028716D01*
X118253000Y-124460000D01*
X118253000Y-127237412D01*
X118086227Y-127403894D01*
X117853265Y-127964928D01*
X117852735Y-128572407D01*
X118084717Y-129133846D01*
X118513894Y-129563773D01*
X118801024Y-129683000D01*
X117306356Y-129683000D01*
X117276549Y-129524590D01*
X117117328Y-129277154D01*
X116874385Y-129111157D01*
X116586000Y-129052758D01*
X114554000Y-129052758D01*
X114284590Y-129103451D01*
X114037154Y-129262672D01*
X113871157Y-129505615D01*
X113812758Y-129794000D01*
X113812758Y-131826000D01*
X113863451Y-132095410D01*
X114022672Y-132342846D01*
X114196182Y-132461401D01*
X113964017Y-132967054D01*
X114082633Y-133223000D01*
X115443000Y-133223000D01*
X115443000Y-133203000D01*
X115697000Y-133203000D01*
X115697000Y-133223000D01*
X117057367Y-133223000D01*
X117175983Y-132967054D01*
X116943201Y-132460057D01*
X117102846Y-132357328D01*
X117268843Y-132114385D01*
X117304764Y-131937000D01*
X124283208Y-131937000D01*
X124497222Y-132080000D01*
X124212496Y-132270248D01*
X123881484Y-132765642D01*
X123765248Y-133350000D01*
X123881484Y-133934358D01*
X124212496Y-134429752D01*
X124603000Y-134690679D01*
X124603000Y-137414000D01*
X124688788Y-137845284D01*
X124933091Y-138210909D01*
X126457090Y-139734909D01*
X126457093Y-139734911D01*
X128413000Y-141690818D01*
X128413000Y-143801106D01*
X128278423Y-143935448D01*
X128270261Y-143955105D01*
X128263049Y-143937651D01*
X127844552Y-143518423D01*
X127297480Y-143291259D01*
X126705119Y-143290742D01*
X126157651Y-143516951D01*
X126109168Y-143565350D01*
X120897837Y-138354019D01*
X120790764Y-137815726D01*
X120459752Y-137320332D01*
X119964358Y-136989320D01*
X119380000Y-136873084D01*
X118795642Y-136989320D01*
X118300248Y-137320332D01*
X117969236Y-137815726D01*
X117853000Y-138400084D01*
X117853000Y-138459916D01*
X117969236Y-139044274D01*
X118300248Y-139539668D01*
X118795642Y-139870680D01*
X119333935Y-139977753D01*
X124933091Y-145576909D01*
X125298716Y-145821212D01*
X125730000Y-145907000D01*
X126021106Y-145907000D01*
X126037078Y-145923000D01*
X111200000Y-145923000D01*
X111200000Y-133732946D01*
X113964017Y-133732946D01*
X114232812Y-134318379D01*
X114705182Y-134756385D01*
X115187056Y-134955975D01*
X115443000Y-134836836D01*
X115443000Y-133477000D01*
X115697000Y-133477000D01*
X115697000Y-134836836D01*
X115952944Y-134955975D01*
X116434818Y-134756385D01*
X116907188Y-134318379D01*
X117175983Y-133732946D01*
X117057367Y-133477000D01*
X115697000Y-133477000D01*
X115443000Y-133477000D01*
X114082633Y-133477000D01*
X113964017Y-133732946D01*
X111200000Y-133732946D01*
X111200000Y-118365944D01*
X142158025Y-118365944D01*
X142357615Y-118847818D01*
X142795621Y-119320188D01*
X143381054Y-119588983D01*
X143637000Y-119470367D01*
X143637000Y-118110000D01*
X142277164Y-118110000D01*
X142158025Y-118365944D01*
X111200000Y-118365944D01*
X111200000Y-117600056D01*
X142158025Y-117600056D01*
X142277164Y-117856000D01*
X143637000Y-117856000D01*
X143637000Y-116495633D01*
X143381054Y-116377017D01*
X142795621Y-116645812D01*
X142357615Y-117118182D01*
X142158025Y-117600056D01*
X111200000Y-117600056D01*
X111200000Y-102139750D01*
X123667000Y-102139750D01*
X123667000Y-102980310D01*
X123763673Y-103213699D01*
X123942302Y-103392327D01*
X124175691Y-103489000D01*
X125016250Y-103489000D01*
X125175000Y-103330250D01*
X125175000Y-101981000D01*
X125429000Y-101981000D01*
X125429000Y-103330250D01*
X125587750Y-103489000D01*
X126428309Y-103489000D01*
X126661698Y-103392327D01*
X126840327Y-103213699D01*
X126937000Y-102980310D01*
X126937000Y-102196014D01*
X128574701Y-102196014D01*
X128837067Y-102830989D01*
X129322456Y-103317226D01*
X129326386Y-103318858D01*
X129247444Y-103508971D01*
X129246845Y-104196014D01*
X129509211Y-104830989D01*
X129994600Y-105317226D01*
X130629115Y-105580700D01*
X131316158Y-105581299D01*
X131951133Y-105318933D01*
X132437370Y-104833544D01*
X132700844Y-104199029D01*
X132700895Y-104139750D01*
X142467144Y-104139750D01*
X142467144Y-104980310D01*
X142563817Y-105213699D01*
X142742446Y-105392327D01*
X142975835Y-105489000D01*
X143816394Y-105489000D01*
X143975144Y-105330250D01*
X143975144Y-103981000D01*
X144229144Y-103981000D01*
X144229144Y-105330250D01*
X144387894Y-105489000D01*
X145228453Y-105489000D01*
X145461842Y-105392327D01*
X145640471Y-105213699D01*
X145737144Y-104980310D01*
X145737144Y-104139750D01*
X145578394Y-103981000D01*
X144229144Y-103981000D01*
X143975144Y-103981000D01*
X142625894Y-103981000D01*
X142467144Y-104139750D01*
X132700895Y-104139750D01*
X132701443Y-103511986D01*
X132439077Y-102877011D01*
X131953688Y-102390774D01*
X131949758Y-102389142D01*
X132028700Y-102199029D01*
X132029299Y-101511986D01*
X131766933Y-100877011D01*
X131281544Y-100390774D01*
X130812511Y-100196014D01*
X136030557Y-100196014D01*
X136292923Y-100830989D01*
X136778312Y-101317226D01*
X136782242Y-101318858D01*
X136703300Y-101508971D01*
X136702701Y-102196014D01*
X136965067Y-102830989D01*
X137450456Y-103317226D01*
X138084971Y-103580700D01*
X138772014Y-103581299D01*
X139406989Y-103318933D01*
X139893226Y-102833544D01*
X140156700Y-102199029D01*
X140156751Y-102139750D01*
X141795000Y-102139750D01*
X141795000Y-102980310D01*
X141891673Y-103213699D01*
X142070302Y-103392327D01*
X142303691Y-103489000D01*
X142467144Y-103489000D01*
X142467144Y-103568250D01*
X142625894Y-103727000D01*
X143975144Y-103727000D01*
X143975144Y-103707000D01*
X144229144Y-103707000D01*
X144229144Y-103727000D01*
X145578394Y-103727000D01*
X145737144Y-103568250D01*
X145737144Y-102727690D01*
X145640471Y-102494301D01*
X145461842Y-102315673D01*
X145228453Y-102219000D01*
X145065000Y-102219000D01*
X145065000Y-102139750D01*
X144906250Y-101981000D01*
X143557000Y-101981000D01*
X143557000Y-102001000D01*
X143303000Y-102001000D01*
X143303000Y-101981000D01*
X141953750Y-101981000D01*
X141795000Y-102139750D01*
X140156751Y-102139750D01*
X140157299Y-101511986D01*
X139894933Y-100877011D01*
X139745873Y-100727690D01*
X141795000Y-100727690D01*
X141795000Y-101568250D01*
X141953750Y-101727000D01*
X143303000Y-101727000D01*
X143303000Y-100377750D01*
X143557000Y-100377750D01*
X143557000Y-101727000D01*
X144906250Y-101727000D01*
X145065000Y-101568250D01*
X145065000Y-100727690D01*
X144968327Y-100494301D01*
X144789698Y-100315673D01*
X144556309Y-100219000D01*
X143715750Y-100219000D01*
X143557000Y-100377750D01*
X143303000Y-100377750D01*
X143144250Y-100219000D01*
X142303691Y-100219000D01*
X142070302Y-100315673D01*
X141891673Y-100494301D01*
X141795000Y-100727690D01*
X139745873Y-100727690D01*
X139409544Y-100390774D01*
X139405614Y-100389142D01*
X139484556Y-100199029D01*
X139485155Y-99511986D01*
X139222789Y-98877011D01*
X138737400Y-98390774D01*
X138102885Y-98127300D01*
X137415842Y-98126701D01*
X136780867Y-98389067D01*
X136294630Y-98874456D01*
X136031156Y-99508971D01*
X136030557Y-100196014D01*
X130812511Y-100196014D01*
X130647029Y-100127300D01*
X129959986Y-100126701D01*
X129325011Y-100389067D01*
X128838774Y-100874456D01*
X128575300Y-101508971D01*
X128574701Y-102196014D01*
X126937000Y-102196014D01*
X126937000Y-102139750D01*
X126778250Y-101981000D01*
X125429000Y-101981000D01*
X125175000Y-101981000D01*
X123825750Y-101981000D01*
X123667000Y-102139750D01*
X111200000Y-102139750D01*
X111200000Y-100139750D01*
X122994856Y-100139750D01*
X122994856Y-100980310D01*
X123091529Y-101213699D01*
X123270158Y-101392327D01*
X123503547Y-101489000D01*
X123667000Y-101489000D01*
X123667000Y-101568250D01*
X123825750Y-101727000D01*
X125175000Y-101727000D01*
X125175000Y-101707000D01*
X125429000Y-101707000D01*
X125429000Y-101727000D01*
X126778250Y-101727000D01*
X126937000Y-101568250D01*
X126937000Y-100727690D01*
X126840327Y-100494301D01*
X126661698Y-100315673D01*
X126428309Y-100219000D01*
X126264856Y-100219000D01*
X126264856Y-100139750D01*
X126106106Y-99981000D01*
X124756856Y-99981000D01*
X124756856Y-100001000D01*
X124502856Y-100001000D01*
X124502856Y-99981000D01*
X123153606Y-99981000D01*
X122994856Y-100139750D01*
X111200000Y-100139750D01*
X111200000Y-98727690D01*
X122994856Y-98727690D01*
X122994856Y-99568250D01*
X123153606Y-99727000D01*
X124502856Y-99727000D01*
X124502856Y-98377750D01*
X124756856Y-98377750D01*
X124756856Y-99727000D01*
X126106106Y-99727000D01*
X126264856Y-99568250D01*
X126264856Y-98727690D01*
X126168183Y-98494301D01*
X125989554Y-98315673D01*
X125756165Y-98219000D01*
X124915606Y-98219000D01*
X124756856Y-98377750D01*
X124502856Y-98377750D01*
X124344106Y-98219000D01*
X123503547Y-98219000D01*
X123270158Y-98315673D01*
X123091529Y-98494301D01*
X122994856Y-98727690D01*
X111200000Y-98727690D01*
X111200000Y-85668248D01*
X126997000Y-85668248D01*
X126997000Y-86543752D01*
X127113236Y-87128110D01*
X127444248Y-87623504D01*
X127939642Y-87954516D01*
X128524000Y-88070752D01*
X129108358Y-87954516D01*
X129603752Y-87623504D01*
X129794000Y-87338778D01*
X129984248Y-87623504D01*
X130479642Y-87954516D01*
X131064000Y-88070752D01*
X131648358Y-87954516D01*
X132143752Y-87623504D01*
X132334000Y-87338778D01*
X132524248Y-87623504D01*
X133019642Y-87954516D01*
X133604000Y-88070752D01*
X134188358Y-87954516D01*
X134683752Y-87623504D01*
X134874000Y-87338778D01*
X135064248Y-87623504D01*
X135559642Y-87954516D01*
X136144000Y-88070752D01*
X136728358Y-87954516D01*
X137223752Y-87623504D01*
X137484679Y-87233000D01*
X141594144Y-87233000D01*
X141913952Y-87169386D01*
X143272000Y-87169386D01*
X143541410Y-87118693D01*
X143788846Y-86959472D01*
X143954843Y-86716529D01*
X143999249Y-86497242D01*
X145272000Y-86497242D01*
X145541410Y-86446549D01*
X145788846Y-86287328D01*
X145954843Y-86044385D01*
X145987524Y-85883000D01*
X151467891Y-85883000D01*
X151900864Y-86062786D01*
X152388995Y-86063212D01*
X152840131Y-85876806D01*
X153185593Y-85531947D01*
X153372786Y-85081136D01*
X153373212Y-84593005D01*
X153186806Y-84141869D01*
X152841947Y-83796407D01*
X152391136Y-83609214D01*
X151903005Y-83608788D01*
X151854088Y-83629000D01*
X145989345Y-83629000D01*
X145962549Y-83486590D01*
X145803328Y-83239154D01*
X145560385Y-83073157D01*
X145272000Y-83014758D01*
X143272000Y-83014758D01*
X143002590Y-83065451D01*
X142755154Y-83224672D01*
X142589157Y-83467615D01*
X142544751Y-83686902D01*
X141272000Y-83686902D01*
X141002590Y-83737595D01*
X140755154Y-83896816D01*
X140589157Y-84139759D01*
X140530758Y-84428144D01*
X140530758Y-84979000D01*
X137484679Y-84979000D01*
X137223752Y-84588496D01*
X136728358Y-84257484D01*
X136144000Y-84141248D01*
X135559642Y-84257484D01*
X135064248Y-84588496D01*
X134874000Y-84873222D01*
X134683752Y-84588496D01*
X134188358Y-84257484D01*
X133604000Y-84141248D01*
X133019642Y-84257484D01*
X132524248Y-84588496D01*
X132334000Y-84873222D01*
X132143752Y-84588496D01*
X131648358Y-84257484D01*
X131064000Y-84141248D01*
X130479642Y-84257484D01*
X129984248Y-84588496D01*
X129794000Y-84873222D01*
X129603752Y-84588496D01*
X129108358Y-84257484D01*
X128524000Y-84141248D01*
X127939642Y-84257484D01*
X127444248Y-84588496D01*
X127113236Y-85083890D01*
X126997000Y-85668248D01*
X111200000Y-85668248D01*
X111200000Y-80908532D01*
X143299073Y-80908532D01*
X143397736Y-81175387D01*
X144007461Y-81401908D01*
X144657460Y-81377856D01*
X145146264Y-81175387D01*
X145244927Y-80908532D01*
X144272000Y-79935605D01*
X143299073Y-80908532D01*
X111200000Y-80908532D01*
X111200000Y-78048248D01*
X126997000Y-78048248D01*
X126997000Y-78923752D01*
X127113236Y-79508110D01*
X127444248Y-80003504D01*
X127939642Y-80334516D01*
X128524000Y-80450752D01*
X129108358Y-80334516D01*
X129603752Y-80003504D01*
X129851439Y-79632814D01*
X130139104Y-79990500D01*
X130632181Y-80260367D01*
X130714961Y-80277904D01*
X130937000Y-80155915D01*
X130937000Y-78613000D01*
X130917000Y-78613000D01*
X130917000Y-78359000D01*
X130937000Y-78359000D01*
X130937000Y-76816085D01*
X131191000Y-76816085D01*
X131191000Y-78359000D01*
X131211000Y-78359000D01*
X131211000Y-78613000D01*
X131191000Y-78613000D01*
X131191000Y-80155915D01*
X131413039Y-80277904D01*
X131495819Y-80260367D01*
X131988896Y-79990500D01*
X132276561Y-79632814D01*
X132524248Y-80003504D01*
X133019642Y-80334516D01*
X133604000Y-80450752D01*
X134188358Y-80334516D01*
X134683752Y-80003504D01*
X134684081Y-80003011D01*
X134812672Y-80202846D01*
X135055615Y-80368843D01*
X135344000Y-80427242D01*
X136944000Y-80427242D01*
X137213410Y-80376549D01*
X137460846Y-80217328D01*
X137626843Y-79974385D01*
X137685242Y-79686000D01*
X137685242Y-79491461D01*
X142626092Y-79491461D01*
X142650144Y-80141460D01*
X142852613Y-80630264D01*
X143119468Y-80728927D01*
X144092395Y-79756000D01*
X143119468Y-78783073D01*
X142852613Y-78881736D01*
X142626092Y-79491461D01*
X137685242Y-79491461D01*
X137685242Y-78603468D01*
X143299073Y-78603468D01*
X144272000Y-79576395D01*
X144286143Y-79562253D01*
X144465748Y-79741858D01*
X144451605Y-79756000D01*
X145424532Y-80728927D01*
X145691387Y-80630264D01*
X145697239Y-80614512D01*
X146007461Y-80729764D01*
X146657460Y-80705712D01*
X147146264Y-80503243D01*
X147244927Y-80236388D01*
X146272000Y-79263461D01*
X146257858Y-79277604D01*
X146078253Y-79097999D01*
X146092395Y-79083856D01*
X146451605Y-79083856D01*
X147424532Y-80056783D01*
X147691387Y-79958120D01*
X147917908Y-79348395D01*
X147893856Y-78698396D01*
X147691387Y-78209592D01*
X147424532Y-78110929D01*
X146451605Y-79083856D01*
X146092395Y-79083856D01*
X145119468Y-78110929D01*
X144852613Y-78209592D01*
X144846761Y-78225344D01*
X144536539Y-78110092D01*
X143886540Y-78134144D01*
X143397736Y-78336613D01*
X143299073Y-78603468D01*
X137685242Y-78603468D01*
X137685242Y-77931324D01*
X145299073Y-77931324D01*
X146272000Y-78904251D01*
X147244927Y-77931324D01*
X147146264Y-77664469D01*
X146536539Y-77437948D01*
X145886540Y-77462000D01*
X145397736Y-77664469D01*
X145299073Y-77931324D01*
X137685242Y-77931324D01*
X137685242Y-77286000D01*
X137634549Y-77016590D01*
X137475328Y-76769154D01*
X137232385Y-76603157D01*
X136944000Y-76544758D01*
X135344000Y-76544758D01*
X135074590Y-76595451D01*
X134827154Y-76754672D01*
X134731000Y-76895397D01*
X134731000Y-71586818D01*
X135073053Y-71244765D01*
X135317356Y-70879140D01*
X135403144Y-70447856D01*
X135403144Y-70011345D01*
X135545554Y-69984549D01*
X135792990Y-69825328D01*
X135958987Y-69582385D01*
X136017386Y-69294000D01*
X136017386Y-67294000D01*
X135966693Y-67024590D01*
X135807472Y-66777154D01*
X135564529Y-66611157D01*
X135345242Y-66566751D01*
X135345242Y-65294000D01*
X135294549Y-65024590D01*
X135135328Y-64777154D01*
X134892385Y-64611157D01*
X134604000Y-64552758D01*
X132604000Y-64552758D01*
X132334590Y-64603451D01*
X132087154Y-64762672D01*
X131921157Y-65005615D01*
X131862758Y-65294000D01*
X131862758Y-67294000D01*
X131913451Y-67563410D01*
X132072672Y-67810846D01*
X132315615Y-67976843D01*
X132534902Y-68021249D01*
X132534902Y-69294000D01*
X132585595Y-69563410D01*
X132744816Y-69810846D01*
X132987759Y-69976843D01*
X133125455Y-70004727D01*
X132807091Y-70323091D01*
X132562788Y-70688716D01*
X132477000Y-71120000D01*
X132477000Y-77039208D01*
X132276561Y-77339186D01*
X131988896Y-76981500D01*
X131495819Y-76711633D01*
X131413039Y-76694096D01*
X131191000Y-76816085D01*
X130937000Y-76816085D01*
X130714961Y-76694096D01*
X130632181Y-76711633D01*
X130139104Y-76981500D01*
X129851439Y-77339186D01*
X129603752Y-76968496D01*
X129108358Y-76637484D01*
X128524000Y-76521248D01*
X127939642Y-76637484D01*
X127444248Y-76968496D01*
X127113236Y-77463890D01*
X126997000Y-78048248D01*
X111200000Y-78048248D01*
X111200000Y-64636014D01*
X126204557Y-64636014D01*
X126466923Y-65270989D01*
X126952312Y-65757226D01*
X126956242Y-65758858D01*
X126877300Y-65948971D01*
X126876701Y-66636014D01*
X127139067Y-67270989D01*
X127624456Y-67757226D01*
X128258971Y-68020700D01*
X128946014Y-68021299D01*
X129580989Y-67758933D01*
X130067226Y-67273544D01*
X130330700Y-66639029D01*
X130331299Y-65951986D01*
X130068933Y-65317011D01*
X129583544Y-64830774D01*
X129579614Y-64829142D01*
X129658556Y-64639029D01*
X129659155Y-63951986D01*
X129396789Y-63317011D01*
X128911400Y-62830774D01*
X128276885Y-62567300D01*
X127589842Y-62566701D01*
X126954867Y-62829067D01*
X126468630Y-63314456D01*
X126205156Y-63948971D01*
X126204557Y-64636014D01*
X111200000Y-64636014D01*
X111200000Y-45847000D01*
X236780000Y-45847000D01*
X236780000Y-145923000D01*
X236780000Y-145923000D01*
G37*
X236780000Y-145923000D02*
X209750608Y-145923000D01*
X210049577Y-145624552D01*
X210276741Y-145077480D01*
X210277258Y-144485119D01*
X210051049Y-143937651D01*
X209632552Y-143518423D01*
X209085480Y-143291259D01*
X208493119Y-143290742D01*
X207945651Y-143516951D01*
X207526423Y-143935448D01*
X207518261Y-143955105D01*
X207511049Y-143937651D01*
X207375000Y-143801364D01*
X207375000Y-140208000D01*
X207289212Y-139776716D01*
X207289212Y-139776715D01*
X207044909Y-139411090D01*
X205520912Y-137887094D01*
X205520910Y-137887091D01*
X203057000Y-135423182D01*
X203057000Y-134690679D01*
X203447504Y-134429752D01*
X203778516Y-133934358D01*
X203894752Y-133350000D01*
X203778516Y-132765642D01*
X203447504Y-132270248D01*
X203162778Y-132080000D01*
X203447504Y-131889752D01*
X203778516Y-131394358D01*
X203894752Y-130810000D01*
X203778516Y-130225642D01*
X203447504Y-129730248D01*
X203162778Y-129540000D01*
X203447504Y-129349752D01*
X203778516Y-128854358D01*
X203894752Y-128270000D01*
X203778516Y-127685642D01*
X203447504Y-127190248D01*
X203447011Y-127189919D01*
X203646846Y-127061328D01*
X203812843Y-126818385D01*
X203871242Y-126530000D01*
X203871242Y-125730000D01*
X207585248Y-125730000D01*
X207701484Y-126314358D01*
X208032496Y-126809752D01*
X208317222Y-127000000D01*
X208032496Y-127190248D01*
X207701484Y-127685642D01*
X207585248Y-128270000D01*
X207701484Y-128854358D01*
X208032496Y-129349752D01*
X208317222Y-129540000D01*
X208032496Y-129730248D01*
X207701484Y-130225642D01*
X207585248Y-130810000D01*
X207701484Y-131394358D01*
X208032496Y-131889752D01*
X208317222Y-132080000D01*
X208032496Y-132270248D01*
X207701484Y-132765642D01*
X207585248Y-133350000D01*
X207701484Y-133934358D01*
X208032496Y-134429752D01*
X208527890Y-134760764D01*
X209112248Y-134877000D01*
X209987752Y-134877000D01*
X210572110Y-134760764D01*
X211067504Y-134429752D01*
X211398516Y-133934358D01*
X211514752Y-133350000D01*
X211398516Y-132765642D01*
X211067504Y-132270248D01*
X210782778Y-132080000D01*
X211067504Y-131889752D01*
X211398516Y-131394358D01*
X211514752Y-130810000D01*
X211398516Y-130225642D01*
X211067504Y-129730248D01*
X210782778Y-129540000D01*
X211067504Y-129349752D01*
X211398516Y-128854358D01*
X211514752Y-128270000D01*
X211398516Y-127685642D01*
X211067504Y-127190248D01*
X210782778Y-127000000D01*
X211067504Y-126809752D01*
X211398516Y-126314358D01*
X211514752Y-125730000D01*
X211398516Y-125145642D01*
X211067504Y-124650248D01*
X210572110Y-124319236D01*
X209987752Y-124203000D01*
X209112248Y-124203000D01*
X208527890Y-124319236D01*
X208032496Y-124650248D01*
X207701484Y-125145642D01*
X207585248Y-125730000D01*
X203871242Y-125730000D01*
X203871242Y-124930000D01*
X203820549Y-124660590D01*
X203661328Y-124413154D01*
X203418385Y-124247157D01*
X203130000Y-124188758D01*
X200730000Y-124188758D01*
X200460590Y-124239451D01*
X200213154Y-124398672D01*
X200047157Y-124641615D01*
X199988758Y-124930000D01*
X199988758Y-126530000D01*
X200039451Y-126799410D01*
X200198672Y-127046846D01*
X200411258Y-127192101D01*
X200081484Y-127685642D01*
X199965248Y-128270000D01*
X200081484Y-128854358D01*
X200412496Y-129349752D01*
X200697222Y-129540000D01*
X200483208Y-129683000D01*
X196158949Y-129683000D01*
X196443846Y-129565283D01*
X196873773Y-129136106D01*
X197106735Y-128575072D01*
X197107265Y-127967593D01*
X196875283Y-127406154D01*
X196707000Y-127237577D01*
X196707000Y-124926818D01*
X198586819Y-123047000D01*
X216116187Y-123047000D01*
X216585642Y-123360680D01*
X217170000Y-123476916D01*
X217754358Y-123360680D01*
X218223813Y-123047000D01*
X222466187Y-123047000D01*
X222935642Y-123360680D01*
X223520000Y-123476916D01*
X224104358Y-123360680D01*
X224599752Y-123029668D01*
X224930764Y-122534274D01*
X225047000Y-121949916D01*
X225047000Y-121890084D01*
X224930764Y-121305726D01*
X224647000Y-120881044D01*
X224647000Y-120227356D01*
X224805410Y-120197549D01*
X225052846Y-120038328D01*
X225218843Y-119795385D01*
X225277242Y-119507000D01*
X225277242Y-117475000D01*
X225226549Y-117205590D01*
X225067328Y-116958154D01*
X224824385Y-116792157D01*
X224536000Y-116733758D01*
X222504000Y-116733758D01*
X222234590Y-116784451D01*
X221987154Y-116943672D01*
X221868599Y-117117182D01*
X221362946Y-116885017D01*
X221107000Y-117003633D01*
X221107000Y-118364000D01*
X221127000Y-118364000D01*
X221127000Y-118618000D01*
X221107000Y-118618000D01*
X221107000Y-119978367D01*
X221362946Y-120096983D01*
X221869943Y-119864201D01*
X221972672Y-120023846D01*
X222215615Y-120189843D01*
X222393000Y-120225764D01*
X222393000Y-120793000D01*
X218223813Y-120793000D01*
X217754358Y-120479320D01*
X217170000Y-120363084D01*
X216585642Y-120479320D01*
X216116187Y-120793000D01*
X198120000Y-120793000D01*
X197760270Y-120864555D01*
X197688715Y-120878788D01*
X197323090Y-121123091D01*
X194783091Y-123663091D01*
X194538788Y-124028716D01*
X194453000Y-124460000D01*
X194453000Y-127237412D01*
X194286227Y-127403894D01*
X194053265Y-127964928D01*
X194052735Y-128572407D01*
X194284717Y-129133846D01*
X194713894Y-129563773D01*
X195001024Y-129683000D01*
X192236356Y-129683000D01*
X192206549Y-129524590D01*
X192047328Y-129277154D01*
X191804385Y-129111157D01*
X191516000Y-129052758D01*
X189484000Y-129052758D01*
X189214590Y-129103451D01*
X188967154Y-129262672D01*
X188801157Y-129505615D01*
X188742758Y-129794000D01*
X188742758Y-131826000D01*
X188793451Y-132095410D01*
X188952672Y-132342846D01*
X189126182Y-132461401D01*
X188894017Y-132967054D01*
X189012633Y-133223000D01*
X190373000Y-133223000D01*
X190373000Y-133203000D01*
X190627000Y-133203000D01*
X190627000Y-133223000D01*
X191987367Y-133223000D01*
X192105983Y-132967054D01*
X191873201Y-132460057D01*
X192032846Y-132357328D01*
X192198843Y-132114385D01*
X192234764Y-131937000D01*
X200483208Y-131937000D01*
X200697222Y-132080000D01*
X200412496Y-132270248D01*
X200081484Y-132765642D01*
X199965248Y-133350000D01*
X200081484Y-133934358D01*
X200412496Y-134429752D01*
X200803000Y-134690679D01*
X200803000Y-135890000D01*
X200888788Y-136321284D01*
X201133091Y-136686909D01*
X203927091Y-139480910D01*
X203927094Y-139480912D01*
X205121000Y-140674819D01*
X205121000Y-143801106D01*
X204986423Y-143935448D01*
X204978261Y-143955105D01*
X204971049Y-143937651D01*
X204552552Y-143518423D01*
X204005480Y-143291259D01*
X203413119Y-143290742D01*
X202865651Y-143516951D01*
X202729364Y-143653000D01*
X202396818Y-143653000D01*
X197097837Y-138354019D01*
X196990764Y-137815726D01*
X196659752Y-137320332D01*
X196164358Y-136989320D01*
X195580000Y-136873084D01*
X194995642Y-136989320D01*
X194500248Y-137320332D01*
X194169236Y-137815726D01*
X194053000Y-138400084D01*
X194053000Y-138459916D01*
X194169236Y-139044274D01*
X194500248Y-139539668D01*
X194995642Y-139870680D01*
X195533935Y-139977753D01*
X201133091Y-145576909D01*
X201498716Y-145821212D01*
X201930000Y-145907000D01*
X202729106Y-145907000D01*
X202745078Y-145923000D01*
X172158608Y-145923000D01*
X172457577Y-145624552D01*
X172684741Y-145077480D01*
X172685258Y-144485119D01*
X172459049Y-143937651D01*
X172040552Y-143518423D01*
X171493480Y-143291259D01*
X170901119Y-143290742D01*
X170353651Y-143516951D01*
X169934423Y-143935448D01*
X169926261Y-143955105D01*
X169919049Y-143937651D01*
X169783000Y-143801364D01*
X169783000Y-141732000D01*
X169697212Y-141300716D01*
X169645952Y-141224000D01*
X169452910Y-140935091D01*
X164957000Y-136439182D01*
X164957000Y-134690679D01*
X165347504Y-134429752D01*
X165678516Y-133934358D01*
X165794752Y-133350000D01*
X165678516Y-132765642D01*
X165347504Y-132270248D01*
X165062778Y-132080000D01*
X165347504Y-131889752D01*
X165678516Y-131394358D01*
X165794752Y-130810000D01*
X165678516Y-130225642D01*
X165347504Y-129730248D01*
X165062778Y-129540000D01*
X165347504Y-129349752D01*
X165678516Y-128854358D01*
X165794752Y-128270000D01*
X165678516Y-127685642D01*
X165347504Y-127190248D01*
X165347011Y-127189919D01*
X165546846Y-127061328D01*
X165712843Y-126818385D01*
X165771242Y-126530000D01*
X165771242Y-125730000D01*
X169485248Y-125730000D01*
X169601484Y-126314358D01*
X169932496Y-126809752D01*
X170217222Y-127000000D01*
X169932496Y-127190248D01*
X169601484Y-127685642D01*
X169485248Y-128270000D01*
X169601484Y-128854358D01*
X169932496Y-129349752D01*
X170217222Y-129540000D01*
X169932496Y-129730248D01*
X169601484Y-130225642D01*
X169485248Y-130810000D01*
X169601484Y-131394358D01*
X169932496Y-131889752D01*
X170217222Y-132080000D01*
X169932496Y-132270248D01*
X169601484Y-132765642D01*
X169485248Y-133350000D01*
X169601484Y-133934358D01*
X169932496Y-134429752D01*
X170427890Y-134760764D01*
X171012248Y-134877000D01*
X171887752Y-134877000D01*
X172472110Y-134760764D01*
X172967504Y-134429752D01*
X173298516Y-133934358D01*
X173338579Y-133732946D01*
X188894017Y-133732946D01*
X189162812Y-134318379D01*
X189635182Y-134756385D01*
X190117056Y-134955975D01*
X190373000Y-134836836D01*
X190373000Y-133477000D01*
X190627000Y-133477000D01*
X190627000Y-134836836D01*
X190882944Y-134955975D01*
X191364818Y-134756385D01*
X191837188Y-134318379D01*
X192105983Y-133732946D01*
X191987367Y-133477000D01*
X190627000Y-133477000D01*
X190373000Y-133477000D01*
X189012633Y-133477000D01*
X188894017Y-133732946D01*
X173338579Y-133732946D01*
X173414752Y-133350000D01*
X173298516Y-132765642D01*
X172967504Y-132270248D01*
X172682778Y-132080000D01*
X172967504Y-131889752D01*
X173298516Y-131394358D01*
X173414752Y-130810000D01*
X173298516Y-130225642D01*
X172967504Y-129730248D01*
X172682778Y-129540000D01*
X172967504Y-129349752D01*
X173298516Y-128854358D01*
X173414752Y-128270000D01*
X173298516Y-127685642D01*
X172967504Y-127190248D01*
X172682778Y-127000000D01*
X172967504Y-126809752D01*
X173298516Y-126314358D01*
X173414752Y-125730000D01*
X173298516Y-125145642D01*
X172967504Y-124650248D01*
X172472110Y-124319236D01*
X171887752Y-124203000D01*
X171012248Y-124203000D01*
X170427890Y-124319236D01*
X169932496Y-124650248D01*
X169601484Y-125145642D01*
X169485248Y-125730000D01*
X165771242Y-125730000D01*
X165771242Y-124930000D01*
X165720549Y-124660590D01*
X165561328Y-124413154D01*
X165318385Y-124247157D01*
X165030000Y-124188758D01*
X162630000Y-124188758D01*
X162360590Y-124239451D01*
X162113154Y-124398672D01*
X161947157Y-124641615D01*
X161888758Y-124930000D01*
X161888758Y-126530000D01*
X161939451Y-126799410D01*
X162098672Y-127046846D01*
X162311258Y-127192101D01*
X161981484Y-127685642D01*
X161865248Y-128270000D01*
X161981484Y-128854358D01*
X162312496Y-129349752D01*
X162597222Y-129540000D01*
X162383208Y-129683000D01*
X158058949Y-129683000D01*
X158343846Y-129565283D01*
X158773773Y-129136106D01*
X159006735Y-128575072D01*
X159007265Y-127967593D01*
X158775283Y-127406154D01*
X158607000Y-127237577D01*
X158607000Y-124926818D01*
X160486819Y-123047000D01*
X178016187Y-123047000D01*
X178485642Y-123360680D01*
X179070000Y-123476916D01*
X179654358Y-123360680D01*
X180123813Y-123047000D01*
X184366187Y-123047000D01*
X184835642Y-123360680D01*
X185420000Y-123476916D01*
X186004358Y-123360680D01*
X186499752Y-123029668D01*
X186830764Y-122534274D01*
X186947000Y-121949916D01*
X186947000Y-121890084D01*
X186830764Y-121305726D01*
X186547000Y-120881044D01*
X186547000Y-120354356D01*
X186705410Y-120324549D01*
X186952846Y-120165328D01*
X187118843Y-119922385D01*
X187177242Y-119634000D01*
X187177242Y-117602000D01*
X187126549Y-117332590D01*
X186967328Y-117085154D01*
X186724385Y-116919157D01*
X186436000Y-116860758D01*
X184404000Y-116860758D01*
X184134590Y-116911451D01*
X183887154Y-117070672D01*
X183768599Y-117244182D01*
X183262946Y-117012017D01*
X183007000Y-117130633D01*
X183007000Y-118491000D01*
X183027000Y-118491000D01*
X183027000Y-118745000D01*
X183007000Y-118745000D01*
X183007000Y-120105367D01*
X183262946Y-120223983D01*
X183769943Y-119991201D01*
X183872672Y-120150846D01*
X184115615Y-120316843D01*
X184293000Y-120352764D01*
X184293000Y-120793000D01*
X180123813Y-120793000D01*
X179654358Y-120479320D01*
X179070000Y-120363084D01*
X178485642Y-120479320D01*
X178016187Y-120793000D01*
X160020000Y-120793000D01*
X159660270Y-120864555D01*
X159588715Y-120878788D01*
X159223090Y-121123091D01*
X156683091Y-123663091D01*
X156438788Y-124028716D01*
X156353000Y-124460000D01*
X156353000Y-127237412D01*
X156186227Y-127403894D01*
X155953265Y-127964928D01*
X155952735Y-128572407D01*
X156184717Y-129133846D01*
X156613894Y-129563773D01*
X156901024Y-129683000D01*
X154136356Y-129683000D01*
X154106549Y-129524590D01*
X153947328Y-129277154D01*
X153704385Y-129111157D01*
X153416000Y-129052758D01*
X151384000Y-129052758D01*
X151114590Y-129103451D01*
X150867154Y-129262672D01*
X150701157Y-129505615D01*
X150642758Y-129794000D01*
X150642758Y-131826000D01*
X150693451Y-132095410D01*
X150852672Y-132342846D01*
X151026182Y-132461401D01*
X150794017Y-132967054D01*
X150912633Y-133223000D01*
X152273000Y-133223000D01*
X152273000Y-133203000D01*
X152527000Y-133203000D01*
X152527000Y-133223000D01*
X153887367Y-133223000D01*
X154005983Y-132967054D01*
X153773201Y-132460057D01*
X153932846Y-132357328D01*
X154098843Y-132114385D01*
X154134764Y-131937000D01*
X162383208Y-131937000D01*
X162597222Y-132080000D01*
X162312496Y-132270248D01*
X161981484Y-132765642D01*
X161865248Y-133350000D01*
X161981484Y-133934358D01*
X162312496Y-134429752D01*
X162703000Y-134690679D01*
X162703000Y-136906000D01*
X162788788Y-137337284D01*
X163033091Y-137702909D01*
X167529000Y-142198819D01*
X167529000Y-143801106D01*
X167394423Y-143935448D01*
X167386261Y-143955105D01*
X167379049Y-143937651D01*
X166960552Y-143518423D01*
X166413480Y-143291259D01*
X165821119Y-143290742D01*
X165273651Y-143516951D01*
X165137364Y-143653000D01*
X164296819Y-143653000D01*
X163864911Y-143221093D01*
X163864909Y-143221090D01*
X158997837Y-138354019D01*
X158890764Y-137815726D01*
X158559752Y-137320332D01*
X158064358Y-136989320D01*
X157480000Y-136873084D01*
X156895642Y-136989320D01*
X156400248Y-137320332D01*
X156069236Y-137815726D01*
X155953000Y-138400084D01*
X155953000Y-138459916D01*
X156069236Y-139044274D01*
X156400248Y-139539668D01*
X156895642Y-139870680D01*
X157433935Y-139977753D01*
X162271090Y-144814909D01*
X162271093Y-144814911D01*
X163033091Y-145576910D01*
X163398716Y-145821212D01*
X163830000Y-145907000D01*
X165137106Y-145907000D01*
X165153078Y-145923000D01*
X133042608Y-145923000D01*
X133341577Y-145624552D01*
X133568741Y-145077480D01*
X133569258Y-144485119D01*
X133343049Y-143937651D01*
X132924552Y-143518423D01*
X132377480Y-143291259D01*
X131785119Y-143290742D01*
X131237651Y-143516951D01*
X130818423Y-143935448D01*
X130810261Y-143955105D01*
X130803049Y-143937651D01*
X130667000Y-143801364D01*
X130667000Y-141224000D01*
X130581212Y-140792716D01*
X130336909Y-140427091D01*
X128050911Y-138141093D01*
X128050909Y-138141090D01*
X126857000Y-136947182D01*
X126857000Y-134690679D01*
X127247504Y-134429752D01*
X127578516Y-133934358D01*
X127694752Y-133350000D01*
X127578516Y-132765642D01*
X127247504Y-132270248D01*
X126962778Y-132080000D01*
X127247504Y-131889752D01*
X127578516Y-131394358D01*
X127694752Y-130810000D01*
X127578516Y-130225642D01*
X127247504Y-129730248D01*
X126962778Y-129540000D01*
X127247504Y-129349752D01*
X127578516Y-128854358D01*
X127694752Y-128270000D01*
X127578516Y-127685642D01*
X127247504Y-127190248D01*
X127247011Y-127189919D01*
X127446846Y-127061328D01*
X127612843Y-126818385D01*
X127671242Y-126530000D01*
X127671242Y-125730000D01*
X131385248Y-125730000D01*
X131501484Y-126314358D01*
X131832496Y-126809752D01*
X132117222Y-127000000D01*
X131832496Y-127190248D01*
X131501484Y-127685642D01*
X131385248Y-128270000D01*
X131501484Y-128854358D01*
X131832496Y-129349752D01*
X132117222Y-129540000D01*
X131832496Y-129730248D01*
X131501484Y-130225642D01*
X131385248Y-130810000D01*
X131501484Y-131394358D01*
X131832496Y-131889752D01*
X132117222Y-132080000D01*
X131832496Y-132270248D01*
X131501484Y-132765642D01*
X131385248Y-133350000D01*
X131501484Y-133934358D01*
X131832496Y-134429752D01*
X132327890Y-134760764D01*
X132912248Y-134877000D01*
X133787752Y-134877000D01*
X134372110Y-134760764D01*
X134867504Y-134429752D01*
X135198516Y-133934358D01*
X135238579Y-133732946D01*
X150794017Y-133732946D01*
X151062812Y-134318379D01*
X151535182Y-134756385D01*
X152017056Y-134955975D01*
X152273000Y-134836836D01*
X152273000Y-133477000D01*
X152527000Y-133477000D01*
X152527000Y-134836836D01*
X152782944Y-134955975D01*
X153264818Y-134756385D01*
X153737188Y-134318379D01*
X154005983Y-133732946D01*
X153887367Y-133477000D01*
X152527000Y-133477000D01*
X152273000Y-133477000D01*
X150912633Y-133477000D01*
X150794017Y-133732946D01*
X135238579Y-133732946D01*
X135314752Y-133350000D01*
X135198516Y-132765642D01*
X134867504Y-132270248D01*
X134655225Y-132128407D01*
X138172735Y-132128407D01*
X138404717Y-132689846D01*
X138833894Y-133119773D01*
X139394928Y-133352735D01*
X140002407Y-133353265D01*
X140563846Y-133121283D01*
X140732423Y-132953000D01*
X142646400Y-132953000D01*
X143077684Y-132867212D01*
X143127770Y-132833745D01*
X145475861Y-132833745D01*
X145549995Y-133079864D01*
X146087223Y-133272965D01*
X146657454Y-133245778D01*
X147058005Y-133079864D01*
X147132139Y-132833745D01*
X146304000Y-132005605D01*
X145475861Y-132833745D01*
X143127770Y-132833745D01*
X143443309Y-132622909D01*
X145182305Y-130883913D01*
X145296253Y-130997861D01*
X145050136Y-131071995D01*
X144857035Y-131609223D01*
X144884222Y-132179454D01*
X145050136Y-132580005D01*
X145296255Y-132654139D01*
X146124395Y-131826000D01*
X146483605Y-131826000D01*
X147311745Y-132654139D01*
X147557864Y-132580005D01*
X147750965Y-132042777D01*
X147723778Y-131472546D01*
X147557864Y-131071995D01*
X147311745Y-130997861D01*
X146483605Y-131826000D01*
X146124395Y-131826000D01*
X146110252Y-131811858D01*
X146289858Y-131632252D01*
X146304000Y-131646395D01*
X147132139Y-130818255D01*
X147058005Y-130572136D01*
X146520777Y-130379035D01*
X145950546Y-130406222D01*
X145549995Y-130572136D01*
X145475861Y-130818253D01*
X145361913Y-130704305D01*
X157065274Y-119000944D01*
X181274025Y-119000944D01*
X181473615Y-119482818D01*
X181911621Y-119955188D01*
X182497054Y-120223983D01*
X182753000Y-120105367D01*
X182753000Y-118745000D01*
X181393164Y-118745000D01*
X181274025Y-119000944D01*
X157065274Y-119000944D01*
X157831162Y-118235056D01*
X181274025Y-118235056D01*
X181393164Y-118491000D01*
X182753000Y-118491000D01*
X182753000Y-117130633D01*
X182497054Y-117012017D01*
X181911621Y-117280812D01*
X181473615Y-117753182D01*
X181274025Y-118235056D01*
X157831162Y-118235056D01*
X179562218Y-96504000D01*
X231102135Y-96504000D01*
X231316150Y-96647000D01*
X231102135Y-96790000D01*
X214364370Y-96790000D01*
X213933086Y-96875788D01*
X213567461Y-97120091D01*
X179911530Y-130776022D01*
X179375072Y-130553265D01*
X178767593Y-130552735D01*
X178206154Y-130784717D01*
X177776227Y-131213894D01*
X177543265Y-131774928D01*
X177542735Y-132382407D01*
X177774717Y-132943846D01*
X178203894Y-133373773D01*
X178764928Y-133606735D01*
X179372407Y-133607265D01*
X179933846Y-133375283D01*
X180102423Y-133207000D01*
X180201370Y-133207000D01*
X180632654Y-133121212D01*
X180682740Y-133087745D01*
X184591861Y-133087745D01*
X184665995Y-133333864D01*
X185203223Y-133526965D01*
X185773454Y-133499778D01*
X186174005Y-133333864D01*
X186248139Y-133087745D01*
X185420000Y-132259605D01*
X184591861Y-133087745D01*
X180682740Y-133087745D01*
X180998279Y-132876909D01*
X182011965Y-131863223D01*
X183973035Y-131863223D01*
X184000222Y-132433454D01*
X184166136Y-132834005D01*
X184412255Y-132908139D01*
X185240395Y-132080000D01*
X185599605Y-132080000D01*
X186427745Y-132908139D01*
X186673864Y-132834005D01*
X186866965Y-132296777D01*
X186839778Y-131726546D01*
X186673864Y-131325995D01*
X186427745Y-131251861D01*
X185599605Y-132080000D01*
X185240395Y-132080000D01*
X184412255Y-131251861D01*
X184166136Y-131325995D01*
X183973035Y-131863223D01*
X182011965Y-131863223D01*
X182802933Y-131072255D01*
X184591861Y-131072255D01*
X185420000Y-131900395D01*
X186248139Y-131072255D01*
X186174005Y-130826136D01*
X185636777Y-130633035D01*
X185066546Y-130660222D01*
X184665995Y-130826136D01*
X184591861Y-131072255D01*
X182802933Y-131072255D01*
X195001244Y-118873944D01*
X219374025Y-118873944D01*
X219573615Y-119355818D01*
X220011621Y-119828188D01*
X220597054Y-120096983D01*
X220853000Y-119978367D01*
X220853000Y-118618000D01*
X219493164Y-118618000D01*
X219374025Y-118873944D01*
X195001244Y-118873944D01*
X195767132Y-118108056D01*
X219374025Y-118108056D01*
X219493164Y-118364000D01*
X220853000Y-118364000D01*
X220853000Y-117003633D01*
X220597054Y-116885017D01*
X220011621Y-117153812D01*
X219573615Y-117626182D01*
X219374025Y-118108056D01*
X195767132Y-118108056D01*
X214831188Y-99044000D01*
X231102135Y-99044000D01*
X231316150Y-99187000D01*
X231102135Y-99330000D01*
X230594000Y-99330000D01*
X230162716Y-99415788D01*
X229797091Y-99660091D01*
X227676091Y-101781091D01*
X227431788Y-102146716D01*
X227346000Y-102578000D01*
X227346000Y-120310182D01*
X217103241Y-130552941D01*
X216867593Y-130552735D01*
X216306154Y-130784717D01*
X215876227Y-131213894D01*
X215643265Y-131774928D01*
X215642735Y-132382407D01*
X215874717Y-132943846D01*
X216303894Y-133373773D01*
X216864928Y-133606735D01*
X217472407Y-133607265D01*
X218033846Y-133375283D01*
X218321886Y-133087745D01*
X222691861Y-133087745D01*
X222765995Y-133333864D01*
X223303223Y-133526965D01*
X223873454Y-133499778D01*
X224274005Y-133333864D01*
X224348139Y-133087745D01*
X223520000Y-132259605D01*
X222691861Y-133087745D01*
X218321886Y-133087745D01*
X218463773Y-132946106D01*
X218696735Y-132385072D01*
X218696943Y-132146875D01*
X218980595Y-131863223D01*
X222073035Y-131863223D01*
X222100222Y-132433454D01*
X222266136Y-132834005D01*
X222512255Y-132908139D01*
X223340395Y-132080000D01*
X223699605Y-132080000D01*
X224527745Y-132908139D01*
X224773864Y-132834005D01*
X224966965Y-132296777D01*
X224939778Y-131726546D01*
X224773864Y-131325995D01*
X224527745Y-131251861D01*
X223699605Y-132080000D01*
X223340395Y-132080000D01*
X222512255Y-131251861D01*
X222266136Y-131325995D01*
X222073035Y-131863223D01*
X218980595Y-131863223D01*
X219771563Y-131072255D01*
X222691861Y-131072255D01*
X223520000Y-131900395D01*
X224348139Y-131072255D01*
X224274005Y-130826136D01*
X223736777Y-130633035D01*
X223166546Y-130660222D01*
X222765995Y-130826136D01*
X222691861Y-131072255D01*
X219771563Y-131072255D01*
X229269909Y-121573909D01*
X229514212Y-121208284D01*
X229600000Y-120777000D01*
X229600000Y-113030000D01*
X230013000Y-113030000D01*
X230098788Y-113461284D01*
X230343091Y-113826909D01*
X230708716Y-114071212D01*
X231140000Y-114157000D01*
X231924553Y-114157000D01*
X232164864Y-114256786D01*
X232652995Y-114257212D01*
X233104131Y-114070806D01*
X233449593Y-113725947D01*
X233636786Y-113275136D01*
X233637212Y-112787005D01*
X233450806Y-112335869D01*
X233105947Y-111990407D01*
X232655136Y-111803214D01*
X232167005Y-111802788D01*
X231924474Y-111903000D01*
X231140000Y-111903000D01*
X230708716Y-111988788D01*
X230343091Y-112233091D01*
X230098788Y-112598716D01*
X230013000Y-113030000D01*
X229600000Y-113030000D01*
X229600000Y-104673400D01*
X230652758Y-104673400D01*
X230652758Y-106400600D01*
X230703451Y-106670010D01*
X230862672Y-106917446D01*
X231105615Y-107083443D01*
X231283000Y-107119364D01*
X231283000Y-108099553D01*
X231183214Y-108339864D01*
X231182788Y-108827995D01*
X231369194Y-109279131D01*
X231714053Y-109624593D01*
X232164864Y-109811786D01*
X232652995Y-109812212D01*
X233104131Y-109625806D01*
X233449593Y-109280947D01*
X233636786Y-108830136D01*
X233637212Y-108342005D01*
X233537000Y-108099474D01*
X233537000Y-107120956D01*
X233695410Y-107091149D01*
X233942846Y-106931928D01*
X234108843Y-106688985D01*
X234167242Y-106400600D01*
X234167242Y-104673400D01*
X234116549Y-104403990D01*
X233957328Y-104156554D01*
X233714385Y-103990557D01*
X233668661Y-103981298D01*
X233760732Y-103899036D01*
X234014709Y-103371791D01*
X234017358Y-103356026D01*
X233896217Y-103124000D01*
X232537000Y-103124000D01*
X232537000Y-103144000D01*
X232283000Y-103144000D01*
X232283000Y-103124000D01*
X230923783Y-103124000D01*
X230802642Y-103356026D01*
X230805291Y-103371791D01*
X231059268Y-103899036D01*
X231148121Y-103978423D01*
X231124590Y-103982851D01*
X230877154Y-104142072D01*
X230711157Y-104385015D01*
X230652758Y-104673400D01*
X229600000Y-104673400D01*
X229600000Y-103044818D01*
X231060818Y-101584000D01*
X231102135Y-101584000D01*
X231404806Y-101786238D01*
X231059268Y-102094964D01*
X230805291Y-102622209D01*
X230802642Y-102637974D01*
X230923783Y-102870000D01*
X232283000Y-102870000D01*
X232283000Y-102850000D01*
X232537000Y-102850000D01*
X232537000Y-102870000D01*
X233896217Y-102870000D01*
X234017358Y-102637974D01*
X234014709Y-102622209D01*
X233760732Y-102094964D01*
X233415194Y-101786238D01*
X233721271Y-101581724D01*
X234066070Y-101065696D01*
X234187147Y-100457000D01*
X234066070Y-99848304D01*
X233721271Y-99332276D01*
X233503850Y-99187000D01*
X233721271Y-99041724D01*
X234066070Y-98525696D01*
X234187147Y-97917000D01*
X234066070Y-97308304D01*
X233721271Y-96792276D01*
X233503850Y-96647000D01*
X233721271Y-96501724D01*
X234066070Y-95985696D01*
X234187147Y-95377000D01*
X234066070Y-94768304D01*
X233721271Y-94252276D01*
X233205243Y-93907477D01*
X232596547Y-93786400D01*
X232223453Y-93786400D01*
X231614757Y-93907477D01*
X231102135Y-94250000D01*
X179095400Y-94250000D01*
X178664116Y-94335788D01*
X178298491Y-94580091D01*
X142179582Y-130699000D01*
X140732588Y-130699000D01*
X140566106Y-130532227D01*
X140005072Y-130299265D01*
X139397593Y-130298735D01*
X138836154Y-130530717D01*
X138406227Y-130959894D01*
X138173265Y-131520928D01*
X138172735Y-132128407D01*
X134655225Y-132128407D01*
X134582778Y-132080000D01*
X134867504Y-131889752D01*
X135198516Y-131394358D01*
X135314752Y-130810000D01*
X135198516Y-130225642D01*
X134867504Y-129730248D01*
X134582778Y-129540000D01*
X134867504Y-129349752D01*
X135198516Y-128854358D01*
X135314752Y-128270000D01*
X135198516Y-127685642D01*
X134867504Y-127190248D01*
X134582778Y-127000000D01*
X134867504Y-126809752D01*
X135198516Y-126314358D01*
X135314752Y-125730000D01*
X135198516Y-125145642D01*
X134867504Y-124650248D01*
X134372110Y-124319236D01*
X133787752Y-124203000D01*
X132912248Y-124203000D01*
X132327890Y-124319236D01*
X131832496Y-124650248D01*
X131501484Y-125145642D01*
X131385248Y-125730000D01*
X127671242Y-125730000D01*
X127671242Y-124930000D01*
X127620549Y-124660590D01*
X127461328Y-124413154D01*
X127218385Y-124247157D01*
X126930000Y-124188758D01*
X124530000Y-124188758D01*
X124260590Y-124239451D01*
X124013154Y-124398672D01*
X123847157Y-124641615D01*
X123788758Y-124930000D01*
X123788758Y-126530000D01*
X123839451Y-126799410D01*
X123998672Y-127046846D01*
X124211258Y-127192101D01*
X123881484Y-127685642D01*
X123765248Y-128270000D01*
X123881484Y-128854358D01*
X124212496Y-129349752D01*
X124497222Y-129540000D01*
X124283208Y-129683000D01*
X119958949Y-129683000D01*
X120243846Y-129565283D01*
X120673773Y-129136106D01*
X120906735Y-128575072D01*
X120907265Y-127967593D01*
X120675283Y-127406154D01*
X120507000Y-127237577D01*
X120507000Y-124926818D01*
X122640819Y-122793000D01*
X138646187Y-122793000D01*
X139115642Y-123106680D01*
X139700000Y-123222916D01*
X140284358Y-123106680D01*
X140753813Y-122793000D01*
X145250187Y-122793000D01*
X145719642Y-123106680D01*
X146304000Y-123222916D01*
X146888358Y-123106680D01*
X147383752Y-122775668D01*
X147714764Y-122280274D01*
X147831000Y-121695916D01*
X147831000Y-121636084D01*
X147714764Y-121051726D01*
X147431000Y-120627044D01*
X147431000Y-119719356D01*
X147589410Y-119689549D01*
X147836846Y-119530328D01*
X148002843Y-119287385D01*
X148061242Y-118999000D01*
X148061242Y-116967000D01*
X148010549Y-116697590D01*
X147851328Y-116450154D01*
X147608385Y-116284157D01*
X147320000Y-116225758D01*
X145288000Y-116225758D01*
X145018590Y-116276451D01*
X144771154Y-116435672D01*
X144652599Y-116609182D01*
X144146946Y-116377017D01*
X143891000Y-116495633D01*
X143891000Y-117856000D01*
X143911000Y-117856000D01*
X143911000Y-118110000D01*
X143891000Y-118110000D01*
X143891000Y-119470367D01*
X144146946Y-119588983D01*
X144653943Y-119356201D01*
X144756672Y-119515846D01*
X144999615Y-119681843D01*
X145177000Y-119717764D01*
X145177000Y-120539000D01*
X140753813Y-120539000D01*
X140284358Y-120225320D01*
X139700000Y-120109084D01*
X139115642Y-120225320D01*
X138646187Y-120539000D01*
X122174000Y-120539000D01*
X121742716Y-120624788D01*
X121377091Y-120869090D01*
X118583091Y-123663091D01*
X118338788Y-124028716D01*
X118253000Y-124460000D01*
X118253000Y-127237412D01*
X118086227Y-127403894D01*
X117853265Y-127964928D01*
X117852735Y-128572407D01*
X118084717Y-129133846D01*
X118513894Y-129563773D01*
X118801024Y-129683000D01*
X117306356Y-129683000D01*
X117276549Y-129524590D01*
X117117328Y-129277154D01*
X116874385Y-129111157D01*
X116586000Y-129052758D01*
X114554000Y-129052758D01*
X114284590Y-129103451D01*
X114037154Y-129262672D01*
X113871157Y-129505615D01*
X113812758Y-129794000D01*
X113812758Y-131826000D01*
X113863451Y-132095410D01*
X114022672Y-132342846D01*
X114196182Y-132461401D01*
X113964017Y-132967054D01*
X114082633Y-133223000D01*
X115443000Y-133223000D01*
X115443000Y-133203000D01*
X115697000Y-133203000D01*
X115697000Y-133223000D01*
X117057367Y-133223000D01*
X117175983Y-132967054D01*
X116943201Y-132460057D01*
X117102846Y-132357328D01*
X117268843Y-132114385D01*
X117304764Y-131937000D01*
X124283208Y-131937000D01*
X124497222Y-132080000D01*
X124212496Y-132270248D01*
X123881484Y-132765642D01*
X123765248Y-133350000D01*
X123881484Y-133934358D01*
X124212496Y-134429752D01*
X124603000Y-134690679D01*
X124603000Y-137414000D01*
X124688788Y-137845284D01*
X124933091Y-138210909D01*
X126457090Y-139734909D01*
X126457093Y-139734911D01*
X128413000Y-141690818D01*
X128413000Y-143801106D01*
X128278423Y-143935448D01*
X128270261Y-143955105D01*
X128263049Y-143937651D01*
X127844552Y-143518423D01*
X127297480Y-143291259D01*
X126705119Y-143290742D01*
X126157651Y-143516951D01*
X126109168Y-143565350D01*
X120897837Y-138354019D01*
X120790764Y-137815726D01*
X120459752Y-137320332D01*
X119964358Y-136989320D01*
X119380000Y-136873084D01*
X118795642Y-136989320D01*
X118300248Y-137320332D01*
X117969236Y-137815726D01*
X117853000Y-138400084D01*
X117853000Y-138459916D01*
X117969236Y-139044274D01*
X118300248Y-139539668D01*
X118795642Y-139870680D01*
X119333935Y-139977753D01*
X124933091Y-145576909D01*
X125298716Y-145821212D01*
X125730000Y-145907000D01*
X126021106Y-145907000D01*
X126037078Y-145923000D01*
X111200000Y-145923000D01*
X111200000Y-133732946D01*
X113964017Y-133732946D01*
X114232812Y-134318379D01*
X114705182Y-134756385D01*
X115187056Y-134955975D01*
X115443000Y-134836836D01*
X115443000Y-133477000D01*
X115697000Y-133477000D01*
X115697000Y-134836836D01*
X115952944Y-134955975D01*
X116434818Y-134756385D01*
X116907188Y-134318379D01*
X117175983Y-133732946D01*
X117057367Y-133477000D01*
X115697000Y-133477000D01*
X115443000Y-133477000D01*
X114082633Y-133477000D01*
X113964017Y-133732946D01*
X111200000Y-133732946D01*
X111200000Y-118365944D01*
X142158025Y-118365944D01*
X142357615Y-118847818D01*
X142795621Y-119320188D01*
X143381054Y-119588983D01*
X143637000Y-119470367D01*
X143637000Y-118110000D01*
X142277164Y-118110000D01*
X142158025Y-118365944D01*
X111200000Y-118365944D01*
X111200000Y-117600056D01*
X142158025Y-117600056D01*
X142277164Y-117856000D01*
X143637000Y-117856000D01*
X143637000Y-116495633D01*
X143381054Y-116377017D01*
X142795621Y-116645812D01*
X142357615Y-117118182D01*
X142158025Y-117600056D01*
X111200000Y-117600056D01*
X111200000Y-102139750D01*
X123667000Y-102139750D01*
X123667000Y-102980310D01*
X123763673Y-103213699D01*
X123942302Y-103392327D01*
X124175691Y-103489000D01*
X125016250Y-103489000D01*
X125175000Y-103330250D01*
X125175000Y-101981000D01*
X125429000Y-101981000D01*
X125429000Y-103330250D01*
X125587750Y-103489000D01*
X126428309Y-103489000D01*
X126661698Y-103392327D01*
X126840327Y-103213699D01*
X126937000Y-102980310D01*
X126937000Y-102196014D01*
X128574701Y-102196014D01*
X128837067Y-102830989D01*
X129322456Y-103317226D01*
X129326386Y-103318858D01*
X129247444Y-103508971D01*
X129246845Y-104196014D01*
X129509211Y-104830989D01*
X129994600Y-105317226D01*
X130629115Y-105580700D01*
X131316158Y-105581299D01*
X131951133Y-105318933D01*
X132437370Y-104833544D01*
X132700844Y-104199029D01*
X132700895Y-104139750D01*
X142467144Y-104139750D01*
X142467144Y-104980310D01*
X142563817Y-105213699D01*
X142742446Y-105392327D01*
X142975835Y-105489000D01*
X143816394Y-105489000D01*
X143975144Y-105330250D01*
X143975144Y-103981000D01*
X144229144Y-103981000D01*
X144229144Y-105330250D01*
X144387894Y-105489000D01*
X145228453Y-105489000D01*
X145461842Y-105392327D01*
X145640471Y-105213699D01*
X145737144Y-104980310D01*
X145737144Y-104139750D01*
X145578394Y-103981000D01*
X144229144Y-103981000D01*
X143975144Y-103981000D01*
X142625894Y-103981000D01*
X142467144Y-104139750D01*
X132700895Y-104139750D01*
X132701443Y-103511986D01*
X132439077Y-102877011D01*
X131953688Y-102390774D01*
X131949758Y-102389142D01*
X132028700Y-102199029D01*
X132029299Y-101511986D01*
X131766933Y-100877011D01*
X131281544Y-100390774D01*
X130812511Y-100196014D01*
X136030557Y-100196014D01*
X136292923Y-100830989D01*
X136778312Y-101317226D01*
X136782242Y-101318858D01*
X136703300Y-101508971D01*
X136702701Y-102196014D01*
X136965067Y-102830989D01*
X137450456Y-103317226D01*
X138084971Y-103580700D01*
X138772014Y-103581299D01*
X139406989Y-103318933D01*
X139893226Y-102833544D01*
X140156700Y-102199029D01*
X140156751Y-102139750D01*
X141795000Y-102139750D01*
X141795000Y-102980310D01*
X141891673Y-103213699D01*
X142070302Y-103392327D01*
X142303691Y-103489000D01*
X142467144Y-103489000D01*
X142467144Y-103568250D01*
X142625894Y-103727000D01*
X143975144Y-103727000D01*
X143975144Y-103707000D01*
X144229144Y-103707000D01*
X144229144Y-103727000D01*
X145578394Y-103727000D01*
X145737144Y-103568250D01*
X145737144Y-102727690D01*
X145640471Y-102494301D01*
X145461842Y-102315673D01*
X145228453Y-102219000D01*
X145065000Y-102219000D01*
X145065000Y-102139750D01*
X144906250Y-101981000D01*
X143557000Y-101981000D01*
X143557000Y-102001000D01*
X143303000Y-102001000D01*
X143303000Y-101981000D01*
X141953750Y-101981000D01*
X141795000Y-102139750D01*
X140156751Y-102139750D01*
X140157299Y-101511986D01*
X139894933Y-100877011D01*
X139745873Y-100727690D01*
X141795000Y-100727690D01*
X141795000Y-101568250D01*
X141953750Y-101727000D01*
X143303000Y-101727000D01*
X143303000Y-100377750D01*
X143557000Y-100377750D01*
X143557000Y-101727000D01*
X144906250Y-101727000D01*
X145065000Y-101568250D01*
X145065000Y-100727690D01*
X144968327Y-100494301D01*
X144789698Y-100315673D01*
X144556309Y-100219000D01*
X143715750Y-100219000D01*
X143557000Y-100377750D01*
X143303000Y-100377750D01*
X143144250Y-100219000D01*
X142303691Y-100219000D01*
X142070302Y-100315673D01*
X141891673Y-100494301D01*
X141795000Y-100727690D01*
X139745873Y-100727690D01*
X139409544Y-100390774D01*
X139405614Y-100389142D01*
X139484556Y-100199029D01*
X139485155Y-99511986D01*
X139222789Y-98877011D01*
X138737400Y-98390774D01*
X138102885Y-98127300D01*
X137415842Y-98126701D01*
X136780867Y-98389067D01*
X136294630Y-98874456D01*
X136031156Y-99508971D01*
X136030557Y-100196014D01*
X130812511Y-100196014D01*
X130647029Y-100127300D01*
X129959986Y-100126701D01*
X129325011Y-100389067D01*
X128838774Y-100874456D01*
X128575300Y-101508971D01*
X128574701Y-102196014D01*
X126937000Y-102196014D01*
X126937000Y-102139750D01*
X126778250Y-101981000D01*
X125429000Y-101981000D01*
X125175000Y-101981000D01*
X123825750Y-101981000D01*
X123667000Y-102139750D01*
X111200000Y-102139750D01*
X111200000Y-100139750D01*
X122994856Y-100139750D01*
X122994856Y-100980310D01*
X123091529Y-101213699D01*
X123270158Y-101392327D01*
X123503547Y-101489000D01*
X123667000Y-101489000D01*
X123667000Y-101568250D01*
X123825750Y-101727000D01*
X125175000Y-101727000D01*
X125175000Y-101707000D01*
X125429000Y-101707000D01*
X125429000Y-101727000D01*
X126778250Y-101727000D01*
X126937000Y-101568250D01*
X126937000Y-100727690D01*
X126840327Y-100494301D01*
X126661698Y-100315673D01*
X126428309Y-100219000D01*
X126264856Y-100219000D01*
X126264856Y-100139750D01*
X126106106Y-99981000D01*
X124756856Y-99981000D01*
X124756856Y-100001000D01*
X124502856Y-100001000D01*
X124502856Y-99981000D01*
X123153606Y-99981000D01*
X122994856Y-100139750D01*
X111200000Y-100139750D01*
X111200000Y-98727690D01*
X122994856Y-98727690D01*
X122994856Y-99568250D01*
X123153606Y-99727000D01*
X124502856Y-99727000D01*
X124502856Y-98377750D01*
X124756856Y-98377750D01*
X124756856Y-99727000D01*
X126106106Y-99727000D01*
X126264856Y-99568250D01*
X126264856Y-98727690D01*
X126168183Y-98494301D01*
X125989554Y-98315673D01*
X125756165Y-98219000D01*
X124915606Y-98219000D01*
X124756856Y-98377750D01*
X124502856Y-98377750D01*
X124344106Y-98219000D01*
X123503547Y-98219000D01*
X123270158Y-98315673D01*
X123091529Y-98494301D01*
X122994856Y-98727690D01*
X111200000Y-98727690D01*
X111200000Y-85668248D01*
X126997000Y-85668248D01*
X126997000Y-86543752D01*
X127113236Y-87128110D01*
X127444248Y-87623504D01*
X127939642Y-87954516D01*
X128524000Y-88070752D01*
X129108358Y-87954516D01*
X129603752Y-87623504D01*
X129794000Y-87338778D01*
X129984248Y-87623504D01*
X130479642Y-87954516D01*
X131064000Y-88070752D01*
X131648358Y-87954516D01*
X132143752Y-87623504D01*
X132334000Y-87338778D01*
X132524248Y-87623504D01*
X133019642Y-87954516D01*
X133604000Y-88070752D01*
X134188358Y-87954516D01*
X134683752Y-87623504D01*
X134874000Y-87338778D01*
X135064248Y-87623504D01*
X135559642Y-87954516D01*
X136144000Y-88070752D01*
X136728358Y-87954516D01*
X137223752Y-87623504D01*
X137484679Y-87233000D01*
X141594144Y-87233000D01*
X141913952Y-87169386D01*
X143272000Y-87169386D01*
X143541410Y-87118693D01*
X143788846Y-86959472D01*
X143954843Y-86716529D01*
X143999249Y-86497242D01*
X145272000Y-86497242D01*
X145541410Y-86446549D01*
X145788846Y-86287328D01*
X145954843Y-86044385D01*
X145987524Y-85883000D01*
X151467891Y-85883000D01*
X151900864Y-86062786D01*
X152388995Y-86063212D01*
X152840131Y-85876806D01*
X153185593Y-85531947D01*
X153372786Y-85081136D01*
X153373212Y-84593005D01*
X153186806Y-84141869D01*
X152841947Y-83796407D01*
X152391136Y-83609214D01*
X151903005Y-83608788D01*
X151854088Y-83629000D01*
X145989345Y-83629000D01*
X145962549Y-83486590D01*
X145803328Y-83239154D01*
X145560385Y-83073157D01*
X145272000Y-83014758D01*
X143272000Y-83014758D01*
X143002590Y-83065451D01*
X142755154Y-83224672D01*
X142589157Y-83467615D01*
X142544751Y-83686902D01*
X141272000Y-83686902D01*
X141002590Y-83737595D01*
X140755154Y-83896816D01*
X140589157Y-84139759D01*
X140530758Y-84428144D01*
X140530758Y-84979000D01*
X137484679Y-84979000D01*
X137223752Y-84588496D01*
X136728358Y-84257484D01*
X136144000Y-84141248D01*
X135559642Y-84257484D01*
X135064248Y-84588496D01*
X134874000Y-84873222D01*
X134683752Y-84588496D01*
X134188358Y-84257484D01*
X133604000Y-84141248D01*
X133019642Y-84257484D01*
X132524248Y-84588496D01*
X132334000Y-84873222D01*
X132143752Y-84588496D01*
X131648358Y-84257484D01*
X131064000Y-84141248D01*
X130479642Y-84257484D01*
X129984248Y-84588496D01*
X129794000Y-84873222D01*
X129603752Y-84588496D01*
X129108358Y-84257484D01*
X128524000Y-84141248D01*
X127939642Y-84257484D01*
X127444248Y-84588496D01*
X127113236Y-85083890D01*
X126997000Y-85668248D01*
X111200000Y-85668248D01*
X111200000Y-80908532D01*
X143299073Y-80908532D01*
X143397736Y-81175387D01*
X144007461Y-81401908D01*
X144657460Y-81377856D01*
X145146264Y-81175387D01*
X145244927Y-80908532D01*
X144272000Y-79935605D01*
X143299073Y-80908532D01*
X111200000Y-80908532D01*
X111200000Y-78048248D01*
X126997000Y-78048248D01*
X126997000Y-78923752D01*
X127113236Y-79508110D01*
X127444248Y-80003504D01*
X127939642Y-80334516D01*
X128524000Y-80450752D01*
X129108358Y-80334516D01*
X129603752Y-80003504D01*
X129851439Y-79632814D01*
X130139104Y-79990500D01*
X130632181Y-80260367D01*
X130714961Y-80277904D01*
X130937000Y-80155915D01*
X130937000Y-78613000D01*
X130917000Y-78613000D01*
X130917000Y-78359000D01*
X130937000Y-78359000D01*
X130937000Y-76816085D01*
X131191000Y-76816085D01*
X131191000Y-78359000D01*
X131211000Y-78359000D01*
X131211000Y-78613000D01*
X131191000Y-78613000D01*
X131191000Y-80155915D01*
X131413039Y-80277904D01*
X131495819Y-80260367D01*
X131988896Y-79990500D01*
X132276561Y-79632814D01*
X132524248Y-80003504D01*
X133019642Y-80334516D01*
X133604000Y-80450752D01*
X134188358Y-80334516D01*
X134683752Y-80003504D01*
X134684081Y-80003011D01*
X134812672Y-80202846D01*
X135055615Y-80368843D01*
X135344000Y-80427242D01*
X136944000Y-80427242D01*
X137213410Y-80376549D01*
X137460846Y-80217328D01*
X137626843Y-79974385D01*
X137685242Y-79686000D01*
X137685242Y-79491461D01*
X142626092Y-79491461D01*
X142650144Y-80141460D01*
X142852613Y-80630264D01*
X143119468Y-80728927D01*
X144092395Y-79756000D01*
X143119468Y-78783073D01*
X142852613Y-78881736D01*
X142626092Y-79491461D01*
X137685242Y-79491461D01*
X137685242Y-78603468D01*
X143299073Y-78603468D01*
X144272000Y-79576395D01*
X144286143Y-79562253D01*
X144465748Y-79741858D01*
X144451605Y-79756000D01*
X145424532Y-80728927D01*
X145691387Y-80630264D01*
X145697239Y-80614512D01*
X146007461Y-80729764D01*
X146657460Y-80705712D01*
X147146264Y-80503243D01*
X147244927Y-80236388D01*
X146272000Y-79263461D01*
X146257858Y-79277604D01*
X146078253Y-79097999D01*
X146092395Y-79083856D01*
X146451605Y-79083856D01*
X147424532Y-80056783D01*
X147691387Y-79958120D01*
X147917908Y-79348395D01*
X147893856Y-78698396D01*
X147691387Y-78209592D01*
X147424532Y-78110929D01*
X146451605Y-79083856D01*
X146092395Y-79083856D01*
X145119468Y-78110929D01*
X144852613Y-78209592D01*
X144846761Y-78225344D01*
X144536539Y-78110092D01*
X143886540Y-78134144D01*
X143397736Y-78336613D01*
X143299073Y-78603468D01*
X137685242Y-78603468D01*
X137685242Y-77931324D01*
X145299073Y-77931324D01*
X146272000Y-78904251D01*
X147244927Y-77931324D01*
X147146264Y-77664469D01*
X146536539Y-77437948D01*
X145886540Y-77462000D01*
X145397736Y-77664469D01*
X145299073Y-77931324D01*
X137685242Y-77931324D01*
X137685242Y-77286000D01*
X137634549Y-77016590D01*
X137475328Y-76769154D01*
X137232385Y-76603157D01*
X136944000Y-76544758D01*
X135344000Y-76544758D01*
X135074590Y-76595451D01*
X134827154Y-76754672D01*
X134731000Y-76895397D01*
X134731000Y-71586818D01*
X135073053Y-71244765D01*
X135317356Y-70879140D01*
X135403144Y-70447856D01*
X135403144Y-70011345D01*
X135545554Y-69984549D01*
X135792990Y-69825328D01*
X135958987Y-69582385D01*
X136017386Y-69294000D01*
X136017386Y-67294000D01*
X135966693Y-67024590D01*
X135807472Y-66777154D01*
X135564529Y-66611157D01*
X135345242Y-66566751D01*
X135345242Y-65294000D01*
X135294549Y-65024590D01*
X135135328Y-64777154D01*
X134892385Y-64611157D01*
X134604000Y-64552758D01*
X132604000Y-64552758D01*
X132334590Y-64603451D01*
X132087154Y-64762672D01*
X131921157Y-65005615D01*
X131862758Y-65294000D01*
X131862758Y-67294000D01*
X131913451Y-67563410D01*
X132072672Y-67810846D01*
X132315615Y-67976843D01*
X132534902Y-68021249D01*
X132534902Y-69294000D01*
X132585595Y-69563410D01*
X132744816Y-69810846D01*
X132987759Y-69976843D01*
X133125455Y-70004727D01*
X132807091Y-70323091D01*
X132562788Y-70688716D01*
X132477000Y-71120000D01*
X132477000Y-77039208D01*
X132276561Y-77339186D01*
X131988896Y-76981500D01*
X131495819Y-76711633D01*
X131413039Y-76694096D01*
X131191000Y-76816085D01*
X130937000Y-76816085D01*
X130714961Y-76694096D01*
X130632181Y-76711633D01*
X130139104Y-76981500D01*
X129851439Y-77339186D01*
X129603752Y-76968496D01*
X129108358Y-76637484D01*
X128524000Y-76521248D01*
X127939642Y-76637484D01*
X127444248Y-76968496D01*
X127113236Y-77463890D01*
X126997000Y-78048248D01*
X111200000Y-78048248D01*
X111200000Y-64636014D01*
X126204557Y-64636014D01*
X126466923Y-65270989D01*
X126952312Y-65757226D01*
X126956242Y-65758858D01*
X126877300Y-65948971D01*
X126876701Y-66636014D01*
X127139067Y-67270989D01*
X127624456Y-67757226D01*
X128258971Y-68020700D01*
X128946014Y-68021299D01*
X129580989Y-67758933D01*
X130067226Y-67273544D01*
X130330700Y-66639029D01*
X130331299Y-65951986D01*
X130068933Y-65317011D01*
X129583544Y-64830774D01*
X129579614Y-64829142D01*
X129658556Y-64639029D01*
X129659155Y-63951986D01*
X129396789Y-63317011D01*
X128911400Y-62830774D01*
X128276885Y-62567300D01*
X127589842Y-62566701D01*
X126954867Y-62829067D01*
X126468630Y-63314456D01*
X126205156Y-63948971D01*
X126204557Y-64636014D01*
X111200000Y-64636014D01*
X111200000Y-45847000D01*
X236780000Y-45847000D01*
X236780000Y-145923000D01*
M02*
