M48
;DRILL file {KiCad 4.0.7-e2-6376~58~ubuntu16.04.1} date Mon Nov 13 16:04:27 2017
;FORMAT={-:-/ absolute / inch / decimal}
FMAT,2
INCH,TZ
T1C0.039
T2C0.051
T3C0.053
%
G90
G05
M72
T1
X3.4997Y-2.6207
X3.54Y-2.035
X3.5997Y-2.6207
X3.5997Y-3.9207
X3.64Y-2.035
X3.6997Y-2.6207
X3.6997Y-3.9207
X3.74Y-2.035
X3.7997Y-2.6207
X3.7997Y-3.9207
X3.84Y-2.035
X3.8997Y-2.6207
X3.8997Y-3.9207
X3.94Y-2.035
X4.3997Y-2.6207
X4.4997Y-2.6207
X4.4997Y-3.9207
X4.5997Y-2.6207
X4.5997Y-3.9207
X4.6997Y-2.6207
X4.6997Y-3.9207
X4.7997Y-2.6207
X4.7997Y-3.9207
X5.2997Y-2.6207
X5.3997Y-2.6207
X5.3997Y-3.9207
X5.4997Y-2.6207
X5.4997Y-3.9207
X5.5997Y-2.6207
X5.5997Y-3.9207
X5.6997Y-2.6207
X5.6997Y-3.9207
T2
X3.8228Y-4.4457
X4.0197Y-4.4457
X4.2728Y-4.4457
X4.4697Y-4.4457
X4.7278Y-4.4457
X4.9247Y-4.4457
X5.1747Y-4.4457
X5.3715Y-4.4457
X5.6278Y-4.4457
X5.8247Y-4.4457
X6.525Y-2.175
X6.615Y-4.446
X6.7219Y-2.175
X6.8119Y-4.446
X7.507Y-4.1271
X7.507Y-4.324
X7.5075Y-3.7031
X7.5075Y-3.9
T3
X7.5Y-2.1
X7.5Y-2.4
X7.5Y-3.147
X7.5Y-3.447
T0
M30
