G04 #@! TF.FileFunction,Copper,L1,Top,Signal*
%FSLAX46Y46*%
G04 Gerber Fmt 4.6, Leading zero omitted, Abs format (unit mm)*
G04 Created by KiCad (PCBNEW 4.0.6) date 05/04/17 09:27:54*
%MOMM*%
%LPD*%
G01*
G04 APERTURE LIST*
%ADD10C,0.100000*%
%ADD11O,1.700000X1.700000*%
%ADD12R,1.700000X1.700000*%
%ADD13R,2.500000X2.500000*%
%ADD14C,2.500000*%
%ADD15C,2.350000*%
G04 APERTURE END LIST*
D10*
D11*
X183380260Y-89756550D03*
X180840260Y-89756550D03*
X178300260Y-89756550D03*
X175760260Y-89756550D03*
D12*
X100076000Y-51689000D03*
D11*
X97536000Y-51689000D03*
X94996000Y-51689000D03*
X92456000Y-51689000D03*
X89916000Y-51689000D03*
X160012260Y-66566350D03*
X162552260Y-66566350D03*
X165092260Y-66566350D03*
X167632260Y-66566350D03*
X157472260Y-66566350D03*
X160012260Y-99586350D03*
X162552260Y-99586350D03*
X165092260Y-99586350D03*
X167632260Y-99586350D03*
X137152260Y-66566350D03*
X139692260Y-66566350D03*
X142232260Y-66566350D03*
X144772260Y-66566350D03*
X134612260Y-66566350D03*
X137152260Y-99586350D03*
X139692260Y-99586350D03*
X142232260Y-99586350D03*
X144772260Y-99586350D03*
X114292260Y-66566350D03*
X116832260Y-66566350D03*
X119372260Y-66566350D03*
X121912260Y-66566350D03*
X111752260Y-66566350D03*
X114292260Y-99586350D03*
X116832260Y-99586350D03*
X119372260Y-99586350D03*
X121912260Y-99586350D03*
X91432260Y-66566350D03*
X93972260Y-66566350D03*
X96512260Y-66566350D03*
X99052260Y-66566350D03*
X88892260Y-66566350D03*
X91432260Y-99586350D03*
X93972260Y-99586350D03*
X96512260Y-99586350D03*
X99052260Y-99586350D03*
D13*
X170735000Y-55245000D03*
D14*
X165735000Y-55245000D03*
D13*
X187532000Y-112921350D03*
D14*
X192532000Y-112921350D03*
D13*
X154250260Y-112921350D03*
D14*
X159250260Y-112921350D03*
D13*
X142947260Y-112921350D03*
D14*
X147947260Y-112921350D03*
D13*
X120087260Y-112921350D03*
D14*
X125087260Y-112921350D03*
D13*
X97100260Y-112921350D03*
D14*
X102100260Y-112921350D03*
D13*
X165680260Y-112921350D03*
D14*
X170680260Y-112921350D03*
D13*
X131437260Y-112921350D03*
D14*
X136437260Y-112921350D03*
D13*
X108530260Y-112921350D03*
D14*
X113530260Y-112921350D03*
D13*
X190690500Y-99060000D03*
D14*
X190690500Y-94060000D03*
D15*
X190500000Y-60960000D03*
X190500000Y-53340000D03*
X190500000Y-79933800D03*
X190500000Y-87553800D03*
M02*
