G04 #@! TF.FileFunction,Copper,L1,Top,Signal*
%FSLAX46Y46*%
G04 Gerber Fmt 4.6, Leading zero omitted, Abs format (unit mm)*
G04 Created by KiCad (PCBNEW 4.0.6) date 04/25/17 17:02:37*
%MOMM*%
%LPD*%
G01*
G04 APERTURE LIST*
%ADD10C,0.100000*%
%ADD11R,1.700000X1.700000*%
%ADD12O,1.700000X1.700000*%
%ADD13C,2.350000*%
%ADD14R,2.500000X2.500000*%
%ADD15C,2.500000*%
%ADD16C,0.254000*%
G04 APERTURE END LIST*
D10*
D11*
X186682260Y-57041350D03*
D12*
X186682260Y-54501350D03*
D13*
X180332260Y-68471350D03*
X180332260Y-63391350D03*
X180332260Y-78711350D03*
X180332260Y-83791350D03*
X177792260Y-65931350D03*
X182872260Y-65931350D03*
X177792260Y-81251350D03*
X182872260Y-81251350D03*
D12*
X183380260Y-89756550D03*
X180840260Y-89756550D03*
X178300260Y-89756550D03*
X175760260Y-89756550D03*
D11*
X95242260Y-55136350D03*
D12*
X92702260Y-55136350D03*
X90162260Y-55136350D03*
X87622260Y-55136350D03*
X85082260Y-55136350D03*
X160012260Y-66566350D03*
X162552260Y-66566350D03*
X165092260Y-66566350D03*
X167632260Y-66566350D03*
X157472260Y-66566350D03*
X160012260Y-99586350D03*
X162552260Y-99586350D03*
X165092260Y-99586350D03*
X167632260Y-99586350D03*
X137152260Y-66566350D03*
X139692260Y-66566350D03*
X142232260Y-66566350D03*
X144772260Y-66566350D03*
X134612260Y-66566350D03*
X137152260Y-99586350D03*
X139692260Y-99586350D03*
X142232260Y-99586350D03*
X144772260Y-99586350D03*
X114292260Y-66566350D03*
X116832260Y-66566350D03*
X119372260Y-66566350D03*
X121912260Y-66566350D03*
X111752260Y-66566350D03*
X114292260Y-99586350D03*
X116832260Y-99586350D03*
X119372260Y-99586350D03*
X121912260Y-99586350D03*
X91432260Y-66566350D03*
X93972260Y-66566350D03*
X96512260Y-66566350D03*
X99052260Y-66566350D03*
X88892260Y-66566350D03*
X91432260Y-99586350D03*
X93972260Y-99586350D03*
X96512260Y-99586350D03*
X99052260Y-99586350D03*
D14*
X181602260Y-55771350D03*
D15*
X176602260Y-55771350D03*
D14*
X183714260Y-112921350D03*
D15*
X188714260Y-112921350D03*
D14*
X154250260Y-112921350D03*
D15*
X159250260Y-112921350D03*
D14*
X142947260Y-112921350D03*
D15*
X147947260Y-112921350D03*
D14*
X120087260Y-112921350D03*
D15*
X125087260Y-112921350D03*
D14*
X97100260Y-112921350D03*
D15*
X102100260Y-112921350D03*
D14*
X165680260Y-112921350D03*
D15*
X170680260Y-112921350D03*
D14*
X131437260Y-112921350D03*
D15*
X136437260Y-112921350D03*
D14*
X108530260Y-112921350D03*
D15*
X113530260Y-112921350D03*
D14*
X85924260Y-112921350D03*
D15*
X90924260Y-112921350D03*
D16*
G36*
X191052260Y-117291350D02*
X83252260Y-117291350D01*
X83252260Y-111671350D01*
X84026820Y-111671350D01*
X84026820Y-114171350D01*
X84071098Y-114406667D01*
X84210170Y-114622791D01*
X84422370Y-114767781D01*
X84674260Y-114818790D01*
X87174260Y-114818790D01*
X87409577Y-114774512D01*
X87625701Y-114635440D01*
X87770691Y-114423240D01*
X87804827Y-114254670D01*
X89770545Y-114254670D01*
X89899793Y-114547473D01*
X90600066Y-114815738D01*
X91349695Y-114795600D01*
X91948727Y-114547473D01*
X92077975Y-114254670D01*
X90924260Y-113100955D01*
X89770545Y-114254670D01*
X87804827Y-114254670D01*
X87821700Y-114171350D01*
X87821700Y-112597156D01*
X89029872Y-112597156D01*
X89050010Y-113346785D01*
X89298137Y-113945817D01*
X89590940Y-114075065D01*
X90744655Y-112921350D01*
X91103865Y-112921350D01*
X92257580Y-114075065D01*
X92550383Y-113945817D01*
X92818648Y-113245544D01*
X92798510Y-112495915D01*
X92550383Y-111896883D01*
X92257580Y-111767635D01*
X91103865Y-112921350D01*
X90744655Y-112921350D01*
X89590940Y-111767635D01*
X89298137Y-111896883D01*
X89029872Y-112597156D01*
X87821700Y-112597156D01*
X87821700Y-111671350D01*
X87806023Y-111588030D01*
X89770545Y-111588030D01*
X90924260Y-112741745D01*
X91994655Y-111671350D01*
X95202820Y-111671350D01*
X95202820Y-114171350D01*
X95247098Y-114406667D01*
X95386170Y-114622791D01*
X95598370Y-114767781D01*
X95850260Y-114818790D01*
X98350260Y-114818790D01*
X98585577Y-114774512D01*
X98801701Y-114635440D01*
X98946691Y-114423240D01*
X98980827Y-114254670D01*
X100946545Y-114254670D01*
X101075793Y-114547473D01*
X101776066Y-114815738D01*
X102525695Y-114795600D01*
X103124727Y-114547473D01*
X103253975Y-114254670D01*
X102100260Y-113100955D01*
X100946545Y-114254670D01*
X98980827Y-114254670D01*
X98997700Y-114171350D01*
X98997700Y-112597156D01*
X100205872Y-112597156D01*
X100226010Y-113346785D01*
X100474137Y-113945817D01*
X100766940Y-114075065D01*
X101920655Y-112921350D01*
X102279865Y-112921350D01*
X103433580Y-114075065D01*
X103726383Y-113945817D01*
X103994648Y-113245544D01*
X103974510Y-112495915D01*
X103726383Y-111896883D01*
X103433580Y-111767635D01*
X102279865Y-112921350D01*
X101920655Y-112921350D01*
X100766940Y-111767635D01*
X100474137Y-111896883D01*
X100205872Y-112597156D01*
X98997700Y-112597156D01*
X98997700Y-111671350D01*
X98982023Y-111588030D01*
X100946545Y-111588030D01*
X102100260Y-112741745D01*
X103170655Y-111671350D01*
X106632820Y-111671350D01*
X106632820Y-114171350D01*
X106677098Y-114406667D01*
X106816170Y-114622791D01*
X107028370Y-114767781D01*
X107280260Y-114818790D01*
X109780260Y-114818790D01*
X110015577Y-114774512D01*
X110231701Y-114635440D01*
X110376691Y-114423240D01*
X110410827Y-114254670D01*
X112376545Y-114254670D01*
X112505793Y-114547473D01*
X113206066Y-114815738D01*
X113955695Y-114795600D01*
X114554727Y-114547473D01*
X114683975Y-114254670D01*
X113530260Y-113100955D01*
X112376545Y-114254670D01*
X110410827Y-114254670D01*
X110427700Y-114171350D01*
X110427700Y-112597156D01*
X111635872Y-112597156D01*
X111656010Y-113346785D01*
X111904137Y-113945817D01*
X112196940Y-114075065D01*
X113350655Y-112921350D01*
X113709865Y-112921350D01*
X114863580Y-114075065D01*
X115156383Y-113945817D01*
X115424648Y-113245544D01*
X115404510Y-112495915D01*
X115156383Y-111896883D01*
X114863580Y-111767635D01*
X113709865Y-112921350D01*
X113350655Y-112921350D01*
X112196940Y-111767635D01*
X111904137Y-111896883D01*
X111635872Y-112597156D01*
X110427700Y-112597156D01*
X110427700Y-111671350D01*
X110412023Y-111588030D01*
X112376545Y-111588030D01*
X113530260Y-112741745D01*
X114600655Y-111671350D01*
X118189820Y-111671350D01*
X118189820Y-114171350D01*
X118234098Y-114406667D01*
X118373170Y-114622791D01*
X118585370Y-114767781D01*
X118837260Y-114818790D01*
X121337260Y-114818790D01*
X121572577Y-114774512D01*
X121788701Y-114635440D01*
X121933691Y-114423240D01*
X121967827Y-114254670D01*
X123933545Y-114254670D01*
X124062793Y-114547473D01*
X124763066Y-114815738D01*
X125512695Y-114795600D01*
X126111727Y-114547473D01*
X126240975Y-114254670D01*
X125087260Y-113100955D01*
X123933545Y-114254670D01*
X121967827Y-114254670D01*
X121984700Y-114171350D01*
X121984700Y-112597156D01*
X123192872Y-112597156D01*
X123213010Y-113346785D01*
X123461137Y-113945817D01*
X123753940Y-114075065D01*
X124907655Y-112921350D01*
X125266865Y-112921350D01*
X126420580Y-114075065D01*
X126713383Y-113945817D01*
X126981648Y-113245544D01*
X126961510Y-112495915D01*
X126713383Y-111896883D01*
X126420580Y-111767635D01*
X125266865Y-112921350D01*
X124907655Y-112921350D01*
X123753940Y-111767635D01*
X123461137Y-111896883D01*
X123192872Y-112597156D01*
X121984700Y-112597156D01*
X121984700Y-111671350D01*
X121969023Y-111588030D01*
X123933545Y-111588030D01*
X125087260Y-112741745D01*
X126157655Y-111671350D01*
X129539820Y-111671350D01*
X129539820Y-114171350D01*
X129584098Y-114406667D01*
X129723170Y-114622791D01*
X129935370Y-114767781D01*
X130187260Y-114818790D01*
X132687260Y-114818790D01*
X132922577Y-114774512D01*
X133138701Y-114635440D01*
X133283691Y-114423240D01*
X133317827Y-114254670D01*
X135283545Y-114254670D01*
X135412793Y-114547473D01*
X136113066Y-114815738D01*
X136862695Y-114795600D01*
X137461727Y-114547473D01*
X137590975Y-114254670D01*
X136437260Y-113100955D01*
X135283545Y-114254670D01*
X133317827Y-114254670D01*
X133334700Y-114171350D01*
X133334700Y-112597156D01*
X134542872Y-112597156D01*
X134563010Y-113346785D01*
X134811137Y-113945817D01*
X135103940Y-114075065D01*
X136257655Y-112921350D01*
X136616865Y-112921350D01*
X137770580Y-114075065D01*
X138063383Y-113945817D01*
X138331648Y-113245544D01*
X138311510Y-112495915D01*
X138063383Y-111896883D01*
X137770580Y-111767635D01*
X136616865Y-112921350D01*
X136257655Y-112921350D01*
X135103940Y-111767635D01*
X134811137Y-111896883D01*
X134542872Y-112597156D01*
X133334700Y-112597156D01*
X133334700Y-111671350D01*
X133319023Y-111588030D01*
X135283545Y-111588030D01*
X136437260Y-112741745D01*
X137507655Y-111671350D01*
X141049820Y-111671350D01*
X141049820Y-114171350D01*
X141094098Y-114406667D01*
X141233170Y-114622791D01*
X141445370Y-114767781D01*
X141697260Y-114818790D01*
X144197260Y-114818790D01*
X144432577Y-114774512D01*
X144648701Y-114635440D01*
X144793691Y-114423240D01*
X144827827Y-114254670D01*
X146793545Y-114254670D01*
X146922793Y-114547473D01*
X147623066Y-114815738D01*
X148372695Y-114795600D01*
X148971727Y-114547473D01*
X149100975Y-114254670D01*
X147947260Y-113100955D01*
X146793545Y-114254670D01*
X144827827Y-114254670D01*
X144844700Y-114171350D01*
X144844700Y-112597156D01*
X146052872Y-112597156D01*
X146073010Y-113346785D01*
X146321137Y-113945817D01*
X146613940Y-114075065D01*
X147767655Y-112921350D01*
X148126865Y-112921350D01*
X149280580Y-114075065D01*
X149573383Y-113945817D01*
X149841648Y-113245544D01*
X149821510Y-112495915D01*
X149573383Y-111896883D01*
X149280580Y-111767635D01*
X148126865Y-112921350D01*
X147767655Y-112921350D01*
X146613940Y-111767635D01*
X146321137Y-111896883D01*
X146052872Y-112597156D01*
X144844700Y-112597156D01*
X144844700Y-111671350D01*
X144829023Y-111588030D01*
X146793545Y-111588030D01*
X147947260Y-112741745D01*
X149017655Y-111671350D01*
X152352820Y-111671350D01*
X152352820Y-114171350D01*
X152397098Y-114406667D01*
X152536170Y-114622791D01*
X152748370Y-114767781D01*
X153000260Y-114818790D01*
X155500260Y-114818790D01*
X155735577Y-114774512D01*
X155951701Y-114635440D01*
X156096691Y-114423240D01*
X156130827Y-114254670D01*
X158096545Y-114254670D01*
X158225793Y-114547473D01*
X158926066Y-114815738D01*
X159675695Y-114795600D01*
X160274727Y-114547473D01*
X160403975Y-114254670D01*
X159250260Y-113100955D01*
X158096545Y-114254670D01*
X156130827Y-114254670D01*
X156147700Y-114171350D01*
X156147700Y-112597156D01*
X157355872Y-112597156D01*
X157376010Y-113346785D01*
X157624137Y-113945817D01*
X157916940Y-114075065D01*
X159070655Y-112921350D01*
X159429865Y-112921350D01*
X160583580Y-114075065D01*
X160876383Y-113945817D01*
X161144648Y-113245544D01*
X161124510Y-112495915D01*
X160876383Y-111896883D01*
X160583580Y-111767635D01*
X159429865Y-112921350D01*
X159070655Y-112921350D01*
X157916940Y-111767635D01*
X157624137Y-111896883D01*
X157355872Y-112597156D01*
X156147700Y-112597156D01*
X156147700Y-111671350D01*
X156132023Y-111588030D01*
X158096545Y-111588030D01*
X159250260Y-112741745D01*
X160320655Y-111671350D01*
X163782820Y-111671350D01*
X163782820Y-114171350D01*
X163827098Y-114406667D01*
X163966170Y-114622791D01*
X164178370Y-114767781D01*
X164430260Y-114818790D01*
X166930260Y-114818790D01*
X167165577Y-114774512D01*
X167381701Y-114635440D01*
X167526691Y-114423240D01*
X167560827Y-114254670D01*
X169526545Y-114254670D01*
X169655793Y-114547473D01*
X170356066Y-114815738D01*
X171105695Y-114795600D01*
X171704727Y-114547473D01*
X171833975Y-114254670D01*
X170680260Y-113100955D01*
X169526545Y-114254670D01*
X167560827Y-114254670D01*
X167577700Y-114171350D01*
X167577700Y-112597156D01*
X168785872Y-112597156D01*
X168806010Y-113346785D01*
X169054137Y-113945817D01*
X169346940Y-114075065D01*
X170500655Y-112921350D01*
X170859865Y-112921350D01*
X172013580Y-114075065D01*
X172306383Y-113945817D01*
X172574648Y-113245544D01*
X172554510Y-112495915D01*
X172306383Y-111896883D01*
X172013580Y-111767635D01*
X170859865Y-112921350D01*
X170500655Y-112921350D01*
X169346940Y-111767635D01*
X169054137Y-111896883D01*
X168785872Y-112597156D01*
X167577700Y-112597156D01*
X167577700Y-111671350D01*
X167562023Y-111588030D01*
X169526545Y-111588030D01*
X170680260Y-112741745D01*
X171750655Y-111671350D01*
X181816820Y-111671350D01*
X181816820Y-114171350D01*
X181861098Y-114406667D01*
X182000170Y-114622791D01*
X182212370Y-114767781D01*
X182464260Y-114818790D01*
X184964260Y-114818790D01*
X185199577Y-114774512D01*
X185415701Y-114635440D01*
X185560691Y-114423240D01*
X185594827Y-114254670D01*
X187560545Y-114254670D01*
X187689793Y-114547473D01*
X188390066Y-114815738D01*
X189139695Y-114795600D01*
X189738727Y-114547473D01*
X189867975Y-114254670D01*
X188714260Y-113100955D01*
X187560545Y-114254670D01*
X185594827Y-114254670D01*
X185611700Y-114171350D01*
X185611700Y-112597156D01*
X186819872Y-112597156D01*
X186840010Y-113346785D01*
X187088137Y-113945817D01*
X187380940Y-114075065D01*
X188534655Y-112921350D01*
X188893865Y-112921350D01*
X190047580Y-114075065D01*
X190340383Y-113945817D01*
X190608648Y-113245544D01*
X190588510Y-112495915D01*
X190340383Y-111896883D01*
X190047580Y-111767635D01*
X188893865Y-112921350D01*
X188534655Y-112921350D01*
X187380940Y-111767635D01*
X187088137Y-111896883D01*
X186819872Y-112597156D01*
X185611700Y-112597156D01*
X185611700Y-111671350D01*
X185596023Y-111588030D01*
X187560545Y-111588030D01*
X188714260Y-112741745D01*
X189867975Y-111588030D01*
X189738727Y-111295227D01*
X189038454Y-111026962D01*
X188288825Y-111047100D01*
X187689793Y-111295227D01*
X187560545Y-111588030D01*
X185596023Y-111588030D01*
X185567422Y-111436033D01*
X185428350Y-111219909D01*
X185216150Y-111074919D01*
X184964260Y-111023910D01*
X182464260Y-111023910D01*
X182228943Y-111068188D01*
X182012819Y-111207260D01*
X181867829Y-111419460D01*
X181816820Y-111671350D01*
X171750655Y-111671350D01*
X171833975Y-111588030D01*
X171704727Y-111295227D01*
X171004454Y-111026962D01*
X170254825Y-111047100D01*
X169655793Y-111295227D01*
X169526545Y-111588030D01*
X167562023Y-111588030D01*
X167533422Y-111436033D01*
X167394350Y-111219909D01*
X167182150Y-111074919D01*
X166930260Y-111023910D01*
X164430260Y-111023910D01*
X164194943Y-111068188D01*
X163978819Y-111207260D01*
X163833829Y-111419460D01*
X163782820Y-111671350D01*
X160320655Y-111671350D01*
X160403975Y-111588030D01*
X160274727Y-111295227D01*
X159574454Y-111026962D01*
X158824825Y-111047100D01*
X158225793Y-111295227D01*
X158096545Y-111588030D01*
X156132023Y-111588030D01*
X156103422Y-111436033D01*
X155964350Y-111219909D01*
X155752150Y-111074919D01*
X155500260Y-111023910D01*
X153000260Y-111023910D01*
X152764943Y-111068188D01*
X152548819Y-111207260D01*
X152403829Y-111419460D01*
X152352820Y-111671350D01*
X149017655Y-111671350D01*
X149100975Y-111588030D01*
X148971727Y-111295227D01*
X148271454Y-111026962D01*
X147521825Y-111047100D01*
X146922793Y-111295227D01*
X146793545Y-111588030D01*
X144829023Y-111588030D01*
X144800422Y-111436033D01*
X144661350Y-111219909D01*
X144449150Y-111074919D01*
X144197260Y-111023910D01*
X141697260Y-111023910D01*
X141461943Y-111068188D01*
X141245819Y-111207260D01*
X141100829Y-111419460D01*
X141049820Y-111671350D01*
X137507655Y-111671350D01*
X137590975Y-111588030D01*
X137461727Y-111295227D01*
X136761454Y-111026962D01*
X136011825Y-111047100D01*
X135412793Y-111295227D01*
X135283545Y-111588030D01*
X133319023Y-111588030D01*
X133290422Y-111436033D01*
X133151350Y-111219909D01*
X132939150Y-111074919D01*
X132687260Y-111023910D01*
X130187260Y-111023910D01*
X129951943Y-111068188D01*
X129735819Y-111207260D01*
X129590829Y-111419460D01*
X129539820Y-111671350D01*
X126157655Y-111671350D01*
X126240975Y-111588030D01*
X126111727Y-111295227D01*
X125411454Y-111026962D01*
X124661825Y-111047100D01*
X124062793Y-111295227D01*
X123933545Y-111588030D01*
X121969023Y-111588030D01*
X121940422Y-111436033D01*
X121801350Y-111219909D01*
X121589150Y-111074919D01*
X121337260Y-111023910D01*
X118837260Y-111023910D01*
X118601943Y-111068188D01*
X118385819Y-111207260D01*
X118240829Y-111419460D01*
X118189820Y-111671350D01*
X114600655Y-111671350D01*
X114683975Y-111588030D01*
X114554727Y-111295227D01*
X113854454Y-111026962D01*
X113104825Y-111047100D01*
X112505793Y-111295227D01*
X112376545Y-111588030D01*
X110412023Y-111588030D01*
X110383422Y-111436033D01*
X110244350Y-111219909D01*
X110032150Y-111074919D01*
X109780260Y-111023910D01*
X107280260Y-111023910D01*
X107044943Y-111068188D01*
X106828819Y-111207260D01*
X106683829Y-111419460D01*
X106632820Y-111671350D01*
X103170655Y-111671350D01*
X103253975Y-111588030D01*
X103124727Y-111295227D01*
X102424454Y-111026962D01*
X101674825Y-111047100D01*
X101075793Y-111295227D01*
X100946545Y-111588030D01*
X98982023Y-111588030D01*
X98953422Y-111436033D01*
X98814350Y-111219909D01*
X98602150Y-111074919D01*
X98350260Y-111023910D01*
X95850260Y-111023910D01*
X95614943Y-111068188D01*
X95398819Y-111207260D01*
X95253829Y-111419460D01*
X95202820Y-111671350D01*
X91994655Y-111671350D01*
X92077975Y-111588030D01*
X91948727Y-111295227D01*
X91248454Y-111026962D01*
X90498825Y-111047100D01*
X89899793Y-111295227D01*
X89770545Y-111588030D01*
X87806023Y-111588030D01*
X87777422Y-111436033D01*
X87638350Y-111219909D01*
X87426150Y-111074919D01*
X87174260Y-111023910D01*
X84674260Y-111023910D01*
X84438943Y-111068188D01*
X84222819Y-111207260D01*
X84077829Y-111419460D01*
X84026820Y-111671350D01*
X83252260Y-111671350D01*
X83252260Y-99557257D01*
X89947260Y-99557257D01*
X89947260Y-99615443D01*
X90060299Y-100183728D01*
X90382206Y-100665497D01*
X90863975Y-100987404D01*
X91432260Y-101100443D01*
X92000545Y-100987404D01*
X92482314Y-100665497D01*
X92702260Y-100336324D01*
X92922206Y-100665497D01*
X93403975Y-100987404D01*
X93972260Y-101100443D01*
X94540545Y-100987404D01*
X95022314Y-100665497D01*
X95249962Y-100324797D01*
X95317077Y-100467708D01*
X95745336Y-100857995D01*
X96155370Y-101027826D01*
X96385260Y-100906505D01*
X96385260Y-99713350D01*
X96639260Y-99713350D01*
X96639260Y-100906505D01*
X96869150Y-101027826D01*
X97279184Y-100857995D01*
X97707443Y-100467708D01*
X97782260Y-100308396D01*
X97857077Y-100467708D01*
X98285336Y-100857995D01*
X98695370Y-101027826D01*
X98925260Y-100906505D01*
X98925260Y-99713350D01*
X99179260Y-99713350D01*
X99179260Y-100906505D01*
X99409150Y-101027826D01*
X99819184Y-100857995D01*
X100247443Y-100467708D01*
X100493746Y-99943242D01*
X100373079Y-99713350D01*
X99179260Y-99713350D01*
X98925260Y-99713350D01*
X96639260Y-99713350D01*
X96385260Y-99713350D01*
X96365260Y-99713350D01*
X96365260Y-99557257D01*
X112807260Y-99557257D01*
X112807260Y-99615443D01*
X112920299Y-100183728D01*
X113242206Y-100665497D01*
X113723975Y-100987404D01*
X114292260Y-101100443D01*
X114860545Y-100987404D01*
X115342314Y-100665497D01*
X115562260Y-100336324D01*
X115782206Y-100665497D01*
X116263975Y-100987404D01*
X116832260Y-101100443D01*
X117400545Y-100987404D01*
X117882314Y-100665497D01*
X118109962Y-100324797D01*
X118177077Y-100467708D01*
X118605336Y-100857995D01*
X119015370Y-101027826D01*
X119245260Y-100906505D01*
X119245260Y-99713350D01*
X119499260Y-99713350D01*
X119499260Y-100906505D01*
X119729150Y-101027826D01*
X120139184Y-100857995D01*
X120567443Y-100467708D01*
X120642260Y-100308396D01*
X120717077Y-100467708D01*
X121145336Y-100857995D01*
X121555370Y-101027826D01*
X121785260Y-100906505D01*
X121785260Y-99713350D01*
X122039260Y-99713350D01*
X122039260Y-100906505D01*
X122269150Y-101027826D01*
X122679184Y-100857995D01*
X123107443Y-100467708D01*
X123353746Y-99943242D01*
X123233079Y-99713350D01*
X122039260Y-99713350D01*
X121785260Y-99713350D01*
X119499260Y-99713350D01*
X119245260Y-99713350D01*
X119225260Y-99713350D01*
X119225260Y-99557257D01*
X135667260Y-99557257D01*
X135667260Y-99615443D01*
X135780299Y-100183728D01*
X136102206Y-100665497D01*
X136583975Y-100987404D01*
X137152260Y-101100443D01*
X137720545Y-100987404D01*
X138202314Y-100665497D01*
X138422260Y-100336324D01*
X138642206Y-100665497D01*
X139123975Y-100987404D01*
X139692260Y-101100443D01*
X140260545Y-100987404D01*
X140742314Y-100665497D01*
X140969962Y-100324797D01*
X141037077Y-100467708D01*
X141465336Y-100857995D01*
X141875370Y-101027826D01*
X142105260Y-100906505D01*
X142105260Y-99713350D01*
X142359260Y-99713350D01*
X142359260Y-100906505D01*
X142589150Y-101027826D01*
X142999184Y-100857995D01*
X143427443Y-100467708D01*
X143502260Y-100308396D01*
X143577077Y-100467708D01*
X144005336Y-100857995D01*
X144415370Y-101027826D01*
X144645260Y-100906505D01*
X144645260Y-99713350D01*
X144899260Y-99713350D01*
X144899260Y-100906505D01*
X145129150Y-101027826D01*
X145539184Y-100857995D01*
X145967443Y-100467708D01*
X146213746Y-99943242D01*
X146093079Y-99713350D01*
X144899260Y-99713350D01*
X144645260Y-99713350D01*
X142359260Y-99713350D01*
X142105260Y-99713350D01*
X142085260Y-99713350D01*
X142085260Y-99557257D01*
X158527260Y-99557257D01*
X158527260Y-99615443D01*
X158640299Y-100183728D01*
X158962206Y-100665497D01*
X159443975Y-100987404D01*
X160012260Y-101100443D01*
X160580545Y-100987404D01*
X161062314Y-100665497D01*
X161282260Y-100336324D01*
X161502206Y-100665497D01*
X161983975Y-100987404D01*
X162552260Y-101100443D01*
X163120545Y-100987404D01*
X163602314Y-100665497D01*
X163829962Y-100324797D01*
X163897077Y-100467708D01*
X164325336Y-100857995D01*
X164735370Y-101027826D01*
X164965260Y-100906505D01*
X164965260Y-99713350D01*
X165219260Y-99713350D01*
X165219260Y-100906505D01*
X165449150Y-101027826D01*
X165859184Y-100857995D01*
X166287443Y-100467708D01*
X166362260Y-100308396D01*
X166437077Y-100467708D01*
X166865336Y-100857995D01*
X167275370Y-101027826D01*
X167505260Y-100906505D01*
X167505260Y-99713350D01*
X167759260Y-99713350D01*
X167759260Y-100906505D01*
X167989150Y-101027826D01*
X168399184Y-100857995D01*
X168827443Y-100467708D01*
X169073746Y-99943242D01*
X168953079Y-99713350D01*
X167759260Y-99713350D01*
X167505260Y-99713350D01*
X165219260Y-99713350D01*
X164965260Y-99713350D01*
X164945260Y-99713350D01*
X164945260Y-99459350D01*
X164965260Y-99459350D01*
X164965260Y-98266195D01*
X165219260Y-98266195D01*
X165219260Y-99459350D01*
X167505260Y-99459350D01*
X167505260Y-98266195D01*
X167759260Y-98266195D01*
X167759260Y-99459350D01*
X168953079Y-99459350D01*
X169073746Y-99229458D01*
X168827443Y-98704992D01*
X168399184Y-98314705D01*
X167989150Y-98144874D01*
X167759260Y-98266195D01*
X167505260Y-98266195D01*
X167275370Y-98144874D01*
X166865336Y-98314705D01*
X166437077Y-98704992D01*
X166362260Y-98864304D01*
X166287443Y-98704992D01*
X165859184Y-98314705D01*
X165449150Y-98144874D01*
X165219260Y-98266195D01*
X164965260Y-98266195D01*
X164735370Y-98144874D01*
X164325336Y-98314705D01*
X163897077Y-98704992D01*
X163829962Y-98847903D01*
X163602314Y-98507203D01*
X163120545Y-98185296D01*
X162552260Y-98072257D01*
X161983975Y-98185296D01*
X161502206Y-98507203D01*
X161282260Y-98836376D01*
X161062314Y-98507203D01*
X160580545Y-98185296D01*
X160012260Y-98072257D01*
X159443975Y-98185296D01*
X158962206Y-98507203D01*
X158640299Y-98988972D01*
X158527260Y-99557257D01*
X142085260Y-99557257D01*
X142085260Y-99459350D01*
X142105260Y-99459350D01*
X142105260Y-98266195D01*
X142359260Y-98266195D01*
X142359260Y-99459350D01*
X144645260Y-99459350D01*
X144645260Y-98266195D01*
X144899260Y-98266195D01*
X144899260Y-99459350D01*
X146093079Y-99459350D01*
X146213746Y-99229458D01*
X145967443Y-98704992D01*
X145539184Y-98314705D01*
X145129150Y-98144874D01*
X144899260Y-98266195D01*
X144645260Y-98266195D01*
X144415370Y-98144874D01*
X144005336Y-98314705D01*
X143577077Y-98704992D01*
X143502260Y-98864304D01*
X143427443Y-98704992D01*
X142999184Y-98314705D01*
X142589150Y-98144874D01*
X142359260Y-98266195D01*
X142105260Y-98266195D01*
X141875370Y-98144874D01*
X141465336Y-98314705D01*
X141037077Y-98704992D01*
X140969962Y-98847903D01*
X140742314Y-98507203D01*
X140260545Y-98185296D01*
X139692260Y-98072257D01*
X139123975Y-98185296D01*
X138642206Y-98507203D01*
X138422260Y-98836376D01*
X138202314Y-98507203D01*
X137720545Y-98185296D01*
X137152260Y-98072257D01*
X136583975Y-98185296D01*
X136102206Y-98507203D01*
X135780299Y-98988972D01*
X135667260Y-99557257D01*
X119225260Y-99557257D01*
X119225260Y-99459350D01*
X119245260Y-99459350D01*
X119245260Y-98266195D01*
X119499260Y-98266195D01*
X119499260Y-99459350D01*
X121785260Y-99459350D01*
X121785260Y-98266195D01*
X122039260Y-98266195D01*
X122039260Y-99459350D01*
X123233079Y-99459350D01*
X123353746Y-99229458D01*
X123107443Y-98704992D01*
X122679184Y-98314705D01*
X122269150Y-98144874D01*
X122039260Y-98266195D01*
X121785260Y-98266195D01*
X121555370Y-98144874D01*
X121145336Y-98314705D01*
X120717077Y-98704992D01*
X120642260Y-98864304D01*
X120567443Y-98704992D01*
X120139184Y-98314705D01*
X119729150Y-98144874D01*
X119499260Y-98266195D01*
X119245260Y-98266195D01*
X119015370Y-98144874D01*
X118605336Y-98314705D01*
X118177077Y-98704992D01*
X118109962Y-98847903D01*
X117882314Y-98507203D01*
X117400545Y-98185296D01*
X116832260Y-98072257D01*
X116263975Y-98185296D01*
X115782206Y-98507203D01*
X115562260Y-98836376D01*
X115342314Y-98507203D01*
X114860545Y-98185296D01*
X114292260Y-98072257D01*
X113723975Y-98185296D01*
X113242206Y-98507203D01*
X112920299Y-98988972D01*
X112807260Y-99557257D01*
X96365260Y-99557257D01*
X96365260Y-99459350D01*
X96385260Y-99459350D01*
X96385260Y-98266195D01*
X96639260Y-98266195D01*
X96639260Y-99459350D01*
X98925260Y-99459350D01*
X98925260Y-98266195D01*
X99179260Y-98266195D01*
X99179260Y-99459350D01*
X100373079Y-99459350D01*
X100493746Y-99229458D01*
X100247443Y-98704992D01*
X99819184Y-98314705D01*
X99409150Y-98144874D01*
X99179260Y-98266195D01*
X98925260Y-98266195D01*
X98695370Y-98144874D01*
X98285336Y-98314705D01*
X97857077Y-98704992D01*
X97782260Y-98864304D01*
X97707443Y-98704992D01*
X97279184Y-98314705D01*
X96869150Y-98144874D01*
X96639260Y-98266195D01*
X96385260Y-98266195D01*
X96155370Y-98144874D01*
X95745336Y-98314705D01*
X95317077Y-98704992D01*
X95249962Y-98847903D01*
X95022314Y-98507203D01*
X94540545Y-98185296D01*
X93972260Y-98072257D01*
X93403975Y-98185296D01*
X92922206Y-98507203D01*
X92702260Y-98836376D01*
X92482314Y-98507203D01*
X92000545Y-98185296D01*
X91432260Y-98072257D01*
X90863975Y-98185296D01*
X90382206Y-98507203D01*
X90060299Y-98988972D01*
X89947260Y-99557257D01*
X83252260Y-99557257D01*
X83252260Y-89756550D01*
X174246167Y-89756550D01*
X174359206Y-90324835D01*
X174681113Y-90806604D01*
X175162882Y-91128511D01*
X175731167Y-91241550D01*
X175789353Y-91241550D01*
X176357638Y-91128511D01*
X176839407Y-90806604D01*
X177030260Y-90520972D01*
X177221113Y-90806604D01*
X177702882Y-91128511D01*
X178271167Y-91241550D01*
X178329353Y-91241550D01*
X178897638Y-91128511D01*
X179379407Y-90806604D01*
X179568605Y-90523449D01*
X179568615Y-90523474D01*
X179958902Y-90951733D01*
X180483368Y-91198036D01*
X180713260Y-91077369D01*
X180713260Y-89883550D01*
X180693260Y-89883550D01*
X180693260Y-89629550D01*
X180713260Y-89629550D01*
X180713260Y-88435731D01*
X180967260Y-88435731D01*
X180967260Y-89629550D01*
X180987260Y-89629550D01*
X180987260Y-89883550D01*
X180967260Y-89883550D01*
X180967260Y-91077369D01*
X181197152Y-91198036D01*
X181721618Y-90951733D01*
X182111905Y-90523474D01*
X182111915Y-90523449D01*
X182301113Y-90806604D01*
X182782882Y-91128511D01*
X183351167Y-91241550D01*
X183409353Y-91241550D01*
X183977638Y-91128511D01*
X184459407Y-90806604D01*
X184781314Y-90324835D01*
X184894353Y-89756550D01*
X184781314Y-89188265D01*
X184459407Y-88706496D01*
X183977638Y-88384589D01*
X183409353Y-88271550D01*
X183351167Y-88271550D01*
X182782882Y-88384589D01*
X182301113Y-88706496D01*
X182111915Y-88989651D01*
X182111905Y-88989626D01*
X181721618Y-88561367D01*
X181197152Y-88315064D01*
X180967260Y-88435731D01*
X180713260Y-88435731D01*
X180483368Y-88315064D01*
X179958902Y-88561367D01*
X179568615Y-88989626D01*
X179568605Y-88989651D01*
X179379407Y-88706496D01*
X178897638Y-88384589D01*
X178329353Y-88271550D01*
X178271167Y-88271550D01*
X177702882Y-88384589D01*
X177221113Y-88706496D01*
X177030260Y-88992128D01*
X176839407Y-88706496D01*
X176357638Y-88384589D01*
X175789353Y-88271550D01*
X175731167Y-88271550D01*
X175162882Y-88384589D01*
X174681113Y-88706496D01*
X174359206Y-89188265D01*
X174246167Y-89756550D01*
X83252260Y-89756550D01*
X83252260Y-81609802D01*
X175981946Y-81609802D01*
X176256922Y-82275293D01*
X176765639Y-82784899D01*
X177430649Y-83061035D01*
X178150712Y-83061664D01*
X178784082Y-82799960D01*
X178522575Y-83429739D01*
X178521946Y-84149802D01*
X178796922Y-84815293D01*
X179305639Y-85324899D01*
X179970649Y-85601035D01*
X180690712Y-85601664D01*
X181356203Y-85326688D01*
X181865809Y-84817971D01*
X182141945Y-84152961D01*
X182142574Y-83432898D01*
X181880870Y-82799528D01*
X182510649Y-83061035D01*
X183230712Y-83061664D01*
X183896203Y-82786688D01*
X184405809Y-82277971D01*
X184681945Y-81612961D01*
X184682574Y-80892898D01*
X184407598Y-80227407D01*
X183898881Y-79717801D01*
X183233871Y-79441665D01*
X182513808Y-79441036D01*
X181880438Y-79702740D01*
X182141945Y-79072961D01*
X182142574Y-78352898D01*
X181867598Y-77687407D01*
X181358881Y-77177801D01*
X180693871Y-76901665D01*
X179973808Y-76901036D01*
X179308317Y-77176012D01*
X178798711Y-77684729D01*
X178522575Y-78349739D01*
X178521946Y-79069802D01*
X178783650Y-79703172D01*
X178153871Y-79441665D01*
X177433808Y-79441036D01*
X176768317Y-79716012D01*
X176258711Y-80224729D01*
X175982575Y-80889739D01*
X175981946Y-81609802D01*
X83252260Y-81609802D01*
X83252260Y-66537257D01*
X87407260Y-66537257D01*
X87407260Y-66595443D01*
X87520299Y-67163728D01*
X87842206Y-67645497D01*
X88323975Y-67967404D01*
X88892260Y-68080443D01*
X89460545Y-67967404D01*
X89942314Y-67645497D01*
X90162260Y-67316324D01*
X90382206Y-67645497D01*
X90863975Y-67967404D01*
X91432260Y-68080443D01*
X92000545Y-67967404D01*
X92482314Y-67645497D01*
X92702260Y-67316324D01*
X92922206Y-67645497D01*
X93403975Y-67967404D01*
X93972260Y-68080443D01*
X94540545Y-67967404D01*
X95022314Y-67645497D01*
X95249962Y-67304797D01*
X95317077Y-67447708D01*
X95745336Y-67837995D01*
X96155370Y-68007826D01*
X96385260Y-67886505D01*
X96385260Y-66693350D01*
X96639260Y-66693350D01*
X96639260Y-67886505D01*
X96869150Y-68007826D01*
X97279184Y-67837995D01*
X97707443Y-67447708D01*
X97782260Y-67288396D01*
X97857077Y-67447708D01*
X98285336Y-67837995D01*
X98695370Y-68007826D01*
X98925260Y-67886505D01*
X98925260Y-66693350D01*
X99179260Y-66693350D01*
X99179260Y-67886505D01*
X99409150Y-68007826D01*
X99819184Y-67837995D01*
X100247443Y-67447708D01*
X100493746Y-66923242D01*
X100373079Y-66693350D01*
X99179260Y-66693350D01*
X98925260Y-66693350D01*
X96639260Y-66693350D01*
X96385260Y-66693350D01*
X96365260Y-66693350D01*
X96365260Y-66537257D01*
X110267260Y-66537257D01*
X110267260Y-66595443D01*
X110380299Y-67163728D01*
X110702206Y-67645497D01*
X111183975Y-67967404D01*
X111752260Y-68080443D01*
X112320545Y-67967404D01*
X112802314Y-67645497D01*
X113022260Y-67316324D01*
X113242206Y-67645497D01*
X113723975Y-67967404D01*
X114292260Y-68080443D01*
X114860545Y-67967404D01*
X115342314Y-67645497D01*
X115562260Y-67316324D01*
X115782206Y-67645497D01*
X116263975Y-67967404D01*
X116832260Y-68080443D01*
X117400545Y-67967404D01*
X117882314Y-67645497D01*
X118109962Y-67304797D01*
X118177077Y-67447708D01*
X118605336Y-67837995D01*
X119015370Y-68007826D01*
X119245260Y-67886505D01*
X119245260Y-66693350D01*
X119499260Y-66693350D01*
X119499260Y-67886505D01*
X119729150Y-68007826D01*
X120139184Y-67837995D01*
X120567443Y-67447708D01*
X120642260Y-67288396D01*
X120717077Y-67447708D01*
X121145336Y-67837995D01*
X121555370Y-68007826D01*
X121785260Y-67886505D01*
X121785260Y-66693350D01*
X122039260Y-66693350D01*
X122039260Y-67886505D01*
X122269150Y-68007826D01*
X122679184Y-67837995D01*
X123107443Y-67447708D01*
X123353746Y-66923242D01*
X123233079Y-66693350D01*
X122039260Y-66693350D01*
X121785260Y-66693350D01*
X119499260Y-66693350D01*
X119245260Y-66693350D01*
X119225260Y-66693350D01*
X119225260Y-66537257D01*
X133127260Y-66537257D01*
X133127260Y-66595443D01*
X133240299Y-67163728D01*
X133562206Y-67645497D01*
X134043975Y-67967404D01*
X134612260Y-68080443D01*
X135180545Y-67967404D01*
X135662314Y-67645497D01*
X135882260Y-67316324D01*
X136102206Y-67645497D01*
X136583975Y-67967404D01*
X137152260Y-68080443D01*
X137720545Y-67967404D01*
X138202314Y-67645497D01*
X138422260Y-67316324D01*
X138642206Y-67645497D01*
X139123975Y-67967404D01*
X139692260Y-68080443D01*
X140260545Y-67967404D01*
X140742314Y-67645497D01*
X140969962Y-67304797D01*
X141037077Y-67447708D01*
X141465336Y-67837995D01*
X141875370Y-68007826D01*
X142105260Y-67886505D01*
X142105260Y-66693350D01*
X142359260Y-66693350D01*
X142359260Y-67886505D01*
X142589150Y-68007826D01*
X142999184Y-67837995D01*
X143427443Y-67447708D01*
X143502260Y-67288396D01*
X143577077Y-67447708D01*
X144005336Y-67837995D01*
X144415370Y-68007826D01*
X144645260Y-67886505D01*
X144645260Y-66693350D01*
X144899260Y-66693350D01*
X144899260Y-67886505D01*
X145129150Y-68007826D01*
X145539184Y-67837995D01*
X145967443Y-67447708D01*
X146213746Y-66923242D01*
X146093079Y-66693350D01*
X144899260Y-66693350D01*
X144645260Y-66693350D01*
X142359260Y-66693350D01*
X142105260Y-66693350D01*
X142085260Y-66693350D01*
X142085260Y-66537257D01*
X155987260Y-66537257D01*
X155987260Y-66595443D01*
X156100299Y-67163728D01*
X156422206Y-67645497D01*
X156903975Y-67967404D01*
X157472260Y-68080443D01*
X158040545Y-67967404D01*
X158522314Y-67645497D01*
X158742260Y-67316324D01*
X158962206Y-67645497D01*
X159443975Y-67967404D01*
X160012260Y-68080443D01*
X160580545Y-67967404D01*
X161062314Y-67645497D01*
X161282260Y-67316324D01*
X161502206Y-67645497D01*
X161983975Y-67967404D01*
X162552260Y-68080443D01*
X163120545Y-67967404D01*
X163602314Y-67645497D01*
X163829962Y-67304797D01*
X163897077Y-67447708D01*
X164325336Y-67837995D01*
X164735370Y-68007826D01*
X164965260Y-67886505D01*
X164965260Y-66693350D01*
X165219260Y-66693350D01*
X165219260Y-67886505D01*
X165449150Y-68007826D01*
X165859184Y-67837995D01*
X166287443Y-67447708D01*
X166362260Y-67288396D01*
X166437077Y-67447708D01*
X166865336Y-67837995D01*
X167275370Y-68007826D01*
X167505260Y-67886505D01*
X167505260Y-66693350D01*
X167759260Y-66693350D01*
X167759260Y-67886505D01*
X167989150Y-68007826D01*
X168399184Y-67837995D01*
X168827443Y-67447708D01*
X169073746Y-66923242D01*
X168953079Y-66693350D01*
X167759260Y-66693350D01*
X167505260Y-66693350D01*
X165219260Y-66693350D01*
X164965260Y-66693350D01*
X164945260Y-66693350D01*
X164945260Y-66439350D01*
X164965260Y-66439350D01*
X164965260Y-65246195D01*
X165219260Y-65246195D01*
X165219260Y-66439350D01*
X167505260Y-66439350D01*
X167505260Y-65246195D01*
X167759260Y-65246195D01*
X167759260Y-66439350D01*
X168953079Y-66439350D01*
X169031574Y-66289802D01*
X175981946Y-66289802D01*
X176256922Y-66955293D01*
X176765639Y-67464899D01*
X177430649Y-67741035D01*
X178150712Y-67741664D01*
X178784082Y-67479960D01*
X178522575Y-68109739D01*
X178521946Y-68829802D01*
X178796922Y-69495293D01*
X179305639Y-70004899D01*
X179970649Y-70281035D01*
X180690712Y-70281664D01*
X181356203Y-70006688D01*
X181865809Y-69497971D01*
X182141945Y-68832961D01*
X182142574Y-68112898D01*
X181880870Y-67479528D01*
X182510649Y-67741035D01*
X183230712Y-67741664D01*
X183896203Y-67466688D01*
X184405809Y-66957971D01*
X184681945Y-66292961D01*
X184682574Y-65572898D01*
X184407598Y-64907407D01*
X183898881Y-64397801D01*
X183233871Y-64121665D01*
X182513808Y-64121036D01*
X181880438Y-64382740D01*
X182141945Y-63752961D01*
X182142574Y-63032898D01*
X181867598Y-62367407D01*
X181358881Y-61857801D01*
X180693871Y-61581665D01*
X179973808Y-61581036D01*
X179308317Y-61856012D01*
X178798711Y-62364729D01*
X178522575Y-63029739D01*
X178521946Y-63749802D01*
X178783650Y-64383172D01*
X178153871Y-64121665D01*
X177433808Y-64121036D01*
X176768317Y-64396012D01*
X176258711Y-64904729D01*
X175982575Y-65569739D01*
X175981946Y-66289802D01*
X169031574Y-66289802D01*
X169073746Y-66209458D01*
X168827443Y-65684992D01*
X168399184Y-65294705D01*
X167989150Y-65124874D01*
X167759260Y-65246195D01*
X167505260Y-65246195D01*
X167275370Y-65124874D01*
X166865336Y-65294705D01*
X166437077Y-65684992D01*
X166362260Y-65844304D01*
X166287443Y-65684992D01*
X165859184Y-65294705D01*
X165449150Y-65124874D01*
X165219260Y-65246195D01*
X164965260Y-65246195D01*
X164735370Y-65124874D01*
X164325336Y-65294705D01*
X163897077Y-65684992D01*
X163829962Y-65827903D01*
X163602314Y-65487203D01*
X163120545Y-65165296D01*
X162552260Y-65052257D01*
X161983975Y-65165296D01*
X161502206Y-65487203D01*
X161282260Y-65816376D01*
X161062314Y-65487203D01*
X160580545Y-65165296D01*
X160012260Y-65052257D01*
X159443975Y-65165296D01*
X158962206Y-65487203D01*
X158742260Y-65816376D01*
X158522314Y-65487203D01*
X158040545Y-65165296D01*
X157472260Y-65052257D01*
X156903975Y-65165296D01*
X156422206Y-65487203D01*
X156100299Y-65968972D01*
X155987260Y-66537257D01*
X142085260Y-66537257D01*
X142085260Y-66439350D01*
X142105260Y-66439350D01*
X142105260Y-65246195D01*
X142359260Y-65246195D01*
X142359260Y-66439350D01*
X144645260Y-66439350D01*
X144645260Y-65246195D01*
X144899260Y-65246195D01*
X144899260Y-66439350D01*
X146093079Y-66439350D01*
X146213746Y-66209458D01*
X145967443Y-65684992D01*
X145539184Y-65294705D01*
X145129150Y-65124874D01*
X144899260Y-65246195D01*
X144645260Y-65246195D01*
X144415370Y-65124874D01*
X144005336Y-65294705D01*
X143577077Y-65684992D01*
X143502260Y-65844304D01*
X143427443Y-65684992D01*
X142999184Y-65294705D01*
X142589150Y-65124874D01*
X142359260Y-65246195D01*
X142105260Y-65246195D01*
X141875370Y-65124874D01*
X141465336Y-65294705D01*
X141037077Y-65684992D01*
X140969962Y-65827903D01*
X140742314Y-65487203D01*
X140260545Y-65165296D01*
X139692260Y-65052257D01*
X139123975Y-65165296D01*
X138642206Y-65487203D01*
X138422260Y-65816376D01*
X138202314Y-65487203D01*
X137720545Y-65165296D01*
X137152260Y-65052257D01*
X136583975Y-65165296D01*
X136102206Y-65487203D01*
X135882260Y-65816376D01*
X135662314Y-65487203D01*
X135180545Y-65165296D01*
X134612260Y-65052257D01*
X134043975Y-65165296D01*
X133562206Y-65487203D01*
X133240299Y-65968972D01*
X133127260Y-66537257D01*
X119225260Y-66537257D01*
X119225260Y-66439350D01*
X119245260Y-66439350D01*
X119245260Y-65246195D01*
X119499260Y-65246195D01*
X119499260Y-66439350D01*
X121785260Y-66439350D01*
X121785260Y-65246195D01*
X122039260Y-65246195D01*
X122039260Y-66439350D01*
X123233079Y-66439350D01*
X123353746Y-66209458D01*
X123107443Y-65684992D01*
X122679184Y-65294705D01*
X122269150Y-65124874D01*
X122039260Y-65246195D01*
X121785260Y-65246195D01*
X121555370Y-65124874D01*
X121145336Y-65294705D01*
X120717077Y-65684992D01*
X120642260Y-65844304D01*
X120567443Y-65684992D01*
X120139184Y-65294705D01*
X119729150Y-65124874D01*
X119499260Y-65246195D01*
X119245260Y-65246195D01*
X119015370Y-65124874D01*
X118605336Y-65294705D01*
X118177077Y-65684992D01*
X118109962Y-65827903D01*
X117882314Y-65487203D01*
X117400545Y-65165296D01*
X116832260Y-65052257D01*
X116263975Y-65165296D01*
X115782206Y-65487203D01*
X115562260Y-65816376D01*
X115342314Y-65487203D01*
X114860545Y-65165296D01*
X114292260Y-65052257D01*
X113723975Y-65165296D01*
X113242206Y-65487203D01*
X113022260Y-65816376D01*
X112802314Y-65487203D01*
X112320545Y-65165296D01*
X111752260Y-65052257D01*
X111183975Y-65165296D01*
X110702206Y-65487203D01*
X110380299Y-65968972D01*
X110267260Y-66537257D01*
X96365260Y-66537257D01*
X96365260Y-66439350D01*
X96385260Y-66439350D01*
X96385260Y-65246195D01*
X96639260Y-65246195D01*
X96639260Y-66439350D01*
X98925260Y-66439350D01*
X98925260Y-65246195D01*
X99179260Y-65246195D01*
X99179260Y-66439350D01*
X100373079Y-66439350D01*
X100493746Y-66209458D01*
X100247443Y-65684992D01*
X99819184Y-65294705D01*
X99409150Y-65124874D01*
X99179260Y-65246195D01*
X98925260Y-65246195D01*
X98695370Y-65124874D01*
X98285336Y-65294705D01*
X97857077Y-65684992D01*
X97782260Y-65844304D01*
X97707443Y-65684992D01*
X97279184Y-65294705D01*
X96869150Y-65124874D01*
X96639260Y-65246195D01*
X96385260Y-65246195D01*
X96155370Y-65124874D01*
X95745336Y-65294705D01*
X95317077Y-65684992D01*
X95249962Y-65827903D01*
X95022314Y-65487203D01*
X94540545Y-65165296D01*
X93972260Y-65052257D01*
X93403975Y-65165296D01*
X92922206Y-65487203D01*
X92702260Y-65816376D01*
X92482314Y-65487203D01*
X92000545Y-65165296D01*
X91432260Y-65052257D01*
X90863975Y-65165296D01*
X90382206Y-65487203D01*
X90162260Y-65816376D01*
X89942314Y-65487203D01*
X89460545Y-65165296D01*
X88892260Y-65052257D01*
X88323975Y-65165296D01*
X87842206Y-65487203D01*
X87520299Y-65968972D01*
X87407260Y-66537257D01*
X83252260Y-66537257D01*
X83252260Y-55493242D01*
X83640774Y-55493242D01*
X83887077Y-56017708D01*
X84315336Y-56407995D01*
X84725370Y-56577826D01*
X84955260Y-56456505D01*
X84955260Y-55263350D01*
X83761441Y-55263350D01*
X83640774Y-55493242D01*
X83252260Y-55493242D01*
X83252260Y-54779458D01*
X83640774Y-54779458D01*
X83761441Y-55009350D01*
X84955260Y-55009350D01*
X84955260Y-53816195D01*
X85209260Y-53816195D01*
X85209260Y-55009350D01*
X85229260Y-55009350D01*
X85229260Y-55263350D01*
X85209260Y-55263350D01*
X85209260Y-56456505D01*
X85439150Y-56577826D01*
X85849184Y-56407995D01*
X86277443Y-56017708D01*
X86344558Y-55874797D01*
X86572206Y-56215497D01*
X87053975Y-56537404D01*
X87622260Y-56650443D01*
X88190545Y-56537404D01*
X88672314Y-56215497D01*
X88892260Y-55886324D01*
X89112206Y-56215497D01*
X89593975Y-56537404D01*
X90162260Y-56650443D01*
X90730545Y-56537404D01*
X91212314Y-56215497D01*
X91432260Y-55886324D01*
X91652206Y-56215497D01*
X92133975Y-56537404D01*
X92702260Y-56650443D01*
X93270545Y-56537404D01*
X93752314Y-56215497D01*
X93780110Y-56173898D01*
X93789098Y-56221667D01*
X93928170Y-56437791D01*
X94140370Y-56582781D01*
X94392260Y-56633790D01*
X96092260Y-56633790D01*
X96327577Y-56589512D01*
X96543701Y-56450440D01*
X96688691Y-56238240D01*
X96707642Y-56144655D01*
X174716934Y-56144655D01*
X175003303Y-56837722D01*
X175533099Y-57368443D01*
X176225665Y-57656022D01*
X176975565Y-57656676D01*
X177668632Y-57370307D01*
X178199353Y-56840511D01*
X178486932Y-56147945D01*
X178487011Y-56057100D01*
X179717260Y-56057100D01*
X179717260Y-57147660D01*
X179813933Y-57381049D01*
X179992562Y-57559677D01*
X180225951Y-57656350D01*
X181316510Y-57656350D01*
X181475260Y-57497600D01*
X181475260Y-55898350D01*
X181729260Y-55898350D01*
X181729260Y-57497600D01*
X181888010Y-57656350D01*
X182978569Y-57656350D01*
X183211958Y-57559677D01*
X183390587Y-57381049D01*
X183412933Y-57327100D01*
X185197260Y-57327100D01*
X185197260Y-58017660D01*
X185293933Y-58251049D01*
X185472562Y-58429677D01*
X185705951Y-58526350D01*
X186396510Y-58526350D01*
X186555260Y-58367600D01*
X186555260Y-57168350D01*
X186809260Y-57168350D01*
X186809260Y-58367600D01*
X186968010Y-58526350D01*
X187658569Y-58526350D01*
X187891958Y-58429677D01*
X188070587Y-58251049D01*
X188167260Y-58017660D01*
X188167260Y-57327100D01*
X188008510Y-57168350D01*
X186809260Y-57168350D01*
X186555260Y-57168350D01*
X185356010Y-57168350D01*
X185197260Y-57327100D01*
X183412933Y-57327100D01*
X183487260Y-57147660D01*
X183487260Y-56065040D01*
X185197260Y-56065040D01*
X185197260Y-56755600D01*
X185356010Y-56914350D01*
X186555260Y-56914350D01*
X186555260Y-54628350D01*
X186809260Y-54628350D01*
X186809260Y-56914350D01*
X188008510Y-56914350D01*
X188167260Y-56755600D01*
X188167260Y-56065040D01*
X188070587Y-55831651D01*
X187891958Y-55653023D01*
X187682382Y-55566214D01*
X187953905Y-55268274D01*
X188123736Y-54858240D01*
X188002415Y-54628350D01*
X186809260Y-54628350D01*
X186555260Y-54628350D01*
X185362105Y-54628350D01*
X185240784Y-54858240D01*
X185410615Y-55268274D01*
X185682138Y-55566214D01*
X185472562Y-55653023D01*
X185293933Y-55831651D01*
X185197260Y-56065040D01*
X183487260Y-56065040D01*
X183487260Y-56057100D01*
X183328510Y-55898350D01*
X181729260Y-55898350D01*
X181475260Y-55898350D01*
X179876010Y-55898350D01*
X179717260Y-56057100D01*
X178487011Y-56057100D01*
X178487586Y-55398045D01*
X178201217Y-54704978D01*
X177891820Y-54395040D01*
X179717260Y-54395040D01*
X179717260Y-55485600D01*
X179876010Y-55644350D01*
X181475260Y-55644350D01*
X181475260Y-54045100D01*
X181729260Y-54045100D01*
X181729260Y-55644350D01*
X183328510Y-55644350D01*
X183487260Y-55485600D01*
X183487260Y-54395040D01*
X183390587Y-54161651D01*
X183373396Y-54144460D01*
X185240784Y-54144460D01*
X185362105Y-54374350D01*
X186555260Y-54374350D01*
X186555260Y-53180531D01*
X186809260Y-53180531D01*
X186809260Y-54374350D01*
X188002415Y-54374350D01*
X188123736Y-54144460D01*
X187953905Y-53734426D01*
X187563618Y-53306167D01*
X187039152Y-53059864D01*
X186809260Y-53180531D01*
X186555260Y-53180531D01*
X186325368Y-53059864D01*
X185800902Y-53306167D01*
X185410615Y-53734426D01*
X185240784Y-54144460D01*
X183373396Y-54144460D01*
X183211958Y-53983023D01*
X182978569Y-53886350D01*
X181888010Y-53886350D01*
X181729260Y-54045100D01*
X181475260Y-54045100D01*
X181316510Y-53886350D01*
X180225951Y-53886350D01*
X179992562Y-53983023D01*
X179813933Y-54161651D01*
X179717260Y-54395040D01*
X177891820Y-54395040D01*
X177671421Y-54174257D01*
X176978855Y-53886678D01*
X176228955Y-53886024D01*
X175535888Y-54172393D01*
X175005167Y-54702189D01*
X174717588Y-55394755D01*
X174716934Y-56144655D01*
X96707642Y-56144655D01*
X96739700Y-55986350D01*
X96739700Y-54286350D01*
X96695422Y-54051033D01*
X96556350Y-53834909D01*
X96344150Y-53689919D01*
X96092260Y-53638910D01*
X94392260Y-53638910D01*
X94156943Y-53683188D01*
X93940819Y-53822260D01*
X93795829Y-54034460D01*
X93782174Y-54101891D01*
X93752314Y-54057203D01*
X93270545Y-53735296D01*
X92702260Y-53622257D01*
X92133975Y-53735296D01*
X91652206Y-54057203D01*
X91432260Y-54386376D01*
X91212314Y-54057203D01*
X90730545Y-53735296D01*
X90162260Y-53622257D01*
X89593975Y-53735296D01*
X89112206Y-54057203D01*
X88892260Y-54386376D01*
X88672314Y-54057203D01*
X88190545Y-53735296D01*
X87622260Y-53622257D01*
X87053975Y-53735296D01*
X86572206Y-54057203D01*
X86344558Y-54397903D01*
X86277443Y-54254992D01*
X85849184Y-53864705D01*
X85439150Y-53694874D01*
X85209260Y-53816195D01*
X84955260Y-53816195D01*
X84725370Y-53694874D01*
X84315336Y-53864705D01*
X83887077Y-54254992D01*
X83640774Y-54779458D01*
X83252260Y-54779458D01*
X83252260Y-50131350D01*
X191052260Y-50131350D01*
X191052260Y-117291350D01*
X191052260Y-117291350D01*
G37*
X191052260Y-117291350D02*
X83252260Y-117291350D01*
X83252260Y-111671350D01*
X84026820Y-111671350D01*
X84026820Y-114171350D01*
X84071098Y-114406667D01*
X84210170Y-114622791D01*
X84422370Y-114767781D01*
X84674260Y-114818790D01*
X87174260Y-114818790D01*
X87409577Y-114774512D01*
X87625701Y-114635440D01*
X87770691Y-114423240D01*
X87804827Y-114254670D01*
X89770545Y-114254670D01*
X89899793Y-114547473D01*
X90600066Y-114815738D01*
X91349695Y-114795600D01*
X91948727Y-114547473D01*
X92077975Y-114254670D01*
X90924260Y-113100955D01*
X89770545Y-114254670D01*
X87804827Y-114254670D01*
X87821700Y-114171350D01*
X87821700Y-112597156D01*
X89029872Y-112597156D01*
X89050010Y-113346785D01*
X89298137Y-113945817D01*
X89590940Y-114075065D01*
X90744655Y-112921350D01*
X91103865Y-112921350D01*
X92257580Y-114075065D01*
X92550383Y-113945817D01*
X92818648Y-113245544D01*
X92798510Y-112495915D01*
X92550383Y-111896883D01*
X92257580Y-111767635D01*
X91103865Y-112921350D01*
X90744655Y-112921350D01*
X89590940Y-111767635D01*
X89298137Y-111896883D01*
X89029872Y-112597156D01*
X87821700Y-112597156D01*
X87821700Y-111671350D01*
X87806023Y-111588030D01*
X89770545Y-111588030D01*
X90924260Y-112741745D01*
X91994655Y-111671350D01*
X95202820Y-111671350D01*
X95202820Y-114171350D01*
X95247098Y-114406667D01*
X95386170Y-114622791D01*
X95598370Y-114767781D01*
X95850260Y-114818790D01*
X98350260Y-114818790D01*
X98585577Y-114774512D01*
X98801701Y-114635440D01*
X98946691Y-114423240D01*
X98980827Y-114254670D01*
X100946545Y-114254670D01*
X101075793Y-114547473D01*
X101776066Y-114815738D01*
X102525695Y-114795600D01*
X103124727Y-114547473D01*
X103253975Y-114254670D01*
X102100260Y-113100955D01*
X100946545Y-114254670D01*
X98980827Y-114254670D01*
X98997700Y-114171350D01*
X98997700Y-112597156D01*
X100205872Y-112597156D01*
X100226010Y-113346785D01*
X100474137Y-113945817D01*
X100766940Y-114075065D01*
X101920655Y-112921350D01*
X102279865Y-112921350D01*
X103433580Y-114075065D01*
X103726383Y-113945817D01*
X103994648Y-113245544D01*
X103974510Y-112495915D01*
X103726383Y-111896883D01*
X103433580Y-111767635D01*
X102279865Y-112921350D01*
X101920655Y-112921350D01*
X100766940Y-111767635D01*
X100474137Y-111896883D01*
X100205872Y-112597156D01*
X98997700Y-112597156D01*
X98997700Y-111671350D01*
X98982023Y-111588030D01*
X100946545Y-111588030D01*
X102100260Y-112741745D01*
X103170655Y-111671350D01*
X106632820Y-111671350D01*
X106632820Y-114171350D01*
X106677098Y-114406667D01*
X106816170Y-114622791D01*
X107028370Y-114767781D01*
X107280260Y-114818790D01*
X109780260Y-114818790D01*
X110015577Y-114774512D01*
X110231701Y-114635440D01*
X110376691Y-114423240D01*
X110410827Y-114254670D01*
X112376545Y-114254670D01*
X112505793Y-114547473D01*
X113206066Y-114815738D01*
X113955695Y-114795600D01*
X114554727Y-114547473D01*
X114683975Y-114254670D01*
X113530260Y-113100955D01*
X112376545Y-114254670D01*
X110410827Y-114254670D01*
X110427700Y-114171350D01*
X110427700Y-112597156D01*
X111635872Y-112597156D01*
X111656010Y-113346785D01*
X111904137Y-113945817D01*
X112196940Y-114075065D01*
X113350655Y-112921350D01*
X113709865Y-112921350D01*
X114863580Y-114075065D01*
X115156383Y-113945817D01*
X115424648Y-113245544D01*
X115404510Y-112495915D01*
X115156383Y-111896883D01*
X114863580Y-111767635D01*
X113709865Y-112921350D01*
X113350655Y-112921350D01*
X112196940Y-111767635D01*
X111904137Y-111896883D01*
X111635872Y-112597156D01*
X110427700Y-112597156D01*
X110427700Y-111671350D01*
X110412023Y-111588030D01*
X112376545Y-111588030D01*
X113530260Y-112741745D01*
X114600655Y-111671350D01*
X118189820Y-111671350D01*
X118189820Y-114171350D01*
X118234098Y-114406667D01*
X118373170Y-114622791D01*
X118585370Y-114767781D01*
X118837260Y-114818790D01*
X121337260Y-114818790D01*
X121572577Y-114774512D01*
X121788701Y-114635440D01*
X121933691Y-114423240D01*
X121967827Y-114254670D01*
X123933545Y-114254670D01*
X124062793Y-114547473D01*
X124763066Y-114815738D01*
X125512695Y-114795600D01*
X126111727Y-114547473D01*
X126240975Y-114254670D01*
X125087260Y-113100955D01*
X123933545Y-114254670D01*
X121967827Y-114254670D01*
X121984700Y-114171350D01*
X121984700Y-112597156D01*
X123192872Y-112597156D01*
X123213010Y-113346785D01*
X123461137Y-113945817D01*
X123753940Y-114075065D01*
X124907655Y-112921350D01*
X125266865Y-112921350D01*
X126420580Y-114075065D01*
X126713383Y-113945817D01*
X126981648Y-113245544D01*
X126961510Y-112495915D01*
X126713383Y-111896883D01*
X126420580Y-111767635D01*
X125266865Y-112921350D01*
X124907655Y-112921350D01*
X123753940Y-111767635D01*
X123461137Y-111896883D01*
X123192872Y-112597156D01*
X121984700Y-112597156D01*
X121984700Y-111671350D01*
X121969023Y-111588030D01*
X123933545Y-111588030D01*
X125087260Y-112741745D01*
X126157655Y-111671350D01*
X129539820Y-111671350D01*
X129539820Y-114171350D01*
X129584098Y-114406667D01*
X129723170Y-114622791D01*
X129935370Y-114767781D01*
X130187260Y-114818790D01*
X132687260Y-114818790D01*
X132922577Y-114774512D01*
X133138701Y-114635440D01*
X133283691Y-114423240D01*
X133317827Y-114254670D01*
X135283545Y-114254670D01*
X135412793Y-114547473D01*
X136113066Y-114815738D01*
X136862695Y-114795600D01*
X137461727Y-114547473D01*
X137590975Y-114254670D01*
X136437260Y-113100955D01*
X135283545Y-114254670D01*
X133317827Y-114254670D01*
X133334700Y-114171350D01*
X133334700Y-112597156D01*
X134542872Y-112597156D01*
X134563010Y-113346785D01*
X134811137Y-113945817D01*
X135103940Y-114075065D01*
X136257655Y-112921350D01*
X136616865Y-112921350D01*
X137770580Y-114075065D01*
X138063383Y-113945817D01*
X138331648Y-113245544D01*
X138311510Y-112495915D01*
X138063383Y-111896883D01*
X137770580Y-111767635D01*
X136616865Y-112921350D01*
X136257655Y-112921350D01*
X135103940Y-111767635D01*
X134811137Y-111896883D01*
X134542872Y-112597156D01*
X133334700Y-112597156D01*
X133334700Y-111671350D01*
X133319023Y-111588030D01*
X135283545Y-111588030D01*
X136437260Y-112741745D01*
X137507655Y-111671350D01*
X141049820Y-111671350D01*
X141049820Y-114171350D01*
X141094098Y-114406667D01*
X141233170Y-114622791D01*
X141445370Y-114767781D01*
X141697260Y-114818790D01*
X144197260Y-114818790D01*
X144432577Y-114774512D01*
X144648701Y-114635440D01*
X144793691Y-114423240D01*
X144827827Y-114254670D01*
X146793545Y-114254670D01*
X146922793Y-114547473D01*
X147623066Y-114815738D01*
X148372695Y-114795600D01*
X148971727Y-114547473D01*
X149100975Y-114254670D01*
X147947260Y-113100955D01*
X146793545Y-114254670D01*
X144827827Y-114254670D01*
X144844700Y-114171350D01*
X144844700Y-112597156D01*
X146052872Y-112597156D01*
X146073010Y-113346785D01*
X146321137Y-113945817D01*
X146613940Y-114075065D01*
X147767655Y-112921350D01*
X148126865Y-112921350D01*
X149280580Y-114075065D01*
X149573383Y-113945817D01*
X149841648Y-113245544D01*
X149821510Y-112495915D01*
X149573383Y-111896883D01*
X149280580Y-111767635D01*
X148126865Y-112921350D01*
X147767655Y-112921350D01*
X146613940Y-111767635D01*
X146321137Y-111896883D01*
X146052872Y-112597156D01*
X144844700Y-112597156D01*
X144844700Y-111671350D01*
X144829023Y-111588030D01*
X146793545Y-111588030D01*
X147947260Y-112741745D01*
X149017655Y-111671350D01*
X152352820Y-111671350D01*
X152352820Y-114171350D01*
X152397098Y-114406667D01*
X152536170Y-114622791D01*
X152748370Y-114767781D01*
X153000260Y-114818790D01*
X155500260Y-114818790D01*
X155735577Y-114774512D01*
X155951701Y-114635440D01*
X156096691Y-114423240D01*
X156130827Y-114254670D01*
X158096545Y-114254670D01*
X158225793Y-114547473D01*
X158926066Y-114815738D01*
X159675695Y-114795600D01*
X160274727Y-114547473D01*
X160403975Y-114254670D01*
X159250260Y-113100955D01*
X158096545Y-114254670D01*
X156130827Y-114254670D01*
X156147700Y-114171350D01*
X156147700Y-112597156D01*
X157355872Y-112597156D01*
X157376010Y-113346785D01*
X157624137Y-113945817D01*
X157916940Y-114075065D01*
X159070655Y-112921350D01*
X159429865Y-112921350D01*
X160583580Y-114075065D01*
X160876383Y-113945817D01*
X161144648Y-113245544D01*
X161124510Y-112495915D01*
X160876383Y-111896883D01*
X160583580Y-111767635D01*
X159429865Y-112921350D01*
X159070655Y-112921350D01*
X157916940Y-111767635D01*
X157624137Y-111896883D01*
X157355872Y-112597156D01*
X156147700Y-112597156D01*
X156147700Y-111671350D01*
X156132023Y-111588030D01*
X158096545Y-111588030D01*
X159250260Y-112741745D01*
X160320655Y-111671350D01*
X163782820Y-111671350D01*
X163782820Y-114171350D01*
X163827098Y-114406667D01*
X163966170Y-114622791D01*
X164178370Y-114767781D01*
X164430260Y-114818790D01*
X166930260Y-114818790D01*
X167165577Y-114774512D01*
X167381701Y-114635440D01*
X167526691Y-114423240D01*
X167560827Y-114254670D01*
X169526545Y-114254670D01*
X169655793Y-114547473D01*
X170356066Y-114815738D01*
X171105695Y-114795600D01*
X171704727Y-114547473D01*
X171833975Y-114254670D01*
X170680260Y-113100955D01*
X169526545Y-114254670D01*
X167560827Y-114254670D01*
X167577700Y-114171350D01*
X167577700Y-112597156D01*
X168785872Y-112597156D01*
X168806010Y-113346785D01*
X169054137Y-113945817D01*
X169346940Y-114075065D01*
X170500655Y-112921350D01*
X170859865Y-112921350D01*
X172013580Y-114075065D01*
X172306383Y-113945817D01*
X172574648Y-113245544D01*
X172554510Y-112495915D01*
X172306383Y-111896883D01*
X172013580Y-111767635D01*
X170859865Y-112921350D01*
X170500655Y-112921350D01*
X169346940Y-111767635D01*
X169054137Y-111896883D01*
X168785872Y-112597156D01*
X167577700Y-112597156D01*
X167577700Y-111671350D01*
X167562023Y-111588030D01*
X169526545Y-111588030D01*
X170680260Y-112741745D01*
X171750655Y-111671350D01*
X181816820Y-111671350D01*
X181816820Y-114171350D01*
X181861098Y-114406667D01*
X182000170Y-114622791D01*
X182212370Y-114767781D01*
X182464260Y-114818790D01*
X184964260Y-114818790D01*
X185199577Y-114774512D01*
X185415701Y-114635440D01*
X185560691Y-114423240D01*
X185594827Y-114254670D01*
X187560545Y-114254670D01*
X187689793Y-114547473D01*
X188390066Y-114815738D01*
X189139695Y-114795600D01*
X189738727Y-114547473D01*
X189867975Y-114254670D01*
X188714260Y-113100955D01*
X187560545Y-114254670D01*
X185594827Y-114254670D01*
X185611700Y-114171350D01*
X185611700Y-112597156D01*
X186819872Y-112597156D01*
X186840010Y-113346785D01*
X187088137Y-113945817D01*
X187380940Y-114075065D01*
X188534655Y-112921350D01*
X188893865Y-112921350D01*
X190047580Y-114075065D01*
X190340383Y-113945817D01*
X190608648Y-113245544D01*
X190588510Y-112495915D01*
X190340383Y-111896883D01*
X190047580Y-111767635D01*
X188893865Y-112921350D01*
X188534655Y-112921350D01*
X187380940Y-111767635D01*
X187088137Y-111896883D01*
X186819872Y-112597156D01*
X185611700Y-112597156D01*
X185611700Y-111671350D01*
X185596023Y-111588030D01*
X187560545Y-111588030D01*
X188714260Y-112741745D01*
X189867975Y-111588030D01*
X189738727Y-111295227D01*
X189038454Y-111026962D01*
X188288825Y-111047100D01*
X187689793Y-111295227D01*
X187560545Y-111588030D01*
X185596023Y-111588030D01*
X185567422Y-111436033D01*
X185428350Y-111219909D01*
X185216150Y-111074919D01*
X184964260Y-111023910D01*
X182464260Y-111023910D01*
X182228943Y-111068188D01*
X182012819Y-111207260D01*
X181867829Y-111419460D01*
X181816820Y-111671350D01*
X171750655Y-111671350D01*
X171833975Y-111588030D01*
X171704727Y-111295227D01*
X171004454Y-111026962D01*
X170254825Y-111047100D01*
X169655793Y-111295227D01*
X169526545Y-111588030D01*
X167562023Y-111588030D01*
X167533422Y-111436033D01*
X167394350Y-111219909D01*
X167182150Y-111074919D01*
X166930260Y-111023910D01*
X164430260Y-111023910D01*
X164194943Y-111068188D01*
X163978819Y-111207260D01*
X163833829Y-111419460D01*
X163782820Y-111671350D01*
X160320655Y-111671350D01*
X160403975Y-111588030D01*
X160274727Y-111295227D01*
X159574454Y-111026962D01*
X158824825Y-111047100D01*
X158225793Y-111295227D01*
X158096545Y-111588030D01*
X156132023Y-111588030D01*
X156103422Y-111436033D01*
X155964350Y-111219909D01*
X155752150Y-111074919D01*
X155500260Y-111023910D01*
X153000260Y-111023910D01*
X152764943Y-111068188D01*
X152548819Y-111207260D01*
X152403829Y-111419460D01*
X152352820Y-111671350D01*
X149017655Y-111671350D01*
X149100975Y-111588030D01*
X148971727Y-111295227D01*
X148271454Y-111026962D01*
X147521825Y-111047100D01*
X146922793Y-111295227D01*
X146793545Y-111588030D01*
X144829023Y-111588030D01*
X144800422Y-111436033D01*
X144661350Y-111219909D01*
X144449150Y-111074919D01*
X144197260Y-111023910D01*
X141697260Y-111023910D01*
X141461943Y-111068188D01*
X141245819Y-111207260D01*
X141100829Y-111419460D01*
X141049820Y-111671350D01*
X137507655Y-111671350D01*
X137590975Y-111588030D01*
X137461727Y-111295227D01*
X136761454Y-111026962D01*
X136011825Y-111047100D01*
X135412793Y-111295227D01*
X135283545Y-111588030D01*
X133319023Y-111588030D01*
X133290422Y-111436033D01*
X133151350Y-111219909D01*
X132939150Y-111074919D01*
X132687260Y-111023910D01*
X130187260Y-111023910D01*
X129951943Y-111068188D01*
X129735819Y-111207260D01*
X129590829Y-111419460D01*
X129539820Y-111671350D01*
X126157655Y-111671350D01*
X126240975Y-111588030D01*
X126111727Y-111295227D01*
X125411454Y-111026962D01*
X124661825Y-111047100D01*
X124062793Y-111295227D01*
X123933545Y-111588030D01*
X121969023Y-111588030D01*
X121940422Y-111436033D01*
X121801350Y-111219909D01*
X121589150Y-111074919D01*
X121337260Y-111023910D01*
X118837260Y-111023910D01*
X118601943Y-111068188D01*
X118385819Y-111207260D01*
X118240829Y-111419460D01*
X118189820Y-111671350D01*
X114600655Y-111671350D01*
X114683975Y-111588030D01*
X114554727Y-111295227D01*
X113854454Y-111026962D01*
X113104825Y-111047100D01*
X112505793Y-111295227D01*
X112376545Y-111588030D01*
X110412023Y-111588030D01*
X110383422Y-111436033D01*
X110244350Y-111219909D01*
X110032150Y-111074919D01*
X109780260Y-111023910D01*
X107280260Y-111023910D01*
X107044943Y-111068188D01*
X106828819Y-111207260D01*
X106683829Y-111419460D01*
X106632820Y-111671350D01*
X103170655Y-111671350D01*
X103253975Y-111588030D01*
X103124727Y-111295227D01*
X102424454Y-111026962D01*
X101674825Y-111047100D01*
X101075793Y-111295227D01*
X100946545Y-111588030D01*
X98982023Y-111588030D01*
X98953422Y-111436033D01*
X98814350Y-111219909D01*
X98602150Y-111074919D01*
X98350260Y-111023910D01*
X95850260Y-111023910D01*
X95614943Y-111068188D01*
X95398819Y-111207260D01*
X95253829Y-111419460D01*
X95202820Y-111671350D01*
X91994655Y-111671350D01*
X92077975Y-111588030D01*
X91948727Y-111295227D01*
X91248454Y-111026962D01*
X90498825Y-111047100D01*
X89899793Y-111295227D01*
X89770545Y-111588030D01*
X87806023Y-111588030D01*
X87777422Y-111436033D01*
X87638350Y-111219909D01*
X87426150Y-111074919D01*
X87174260Y-111023910D01*
X84674260Y-111023910D01*
X84438943Y-111068188D01*
X84222819Y-111207260D01*
X84077829Y-111419460D01*
X84026820Y-111671350D01*
X83252260Y-111671350D01*
X83252260Y-99557257D01*
X89947260Y-99557257D01*
X89947260Y-99615443D01*
X90060299Y-100183728D01*
X90382206Y-100665497D01*
X90863975Y-100987404D01*
X91432260Y-101100443D01*
X92000545Y-100987404D01*
X92482314Y-100665497D01*
X92702260Y-100336324D01*
X92922206Y-100665497D01*
X93403975Y-100987404D01*
X93972260Y-101100443D01*
X94540545Y-100987404D01*
X95022314Y-100665497D01*
X95249962Y-100324797D01*
X95317077Y-100467708D01*
X95745336Y-100857995D01*
X96155370Y-101027826D01*
X96385260Y-100906505D01*
X96385260Y-99713350D01*
X96639260Y-99713350D01*
X96639260Y-100906505D01*
X96869150Y-101027826D01*
X97279184Y-100857995D01*
X97707443Y-100467708D01*
X97782260Y-100308396D01*
X97857077Y-100467708D01*
X98285336Y-100857995D01*
X98695370Y-101027826D01*
X98925260Y-100906505D01*
X98925260Y-99713350D01*
X99179260Y-99713350D01*
X99179260Y-100906505D01*
X99409150Y-101027826D01*
X99819184Y-100857995D01*
X100247443Y-100467708D01*
X100493746Y-99943242D01*
X100373079Y-99713350D01*
X99179260Y-99713350D01*
X98925260Y-99713350D01*
X96639260Y-99713350D01*
X96385260Y-99713350D01*
X96365260Y-99713350D01*
X96365260Y-99557257D01*
X112807260Y-99557257D01*
X112807260Y-99615443D01*
X112920299Y-100183728D01*
X113242206Y-100665497D01*
X113723975Y-100987404D01*
X114292260Y-101100443D01*
X114860545Y-100987404D01*
X115342314Y-100665497D01*
X115562260Y-100336324D01*
X115782206Y-100665497D01*
X116263975Y-100987404D01*
X116832260Y-101100443D01*
X117400545Y-100987404D01*
X117882314Y-100665497D01*
X118109962Y-100324797D01*
X118177077Y-100467708D01*
X118605336Y-100857995D01*
X119015370Y-101027826D01*
X119245260Y-100906505D01*
X119245260Y-99713350D01*
X119499260Y-99713350D01*
X119499260Y-100906505D01*
X119729150Y-101027826D01*
X120139184Y-100857995D01*
X120567443Y-100467708D01*
X120642260Y-100308396D01*
X120717077Y-100467708D01*
X121145336Y-100857995D01*
X121555370Y-101027826D01*
X121785260Y-100906505D01*
X121785260Y-99713350D01*
X122039260Y-99713350D01*
X122039260Y-100906505D01*
X122269150Y-101027826D01*
X122679184Y-100857995D01*
X123107443Y-100467708D01*
X123353746Y-99943242D01*
X123233079Y-99713350D01*
X122039260Y-99713350D01*
X121785260Y-99713350D01*
X119499260Y-99713350D01*
X119245260Y-99713350D01*
X119225260Y-99713350D01*
X119225260Y-99557257D01*
X135667260Y-99557257D01*
X135667260Y-99615443D01*
X135780299Y-100183728D01*
X136102206Y-100665497D01*
X136583975Y-100987404D01*
X137152260Y-101100443D01*
X137720545Y-100987404D01*
X138202314Y-100665497D01*
X138422260Y-100336324D01*
X138642206Y-100665497D01*
X139123975Y-100987404D01*
X139692260Y-101100443D01*
X140260545Y-100987404D01*
X140742314Y-100665497D01*
X140969962Y-100324797D01*
X141037077Y-100467708D01*
X141465336Y-100857995D01*
X141875370Y-101027826D01*
X142105260Y-100906505D01*
X142105260Y-99713350D01*
X142359260Y-99713350D01*
X142359260Y-100906505D01*
X142589150Y-101027826D01*
X142999184Y-100857995D01*
X143427443Y-100467708D01*
X143502260Y-100308396D01*
X143577077Y-100467708D01*
X144005336Y-100857995D01*
X144415370Y-101027826D01*
X144645260Y-100906505D01*
X144645260Y-99713350D01*
X144899260Y-99713350D01*
X144899260Y-100906505D01*
X145129150Y-101027826D01*
X145539184Y-100857995D01*
X145967443Y-100467708D01*
X146213746Y-99943242D01*
X146093079Y-99713350D01*
X144899260Y-99713350D01*
X144645260Y-99713350D01*
X142359260Y-99713350D01*
X142105260Y-99713350D01*
X142085260Y-99713350D01*
X142085260Y-99557257D01*
X158527260Y-99557257D01*
X158527260Y-99615443D01*
X158640299Y-100183728D01*
X158962206Y-100665497D01*
X159443975Y-100987404D01*
X160012260Y-101100443D01*
X160580545Y-100987404D01*
X161062314Y-100665497D01*
X161282260Y-100336324D01*
X161502206Y-100665497D01*
X161983975Y-100987404D01*
X162552260Y-101100443D01*
X163120545Y-100987404D01*
X163602314Y-100665497D01*
X163829962Y-100324797D01*
X163897077Y-100467708D01*
X164325336Y-100857995D01*
X164735370Y-101027826D01*
X164965260Y-100906505D01*
X164965260Y-99713350D01*
X165219260Y-99713350D01*
X165219260Y-100906505D01*
X165449150Y-101027826D01*
X165859184Y-100857995D01*
X166287443Y-100467708D01*
X166362260Y-100308396D01*
X166437077Y-100467708D01*
X166865336Y-100857995D01*
X167275370Y-101027826D01*
X167505260Y-100906505D01*
X167505260Y-99713350D01*
X167759260Y-99713350D01*
X167759260Y-100906505D01*
X167989150Y-101027826D01*
X168399184Y-100857995D01*
X168827443Y-100467708D01*
X169073746Y-99943242D01*
X168953079Y-99713350D01*
X167759260Y-99713350D01*
X167505260Y-99713350D01*
X165219260Y-99713350D01*
X164965260Y-99713350D01*
X164945260Y-99713350D01*
X164945260Y-99459350D01*
X164965260Y-99459350D01*
X164965260Y-98266195D01*
X165219260Y-98266195D01*
X165219260Y-99459350D01*
X167505260Y-99459350D01*
X167505260Y-98266195D01*
X167759260Y-98266195D01*
X167759260Y-99459350D01*
X168953079Y-99459350D01*
X169073746Y-99229458D01*
X168827443Y-98704992D01*
X168399184Y-98314705D01*
X167989150Y-98144874D01*
X167759260Y-98266195D01*
X167505260Y-98266195D01*
X167275370Y-98144874D01*
X166865336Y-98314705D01*
X166437077Y-98704992D01*
X166362260Y-98864304D01*
X166287443Y-98704992D01*
X165859184Y-98314705D01*
X165449150Y-98144874D01*
X165219260Y-98266195D01*
X164965260Y-98266195D01*
X164735370Y-98144874D01*
X164325336Y-98314705D01*
X163897077Y-98704992D01*
X163829962Y-98847903D01*
X163602314Y-98507203D01*
X163120545Y-98185296D01*
X162552260Y-98072257D01*
X161983975Y-98185296D01*
X161502206Y-98507203D01*
X161282260Y-98836376D01*
X161062314Y-98507203D01*
X160580545Y-98185296D01*
X160012260Y-98072257D01*
X159443975Y-98185296D01*
X158962206Y-98507203D01*
X158640299Y-98988972D01*
X158527260Y-99557257D01*
X142085260Y-99557257D01*
X142085260Y-99459350D01*
X142105260Y-99459350D01*
X142105260Y-98266195D01*
X142359260Y-98266195D01*
X142359260Y-99459350D01*
X144645260Y-99459350D01*
X144645260Y-98266195D01*
X144899260Y-98266195D01*
X144899260Y-99459350D01*
X146093079Y-99459350D01*
X146213746Y-99229458D01*
X145967443Y-98704992D01*
X145539184Y-98314705D01*
X145129150Y-98144874D01*
X144899260Y-98266195D01*
X144645260Y-98266195D01*
X144415370Y-98144874D01*
X144005336Y-98314705D01*
X143577077Y-98704992D01*
X143502260Y-98864304D01*
X143427443Y-98704992D01*
X142999184Y-98314705D01*
X142589150Y-98144874D01*
X142359260Y-98266195D01*
X142105260Y-98266195D01*
X141875370Y-98144874D01*
X141465336Y-98314705D01*
X141037077Y-98704992D01*
X140969962Y-98847903D01*
X140742314Y-98507203D01*
X140260545Y-98185296D01*
X139692260Y-98072257D01*
X139123975Y-98185296D01*
X138642206Y-98507203D01*
X138422260Y-98836376D01*
X138202314Y-98507203D01*
X137720545Y-98185296D01*
X137152260Y-98072257D01*
X136583975Y-98185296D01*
X136102206Y-98507203D01*
X135780299Y-98988972D01*
X135667260Y-99557257D01*
X119225260Y-99557257D01*
X119225260Y-99459350D01*
X119245260Y-99459350D01*
X119245260Y-98266195D01*
X119499260Y-98266195D01*
X119499260Y-99459350D01*
X121785260Y-99459350D01*
X121785260Y-98266195D01*
X122039260Y-98266195D01*
X122039260Y-99459350D01*
X123233079Y-99459350D01*
X123353746Y-99229458D01*
X123107443Y-98704992D01*
X122679184Y-98314705D01*
X122269150Y-98144874D01*
X122039260Y-98266195D01*
X121785260Y-98266195D01*
X121555370Y-98144874D01*
X121145336Y-98314705D01*
X120717077Y-98704992D01*
X120642260Y-98864304D01*
X120567443Y-98704992D01*
X120139184Y-98314705D01*
X119729150Y-98144874D01*
X119499260Y-98266195D01*
X119245260Y-98266195D01*
X119015370Y-98144874D01*
X118605336Y-98314705D01*
X118177077Y-98704992D01*
X118109962Y-98847903D01*
X117882314Y-98507203D01*
X117400545Y-98185296D01*
X116832260Y-98072257D01*
X116263975Y-98185296D01*
X115782206Y-98507203D01*
X115562260Y-98836376D01*
X115342314Y-98507203D01*
X114860545Y-98185296D01*
X114292260Y-98072257D01*
X113723975Y-98185296D01*
X113242206Y-98507203D01*
X112920299Y-98988972D01*
X112807260Y-99557257D01*
X96365260Y-99557257D01*
X96365260Y-99459350D01*
X96385260Y-99459350D01*
X96385260Y-98266195D01*
X96639260Y-98266195D01*
X96639260Y-99459350D01*
X98925260Y-99459350D01*
X98925260Y-98266195D01*
X99179260Y-98266195D01*
X99179260Y-99459350D01*
X100373079Y-99459350D01*
X100493746Y-99229458D01*
X100247443Y-98704992D01*
X99819184Y-98314705D01*
X99409150Y-98144874D01*
X99179260Y-98266195D01*
X98925260Y-98266195D01*
X98695370Y-98144874D01*
X98285336Y-98314705D01*
X97857077Y-98704992D01*
X97782260Y-98864304D01*
X97707443Y-98704992D01*
X97279184Y-98314705D01*
X96869150Y-98144874D01*
X96639260Y-98266195D01*
X96385260Y-98266195D01*
X96155370Y-98144874D01*
X95745336Y-98314705D01*
X95317077Y-98704992D01*
X95249962Y-98847903D01*
X95022314Y-98507203D01*
X94540545Y-98185296D01*
X93972260Y-98072257D01*
X93403975Y-98185296D01*
X92922206Y-98507203D01*
X92702260Y-98836376D01*
X92482314Y-98507203D01*
X92000545Y-98185296D01*
X91432260Y-98072257D01*
X90863975Y-98185296D01*
X90382206Y-98507203D01*
X90060299Y-98988972D01*
X89947260Y-99557257D01*
X83252260Y-99557257D01*
X83252260Y-89756550D01*
X174246167Y-89756550D01*
X174359206Y-90324835D01*
X174681113Y-90806604D01*
X175162882Y-91128511D01*
X175731167Y-91241550D01*
X175789353Y-91241550D01*
X176357638Y-91128511D01*
X176839407Y-90806604D01*
X177030260Y-90520972D01*
X177221113Y-90806604D01*
X177702882Y-91128511D01*
X178271167Y-91241550D01*
X178329353Y-91241550D01*
X178897638Y-91128511D01*
X179379407Y-90806604D01*
X179568605Y-90523449D01*
X179568615Y-90523474D01*
X179958902Y-90951733D01*
X180483368Y-91198036D01*
X180713260Y-91077369D01*
X180713260Y-89883550D01*
X180693260Y-89883550D01*
X180693260Y-89629550D01*
X180713260Y-89629550D01*
X180713260Y-88435731D01*
X180967260Y-88435731D01*
X180967260Y-89629550D01*
X180987260Y-89629550D01*
X180987260Y-89883550D01*
X180967260Y-89883550D01*
X180967260Y-91077369D01*
X181197152Y-91198036D01*
X181721618Y-90951733D01*
X182111905Y-90523474D01*
X182111915Y-90523449D01*
X182301113Y-90806604D01*
X182782882Y-91128511D01*
X183351167Y-91241550D01*
X183409353Y-91241550D01*
X183977638Y-91128511D01*
X184459407Y-90806604D01*
X184781314Y-90324835D01*
X184894353Y-89756550D01*
X184781314Y-89188265D01*
X184459407Y-88706496D01*
X183977638Y-88384589D01*
X183409353Y-88271550D01*
X183351167Y-88271550D01*
X182782882Y-88384589D01*
X182301113Y-88706496D01*
X182111915Y-88989651D01*
X182111905Y-88989626D01*
X181721618Y-88561367D01*
X181197152Y-88315064D01*
X180967260Y-88435731D01*
X180713260Y-88435731D01*
X180483368Y-88315064D01*
X179958902Y-88561367D01*
X179568615Y-88989626D01*
X179568605Y-88989651D01*
X179379407Y-88706496D01*
X178897638Y-88384589D01*
X178329353Y-88271550D01*
X178271167Y-88271550D01*
X177702882Y-88384589D01*
X177221113Y-88706496D01*
X177030260Y-88992128D01*
X176839407Y-88706496D01*
X176357638Y-88384589D01*
X175789353Y-88271550D01*
X175731167Y-88271550D01*
X175162882Y-88384589D01*
X174681113Y-88706496D01*
X174359206Y-89188265D01*
X174246167Y-89756550D01*
X83252260Y-89756550D01*
X83252260Y-81609802D01*
X175981946Y-81609802D01*
X176256922Y-82275293D01*
X176765639Y-82784899D01*
X177430649Y-83061035D01*
X178150712Y-83061664D01*
X178784082Y-82799960D01*
X178522575Y-83429739D01*
X178521946Y-84149802D01*
X178796922Y-84815293D01*
X179305639Y-85324899D01*
X179970649Y-85601035D01*
X180690712Y-85601664D01*
X181356203Y-85326688D01*
X181865809Y-84817971D01*
X182141945Y-84152961D01*
X182142574Y-83432898D01*
X181880870Y-82799528D01*
X182510649Y-83061035D01*
X183230712Y-83061664D01*
X183896203Y-82786688D01*
X184405809Y-82277971D01*
X184681945Y-81612961D01*
X184682574Y-80892898D01*
X184407598Y-80227407D01*
X183898881Y-79717801D01*
X183233871Y-79441665D01*
X182513808Y-79441036D01*
X181880438Y-79702740D01*
X182141945Y-79072961D01*
X182142574Y-78352898D01*
X181867598Y-77687407D01*
X181358881Y-77177801D01*
X180693871Y-76901665D01*
X179973808Y-76901036D01*
X179308317Y-77176012D01*
X178798711Y-77684729D01*
X178522575Y-78349739D01*
X178521946Y-79069802D01*
X178783650Y-79703172D01*
X178153871Y-79441665D01*
X177433808Y-79441036D01*
X176768317Y-79716012D01*
X176258711Y-80224729D01*
X175982575Y-80889739D01*
X175981946Y-81609802D01*
X83252260Y-81609802D01*
X83252260Y-66537257D01*
X87407260Y-66537257D01*
X87407260Y-66595443D01*
X87520299Y-67163728D01*
X87842206Y-67645497D01*
X88323975Y-67967404D01*
X88892260Y-68080443D01*
X89460545Y-67967404D01*
X89942314Y-67645497D01*
X90162260Y-67316324D01*
X90382206Y-67645497D01*
X90863975Y-67967404D01*
X91432260Y-68080443D01*
X92000545Y-67967404D01*
X92482314Y-67645497D01*
X92702260Y-67316324D01*
X92922206Y-67645497D01*
X93403975Y-67967404D01*
X93972260Y-68080443D01*
X94540545Y-67967404D01*
X95022314Y-67645497D01*
X95249962Y-67304797D01*
X95317077Y-67447708D01*
X95745336Y-67837995D01*
X96155370Y-68007826D01*
X96385260Y-67886505D01*
X96385260Y-66693350D01*
X96639260Y-66693350D01*
X96639260Y-67886505D01*
X96869150Y-68007826D01*
X97279184Y-67837995D01*
X97707443Y-67447708D01*
X97782260Y-67288396D01*
X97857077Y-67447708D01*
X98285336Y-67837995D01*
X98695370Y-68007826D01*
X98925260Y-67886505D01*
X98925260Y-66693350D01*
X99179260Y-66693350D01*
X99179260Y-67886505D01*
X99409150Y-68007826D01*
X99819184Y-67837995D01*
X100247443Y-67447708D01*
X100493746Y-66923242D01*
X100373079Y-66693350D01*
X99179260Y-66693350D01*
X98925260Y-66693350D01*
X96639260Y-66693350D01*
X96385260Y-66693350D01*
X96365260Y-66693350D01*
X96365260Y-66537257D01*
X110267260Y-66537257D01*
X110267260Y-66595443D01*
X110380299Y-67163728D01*
X110702206Y-67645497D01*
X111183975Y-67967404D01*
X111752260Y-68080443D01*
X112320545Y-67967404D01*
X112802314Y-67645497D01*
X113022260Y-67316324D01*
X113242206Y-67645497D01*
X113723975Y-67967404D01*
X114292260Y-68080443D01*
X114860545Y-67967404D01*
X115342314Y-67645497D01*
X115562260Y-67316324D01*
X115782206Y-67645497D01*
X116263975Y-67967404D01*
X116832260Y-68080443D01*
X117400545Y-67967404D01*
X117882314Y-67645497D01*
X118109962Y-67304797D01*
X118177077Y-67447708D01*
X118605336Y-67837995D01*
X119015370Y-68007826D01*
X119245260Y-67886505D01*
X119245260Y-66693350D01*
X119499260Y-66693350D01*
X119499260Y-67886505D01*
X119729150Y-68007826D01*
X120139184Y-67837995D01*
X120567443Y-67447708D01*
X120642260Y-67288396D01*
X120717077Y-67447708D01*
X121145336Y-67837995D01*
X121555370Y-68007826D01*
X121785260Y-67886505D01*
X121785260Y-66693350D01*
X122039260Y-66693350D01*
X122039260Y-67886505D01*
X122269150Y-68007826D01*
X122679184Y-67837995D01*
X123107443Y-67447708D01*
X123353746Y-66923242D01*
X123233079Y-66693350D01*
X122039260Y-66693350D01*
X121785260Y-66693350D01*
X119499260Y-66693350D01*
X119245260Y-66693350D01*
X119225260Y-66693350D01*
X119225260Y-66537257D01*
X133127260Y-66537257D01*
X133127260Y-66595443D01*
X133240299Y-67163728D01*
X133562206Y-67645497D01*
X134043975Y-67967404D01*
X134612260Y-68080443D01*
X135180545Y-67967404D01*
X135662314Y-67645497D01*
X135882260Y-67316324D01*
X136102206Y-67645497D01*
X136583975Y-67967404D01*
X137152260Y-68080443D01*
X137720545Y-67967404D01*
X138202314Y-67645497D01*
X138422260Y-67316324D01*
X138642206Y-67645497D01*
X139123975Y-67967404D01*
X139692260Y-68080443D01*
X140260545Y-67967404D01*
X140742314Y-67645497D01*
X140969962Y-67304797D01*
X141037077Y-67447708D01*
X141465336Y-67837995D01*
X141875370Y-68007826D01*
X142105260Y-67886505D01*
X142105260Y-66693350D01*
X142359260Y-66693350D01*
X142359260Y-67886505D01*
X142589150Y-68007826D01*
X142999184Y-67837995D01*
X143427443Y-67447708D01*
X143502260Y-67288396D01*
X143577077Y-67447708D01*
X144005336Y-67837995D01*
X144415370Y-68007826D01*
X144645260Y-67886505D01*
X144645260Y-66693350D01*
X144899260Y-66693350D01*
X144899260Y-67886505D01*
X145129150Y-68007826D01*
X145539184Y-67837995D01*
X145967443Y-67447708D01*
X146213746Y-66923242D01*
X146093079Y-66693350D01*
X144899260Y-66693350D01*
X144645260Y-66693350D01*
X142359260Y-66693350D01*
X142105260Y-66693350D01*
X142085260Y-66693350D01*
X142085260Y-66537257D01*
X155987260Y-66537257D01*
X155987260Y-66595443D01*
X156100299Y-67163728D01*
X156422206Y-67645497D01*
X156903975Y-67967404D01*
X157472260Y-68080443D01*
X158040545Y-67967404D01*
X158522314Y-67645497D01*
X158742260Y-67316324D01*
X158962206Y-67645497D01*
X159443975Y-67967404D01*
X160012260Y-68080443D01*
X160580545Y-67967404D01*
X161062314Y-67645497D01*
X161282260Y-67316324D01*
X161502206Y-67645497D01*
X161983975Y-67967404D01*
X162552260Y-68080443D01*
X163120545Y-67967404D01*
X163602314Y-67645497D01*
X163829962Y-67304797D01*
X163897077Y-67447708D01*
X164325336Y-67837995D01*
X164735370Y-68007826D01*
X164965260Y-67886505D01*
X164965260Y-66693350D01*
X165219260Y-66693350D01*
X165219260Y-67886505D01*
X165449150Y-68007826D01*
X165859184Y-67837995D01*
X166287443Y-67447708D01*
X166362260Y-67288396D01*
X166437077Y-67447708D01*
X166865336Y-67837995D01*
X167275370Y-68007826D01*
X167505260Y-67886505D01*
X167505260Y-66693350D01*
X167759260Y-66693350D01*
X167759260Y-67886505D01*
X167989150Y-68007826D01*
X168399184Y-67837995D01*
X168827443Y-67447708D01*
X169073746Y-66923242D01*
X168953079Y-66693350D01*
X167759260Y-66693350D01*
X167505260Y-66693350D01*
X165219260Y-66693350D01*
X164965260Y-66693350D01*
X164945260Y-66693350D01*
X164945260Y-66439350D01*
X164965260Y-66439350D01*
X164965260Y-65246195D01*
X165219260Y-65246195D01*
X165219260Y-66439350D01*
X167505260Y-66439350D01*
X167505260Y-65246195D01*
X167759260Y-65246195D01*
X167759260Y-66439350D01*
X168953079Y-66439350D01*
X169031574Y-66289802D01*
X175981946Y-66289802D01*
X176256922Y-66955293D01*
X176765639Y-67464899D01*
X177430649Y-67741035D01*
X178150712Y-67741664D01*
X178784082Y-67479960D01*
X178522575Y-68109739D01*
X178521946Y-68829802D01*
X178796922Y-69495293D01*
X179305639Y-70004899D01*
X179970649Y-70281035D01*
X180690712Y-70281664D01*
X181356203Y-70006688D01*
X181865809Y-69497971D01*
X182141945Y-68832961D01*
X182142574Y-68112898D01*
X181880870Y-67479528D01*
X182510649Y-67741035D01*
X183230712Y-67741664D01*
X183896203Y-67466688D01*
X184405809Y-66957971D01*
X184681945Y-66292961D01*
X184682574Y-65572898D01*
X184407598Y-64907407D01*
X183898881Y-64397801D01*
X183233871Y-64121665D01*
X182513808Y-64121036D01*
X181880438Y-64382740D01*
X182141945Y-63752961D01*
X182142574Y-63032898D01*
X181867598Y-62367407D01*
X181358881Y-61857801D01*
X180693871Y-61581665D01*
X179973808Y-61581036D01*
X179308317Y-61856012D01*
X178798711Y-62364729D01*
X178522575Y-63029739D01*
X178521946Y-63749802D01*
X178783650Y-64383172D01*
X178153871Y-64121665D01*
X177433808Y-64121036D01*
X176768317Y-64396012D01*
X176258711Y-64904729D01*
X175982575Y-65569739D01*
X175981946Y-66289802D01*
X169031574Y-66289802D01*
X169073746Y-66209458D01*
X168827443Y-65684992D01*
X168399184Y-65294705D01*
X167989150Y-65124874D01*
X167759260Y-65246195D01*
X167505260Y-65246195D01*
X167275370Y-65124874D01*
X166865336Y-65294705D01*
X166437077Y-65684992D01*
X166362260Y-65844304D01*
X166287443Y-65684992D01*
X165859184Y-65294705D01*
X165449150Y-65124874D01*
X165219260Y-65246195D01*
X164965260Y-65246195D01*
X164735370Y-65124874D01*
X164325336Y-65294705D01*
X163897077Y-65684992D01*
X163829962Y-65827903D01*
X163602314Y-65487203D01*
X163120545Y-65165296D01*
X162552260Y-65052257D01*
X161983975Y-65165296D01*
X161502206Y-65487203D01*
X161282260Y-65816376D01*
X161062314Y-65487203D01*
X160580545Y-65165296D01*
X160012260Y-65052257D01*
X159443975Y-65165296D01*
X158962206Y-65487203D01*
X158742260Y-65816376D01*
X158522314Y-65487203D01*
X158040545Y-65165296D01*
X157472260Y-65052257D01*
X156903975Y-65165296D01*
X156422206Y-65487203D01*
X156100299Y-65968972D01*
X155987260Y-66537257D01*
X142085260Y-66537257D01*
X142085260Y-66439350D01*
X142105260Y-66439350D01*
X142105260Y-65246195D01*
X142359260Y-65246195D01*
X142359260Y-66439350D01*
X144645260Y-66439350D01*
X144645260Y-65246195D01*
X144899260Y-65246195D01*
X144899260Y-66439350D01*
X146093079Y-66439350D01*
X146213746Y-66209458D01*
X145967443Y-65684992D01*
X145539184Y-65294705D01*
X145129150Y-65124874D01*
X144899260Y-65246195D01*
X144645260Y-65246195D01*
X144415370Y-65124874D01*
X144005336Y-65294705D01*
X143577077Y-65684992D01*
X143502260Y-65844304D01*
X143427443Y-65684992D01*
X142999184Y-65294705D01*
X142589150Y-65124874D01*
X142359260Y-65246195D01*
X142105260Y-65246195D01*
X141875370Y-65124874D01*
X141465336Y-65294705D01*
X141037077Y-65684992D01*
X140969962Y-65827903D01*
X140742314Y-65487203D01*
X140260545Y-65165296D01*
X139692260Y-65052257D01*
X139123975Y-65165296D01*
X138642206Y-65487203D01*
X138422260Y-65816376D01*
X138202314Y-65487203D01*
X137720545Y-65165296D01*
X137152260Y-65052257D01*
X136583975Y-65165296D01*
X136102206Y-65487203D01*
X135882260Y-65816376D01*
X135662314Y-65487203D01*
X135180545Y-65165296D01*
X134612260Y-65052257D01*
X134043975Y-65165296D01*
X133562206Y-65487203D01*
X133240299Y-65968972D01*
X133127260Y-66537257D01*
X119225260Y-66537257D01*
X119225260Y-66439350D01*
X119245260Y-66439350D01*
X119245260Y-65246195D01*
X119499260Y-65246195D01*
X119499260Y-66439350D01*
X121785260Y-66439350D01*
X121785260Y-65246195D01*
X122039260Y-65246195D01*
X122039260Y-66439350D01*
X123233079Y-66439350D01*
X123353746Y-66209458D01*
X123107443Y-65684992D01*
X122679184Y-65294705D01*
X122269150Y-65124874D01*
X122039260Y-65246195D01*
X121785260Y-65246195D01*
X121555370Y-65124874D01*
X121145336Y-65294705D01*
X120717077Y-65684992D01*
X120642260Y-65844304D01*
X120567443Y-65684992D01*
X120139184Y-65294705D01*
X119729150Y-65124874D01*
X119499260Y-65246195D01*
X119245260Y-65246195D01*
X119015370Y-65124874D01*
X118605336Y-65294705D01*
X118177077Y-65684992D01*
X118109962Y-65827903D01*
X117882314Y-65487203D01*
X117400545Y-65165296D01*
X116832260Y-65052257D01*
X116263975Y-65165296D01*
X115782206Y-65487203D01*
X115562260Y-65816376D01*
X115342314Y-65487203D01*
X114860545Y-65165296D01*
X114292260Y-65052257D01*
X113723975Y-65165296D01*
X113242206Y-65487203D01*
X113022260Y-65816376D01*
X112802314Y-65487203D01*
X112320545Y-65165296D01*
X111752260Y-65052257D01*
X111183975Y-65165296D01*
X110702206Y-65487203D01*
X110380299Y-65968972D01*
X110267260Y-66537257D01*
X96365260Y-66537257D01*
X96365260Y-66439350D01*
X96385260Y-66439350D01*
X96385260Y-65246195D01*
X96639260Y-65246195D01*
X96639260Y-66439350D01*
X98925260Y-66439350D01*
X98925260Y-65246195D01*
X99179260Y-65246195D01*
X99179260Y-66439350D01*
X100373079Y-66439350D01*
X100493746Y-66209458D01*
X100247443Y-65684992D01*
X99819184Y-65294705D01*
X99409150Y-65124874D01*
X99179260Y-65246195D01*
X98925260Y-65246195D01*
X98695370Y-65124874D01*
X98285336Y-65294705D01*
X97857077Y-65684992D01*
X97782260Y-65844304D01*
X97707443Y-65684992D01*
X97279184Y-65294705D01*
X96869150Y-65124874D01*
X96639260Y-65246195D01*
X96385260Y-65246195D01*
X96155370Y-65124874D01*
X95745336Y-65294705D01*
X95317077Y-65684992D01*
X95249962Y-65827903D01*
X95022314Y-65487203D01*
X94540545Y-65165296D01*
X93972260Y-65052257D01*
X93403975Y-65165296D01*
X92922206Y-65487203D01*
X92702260Y-65816376D01*
X92482314Y-65487203D01*
X92000545Y-65165296D01*
X91432260Y-65052257D01*
X90863975Y-65165296D01*
X90382206Y-65487203D01*
X90162260Y-65816376D01*
X89942314Y-65487203D01*
X89460545Y-65165296D01*
X88892260Y-65052257D01*
X88323975Y-65165296D01*
X87842206Y-65487203D01*
X87520299Y-65968972D01*
X87407260Y-66537257D01*
X83252260Y-66537257D01*
X83252260Y-55493242D01*
X83640774Y-55493242D01*
X83887077Y-56017708D01*
X84315336Y-56407995D01*
X84725370Y-56577826D01*
X84955260Y-56456505D01*
X84955260Y-55263350D01*
X83761441Y-55263350D01*
X83640774Y-55493242D01*
X83252260Y-55493242D01*
X83252260Y-54779458D01*
X83640774Y-54779458D01*
X83761441Y-55009350D01*
X84955260Y-55009350D01*
X84955260Y-53816195D01*
X85209260Y-53816195D01*
X85209260Y-55009350D01*
X85229260Y-55009350D01*
X85229260Y-55263350D01*
X85209260Y-55263350D01*
X85209260Y-56456505D01*
X85439150Y-56577826D01*
X85849184Y-56407995D01*
X86277443Y-56017708D01*
X86344558Y-55874797D01*
X86572206Y-56215497D01*
X87053975Y-56537404D01*
X87622260Y-56650443D01*
X88190545Y-56537404D01*
X88672314Y-56215497D01*
X88892260Y-55886324D01*
X89112206Y-56215497D01*
X89593975Y-56537404D01*
X90162260Y-56650443D01*
X90730545Y-56537404D01*
X91212314Y-56215497D01*
X91432260Y-55886324D01*
X91652206Y-56215497D01*
X92133975Y-56537404D01*
X92702260Y-56650443D01*
X93270545Y-56537404D01*
X93752314Y-56215497D01*
X93780110Y-56173898D01*
X93789098Y-56221667D01*
X93928170Y-56437791D01*
X94140370Y-56582781D01*
X94392260Y-56633790D01*
X96092260Y-56633790D01*
X96327577Y-56589512D01*
X96543701Y-56450440D01*
X96688691Y-56238240D01*
X96707642Y-56144655D01*
X174716934Y-56144655D01*
X175003303Y-56837722D01*
X175533099Y-57368443D01*
X176225665Y-57656022D01*
X176975565Y-57656676D01*
X177668632Y-57370307D01*
X178199353Y-56840511D01*
X178486932Y-56147945D01*
X178487011Y-56057100D01*
X179717260Y-56057100D01*
X179717260Y-57147660D01*
X179813933Y-57381049D01*
X179992562Y-57559677D01*
X180225951Y-57656350D01*
X181316510Y-57656350D01*
X181475260Y-57497600D01*
X181475260Y-55898350D01*
X181729260Y-55898350D01*
X181729260Y-57497600D01*
X181888010Y-57656350D01*
X182978569Y-57656350D01*
X183211958Y-57559677D01*
X183390587Y-57381049D01*
X183412933Y-57327100D01*
X185197260Y-57327100D01*
X185197260Y-58017660D01*
X185293933Y-58251049D01*
X185472562Y-58429677D01*
X185705951Y-58526350D01*
X186396510Y-58526350D01*
X186555260Y-58367600D01*
X186555260Y-57168350D01*
X186809260Y-57168350D01*
X186809260Y-58367600D01*
X186968010Y-58526350D01*
X187658569Y-58526350D01*
X187891958Y-58429677D01*
X188070587Y-58251049D01*
X188167260Y-58017660D01*
X188167260Y-57327100D01*
X188008510Y-57168350D01*
X186809260Y-57168350D01*
X186555260Y-57168350D01*
X185356010Y-57168350D01*
X185197260Y-57327100D01*
X183412933Y-57327100D01*
X183487260Y-57147660D01*
X183487260Y-56065040D01*
X185197260Y-56065040D01*
X185197260Y-56755600D01*
X185356010Y-56914350D01*
X186555260Y-56914350D01*
X186555260Y-54628350D01*
X186809260Y-54628350D01*
X186809260Y-56914350D01*
X188008510Y-56914350D01*
X188167260Y-56755600D01*
X188167260Y-56065040D01*
X188070587Y-55831651D01*
X187891958Y-55653023D01*
X187682382Y-55566214D01*
X187953905Y-55268274D01*
X188123736Y-54858240D01*
X188002415Y-54628350D01*
X186809260Y-54628350D01*
X186555260Y-54628350D01*
X185362105Y-54628350D01*
X185240784Y-54858240D01*
X185410615Y-55268274D01*
X185682138Y-55566214D01*
X185472562Y-55653023D01*
X185293933Y-55831651D01*
X185197260Y-56065040D01*
X183487260Y-56065040D01*
X183487260Y-56057100D01*
X183328510Y-55898350D01*
X181729260Y-55898350D01*
X181475260Y-55898350D01*
X179876010Y-55898350D01*
X179717260Y-56057100D01*
X178487011Y-56057100D01*
X178487586Y-55398045D01*
X178201217Y-54704978D01*
X177891820Y-54395040D01*
X179717260Y-54395040D01*
X179717260Y-55485600D01*
X179876010Y-55644350D01*
X181475260Y-55644350D01*
X181475260Y-54045100D01*
X181729260Y-54045100D01*
X181729260Y-55644350D01*
X183328510Y-55644350D01*
X183487260Y-55485600D01*
X183487260Y-54395040D01*
X183390587Y-54161651D01*
X183373396Y-54144460D01*
X185240784Y-54144460D01*
X185362105Y-54374350D01*
X186555260Y-54374350D01*
X186555260Y-53180531D01*
X186809260Y-53180531D01*
X186809260Y-54374350D01*
X188002415Y-54374350D01*
X188123736Y-54144460D01*
X187953905Y-53734426D01*
X187563618Y-53306167D01*
X187039152Y-53059864D01*
X186809260Y-53180531D01*
X186555260Y-53180531D01*
X186325368Y-53059864D01*
X185800902Y-53306167D01*
X185410615Y-53734426D01*
X185240784Y-54144460D01*
X183373396Y-54144460D01*
X183211958Y-53983023D01*
X182978569Y-53886350D01*
X181888010Y-53886350D01*
X181729260Y-54045100D01*
X181475260Y-54045100D01*
X181316510Y-53886350D01*
X180225951Y-53886350D01*
X179992562Y-53983023D01*
X179813933Y-54161651D01*
X179717260Y-54395040D01*
X177891820Y-54395040D01*
X177671421Y-54174257D01*
X176978855Y-53886678D01*
X176228955Y-53886024D01*
X175535888Y-54172393D01*
X175005167Y-54702189D01*
X174717588Y-55394755D01*
X174716934Y-56144655D01*
X96707642Y-56144655D01*
X96739700Y-55986350D01*
X96739700Y-54286350D01*
X96695422Y-54051033D01*
X96556350Y-53834909D01*
X96344150Y-53689919D01*
X96092260Y-53638910D01*
X94392260Y-53638910D01*
X94156943Y-53683188D01*
X93940819Y-53822260D01*
X93795829Y-54034460D01*
X93782174Y-54101891D01*
X93752314Y-54057203D01*
X93270545Y-53735296D01*
X92702260Y-53622257D01*
X92133975Y-53735296D01*
X91652206Y-54057203D01*
X91432260Y-54386376D01*
X91212314Y-54057203D01*
X90730545Y-53735296D01*
X90162260Y-53622257D01*
X89593975Y-53735296D01*
X89112206Y-54057203D01*
X88892260Y-54386376D01*
X88672314Y-54057203D01*
X88190545Y-53735296D01*
X87622260Y-53622257D01*
X87053975Y-53735296D01*
X86572206Y-54057203D01*
X86344558Y-54397903D01*
X86277443Y-54254992D01*
X85849184Y-53864705D01*
X85439150Y-53694874D01*
X85209260Y-53816195D01*
X84955260Y-53816195D01*
X84725370Y-53694874D01*
X84315336Y-53864705D01*
X83887077Y-54254992D01*
X83640774Y-54779458D01*
X83252260Y-54779458D01*
X83252260Y-50131350D01*
X191052260Y-50131350D01*
X191052260Y-117291350D01*
M02*
