G04 #@! TF.FileFunction,Copper,L1,Top,Signal*
%FSLAX46Y46*%
G04 Gerber Fmt 4.6, Leading zero omitted, Abs format (unit mm)*
G04 Created by KiCad (PCBNEW 4.0.6) date 04/25/17 15:32:40*
%MOMM*%
%LPD*%
G01*
G04 APERTURE LIST*
%ADD10C,0.100000*%
%ADD11R,1.700000X1.700000*%
%ADD12O,1.700000X1.700000*%
%ADD13C,2.350000*%
%ADD14C,1.200000*%
%ADD15C,1.524000*%
%ADD16R,2.500000X2.500000*%
%ADD17C,2.500000*%
G04 APERTURE END LIST*
D10*
D11*
X149860000Y-142240000D03*
D12*
X152400000Y-142240000D03*
D13*
X138430000Y-135890000D03*
X143510000Y-135890000D03*
X128190000Y-135890000D03*
X123110000Y-135890000D03*
X140970000Y-133350000D03*
X140970000Y-138430000D03*
X125650000Y-133350000D03*
X125650000Y-138430000D03*
D14*
X117144800Y-138938000D03*
X117144800Y-136398000D03*
X117144800Y-133858000D03*
X117144800Y-131318000D03*
D11*
X151765000Y-50800000D03*
D12*
X151765000Y-48260000D03*
X151765000Y-45720000D03*
X151765000Y-43180000D03*
X151765000Y-40640000D03*
D15*
X140335000Y-115570000D03*
X140335000Y-118110000D03*
X140335000Y-120650000D03*
X140335000Y-123190000D03*
X140335000Y-113030000D03*
X107315000Y-115570000D03*
X107315000Y-118110000D03*
X107315000Y-120650000D03*
X107315000Y-123190000D03*
X140335000Y-92710000D03*
X140335000Y-95250000D03*
X140335000Y-97790000D03*
X140335000Y-100330000D03*
X140335000Y-90170000D03*
X107315000Y-92710000D03*
X107315000Y-95250000D03*
X107315000Y-97790000D03*
X107315000Y-100330000D03*
X140335000Y-69850000D03*
X140335000Y-72390000D03*
X140335000Y-74930000D03*
X140335000Y-77470000D03*
X140335000Y-67310000D03*
X107315000Y-69850000D03*
X107315000Y-72390000D03*
X107315000Y-74930000D03*
X107315000Y-77470000D03*
X140335000Y-46990000D03*
X140335000Y-49530000D03*
X140335000Y-52070000D03*
X140335000Y-54610000D03*
X140335000Y-44450000D03*
X107315000Y-46990000D03*
X107315000Y-49530000D03*
X107315000Y-52070000D03*
X107315000Y-54610000D03*
D16*
X151130000Y-137160000D03*
D17*
X151130000Y-132160000D03*
D16*
X93980000Y-139272000D03*
D17*
X93980000Y-144272000D03*
D16*
X93980000Y-109808000D03*
D17*
X93980000Y-114808000D03*
D16*
X93980000Y-98505000D03*
D17*
X93980000Y-103505000D03*
D16*
X93980000Y-75645000D03*
D17*
X93980000Y-80645000D03*
D16*
X93980000Y-52658000D03*
D17*
X93980000Y-57658000D03*
D16*
X93980000Y-121238000D03*
D17*
X93980000Y-126238000D03*
D16*
X93980000Y-86995000D03*
D17*
X93980000Y-91995000D03*
D16*
X93980000Y-64088000D03*
D17*
X93980000Y-69088000D03*
D16*
X93980000Y-41482000D03*
D17*
X93980000Y-46482000D03*
M02*
