M48
;DRILL file {KiCad 4.0.6} date 04/25/17 17:02:39
;FORMAT={-:-/ absolute / inch / decimal}
FMAT,2
INCH,TZ
T1C0.039
T2C0.051
T3C0.053
%
G90
G05
M72
T1
X3.3497Y-2.1707
X3.4497Y-2.1707
X3.4997Y-2.6207
X3.5497Y-2.1707
X3.5997Y-2.6207
X3.5997Y-3.9207
X3.6497Y-2.1707
X3.6997Y-2.6207
X3.6997Y-3.9207
X3.7497Y-2.1707
X3.7997Y-2.6207
X3.7997Y-3.9207
X3.8997Y-2.6207
X3.8997Y-3.9207
X4.3997Y-2.6207
X4.4997Y-2.6207
X4.4997Y-3.9207
X4.5997Y-2.6207
X4.5997Y-3.9207
X4.6997Y-2.6207
X4.6997Y-3.9207
X4.7997Y-2.6207
X4.7997Y-3.9207
X5.2997Y-2.6207
X5.3997Y-2.6207
X5.3997Y-3.9207
X5.4997Y-2.6207
X5.4997Y-3.9207
X5.5997Y-2.6207
X5.5997Y-3.9207
X5.6997Y-2.6207
X5.6997Y-3.9207
X6.1997Y-2.6207
X6.2997Y-2.6207
X6.2997Y-3.9207
X6.3997Y-2.6207
X6.3997Y-3.9207
X6.4997Y-2.6207
X6.4997Y-3.9207
X6.5997Y-2.6207
X6.5997Y-3.9207
X6.9197Y-3.5337
X7.0197Y-3.5337
X7.1197Y-3.5337
X7.2197Y-3.5337
X7.3497Y-2.1457
X7.3497Y-2.2457
T2
X3.3828Y-4.4457
X3.5797Y-4.4457
X3.8228Y-4.4457
X4.0197Y-4.4457
X4.2728Y-4.4457
X4.4697Y-4.4457
X4.7278Y-4.4457
X4.9247Y-4.4457
X5.1747Y-4.4457
X5.3715Y-4.4457
X5.6278Y-4.4457
X5.8247Y-4.4457
X6.0728Y-4.4457
X6.2697Y-4.4457
X6.5228Y-4.4457
X6.7197Y-4.4457
X6.9528Y-2.1957
X7.1497Y-2.1957
X7.2328Y-4.4457
X7.4297Y-4.4457
T3
X6.9997Y-2.5957
X6.9997Y-3.1989
X7.0997Y-2.4957
X7.0997Y-2.6957
X7.0997Y-3.0989
X7.0997Y-3.2989
X7.1997Y-2.5957
X7.1997Y-3.1989
T0
M30
