G04 #@! TF.FileFunction,Legend,Top*
%FSLAX46Y46*%
G04 Gerber Fmt 4.6, Leading zero omitted, Abs format (unit mm)*
G04 Created by KiCad (PCBNEW 4.0.6) date 05/02/17 16:18:44*
%MOMM*%
%LPD*%
G01*
G04 APERTURE LIST*
%ADD10C,0.100000*%
%ADD11C,0.200000*%
%ADD12C,0.300000*%
%ADD13C,0.150000*%
%ADD14C,0.120000*%
%ADD15C,0.010000*%
G04 APERTURE END LIST*
D10*
D11*
X100700619Y-60109524D02*
X100700619Y-60738095D01*
X100700619Y-60423809D02*
X99600619Y-60423809D01*
X99757762Y-60528571D01*
X99862524Y-60633333D01*
X99914905Y-60738095D01*
X99705381Y-59690476D02*
X99653000Y-59638095D01*
X99600619Y-59533333D01*
X99600619Y-59271429D01*
X99653000Y-59166667D01*
X99705381Y-59114286D01*
X99810143Y-59061905D01*
X99914905Y-59061905D01*
X100072048Y-59114286D01*
X100700619Y-59742857D01*
X100700619Y-59061905D01*
X99600619Y-58747619D02*
X100700619Y-58380952D01*
X99600619Y-58014286D01*
X100700619Y-57071429D02*
X100700619Y-57700000D01*
X100700619Y-57385714D02*
X99600619Y-57385714D01*
X99757762Y-57490476D01*
X99862524Y-57595238D01*
X99914905Y-57700000D01*
X100281571Y-56600000D02*
X100281571Y-55761905D01*
X100124429Y-55238095D02*
X100124429Y-54871429D01*
X100700619Y-54714286D02*
X100700619Y-55238095D01*
X99600619Y-55238095D01*
X99600619Y-54714286D01*
X100700619Y-54242857D02*
X99600619Y-54242857D01*
X100700619Y-53614286D01*
X99600619Y-53614286D01*
X98160619Y-60109524D02*
X98160619Y-60738095D01*
X98160619Y-60423809D02*
X97060619Y-60423809D01*
X97217762Y-60528571D01*
X97322524Y-60633333D01*
X97374905Y-60738095D01*
X97165381Y-59690476D02*
X97113000Y-59638095D01*
X97060619Y-59533333D01*
X97060619Y-59271429D01*
X97113000Y-59166667D01*
X97165381Y-59114286D01*
X97270143Y-59061905D01*
X97374905Y-59061905D01*
X97532048Y-59114286D01*
X98160619Y-59742857D01*
X98160619Y-59061905D01*
X97060619Y-58747619D02*
X98160619Y-58380952D01*
X97060619Y-58014286D01*
X97165381Y-57700000D02*
X97113000Y-57647619D01*
X97060619Y-57542857D01*
X97060619Y-57280953D01*
X97113000Y-57176191D01*
X97165381Y-57123810D01*
X97270143Y-57071429D01*
X97374905Y-57071429D01*
X97532048Y-57123810D01*
X98160619Y-57752381D01*
X98160619Y-57071429D01*
X97741571Y-56600000D02*
X97741571Y-55761905D01*
X97584429Y-55238095D02*
X97584429Y-54871429D01*
X98160619Y-54714286D02*
X98160619Y-55238095D01*
X97060619Y-55238095D01*
X97060619Y-54714286D01*
X98160619Y-54242857D02*
X97060619Y-54242857D01*
X98160619Y-53614286D01*
X97060619Y-53614286D01*
X95493619Y-60109524D02*
X95493619Y-60738095D01*
X95493619Y-60423809D02*
X94393619Y-60423809D01*
X94550762Y-60528571D01*
X94655524Y-60633333D01*
X94707905Y-60738095D01*
X94498381Y-59690476D02*
X94446000Y-59638095D01*
X94393619Y-59533333D01*
X94393619Y-59271429D01*
X94446000Y-59166667D01*
X94498381Y-59114286D01*
X94603143Y-59061905D01*
X94707905Y-59061905D01*
X94865048Y-59114286D01*
X95493619Y-59742857D01*
X95493619Y-59061905D01*
X94393619Y-58747619D02*
X95493619Y-58380952D01*
X94393619Y-58014286D01*
X94393619Y-57752381D02*
X94393619Y-57071429D01*
X94812667Y-57438095D01*
X94812667Y-57280953D01*
X94865048Y-57176191D01*
X94917429Y-57123810D01*
X95022190Y-57071429D01*
X95284095Y-57071429D01*
X95388857Y-57123810D01*
X95441238Y-57176191D01*
X95493619Y-57280953D01*
X95493619Y-57595238D01*
X95441238Y-57700000D01*
X95388857Y-57752381D01*
X95074571Y-56600000D02*
X95074571Y-55761905D01*
X94917429Y-55238095D02*
X94917429Y-54871429D01*
X95493619Y-54714286D02*
X95493619Y-55238095D01*
X94393619Y-55238095D01*
X94393619Y-54714286D01*
X95493619Y-54242857D02*
X94393619Y-54242857D01*
X95493619Y-53614286D01*
X94393619Y-53614286D01*
D12*
X91634571Y-60431714D02*
X93134571Y-59931714D01*
X91634571Y-59431714D01*
X92706000Y-59003143D02*
X92706000Y-58288857D01*
X93134571Y-59146000D02*
X91634571Y-58646000D01*
X93134571Y-58146000D01*
X92563143Y-57646000D02*
X92563143Y-56503143D01*
X92348857Y-55788857D02*
X92348857Y-55288857D01*
X93134571Y-55074571D02*
X93134571Y-55788857D01*
X91634571Y-55788857D01*
X91634571Y-55074571D01*
X93134571Y-54431714D02*
X91634571Y-54431714D01*
X93134571Y-53574571D01*
X91634571Y-53574571D01*
X93979905Y-112918857D02*
X92456095Y-112918857D01*
X93218000Y-113680762D02*
X93218000Y-112156952D01*
X184403905Y-112918857D02*
X182880095Y-112918857D01*
X183642000Y-113680762D02*
X183642000Y-112156952D01*
X186308905Y-90312857D02*
X184785095Y-90312857D01*
X185547000Y-91074762D02*
X185547000Y-89550952D01*
X166369905Y-106441857D02*
X164846095Y-106441857D01*
X165608000Y-107203762D02*
X165608000Y-105679952D01*
X143763905Y-106441857D02*
X142240095Y-106441857D01*
X143002000Y-107203762D02*
X143002000Y-105679952D01*
X120776905Y-106441857D02*
X119253095Y-106441857D01*
X120015000Y-107203762D02*
X120015000Y-105679952D01*
X188467905Y-106441857D02*
X186944095Y-106441857D01*
X187706000Y-107203762D02*
X187706000Y-105679952D01*
X97408905Y-106441857D02*
X95885095Y-106441857D01*
X96647000Y-107203762D02*
X96647000Y-105679952D01*
X175513905Y-55260857D02*
X173990095Y-55260857D01*
X174752000Y-56022762D02*
X174752000Y-54498952D01*
X184463571Y-54720856D02*
X185463571Y-54363713D01*
X184463571Y-54006571D01*
X183963571Y-53149428D02*
X183963571Y-53006571D01*
X184035000Y-52863714D01*
X184106429Y-52792285D01*
X184249286Y-52720856D01*
X184535000Y-52649428D01*
X184892143Y-52649428D01*
X185177857Y-52720856D01*
X185320714Y-52792285D01*
X185392143Y-52863714D01*
X185463571Y-53006571D01*
X185463571Y-53149428D01*
X185392143Y-53292285D01*
X185320714Y-53363714D01*
X185177857Y-53435142D01*
X184892143Y-53506571D01*
X184535000Y-53506571D01*
X184249286Y-53435142D01*
X184106429Y-53363714D01*
X184035000Y-53292285D01*
X183963571Y-53149428D01*
X185320714Y-52006571D02*
X185392143Y-51935143D01*
X185463571Y-52006571D01*
X185392143Y-52078000D01*
X185320714Y-52006571D01*
X185463571Y-52006571D01*
X185463571Y-50506571D02*
X185463571Y-51363714D01*
X185463571Y-50935142D02*
X183963571Y-50935142D01*
X184177857Y-51077999D01*
X184320714Y-51220857D01*
X184392143Y-51363714D01*
X107275832Y-106614921D02*
X106418689Y-106614921D01*
X106847261Y-106614921D02*
X106847261Y-105114921D01*
X106704404Y-105329207D01*
X106561546Y-105472064D01*
X106418689Y-105543493D01*
X107847260Y-105257779D02*
X107918689Y-105186350D01*
X108061546Y-105114921D01*
X108418689Y-105114921D01*
X108561546Y-105186350D01*
X108632975Y-105257779D01*
X108704403Y-105400636D01*
X108704403Y-105543493D01*
X108632975Y-105757779D01*
X107775832Y-106614921D01*
X108704403Y-106614921D01*
X109132974Y-105114921D02*
X109632974Y-106614921D01*
X110132974Y-105114921D01*
X110632974Y-106043493D02*
X111775831Y-106043493D01*
X112347260Y-105114921D02*
X113275831Y-105114921D01*
X112775831Y-105686350D01*
X112990117Y-105686350D01*
X113132974Y-105757779D01*
X113204403Y-105829207D01*
X113275831Y-105972064D01*
X113275831Y-106329207D01*
X113204403Y-106472064D01*
X113132974Y-106543493D01*
X112990117Y-106614921D01*
X112561545Y-106614921D01*
X112418688Y-106543493D01*
X112347260Y-106472064D01*
X161103571Y-53712857D02*
X162603571Y-53212857D01*
X161103571Y-52712857D01*
X162603571Y-52212857D02*
X161103571Y-52212857D01*
X162603571Y-51498571D02*
X161103571Y-51498571D01*
X162603571Y-50641428D01*
X161103571Y-50641428D01*
X83566546Y-105114921D02*
X84066546Y-106614921D01*
X84566546Y-105114921D01*
X84995117Y-106186350D02*
X85709403Y-106186350D01*
X84852260Y-106614921D02*
X85352260Y-105114921D01*
X85852260Y-106614921D01*
X86352260Y-106043493D02*
X87495117Y-106043493D01*
X88995117Y-106614921D02*
X88137974Y-106614921D01*
X88566546Y-106614921D02*
X88566546Y-105114921D01*
X88423689Y-105329207D01*
X88280831Y-105472064D01*
X88137974Y-105543493D01*
X130135832Y-106614921D02*
X129278689Y-106614921D01*
X129707261Y-106614921D02*
X129707261Y-105114921D01*
X129564404Y-105329207D01*
X129421546Y-105472064D01*
X129278689Y-105543493D01*
X130707260Y-105257779D02*
X130778689Y-105186350D01*
X130921546Y-105114921D01*
X131278689Y-105114921D01*
X131421546Y-105186350D01*
X131492975Y-105257779D01*
X131564403Y-105400636D01*
X131564403Y-105543493D01*
X131492975Y-105757779D01*
X130635832Y-106614921D01*
X131564403Y-106614921D01*
X131992974Y-105114921D02*
X132492974Y-106614921D01*
X132992974Y-105114921D01*
X133492974Y-106043493D02*
X134635831Y-106043493D01*
X135278688Y-105257779D02*
X135350117Y-105186350D01*
X135492974Y-105114921D01*
X135850117Y-105114921D01*
X135992974Y-105186350D01*
X136064403Y-105257779D01*
X136135831Y-105400636D01*
X136135831Y-105543493D01*
X136064403Y-105757779D01*
X135207260Y-106614921D01*
X136135831Y-106614921D01*
X152995832Y-106614921D02*
X152138689Y-106614921D01*
X152567261Y-106614921D02*
X152567261Y-105114921D01*
X152424404Y-105329207D01*
X152281546Y-105472064D01*
X152138689Y-105543493D01*
X153567260Y-105257779D02*
X153638689Y-105186350D01*
X153781546Y-105114921D01*
X154138689Y-105114921D01*
X154281546Y-105186350D01*
X154352975Y-105257779D01*
X154424403Y-105400636D01*
X154424403Y-105543493D01*
X154352975Y-105757779D01*
X153495832Y-106614921D01*
X154424403Y-106614921D01*
X154852974Y-105114921D02*
X155352974Y-106614921D01*
X155852974Y-105114921D01*
X156352974Y-106043493D02*
X157495831Y-106043493D01*
X158995831Y-106614921D02*
X158138688Y-106614921D01*
X158567260Y-106614921D02*
X158567260Y-105114921D01*
X158424403Y-105329207D01*
X158281545Y-105472064D01*
X158138688Y-105543493D01*
X175609690Y-105140321D02*
X174895404Y-105140321D01*
X174823975Y-105854607D01*
X174895404Y-105783179D01*
X175038261Y-105711750D01*
X175395404Y-105711750D01*
X175538261Y-105783179D01*
X175609690Y-105854607D01*
X175681118Y-105997464D01*
X175681118Y-106354607D01*
X175609690Y-106497464D01*
X175538261Y-106568893D01*
X175395404Y-106640321D01*
X175038261Y-106640321D01*
X174895404Y-106568893D01*
X174823975Y-106497464D01*
X176109689Y-105140321D02*
X176609689Y-106640321D01*
X177109689Y-105140321D01*
X177609689Y-106068893D02*
X178752546Y-106068893D01*
X180252546Y-106640321D02*
X179395403Y-106640321D01*
X179823975Y-106640321D02*
X179823975Y-105140321D01*
X179681118Y-105354607D01*
X179538260Y-105497464D01*
X179395403Y-105568893D01*
D13*
X184470260Y-104656550D02*
X184470260Y-88656550D01*
X174650260Y-104656550D02*
X184470260Y-104656550D01*
X174660260Y-88646550D02*
X174650260Y-104656550D01*
X184480260Y-90856550D02*
X174660260Y-90856550D01*
X174660260Y-90856550D02*
X174660260Y-88656550D01*
X174660260Y-88656550D02*
X184480260Y-88656550D01*
X184480260Y-88656550D02*
X184480260Y-90856550D01*
D14*
X98806000Y-50359000D02*
X88586000Y-50359000D01*
X88586000Y-50359000D02*
X88586000Y-53019000D01*
X88586000Y-53019000D02*
X98806000Y-53019000D01*
X98806000Y-53019000D02*
X98806000Y-50359000D01*
X100076000Y-50359000D02*
X101406000Y-50359000D01*
X101406000Y-50359000D02*
X101406000Y-51689000D01*
D13*
X173347260Y-104666350D02*
X151757260Y-104666350D01*
X173347260Y-61486350D02*
X173347260Y-104666350D01*
X151757260Y-61486350D02*
X173347260Y-61486350D01*
X151757260Y-104666350D02*
X151757260Y-61486350D01*
X150487260Y-104666350D02*
X128897260Y-104666350D01*
X150487260Y-61486350D02*
X150487260Y-104666350D01*
X128897260Y-61486350D02*
X150487260Y-61486350D01*
X128897260Y-104666350D02*
X128897260Y-61486350D01*
X127627260Y-104666350D02*
X106037260Y-104666350D01*
X127627260Y-61486350D02*
X127627260Y-104666350D01*
X106037260Y-61486350D02*
X127627260Y-61486350D01*
X106037260Y-104666350D02*
X106037260Y-61486350D01*
X104767260Y-104666350D02*
X83177260Y-104666350D01*
X104767260Y-61486350D02*
X104767260Y-104666350D01*
X83177260Y-61486350D02*
X104767260Y-61486350D01*
X83177260Y-104666350D02*
X83177260Y-61486350D01*
X168235000Y-51145000D02*
X168235000Y-50645000D01*
X167735000Y-55145000D02*
G75*
G03X167735000Y-55145000I-2000000J0D01*
G01*
X172735000Y-55145000D02*
G75*
G03X172735000Y-55145000I-2000000J0D01*
G01*
X173235000Y-52645000D02*
X163235000Y-52645000D01*
X173235000Y-57545000D02*
X163235000Y-57545000D01*
X173235000Y-51145000D02*
X163235000Y-51145000D01*
X173235000Y-50645000D02*
X163235000Y-50645000D01*
X163235000Y-50645000D02*
X163235000Y-60445000D01*
X163235000Y-60445000D02*
X173235000Y-60445000D01*
X173235000Y-60445000D02*
X173235000Y-50645000D01*
X190032000Y-117021350D02*
X190032000Y-117521350D01*
X194532000Y-113021350D02*
G75*
G03X194532000Y-113021350I-2000000J0D01*
G01*
X189532000Y-113021350D02*
G75*
G03X189532000Y-113021350I-2000000J0D01*
G01*
X185032000Y-115521350D02*
X195032000Y-115521350D01*
X185032000Y-110621350D02*
X195032000Y-110621350D01*
X185032000Y-117021350D02*
X195032000Y-117021350D01*
X185032000Y-117521350D02*
X195032000Y-117521350D01*
X195032000Y-117521350D02*
X195032000Y-107721350D01*
X195032000Y-107721350D02*
X185032000Y-107721350D01*
X185032000Y-107721350D02*
X185032000Y-117521350D01*
X156750260Y-117021350D02*
X156750260Y-117521350D01*
X161250260Y-113021350D02*
G75*
G03X161250260Y-113021350I-2000000J0D01*
G01*
X156250260Y-113021350D02*
G75*
G03X156250260Y-113021350I-2000000J0D01*
G01*
X151750260Y-115521350D02*
X161750260Y-115521350D01*
X151750260Y-110621350D02*
X161750260Y-110621350D01*
X151750260Y-117021350D02*
X161750260Y-117021350D01*
X151750260Y-117521350D02*
X161750260Y-117521350D01*
X161750260Y-117521350D02*
X161750260Y-107721350D01*
X161750260Y-107721350D02*
X151750260Y-107721350D01*
X151750260Y-107721350D02*
X151750260Y-117521350D01*
X145447260Y-117021350D02*
X145447260Y-117521350D01*
X149947260Y-113021350D02*
G75*
G03X149947260Y-113021350I-2000000J0D01*
G01*
X144947260Y-113021350D02*
G75*
G03X144947260Y-113021350I-2000000J0D01*
G01*
X140447260Y-115521350D02*
X150447260Y-115521350D01*
X140447260Y-110621350D02*
X150447260Y-110621350D01*
X140447260Y-117021350D02*
X150447260Y-117021350D01*
X140447260Y-117521350D02*
X150447260Y-117521350D01*
X150447260Y-117521350D02*
X150447260Y-107721350D01*
X150447260Y-107721350D02*
X140447260Y-107721350D01*
X140447260Y-107721350D02*
X140447260Y-117521350D01*
X122587260Y-117021350D02*
X122587260Y-117521350D01*
X127087260Y-113021350D02*
G75*
G03X127087260Y-113021350I-2000000J0D01*
G01*
X122087260Y-113021350D02*
G75*
G03X122087260Y-113021350I-2000000J0D01*
G01*
X117587260Y-115521350D02*
X127587260Y-115521350D01*
X117587260Y-110621350D02*
X127587260Y-110621350D01*
X117587260Y-117021350D02*
X127587260Y-117021350D01*
X117587260Y-117521350D02*
X127587260Y-117521350D01*
X127587260Y-117521350D02*
X127587260Y-107721350D01*
X127587260Y-107721350D02*
X117587260Y-107721350D01*
X117587260Y-107721350D02*
X117587260Y-117521350D01*
X99600260Y-117021350D02*
X99600260Y-117521350D01*
X104100260Y-113021350D02*
G75*
G03X104100260Y-113021350I-2000000J0D01*
G01*
X99100260Y-113021350D02*
G75*
G03X99100260Y-113021350I-2000000J0D01*
G01*
X94600260Y-115521350D02*
X104600260Y-115521350D01*
X94600260Y-110621350D02*
X104600260Y-110621350D01*
X94600260Y-117021350D02*
X104600260Y-117021350D01*
X94600260Y-117521350D02*
X104600260Y-117521350D01*
X104600260Y-117521350D02*
X104600260Y-107721350D01*
X104600260Y-107721350D02*
X94600260Y-107721350D01*
X94600260Y-107721350D02*
X94600260Y-117521350D01*
X168180260Y-117021350D02*
X168180260Y-117521350D01*
X172680260Y-113021350D02*
G75*
G03X172680260Y-113021350I-2000000J0D01*
G01*
X167680260Y-113021350D02*
G75*
G03X167680260Y-113021350I-2000000J0D01*
G01*
X163180260Y-115521350D02*
X173180260Y-115521350D01*
X163180260Y-110621350D02*
X173180260Y-110621350D01*
X163180260Y-117021350D02*
X173180260Y-117021350D01*
X163180260Y-117521350D02*
X173180260Y-117521350D01*
X173180260Y-117521350D02*
X173180260Y-107721350D01*
X173180260Y-107721350D02*
X163180260Y-107721350D01*
X163180260Y-107721350D02*
X163180260Y-117521350D01*
X133937260Y-117021350D02*
X133937260Y-117521350D01*
X138437260Y-113021350D02*
G75*
G03X138437260Y-113021350I-2000000J0D01*
G01*
X133437260Y-113021350D02*
G75*
G03X133437260Y-113021350I-2000000J0D01*
G01*
X128937260Y-115521350D02*
X138937260Y-115521350D01*
X128937260Y-110621350D02*
X138937260Y-110621350D01*
X128937260Y-117021350D02*
X138937260Y-117021350D01*
X128937260Y-117521350D02*
X138937260Y-117521350D01*
X138937260Y-117521350D02*
X138937260Y-107721350D01*
X138937260Y-107721350D02*
X128937260Y-107721350D01*
X128937260Y-107721350D02*
X128937260Y-117521350D01*
X111030260Y-117021350D02*
X111030260Y-117521350D01*
X115530260Y-113021350D02*
G75*
G03X115530260Y-113021350I-2000000J0D01*
G01*
X110530260Y-113021350D02*
G75*
G03X110530260Y-113021350I-2000000J0D01*
G01*
X106030260Y-115521350D02*
X116030260Y-115521350D01*
X106030260Y-110621350D02*
X116030260Y-110621350D01*
X106030260Y-117021350D02*
X116030260Y-117021350D01*
X106030260Y-117521350D02*
X116030260Y-117521350D01*
X116030260Y-117521350D02*
X116030260Y-107721350D01*
X116030260Y-107721350D02*
X106030260Y-107721350D01*
X106030260Y-107721350D02*
X106030260Y-117521350D01*
X194790500Y-96560000D02*
X195290500Y-96560000D01*
X192790500Y-94060000D02*
G75*
G03X192790500Y-94060000I-2000000J0D01*
G01*
X192790500Y-99060000D02*
G75*
G03X192790500Y-99060000I-2000000J0D01*
G01*
X193290500Y-101560000D02*
X193290500Y-91560000D01*
X188390500Y-101560000D02*
X188390500Y-91560000D01*
X194790500Y-101560000D02*
X194790500Y-91560000D01*
X195290500Y-101560000D02*
X195290500Y-91560000D01*
X195290500Y-91560000D02*
X185490500Y-91560000D01*
X185490500Y-91560000D02*
X185490500Y-101560000D01*
X185490500Y-101560000D02*
X195290500Y-101560000D01*
D15*
G36*
X157337691Y-55863967D02*
X157281813Y-55863371D01*
X157233701Y-55862153D01*
X157190888Y-55860129D01*
X157150910Y-55857117D01*
X157111299Y-55852933D01*
X157069591Y-55847393D01*
X157023320Y-55840315D01*
X156973729Y-55832140D01*
X156803374Y-55797088D01*
X156636464Y-55750074D01*
X156473588Y-55691512D01*
X156315334Y-55621814D01*
X156162292Y-55541393D01*
X156015051Y-55450663D01*
X155874200Y-55350037D01*
X155740329Y-55239927D01*
X155614027Y-55120747D01*
X155495883Y-54992910D01*
X155386487Y-54856829D01*
X155286427Y-54712916D01*
X155218901Y-54601903D01*
X155135296Y-54443635D01*
X155063873Y-54281851D01*
X155004618Y-54116501D01*
X154957519Y-53947531D01*
X154922564Y-53774890D01*
X154899740Y-53598525D01*
X154889033Y-53418383D01*
X154890082Y-53243512D01*
X154902843Y-53068632D01*
X154927995Y-52895581D01*
X154965285Y-52724998D01*
X155014459Y-52557522D01*
X155075266Y-52393793D01*
X155147451Y-52234449D01*
X155230762Y-52080129D01*
X155324945Y-51931474D01*
X155429747Y-51789122D01*
X155499246Y-51705120D01*
X155536565Y-51663690D01*
X155581116Y-51617060D01*
X155630359Y-51567682D01*
X155681751Y-51518010D01*
X155732753Y-51470496D01*
X155780823Y-51427593D01*
X155823419Y-51391755D01*
X155826258Y-51389471D01*
X155969477Y-51282614D01*
X156118922Y-51186468D01*
X156273903Y-51101411D01*
X156433735Y-51027825D01*
X156584650Y-50970522D01*
X156756736Y-50918235D01*
X156930915Y-50878348D01*
X157106702Y-50850924D01*
X157283611Y-50836029D01*
X157461155Y-50833729D01*
X157572075Y-50838704D01*
X157749113Y-50856888D01*
X157923504Y-50887339D01*
X158094668Y-50929792D01*
X158262022Y-50983983D01*
X158424984Y-51049647D01*
X158582973Y-51126520D01*
X158735406Y-51214338D01*
X158881702Y-51312835D01*
X159021278Y-51421748D01*
X159153553Y-51540813D01*
X159184890Y-51571611D01*
X159305984Y-51701532D01*
X159416786Y-51838535D01*
X159517119Y-51982021D01*
X159606805Y-52131391D01*
X159685666Y-52286047D01*
X159753525Y-52445389D01*
X159795891Y-52567547D01*
X159548160Y-52567547D01*
X159546906Y-52558758D01*
X159541079Y-52540285D01*
X159531412Y-52513985D01*
X159518639Y-52481710D01*
X159503494Y-52445316D01*
X159486711Y-52406657D01*
X159469068Y-52367685D01*
X159451474Y-52331923D01*
X159428551Y-52288661D01*
X159402050Y-52240945D01*
X159373719Y-52191819D01*
X159345309Y-52144329D01*
X159318567Y-52101521D01*
X159299983Y-52073325D01*
X159212766Y-51954249D01*
X159116149Y-51838848D01*
X159011999Y-51728994D01*
X158902185Y-51626565D01*
X158788575Y-51533434D01*
X158695062Y-51466111D01*
X158634351Y-51430982D01*
X158562319Y-51399697D01*
X158479826Y-51372503D01*
X158387732Y-51349648D01*
X158286896Y-51331382D01*
X158184850Y-51318612D01*
X158151605Y-51316464D01*
X158109796Y-51315524D01*
X158063498Y-51315747D01*
X158016787Y-51317085D01*
X157973737Y-51319491D01*
X157952591Y-51321303D01*
X157868957Y-51333282D01*
X157791513Y-51351598D01*
X157721696Y-51375755D01*
X157660944Y-51405255D01*
X157610997Y-51439354D01*
X157578215Y-51469999D01*
X157553722Y-51502499D01*
X157535830Y-51539938D01*
X157522849Y-51585400D01*
X157518289Y-51608559D01*
X157504489Y-51669385D01*
X157486021Y-51719738D01*
X157461926Y-51761292D01*
X157431249Y-51795720D01*
X157395471Y-51823132D01*
X157361864Y-51842425D01*
X157324472Y-51858969D01*
X157282261Y-51872920D01*
X157234200Y-51884433D01*
X157179258Y-51893664D01*
X157116403Y-51900770D01*
X157044603Y-51905905D01*
X156962826Y-51909225D01*
X156870041Y-51910888D01*
X156812594Y-51911152D01*
X156663510Y-51912889D01*
X156526515Y-51917909D01*
X156401648Y-51926211D01*
X156288947Y-51937790D01*
X156188450Y-51952644D01*
X156121100Y-51965934D01*
X155995604Y-51999338D01*
X155875991Y-52042239D01*
X155763118Y-52094165D01*
X155657842Y-52154643D01*
X155561019Y-52223201D01*
X155473505Y-52299365D01*
X155423902Y-52350638D01*
X155400656Y-52376369D01*
X155467191Y-52342978D01*
X155501115Y-52326586D01*
X155538227Y-52309665D01*
X155572986Y-52294700D01*
X155590444Y-52287679D01*
X155636161Y-52271755D01*
X155690795Y-52255508D01*
X155750625Y-52239855D01*
X155811931Y-52225717D01*
X155870990Y-52214011D01*
X155921075Y-52206054D01*
X155965740Y-52201419D01*
X156019820Y-52197959D01*
X156080084Y-52195702D01*
X156143300Y-52194676D01*
X156206235Y-52194906D01*
X156265658Y-52196422D01*
X156318336Y-52199250D01*
X156352875Y-52202408D01*
X156520943Y-52227522D01*
X156691657Y-52264163D01*
X156863378Y-52311904D01*
X157034467Y-52370318D01*
X157112780Y-52400765D01*
X157139152Y-52411487D01*
X157163957Y-52421749D01*
X157188662Y-52432207D01*
X157214735Y-52443519D01*
X157243645Y-52456340D01*
X157276860Y-52471328D01*
X157315848Y-52489138D01*
X157362078Y-52510429D01*
X157417017Y-52535856D01*
X157475238Y-52562873D01*
X157643531Y-52635656D01*
X157810596Y-52697220D01*
X157976056Y-52747540D01*
X158139534Y-52786593D01*
X158300654Y-52814353D01*
X158459038Y-52830794D01*
X158614310Y-52835893D01*
X158766092Y-52829624D01*
X158914008Y-52811963D01*
X159057681Y-52782884D01*
X159196733Y-52742362D01*
X159330788Y-52690373D01*
X159340276Y-52686169D01*
X159371173Y-52671671D01*
X159404668Y-52654794D01*
X159438760Y-52636682D01*
X159471449Y-52618474D01*
X159500735Y-52601313D01*
X159524617Y-52586341D01*
X159541095Y-52574697D01*
X159548160Y-52567547D01*
X159795891Y-52567547D01*
X159810205Y-52608819D01*
X159855527Y-52775737D01*
X159889314Y-52945545D01*
X159911389Y-53117644D01*
X159921573Y-53291436D01*
X159920196Y-53419410D01*
X159689399Y-53419410D01*
X159689365Y-53344318D01*
X159687560Y-53267312D01*
X159684079Y-53191616D01*
X159679014Y-53120458D01*
X159672460Y-53057062D01*
X159668588Y-53028850D01*
X159661614Y-52985926D01*
X159653448Y-52940597D01*
X159644460Y-52894461D01*
X159635021Y-52849117D01*
X159625501Y-52806163D01*
X159616269Y-52767196D01*
X159607695Y-52733816D01*
X159600149Y-52707621D01*
X159594001Y-52690209D01*
X159589621Y-52683178D01*
X159588642Y-52683393D01*
X159585399Y-52689355D01*
X159576773Y-52705900D01*
X159563142Y-52732291D01*
X159544881Y-52767792D01*
X159522368Y-52811668D01*
X159495979Y-52863181D01*
X159466092Y-52921596D01*
X159433083Y-52986176D01*
X159397330Y-53056185D01*
X159359208Y-53130887D01*
X159319096Y-53209546D01*
X159277369Y-53291425D01*
X159275982Y-53294148D01*
X159234195Y-53376098D01*
X159193977Y-53454824D01*
X159155705Y-53529591D01*
X159119760Y-53599666D01*
X159086520Y-53664315D01*
X159056364Y-53722803D01*
X159029671Y-53774397D01*
X159006821Y-53818363D01*
X158988193Y-53853966D01*
X158974165Y-53880473D01*
X158965117Y-53897149D01*
X158961428Y-53903261D01*
X158961401Y-53903274D01*
X158957626Y-53898078D01*
X158948420Y-53882589D01*
X158934293Y-53857737D01*
X158915757Y-53824454D01*
X158893323Y-53783669D01*
X158867502Y-53736315D01*
X158838804Y-53683321D01*
X158807742Y-53625618D01*
X158774826Y-53564137D01*
X158763549Y-53542999D01*
X158730130Y-53480429D01*
X158698414Y-53421287D01*
X158668910Y-53366508D01*
X158642129Y-53317029D01*
X158618581Y-53273785D01*
X158598774Y-53237710D01*
X158583220Y-53209740D01*
X158572428Y-53190811D01*
X158566907Y-53181857D01*
X158566329Y-53181250D01*
X158562869Y-53186769D01*
X158553972Y-53202831D01*
X158540028Y-53228696D01*
X158521426Y-53263620D01*
X158498556Y-53306864D01*
X158471808Y-53357686D01*
X158441571Y-53415344D01*
X158408235Y-53479098D01*
X158372189Y-53548205D01*
X158333823Y-53621924D01*
X158293526Y-53699514D01*
X158258522Y-53767038D01*
X158216883Y-53847394D01*
X158176853Y-53924575D01*
X158138823Y-53997832D01*
X158103182Y-54066417D01*
X158070322Y-54129581D01*
X158040632Y-54186577D01*
X158014501Y-54236656D01*
X157992321Y-54279069D01*
X157974481Y-54313069D01*
X157961371Y-54337907D01*
X157953381Y-54352835D01*
X157950917Y-54357164D01*
X157947388Y-54352327D01*
X157938322Y-54337048D01*
X157924141Y-54312100D01*
X157905269Y-54278257D01*
X157882128Y-54236292D01*
X157855141Y-54186978D01*
X157824731Y-54131087D01*
X157791321Y-54069393D01*
X157755333Y-54002669D01*
X157717191Y-53931688D01*
X157677317Y-53857224D01*
X157670500Y-53844469D01*
X157630364Y-53769406D01*
X157591911Y-53697616D01*
X157555564Y-53629881D01*
X157521746Y-53566981D01*
X157490877Y-53509697D01*
X157463380Y-53458811D01*
X157439678Y-53415102D01*
X157420192Y-53379353D01*
X157405344Y-53352343D01*
X157395557Y-53334855D01*
X157391252Y-53327668D01*
X157391100Y-53327526D01*
X157387641Y-53333009D01*
X157378952Y-53348692D01*
X157365612Y-53373481D01*
X157348199Y-53406280D01*
X157327292Y-53445996D01*
X157303469Y-53491534D01*
X157277308Y-53541800D01*
X157249387Y-53595698D01*
X157248542Y-53597333D01*
X157220552Y-53651329D01*
X157194262Y-53701719D01*
X157170256Y-53747409D01*
X157149117Y-53787304D01*
X157131428Y-53820310D01*
X157117773Y-53845332D01*
X157108734Y-53861276D01*
X157104894Y-53867046D01*
X157104867Y-53867050D01*
X157101306Y-53861579D01*
X157092208Y-53845695D01*
X157078005Y-53820196D01*
X157059130Y-53785878D01*
X157036016Y-53743539D01*
X157009096Y-53693976D01*
X156978803Y-53637984D01*
X156945569Y-53576362D01*
X156909828Y-53509906D01*
X156872012Y-53439413D01*
X156834951Y-53370163D01*
X156795279Y-53295966D01*
X156757095Y-53224584D01*
X156720856Y-53156866D01*
X156687015Y-53093661D01*
X156656027Y-53035817D01*
X156628348Y-52984183D01*
X156604431Y-52939606D01*
X156584732Y-52902935D01*
X156569706Y-52875018D01*
X156559806Y-52856704D01*
X156555687Y-52849188D01*
X156542047Y-52825100D01*
X156411377Y-53077788D01*
X156384278Y-53129968D01*
X156358866Y-53178471D01*
X156335746Y-53222172D01*
X156315525Y-53259944D01*
X156298808Y-53290662D01*
X156286202Y-53313200D01*
X156278314Y-53326431D01*
X156275833Y-53329568D01*
X156271827Y-53323951D01*
X156262572Y-53308367D01*
X156248767Y-53284069D01*
X156231107Y-53252311D01*
X156210291Y-53214347D01*
X156187016Y-53171431D01*
X156162030Y-53124913D01*
X156137080Y-53078528D01*
X156113940Y-53036051D01*
X156093294Y-52998699D01*
X156075830Y-52967689D01*
X156062232Y-52944239D01*
X156053187Y-52929567D01*
X156049380Y-52924889D01*
X156049368Y-52924900D01*
X156045919Y-52931010D01*
X156037108Y-52947522D01*
X156023396Y-52973551D01*
X156005244Y-53008212D01*
X155983112Y-53050622D01*
X155957463Y-53099895D01*
X155928756Y-53155147D01*
X155897454Y-53215494D01*
X155864016Y-53280050D01*
X155828904Y-53347932D01*
X155827779Y-53350106D01*
X155792659Y-53417970D01*
X155759210Y-53482446D01*
X155727889Y-53542661D01*
X155699155Y-53597742D01*
X155673468Y-53646813D01*
X155651286Y-53689000D01*
X155633067Y-53723429D01*
X155619270Y-53749227D01*
X155610353Y-53765518D01*
X155606776Y-53771428D01*
X155606750Y-53771436D01*
X155603135Y-53766053D01*
X155593702Y-53750536D01*
X155578962Y-53725760D01*
X155559429Y-53692602D01*
X155535613Y-53651936D01*
X155508027Y-53604639D01*
X155477182Y-53551586D01*
X155443591Y-53493654D01*
X155407766Y-53431717D01*
X155378491Y-53380999D01*
X155341288Y-53316662D01*
X155305880Y-53255765D01*
X155272779Y-53199169D01*
X155242501Y-53147738D01*
X155215559Y-53102334D01*
X155192466Y-53063819D01*
X155173736Y-53033056D01*
X155159882Y-53010906D01*
X155151418Y-52998233D01*
X155148880Y-52995490D01*
X155144656Y-53005980D01*
X155140430Y-53027501D01*
X155136330Y-53058382D01*
X155132483Y-53096956D01*
X155129018Y-53141552D01*
X155126061Y-53190502D01*
X155123742Y-53242136D01*
X155122188Y-53294786D01*
X155121527Y-53346782D01*
X155121514Y-53352700D01*
X155123170Y-53461915D01*
X155128648Y-53562520D01*
X155138349Y-53658136D01*
X155152680Y-53752385D01*
X155172042Y-53848887D01*
X155181369Y-53889275D01*
X155226007Y-54050744D01*
X155281489Y-54206179D01*
X155348241Y-54356552D01*
X155426689Y-54502835D01*
X155505803Y-54629050D01*
X155551306Y-54695032D01*
X155595492Y-54754730D01*
X155640784Y-54811067D01*
X155689607Y-54866964D01*
X155744386Y-54925344D01*
X155790544Y-54972223D01*
X155874574Y-55053135D01*
X155956034Y-55124953D01*
X156037888Y-55190011D01*
X156123098Y-55250648D01*
X156214629Y-55309199D01*
X156228912Y-55317842D01*
X156376327Y-55399179D01*
X156527965Y-55468810D01*
X156683166Y-55526755D01*
X156841270Y-55573030D01*
X157001615Y-55607654D01*
X157163543Y-55630645D01*
X157326391Y-55642020D01*
X157489499Y-55641798D01*
X157652206Y-55629997D01*
X157813853Y-55606634D01*
X157973778Y-55571728D01*
X158131321Y-55525296D01*
X158285822Y-55467357D01*
X158436619Y-55397929D01*
X158583052Y-55317029D01*
X158686500Y-55250950D01*
X158823234Y-55150789D01*
X158951297Y-55041636D01*
X159070352Y-54924065D01*
X159180063Y-54798650D01*
X159280092Y-54665964D01*
X159370104Y-54526583D01*
X159449760Y-54381080D01*
X159518726Y-54230029D01*
X159576663Y-54074004D01*
X159623235Y-53913579D01*
X159658105Y-53749329D01*
X159680938Y-53581827D01*
X159683780Y-53550945D01*
X159687569Y-53489361D01*
X159689399Y-53419410D01*
X159920196Y-53419410D01*
X159919690Y-53466320D01*
X159905561Y-53641699D01*
X159879009Y-53816973D01*
X159867671Y-53873833D01*
X159825175Y-54044910D01*
X159771260Y-54211102D01*
X159706381Y-54371969D01*
X159630993Y-54527074D01*
X159545551Y-54675979D01*
X159450509Y-54818244D01*
X159346322Y-54953433D01*
X159233445Y-55081106D01*
X159112333Y-55200827D01*
X158983440Y-55312155D01*
X158847222Y-55414654D01*
X158704132Y-55507885D01*
X158554626Y-55591410D01*
X158399158Y-55664790D01*
X158238183Y-55727588D01*
X158072157Y-55779365D01*
X157901533Y-55819683D01*
X157835600Y-55831905D01*
X157783368Y-55840640D01*
X157737611Y-55847661D01*
X157695890Y-55853151D01*
X157655768Y-55857292D01*
X157614809Y-55860265D01*
X157570573Y-55862253D01*
X157520625Y-55863437D01*
X157462527Y-55864000D01*
X157403800Y-55864125D01*
X157337691Y-55863967D01*
X157337691Y-55863967D01*
G37*
X157337691Y-55863967D02*
X157281813Y-55863371D01*
X157233701Y-55862153D01*
X157190888Y-55860129D01*
X157150910Y-55857117D01*
X157111299Y-55852933D01*
X157069591Y-55847393D01*
X157023320Y-55840315D01*
X156973729Y-55832140D01*
X156803374Y-55797088D01*
X156636464Y-55750074D01*
X156473588Y-55691512D01*
X156315334Y-55621814D01*
X156162292Y-55541393D01*
X156015051Y-55450663D01*
X155874200Y-55350037D01*
X155740329Y-55239927D01*
X155614027Y-55120747D01*
X155495883Y-54992910D01*
X155386487Y-54856829D01*
X155286427Y-54712916D01*
X155218901Y-54601903D01*
X155135296Y-54443635D01*
X155063873Y-54281851D01*
X155004618Y-54116501D01*
X154957519Y-53947531D01*
X154922564Y-53774890D01*
X154899740Y-53598525D01*
X154889033Y-53418383D01*
X154890082Y-53243512D01*
X154902843Y-53068632D01*
X154927995Y-52895581D01*
X154965285Y-52724998D01*
X155014459Y-52557522D01*
X155075266Y-52393793D01*
X155147451Y-52234449D01*
X155230762Y-52080129D01*
X155324945Y-51931474D01*
X155429747Y-51789122D01*
X155499246Y-51705120D01*
X155536565Y-51663690D01*
X155581116Y-51617060D01*
X155630359Y-51567682D01*
X155681751Y-51518010D01*
X155732753Y-51470496D01*
X155780823Y-51427593D01*
X155823419Y-51391755D01*
X155826258Y-51389471D01*
X155969477Y-51282614D01*
X156118922Y-51186468D01*
X156273903Y-51101411D01*
X156433735Y-51027825D01*
X156584650Y-50970522D01*
X156756736Y-50918235D01*
X156930915Y-50878348D01*
X157106702Y-50850924D01*
X157283611Y-50836029D01*
X157461155Y-50833729D01*
X157572075Y-50838704D01*
X157749113Y-50856888D01*
X157923504Y-50887339D01*
X158094668Y-50929792D01*
X158262022Y-50983983D01*
X158424984Y-51049647D01*
X158582973Y-51126520D01*
X158735406Y-51214338D01*
X158881702Y-51312835D01*
X159021278Y-51421748D01*
X159153553Y-51540813D01*
X159184890Y-51571611D01*
X159305984Y-51701532D01*
X159416786Y-51838535D01*
X159517119Y-51982021D01*
X159606805Y-52131391D01*
X159685666Y-52286047D01*
X159753525Y-52445389D01*
X159795891Y-52567547D01*
X159548160Y-52567547D01*
X159546906Y-52558758D01*
X159541079Y-52540285D01*
X159531412Y-52513985D01*
X159518639Y-52481710D01*
X159503494Y-52445316D01*
X159486711Y-52406657D01*
X159469068Y-52367685D01*
X159451474Y-52331923D01*
X159428551Y-52288661D01*
X159402050Y-52240945D01*
X159373719Y-52191819D01*
X159345309Y-52144329D01*
X159318567Y-52101521D01*
X159299983Y-52073325D01*
X159212766Y-51954249D01*
X159116149Y-51838848D01*
X159011999Y-51728994D01*
X158902185Y-51626565D01*
X158788575Y-51533434D01*
X158695062Y-51466111D01*
X158634351Y-51430982D01*
X158562319Y-51399697D01*
X158479826Y-51372503D01*
X158387732Y-51349648D01*
X158286896Y-51331382D01*
X158184850Y-51318612D01*
X158151605Y-51316464D01*
X158109796Y-51315524D01*
X158063498Y-51315747D01*
X158016787Y-51317085D01*
X157973737Y-51319491D01*
X157952591Y-51321303D01*
X157868957Y-51333282D01*
X157791513Y-51351598D01*
X157721696Y-51375755D01*
X157660944Y-51405255D01*
X157610997Y-51439354D01*
X157578215Y-51469999D01*
X157553722Y-51502499D01*
X157535830Y-51539938D01*
X157522849Y-51585400D01*
X157518289Y-51608559D01*
X157504489Y-51669385D01*
X157486021Y-51719738D01*
X157461926Y-51761292D01*
X157431249Y-51795720D01*
X157395471Y-51823132D01*
X157361864Y-51842425D01*
X157324472Y-51858969D01*
X157282261Y-51872920D01*
X157234200Y-51884433D01*
X157179258Y-51893664D01*
X157116403Y-51900770D01*
X157044603Y-51905905D01*
X156962826Y-51909225D01*
X156870041Y-51910888D01*
X156812594Y-51911152D01*
X156663510Y-51912889D01*
X156526515Y-51917909D01*
X156401648Y-51926211D01*
X156288947Y-51937790D01*
X156188450Y-51952644D01*
X156121100Y-51965934D01*
X155995604Y-51999338D01*
X155875991Y-52042239D01*
X155763118Y-52094165D01*
X155657842Y-52154643D01*
X155561019Y-52223201D01*
X155473505Y-52299365D01*
X155423902Y-52350638D01*
X155400656Y-52376369D01*
X155467191Y-52342978D01*
X155501115Y-52326586D01*
X155538227Y-52309665D01*
X155572986Y-52294700D01*
X155590444Y-52287679D01*
X155636161Y-52271755D01*
X155690795Y-52255508D01*
X155750625Y-52239855D01*
X155811931Y-52225717D01*
X155870990Y-52214011D01*
X155921075Y-52206054D01*
X155965740Y-52201419D01*
X156019820Y-52197959D01*
X156080084Y-52195702D01*
X156143300Y-52194676D01*
X156206235Y-52194906D01*
X156265658Y-52196422D01*
X156318336Y-52199250D01*
X156352875Y-52202408D01*
X156520943Y-52227522D01*
X156691657Y-52264163D01*
X156863378Y-52311904D01*
X157034467Y-52370318D01*
X157112780Y-52400765D01*
X157139152Y-52411487D01*
X157163957Y-52421749D01*
X157188662Y-52432207D01*
X157214735Y-52443519D01*
X157243645Y-52456340D01*
X157276860Y-52471328D01*
X157315848Y-52489138D01*
X157362078Y-52510429D01*
X157417017Y-52535856D01*
X157475238Y-52562873D01*
X157643531Y-52635656D01*
X157810596Y-52697220D01*
X157976056Y-52747540D01*
X158139534Y-52786593D01*
X158300654Y-52814353D01*
X158459038Y-52830794D01*
X158614310Y-52835893D01*
X158766092Y-52829624D01*
X158914008Y-52811963D01*
X159057681Y-52782884D01*
X159196733Y-52742362D01*
X159330788Y-52690373D01*
X159340276Y-52686169D01*
X159371173Y-52671671D01*
X159404668Y-52654794D01*
X159438760Y-52636682D01*
X159471449Y-52618474D01*
X159500735Y-52601313D01*
X159524617Y-52586341D01*
X159541095Y-52574697D01*
X159548160Y-52567547D01*
X159795891Y-52567547D01*
X159810205Y-52608819D01*
X159855527Y-52775737D01*
X159889314Y-52945545D01*
X159911389Y-53117644D01*
X159921573Y-53291436D01*
X159920196Y-53419410D01*
X159689399Y-53419410D01*
X159689365Y-53344318D01*
X159687560Y-53267312D01*
X159684079Y-53191616D01*
X159679014Y-53120458D01*
X159672460Y-53057062D01*
X159668588Y-53028850D01*
X159661614Y-52985926D01*
X159653448Y-52940597D01*
X159644460Y-52894461D01*
X159635021Y-52849117D01*
X159625501Y-52806163D01*
X159616269Y-52767196D01*
X159607695Y-52733816D01*
X159600149Y-52707621D01*
X159594001Y-52690209D01*
X159589621Y-52683178D01*
X159588642Y-52683393D01*
X159585399Y-52689355D01*
X159576773Y-52705900D01*
X159563142Y-52732291D01*
X159544881Y-52767792D01*
X159522368Y-52811668D01*
X159495979Y-52863181D01*
X159466092Y-52921596D01*
X159433083Y-52986176D01*
X159397330Y-53056185D01*
X159359208Y-53130887D01*
X159319096Y-53209546D01*
X159277369Y-53291425D01*
X159275982Y-53294148D01*
X159234195Y-53376098D01*
X159193977Y-53454824D01*
X159155705Y-53529591D01*
X159119760Y-53599666D01*
X159086520Y-53664315D01*
X159056364Y-53722803D01*
X159029671Y-53774397D01*
X159006821Y-53818363D01*
X158988193Y-53853966D01*
X158974165Y-53880473D01*
X158965117Y-53897149D01*
X158961428Y-53903261D01*
X158961401Y-53903274D01*
X158957626Y-53898078D01*
X158948420Y-53882589D01*
X158934293Y-53857737D01*
X158915757Y-53824454D01*
X158893323Y-53783669D01*
X158867502Y-53736315D01*
X158838804Y-53683321D01*
X158807742Y-53625618D01*
X158774826Y-53564137D01*
X158763549Y-53542999D01*
X158730130Y-53480429D01*
X158698414Y-53421287D01*
X158668910Y-53366508D01*
X158642129Y-53317029D01*
X158618581Y-53273785D01*
X158598774Y-53237710D01*
X158583220Y-53209740D01*
X158572428Y-53190811D01*
X158566907Y-53181857D01*
X158566329Y-53181250D01*
X158562869Y-53186769D01*
X158553972Y-53202831D01*
X158540028Y-53228696D01*
X158521426Y-53263620D01*
X158498556Y-53306864D01*
X158471808Y-53357686D01*
X158441571Y-53415344D01*
X158408235Y-53479098D01*
X158372189Y-53548205D01*
X158333823Y-53621924D01*
X158293526Y-53699514D01*
X158258522Y-53767038D01*
X158216883Y-53847394D01*
X158176853Y-53924575D01*
X158138823Y-53997832D01*
X158103182Y-54066417D01*
X158070322Y-54129581D01*
X158040632Y-54186577D01*
X158014501Y-54236656D01*
X157992321Y-54279069D01*
X157974481Y-54313069D01*
X157961371Y-54337907D01*
X157953381Y-54352835D01*
X157950917Y-54357164D01*
X157947388Y-54352327D01*
X157938322Y-54337048D01*
X157924141Y-54312100D01*
X157905269Y-54278257D01*
X157882128Y-54236292D01*
X157855141Y-54186978D01*
X157824731Y-54131087D01*
X157791321Y-54069393D01*
X157755333Y-54002669D01*
X157717191Y-53931688D01*
X157677317Y-53857224D01*
X157670500Y-53844469D01*
X157630364Y-53769406D01*
X157591911Y-53697616D01*
X157555564Y-53629881D01*
X157521746Y-53566981D01*
X157490877Y-53509697D01*
X157463380Y-53458811D01*
X157439678Y-53415102D01*
X157420192Y-53379353D01*
X157405344Y-53352343D01*
X157395557Y-53334855D01*
X157391252Y-53327668D01*
X157391100Y-53327526D01*
X157387641Y-53333009D01*
X157378952Y-53348692D01*
X157365612Y-53373481D01*
X157348199Y-53406280D01*
X157327292Y-53445996D01*
X157303469Y-53491534D01*
X157277308Y-53541800D01*
X157249387Y-53595698D01*
X157248542Y-53597333D01*
X157220552Y-53651329D01*
X157194262Y-53701719D01*
X157170256Y-53747409D01*
X157149117Y-53787304D01*
X157131428Y-53820310D01*
X157117773Y-53845332D01*
X157108734Y-53861276D01*
X157104894Y-53867046D01*
X157104867Y-53867050D01*
X157101306Y-53861579D01*
X157092208Y-53845695D01*
X157078005Y-53820196D01*
X157059130Y-53785878D01*
X157036016Y-53743539D01*
X157009096Y-53693976D01*
X156978803Y-53637984D01*
X156945569Y-53576362D01*
X156909828Y-53509906D01*
X156872012Y-53439413D01*
X156834951Y-53370163D01*
X156795279Y-53295966D01*
X156757095Y-53224584D01*
X156720856Y-53156866D01*
X156687015Y-53093661D01*
X156656027Y-53035817D01*
X156628348Y-52984183D01*
X156604431Y-52939606D01*
X156584732Y-52902935D01*
X156569706Y-52875018D01*
X156559806Y-52856704D01*
X156555687Y-52849188D01*
X156542047Y-52825100D01*
X156411377Y-53077788D01*
X156384278Y-53129968D01*
X156358866Y-53178471D01*
X156335746Y-53222172D01*
X156315525Y-53259944D01*
X156298808Y-53290662D01*
X156286202Y-53313200D01*
X156278314Y-53326431D01*
X156275833Y-53329568D01*
X156271827Y-53323951D01*
X156262572Y-53308367D01*
X156248767Y-53284069D01*
X156231107Y-53252311D01*
X156210291Y-53214347D01*
X156187016Y-53171431D01*
X156162030Y-53124913D01*
X156137080Y-53078528D01*
X156113940Y-53036051D01*
X156093294Y-52998699D01*
X156075830Y-52967689D01*
X156062232Y-52944239D01*
X156053187Y-52929567D01*
X156049380Y-52924889D01*
X156049368Y-52924900D01*
X156045919Y-52931010D01*
X156037108Y-52947522D01*
X156023396Y-52973551D01*
X156005244Y-53008212D01*
X155983112Y-53050622D01*
X155957463Y-53099895D01*
X155928756Y-53155147D01*
X155897454Y-53215494D01*
X155864016Y-53280050D01*
X155828904Y-53347932D01*
X155827779Y-53350106D01*
X155792659Y-53417970D01*
X155759210Y-53482446D01*
X155727889Y-53542661D01*
X155699155Y-53597742D01*
X155673468Y-53646813D01*
X155651286Y-53689000D01*
X155633067Y-53723429D01*
X155619270Y-53749227D01*
X155610353Y-53765518D01*
X155606776Y-53771428D01*
X155606750Y-53771436D01*
X155603135Y-53766053D01*
X155593702Y-53750536D01*
X155578962Y-53725760D01*
X155559429Y-53692602D01*
X155535613Y-53651936D01*
X155508027Y-53604639D01*
X155477182Y-53551586D01*
X155443591Y-53493654D01*
X155407766Y-53431717D01*
X155378491Y-53380999D01*
X155341288Y-53316662D01*
X155305880Y-53255765D01*
X155272779Y-53199169D01*
X155242501Y-53147738D01*
X155215559Y-53102334D01*
X155192466Y-53063819D01*
X155173736Y-53033056D01*
X155159882Y-53010906D01*
X155151418Y-52998233D01*
X155148880Y-52995490D01*
X155144656Y-53005980D01*
X155140430Y-53027501D01*
X155136330Y-53058382D01*
X155132483Y-53096956D01*
X155129018Y-53141552D01*
X155126061Y-53190502D01*
X155123742Y-53242136D01*
X155122188Y-53294786D01*
X155121527Y-53346782D01*
X155121514Y-53352700D01*
X155123170Y-53461915D01*
X155128648Y-53562520D01*
X155138349Y-53658136D01*
X155152680Y-53752385D01*
X155172042Y-53848887D01*
X155181369Y-53889275D01*
X155226007Y-54050744D01*
X155281489Y-54206179D01*
X155348241Y-54356552D01*
X155426689Y-54502835D01*
X155505803Y-54629050D01*
X155551306Y-54695032D01*
X155595492Y-54754730D01*
X155640784Y-54811067D01*
X155689607Y-54866964D01*
X155744386Y-54925344D01*
X155790544Y-54972223D01*
X155874574Y-55053135D01*
X155956034Y-55124953D01*
X156037888Y-55190011D01*
X156123098Y-55250648D01*
X156214629Y-55309199D01*
X156228912Y-55317842D01*
X156376327Y-55399179D01*
X156527965Y-55468810D01*
X156683166Y-55526755D01*
X156841270Y-55573030D01*
X157001615Y-55607654D01*
X157163543Y-55630645D01*
X157326391Y-55642020D01*
X157489499Y-55641798D01*
X157652206Y-55629997D01*
X157813853Y-55606634D01*
X157973778Y-55571728D01*
X158131321Y-55525296D01*
X158285822Y-55467357D01*
X158436619Y-55397929D01*
X158583052Y-55317029D01*
X158686500Y-55250950D01*
X158823234Y-55150789D01*
X158951297Y-55041636D01*
X159070352Y-54924065D01*
X159180063Y-54798650D01*
X159280092Y-54665964D01*
X159370104Y-54526583D01*
X159449760Y-54381080D01*
X159518726Y-54230029D01*
X159576663Y-54074004D01*
X159623235Y-53913579D01*
X159658105Y-53749329D01*
X159680938Y-53581827D01*
X159683780Y-53550945D01*
X159687569Y-53489361D01*
X159689399Y-53419410D01*
X159920196Y-53419410D01*
X159919690Y-53466320D01*
X159905561Y-53641699D01*
X159879009Y-53816973D01*
X159867671Y-53873833D01*
X159825175Y-54044910D01*
X159771260Y-54211102D01*
X159706381Y-54371969D01*
X159630993Y-54527074D01*
X159545551Y-54675979D01*
X159450509Y-54818244D01*
X159346322Y-54953433D01*
X159233445Y-55081106D01*
X159112333Y-55200827D01*
X158983440Y-55312155D01*
X158847222Y-55414654D01*
X158704132Y-55507885D01*
X158554626Y-55591410D01*
X158399158Y-55664790D01*
X158238183Y-55727588D01*
X158072157Y-55779365D01*
X157901533Y-55819683D01*
X157835600Y-55831905D01*
X157783368Y-55840640D01*
X157737611Y-55847661D01*
X157695890Y-55853151D01*
X157655768Y-55857292D01*
X157614809Y-55860265D01*
X157570573Y-55862253D01*
X157520625Y-55863437D01*
X157462527Y-55864000D01*
X157403800Y-55864125D01*
X157337691Y-55863967D01*
G36*
X141989007Y-53917776D02*
X141943752Y-53917565D01*
X141904312Y-53917235D01*
X141872183Y-53916804D01*
X141848861Y-53916292D01*
X141835843Y-53915716D01*
X141833600Y-53915347D01*
X141835817Y-53908117D01*
X141842248Y-53889895D01*
X141852564Y-53861544D01*
X141866437Y-53823932D01*
X141883537Y-53777924D01*
X141903537Y-53724387D01*
X141926106Y-53664187D01*
X141950917Y-53598189D01*
X141977641Y-53527259D01*
X142005949Y-53452264D01*
X142035511Y-53374070D01*
X142066000Y-53293542D01*
X142097086Y-53211547D01*
X142128441Y-53128951D01*
X142159736Y-53046620D01*
X142190642Y-52965419D01*
X142220830Y-52886215D01*
X142249972Y-52809874D01*
X142277738Y-52737262D01*
X142303801Y-52669245D01*
X142327830Y-52606689D01*
X142349498Y-52550460D01*
X142368476Y-52501424D01*
X142384434Y-52460446D01*
X142397045Y-52428394D01*
X142405978Y-52406133D01*
X142410906Y-52394529D01*
X142411235Y-52393850D01*
X142451192Y-52323608D01*
X142494691Y-52265327D01*
X142542105Y-52218675D01*
X142593805Y-52183315D01*
X142650163Y-52158913D01*
X142681325Y-52150467D01*
X142727154Y-52142918D01*
X142779754Y-52138365D01*
X142833494Y-52137072D01*
X142882743Y-52139305D01*
X142893918Y-52140472D01*
X142960163Y-52152140D01*
X143026406Y-52171861D01*
X143046450Y-52179295D01*
X143073249Y-52190271D01*
X143099841Y-52202248D01*
X143123676Y-52213941D01*
X143142203Y-52224068D01*
X143152872Y-52231348D01*
X143154467Y-52233604D01*
X143151892Y-52241508D01*
X143144697Y-52258591D01*
X143133798Y-52282944D01*
X143120109Y-52312659D01*
X143104543Y-52345828D01*
X143088014Y-52380542D01*
X143071437Y-52414892D01*
X143055725Y-52446969D01*
X143041793Y-52474865D01*
X143030554Y-52496671D01*
X143022924Y-52510478D01*
X143019949Y-52514500D01*
X143011524Y-52511821D01*
X142995856Y-52504926D01*
X142982846Y-52498573D01*
X142931280Y-52477414D01*
X142881054Y-52466430D01*
X142834111Y-52465928D01*
X142808325Y-52470788D01*
X142787640Y-52480463D01*
X142765934Y-52496718D01*
X142746936Y-52516091D01*
X142734371Y-52535119D01*
X142732024Y-52541678D01*
X142733756Y-52550225D01*
X142740246Y-52570546D01*
X142751493Y-52602640D01*
X142767495Y-52646505D01*
X142788253Y-52702141D01*
X142813766Y-52769545D01*
X142844034Y-52848716D01*
X142879055Y-52939655D01*
X142918831Y-53042358D01*
X142963359Y-53156825D01*
X142992300Y-53231004D01*
X143026817Y-53319436D01*
X143060014Y-53404589D01*
X143091603Y-53485713D01*
X143121293Y-53562059D01*
X143148793Y-53632877D01*
X143173815Y-53697417D01*
X143196066Y-53754930D01*
X143215259Y-53804666D01*
X143231101Y-53845877D01*
X143243303Y-53877812D01*
X143251575Y-53899721D01*
X143255627Y-53910856D01*
X143256000Y-53912128D01*
X143249820Y-53913681D01*
X143231948Y-53914928D01*
X143203392Y-53915851D01*
X143165158Y-53916427D01*
X143118251Y-53916637D01*
X143063677Y-53916460D01*
X143048565Y-53916350D01*
X142841130Y-53914675D01*
X142536794Y-53001655D01*
X142432991Y-53324815D01*
X142411514Y-53391712D01*
X142389803Y-53459397D01*
X142368440Y-53526052D01*
X142348007Y-53589863D01*
X142329084Y-53649014D01*
X142312253Y-53701688D01*
X142298094Y-53746071D01*
X142287190Y-53780345D01*
X142286374Y-53782913D01*
X142243561Y-53917850D01*
X142038581Y-53917850D01*
X141989007Y-53917776D01*
X141989007Y-53917776D01*
G37*
X141989007Y-53917776D02*
X141943752Y-53917565D01*
X141904312Y-53917235D01*
X141872183Y-53916804D01*
X141848861Y-53916292D01*
X141835843Y-53915716D01*
X141833600Y-53915347D01*
X141835817Y-53908117D01*
X141842248Y-53889895D01*
X141852564Y-53861544D01*
X141866437Y-53823932D01*
X141883537Y-53777924D01*
X141903537Y-53724387D01*
X141926106Y-53664187D01*
X141950917Y-53598189D01*
X141977641Y-53527259D01*
X142005949Y-53452264D01*
X142035511Y-53374070D01*
X142066000Y-53293542D01*
X142097086Y-53211547D01*
X142128441Y-53128951D01*
X142159736Y-53046620D01*
X142190642Y-52965419D01*
X142220830Y-52886215D01*
X142249972Y-52809874D01*
X142277738Y-52737262D01*
X142303801Y-52669245D01*
X142327830Y-52606689D01*
X142349498Y-52550460D01*
X142368476Y-52501424D01*
X142384434Y-52460446D01*
X142397045Y-52428394D01*
X142405978Y-52406133D01*
X142410906Y-52394529D01*
X142411235Y-52393850D01*
X142451192Y-52323608D01*
X142494691Y-52265327D01*
X142542105Y-52218675D01*
X142593805Y-52183315D01*
X142650163Y-52158913D01*
X142681325Y-52150467D01*
X142727154Y-52142918D01*
X142779754Y-52138365D01*
X142833494Y-52137072D01*
X142882743Y-52139305D01*
X142893918Y-52140472D01*
X142960163Y-52152140D01*
X143026406Y-52171861D01*
X143046450Y-52179295D01*
X143073249Y-52190271D01*
X143099841Y-52202248D01*
X143123676Y-52213941D01*
X143142203Y-52224068D01*
X143152872Y-52231348D01*
X143154467Y-52233604D01*
X143151892Y-52241508D01*
X143144697Y-52258591D01*
X143133798Y-52282944D01*
X143120109Y-52312659D01*
X143104543Y-52345828D01*
X143088014Y-52380542D01*
X143071437Y-52414892D01*
X143055725Y-52446969D01*
X143041793Y-52474865D01*
X143030554Y-52496671D01*
X143022924Y-52510478D01*
X143019949Y-52514500D01*
X143011524Y-52511821D01*
X142995856Y-52504926D01*
X142982846Y-52498573D01*
X142931280Y-52477414D01*
X142881054Y-52466430D01*
X142834111Y-52465928D01*
X142808325Y-52470788D01*
X142787640Y-52480463D01*
X142765934Y-52496718D01*
X142746936Y-52516091D01*
X142734371Y-52535119D01*
X142732024Y-52541678D01*
X142733756Y-52550225D01*
X142740246Y-52570546D01*
X142751493Y-52602640D01*
X142767495Y-52646505D01*
X142788253Y-52702141D01*
X142813766Y-52769545D01*
X142844034Y-52848716D01*
X142879055Y-52939655D01*
X142918831Y-53042358D01*
X142963359Y-53156825D01*
X142992300Y-53231004D01*
X143026817Y-53319436D01*
X143060014Y-53404589D01*
X143091603Y-53485713D01*
X143121293Y-53562059D01*
X143148793Y-53632877D01*
X143173815Y-53697417D01*
X143196066Y-53754930D01*
X143215259Y-53804666D01*
X143231101Y-53845877D01*
X143243303Y-53877812D01*
X143251575Y-53899721D01*
X143255627Y-53910856D01*
X143256000Y-53912128D01*
X143249820Y-53913681D01*
X143231948Y-53914928D01*
X143203392Y-53915851D01*
X143165158Y-53916427D01*
X143118251Y-53916637D01*
X143063677Y-53916460D01*
X143048565Y-53916350D01*
X142841130Y-53914675D01*
X142536794Y-53001655D01*
X142432991Y-53324815D01*
X142411514Y-53391712D01*
X142389803Y-53459397D01*
X142368440Y-53526052D01*
X142348007Y-53589863D01*
X142329084Y-53649014D01*
X142312253Y-53701688D01*
X142298094Y-53746071D01*
X142287190Y-53780345D01*
X142286374Y-53782913D01*
X142243561Y-53917850D01*
X142038581Y-53917850D01*
X141989007Y-53917776D01*
G36*
X153691690Y-53939534D02*
X153604588Y-53926857D01*
X153524845Y-53905353D01*
X153451139Y-53874519D01*
X153382145Y-53833852D01*
X153316541Y-53782850D01*
X153283638Y-53752381D01*
X153243350Y-53713029D01*
X153280828Y-53674152D01*
X153297479Y-53656727D01*
X153320568Y-53632353D01*
X153347883Y-53603377D01*
X153377210Y-53572145D01*
X153402685Y-53544916D01*
X153487063Y-53454556D01*
X153530573Y-53493993D01*
X153579458Y-53534558D01*
X153625955Y-53564704D01*
X153672704Y-53585673D01*
X153722344Y-53598708D01*
X153764570Y-53604152D01*
X153828874Y-53603609D01*
X153888792Y-53591151D01*
X153944206Y-53566821D01*
X153995000Y-53530666D01*
X154021056Y-53505618D01*
X154062369Y-53453654D01*
X154092706Y-53396642D01*
X154112384Y-53333730D01*
X154121718Y-53264069D01*
X154122630Y-53232050D01*
X154117095Y-53160226D01*
X154100707Y-53093455D01*
X154073833Y-53032680D01*
X154036838Y-52978845D01*
X154015406Y-52955561D01*
X153969697Y-52917086D01*
X153920533Y-52889402D01*
X153866178Y-52871842D01*
X153804896Y-52863739D01*
X153774570Y-52863000D01*
X153713746Y-52868169D01*
X153655720Y-52883581D01*
X153598854Y-52909884D01*
X153541510Y-52947730D01*
X153521482Y-52963449D01*
X153502107Y-52979089D01*
X153485698Y-52992062D01*
X153475484Y-52999820D01*
X153474834Y-53000275D01*
X153470079Y-53000432D01*
X153461797Y-52995842D01*
X153449081Y-52985691D01*
X153431025Y-52969164D01*
X153406724Y-52945447D01*
X153375272Y-52913726D01*
X153351665Y-52889561D01*
X153237753Y-52772496D01*
X153274489Y-52735181D01*
X153326939Y-52686979D01*
X153384920Y-52642576D01*
X153445402Y-52603952D01*
X153505351Y-52573086D01*
X153549011Y-52555928D01*
X153602524Y-52541659D01*
X153664448Y-52530935D01*
X153730925Y-52524019D01*
X153798098Y-52521173D01*
X153862108Y-52522661D01*
X153919099Y-52528746D01*
X153927175Y-52530139D01*
X154018219Y-52552760D01*
X154104745Y-52586088D01*
X154185491Y-52629368D01*
X154259197Y-52681844D01*
X154324603Y-52742759D01*
X154368241Y-52794575D01*
X154418989Y-52871981D01*
X154458654Y-52953921D01*
X154487358Y-53039256D01*
X154505225Y-53126847D01*
X154512380Y-53215554D01*
X154508945Y-53304236D01*
X154495044Y-53391755D01*
X154470802Y-53476970D01*
X154436341Y-53558743D01*
X154391786Y-53635932D01*
X154337260Y-53707399D01*
X154272888Y-53772003D01*
X154261039Y-53782167D01*
X154187247Y-53836479D01*
X154108720Y-53879500D01*
X154024903Y-53911419D01*
X153935241Y-53932427D01*
X153839181Y-53942711D01*
X153787475Y-53943888D01*
X153691690Y-53939534D01*
X153691690Y-53939534D01*
G37*
X153691690Y-53939534D02*
X153604588Y-53926857D01*
X153524845Y-53905353D01*
X153451139Y-53874519D01*
X153382145Y-53833852D01*
X153316541Y-53782850D01*
X153283638Y-53752381D01*
X153243350Y-53713029D01*
X153280828Y-53674152D01*
X153297479Y-53656727D01*
X153320568Y-53632353D01*
X153347883Y-53603377D01*
X153377210Y-53572145D01*
X153402685Y-53544916D01*
X153487063Y-53454556D01*
X153530573Y-53493993D01*
X153579458Y-53534558D01*
X153625955Y-53564704D01*
X153672704Y-53585673D01*
X153722344Y-53598708D01*
X153764570Y-53604152D01*
X153828874Y-53603609D01*
X153888792Y-53591151D01*
X153944206Y-53566821D01*
X153995000Y-53530666D01*
X154021056Y-53505618D01*
X154062369Y-53453654D01*
X154092706Y-53396642D01*
X154112384Y-53333730D01*
X154121718Y-53264069D01*
X154122630Y-53232050D01*
X154117095Y-53160226D01*
X154100707Y-53093455D01*
X154073833Y-53032680D01*
X154036838Y-52978845D01*
X154015406Y-52955561D01*
X153969697Y-52917086D01*
X153920533Y-52889402D01*
X153866178Y-52871842D01*
X153804896Y-52863739D01*
X153774570Y-52863000D01*
X153713746Y-52868169D01*
X153655720Y-52883581D01*
X153598854Y-52909884D01*
X153541510Y-52947730D01*
X153521482Y-52963449D01*
X153502107Y-52979089D01*
X153485698Y-52992062D01*
X153475484Y-52999820D01*
X153474834Y-53000275D01*
X153470079Y-53000432D01*
X153461797Y-52995842D01*
X153449081Y-52985691D01*
X153431025Y-52969164D01*
X153406724Y-52945447D01*
X153375272Y-52913726D01*
X153351665Y-52889561D01*
X153237753Y-52772496D01*
X153274489Y-52735181D01*
X153326939Y-52686979D01*
X153384920Y-52642576D01*
X153445402Y-52603952D01*
X153505351Y-52573086D01*
X153549011Y-52555928D01*
X153602524Y-52541659D01*
X153664448Y-52530935D01*
X153730925Y-52524019D01*
X153798098Y-52521173D01*
X153862108Y-52522661D01*
X153919099Y-52528746D01*
X153927175Y-52530139D01*
X154018219Y-52552760D01*
X154104745Y-52586088D01*
X154185491Y-52629368D01*
X154259197Y-52681844D01*
X154324603Y-52742759D01*
X154368241Y-52794575D01*
X154418989Y-52871981D01*
X154458654Y-52953921D01*
X154487358Y-53039256D01*
X154505225Y-53126847D01*
X154512380Y-53215554D01*
X154508945Y-53304236D01*
X154495044Y-53391755D01*
X154470802Y-53476970D01*
X154436341Y-53558743D01*
X154391786Y-53635932D01*
X154337260Y-53707399D01*
X154272888Y-53772003D01*
X154261039Y-53782167D01*
X154187247Y-53836479D01*
X154108720Y-53879500D01*
X154024903Y-53911419D01*
X153935241Y-53932427D01*
X153839181Y-53942711D01*
X153787475Y-53943888D01*
X153691690Y-53939534D01*
G36*
X152384523Y-53942650D02*
X152334810Y-53938675D01*
X152300358Y-53933677D01*
X152204818Y-53909903D01*
X152115543Y-53875848D01*
X152033191Y-53832063D01*
X151958419Y-53779101D01*
X151891888Y-53717514D01*
X151834254Y-53647854D01*
X151786177Y-53570674D01*
X151748314Y-53486526D01*
X151740308Y-53463825D01*
X151717921Y-53378083D01*
X151706374Y-53289194D01*
X151705526Y-53199197D01*
X151715237Y-53110132D01*
X151735367Y-53024037D01*
X151765777Y-52942951D01*
X151777781Y-52918150D01*
X151827260Y-52835118D01*
X151885749Y-52760948D01*
X151952914Y-52695904D01*
X152028420Y-52640249D01*
X152111931Y-52594247D01*
X152203111Y-52558162D01*
X152255008Y-52542998D01*
X152283609Y-52536107D01*
X152309886Y-52531160D01*
X152337303Y-52527765D01*
X152369321Y-52525529D01*
X152409403Y-52524059D01*
X152425400Y-52523666D01*
X152483389Y-52523201D01*
X152530600Y-52524744D01*
X152568811Y-52528372D01*
X152581886Y-52530409D01*
X152677229Y-52553154D01*
X152766357Y-52586350D01*
X152848648Y-52629348D01*
X152923482Y-52681496D01*
X152990239Y-52742142D01*
X153048296Y-52810637D01*
X153097035Y-52886329D01*
X153135834Y-52968566D01*
X153164073Y-53056700D01*
X153181130Y-53150077D01*
X153182234Y-53160028D01*
X153184654Y-53226336D01*
X152795770Y-53226336D01*
X152788883Y-53160570D01*
X152771928Y-53097577D01*
X152745123Y-53039167D01*
X152708687Y-52987155D01*
X152700206Y-52977618D01*
X152662014Y-52940332D01*
X152623817Y-52912011D01*
X152581386Y-52889647D01*
X152569367Y-52884530D01*
X152523355Y-52870903D01*
X152470782Y-52863817D01*
X152416000Y-52863323D01*
X152363364Y-52869470D01*
X152318994Y-52881630D01*
X152259408Y-52910445D01*
X152208396Y-52948131D01*
X152166607Y-52994115D01*
X152137122Y-53042725D01*
X152116428Y-53090813D01*
X152103325Y-53136600D01*
X152096663Y-53185183D01*
X152095200Y-53228875D01*
X152100299Y-53301050D01*
X152115753Y-53366159D01*
X152141799Y-53424811D01*
X152178674Y-53477614D01*
X152201481Y-53502246D01*
X152253147Y-53544955D01*
X152309866Y-53576431D01*
X152370453Y-53596507D01*
X152433726Y-53605014D01*
X152498501Y-53601783D01*
X152563595Y-53586647D01*
X152622556Y-53562158D01*
X152649702Y-53544348D01*
X152679365Y-53518343D01*
X152708517Y-53487375D01*
X152734129Y-53454673D01*
X152753172Y-53423469D01*
X152753831Y-53422140D01*
X152778463Y-53358934D01*
X152792369Y-53293061D01*
X152795770Y-53226336D01*
X153184654Y-53226336D01*
X153185535Y-53250457D01*
X153177073Y-53341180D01*
X153157331Y-53430253D01*
X153126791Y-53515730D01*
X153085936Y-53595668D01*
X153066555Y-53626039D01*
X153040038Y-53661142D01*
X153006434Y-53699773D01*
X152969179Y-53738351D01*
X152931709Y-53773292D01*
X152901975Y-53797668D01*
X152838311Y-53839516D01*
X152765993Y-53876430D01*
X152688608Y-53906864D01*
X152609743Y-53929272D01*
X152584424Y-53934562D01*
X152542670Y-53940208D01*
X152492642Y-53943429D01*
X152438530Y-53944239D01*
X152384523Y-53942650D01*
X152384523Y-53942650D01*
G37*
X152384523Y-53942650D02*
X152334810Y-53938675D01*
X152300358Y-53933677D01*
X152204818Y-53909903D01*
X152115543Y-53875848D01*
X152033191Y-53832063D01*
X151958419Y-53779101D01*
X151891888Y-53717514D01*
X151834254Y-53647854D01*
X151786177Y-53570674D01*
X151748314Y-53486526D01*
X151740308Y-53463825D01*
X151717921Y-53378083D01*
X151706374Y-53289194D01*
X151705526Y-53199197D01*
X151715237Y-53110132D01*
X151735367Y-53024037D01*
X151765777Y-52942951D01*
X151777781Y-52918150D01*
X151827260Y-52835118D01*
X151885749Y-52760948D01*
X151952914Y-52695904D01*
X152028420Y-52640249D01*
X152111931Y-52594247D01*
X152203111Y-52558162D01*
X152255008Y-52542998D01*
X152283609Y-52536107D01*
X152309886Y-52531160D01*
X152337303Y-52527765D01*
X152369321Y-52525529D01*
X152409403Y-52524059D01*
X152425400Y-52523666D01*
X152483389Y-52523201D01*
X152530600Y-52524744D01*
X152568811Y-52528372D01*
X152581886Y-52530409D01*
X152677229Y-52553154D01*
X152766357Y-52586350D01*
X152848648Y-52629348D01*
X152923482Y-52681496D01*
X152990239Y-52742142D01*
X153048296Y-52810637D01*
X153097035Y-52886329D01*
X153135834Y-52968566D01*
X153164073Y-53056700D01*
X153181130Y-53150077D01*
X153182234Y-53160028D01*
X153184654Y-53226336D01*
X152795770Y-53226336D01*
X152788883Y-53160570D01*
X152771928Y-53097577D01*
X152745123Y-53039167D01*
X152708687Y-52987155D01*
X152700206Y-52977618D01*
X152662014Y-52940332D01*
X152623817Y-52912011D01*
X152581386Y-52889647D01*
X152569367Y-52884530D01*
X152523355Y-52870903D01*
X152470782Y-52863817D01*
X152416000Y-52863323D01*
X152363364Y-52869470D01*
X152318994Y-52881630D01*
X152259408Y-52910445D01*
X152208396Y-52948131D01*
X152166607Y-52994115D01*
X152137122Y-53042725D01*
X152116428Y-53090813D01*
X152103325Y-53136600D01*
X152096663Y-53185183D01*
X152095200Y-53228875D01*
X152100299Y-53301050D01*
X152115753Y-53366159D01*
X152141799Y-53424811D01*
X152178674Y-53477614D01*
X152201481Y-53502246D01*
X152253147Y-53544955D01*
X152309866Y-53576431D01*
X152370453Y-53596507D01*
X152433726Y-53605014D01*
X152498501Y-53601783D01*
X152563595Y-53586647D01*
X152622556Y-53562158D01*
X152649702Y-53544348D01*
X152679365Y-53518343D01*
X152708517Y-53487375D01*
X152734129Y-53454673D01*
X152753172Y-53423469D01*
X152753831Y-53422140D01*
X152778463Y-53358934D01*
X152792369Y-53293061D01*
X152795770Y-53226336D01*
X153184654Y-53226336D01*
X153185535Y-53250457D01*
X153177073Y-53341180D01*
X153157331Y-53430253D01*
X153126791Y-53515730D01*
X153085936Y-53595668D01*
X153066555Y-53626039D01*
X153040038Y-53661142D01*
X153006434Y-53699773D01*
X152969179Y-53738351D01*
X152931709Y-53773292D01*
X152901975Y-53797668D01*
X152838311Y-53839516D01*
X152765993Y-53876430D01*
X152688608Y-53906864D01*
X152609743Y-53929272D01*
X152584424Y-53934562D01*
X152542670Y-53940208D01*
X152492642Y-53943429D01*
X152438530Y-53944239D01*
X152384523Y-53942650D01*
G36*
X148139899Y-53941248D02*
X148088504Y-53937521D01*
X148042786Y-53931784D01*
X148008975Y-53924858D01*
X147925680Y-53896474D01*
X147849213Y-53857575D01*
X147779938Y-53808572D01*
X147718214Y-53749878D01*
X147664404Y-53681908D01*
X147618869Y-53605074D01*
X147581969Y-53519789D01*
X147554068Y-53426466D01*
X147547591Y-53397376D01*
X147543622Y-53373062D01*
X147539943Y-53341251D01*
X147536673Y-53304363D01*
X147533934Y-53264821D01*
X147531846Y-53225047D01*
X147530531Y-53187462D01*
X147530108Y-53154489D01*
X147530700Y-53128549D01*
X147532426Y-53112065D01*
X147533217Y-53109235D01*
X147534733Y-53107249D01*
X147538214Y-53105527D01*
X147544509Y-53104052D01*
X147554463Y-53102804D01*
X147568925Y-53101765D01*
X147588741Y-53100915D01*
X147614758Y-53100236D01*
X147647825Y-53099710D01*
X147688786Y-53099317D01*
X147738491Y-53099039D01*
X147797786Y-53098858D01*
X147867518Y-53098753D01*
X147948534Y-53098708D01*
X148009655Y-53098700D01*
X148085855Y-53098680D01*
X148158246Y-53098620D01*
X148225843Y-53098523D01*
X148287658Y-53098394D01*
X148342708Y-53098236D01*
X148390007Y-53098052D01*
X148428569Y-53097844D01*
X148457408Y-53097617D01*
X148475540Y-53097374D01*
X148481979Y-53097119D01*
X148481982Y-53097113D01*
X148479124Y-53084223D01*
X148472202Y-53063674D01*
X148462678Y-53039240D01*
X148452016Y-53014698D01*
X148442616Y-52995558D01*
X148409358Y-52946031D01*
X148367498Y-52905543D01*
X148317646Y-52874393D01*
X148260414Y-52852877D01*
X148196411Y-52841293D01*
X148126247Y-52839939D01*
X148123544Y-52840088D01*
X148054229Y-52849515D01*
X147988508Y-52869873D01*
X147924999Y-52901731D01*
X147862318Y-52945657D01*
X147857435Y-52949599D01*
X147821640Y-52978757D01*
X147710972Y-52881566D01*
X147679494Y-52853657D01*
X147651459Y-52828294D01*
X147628214Y-52806736D01*
X147611104Y-52790245D01*
X147601477Y-52780079D01*
X147599852Y-52777587D01*
X147604147Y-52769772D01*
X147616305Y-52755616D01*
X147634428Y-52736903D01*
X147656620Y-52715417D01*
X147680982Y-52692943D01*
X147705618Y-52671265D01*
X147728629Y-52652167D01*
X147748119Y-52637433D01*
X147751046Y-52635423D01*
X147827436Y-52591537D01*
X147911027Y-52557649D01*
X148000668Y-52534189D01*
X148040725Y-52527422D01*
X148078151Y-52523819D01*
X148123796Y-52522035D01*
X148173320Y-52522013D01*
X148222381Y-52523696D01*
X148266638Y-52527028D01*
X148295125Y-52530750D01*
X148388175Y-52552188D01*
X148474290Y-52584164D01*
X148553991Y-52626936D01*
X148627799Y-52680762D01*
X148664054Y-52713236D01*
X148726254Y-52781355D01*
X148777932Y-52856512D01*
X148818925Y-52938399D01*
X148849072Y-53026709D01*
X148863665Y-53092350D01*
X148868390Y-53130265D01*
X148871140Y-53176620D01*
X148871951Y-53227472D01*
X148870857Y-53278877D01*
X148867894Y-53326894D01*
X148865600Y-53346350D01*
X148487212Y-53346350D01*
X148202056Y-53346350D01*
X148134359Y-53346375D01*
X148078276Y-53346477D01*
X148032720Y-53346700D01*
X147996608Y-53347084D01*
X147968851Y-53347673D01*
X147948365Y-53348509D01*
X147934064Y-53349634D01*
X147924862Y-53351091D01*
X147919672Y-53352922D01*
X147917409Y-53355168D01*
X147916976Y-53357463D01*
X147919506Y-53375986D01*
X147926074Y-53401874D01*
X147935421Y-53430949D01*
X147946289Y-53459033D01*
X147950298Y-53468025D01*
X147980205Y-53520195D01*
X148016610Y-53561710D01*
X148060191Y-53593204D01*
X148106361Y-53613589D01*
X148128616Y-53620193D01*
X148149816Y-53623974D01*
X148174331Y-53625397D01*
X148206533Y-53624924D01*
X148211503Y-53624748D01*
X148243087Y-53623156D01*
X148266196Y-53620534D01*
X148285058Y-53615975D01*
X148303896Y-53608572D01*
X148317886Y-53601927D01*
X148364263Y-53572132D01*
X148404835Y-53531701D01*
X148438925Y-53481615D01*
X148465857Y-53422858D01*
X148484034Y-53360638D01*
X148487212Y-53346350D01*
X148865600Y-53346350D01*
X148863096Y-53367578D01*
X148861121Y-53378698D01*
X148836661Y-53472753D01*
X148802163Y-53560137D01*
X148758204Y-53640248D01*
X148705360Y-53712484D01*
X148644205Y-53776242D01*
X148575316Y-53830920D01*
X148499267Y-53875917D01*
X148416634Y-53910631D01*
X148330250Y-53934007D01*
X148292144Y-53939344D01*
X148245318Y-53942262D01*
X148193370Y-53942863D01*
X148139899Y-53941248D01*
X148139899Y-53941248D01*
G37*
X148139899Y-53941248D02*
X148088504Y-53937521D01*
X148042786Y-53931784D01*
X148008975Y-53924858D01*
X147925680Y-53896474D01*
X147849213Y-53857575D01*
X147779938Y-53808572D01*
X147718214Y-53749878D01*
X147664404Y-53681908D01*
X147618869Y-53605074D01*
X147581969Y-53519789D01*
X147554068Y-53426466D01*
X147547591Y-53397376D01*
X147543622Y-53373062D01*
X147539943Y-53341251D01*
X147536673Y-53304363D01*
X147533934Y-53264821D01*
X147531846Y-53225047D01*
X147530531Y-53187462D01*
X147530108Y-53154489D01*
X147530700Y-53128549D01*
X147532426Y-53112065D01*
X147533217Y-53109235D01*
X147534733Y-53107249D01*
X147538214Y-53105527D01*
X147544509Y-53104052D01*
X147554463Y-53102804D01*
X147568925Y-53101765D01*
X147588741Y-53100915D01*
X147614758Y-53100236D01*
X147647825Y-53099710D01*
X147688786Y-53099317D01*
X147738491Y-53099039D01*
X147797786Y-53098858D01*
X147867518Y-53098753D01*
X147948534Y-53098708D01*
X148009655Y-53098700D01*
X148085855Y-53098680D01*
X148158246Y-53098620D01*
X148225843Y-53098523D01*
X148287658Y-53098394D01*
X148342708Y-53098236D01*
X148390007Y-53098052D01*
X148428569Y-53097844D01*
X148457408Y-53097617D01*
X148475540Y-53097374D01*
X148481979Y-53097119D01*
X148481982Y-53097113D01*
X148479124Y-53084223D01*
X148472202Y-53063674D01*
X148462678Y-53039240D01*
X148452016Y-53014698D01*
X148442616Y-52995558D01*
X148409358Y-52946031D01*
X148367498Y-52905543D01*
X148317646Y-52874393D01*
X148260414Y-52852877D01*
X148196411Y-52841293D01*
X148126247Y-52839939D01*
X148123544Y-52840088D01*
X148054229Y-52849515D01*
X147988508Y-52869873D01*
X147924999Y-52901731D01*
X147862318Y-52945657D01*
X147857435Y-52949599D01*
X147821640Y-52978757D01*
X147710972Y-52881566D01*
X147679494Y-52853657D01*
X147651459Y-52828294D01*
X147628214Y-52806736D01*
X147611104Y-52790245D01*
X147601477Y-52780079D01*
X147599852Y-52777587D01*
X147604147Y-52769772D01*
X147616305Y-52755616D01*
X147634428Y-52736903D01*
X147656620Y-52715417D01*
X147680982Y-52692943D01*
X147705618Y-52671265D01*
X147728629Y-52652167D01*
X147748119Y-52637433D01*
X147751046Y-52635423D01*
X147827436Y-52591537D01*
X147911027Y-52557649D01*
X148000668Y-52534189D01*
X148040725Y-52527422D01*
X148078151Y-52523819D01*
X148123796Y-52522035D01*
X148173320Y-52522013D01*
X148222381Y-52523696D01*
X148266638Y-52527028D01*
X148295125Y-52530750D01*
X148388175Y-52552188D01*
X148474290Y-52584164D01*
X148553991Y-52626936D01*
X148627799Y-52680762D01*
X148664054Y-52713236D01*
X148726254Y-52781355D01*
X148777932Y-52856512D01*
X148818925Y-52938399D01*
X148849072Y-53026709D01*
X148863665Y-53092350D01*
X148868390Y-53130265D01*
X148871140Y-53176620D01*
X148871951Y-53227472D01*
X148870857Y-53278877D01*
X148867894Y-53326894D01*
X148865600Y-53346350D01*
X148487212Y-53346350D01*
X148202056Y-53346350D01*
X148134359Y-53346375D01*
X148078276Y-53346477D01*
X148032720Y-53346700D01*
X147996608Y-53347084D01*
X147968851Y-53347673D01*
X147948365Y-53348509D01*
X147934064Y-53349634D01*
X147924862Y-53351091D01*
X147919672Y-53352922D01*
X147917409Y-53355168D01*
X147916976Y-53357463D01*
X147919506Y-53375986D01*
X147926074Y-53401874D01*
X147935421Y-53430949D01*
X147946289Y-53459033D01*
X147950298Y-53468025D01*
X147980205Y-53520195D01*
X148016610Y-53561710D01*
X148060191Y-53593204D01*
X148106361Y-53613589D01*
X148128616Y-53620193D01*
X148149816Y-53623974D01*
X148174331Y-53625397D01*
X148206533Y-53624924D01*
X148211503Y-53624748D01*
X148243087Y-53623156D01*
X148266196Y-53620534D01*
X148285058Y-53615975D01*
X148303896Y-53608572D01*
X148317886Y-53601927D01*
X148364263Y-53572132D01*
X148404835Y-53531701D01*
X148438925Y-53481615D01*
X148465857Y-53422858D01*
X148484034Y-53360638D01*
X148487212Y-53346350D01*
X148865600Y-53346350D01*
X148863096Y-53367578D01*
X148861121Y-53378698D01*
X148836661Y-53472753D01*
X148802163Y-53560137D01*
X148758204Y-53640248D01*
X148705360Y-53712484D01*
X148644205Y-53776242D01*
X148575316Y-53830920D01*
X148499267Y-53875917D01*
X148416634Y-53910631D01*
X148330250Y-53934007D01*
X148292144Y-53939344D01*
X148245318Y-53942262D01*
X148193370Y-53942863D01*
X148139899Y-53941248D01*
G36*
X149487533Y-53939408D02*
X149399592Y-53929797D01*
X149308741Y-53910562D01*
X149215758Y-53881518D01*
X149212300Y-53880257D01*
X149185575Y-53869566D01*
X149155079Y-53855935D01*
X149123187Y-53840599D01*
X149092277Y-53824791D01*
X149064721Y-53809743D01*
X149042896Y-53796689D01*
X149029177Y-53786863D01*
X149026131Y-53783596D01*
X149026695Y-53775729D01*
X149033035Y-53758955D01*
X149045370Y-53732812D01*
X149063919Y-53696841D01*
X149088900Y-53650580D01*
X149092122Y-53644713D01*
X149112446Y-53607803D01*
X149130706Y-53574734D01*
X149146024Y-53547088D01*
X149157520Y-53526452D01*
X149164315Y-53514409D01*
X149165772Y-53511963D01*
X149171911Y-53513633D01*
X149187445Y-53519994D01*
X149210357Y-53530162D01*
X149238632Y-53543255D01*
X149255180Y-53551116D01*
X149290549Y-53567544D01*
X149326610Y-53583410D01*
X149359670Y-53597142D01*
X149386035Y-53607173D01*
X149391386Y-53608997D01*
X149448320Y-53624633D01*
X149501251Y-53633213D01*
X149549126Y-53634969D01*
X149590892Y-53630135D01*
X149625493Y-53618944D01*
X149651878Y-53601630D01*
X149668991Y-53578425D01*
X149675779Y-53549564D01*
X149675850Y-53546006D01*
X149672188Y-53520533D01*
X149660031Y-53499974D01*
X149640241Y-53482567D01*
X149608619Y-53463400D01*
X149565003Y-53442397D01*
X149509227Y-53419479D01*
X149441129Y-53394571D01*
X149421850Y-53387919D01*
X149345190Y-53360548D01*
X149279826Y-53334531D01*
X149224507Y-53309280D01*
X149177979Y-53284207D01*
X149138989Y-53258723D01*
X149126332Y-53249159D01*
X149077516Y-53205039D01*
X149040239Y-53157936D01*
X149013782Y-53106339D01*
X148997430Y-53048738D01*
X148990462Y-52983622D01*
X148990095Y-52962429D01*
X148995568Y-52885611D01*
X149011735Y-52815534D01*
X149038392Y-52752422D01*
X149075329Y-52696502D01*
X149122340Y-52648001D01*
X149179219Y-52607143D01*
X149245757Y-52574156D01*
X149321748Y-52549266D01*
X149379820Y-52536889D01*
X149409329Y-52533214D01*
X149447495Y-52530453D01*
X149490438Y-52528692D01*
X149534274Y-52528015D01*
X149575121Y-52528508D01*
X149609098Y-52530256D01*
X149621875Y-52531573D01*
X149697229Y-52544903D01*
X149776107Y-52565225D01*
X149853117Y-52590952D01*
X149921012Y-52619609D01*
X149945572Y-52632170D01*
X149974059Y-52648062D01*
X150004176Y-52665844D01*
X150033624Y-52684074D01*
X150060104Y-52701311D01*
X150081318Y-52716113D01*
X150094967Y-52727038D01*
X150098423Y-52730883D01*
X150096017Y-52737343D01*
X150087747Y-52752576D01*
X150074762Y-52774763D01*
X150058212Y-52802088D01*
X150039246Y-52832733D01*
X150019012Y-52864883D01*
X149998659Y-52896719D01*
X149979338Y-52926426D01*
X149962196Y-52952186D01*
X149948382Y-52972183D01*
X149939046Y-52984599D01*
X149936016Y-52987689D01*
X149929026Y-52985701D01*
X149913700Y-52978027D01*
X149892346Y-52965909D01*
X149868906Y-52951615D01*
X149793916Y-52909208D01*
X149717046Y-52874609D01*
X149642148Y-52849553D01*
X149641974Y-52849506D01*
X149613966Y-52842847D01*
X149586155Y-52838553D01*
X149554471Y-52836194D01*
X149514842Y-52835340D01*
X149507575Y-52835315D01*
X149472654Y-52835471D01*
X149447610Y-52836323D01*
X149429622Y-52838241D01*
X149415872Y-52841595D01*
X149403540Y-52846755D01*
X149397789Y-52849719D01*
X149369471Y-52870975D01*
X149351885Y-52898323D01*
X149345678Y-52930748D01*
X149345674Y-52931526D01*
X149349067Y-52954308D01*
X149359951Y-52974698D01*
X149379322Y-52993426D01*
X149408176Y-53011218D01*
X149447506Y-53028801D01*
X149498308Y-53046904D01*
X149507575Y-53049899D01*
X149568484Y-53069395D01*
X149618654Y-53085548D01*
X149659461Y-53098831D01*
X149692279Y-53109716D01*
X149718482Y-53118674D01*
X149739447Y-53126179D01*
X149756548Y-53132701D01*
X149771160Y-53138714D01*
X149784658Y-53144689D01*
X149787750Y-53146108D01*
X149856878Y-53183896D01*
X149915330Y-53228548D01*
X149943786Y-53256978D01*
X149979006Y-53301805D01*
X150004506Y-53348668D01*
X150021123Y-53399940D01*
X150029695Y-53457993D01*
X150031357Y-53504847D01*
X150028286Y-53567485D01*
X150018819Y-53622044D01*
X150002288Y-53671781D01*
X149992908Y-53692362D01*
X149956265Y-53752989D01*
X149910486Y-53805491D01*
X149856349Y-53849682D01*
X149794632Y-53885374D01*
X149726114Y-53912380D01*
X149651573Y-53930513D01*
X149571786Y-53939585D01*
X149487533Y-53939408D01*
X149487533Y-53939408D01*
G37*
X149487533Y-53939408D02*
X149399592Y-53929797D01*
X149308741Y-53910562D01*
X149215758Y-53881518D01*
X149212300Y-53880257D01*
X149185575Y-53869566D01*
X149155079Y-53855935D01*
X149123187Y-53840599D01*
X149092277Y-53824791D01*
X149064721Y-53809743D01*
X149042896Y-53796689D01*
X149029177Y-53786863D01*
X149026131Y-53783596D01*
X149026695Y-53775729D01*
X149033035Y-53758955D01*
X149045370Y-53732812D01*
X149063919Y-53696841D01*
X149088900Y-53650580D01*
X149092122Y-53644713D01*
X149112446Y-53607803D01*
X149130706Y-53574734D01*
X149146024Y-53547088D01*
X149157520Y-53526452D01*
X149164315Y-53514409D01*
X149165772Y-53511963D01*
X149171911Y-53513633D01*
X149187445Y-53519994D01*
X149210357Y-53530162D01*
X149238632Y-53543255D01*
X149255180Y-53551116D01*
X149290549Y-53567544D01*
X149326610Y-53583410D01*
X149359670Y-53597142D01*
X149386035Y-53607173D01*
X149391386Y-53608997D01*
X149448320Y-53624633D01*
X149501251Y-53633213D01*
X149549126Y-53634969D01*
X149590892Y-53630135D01*
X149625493Y-53618944D01*
X149651878Y-53601630D01*
X149668991Y-53578425D01*
X149675779Y-53549564D01*
X149675850Y-53546006D01*
X149672188Y-53520533D01*
X149660031Y-53499974D01*
X149640241Y-53482567D01*
X149608619Y-53463400D01*
X149565003Y-53442397D01*
X149509227Y-53419479D01*
X149441129Y-53394571D01*
X149421850Y-53387919D01*
X149345190Y-53360548D01*
X149279826Y-53334531D01*
X149224507Y-53309280D01*
X149177979Y-53284207D01*
X149138989Y-53258723D01*
X149126332Y-53249159D01*
X149077516Y-53205039D01*
X149040239Y-53157936D01*
X149013782Y-53106339D01*
X148997430Y-53048738D01*
X148990462Y-52983622D01*
X148990095Y-52962429D01*
X148995568Y-52885611D01*
X149011735Y-52815534D01*
X149038392Y-52752422D01*
X149075329Y-52696502D01*
X149122340Y-52648001D01*
X149179219Y-52607143D01*
X149245757Y-52574156D01*
X149321748Y-52549266D01*
X149379820Y-52536889D01*
X149409329Y-52533214D01*
X149447495Y-52530453D01*
X149490438Y-52528692D01*
X149534274Y-52528015D01*
X149575121Y-52528508D01*
X149609098Y-52530256D01*
X149621875Y-52531573D01*
X149697229Y-52544903D01*
X149776107Y-52565225D01*
X149853117Y-52590952D01*
X149921012Y-52619609D01*
X149945572Y-52632170D01*
X149974059Y-52648062D01*
X150004176Y-52665844D01*
X150033624Y-52684074D01*
X150060104Y-52701311D01*
X150081318Y-52716113D01*
X150094967Y-52727038D01*
X150098423Y-52730883D01*
X150096017Y-52737343D01*
X150087747Y-52752576D01*
X150074762Y-52774763D01*
X150058212Y-52802088D01*
X150039246Y-52832733D01*
X150019012Y-52864883D01*
X149998659Y-52896719D01*
X149979338Y-52926426D01*
X149962196Y-52952186D01*
X149948382Y-52972183D01*
X149939046Y-52984599D01*
X149936016Y-52987689D01*
X149929026Y-52985701D01*
X149913700Y-52978027D01*
X149892346Y-52965909D01*
X149868906Y-52951615D01*
X149793916Y-52909208D01*
X149717046Y-52874609D01*
X149642148Y-52849553D01*
X149641974Y-52849506D01*
X149613966Y-52842847D01*
X149586155Y-52838553D01*
X149554471Y-52836194D01*
X149514842Y-52835340D01*
X149507575Y-52835315D01*
X149472654Y-52835471D01*
X149447610Y-52836323D01*
X149429622Y-52838241D01*
X149415872Y-52841595D01*
X149403540Y-52846755D01*
X149397789Y-52849719D01*
X149369471Y-52870975D01*
X149351885Y-52898323D01*
X149345678Y-52930748D01*
X149345674Y-52931526D01*
X149349067Y-52954308D01*
X149359951Y-52974698D01*
X149379322Y-52993426D01*
X149408176Y-53011218D01*
X149447506Y-53028801D01*
X149498308Y-53046904D01*
X149507575Y-53049899D01*
X149568484Y-53069395D01*
X149618654Y-53085548D01*
X149659461Y-53098831D01*
X149692279Y-53109716D01*
X149718482Y-53118674D01*
X149739447Y-53126179D01*
X149756548Y-53132701D01*
X149771160Y-53138714D01*
X149784658Y-53144689D01*
X149787750Y-53146108D01*
X149856878Y-53183896D01*
X149915330Y-53228548D01*
X149943786Y-53256978D01*
X149979006Y-53301805D01*
X150004506Y-53348668D01*
X150021123Y-53399940D01*
X150029695Y-53457993D01*
X150031357Y-53504847D01*
X150028286Y-53567485D01*
X150018819Y-53622044D01*
X150002288Y-53671781D01*
X149992908Y-53692362D01*
X149956265Y-53752989D01*
X149910486Y-53805491D01*
X149856349Y-53849682D01*
X149794632Y-53885374D01*
X149726114Y-53912380D01*
X149651573Y-53930513D01*
X149571786Y-53939585D01*
X149487533Y-53939408D01*
G36*
X144978532Y-53881338D02*
X144982691Y-53870585D01*
X144991156Y-53848816D01*
X145003610Y-53816843D01*
X145019737Y-53775478D01*
X145039218Y-53725534D01*
X145061738Y-53667822D01*
X145086979Y-53603155D01*
X145114624Y-53532346D01*
X145144356Y-53456206D01*
X145175858Y-53375548D01*
X145208813Y-53291184D01*
X145242904Y-53203927D01*
X145246803Y-53193950D01*
X145501124Y-52543075D01*
X145680474Y-52541389D01*
X145733037Y-52540942D01*
X145774303Y-52540754D01*
X145805672Y-52540898D01*
X145828545Y-52541446D01*
X145844325Y-52542471D01*
X145854411Y-52544046D01*
X145860204Y-52546243D01*
X145863107Y-52549136D01*
X145863930Y-52550914D01*
X145866739Y-52558199D01*
X145873872Y-52576553D01*
X145885033Y-52605219D01*
X145899925Y-52643436D01*
X145918253Y-52690444D01*
X145939720Y-52745485D01*
X145964029Y-52807798D01*
X145990885Y-52876624D01*
X146019991Y-52951205D01*
X146051051Y-53030779D01*
X146083769Y-53114587D01*
X146117848Y-53201871D01*
X146130468Y-53234192D01*
X146164898Y-53322414D01*
X146198009Y-53407356D01*
X146229509Y-53488265D01*
X146259109Y-53564391D01*
X146286518Y-53634981D01*
X146311443Y-53699285D01*
X146333596Y-53756552D01*
X146352684Y-53806030D01*
X146368417Y-53846967D01*
X146380505Y-53878613D01*
X146388655Y-53900216D01*
X146392579Y-53911025D01*
X146392900Y-53912141D01*
X146386723Y-53913684D01*
X146368871Y-53914926D01*
X146340370Y-53915846D01*
X146302243Y-53916422D01*
X146255514Y-53916635D01*
X146201205Y-53916464D01*
X146185465Y-53916350D01*
X145978030Y-53914675D01*
X145829035Y-53467685D01*
X145801890Y-53386549D01*
X145776766Y-53312053D01*
X145753886Y-53244836D01*
X145733476Y-53185539D01*
X145715759Y-53134800D01*
X145700960Y-53093259D01*
X145689303Y-53061555D01*
X145681012Y-53040328D01*
X145676312Y-53030216D01*
X145675374Y-53029535D01*
X145672634Y-53036867D01*
X145666186Y-53055271D01*
X145656361Y-53083780D01*
X145643486Y-53121424D01*
X145627892Y-53167235D01*
X145609907Y-53220245D01*
X145589861Y-53279484D01*
X145568083Y-53343984D01*
X145544902Y-53412777D01*
X145522925Y-53478113D01*
X145375142Y-53917850D01*
X144964583Y-53917850D01*
X144978532Y-53881338D01*
X144978532Y-53881338D01*
G37*
X144978532Y-53881338D02*
X144982691Y-53870585D01*
X144991156Y-53848816D01*
X145003610Y-53816843D01*
X145019737Y-53775478D01*
X145039218Y-53725534D01*
X145061738Y-53667822D01*
X145086979Y-53603155D01*
X145114624Y-53532346D01*
X145144356Y-53456206D01*
X145175858Y-53375548D01*
X145208813Y-53291184D01*
X145242904Y-53203927D01*
X145246803Y-53193950D01*
X145501124Y-52543075D01*
X145680474Y-52541389D01*
X145733037Y-52540942D01*
X145774303Y-52540754D01*
X145805672Y-52540898D01*
X145828545Y-52541446D01*
X145844325Y-52542471D01*
X145854411Y-52544046D01*
X145860204Y-52546243D01*
X145863107Y-52549136D01*
X145863930Y-52550914D01*
X145866739Y-52558199D01*
X145873872Y-52576553D01*
X145885033Y-52605219D01*
X145899925Y-52643436D01*
X145918253Y-52690444D01*
X145939720Y-52745485D01*
X145964029Y-52807798D01*
X145990885Y-52876624D01*
X146019991Y-52951205D01*
X146051051Y-53030779D01*
X146083769Y-53114587D01*
X146117848Y-53201871D01*
X146130468Y-53234192D01*
X146164898Y-53322414D01*
X146198009Y-53407356D01*
X146229509Y-53488265D01*
X146259109Y-53564391D01*
X146286518Y-53634981D01*
X146311443Y-53699285D01*
X146333596Y-53756552D01*
X146352684Y-53806030D01*
X146368417Y-53846967D01*
X146380505Y-53878613D01*
X146388655Y-53900216D01*
X146392579Y-53911025D01*
X146392900Y-53912141D01*
X146386723Y-53913684D01*
X146368871Y-53914926D01*
X146340370Y-53915846D01*
X146302243Y-53916422D01*
X146255514Y-53916635D01*
X146201205Y-53916464D01*
X146185465Y-53916350D01*
X145978030Y-53914675D01*
X145829035Y-53467685D01*
X145801890Y-53386549D01*
X145776766Y-53312053D01*
X145753886Y-53244836D01*
X145733476Y-53185539D01*
X145715759Y-53134800D01*
X145700960Y-53093259D01*
X145689303Y-53061555D01*
X145681012Y-53040328D01*
X145676312Y-53030216D01*
X145675374Y-53029535D01*
X145672634Y-53036867D01*
X145666186Y-53055271D01*
X145656361Y-53083780D01*
X145643486Y-53121424D01*
X145627892Y-53167235D01*
X145609907Y-53220245D01*
X145589861Y-53279484D01*
X145568083Y-53343984D01*
X145544902Y-53412777D01*
X145522925Y-53478113D01*
X145375142Y-53917850D01*
X144964583Y-53917850D01*
X144978532Y-53881338D01*
G36*
X150685314Y-53939890D02*
X150653797Y-53939157D01*
X150629470Y-53937614D01*
X150609583Y-53934998D01*
X150591381Y-53931046D01*
X150572111Y-53925495D01*
X150571200Y-53925211D01*
X150514167Y-53903906D01*
X150465547Y-53877484D01*
X150421358Y-53843602D01*
X150402344Y-53825775D01*
X150355264Y-53770422D01*
X150317795Y-53706887D01*
X150290068Y-53635437D01*
X150272967Y-53561058D01*
X150271673Y-53546516D01*
X150270502Y-53519843D01*
X150269459Y-53481606D01*
X150268553Y-53432376D01*
X150267790Y-53372719D01*
X150267178Y-53303204D01*
X150266724Y-53224401D01*
X150266435Y-53136876D01*
X150266319Y-53041198D01*
X150266318Y-53038375D01*
X150266208Y-52555775D01*
X150463154Y-52554098D01*
X150660100Y-52552420D01*
X150660100Y-52967101D01*
X150660119Y-53053674D01*
X150660215Y-53128541D01*
X150660452Y-53192697D01*
X150660889Y-53247136D01*
X150661589Y-53292852D01*
X150662613Y-53330839D01*
X150664024Y-53362093D01*
X150665882Y-53387606D01*
X150668250Y-53408374D01*
X150671188Y-53425390D01*
X150674759Y-53439649D01*
X150679024Y-53452146D01*
X150684045Y-53463874D01*
X150689882Y-53475827D01*
X150691863Y-53479726D01*
X150716807Y-53515797D01*
X150751278Y-53546955D01*
X150786551Y-53567835D01*
X150804589Y-53575583D01*
X150821261Y-53580496D01*
X150840383Y-53583197D01*
X150865769Y-53584305D01*
X150888700Y-53584465D01*
X150920599Y-53584086D01*
X150943617Y-53582535D01*
X150961559Y-53579197D01*
X150978232Y-53573454D01*
X150990590Y-53567953D01*
X151033637Y-53542829D01*
X151066498Y-53512063D01*
X151087269Y-53481250D01*
X151094253Y-53468238D01*
X151100281Y-53456041D01*
X151105422Y-53443659D01*
X151109748Y-53430090D01*
X151113329Y-53414332D01*
X151116236Y-53395386D01*
X151118538Y-53372250D01*
X151120306Y-53343923D01*
X151121611Y-53309404D01*
X151122523Y-53267691D01*
X151123112Y-53217785D01*
X151123449Y-53158683D01*
X151123604Y-53089386D01*
X151123648Y-53008891D01*
X151123650Y-52964016D01*
X151123650Y-52552600D01*
X151517350Y-52552600D01*
X151517350Y-53917850D01*
X151123650Y-53917850D01*
X151123662Y-53830538D01*
X151123673Y-53743225D01*
X151061496Y-53803550D01*
X151021186Y-53840788D01*
X150984931Y-53869697D01*
X150949549Y-53892387D01*
X150911860Y-53910968D01*
X150881300Y-53923062D01*
X150863306Y-53929353D01*
X150847388Y-53933871D01*
X150830899Y-53936907D01*
X150811190Y-53938753D01*
X150785615Y-53939701D01*
X150751526Y-53940041D01*
X150726775Y-53940075D01*
X150685314Y-53939890D01*
X150685314Y-53939890D01*
G37*
X150685314Y-53939890D02*
X150653797Y-53939157D01*
X150629470Y-53937614D01*
X150609583Y-53934998D01*
X150591381Y-53931046D01*
X150572111Y-53925495D01*
X150571200Y-53925211D01*
X150514167Y-53903906D01*
X150465547Y-53877484D01*
X150421358Y-53843602D01*
X150402344Y-53825775D01*
X150355264Y-53770422D01*
X150317795Y-53706887D01*
X150290068Y-53635437D01*
X150272967Y-53561058D01*
X150271673Y-53546516D01*
X150270502Y-53519843D01*
X150269459Y-53481606D01*
X150268553Y-53432376D01*
X150267790Y-53372719D01*
X150267178Y-53303204D01*
X150266724Y-53224401D01*
X150266435Y-53136876D01*
X150266319Y-53041198D01*
X150266318Y-53038375D01*
X150266208Y-52555775D01*
X150463154Y-52554098D01*
X150660100Y-52552420D01*
X150660100Y-52967101D01*
X150660119Y-53053674D01*
X150660215Y-53128541D01*
X150660452Y-53192697D01*
X150660889Y-53247136D01*
X150661589Y-53292852D01*
X150662613Y-53330839D01*
X150664024Y-53362093D01*
X150665882Y-53387606D01*
X150668250Y-53408374D01*
X150671188Y-53425390D01*
X150674759Y-53439649D01*
X150679024Y-53452146D01*
X150684045Y-53463874D01*
X150689882Y-53475827D01*
X150691863Y-53479726D01*
X150716807Y-53515797D01*
X150751278Y-53546955D01*
X150786551Y-53567835D01*
X150804589Y-53575583D01*
X150821261Y-53580496D01*
X150840383Y-53583197D01*
X150865769Y-53584305D01*
X150888700Y-53584465D01*
X150920599Y-53584086D01*
X150943617Y-53582535D01*
X150961559Y-53579197D01*
X150978232Y-53573454D01*
X150990590Y-53567953D01*
X151033637Y-53542829D01*
X151066498Y-53512063D01*
X151087269Y-53481250D01*
X151094253Y-53468238D01*
X151100281Y-53456041D01*
X151105422Y-53443659D01*
X151109748Y-53430090D01*
X151113329Y-53414332D01*
X151116236Y-53395386D01*
X151118538Y-53372250D01*
X151120306Y-53343923D01*
X151121611Y-53309404D01*
X151122523Y-53267691D01*
X151123112Y-53217785D01*
X151123449Y-53158683D01*
X151123604Y-53089386D01*
X151123648Y-53008891D01*
X151123650Y-52964016D01*
X151123650Y-52552600D01*
X151517350Y-52552600D01*
X151517350Y-53917850D01*
X151123650Y-53917850D01*
X151123662Y-53830538D01*
X151123673Y-53743225D01*
X151061496Y-53803550D01*
X151021186Y-53840788D01*
X150984931Y-53869697D01*
X150949549Y-53892387D01*
X150911860Y-53910968D01*
X150881300Y-53923062D01*
X150863306Y-53929353D01*
X150847388Y-53933871D01*
X150830899Y-53936907D01*
X150811190Y-53938753D01*
X150785615Y-53939701D01*
X150751526Y-53940041D01*
X150726775Y-53940075D01*
X150685314Y-53939890D01*
G36*
X146510529Y-53945897D02*
X146494500Y-53941874D01*
X146494500Y-53538597D01*
X146548102Y-53534248D01*
X146624124Y-53523089D01*
X146691562Y-53502585D01*
X146750537Y-53472637D01*
X146801171Y-53433147D01*
X146843588Y-53384014D01*
X146877909Y-53325139D01*
X146904257Y-53256423D01*
X146908557Y-53241575D01*
X146911723Y-53229627D01*
X146914385Y-53217915D01*
X146916596Y-53205233D01*
X146918410Y-53190371D01*
X146919879Y-53172120D01*
X146921056Y-53149273D01*
X146921995Y-53120620D01*
X146922748Y-53084952D01*
X146923368Y-53041062D01*
X146923910Y-52987741D01*
X146924425Y-52923780D01*
X146924801Y-52871688D01*
X146927048Y-52552600D01*
X147320000Y-52552600D01*
X147320000Y-53917850D01*
X146926300Y-53917850D01*
X146926156Y-53792438D01*
X146926012Y-53667025D01*
X146904997Y-53706010D01*
X146867822Y-53766019D01*
X146825261Y-53818993D01*
X146778746Y-53863607D01*
X146729710Y-53898535D01*
X146679584Y-53922452D01*
X146666590Y-53926691D01*
X146640206Y-53933189D01*
X146609202Y-53938914D01*
X146577083Y-53943435D01*
X146547354Y-53946322D01*
X146523520Y-53947142D01*
X146510529Y-53945897D01*
X146510529Y-53945897D01*
G37*
X146510529Y-53945897D02*
X146494500Y-53941874D01*
X146494500Y-53538597D01*
X146548102Y-53534248D01*
X146624124Y-53523089D01*
X146691562Y-53502585D01*
X146750537Y-53472637D01*
X146801171Y-53433147D01*
X146843588Y-53384014D01*
X146877909Y-53325139D01*
X146904257Y-53256423D01*
X146908557Y-53241575D01*
X146911723Y-53229627D01*
X146914385Y-53217915D01*
X146916596Y-53205233D01*
X146918410Y-53190371D01*
X146919879Y-53172120D01*
X146921056Y-53149273D01*
X146921995Y-53120620D01*
X146922748Y-53084952D01*
X146923368Y-53041062D01*
X146923910Y-52987741D01*
X146924425Y-52923780D01*
X146924801Y-52871688D01*
X146927048Y-52552600D01*
X147320000Y-52552600D01*
X147320000Y-53917850D01*
X146926300Y-53917850D01*
X146926156Y-53792438D01*
X146926012Y-53667025D01*
X146904997Y-53706010D01*
X146867822Y-53766019D01*
X146825261Y-53818993D01*
X146778746Y-53863607D01*
X146729710Y-53898535D01*
X146679584Y-53922452D01*
X146666590Y-53926691D01*
X146640206Y-53933189D01*
X146609202Y-53938914D01*
X146577083Y-53943435D01*
X146547354Y-53946322D01*
X146523520Y-53947142D01*
X146510529Y-53945897D01*
G36*
X144429104Y-53236813D02*
X144430632Y-52555775D01*
X144627541Y-52554098D01*
X144824450Y-52552420D01*
X144824450Y-53917850D01*
X144626013Y-53917851D01*
X144427575Y-53917851D01*
X144429104Y-53236813D01*
X144429104Y-53236813D01*
G37*
X144429104Y-53236813D02*
X144430632Y-52555775D01*
X144627541Y-52554098D01*
X144824450Y-52552420D01*
X144824450Y-53917850D01*
X144626013Y-53917851D01*
X144427575Y-53917851D01*
X144429104Y-53236813D01*
G36*
X143624300Y-54428113D02*
X143574916Y-54427692D01*
X143534832Y-54426308D01*
X143500663Y-54423566D01*
X143469022Y-54419071D01*
X143436522Y-54412427D01*
X143399778Y-54403240D01*
X143390938Y-54400878D01*
X143363950Y-54393611D01*
X143363950Y-54228076D01*
X143363997Y-54177971D01*
X143364200Y-54139183D01*
X143364654Y-54110332D01*
X143365456Y-54090035D01*
X143366700Y-54076910D01*
X143368482Y-54069576D01*
X143370897Y-54066651D01*
X143374042Y-54066752D01*
X143375063Y-54067133D01*
X143408256Y-54078106D01*
X143448780Y-54087409D01*
X143491280Y-54094017D01*
X143530009Y-54096892D01*
X143576391Y-54094442D01*
X143613063Y-54084462D01*
X143640870Y-54066160D01*
X143660657Y-54038748D01*
X143673269Y-54001434D01*
X143679292Y-53957291D01*
X143683030Y-53905376D01*
X143526427Y-53903676D01*
X143369824Y-53901975D01*
X143369824Y-53584475D01*
X143675100Y-53581075D01*
X143675100Y-52552600D01*
X144068800Y-52552600D01*
X144068800Y-53581300D01*
X144227550Y-53581300D01*
X144227550Y-53905150D01*
X144070526Y-53905150D01*
X144067230Y-53998813D01*
X144065082Y-54039777D01*
X144061729Y-54079627D01*
X144057562Y-54114480D01*
X144053050Y-54140100D01*
X144032069Y-54207935D01*
X144002121Y-54266786D01*
X143963093Y-54316775D01*
X143914867Y-54358022D01*
X143857329Y-54390649D01*
X143790362Y-54414776D01*
X143790312Y-54414790D01*
X143770631Y-54419778D01*
X143751275Y-54423381D01*
X143729650Y-54425808D01*
X143703162Y-54427267D01*
X143669215Y-54427966D01*
X143625215Y-54428114D01*
X143624300Y-54428113D01*
X143624300Y-54428113D01*
G37*
X143624300Y-54428113D02*
X143574916Y-54427692D01*
X143534832Y-54426308D01*
X143500663Y-54423566D01*
X143469022Y-54419071D01*
X143436522Y-54412427D01*
X143399778Y-54403240D01*
X143390938Y-54400878D01*
X143363950Y-54393611D01*
X143363950Y-54228076D01*
X143363997Y-54177971D01*
X143364200Y-54139183D01*
X143364654Y-54110332D01*
X143365456Y-54090035D01*
X143366700Y-54076910D01*
X143368482Y-54069576D01*
X143370897Y-54066651D01*
X143374042Y-54066752D01*
X143375063Y-54067133D01*
X143408256Y-54078106D01*
X143448780Y-54087409D01*
X143491280Y-54094017D01*
X143530009Y-54096892D01*
X143576391Y-54094442D01*
X143613063Y-54084462D01*
X143640870Y-54066160D01*
X143660657Y-54038748D01*
X143673269Y-54001434D01*
X143679292Y-53957291D01*
X143683030Y-53905376D01*
X143526427Y-53903676D01*
X143369824Y-53901975D01*
X143369824Y-53584475D01*
X143675100Y-53581075D01*
X143675100Y-52552600D01*
X144068800Y-52552600D01*
X144068800Y-53581300D01*
X144227550Y-53581300D01*
X144227550Y-53905150D01*
X144070526Y-53905150D01*
X144067230Y-53998813D01*
X144065082Y-54039777D01*
X144061729Y-54079627D01*
X144057562Y-54114480D01*
X144053050Y-54140100D01*
X144032069Y-54207935D01*
X144002121Y-54266786D01*
X143963093Y-54316775D01*
X143914867Y-54358022D01*
X143857329Y-54390649D01*
X143790362Y-54414776D01*
X143790312Y-54414790D01*
X143770631Y-54419778D01*
X143751275Y-54423381D01*
X143729650Y-54425808D01*
X143703162Y-54427267D01*
X143669215Y-54427966D01*
X143625215Y-54428114D01*
X143624300Y-54428113D01*
G36*
X144418050Y-54063900D02*
X144830800Y-54063900D01*
X144830800Y-54413150D01*
X144418050Y-54413150D01*
X144418050Y-54063900D01*
X144418050Y-54063900D01*
G37*
X144418050Y-54063900D02*
X144830800Y-54063900D01*
X144830800Y-54413150D01*
X144418050Y-54413150D01*
X144418050Y-54063900D01*
G36*
X157352371Y-55138740D02*
X157283273Y-55123866D01*
X157212510Y-55096990D01*
X157195109Y-55088750D01*
X157164236Y-55072593D01*
X157138924Y-55056462D01*
X157114897Y-55037233D01*
X157087880Y-55011783D01*
X157082704Y-55006635D01*
X157057073Y-54980087D01*
X157038026Y-54957462D01*
X157022487Y-54934444D01*
X157007376Y-54906713D01*
X156998288Y-54888211D01*
X156978545Y-54844791D01*
X156964841Y-54807830D01*
X156956211Y-54773192D01*
X156951687Y-54736743D01*
X156950304Y-54694348D01*
X156950331Y-54683025D01*
X156950714Y-54661672D01*
X156951803Y-54641678D01*
X156953992Y-54622098D01*
X156957672Y-54601985D01*
X156963234Y-54580395D01*
X156971069Y-54556381D01*
X156981570Y-54528996D01*
X156995127Y-54497296D01*
X157012134Y-54460334D01*
X157032980Y-54417163D01*
X157058058Y-54366839D01*
X157087759Y-54308414D01*
X157122475Y-54240944D01*
X157162597Y-54163481D01*
X157176384Y-54136925D01*
X157208942Y-54074351D01*
X157239972Y-54014937D01*
X157268948Y-53959676D01*
X157295347Y-53909557D01*
X157318641Y-53865573D01*
X157338306Y-53828715D01*
X157353816Y-53799974D01*
X157364647Y-53780341D01*
X157370273Y-53770807D01*
X157370716Y-53770213D01*
X157385710Y-53761325D01*
X157404829Y-53759736D01*
X157421736Y-53765691D01*
X157424613Y-53768121D01*
X157430531Y-53776690D01*
X157441641Y-53795391D01*
X157457329Y-53823059D01*
X157476981Y-53858530D01*
X157499984Y-53900642D01*
X157525722Y-53948230D01*
X157553582Y-54000132D01*
X157582949Y-54055182D01*
X157613209Y-54112218D01*
X157643748Y-54170076D01*
X157673951Y-54227592D01*
X157703205Y-54283603D01*
X157730895Y-54336945D01*
X157756407Y-54386455D01*
X157779127Y-54430968D01*
X157798439Y-54469321D01*
X157813731Y-54500351D01*
X157824388Y-54522894D01*
X157829732Y-54535597D01*
X157849826Y-54611997D01*
X157857716Y-54687565D01*
X157857040Y-54699358D01*
X157720278Y-54699358D01*
X157717202Y-54640076D01*
X157703540Y-54584059D01*
X157680319Y-54532333D01*
X157648567Y-54485924D01*
X157609313Y-54445859D01*
X157563583Y-54413165D01*
X157512406Y-54388868D01*
X157456810Y-54373994D01*
X157397822Y-54369570D01*
X157336471Y-54376623D01*
X157328712Y-54378357D01*
X157268267Y-54398685D01*
X157215260Y-54428981D01*
X157170449Y-54468414D01*
X157134590Y-54516150D01*
X157108437Y-54571360D01*
X157092748Y-54633211D01*
X157091911Y-54638823D01*
X157089116Y-54700154D01*
X157097625Y-54758657D01*
X157116344Y-54813283D01*
X157144178Y-54862985D01*
X157180033Y-54906714D01*
X157222813Y-54943422D01*
X157271425Y-54972060D01*
X157324772Y-54991580D01*
X157381761Y-55000934D01*
X157441296Y-54999072D01*
X157464125Y-54995255D01*
X157527536Y-54976523D01*
X157582912Y-54948252D01*
X157629766Y-54910903D01*
X157667613Y-54864936D01*
X157695966Y-54810810D01*
X157711740Y-54760878D01*
X157720278Y-54699358D01*
X157857040Y-54699358D01*
X157853474Y-54761468D01*
X157837168Y-54832871D01*
X157808871Y-54900941D01*
X157797129Y-54922162D01*
X157754737Y-54982133D01*
X157703617Y-55033707D01*
X157645082Y-55075802D01*
X157580445Y-55107334D01*
X157566473Y-55112425D01*
X157492291Y-55132912D01*
X157421483Y-55141720D01*
X157352371Y-55138740D01*
X157352371Y-55138740D01*
G37*
X157352371Y-55138740D02*
X157283273Y-55123866D01*
X157212510Y-55096990D01*
X157195109Y-55088750D01*
X157164236Y-55072593D01*
X157138924Y-55056462D01*
X157114897Y-55037233D01*
X157087880Y-55011783D01*
X157082704Y-55006635D01*
X157057073Y-54980087D01*
X157038026Y-54957462D01*
X157022487Y-54934444D01*
X157007376Y-54906713D01*
X156998288Y-54888211D01*
X156978545Y-54844791D01*
X156964841Y-54807830D01*
X156956211Y-54773192D01*
X156951687Y-54736743D01*
X156950304Y-54694348D01*
X156950331Y-54683025D01*
X156950714Y-54661672D01*
X156951803Y-54641678D01*
X156953992Y-54622098D01*
X156957672Y-54601985D01*
X156963234Y-54580395D01*
X156971069Y-54556381D01*
X156981570Y-54528996D01*
X156995127Y-54497296D01*
X157012134Y-54460334D01*
X157032980Y-54417163D01*
X157058058Y-54366839D01*
X157087759Y-54308414D01*
X157122475Y-54240944D01*
X157162597Y-54163481D01*
X157176384Y-54136925D01*
X157208942Y-54074351D01*
X157239972Y-54014937D01*
X157268948Y-53959676D01*
X157295347Y-53909557D01*
X157318641Y-53865573D01*
X157338306Y-53828715D01*
X157353816Y-53799974D01*
X157364647Y-53780341D01*
X157370273Y-53770807D01*
X157370716Y-53770213D01*
X157385710Y-53761325D01*
X157404829Y-53759736D01*
X157421736Y-53765691D01*
X157424613Y-53768121D01*
X157430531Y-53776690D01*
X157441641Y-53795391D01*
X157457329Y-53823059D01*
X157476981Y-53858530D01*
X157499984Y-53900642D01*
X157525722Y-53948230D01*
X157553582Y-54000132D01*
X157582949Y-54055182D01*
X157613209Y-54112218D01*
X157643748Y-54170076D01*
X157673951Y-54227592D01*
X157703205Y-54283603D01*
X157730895Y-54336945D01*
X157756407Y-54386455D01*
X157779127Y-54430968D01*
X157798439Y-54469321D01*
X157813731Y-54500351D01*
X157824388Y-54522894D01*
X157829732Y-54535597D01*
X157849826Y-54611997D01*
X157857716Y-54687565D01*
X157857040Y-54699358D01*
X157720278Y-54699358D01*
X157717202Y-54640076D01*
X157703540Y-54584059D01*
X157680319Y-54532333D01*
X157648567Y-54485924D01*
X157609313Y-54445859D01*
X157563583Y-54413165D01*
X157512406Y-54388868D01*
X157456810Y-54373994D01*
X157397822Y-54369570D01*
X157336471Y-54376623D01*
X157328712Y-54378357D01*
X157268267Y-54398685D01*
X157215260Y-54428981D01*
X157170449Y-54468414D01*
X157134590Y-54516150D01*
X157108437Y-54571360D01*
X157092748Y-54633211D01*
X157091911Y-54638823D01*
X157089116Y-54700154D01*
X157097625Y-54758657D01*
X157116344Y-54813283D01*
X157144178Y-54862985D01*
X157180033Y-54906714D01*
X157222813Y-54943422D01*
X157271425Y-54972060D01*
X157324772Y-54991580D01*
X157381761Y-55000934D01*
X157441296Y-54999072D01*
X157464125Y-54995255D01*
X157527536Y-54976523D01*
X157582912Y-54948252D01*
X157629766Y-54910903D01*
X157667613Y-54864936D01*
X157695966Y-54810810D01*
X157711740Y-54760878D01*
X157720278Y-54699358D01*
X157857040Y-54699358D01*
X157853474Y-54761468D01*
X157837168Y-54832871D01*
X157808871Y-54900941D01*
X157797129Y-54922162D01*
X157754737Y-54982133D01*
X157703617Y-55033707D01*
X157645082Y-55075802D01*
X157580445Y-55107334D01*
X157566473Y-55112425D01*
X157492291Y-55132912D01*
X157421483Y-55141720D01*
X157352371Y-55138740D01*
D13*
X194310000Y-50723800D02*
X186690000Y-50723800D01*
X194310000Y-63423800D02*
X194310000Y-50723800D01*
X186690000Y-63423800D02*
X194310000Y-63423800D01*
X194310000Y-77393800D02*
X186690000Y-77393800D01*
X194310000Y-90093800D02*
X194310000Y-77393800D01*
X186690000Y-90093800D02*
X194310000Y-90093800D01*
X194310000Y-63423800D02*
X194310000Y-50723800D01*
D14*
X187960000Y-50723800D02*
X187960000Y-90093800D01*
X193040000Y-50723800D02*
X193040000Y-90093800D01*
D13*
X186690000Y-63423800D02*
X186690000Y-50723800D01*
X186690000Y-90093800D02*
X186690000Y-77393800D01*
X194310000Y-90093800D02*
X194310000Y-77393800D01*
M02*
