G04 #@! TF.FileFunction,Copper,L2,Bot,Signal*
%FSLAX46Y46*%
G04 Gerber Fmt 4.6, Leading zero omitted, Abs format (unit mm)*
G04 Created by KiCad (PCBNEW 4.0.6) date 04/25/17 15:40:24*
%MOMM*%
%LPD*%
G01*
G04 APERTURE LIST*
%ADD10C,0.100000*%
%ADD11R,1.700000X1.700000*%
%ADD12O,1.700000X1.700000*%
%ADD13C,2.350000*%
%ADD14C,1.200000*%
%ADD15C,1.524000*%
%ADD16R,2.500000X2.500000*%
%ADD17C,2.500000*%
%ADD18C,1.200000*%
G04 APERTURE END LIST*
D10*
D11*
X186682260Y-57041350D03*
D12*
X186682260Y-54501350D03*
D13*
X180332260Y-68471350D03*
X180332260Y-63391350D03*
X180332260Y-78711350D03*
X180332260Y-83791350D03*
X177792260Y-65931350D03*
X182872260Y-65931350D03*
X177792260Y-81251350D03*
X182872260Y-81251350D03*
D14*
X183380260Y-89756550D03*
X180840260Y-89756550D03*
X178300260Y-89756550D03*
X175760260Y-89756550D03*
D11*
X95242260Y-55136350D03*
D12*
X92702260Y-55136350D03*
X90162260Y-55136350D03*
X87622260Y-55136350D03*
X85082260Y-55136350D03*
D15*
X160012260Y-66566350D03*
X162552260Y-66566350D03*
X165092260Y-66566350D03*
X167632260Y-66566350D03*
X157472260Y-66566350D03*
X160012260Y-99586350D03*
X162552260Y-99586350D03*
X165092260Y-99586350D03*
X167632260Y-99586350D03*
X137152260Y-66566350D03*
X139692260Y-66566350D03*
X142232260Y-66566350D03*
X144772260Y-66566350D03*
X134612260Y-66566350D03*
X137152260Y-99586350D03*
X139692260Y-99586350D03*
X142232260Y-99586350D03*
X144772260Y-99586350D03*
X114292260Y-66566350D03*
X116832260Y-66566350D03*
X119372260Y-66566350D03*
X121912260Y-66566350D03*
X111752260Y-66566350D03*
X114292260Y-99586350D03*
X116832260Y-99586350D03*
X119372260Y-99586350D03*
X121912260Y-99586350D03*
X91432260Y-66566350D03*
X93972260Y-66566350D03*
X96512260Y-66566350D03*
X99052260Y-66566350D03*
X88892260Y-66566350D03*
X91432260Y-99586350D03*
X93972260Y-99586350D03*
X96512260Y-99586350D03*
X99052260Y-99586350D03*
D16*
X181602260Y-55771350D03*
D17*
X176602260Y-55771350D03*
D16*
X183714260Y-112921350D03*
D17*
X188714260Y-112921350D03*
D16*
X154250260Y-112921350D03*
D17*
X159250260Y-112921350D03*
D16*
X142947260Y-112921350D03*
D17*
X147947260Y-112921350D03*
D16*
X120087260Y-112921350D03*
D17*
X125087260Y-112921350D03*
D16*
X97100260Y-112921350D03*
D17*
X102100260Y-112921350D03*
D16*
X165680260Y-112921350D03*
D17*
X170680260Y-112921350D03*
D16*
X131437260Y-112921350D03*
D17*
X136437260Y-112921350D03*
D16*
X108530260Y-112921350D03*
D17*
X113530260Y-112921350D03*
D16*
X85924260Y-112921350D03*
D17*
X90924260Y-112921350D03*
D18*
X178300260Y-89756550D02*
X178300260Y-85823350D01*
X178300260Y-85823350D02*
X180332260Y-83791350D01*
X183714260Y-112921350D02*
X183714260Y-90090550D01*
X183714260Y-90090550D02*
X183380260Y-89756550D01*
X139692260Y-103015350D02*
X139692260Y-99586350D01*
X142947260Y-106270350D02*
X139692260Y-103015350D01*
X142947260Y-112921350D02*
X142947260Y-106270350D01*
X137152260Y-99586350D02*
X131437260Y-105301350D01*
X131437260Y-105301350D02*
X131437260Y-112921350D01*
X139692260Y-99586350D02*
X137152260Y-99586350D01*
X116832260Y-103269350D02*
X116832260Y-99586350D01*
X120087260Y-106524350D02*
X116832260Y-103269350D01*
X120087260Y-112921350D02*
X120087260Y-106524350D01*
X108530260Y-112921350D02*
X108530260Y-105348350D01*
X108530260Y-105348350D02*
X114292260Y-99586350D01*
X116832260Y-99586350D02*
X114292260Y-99586350D01*
X91432260Y-99586350D02*
X93972260Y-99586350D01*
X93972260Y-107343350D02*
X93972260Y-99586350D01*
X97100260Y-112921350D02*
X97100260Y-110471350D01*
X97100260Y-110471350D02*
X93972260Y-107343350D01*
X85924260Y-112921350D02*
X85924260Y-105094350D01*
X85924260Y-105094350D02*
X91432260Y-99586350D01*
X134612260Y-66566350D02*
X130167260Y-62121350D01*
X92702260Y-57549350D02*
X92702260Y-56338431D01*
X130167260Y-62121350D02*
X97274260Y-62121350D01*
X97274260Y-62121350D02*
X92702260Y-57549350D01*
X92702260Y-56338431D02*
X92702260Y-55136350D01*
X90162260Y-55136350D02*
X90162260Y-57549350D01*
X109339260Y-64153350D02*
X96766260Y-64153350D01*
X96766260Y-64153350D02*
X90162260Y-57549350D01*
X109339260Y-64153350D02*
X111752260Y-66566350D01*
X87622260Y-55136350D02*
X87622260Y-65296350D01*
X87622260Y-65296350D02*
X88892260Y-66566350D01*
X162552260Y-105555350D02*
X165680260Y-108683350D01*
X165680260Y-108683350D02*
X165680260Y-112921350D01*
X162552260Y-99586350D02*
X162552260Y-105555350D01*
X160012260Y-99586350D02*
X158934630Y-99586350D01*
X158934630Y-99586350D02*
X154250260Y-104270720D01*
X154250260Y-104270720D02*
X154250260Y-110471350D01*
X154250260Y-110471350D02*
X154250260Y-112921350D01*
X160012260Y-99586350D02*
X162552260Y-99586350D01*
X102245260Y-60089350D02*
X150995260Y-60089350D01*
X150995260Y-60089350D02*
X157472260Y-66566350D01*
X95242260Y-55136350D02*
X97292260Y-55136350D01*
X97292260Y-55136350D02*
X102245260Y-60089350D01*
M02*
