M48
;DRILL file {KiCad 4.0.6} date 05/02/17 16:18:46
;FORMAT={-:-/ absolute / inch / decimal}
FMAT,2
INCH,TZ
T1C0.039
T2C0.051
T3C0.053
T4C0.150
%
G90
G05
M72
T1
X3.4997Y-2.6207
X3.54Y-2.035
X3.5997Y-2.6207
X3.5997Y-3.9207
X3.64Y-2.035
X3.6997Y-2.6207
X3.6997Y-3.9207
X3.74Y-2.035
X3.7997Y-2.6207
X3.7997Y-3.9207
X3.84Y-2.035
X3.8997Y-2.6207
X3.8997Y-3.9207
X3.94Y-2.035
X4.3997Y-2.6207
X4.4997Y-2.6207
X4.4997Y-3.9207
X4.5997Y-2.6207
X4.5997Y-3.9207
X4.6997Y-2.6207
X4.6997Y-3.9207
X4.7997Y-2.6207
X4.7997Y-3.9207
X5.2997Y-2.6207
X5.3997Y-2.6207
X5.3997Y-3.9207
X5.4997Y-2.6207
X5.4997Y-3.9207
X5.5997Y-2.6207
X5.5997Y-3.9207
X5.6997Y-2.6207
X5.6997Y-3.9207
X6.1997Y-2.6207
X6.2997Y-2.6207
X6.2997Y-3.9207
X6.3997Y-2.6207
X6.3997Y-3.9207
X6.4997Y-2.6207
X6.4997Y-3.9207
X6.5997Y-2.6207
X6.5997Y-3.9207
X6.9197Y-3.5337
X7.0197Y-3.5337
X7.1197Y-3.5337
X7.2197Y-3.5337
T2
X3.8228Y-4.4457
X4.0197Y-4.4457
X4.2728Y-4.4457
X4.4697Y-4.4457
X4.7278Y-4.4457
X4.9247Y-4.4457
X5.1747Y-4.4457
X5.3715Y-4.4457
X5.6278Y-4.4457
X5.8247Y-4.4457
X6.0728Y-4.4457
X6.2697Y-4.4457
X6.5228Y-4.4457
X6.525Y-2.175
X6.7197Y-4.4457
X6.7219Y-2.175
X7.3831Y-4.4457
X7.5075Y-3.7031
X7.5075Y-3.9
X7.58Y-4.4457
T3
X7.5Y-2.1
X7.5Y-2.4
X7.5Y-3.147
X7.5Y-3.447
T4
X3.35Y-2.0421
X3.35Y-4.5579
X7.1118Y-2.0421
X7.1118Y-4.5579
T0
M30
