G04 #@! TF.FileFunction,Legend,Top*
%FSLAX46Y46*%
G04 Gerber Fmt 4.6, Leading zero omitted, Abs format (unit mm)*
G04 Created by KiCad (PCBNEW 4.0.6) date 04/25/17 15:32:40*
%MOMM*%
%LPD*%
G01*
G04 APERTURE LIST*
%ADD10C,0.100000*%
%ADD11C,0.300000*%
%ADD12C,0.120000*%
%ADD13C,0.150000*%
G04 APERTURE END LIST*
D10*
D11*
X101643571Y-67976428D02*
X101643571Y-68833571D01*
X101643571Y-68404999D02*
X100143571Y-68404999D01*
X100357857Y-68547856D01*
X100500714Y-68690714D01*
X100572143Y-68833571D01*
X100286429Y-67405000D02*
X100215000Y-67333571D01*
X100143571Y-67190714D01*
X100143571Y-66833571D01*
X100215000Y-66690714D01*
X100286429Y-66619285D01*
X100429286Y-66547857D01*
X100572143Y-66547857D01*
X100786429Y-66619285D01*
X101643571Y-67476428D01*
X101643571Y-66547857D01*
X100143571Y-66119286D02*
X101643571Y-65619286D01*
X100143571Y-65119286D01*
X101072143Y-64619286D02*
X101072143Y-63476429D01*
X100143571Y-62905000D02*
X100143571Y-61976429D01*
X100715000Y-62476429D01*
X100715000Y-62262143D01*
X100786429Y-62119286D01*
X100857857Y-62047857D01*
X101000714Y-61976429D01*
X101357857Y-61976429D01*
X101500714Y-62047857D01*
X101572143Y-62119286D01*
X101643571Y-62262143D01*
X101643571Y-62690715D01*
X101572143Y-62833572D01*
X101500714Y-62905000D01*
X149487143Y-131131571D02*
X149987143Y-132631571D01*
X150487143Y-131131571D01*
X150987143Y-132631571D02*
X150987143Y-131131571D01*
X151701429Y-132631571D02*
X151701429Y-131131571D01*
X152558572Y-132631571D01*
X152558572Y-131131571D01*
X100143571Y-44695714D02*
X101643571Y-44195714D01*
X100143571Y-43695714D01*
X101215000Y-43267143D02*
X101215000Y-42552857D01*
X101643571Y-43410000D02*
X100143571Y-42910000D01*
X101643571Y-42410000D01*
X101072143Y-41910000D02*
X101072143Y-40767143D01*
X101643571Y-39267143D02*
X101643571Y-40124286D01*
X101643571Y-39695714D02*
X100143571Y-39695714D01*
X100357857Y-39838571D01*
X100500714Y-39981429D01*
X100572143Y-40124286D01*
X101643571Y-90836428D02*
X101643571Y-91693571D01*
X101643571Y-91264999D02*
X100143571Y-91264999D01*
X100357857Y-91407856D01*
X100500714Y-91550714D01*
X100572143Y-91693571D01*
X100286429Y-90265000D02*
X100215000Y-90193571D01*
X100143571Y-90050714D01*
X100143571Y-89693571D01*
X100215000Y-89550714D01*
X100286429Y-89479285D01*
X100429286Y-89407857D01*
X100572143Y-89407857D01*
X100786429Y-89479285D01*
X101643571Y-90336428D01*
X101643571Y-89407857D01*
X100143571Y-88979286D02*
X101643571Y-88479286D01*
X100143571Y-87979286D01*
X101072143Y-87479286D02*
X101072143Y-86336429D01*
X100286429Y-85693572D02*
X100215000Y-85622143D01*
X100143571Y-85479286D01*
X100143571Y-85122143D01*
X100215000Y-84979286D01*
X100286429Y-84907857D01*
X100429286Y-84836429D01*
X100572143Y-84836429D01*
X100786429Y-84907857D01*
X101643571Y-85765000D01*
X101643571Y-84836429D01*
X101643571Y-113696428D02*
X101643571Y-114553571D01*
X101643571Y-114124999D02*
X100143571Y-114124999D01*
X100357857Y-114267856D01*
X100500714Y-114410714D01*
X100572143Y-114553571D01*
X100286429Y-113125000D02*
X100215000Y-113053571D01*
X100143571Y-112910714D01*
X100143571Y-112553571D01*
X100215000Y-112410714D01*
X100286429Y-112339285D01*
X100429286Y-112267857D01*
X100572143Y-112267857D01*
X100786429Y-112339285D01*
X101643571Y-113196428D01*
X101643571Y-112267857D01*
X100143571Y-111839286D02*
X101643571Y-111339286D01*
X100143571Y-110839286D01*
X101072143Y-110339286D02*
X101072143Y-109196429D01*
X101643571Y-107696429D02*
X101643571Y-108553572D01*
X101643571Y-108125000D02*
X100143571Y-108125000D01*
X100357857Y-108267857D01*
X100500714Y-108410715D01*
X100572143Y-108553572D01*
X100118171Y-135024570D02*
X100118171Y-135738856D01*
X100832457Y-135810285D01*
X100761029Y-135738856D01*
X100689600Y-135595999D01*
X100689600Y-135238856D01*
X100761029Y-135095999D01*
X100832457Y-135024570D01*
X100975314Y-134953142D01*
X101332457Y-134953142D01*
X101475314Y-135024570D01*
X101546743Y-135095999D01*
X101618171Y-135238856D01*
X101618171Y-135595999D01*
X101546743Y-135738856D01*
X101475314Y-135810285D01*
X100118171Y-134524571D02*
X101618171Y-134024571D01*
X100118171Y-133524571D01*
X101046743Y-133024571D02*
X101046743Y-131881714D01*
X101618171Y-130381714D02*
X101618171Y-131238857D01*
X101618171Y-130810285D02*
X100118171Y-130810285D01*
X100332457Y-130953142D01*
X100475314Y-131096000D01*
X100546743Y-131238857D01*
D12*
X151130000Y-143570000D02*
X153730000Y-143570000D01*
X153730000Y-143570000D02*
X153730000Y-140910000D01*
X153730000Y-140910000D02*
X151130000Y-140910000D01*
X151130000Y-140910000D02*
X151130000Y-143570000D01*
X149860000Y-143570000D02*
X148530000Y-143570000D01*
X148530000Y-143570000D02*
X148530000Y-142240000D01*
X130060000Y-135890000D02*
X136560000Y-135890000D01*
X129970000Y-139320000D02*
X127050000Y-139320000D01*
X120440000Y-139320000D02*
X124250000Y-139320000D01*
X121210000Y-138430000D02*
X124000000Y-138430000D01*
X129970000Y-138430000D02*
X127300000Y-138430000D01*
X120440000Y-132460000D02*
X124250000Y-132460000D01*
X121210000Y-133350000D02*
X124000000Y-133350000D01*
X129970000Y-132460000D02*
X127050000Y-132460000D01*
X129970000Y-133350000D02*
X127300000Y-133350000D01*
X136520000Y-132460000D02*
X139570000Y-132460000D01*
X136520000Y-133350000D02*
X139320000Y-133350000D01*
X136520000Y-138430000D02*
X139320000Y-138430000D01*
X136520000Y-139320000D02*
X139570000Y-139320000D01*
X146180000Y-139320000D02*
X142370000Y-139320000D01*
X145290000Y-138430000D02*
X142620000Y-138430000D01*
X146180000Y-132460000D02*
X142370000Y-132460000D01*
X145290000Y-133350000D02*
X142620000Y-133350000D01*
X146180000Y-132460000D02*
X146180000Y-139320000D01*
X136520000Y-139320000D02*
X136520000Y-138430000D01*
X136520000Y-132460000D02*
X136520000Y-133350000D01*
X120440000Y-132460000D02*
X120440000Y-139320000D01*
X129970000Y-139320000D02*
X129970000Y-138430000D01*
X129970000Y-132460000D02*
X129970000Y-133480000D01*
X139020000Y-138430000D02*
X127340000Y-138430000D01*
X127470000Y-133350000D02*
X139020000Y-133350000D01*
X129970000Y-135890000D02*
X129970000Y-133350000D01*
X121200000Y-133350000D02*
X121200000Y-138430000D01*
X129970000Y-138430000D02*
X129970000Y-135890000D01*
X136520000Y-135890000D02*
X136520000Y-133350000D01*
X145280000Y-133350000D02*
X145280000Y-138430000D01*
X136520000Y-138430000D02*
X136520000Y-135890000D01*
D13*
X102244800Y-140028000D02*
X118244800Y-140028000D01*
X102244800Y-130208000D02*
X102244800Y-140028000D01*
X118254800Y-130218000D02*
X102244800Y-130208000D01*
X116044800Y-140038000D02*
X116044800Y-130218000D01*
X116044800Y-130218000D02*
X118244800Y-130218000D01*
X118244800Y-130218000D02*
X118244800Y-140038000D01*
X118244800Y-140038000D02*
X116044800Y-140038000D01*
D12*
X153095000Y-49530000D02*
X153095000Y-39310000D01*
X153095000Y-39310000D02*
X150435000Y-39310000D01*
X150435000Y-39310000D02*
X150435000Y-49530000D01*
X150435000Y-49530000D02*
X153095000Y-49530000D01*
X153095000Y-50800000D02*
X153095000Y-52130000D01*
X153095000Y-52130000D02*
X151765000Y-52130000D01*
D13*
X102235000Y-128905000D02*
X102235000Y-107315000D01*
X145415000Y-128905000D02*
X102235000Y-128905000D01*
X145415000Y-107315000D02*
X145415000Y-128905000D01*
X102235000Y-107315000D02*
X145415000Y-107315000D01*
X102235000Y-106045000D02*
X102235000Y-84455000D01*
X145415000Y-106045000D02*
X102235000Y-106045000D01*
X145415000Y-84455000D02*
X145415000Y-106045000D01*
X102235000Y-84455000D02*
X145415000Y-84455000D01*
X102235000Y-83185000D02*
X102235000Y-61595000D01*
X145415000Y-83185000D02*
X102235000Y-83185000D01*
X145415000Y-61595000D02*
X145415000Y-83185000D01*
X102235000Y-61595000D02*
X145415000Y-61595000D01*
X102235000Y-60325000D02*
X102235000Y-38735000D01*
X145415000Y-60325000D02*
X102235000Y-60325000D01*
X145415000Y-38735000D02*
X145415000Y-60325000D01*
X102235000Y-38735000D02*
X145415000Y-38735000D01*
X155230000Y-134660000D02*
X155730000Y-134660000D01*
X153230000Y-132160000D02*
G75*
G03X153230000Y-132160000I-2000000J0D01*
G01*
X153230000Y-137160000D02*
G75*
G03X153230000Y-137160000I-2000000J0D01*
G01*
X153730000Y-139660000D02*
X153730000Y-129660000D01*
X148830000Y-139660000D02*
X148830000Y-129660000D01*
X155230000Y-139660000D02*
X155230000Y-129660000D01*
X155730000Y-139660000D02*
X155730000Y-129660000D01*
X155730000Y-129660000D02*
X145930000Y-129660000D01*
X145930000Y-129660000D02*
X145930000Y-139660000D01*
X145930000Y-139660000D02*
X155730000Y-139660000D01*
X89880000Y-141772000D02*
X89380000Y-141772000D01*
X95880000Y-144272000D02*
G75*
G03X95880000Y-144272000I-2000000J0D01*
G01*
X95880000Y-139272000D02*
G75*
G03X95880000Y-139272000I-2000000J0D01*
G01*
X91380000Y-136772000D02*
X91380000Y-146772000D01*
X96280000Y-136772000D02*
X96280000Y-146772000D01*
X89880000Y-136772000D02*
X89880000Y-146772000D01*
X89380000Y-136772000D02*
X89380000Y-146772000D01*
X89380000Y-146772000D02*
X99180000Y-146772000D01*
X99180000Y-146772000D02*
X99180000Y-136772000D01*
X99180000Y-136772000D02*
X89380000Y-136772000D01*
X89880000Y-112308000D02*
X89380000Y-112308000D01*
X95880000Y-114808000D02*
G75*
G03X95880000Y-114808000I-2000000J0D01*
G01*
X95880000Y-109808000D02*
G75*
G03X95880000Y-109808000I-2000000J0D01*
G01*
X91380000Y-107308000D02*
X91380000Y-117308000D01*
X96280000Y-107308000D02*
X96280000Y-117308000D01*
X89880000Y-107308000D02*
X89880000Y-117308000D01*
X89380000Y-107308000D02*
X89380000Y-117308000D01*
X89380000Y-117308000D02*
X99180000Y-117308000D01*
X99180000Y-117308000D02*
X99180000Y-107308000D01*
X99180000Y-107308000D02*
X89380000Y-107308000D01*
X89880000Y-101005000D02*
X89380000Y-101005000D01*
X95880000Y-103505000D02*
G75*
G03X95880000Y-103505000I-2000000J0D01*
G01*
X95880000Y-98505000D02*
G75*
G03X95880000Y-98505000I-2000000J0D01*
G01*
X91380000Y-96005000D02*
X91380000Y-106005000D01*
X96280000Y-96005000D02*
X96280000Y-106005000D01*
X89880000Y-96005000D02*
X89880000Y-106005000D01*
X89380000Y-96005000D02*
X89380000Y-106005000D01*
X89380000Y-106005000D02*
X99180000Y-106005000D01*
X99180000Y-106005000D02*
X99180000Y-96005000D01*
X99180000Y-96005000D02*
X89380000Y-96005000D01*
X89880000Y-78145000D02*
X89380000Y-78145000D01*
X95880000Y-80645000D02*
G75*
G03X95880000Y-80645000I-2000000J0D01*
G01*
X95880000Y-75645000D02*
G75*
G03X95880000Y-75645000I-2000000J0D01*
G01*
X91380000Y-73145000D02*
X91380000Y-83145000D01*
X96280000Y-73145000D02*
X96280000Y-83145000D01*
X89880000Y-73145000D02*
X89880000Y-83145000D01*
X89380000Y-73145000D02*
X89380000Y-83145000D01*
X89380000Y-83145000D02*
X99180000Y-83145000D01*
X99180000Y-83145000D02*
X99180000Y-73145000D01*
X99180000Y-73145000D02*
X89380000Y-73145000D01*
X89880000Y-55158000D02*
X89380000Y-55158000D01*
X95880000Y-57658000D02*
G75*
G03X95880000Y-57658000I-2000000J0D01*
G01*
X95880000Y-52658000D02*
G75*
G03X95880000Y-52658000I-2000000J0D01*
G01*
X91380000Y-50158000D02*
X91380000Y-60158000D01*
X96280000Y-50158000D02*
X96280000Y-60158000D01*
X89880000Y-50158000D02*
X89880000Y-60158000D01*
X89380000Y-50158000D02*
X89380000Y-60158000D01*
X89380000Y-60158000D02*
X99180000Y-60158000D01*
X99180000Y-60158000D02*
X99180000Y-50158000D01*
X99180000Y-50158000D02*
X89380000Y-50158000D01*
X89880000Y-123738000D02*
X89380000Y-123738000D01*
X95880000Y-126238000D02*
G75*
G03X95880000Y-126238000I-2000000J0D01*
G01*
X95880000Y-121238000D02*
G75*
G03X95880000Y-121238000I-2000000J0D01*
G01*
X91380000Y-118738000D02*
X91380000Y-128738000D01*
X96280000Y-118738000D02*
X96280000Y-128738000D01*
X89880000Y-118738000D02*
X89880000Y-128738000D01*
X89380000Y-118738000D02*
X89380000Y-128738000D01*
X89380000Y-128738000D02*
X99180000Y-128738000D01*
X99180000Y-128738000D02*
X99180000Y-118738000D01*
X99180000Y-118738000D02*
X89380000Y-118738000D01*
X89880000Y-89495000D02*
X89380000Y-89495000D01*
X95880000Y-91995000D02*
G75*
G03X95880000Y-91995000I-2000000J0D01*
G01*
X95880000Y-86995000D02*
G75*
G03X95880000Y-86995000I-2000000J0D01*
G01*
X91380000Y-84495000D02*
X91380000Y-94495000D01*
X96280000Y-84495000D02*
X96280000Y-94495000D01*
X89880000Y-84495000D02*
X89880000Y-94495000D01*
X89380000Y-84495000D02*
X89380000Y-94495000D01*
X89380000Y-94495000D02*
X99180000Y-94495000D01*
X99180000Y-94495000D02*
X99180000Y-84495000D01*
X99180000Y-84495000D02*
X89380000Y-84495000D01*
X89880000Y-66588000D02*
X89380000Y-66588000D01*
X95880000Y-69088000D02*
G75*
G03X95880000Y-69088000I-2000000J0D01*
G01*
X95880000Y-64088000D02*
G75*
G03X95880000Y-64088000I-2000000J0D01*
G01*
X91380000Y-61588000D02*
X91380000Y-71588000D01*
X96280000Y-61588000D02*
X96280000Y-71588000D01*
X89880000Y-61588000D02*
X89880000Y-71588000D01*
X89380000Y-61588000D02*
X89380000Y-71588000D01*
X89380000Y-71588000D02*
X99180000Y-71588000D01*
X99180000Y-71588000D02*
X99180000Y-61588000D01*
X99180000Y-61588000D02*
X89380000Y-61588000D01*
X89880000Y-43982000D02*
X89380000Y-43982000D01*
X95880000Y-46482000D02*
G75*
G03X95880000Y-46482000I-2000000J0D01*
G01*
X95880000Y-41482000D02*
G75*
G03X95880000Y-41482000I-2000000J0D01*
G01*
X91380000Y-38982000D02*
X91380000Y-48982000D01*
X96280000Y-38982000D02*
X96280000Y-48982000D01*
X89880000Y-38982000D02*
X89880000Y-48982000D01*
X89380000Y-38982000D02*
X89380000Y-48982000D01*
X89380000Y-48982000D02*
X99180000Y-48982000D01*
X99180000Y-48982000D02*
X99180000Y-38982000D01*
X99180000Y-38982000D02*
X89380000Y-38982000D01*
X156482381Y-134993333D02*
X157196667Y-134993333D01*
X157339524Y-135040953D01*
X157434762Y-135136191D01*
X157482381Y-135279048D01*
X157482381Y-135374286D01*
X157482381Y-133993333D02*
X157482381Y-134564762D01*
X157482381Y-134279048D02*
X156482381Y-134279048D01*
X156625238Y-134374286D01*
X156720476Y-134469524D01*
X156768095Y-134564762D01*
M02*
