G04 #@! TF.FileFunction,Copper,L2,Bot,Signal*
%FSLAX46Y46*%
G04 Gerber Fmt 4.6, Leading zero omitted, Abs format (unit mm)*
G04 Created by KiCad (PCBNEW 4.0.6) date 04/28/17 12:07:29*
%MOMM*%
%LPD*%
G01*
G04 APERTURE LIST*
%ADD10C,0.100000*%
%ADD11C,2.350000*%
%ADD12O,1.700000X1.700000*%
%ADD13R,1.700000X1.700000*%
%ADD14R,2.500000X2.500000*%
%ADD15C,2.500000*%
%ADD16C,1.200000*%
%ADD17C,0.250000*%
%ADD18C,0.254000*%
G04 APERTURE END LIST*
D10*
D11*
X180332260Y-68471350D03*
X180332260Y-63391350D03*
X180332260Y-78711350D03*
X180332260Y-83791350D03*
X177792260Y-65931350D03*
X182872260Y-65931350D03*
X177792260Y-81251350D03*
X182872260Y-81251350D03*
D12*
X183380260Y-89756550D03*
X180840260Y-89756550D03*
X178300260Y-89756550D03*
X175760260Y-89756550D03*
D13*
X100076000Y-51689000D03*
D12*
X97536000Y-51689000D03*
X94996000Y-51689000D03*
X92456000Y-51689000D03*
X89916000Y-51689000D03*
X160012260Y-66566350D03*
X162552260Y-66566350D03*
X165092260Y-66566350D03*
X167632260Y-66566350D03*
X157472260Y-66566350D03*
X160012260Y-99586350D03*
X162552260Y-99586350D03*
X165092260Y-99586350D03*
X167632260Y-99586350D03*
X137152260Y-66566350D03*
X139692260Y-66566350D03*
X142232260Y-66566350D03*
X144772260Y-66566350D03*
X134612260Y-66566350D03*
X137152260Y-99586350D03*
X139692260Y-99586350D03*
X142232260Y-99586350D03*
X144772260Y-99586350D03*
X114292260Y-66566350D03*
X116832260Y-66566350D03*
X119372260Y-66566350D03*
X121912260Y-66566350D03*
X111752260Y-66566350D03*
X114292260Y-99586350D03*
X116832260Y-99586350D03*
X119372260Y-99586350D03*
X121912260Y-99586350D03*
X91432260Y-66566350D03*
X93972260Y-66566350D03*
X96512260Y-66566350D03*
X99052260Y-66566350D03*
X88892260Y-66566350D03*
X91432260Y-99586350D03*
X93972260Y-99586350D03*
X96512260Y-99586350D03*
X99052260Y-99586350D03*
D14*
X170735000Y-55245000D03*
D15*
X165735000Y-55245000D03*
D14*
X187532000Y-112921350D03*
D15*
X192532000Y-112921350D03*
D14*
X154250260Y-112921350D03*
D15*
X159250260Y-112921350D03*
D14*
X142947260Y-112921350D03*
D15*
X147947260Y-112921350D03*
D14*
X120087260Y-112921350D03*
D15*
X125087260Y-112921350D03*
D14*
X97100260Y-112921350D03*
D15*
X102100260Y-112921350D03*
D14*
X165680260Y-112921350D03*
D15*
X170680260Y-112921350D03*
D14*
X131437260Y-112921350D03*
D15*
X136437260Y-112921350D03*
D14*
X108530260Y-112921350D03*
D15*
X113530260Y-112921350D03*
D14*
X190690500Y-90805000D03*
D15*
X190690500Y-85805000D03*
D16*
X178300260Y-89756550D02*
X178300260Y-85823350D01*
X178300260Y-85823350D02*
X180332260Y-83791350D01*
X185082000Y-112921350D02*
X187532000Y-112921350D01*
X183380260Y-111219610D02*
X185082000Y-112921350D01*
X183380260Y-89756550D02*
X183380260Y-111219610D01*
X183714260Y-90090550D02*
X183380260Y-89756550D01*
D17*
X97536000Y-51689000D02*
X99314000Y-53467000D01*
X99314000Y-53467000D02*
X133604000Y-53467000D01*
X133604000Y-53467000D02*
X134620000Y-54483000D01*
X134620000Y-54483000D02*
X134620000Y-65356529D01*
X134620000Y-65356529D02*
X134612260Y-65364269D01*
X134612260Y-65364269D02*
X134612260Y-66566350D01*
X110490000Y-54483000D02*
X97790000Y-54483000D01*
X111760000Y-65356529D02*
X111760000Y-55753000D01*
X110490000Y-54483000D02*
X111760000Y-55753000D01*
X97790000Y-54483000D02*
X94996000Y-51689000D01*
X111752260Y-66566350D02*
X111752260Y-65364269D01*
X111752260Y-65364269D02*
X111760000Y-65356529D01*
X88900000Y-65356529D02*
X88900000Y-55245000D01*
X88900000Y-55245000D02*
X92456000Y-51689000D01*
X88892260Y-66566350D02*
X88892260Y-65364269D01*
X88892260Y-65364269D02*
X88900000Y-65356529D01*
X157480000Y-53848000D02*
X155829000Y-52197000D01*
X155829000Y-52197000D02*
X155702000Y-52070000D01*
X100076000Y-51689000D02*
X155321000Y-51689000D01*
X155321000Y-51689000D02*
X155829000Y-52197000D01*
X157480000Y-65356529D02*
X157480000Y-53848000D01*
X157472260Y-66566350D02*
X157472260Y-65364269D01*
X157472260Y-65364269D02*
X157480000Y-65356529D01*
D18*
G36*
X95115260Y-65637436D02*
X94739184Y-65294705D01*
X94329150Y-65124874D01*
X94099260Y-65246195D01*
X94099260Y-66439350D01*
X94119260Y-66439350D01*
X94119260Y-66693350D01*
X94099260Y-66693350D01*
X94099260Y-67886505D01*
X94329150Y-68007826D01*
X94739184Y-67837995D01*
X95115260Y-67495264D01*
X95115260Y-68725350D01*
X95125266Y-68774760D01*
X95153707Y-68816385D01*
X95196101Y-68843665D01*
X95242260Y-68852350D01*
X113022260Y-68852350D01*
X113071670Y-68842344D01*
X113113295Y-68813903D01*
X113140575Y-68771509D01*
X113149260Y-68725350D01*
X113149260Y-67495264D01*
X113525336Y-67837995D01*
X113935370Y-68007826D01*
X114165260Y-67886505D01*
X114165260Y-66693350D01*
X114419260Y-66693350D01*
X114419260Y-67886505D01*
X114649150Y-68007826D01*
X115059184Y-67837995D01*
X115487443Y-67447708D01*
X115562260Y-67288396D01*
X115637077Y-67447708D01*
X116065336Y-67837995D01*
X116475370Y-68007826D01*
X116705260Y-67886505D01*
X116705260Y-66693350D01*
X114419260Y-66693350D01*
X114165260Y-66693350D01*
X114145260Y-66693350D01*
X114145260Y-66439350D01*
X114165260Y-66439350D01*
X114165260Y-65246195D01*
X114419260Y-65246195D01*
X114419260Y-66439350D01*
X116705260Y-66439350D01*
X116705260Y-65246195D01*
X116475370Y-65124874D01*
X116065336Y-65294705D01*
X115637077Y-65684992D01*
X115562260Y-65844304D01*
X115487443Y-65684992D01*
X115059184Y-65294705D01*
X114649150Y-65124874D01*
X114419260Y-65246195D01*
X114165260Y-65246195D01*
X113935370Y-65124874D01*
X113525336Y-65294705D01*
X113149260Y-65637436D01*
X113149260Y-64280350D01*
X117975260Y-64280350D01*
X117975260Y-65637436D01*
X117599184Y-65294705D01*
X117189150Y-65124874D01*
X116959260Y-65246195D01*
X116959260Y-66439350D01*
X116979260Y-66439350D01*
X116979260Y-66693350D01*
X116959260Y-66693350D01*
X116959260Y-67886505D01*
X117189150Y-68007826D01*
X117599184Y-67837995D01*
X117975260Y-67495264D01*
X117975260Y-68725350D01*
X117985266Y-68774760D01*
X118013707Y-68816385D01*
X118056101Y-68843665D01*
X118102260Y-68852350D01*
X135882260Y-68852350D01*
X135931670Y-68842344D01*
X135973295Y-68813903D01*
X136000575Y-68771509D01*
X136009260Y-68725350D01*
X136009260Y-67495264D01*
X136385336Y-67837995D01*
X136795370Y-68007826D01*
X137025260Y-67886505D01*
X137025260Y-66693350D01*
X137279260Y-66693350D01*
X137279260Y-67886505D01*
X137509150Y-68007826D01*
X137919184Y-67837995D01*
X138347443Y-67447708D01*
X138422260Y-67288396D01*
X138497077Y-67447708D01*
X138925336Y-67837995D01*
X139335370Y-68007826D01*
X139565260Y-67886505D01*
X139565260Y-66693350D01*
X137279260Y-66693350D01*
X137025260Y-66693350D01*
X137005260Y-66693350D01*
X137005260Y-66439350D01*
X137025260Y-66439350D01*
X137025260Y-65246195D01*
X137279260Y-65246195D01*
X137279260Y-66439350D01*
X139565260Y-66439350D01*
X139565260Y-65246195D01*
X139335370Y-65124874D01*
X138925336Y-65294705D01*
X138497077Y-65684992D01*
X138422260Y-65844304D01*
X138347443Y-65684992D01*
X137919184Y-65294705D01*
X137509150Y-65124874D01*
X137279260Y-65246195D01*
X137025260Y-65246195D01*
X136795370Y-65124874D01*
X136385336Y-65294705D01*
X136009260Y-65637436D01*
X136009260Y-64280350D01*
X140835260Y-64280350D01*
X140835260Y-65637436D01*
X140459184Y-65294705D01*
X140049150Y-65124874D01*
X139819260Y-65246195D01*
X139819260Y-66439350D01*
X139839260Y-66439350D01*
X139839260Y-66693350D01*
X139819260Y-66693350D01*
X139819260Y-67886505D01*
X140049150Y-68007826D01*
X140459184Y-67837995D01*
X140835260Y-67495264D01*
X140835260Y-68217350D01*
X140845266Y-68266760D01*
X140873707Y-68308385D01*
X140916101Y-68335665D01*
X140962260Y-68344350D01*
X158742260Y-68344350D01*
X158791670Y-68334344D01*
X158833295Y-68305903D01*
X158860575Y-68263509D01*
X158869260Y-68217350D01*
X158869260Y-67495264D01*
X159245336Y-67837995D01*
X159655370Y-68007826D01*
X159885260Y-67886505D01*
X159885260Y-66693350D01*
X160139260Y-66693350D01*
X160139260Y-67886505D01*
X160369150Y-68007826D01*
X160779184Y-67837995D01*
X161207443Y-67447708D01*
X161282260Y-67288396D01*
X161357077Y-67447708D01*
X161785336Y-67837995D01*
X162195370Y-68007826D01*
X162425260Y-67886505D01*
X162425260Y-66693350D01*
X160139260Y-66693350D01*
X159885260Y-66693350D01*
X159865260Y-66693350D01*
X159865260Y-66439350D01*
X159885260Y-66439350D01*
X159885260Y-65246195D01*
X160139260Y-65246195D01*
X160139260Y-66439350D01*
X162425260Y-66439350D01*
X162425260Y-65246195D01*
X162195370Y-65124874D01*
X161785336Y-65294705D01*
X161357077Y-65684992D01*
X161282260Y-65844304D01*
X161207443Y-65684992D01*
X160779184Y-65294705D01*
X160369150Y-65124874D01*
X160139260Y-65246195D01*
X159885260Y-65246195D01*
X159655370Y-65124874D01*
X159245336Y-65294705D01*
X158869260Y-65637436D01*
X158869260Y-64280350D01*
X163695260Y-64280350D01*
X163695260Y-65637436D01*
X163319184Y-65294705D01*
X162909150Y-65124874D01*
X162679260Y-65246195D01*
X162679260Y-66439350D01*
X162699260Y-66439350D01*
X162699260Y-66693350D01*
X162679260Y-66693350D01*
X162679260Y-67886505D01*
X162909150Y-68007826D01*
X163319184Y-67837995D01*
X163695260Y-67495264D01*
X163695260Y-68217350D01*
X163705266Y-68266760D01*
X163733707Y-68308385D01*
X163776101Y-68335665D01*
X163822260Y-68344350D01*
X173347432Y-68344350D01*
X173355000Y-73914173D01*
X173365073Y-73963569D01*
X173393570Y-74005155D01*
X173436002Y-74032377D01*
X173482000Y-74041000D01*
X195052260Y-74041000D01*
X195052260Y-87757000D01*
X90296959Y-87757000D01*
X90296758Y-87138320D01*
X189536785Y-87138320D01*
X189666033Y-87431123D01*
X190366306Y-87699388D01*
X191115935Y-87679250D01*
X191714967Y-87431123D01*
X191844215Y-87138320D01*
X190690500Y-85984605D01*
X189536785Y-87138320D01*
X90296758Y-87138320D01*
X90296084Y-85070451D01*
X179232764Y-85070451D01*
X179352843Y-85355468D01*
X180025958Y-85611214D01*
X180745705Y-85589902D01*
X181009085Y-85480806D01*
X188796112Y-85480806D01*
X188816250Y-86230435D01*
X189064377Y-86829467D01*
X189357180Y-86958715D01*
X190510895Y-85805000D01*
X190870105Y-85805000D01*
X192023820Y-86958715D01*
X192316623Y-86829467D01*
X192584888Y-86129194D01*
X192564750Y-85379565D01*
X192316623Y-84780533D01*
X192023820Y-84651285D01*
X190870105Y-85805000D01*
X190510895Y-85805000D01*
X189357180Y-84651285D01*
X189064377Y-84780533D01*
X188796112Y-85480806D01*
X181009085Y-85480806D01*
X181311677Y-85355468D01*
X181431756Y-85070451D01*
X180332260Y-83970955D01*
X179232764Y-85070451D01*
X90296084Y-85070451D01*
X90295255Y-82530451D01*
X176692764Y-82530451D01*
X176812843Y-82815468D01*
X177485958Y-83071214D01*
X178205705Y-83049902D01*
X178765888Y-82817866D01*
X178512396Y-83485048D01*
X178533708Y-84204795D01*
X178768142Y-84770767D01*
X179053159Y-84890846D01*
X180152655Y-83791350D01*
X180511865Y-83791350D01*
X181611361Y-84890846D01*
X181896378Y-84770767D01*
X182010014Y-84471680D01*
X189536785Y-84471680D01*
X190690500Y-85625395D01*
X191844215Y-84471680D01*
X191714967Y-84178877D01*
X191014694Y-83910612D01*
X190265065Y-83930750D01*
X189666033Y-84178877D01*
X189536785Y-84471680D01*
X182010014Y-84471680D01*
X182152124Y-84097652D01*
X182130812Y-83377905D01*
X181898776Y-82817722D01*
X182565958Y-83071214D01*
X183285705Y-83049902D01*
X183851677Y-82815468D01*
X183971756Y-82530451D01*
X182872260Y-81430955D01*
X181772764Y-82530451D01*
X181890269Y-82809359D01*
X181611361Y-82691854D01*
X180511865Y-83791350D01*
X180152655Y-83791350D01*
X179053159Y-82691854D01*
X178774251Y-82809359D01*
X178891756Y-82530451D01*
X177792260Y-81430955D01*
X176692764Y-82530451D01*
X90295255Y-82530451D01*
X90294737Y-80945048D01*
X175972396Y-80945048D01*
X175993708Y-81664795D01*
X176228142Y-82230767D01*
X176513159Y-82350846D01*
X177612655Y-81251350D01*
X177971865Y-81251350D01*
X179071361Y-82350846D01*
X179350269Y-82233341D01*
X179232764Y-82512249D01*
X180332260Y-83611745D01*
X181431756Y-82512249D01*
X181314251Y-82233341D01*
X181593159Y-82350846D01*
X182692655Y-81251350D01*
X183051865Y-81251350D01*
X184151361Y-82350846D01*
X184436378Y-82230767D01*
X184692124Y-81557652D01*
X184670812Y-80837905D01*
X184436378Y-80271933D01*
X184151361Y-80151854D01*
X183051865Y-81251350D01*
X182692655Y-81251350D01*
X181593159Y-80151854D01*
X181314251Y-80269359D01*
X181431756Y-79990451D01*
X180332260Y-78890955D01*
X179232764Y-79990451D01*
X179350269Y-80269359D01*
X179071361Y-80151854D01*
X177971865Y-81251350D01*
X177612655Y-81251350D01*
X176513159Y-80151854D01*
X176228142Y-80271933D01*
X175972396Y-80945048D01*
X90294737Y-80945048D01*
X90294420Y-79972249D01*
X176692764Y-79972249D01*
X177792260Y-81071745D01*
X178891756Y-79972249D01*
X178774251Y-79693341D01*
X179053159Y-79810846D01*
X180152655Y-78711350D01*
X180511865Y-78711350D01*
X181611361Y-79810846D01*
X181890269Y-79693341D01*
X181772764Y-79972249D01*
X182872260Y-81071745D01*
X183971756Y-79972249D01*
X183851677Y-79687232D01*
X183178562Y-79431486D01*
X182458815Y-79452798D01*
X181898632Y-79684834D01*
X182152124Y-79017652D01*
X182130812Y-78297905D01*
X181896378Y-77731933D01*
X181611361Y-77611854D01*
X180511865Y-78711350D01*
X180152655Y-78711350D01*
X179053159Y-77611854D01*
X178768142Y-77731933D01*
X178512396Y-78405048D01*
X178533708Y-79124795D01*
X178765744Y-79684978D01*
X178098562Y-79431486D01*
X177378815Y-79452798D01*
X176812843Y-79687232D01*
X176692764Y-79972249D01*
X90294420Y-79972249D01*
X90293592Y-77432249D01*
X179232764Y-77432249D01*
X180332260Y-78531745D01*
X181431756Y-77432249D01*
X181311677Y-77147232D01*
X180638562Y-76891486D01*
X179918815Y-76912798D01*
X179352843Y-77147232D01*
X179232764Y-77432249D01*
X90293592Y-77432249D01*
X90290350Y-67496258D01*
X90665336Y-67837995D01*
X91075370Y-68007826D01*
X91305260Y-67886505D01*
X91305260Y-66693350D01*
X91559260Y-66693350D01*
X91559260Y-67886505D01*
X91789150Y-68007826D01*
X92199184Y-67837995D01*
X92627443Y-67447708D01*
X92702260Y-67288396D01*
X92777077Y-67447708D01*
X93205336Y-67837995D01*
X93615370Y-68007826D01*
X93845260Y-67886505D01*
X93845260Y-66693350D01*
X91559260Y-66693350D01*
X91305260Y-66693350D01*
X91285260Y-66693350D01*
X91285260Y-66439350D01*
X91305260Y-66439350D01*
X91305260Y-65246195D01*
X91559260Y-65246195D01*
X91559260Y-66439350D01*
X93845260Y-66439350D01*
X93845260Y-65246195D01*
X93615370Y-65124874D01*
X93205336Y-65294705D01*
X92777077Y-65684992D01*
X92702260Y-65844304D01*
X92627443Y-65684992D01*
X92199184Y-65294705D01*
X91789150Y-65124874D01*
X91559260Y-65246195D01*
X91305260Y-65246195D01*
X91075370Y-65124874D01*
X90665336Y-65294705D01*
X90289744Y-65636995D01*
X90289301Y-64280350D01*
X95115260Y-64280350D01*
X95115260Y-65637436D01*
X95115260Y-65637436D01*
G37*
X95115260Y-65637436D02*
X94739184Y-65294705D01*
X94329150Y-65124874D01*
X94099260Y-65246195D01*
X94099260Y-66439350D01*
X94119260Y-66439350D01*
X94119260Y-66693350D01*
X94099260Y-66693350D01*
X94099260Y-67886505D01*
X94329150Y-68007826D01*
X94739184Y-67837995D01*
X95115260Y-67495264D01*
X95115260Y-68725350D01*
X95125266Y-68774760D01*
X95153707Y-68816385D01*
X95196101Y-68843665D01*
X95242260Y-68852350D01*
X113022260Y-68852350D01*
X113071670Y-68842344D01*
X113113295Y-68813903D01*
X113140575Y-68771509D01*
X113149260Y-68725350D01*
X113149260Y-67495264D01*
X113525336Y-67837995D01*
X113935370Y-68007826D01*
X114165260Y-67886505D01*
X114165260Y-66693350D01*
X114419260Y-66693350D01*
X114419260Y-67886505D01*
X114649150Y-68007826D01*
X115059184Y-67837995D01*
X115487443Y-67447708D01*
X115562260Y-67288396D01*
X115637077Y-67447708D01*
X116065336Y-67837995D01*
X116475370Y-68007826D01*
X116705260Y-67886505D01*
X116705260Y-66693350D01*
X114419260Y-66693350D01*
X114165260Y-66693350D01*
X114145260Y-66693350D01*
X114145260Y-66439350D01*
X114165260Y-66439350D01*
X114165260Y-65246195D01*
X114419260Y-65246195D01*
X114419260Y-66439350D01*
X116705260Y-66439350D01*
X116705260Y-65246195D01*
X116475370Y-65124874D01*
X116065336Y-65294705D01*
X115637077Y-65684992D01*
X115562260Y-65844304D01*
X115487443Y-65684992D01*
X115059184Y-65294705D01*
X114649150Y-65124874D01*
X114419260Y-65246195D01*
X114165260Y-65246195D01*
X113935370Y-65124874D01*
X113525336Y-65294705D01*
X113149260Y-65637436D01*
X113149260Y-64280350D01*
X117975260Y-64280350D01*
X117975260Y-65637436D01*
X117599184Y-65294705D01*
X117189150Y-65124874D01*
X116959260Y-65246195D01*
X116959260Y-66439350D01*
X116979260Y-66439350D01*
X116979260Y-66693350D01*
X116959260Y-66693350D01*
X116959260Y-67886505D01*
X117189150Y-68007826D01*
X117599184Y-67837995D01*
X117975260Y-67495264D01*
X117975260Y-68725350D01*
X117985266Y-68774760D01*
X118013707Y-68816385D01*
X118056101Y-68843665D01*
X118102260Y-68852350D01*
X135882260Y-68852350D01*
X135931670Y-68842344D01*
X135973295Y-68813903D01*
X136000575Y-68771509D01*
X136009260Y-68725350D01*
X136009260Y-67495264D01*
X136385336Y-67837995D01*
X136795370Y-68007826D01*
X137025260Y-67886505D01*
X137025260Y-66693350D01*
X137279260Y-66693350D01*
X137279260Y-67886505D01*
X137509150Y-68007826D01*
X137919184Y-67837995D01*
X138347443Y-67447708D01*
X138422260Y-67288396D01*
X138497077Y-67447708D01*
X138925336Y-67837995D01*
X139335370Y-68007826D01*
X139565260Y-67886505D01*
X139565260Y-66693350D01*
X137279260Y-66693350D01*
X137025260Y-66693350D01*
X137005260Y-66693350D01*
X137005260Y-66439350D01*
X137025260Y-66439350D01*
X137025260Y-65246195D01*
X137279260Y-65246195D01*
X137279260Y-66439350D01*
X139565260Y-66439350D01*
X139565260Y-65246195D01*
X139335370Y-65124874D01*
X138925336Y-65294705D01*
X138497077Y-65684992D01*
X138422260Y-65844304D01*
X138347443Y-65684992D01*
X137919184Y-65294705D01*
X137509150Y-65124874D01*
X137279260Y-65246195D01*
X137025260Y-65246195D01*
X136795370Y-65124874D01*
X136385336Y-65294705D01*
X136009260Y-65637436D01*
X136009260Y-64280350D01*
X140835260Y-64280350D01*
X140835260Y-65637436D01*
X140459184Y-65294705D01*
X140049150Y-65124874D01*
X139819260Y-65246195D01*
X139819260Y-66439350D01*
X139839260Y-66439350D01*
X139839260Y-66693350D01*
X139819260Y-66693350D01*
X139819260Y-67886505D01*
X140049150Y-68007826D01*
X140459184Y-67837995D01*
X140835260Y-67495264D01*
X140835260Y-68217350D01*
X140845266Y-68266760D01*
X140873707Y-68308385D01*
X140916101Y-68335665D01*
X140962260Y-68344350D01*
X158742260Y-68344350D01*
X158791670Y-68334344D01*
X158833295Y-68305903D01*
X158860575Y-68263509D01*
X158869260Y-68217350D01*
X158869260Y-67495264D01*
X159245336Y-67837995D01*
X159655370Y-68007826D01*
X159885260Y-67886505D01*
X159885260Y-66693350D01*
X160139260Y-66693350D01*
X160139260Y-67886505D01*
X160369150Y-68007826D01*
X160779184Y-67837995D01*
X161207443Y-67447708D01*
X161282260Y-67288396D01*
X161357077Y-67447708D01*
X161785336Y-67837995D01*
X162195370Y-68007826D01*
X162425260Y-67886505D01*
X162425260Y-66693350D01*
X160139260Y-66693350D01*
X159885260Y-66693350D01*
X159865260Y-66693350D01*
X159865260Y-66439350D01*
X159885260Y-66439350D01*
X159885260Y-65246195D01*
X160139260Y-65246195D01*
X160139260Y-66439350D01*
X162425260Y-66439350D01*
X162425260Y-65246195D01*
X162195370Y-65124874D01*
X161785336Y-65294705D01*
X161357077Y-65684992D01*
X161282260Y-65844304D01*
X161207443Y-65684992D01*
X160779184Y-65294705D01*
X160369150Y-65124874D01*
X160139260Y-65246195D01*
X159885260Y-65246195D01*
X159655370Y-65124874D01*
X159245336Y-65294705D01*
X158869260Y-65637436D01*
X158869260Y-64280350D01*
X163695260Y-64280350D01*
X163695260Y-65637436D01*
X163319184Y-65294705D01*
X162909150Y-65124874D01*
X162679260Y-65246195D01*
X162679260Y-66439350D01*
X162699260Y-66439350D01*
X162699260Y-66693350D01*
X162679260Y-66693350D01*
X162679260Y-67886505D01*
X162909150Y-68007826D01*
X163319184Y-67837995D01*
X163695260Y-67495264D01*
X163695260Y-68217350D01*
X163705266Y-68266760D01*
X163733707Y-68308385D01*
X163776101Y-68335665D01*
X163822260Y-68344350D01*
X173347432Y-68344350D01*
X173355000Y-73914173D01*
X173365073Y-73963569D01*
X173393570Y-74005155D01*
X173436002Y-74032377D01*
X173482000Y-74041000D01*
X195052260Y-74041000D01*
X195052260Y-87757000D01*
X90296959Y-87757000D01*
X90296758Y-87138320D01*
X189536785Y-87138320D01*
X189666033Y-87431123D01*
X190366306Y-87699388D01*
X191115935Y-87679250D01*
X191714967Y-87431123D01*
X191844215Y-87138320D01*
X190690500Y-85984605D01*
X189536785Y-87138320D01*
X90296758Y-87138320D01*
X90296084Y-85070451D01*
X179232764Y-85070451D01*
X179352843Y-85355468D01*
X180025958Y-85611214D01*
X180745705Y-85589902D01*
X181009085Y-85480806D01*
X188796112Y-85480806D01*
X188816250Y-86230435D01*
X189064377Y-86829467D01*
X189357180Y-86958715D01*
X190510895Y-85805000D01*
X190870105Y-85805000D01*
X192023820Y-86958715D01*
X192316623Y-86829467D01*
X192584888Y-86129194D01*
X192564750Y-85379565D01*
X192316623Y-84780533D01*
X192023820Y-84651285D01*
X190870105Y-85805000D01*
X190510895Y-85805000D01*
X189357180Y-84651285D01*
X189064377Y-84780533D01*
X188796112Y-85480806D01*
X181009085Y-85480806D01*
X181311677Y-85355468D01*
X181431756Y-85070451D01*
X180332260Y-83970955D01*
X179232764Y-85070451D01*
X90296084Y-85070451D01*
X90295255Y-82530451D01*
X176692764Y-82530451D01*
X176812843Y-82815468D01*
X177485958Y-83071214D01*
X178205705Y-83049902D01*
X178765888Y-82817866D01*
X178512396Y-83485048D01*
X178533708Y-84204795D01*
X178768142Y-84770767D01*
X179053159Y-84890846D01*
X180152655Y-83791350D01*
X180511865Y-83791350D01*
X181611361Y-84890846D01*
X181896378Y-84770767D01*
X182010014Y-84471680D01*
X189536785Y-84471680D01*
X190690500Y-85625395D01*
X191844215Y-84471680D01*
X191714967Y-84178877D01*
X191014694Y-83910612D01*
X190265065Y-83930750D01*
X189666033Y-84178877D01*
X189536785Y-84471680D01*
X182010014Y-84471680D01*
X182152124Y-84097652D01*
X182130812Y-83377905D01*
X181898776Y-82817722D01*
X182565958Y-83071214D01*
X183285705Y-83049902D01*
X183851677Y-82815468D01*
X183971756Y-82530451D01*
X182872260Y-81430955D01*
X181772764Y-82530451D01*
X181890269Y-82809359D01*
X181611361Y-82691854D01*
X180511865Y-83791350D01*
X180152655Y-83791350D01*
X179053159Y-82691854D01*
X178774251Y-82809359D01*
X178891756Y-82530451D01*
X177792260Y-81430955D01*
X176692764Y-82530451D01*
X90295255Y-82530451D01*
X90294737Y-80945048D01*
X175972396Y-80945048D01*
X175993708Y-81664795D01*
X176228142Y-82230767D01*
X176513159Y-82350846D01*
X177612655Y-81251350D01*
X177971865Y-81251350D01*
X179071361Y-82350846D01*
X179350269Y-82233341D01*
X179232764Y-82512249D01*
X180332260Y-83611745D01*
X181431756Y-82512249D01*
X181314251Y-82233341D01*
X181593159Y-82350846D01*
X182692655Y-81251350D01*
X183051865Y-81251350D01*
X184151361Y-82350846D01*
X184436378Y-82230767D01*
X184692124Y-81557652D01*
X184670812Y-80837905D01*
X184436378Y-80271933D01*
X184151361Y-80151854D01*
X183051865Y-81251350D01*
X182692655Y-81251350D01*
X181593159Y-80151854D01*
X181314251Y-80269359D01*
X181431756Y-79990451D01*
X180332260Y-78890955D01*
X179232764Y-79990451D01*
X179350269Y-80269359D01*
X179071361Y-80151854D01*
X177971865Y-81251350D01*
X177612655Y-81251350D01*
X176513159Y-80151854D01*
X176228142Y-80271933D01*
X175972396Y-80945048D01*
X90294737Y-80945048D01*
X90294420Y-79972249D01*
X176692764Y-79972249D01*
X177792260Y-81071745D01*
X178891756Y-79972249D01*
X178774251Y-79693341D01*
X179053159Y-79810846D01*
X180152655Y-78711350D01*
X180511865Y-78711350D01*
X181611361Y-79810846D01*
X181890269Y-79693341D01*
X181772764Y-79972249D01*
X182872260Y-81071745D01*
X183971756Y-79972249D01*
X183851677Y-79687232D01*
X183178562Y-79431486D01*
X182458815Y-79452798D01*
X181898632Y-79684834D01*
X182152124Y-79017652D01*
X182130812Y-78297905D01*
X181896378Y-77731933D01*
X181611361Y-77611854D01*
X180511865Y-78711350D01*
X180152655Y-78711350D01*
X179053159Y-77611854D01*
X178768142Y-77731933D01*
X178512396Y-78405048D01*
X178533708Y-79124795D01*
X178765744Y-79684978D01*
X178098562Y-79431486D01*
X177378815Y-79452798D01*
X176812843Y-79687232D01*
X176692764Y-79972249D01*
X90294420Y-79972249D01*
X90293592Y-77432249D01*
X179232764Y-77432249D01*
X180332260Y-78531745D01*
X181431756Y-77432249D01*
X181311677Y-77147232D01*
X180638562Y-76891486D01*
X179918815Y-76912798D01*
X179352843Y-77147232D01*
X179232764Y-77432249D01*
X90293592Y-77432249D01*
X90290350Y-67496258D01*
X90665336Y-67837995D01*
X91075370Y-68007826D01*
X91305260Y-67886505D01*
X91305260Y-66693350D01*
X91559260Y-66693350D01*
X91559260Y-67886505D01*
X91789150Y-68007826D01*
X92199184Y-67837995D01*
X92627443Y-67447708D01*
X92702260Y-67288396D01*
X92777077Y-67447708D01*
X93205336Y-67837995D01*
X93615370Y-68007826D01*
X93845260Y-67886505D01*
X93845260Y-66693350D01*
X91559260Y-66693350D01*
X91305260Y-66693350D01*
X91285260Y-66693350D01*
X91285260Y-66439350D01*
X91305260Y-66439350D01*
X91305260Y-65246195D01*
X91559260Y-65246195D01*
X91559260Y-66439350D01*
X93845260Y-66439350D01*
X93845260Y-65246195D01*
X93615370Y-65124874D01*
X93205336Y-65294705D01*
X92777077Y-65684992D01*
X92702260Y-65844304D01*
X92627443Y-65684992D01*
X92199184Y-65294705D01*
X91789150Y-65124874D01*
X91559260Y-65246195D01*
X91305260Y-65246195D01*
X91075370Y-65124874D01*
X90665336Y-65294705D01*
X90289744Y-65636995D01*
X90289301Y-64280350D01*
X95115260Y-64280350D01*
X95115260Y-65637436D01*
G36*
X178492184Y-50432163D02*
X178105441Y-51363545D01*
X178104561Y-52372031D01*
X178489678Y-53304086D01*
X179202163Y-54017816D01*
X180133545Y-54404559D01*
X181142031Y-54405439D01*
X182074086Y-54020322D01*
X182787816Y-53307837D01*
X183174559Y-52376455D01*
X183175439Y-51367969D01*
X182790322Y-50435914D01*
X182486289Y-50131350D01*
X195052260Y-50131350D01*
X195052260Y-73025000D01*
X174371000Y-73025000D01*
X174371000Y-69750451D01*
X179232764Y-69750451D01*
X179352843Y-70035468D01*
X180025958Y-70291214D01*
X180745705Y-70269902D01*
X181311677Y-70035468D01*
X181431756Y-69750451D01*
X180332260Y-68650955D01*
X179232764Y-69750451D01*
X174371000Y-69750451D01*
X174371000Y-67564000D01*
X174360994Y-67514590D01*
X174332553Y-67472965D01*
X174290159Y-67445685D01*
X174244000Y-67437000D01*
X169799000Y-67437000D01*
X169799000Y-67210451D01*
X176692764Y-67210451D01*
X176812843Y-67495468D01*
X177485958Y-67751214D01*
X178205705Y-67729902D01*
X178765888Y-67497866D01*
X178512396Y-68165048D01*
X178533708Y-68884795D01*
X178768142Y-69450767D01*
X179053159Y-69570846D01*
X180152655Y-68471350D01*
X180511865Y-68471350D01*
X181611361Y-69570846D01*
X181896378Y-69450767D01*
X182152124Y-68777652D01*
X182130812Y-68057905D01*
X181898776Y-67497722D01*
X182565958Y-67751214D01*
X183285705Y-67729902D01*
X183851677Y-67495468D01*
X183971756Y-67210451D01*
X182872260Y-66110955D01*
X181772764Y-67210451D01*
X181890269Y-67489359D01*
X181611361Y-67371854D01*
X180511865Y-68471350D01*
X180152655Y-68471350D01*
X179053159Y-67371854D01*
X178774251Y-67489359D01*
X178891756Y-67210451D01*
X177792260Y-66110955D01*
X176692764Y-67210451D01*
X169799000Y-67210451D01*
X169799000Y-65625048D01*
X175972396Y-65625048D01*
X175993708Y-66344795D01*
X176228142Y-66910767D01*
X176513159Y-67030846D01*
X177612655Y-65931350D01*
X177971865Y-65931350D01*
X179071361Y-67030846D01*
X179350269Y-66913341D01*
X179232764Y-67192249D01*
X180332260Y-68291745D01*
X181431756Y-67192249D01*
X181314251Y-66913341D01*
X181593159Y-67030846D01*
X182692655Y-65931350D01*
X183051865Y-65931350D01*
X184151361Y-67030846D01*
X184436378Y-66910767D01*
X184692124Y-66237652D01*
X184670812Y-65517905D01*
X184436378Y-64951933D01*
X184151361Y-64831854D01*
X183051865Y-65931350D01*
X182692655Y-65931350D01*
X181593159Y-64831854D01*
X181314251Y-64949359D01*
X181431756Y-64670451D01*
X180332260Y-63570955D01*
X179232764Y-64670451D01*
X179350269Y-64949359D01*
X179071361Y-64831854D01*
X177971865Y-65931350D01*
X177612655Y-65931350D01*
X176513159Y-64831854D01*
X176228142Y-64951933D01*
X175972396Y-65625048D01*
X169799000Y-65625048D01*
X169799000Y-64652249D01*
X176692764Y-64652249D01*
X177792260Y-65751745D01*
X178891756Y-64652249D01*
X178774251Y-64373341D01*
X179053159Y-64490846D01*
X180152655Y-63391350D01*
X180511865Y-63391350D01*
X181611361Y-64490846D01*
X181890269Y-64373341D01*
X181772764Y-64652249D01*
X182872260Y-65751745D01*
X183971756Y-64652249D01*
X183851677Y-64367232D01*
X183178562Y-64111486D01*
X182458815Y-64132798D01*
X181898632Y-64364834D01*
X182152124Y-63697652D01*
X182130812Y-62977905D01*
X181896378Y-62411933D01*
X181611361Y-62291854D01*
X180511865Y-63391350D01*
X180152655Y-63391350D01*
X179053159Y-62291854D01*
X178768142Y-62411933D01*
X178512396Y-63085048D01*
X178533708Y-63804795D01*
X178765744Y-64364978D01*
X178098562Y-64111486D01*
X177378815Y-64132798D01*
X176812843Y-64367232D01*
X176692764Y-64652249D01*
X169799000Y-64652249D01*
X169799000Y-62112249D01*
X179232764Y-62112249D01*
X180332260Y-63211745D01*
X181431756Y-62112249D01*
X181311677Y-61827232D01*
X180638562Y-61571486D01*
X179918815Y-61592798D01*
X179352843Y-61827232D01*
X179232764Y-62112249D01*
X169799000Y-62112249D01*
X169799000Y-60706000D01*
X169788994Y-60656590D01*
X169760553Y-60614965D01*
X169718159Y-60587685D01*
X169672000Y-60579000D01*
X168275000Y-60579000D01*
X168275000Y-55530750D01*
X168850000Y-55530750D01*
X168850000Y-56621310D01*
X168946673Y-56854699D01*
X169125302Y-57033327D01*
X169358691Y-57130000D01*
X170449250Y-57130000D01*
X170608000Y-56971250D01*
X170608000Y-55372000D01*
X170862000Y-55372000D01*
X170862000Y-56971250D01*
X171020750Y-57130000D01*
X172111309Y-57130000D01*
X172344698Y-57033327D01*
X172523327Y-56854699D01*
X172620000Y-56621310D01*
X172620000Y-55530750D01*
X172461250Y-55372000D01*
X170862000Y-55372000D01*
X170608000Y-55372000D01*
X169008750Y-55372000D01*
X168850000Y-55530750D01*
X168275000Y-55530750D01*
X168275000Y-53868690D01*
X168850000Y-53868690D01*
X168850000Y-54959250D01*
X169008750Y-55118000D01*
X170608000Y-55118000D01*
X170608000Y-53518750D01*
X170862000Y-53518750D01*
X170862000Y-55118000D01*
X172461250Y-55118000D01*
X172620000Y-54959250D01*
X172620000Y-53868690D01*
X172523327Y-53635301D01*
X172344698Y-53456673D01*
X172111309Y-53360000D01*
X171020750Y-53360000D01*
X170862000Y-53518750D01*
X170608000Y-53518750D01*
X170449250Y-53360000D01*
X169358691Y-53360000D01*
X169125302Y-53456673D01*
X168946673Y-53635301D01*
X168850000Y-53868690D01*
X168275000Y-53868690D01*
X168275000Y-50131350D01*
X178793523Y-50131350D01*
X178492184Y-50432163D01*
X178492184Y-50432163D01*
G37*
X178492184Y-50432163D02*
X178105441Y-51363545D01*
X178104561Y-52372031D01*
X178489678Y-53304086D01*
X179202163Y-54017816D01*
X180133545Y-54404559D01*
X181142031Y-54405439D01*
X182074086Y-54020322D01*
X182787816Y-53307837D01*
X183174559Y-52376455D01*
X183175439Y-51367969D01*
X182790322Y-50435914D01*
X182486289Y-50131350D01*
X195052260Y-50131350D01*
X195052260Y-73025000D01*
X174371000Y-73025000D01*
X174371000Y-69750451D01*
X179232764Y-69750451D01*
X179352843Y-70035468D01*
X180025958Y-70291214D01*
X180745705Y-70269902D01*
X181311677Y-70035468D01*
X181431756Y-69750451D01*
X180332260Y-68650955D01*
X179232764Y-69750451D01*
X174371000Y-69750451D01*
X174371000Y-67564000D01*
X174360994Y-67514590D01*
X174332553Y-67472965D01*
X174290159Y-67445685D01*
X174244000Y-67437000D01*
X169799000Y-67437000D01*
X169799000Y-67210451D01*
X176692764Y-67210451D01*
X176812843Y-67495468D01*
X177485958Y-67751214D01*
X178205705Y-67729902D01*
X178765888Y-67497866D01*
X178512396Y-68165048D01*
X178533708Y-68884795D01*
X178768142Y-69450767D01*
X179053159Y-69570846D01*
X180152655Y-68471350D01*
X180511865Y-68471350D01*
X181611361Y-69570846D01*
X181896378Y-69450767D01*
X182152124Y-68777652D01*
X182130812Y-68057905D01*
X181898776Y-67497722D01*
X182565958Y-67751214D01*
X183285705Y-67729902D01*
X183851677Y-67495468D01*
X183971756Y-67210451D01*
X182872260Y-66110955D01*
X181772764Y-67210451D01*
X181890269Y-67489359D01*
X181611361Y-67371854D01*
X180511865Y-68471350D01*
X180152655Y-68471350D01*
X179053159Y-67371854D01*
X178774251Y-67489359D01*
X178891756Y-67210451D01*
X177792260Y-66110955D01*
X176692764Y-67210451D01*
X169799000Y-67210451D01*
X169799000Y-65625048D01*
X175972396Y-65625048D01*
X175993708Y-66344795D01*
X176228142Y-66910767D01*
X176513159Y-67030846D01*
X177612655Y-65931350D01*
X177971865Y-65931350D01*
X179071361Y-67030846D01*
X179350269Y-66913341D01*
X179232764Y-67192249D01*
X180332260Y-68291745D01*
X181431756Y-67192249D01*
X181314251Y-66913341D01*
X181593159Y-67030846D01*
X182692655Y-65931350D01*
X183051865Y-65931350D01*
X184151361Y-67030846D01*
X184436378Y-66910767D01*
X184692124Y-66237652D01*
X184670812Y-65517905D01*
X184436378Y-64951933D01*
X184151361Y-64831854D01*
X183051865Y-65931350D01*
X182692655Y-65931350D01*
X181593159Y-64831854D01*
X181314251Y-64949359D01*
X181431756Y-64670451D01*
X180332260Y-63570955D01*
X179232764Y-64670451D01*
X179350269Y-64949359D01*
X179071361Y-64831854D01*
X177971865Y-65931350D01*
X177612655Y-65931350D01*
X176513159Y-64831854D01*
X176228142Y-64951933D01*
X175972396Y-65625048D01*
X169799000Y-65625048D01*
X169799000Y-64652249D01*
X176692764Y-64652249D01*
X177792260Y-65751745D01*
X178891756Y-64652249D01*
X178774251Y-64373341D01*
X179053159Y-64490846D01*
X180152655Y-63391350D01*
X180511865Y-63391350D01*
X181611361Y-64490846D01*
X181890269Y-64373341D01*
X181772764Y-64652249D01*
X182872260Y-65751745D01*
X183971756Y-64652249D01*
X183851677Y-64367232D01*
X183178562Y-64111486D01*
X182458815Y-64132798D01*
X181898632Y-64364834D01*
X182152124Y-63697652D01*
X182130812Y-62977905D01*
X181896378Y-62411933D01*
X181611361Y-62291854D01*
X180511865Y-63391350D01*
X180152655Y-63391350D01*
X179053159Y-62291854D01*
X178768142Y-62411933D01*
X178512396Y-63085048D01*
X178533708Y-63804795D01*
X178765744Y-64364978D01*
X178098562Y-64111486D01*
X177378815Y-64132798D01*
X176812843Y-64367232D01*
X176692764Y-64652249D01*
X169799000Y-64652249D01*
X169799000Y-62112249D01*
X179232764Y-62112249D01*
X180332260Y-63211745D01*
X181431756Y-62112249D01*
X181311677Y-61827232D01*
X180638562Y-61571486D01*
X179918815Y-61592798D01*
X179352843Y-61827232D01*
X179232764Y-62112249D01*
X169799000Y-62112249D01*
X169799000Y-60706000D01*
X169788994Y-60656590D01*
X169760553Y-60614965D01*
X169718159Y-60587685D01*
X169672000Y-60579000D01*
X168275000Y-60579000D01*
X168275000Y-55530750D01*
X168850000Y-55530750D01*
X168850000Y-56621310D01*
X168946673Y-56854699D01*
X169125302Y-57033327D01*
X169358691Y-57130000D01*
X170449250Y-57130000D01*
X170608000Y-56971250D01*
X170608000Y-55372000D01*
X170862000Y-55372000D01*
X170862000Y-56971250D01*
X171020750Y-57130000D01*
X172111309Y-57130000D01*
X172344698Y-57033327D01*
X172523327Y-56854699D01*
X172620000Y-56621310D01*
X172620000Y-55530750D01*
X172461250Y-55372000D01*
X170862000Y-55372000D01*
X170608000Y-55372000D01*
X169008750Y-55372000D01*
X168850000Y-55530750D01*
X168275000Y-55530750D01*
X168275000Y-53868690D01*
X168850000Y-53868690D01*
X168850000Y-54959250D01*
X169008750Y-55118000D01*
X170608000Y-55118000D01*
X170608000Y-53518750D01*
X170862000Y-53518750D01*
X170862000Y-55118000D01*
X172461250Y-55118000D01*
X172620000Y-54959250D01*
X172620000Y-53868690D01*
X172523327Y-53635301D01*
X172344698Y-53456673D01*
X172111309Y-53360000D01*
X171020750Y-53360000D01*
X170862000Y-53518750D01*
X170608000Y-53518750D01*
X170449250Y-53360000D01*
X169358691Y-53360000D01*
X169125302Y-53456673D01*
X168946673Y-53635301D01*
X168850000Y-53868690D01*
X168275000Y-53868690D01*
X168275000Y-50131350D01*
X178793523Y-50131350D01*
X178492184Y-50432163D01*
G36*
X104648000Y-116078000D02*
X89662000Y-116078000D01*
X89662000Y-113207100D01*
X95215260Y-113207100D01*
X95215260Y-114297660D01*
X95311933Y-114531049D01*
X95490562Y-114709677D01*
X95723951Y-114806350D01*
X96814510Y-114806350D01*
X96973260Y-114647600D01*
X96973260Y-113048350D01*
X97227260Y-113048350D01*
X97227260Y-114647600D01*
X97386010Y-114806350D01*
X98476569Y-114806350D01*
X98709958Y-114709677D01*
X98888587Y-114531049D01*
X98985260Y-114297660D01*
X98985260Y-113294655D01*
X100214934Y-113294655D01*
X100501303Y-113987722D01*
X101031099Y-114518443D01*
X101723665Y-114806022D01*
X102473565Y-114806676D01*
X103166632Y-114520307D01*
X103697353Y-113990511D01*
X103984932Y-113297945D01*
X103985586Y-112548045D01*
X103699217Y-111854978D01*
X103169421Y-111324257D01*
X102476855Y-111036678D01*
X101726955Y-111036024D01*
X101033888Y-111322393D01*
X100503167Y-111852189D01*
X100215588Y-112544755D01*
X100214934Y-113294655D01*
X98985260Y-113294655D01*
X98985260Y-113207100D01*
X98826510Y-113048350D01*
X97227260Y-113048350D01*
X96973260Y-113048350D01*
X95374010Y-113048350D01*
X95215260Y-113207100D01*
X89662000Y-113207100D01*
X89662000Y-111545040D01*
X95215260Y-111545040D01*
X95215260Y-112635600D01*
X95374010Y-112794350D01*
X96973260Y-112794350D01*
X96973260Y-111195100D01*
X97227260Y-111195100D01*
X97227260Y-112794350D01*
X98826510Y-112794350D01*
X98985260Y-112635600D01*
X98985260Y-111545040D01*
X98888587Y-111311651D01*
X98709958Y-111133023D01*
X98476569Y-111036350D01*
X97386010Y-111036350D01*
X97227260Y-111195100D01*
X96973260Y-111195100D01*
X96814510Y-111036350D01*
X95723951Y-111036350D01*
X95490562Y-111133023D01*
X95311933Y-111311651D01*
X95215260Y-111545040D01*
X89662000Y-111545040D01*
X89662000Y-99943242D01*
X89990774Y-99943242D01*
X90237077Y-100467708D01*
X90665336Y-100857995D01*
X91075370Y-101027826D01*
X91305260Y-100906505D01*
X91305260Y-99713350D01*
X91559260Y-99713350D01*
X91559260Y-100906505D01*
X91789150Y-101027826D01*
X92199184Y-100857995D01*
X92627443Y-100467708D01*
X92702260Y-100308396D01*
X92777077Y-100467708D01*
X93205336Y-100857995D01*
X93615370Y-101027826D01*
X93845260Y-100906505D01*
X93845260Y-99713350D01*
X91559260Y-99713350D01*
X91305260Y-99713350D01*
X90111441Y-99713350D01*
X89990774Y-99943242D01*
X89662000Y-99943242D01*
X89662000Y-99229458D01*
X89990774Y-99229458D01*
X90111441Y-99459350D01*
X91305260Y-99459350D01*
X91305260Y-98266195D01*
X91559260Y-98266195D01*
X91559260Y-99459350D01*
X93845260Y-99459350D01*
X93845260Y-98266195D01*
X94099260Y-98266195D01*
X94099260Y-99459350D01*
X94119260Y-99459350D01*
X94119260Y-99713350D01*
X94099260Y-99713350D01*
X94099260Y-100906505D01*
X94329150Y-101027826D01*
X94739184Y-100857995D01*
X95167443Y-100467708D01*
X95234558Y-100324797D01*
X95462206Y-100665497D01*
X95943975Y-100987404D01*
X96512260Y-101100443D01*
X97080545Y-100987404D01*
X97562314Y-100665497D01*
X97782260Y-100336324D01*
X98002206Y-100665497D01*
X98483975Y-100987404D01*
X99052260Y-101100443D01*
X99620545Y-100987404D01*
X100102314Y-100665497D01*
X100424221Y-100183728D01*
X100537260Y-99615443D01*
X100537260Y-99557257D01*
X100424221Y-98988972D01*
X100102314Y-98507203D01*
X99620545Y-98185296D01*
X99052260Y-98072257D01*
X98483975Y-98185296D01*
X98002206Y-98507203D01*
X97782260Y-98836376D01*
X97562314Y-98507203D01*
X97080545Y-98185296D01*
X96512260Y-98072257D01*
X95943975Y-98185296D01*
X95462206Y-98507203D01*
X95234558Y-98847903D01*
X95167443Y-98704992D01*
X94739184Y-98314705D01*
X94329150Y-98144874D01*
X94099260Y-98266195D01*
X93845260Y-98266195D01*
X93615370Y-98144874D01*
X93205336Y-98314705D01*
X92777077Y-98704992D01*
X92702260Y-98864304D01*
X92627443Y-98704992D01*
X92199184Y-98314705D01*
X91789150Y-98144874D01*
X91559260Y-98266195D01*
X91305260Y-98266195D01*
X91075370Y-98144874D01*
X90665336Y-98314705D01*
X90237077Y-98704992D01*
X89990774Y-99229458D01*
X89662000Y-99229458D01*
X89662000Y-97917000D01*
X104648000Y-97917000D01*
X104648000Y-116078000D01*
X104648000Y-116078000D01*
G37*
X104648000Y-116078000D02*
X89662000Y-116078000D01*
X89662000Y-113207100D01*
X95215260Y-113207100D01*
X95215260Y-114297660D01*
X95311933Y-114531049D01*
X95490562Y-114709677D01*
X95723951Y-114806350D01*
X96814510Y-114806350D01*
X96973260Y-114647600D01*
X96973260Y-113048350D01*
X97227260Y-113048350D01*
X97227260Y-114647600D01*
X97386010Y-114806350D01*
X98476569Y-114806350D01*
X98709958Y-114709677D01*
X98888587Y-114531049D01*
X98985260Y-114297660D01*
X98985260Y-113294655D01*
X100214934Y-113294655D01*
X100501303Y-113987722D01*
X101031099Y-114518443D01*
X101723665Y-114806022D01*
X102473565Y-114806676D01*
X103166632Y-114520307D01*
X103697353Y-113990511D01*
X103984932Y-113297945D01*
X103985586Y-112548045D01*
X103699217Y-111854978D01*
X103169421Y-111324257D01*
X102476855Y-111036678D01*
X101726955Y-111036024D01*
X101033888Y-111322393D01*
X100503167Y-111852189D01*
X100215588Y-112544755D01*
X100214934Y-113294655D01*
X98985260Y-113294655D01*
X98985260Y-113207100D01*
X98826510Y-113048350D01*
X97227260Y-113048350D01*
X96973260Y-113048350D01*
X95374010Y-113048350D01*
X95215260Y-113207100D01*
X89662000Y-113207100D01*
X89662000Y-111545040D01*
X95215260Y-111545040D01*
X95215260Y-112635600D01*
X95374010Y-112794350D01*
X96973260Y-112794350D01*
X96973260Y-111195100D01*
X97227260Y-111195100D01*
X97227260Y-112794350D01*
X98826510Y-112794350D01*
X98985260Y-112635600D01*
X98985260Y-111545040D01*
X98888587Y-111311651D01*
X98709958Y-111133023D01*
X98476569Y-111036350D01*
X97386010Y-111036350D01*
X97227260Y-111195100D01*
X96973260Y-111195100D01*
X96814510Y-111036350D01*
X95723951Y-111036350D01*
X95490562Y-111133023D01*
X95311933Y-111311651D01*
X95215260Y-111545040D01*
X89662000Y-111545040D01*
X89662000Y-99943242D01*
X89990774Y-99943242D01*
X90237077Y-100467708D01*
X90665336Y-100857995D01*
X91075370Y-101027826D01*
X91305260Y-100906505D01*
X91305260Y-99713350D01*
X91559260Y-99713350D01*
X91559260Y-100906505D01*
X91789150Y-101027826D01*
X92199184Y-100857995D01*
X92627443Y-100467708D01*
X92702260Y-100308396D01*
X92777077Y-100467708D01*
X93205336Y-100857995D01*
X93615370Y-101027826D01*
X93845260Y-100906505D01*
X93845260Y-99713350D01*
X91559260Y-99713350D01*
X91305260Y-99713350D01*
X90111441Y-99713350D01*
X89990774Y-99943242D01*
X89662000Y-99943242D01*
X89662000Y-99229458D01*
X89990774Y-99229458D01*
X90111441Y-99459350D01*
X91305260Y-99459350D01*
X91305260Y-98266195D01*
X91559260Y-98266195D01*
X91559260Y-99459350D01*
X93845260Y-99459350D01*
X93845260Y-98266195D01*
X94099260Y-98266195D01*
X94099260Y-99459350D01*
X94119260Y-99459350D01*
X94119260Y-99713350D01*
X94099260Y-99713350D01*
X94099260Y-100906505D01*
X94329150Y-101027826D01*
X94739184Y-100857995D01*
X95167443Y-100467708D01*
X95234558Y-100324797D01*
X95462206Y-100665497D01*
X95943975Y-100987404D01*
X96512260Y-101100443D01*
X97080545Y-100987404D01*
X97562314Y-100665497D01*
X97782260Y-100336324D01*
X98002206Y-100665497D01*
X98483975Y-100987404D01*
X99052260Y-101100443D01*
X99620545Y-100987404D01*
X100102314Y-100665497D01*
X100424221Y-100183728D01*
X100537260Y-99615443D01*
X100537260Y-99557257D01*
X100424221Y-98988972D01*
X100102314Y-98507203D01*
X99620545Y-98185296D01*
X99052260Y-98072257D01*
X98483975Y-98185296D01*
X98002206Y-98507203D01*
X97782260Y-98836376D01*
X97562314Y-98507203D01*
X97080545Y-98185296D01*
X96512260Y-98072257D01*
X95943975Y-98185296D01*
X95462206Y-98507203D01*
X95234558Y-98847903D01*
X95167443Y-98704992D01*
X94739184Y-98314705D01*
X94329150Y-98144874D01*
X94099260Y-98266195D01*
X93845260Y-98266195D01*
X93615370Y-98144874D01*
X93205336Y-98314705D01*
X92777077Y-98704992D01*
X92702260Y-98864304D01*
X92627443Y-98704992D01*
X92199184Y-98314705D01*
X91789150Y-98144874D01*
X91559260Y-98266195D01*
X91305260Y-98266195D01*
X91075370Y-98144874D01*
X90665336Y-98314705D01*
X90237077Y-98704992D01*
X89990774Y-99229458D01*
X89662000Y-99229458D01*
X89662000Y-97917000D01*
X104648000Y-97917000D01*
X104648000Y-116078000D01*
G36*
X127508000Y-116078000D02*
X106172000Y-116078000D01*
X106172000Y-113207100D01*
X106645260Y-113207100D01*
X106645260Y-114297660D01*
X106741933Y-114531049D01*
X106920562Y-114709677D01*
X107153951Y-114806350D01*
X108244510Y-114806350D01*
X108403260Y-114647600D01*
X108403260Y-113048350D01*
X108657260Y-113048350D01*
X108657260Y-114647600D01*
X108816010Y-114806350D01*
X109906569Y-114806350D01*
X110139958Y-114709677D01*
X110318587Y-114531049D01*
X110415260Y-114297660D01*
X110415260Y-113294655D01*
X111644934Y-113294655D01*
X111931303Y-113987722D01*
X112461099Y-114518443D01*
X113153665Y-114806022D01*
X113903565Y-114806676D01*
X114596632Y-114520307D01*
X115127353Y-113990511D01*
X115414932Y-113297945D01*
X115415011Y-113207100D01*
X118202260Y-113207100D01*
X118202260Y-114297660D01*
X118298933Y-114531049D01*
X118477562Y-114709677D01*
X118710951Y-114806350D01*
X119801510Y-114806350D01*
X119960260Y-114647600D01*
X119960260Y-113048350D01*
X120214260Y-113048350D01*
X120214260Y-114647600D01*
X120373010Y-114806350D01*
X121463569Y-114806350D01*
X121696958Y-114709677D01*
X121875587Y-114531049D01*
X121972260Y-114297660D01*
X121972260Y-113294655D01*
X123201934Y-113294655D01*
X123488303Y-113987722D01*
X124018099Y-114518443D01*
X124710665Y-114806022D01*
X125460565Y-114806676D01*
X126153632Y-114520307D01*
X126684353Y-113990511D01*
X126971932Y-113297945D01*
X126972586Y-112548045D01*
X126686217Y-111854978D01*
X126156421Y-111324257D01*
X125463855Y-111036678D01*
X124713955Y-111036024D01*
X124020888Y-111322393D01*
X123490167Y-111852189D01*
X123202588Y-112544755D01*
X123201934Y-113294655D01*
X121972260Y-113294655D01*
X121972260Y-113207100D01*
X121813510Y-113048350D01*
X120214260Y-113048350D01*
X119960260Y-113048350D01*
X118361010Y-113048350D01*
X118202260Y-113207100D01*
X115415011Y-113207100D01*
X115415586Y-112548045D01*
X115129217Y-111854978D01*
X114819820Y-111545040D01*
X118202260Y-111545040D01*
X118202260Y-112635600D01*
X118361010Y-112794350D01*
X119960260Y-112794350D01*
X119960260Y-111195100D01*
X120214260Y-111195100D01*
X120214260Y-112794350D01*
X121813510Y-112794350D01*
X121972260Y-112635600D01*
X121972260Y-111545040D01*
X121875587Y-111311651D01*
X121696958Y-111133023D01*
X121463569Y-111036350D01*
X120373010Y-111036350D01*
X120214260Y-111195100D01*
X119960260Y-111195100D01*
X119801510Y-111036350D01*
X118710951Y-111036350D01*
X118477562Y-111133023D01*
X118298933Y-111311651D01*
X118202260Y-111545040D01*
X114819820Y-111545040D01*
X114599421Y-111324257D01*
X113906855Y-111036678D01*
X113156955Y-111036024D01*
X112463888Y-111322393D01*
X111933167Y-111852189D01*
X111645588Y-112544755D01*
X111644934Y-113294655D01*
X110415260Y-113294655D01*
X110415260Y-113207100D01*
X110256510Y-113048350D01*
X108657260Y-113048350D01*
X108403260Y-113048350D01*
X106804010Y-113048350D01*
X106645260Y-113207100D01*
X106172000Y-113207100D01*
X106172000Y-111545040D01*
X106645260Y-111545040D01*
X106645260Y-112635600D01*
X106804010Y-112794350D01*
X108403260Y-112794350D01*
X108403260Y-111195100D01*
X108657260Y-111195100D01*
X108657260Y-112794350D01*
X110256510Y-112794350D01*
X110415260Y-112635600D01*
X110415260Y-111545040D01*
X110318587Y-111311651D01*
X110139958Y-111133023D01*
X109906569Y-111036350D01*
X108816010Y-111036350D01*
X108657260Y-111195100D01*
X108403260Y-111195100D01*
X108244510Y-111036350D01*
X107153951Y-111036350D01*
X106920562Y-111133023D01*
X106741933Y-111311651D01*
X106645260Y-111545040D01*
X106172000Y-111545040D01*
X106172000Y-99943242D01*
X112850774Y-99943242D01*
X113097077Y-100467708D01*
X113525336Y-100857995D01*
X113935370Y-101027826D01*
X114165260Y-100906505D01*
X114165260Y-99713350D01*
X114419260Y-99713350D01*
X114419260Y-100906505D01*
X114649150Y-101027826D01*
X115059184Y-100857995D01*
X115487443Y-100467708D01*
X115562260Y-100308396D01*
X115637077Y-100467708D01*
X116065336Y-100857995D01*
X116475370Y-101027826D01*
X116705260Y-100906505D01*
X116705260Y-99713350D01*
X114419260Y-99713350D01*
X114165260Y-99713350D01*
X112971441Y-99713350D01*
X112850774Y-99943242D01*
X106172000Y-99943242D01*
X106172000Y-99229458D01*
X112850774Y-99229458D01*
X112971441Y-99459350D01*
X114165260Y-99459350D01*
X114165260Y-98266195D01*
X114419260Y-98266195D01*
X114419260Y-99459350D01*
X116705260Y-99459350D01*
X116705260Y-98266195D01*
X116959260Y-98266195D01*
X116959260Y-99459350D01*
X116979260Y-99459350D01*
X116979260Y-99713350D01*
X116959260Y-99713350D01*
X116959260Y-100906505D01*
X117189150Y-101027826D01*
X117599184Y-100857995D01*
X118027443Y-100467708D01*
X118094558Y-100324797D01*
X118322206Y-100665497D01*
X118803975Y-100987404D01*
X119372260Y-101100443D01*
X119940545Y-100987404D01*
X120422314Y-100665497D01*
X120642260Y-100336324D01*
X120862206Y-100665497D01*
X121343975Y-100987404D01*
X121912260Y-101100443D01*
X122480545Y-100987404D01*
X122962314Y-100665497D01*
X123284221Y-100183728D01*
X123397260Y-99615443D01*
X123397260Y-99557257D01*
X123284221Y-98988972D01*
X122962314Y-98507203D01*
X122480545Y-98185296D01*
X121912260Y-98072257D01*
X121343975Y-98185296D01*
X120862206Y-98507203D01*
X120642260Y-98836376D01*
X120422314Y-98507203D01*
X119940545Y-98185296D01*
X119372260Y-98072257D01*
X118803975Y-98185296D01*
X118322206Y-98507203D01*
X118094558Y-98847903D01*
X118027443Y-98704992D01*
X117599184Y-98314705D01*
X117189150Y-98144874D01*
X116959260Y-98266195D01*
X116705260Y-98266195D01*
X116475370Y-98144874D01*
X116065336Y-98314705D01*
X115637077Y-98704992D01*
X115562260Y-98864304D01*
X115487443Y-98704992D01*
X115059184Y-98314705D01*
X114649150Y-98144874D01*
X114419260Y-98266195D01*
X114165260Y-98266195D01*
X113935370Y-98144874D01*
X113525336Y-98314705D01*
X113097077Y-98704992D01*
X112850774Y-99229458D01*
X106172000Y-99229458D01*
X106172000Y-97917000D01*
X127508000Y-97917000D01*
X127508000Y-116078000D01*
X127508000Y-116078000D01*
G37*
X127508000Y-116078000D02*
X106172000Y-116078000D01*
X106172000Y-113207100D01*
X106645260Y-113207100D01*
X106645260Y-114297660D01*
X106741933Y-114531049D01*
X106920562Y-114709677D01*
X107153951Y-114806350D01*
X108244510Y-114806350D01*
X108403260Y-114647600D01*
X108403260Y-113048350D01*
X108657260Y-113048350D01*
X108657260Y-114647600D01*
X108816010Y-114806350D01*
X109906569Y-114806350D01*
X110139958Y-114709677D01*
X110318587Y-114531049D01*
X110415260Y-114297660D01*
X110415260Y-113294655D01*
X111644934Y-113294655D01*
X111931303Y-113987722D01*
X112461099Y-114518443D01*
X113153665Y-114806022D01*
X113903565Y-114806676D01*
X114596632Y-114520307D01*
X115127353Y-113990511D01*
X115414932Y-113297945D01*
X115415011Y-113207100D01*
X118202260Y-113207100D01*
X118202260Y-114297660D01*
X118298933Y-114531049D01*
X118477562Y-114709677D01*
X118710951Y-114806350D01*
X119801510Y-114806350D01*
X119960260Y-114647600D01*
X119960260Y-113048350D01*
X120214260Y-113048350D01*
X120214260Y-114647600D01*
X120373010Y-114806350D01*
X121463569Y-114806350D01*
X121696958Y-114709677D01*
X121875587Y-114531049D01*
X121972260Y-114297660D01*
X121972260Y-113294655D01*
X123201934Y-113294655D01*
X123488303Y-113987722D01*
X124018099Y-114518443D01*
X124710665Y-114806022D01*
X125460565Y-114806676D01*
X126153632Y-114520307D01*
X126684353Y-113990511D01*
X126971932Y-113297945D01*
X126972586Y-112548045D01*
X126686217Y-111854978D01*
X126156421Y-111324257D01*
X125463855Y-111036678D01*
X124713955Y-111036024D01*
X124020888Y-111322393D01*
X123490167Y-111852189D01*
X123202588Y-112544755D01*
X123201934Y-113294655D01*
X121972260Y-113294655D01*
X121972260Y-113207100D01*
X121813510Y-113048350D01*
X120214260Y-113048350D01*
X119960260Y-113048350D01*
X118361010Y-113048350D01*
X118202260Y-113207100D01*
X115415011Y-113207100D01*
X115415586Y-112548045D01*
X115129217Y-111854978D01*
X114819820Y-111545040D01*
X118202260Y-111545040D01*
X118202260Y-112635600D01*
X118361010Y-112794350D01*
X119960260Y-112794350D01*
X119960260Y-111195100D01*
X120214260Y-111195100D01*
X120214260Y-112794350D01*
X121813510Y-112794350D01*
X121972260Y-112635600D01*
X121972260Y-111545040D01*
X121875587Y-111311651D01*
X121696958Y-111133023D01*
X121463569Y-111036350D01*
X120373010Y-111036350D01*
X120214260Y-111195100D01*
X119960260Y-111195100D01*
X119801510Y-111036350D01*
X118710951Y-111036350D01*
X118477562Y-111133023D01*
X118298933Y-111311651D01*
X118202260Y-111545040D01*
X114819820Y-111545040D01*
X114599421Y-111324257D01*
X113906855Y-111036678D01*
X113156955Y-111036024D01*
X112463888Y-111322393D01*
X111933167Y-111852189D01*
X111645588Y-112544755D01*
X111644934Y-113294655D01*
X110415260Y-113294655D01*
X110415260Y-113207100D01*
X110256510Y-113048350D01*
X108657260Y-113048350D01*
X108403260Y-113048350D01*
X106804010Y-113048350D01*
X106645260Y-113207100D01*
X106172000Y-113207100D01*
X106172000Y-111545040D01*
X106645260Y-111545040D01*
X106645260Y-112635600D01*
X106804010Y-112794350D01*
X108403260Y-112794350D01*
X108403260Y-111195100D01*
X108657260Y-111195100D01*
X108657260Y-112794350D01*
X110256510Y-112794350D01*
X110415260Y-112635600D01*
X110415260Y-111545040D01*
X110318587Y-111311651D01*
X110139958Y-111133023D01*
X109906569Y-111036350D01*
X108816010Y-111036350D01*
X108657260Y-111195100D01*
X108403260Y-111195100D01*
X108244510Y-111036350D01*
X107153951Y-111036350D01*
X106920562Y-111133023D01*
X106741933Y-111311651D01*
X106645260Y-111545040D01*
X106172000Y-111545040D01*
X106172000Y-99943242D01*
X112850774Y-99943242D01*
X113097077Y-100467708D01*
X113525336Y-100857995D01*
X113935370Y-101027826D01*
X114165260Y-100906505D01*
X114165260Y-99713350D01*
X114419260Y-99713350D01*
X114419260Y-100906505D01*
X114649150Y-101027826D01*
X115059184Y-100857995D01*
X115487443Y-100467708D01*
X115562260Y-100308396D01*
X115637077Y-100467708D01*
X116065336Y-100857995D01*
X116475370Y-101027826D01*
X116705260Y-100906505D01*
X116705260Y-99713350D01*
X114419260Y-99713350D01*
X114165260Y-99713350D01*
X112971441Y-99713350D01*
X112850774Y-99943242D01*
X106172000Y-99943242D01*
X106172000Y-99229458D01*
X112850774Y-99229458D01*
X112971441Y-99459350D01*
X114165260Y-99459350D01*
X114165260Y-98266195D01*
X114419260Y-98266195D01*
X114419260Y-99459350D01*
X116705260Y-99459350D01*
X116705260Y-98266195D01*
X116959260Y-98266195D01*
X116959260Y-99459350D01*
X116979260Y-99459350D01*
X116979260Y-99713350D01*
X116959260Y-99713350D01*
X116959260Y-100906505D01*
X117189150Y-101027826D01*
X117599184Y-100857995D01*
X118027443Y-100467708D01*
X118094558Y-100324797D01*
X118322206Y-100665497D01*
X118803975Y-100987404D01*
X119372260Y-101100443D01*
X119940545Y-100987404D01*
X120422314Y-100665497D01*
X120642260Y-100336324D01*
X120862206Y-100665497D01*
X121343975Y-100987404D01*
X121912260Y-101100443D01*
X122480545Y-100987404D01*
X122962314Y-100665497D01*
X123284221Y-100183728D01*
X123397260Y-99615443D01*
X123397260Y-99557257D01*
X123284221Y-98988972D01*
X122962314Y-98507203D01*
X122480545Y-98185296D01*
X121912260Y-98072257D01*
X121343975Y-98185296D01*
X120862206Y-98507203D01*
X120642260Y-98836376D01*
X120422314Y-98507203D01*
X119940545Y-98185296D01*
X119372260Y-98072257D01*
X118803975Y-98185296D01*
X118322206Y-98507203D01*
X118094558Y-98847903D01*
X118027443Y-98704992D01*
X117599184Y-98314705D01*
X117189150Y-98144874D01*
X116959260Y-98266195D01*
X116705260Y-98266195D01*
X116475370Y-98144874D01*
X116065336Y-98314705D01*
X115637077Y-98704992D01*
X115562260Y-98864304D01*
X115487443Y-98704992D01*
X115059184Y-98314705D01*
X114649150Y-98144874D01*
X114419260Y-98266195D01*
X114165260Y-98266195D01*
X113935370Y-98144874D01*
X113525336Y-98314705D01*
X113097077Y-98704992D01*
X112850774Y-99229458D01*
X106172000Y-99229458D01*
X106172000Y-97917000D01*
X127508000Y-97917000D01*
X127508000Y-116078000D01*
G36*
X150368000Y-116078000D02*
X128841500Y-116078000D01*
X128841500Y-113207100D01*
X129552260Y-113207100D01*
X129552260Y-114297660D01*
X129648933Y-114531049D01*
X129827562Y-114709677D01*
X130060951Y-114806350D01*
X131151510Y-114806350D01*
X131310260Y-114647600D01*
X131310260Y-113048350D01*
X131564260Y-113048350D01*
X131564260Y-114647600D01*
X131723010Y-114806350D01*
X132813569Y-114806350D01*
X133046958Y-114709677D01*
X133225587Y-114531049D01*
X133322260Y-114297660D01*
X133322260Y-113294655D01*
X134551934Y-113294655D01*
X134838303Y-113987722D01*
X135368099Y-114518443D01*
X136060665Y-114806022D01*
X136810565Y-114806676D01*
X137503632Y-114520307D01*
X138034353Y-113990511D01*
X138321932Y-113297945D01*
X138322011Y-113207100D01*
X141062260Y-113207100D01*
X141062260Y-114297660D01*
X141158933Y-114531049D01*
X141337562Y-114709677D01*
X141570951Y-114806350D01*
X142661510Y-114806350D01*
X142820260Y-114647600D01*
X142820260Y-113048350D01*
X143074260Y-113048350D01*
X143074260Y-114647600D01*
X143233010Y-114806350D01*
X144323569Y-114806350D01*
X144556958Y-114709677D01*
X144735587Y-114531049D01*
X144832260Y-114297660D01*
X144832260Y-113294655D01*
X146061934Y-113294655D01*
X146348303Y-113987722D01*
X146878099Y-114518443D01*
X147570665Y-114806022D01*
X148320565Y-114806676D01*
X149013632Y-114520307D01*
X149544353Y-113990511D01*
X149831932Y-113297945D01*
X149832586Y-112548045D01*
X149546217Y-111854978D01*
X149016421Y-111324257D01*
X148323855Y-111036678D01*
X147573955Y-111036024D01*
X146880888Y-111322393D01*
X146350167Y-111852189D01*
X146062588Y-112544755D01*
X146061934Y-113294655D01*
X144832260Y-113294655D01*
X144832260Y-113207100D01*
X144673510Y-113048350D01*
X143074260Y-113048350D01*
X142820260Y-113048350D01*
X141221010Y-113048350D01*
X141062260Y-113207100D01*
X138322011Y-113207100D01*
X138322586Y-112548045D01*
X138036217Y-111854978D01*
X137726820Y-111545040D01*
X141062260Y-111545040D01*
X141062260Y-112635600D01*
X141221010Y-112794350D01*
X142820260Y-112794350D01*
X142820260Y-111195100D01*
X143074260Y-111195100D01*
X143074260Y-112794350D01*
X144673510Y-112794350D01*
X144832260Y-112635600D01*
X144832260Y-111545040D01*
X144735587Y-111311651D01*
X144556958Y-111133023D01*
X144323569Y-111036350D01*
X143233010Y-111036350D01*
X143074260Y-111195100D01*
X142820260Y-111195100D01*
X142661510Y-111036350D01*
X141570951Y-111036350D01*
X141337562Y-111133023D01*
X141158933Y-111311651D01*
X141062260Y-111545040D01*
X137726820Y-111545040D01*
X137506421Y-111324257D01*
X136813855Y-111036678D01*
X136063955Y-111036024D01*
X135370888Y-111322393D01*
X134840167Y-111852189D01*
X134552588Y-112544755D01*
X134551934Y-113294655D01*
X133322260Y-113294655D01*
X133322260Y-113207100D01*
X133163510Y-113048350D01*
X131564260Y-113048350D01*
X131310260Y-113048350D01*
X129711010Y-113048350D01*
X129552260Y-113207100D01*
X128841500Y-113207100D01*
X128841500Y-111545040D01*
X129552260Y-111545040D01*
X129552260Y-112635600D01*
X129711010Y-112794350D01*
X131310260Y-112794350D01*
X131310260Y-111195100D01*
X131564260Y-111195100D01*
X131564260Y-112794350D01*
X133163510Y-112794350D01*
X133322260Y-112635600D01*
X133322260Y-111545040D01*
X133225587Y-111311651D01*
X133046958Y-111133023D01*
X132813569Y-111036350D01*
X131723010Y-111036350D01*
X131564260Y-111195100D01*
X131310260Y-111195100D01*
X131151510Y-111036350D01*
X130060951Y-111036350D01*
X129827562Y-111133023D01*
X129648933Y-111311651D01*
X129552260Y-111545040D01*
X128841500Y-111545040D01*
X128841500Y-99943242D01*
X135710774Y-99943242D01*
X135957077Y-100467708D01*
X136385336Y-100857995D01*
X136795370Y-101027826D01*
X137025260Y-100906505D01*
X137025260Y-99713350D01*
X137279260Y-99713350D01*
X137279260Y-100906505D01*
X137509150Y-101027826D01*
X137919184Y-100857995D01*
X138347443Y-100467708D01*
X138422260Y-100308396D01*
X138497077Y-100467708D01*
X138925336Y-100857995D01*
X139335370Y-101027826D01*
X139565260Y-100906505D01*
X139565260Y-99713350D01*
X137279260Y-99713350D01*
X137025260Y-99713350D01*
X135831441Y-99713350D01*
X135710774Y-99943242D01*
X128841500Y-99943242D01*
X128841500Y-99229458D01*
X135710774Y-99229458D01*
X135831441Y-99459350D01*
X137025260Y-99459350D01*
X137025260Y-98266195D01*
X137279260Y-98266195D01*
X137279260Y-99459350D01*
X139565260Y-99459350D01*
X139565260Y-98266195D01*
X139819260Y-98266195D01*
X139819260Y-99459350D01*
X139839260Y-99459350D01*
X139839260Y-99713350D01*
X139819260Y-99713350D01*
X139819260Y-100906505D01*
X140049150Y-101027826D01*
X140459184Y-100857995D01*
X140887443Y-100467708D01*
X140954558Y-100324797D01*
X141182206Y-100665497D01*
X141663975Y-100987404D01*
X142232260Y-101100443D01*
X142800545Y-100987404D01*
X143282314Y-100665497D01*
X143502260Y-100336324D01*
X143722206Y-100665497D01*
X144203975Y-100987404D01*
X144772260Y-101100443D01*
X145340545Y-100987404D01*
X145822314Y-100665497D01*
X146144221Y-100183728D01*
X146257260Y-99615443D01*
X146257260Y-99557257D01*
X146144221Y-98988972D01*
X145822314Y-98507203D01*
X145340545Y-98185296D01*
X144772260Y-98072257D01*
X144203975Y-98185296D01*
X143722206Y-98507203D01*
X143502260Y-98836376D01*
X143282314Y-98507203D01*
X142800545Y-98185296D01*
X142232260Y-98072257D01*
X141663975Y-98185296D01*
X141182206Y-98507203D01*
X140954558Y-98847903D01*
X140887443Y-98704992D01*
X140459184Y-98314705D01*
X140049150Y-98144874D01*
X139819260Y-98266195D01*
X139565260Y-98266195D01*
X139335370Y-98144874D01*
X138925336Y-98314705D01*
X138497077Y-98704992D01*
X138422260Y-98864304D01*
X138347443Y-98704992D01*
X137919184Y-98314705D01*
X137509150Y-98144874D01*
X137279260Y-98266195D01*
X137025260Y-98266195D01*
X136795370Y-98144874D01*
X136385336Y-98314705D01*
X135957077Y-98704992D01*
X135710774Y-99229458D01*
X128841500Y-99229458D01*
X128841500Y-97917000D01*
X150368000Y-97917000D01*
X150368000Y-116078000D01*
X150368000Y-116078000D01*
G37*
X150368000Y-116078000D02*
X128841500Y-116078000D01*
X128841500Y-113207100D01*
X129552260Y-113207100D01*
X129552260Y-114297660D01*
X129648933Y-114531049D01*
X129827562Y-114709677D01*
X130060951Y-114806350D01*
X131151510Y-114806350D01*
X131310260Y-114647600D01*
X131310260Y-113048350D01*
X131564260Y-113048350D01*
X131564260Y-114647600D01*
X131723010Y-114806350D01*
X132813569Y-114806350D01*
X133046958Y-114709677D01*
X133225587Y-114531049D01*
X133322260Y-114297660D01*
X133322260Y-113294655D01*
X134551934Y-113294655D01*
X134838303Y-113987722D01*
X135368099Y-114518443D01*
X136060665Y-114806022D01*
X136810565Y-114806676D01*
X137503632Y-114520307D01*
X138034353Y-113990511D01*
X138321932Y-113297945D01*
X138322011Y-113207100D01*
X141062260Y-113207100D01*
X141062260Y-114297660D01*
X141158933Y-114531049D01*
X141337562Y-114709677D01*
X141570951Y-114806350D01*
X142661510Y-114806350D01*
X142820260Y-114647600D01*
X142820260Y-113048350D01*
X143074260Y-113048350D01*
X143074260Y-114647600D01*
X143233010Y-114806350D01*
X144323569Y-114806350D01*
X144556958Y-114709677D01*
X144735587Y-114531049D01*
X144832260Y-114297660D01*
X144832260Y-113294655D01*
X146061934Y-113294655D01*
X146348303Y-113987722D01*
X146878099Y-114518443D01*
X147570665Y-114806022D01*
X148320565Y-114806676D01*
X149013632Y-114520307D01*
X149544353Y-113990511D01*
X149831932Y-113297945D01*
X149832586Y-112548045D01*
X149546217Y-111854978D01*
X149016421Y-111324257D01*
X148323855Y-111036678D01*
X147573955Y-111036024D01*
X146880888Y-111322393D01*
X146350167Y-111852189D01*
X146062588Y-112544755D01*
X146061934Y-113294655D01*
X144832260Y-113294655D01*
X144832260Y-113207100D01*
X144673510Y-113048350D01*
X143074260Y-113048350D01*
X142820260Y-113048350D01*
X141221010Y-113048350D01*
X141062260Y-113207100D01*
X138322011Y-113207100D01*
X138322586Y-112548045D01*
X138036217Y-111854978D01*
X137726820Y-111545040D01*
X141062260Y-111545040D01*
X141062260Y-112635600D01*
X141221010Y-112794350D01*
X142820260Y-112794350D01*
X142820260Y-111195100D01*
X143074260Y-111195100D01*
X143074260Y-112794350D01*
X144673510Y-112794350D01*
X144832260Y-112635600D01*
X144832260Y-111545040D01*
X144735587Y-111311651D01*
X144556958Y-111133023D01*
X144323569Y-111036350D01*
X143233010Y-111036350D01*
X143074260Y-111195100D01*
X142820260Y-111195100D01*
X142661510Y-111036350D01*
X141570951Y-111036350D01*
X141337562Y-111133023D01*
X141158933Y-111311651D01*
X141062260Y-111545040D01*
X137726820Y-111545040D01*
X137506421Y-111324257D01*
X136813855Y-111036678D01*
X136063955Y-111036024D01*
X135370888Y-111322393D01*
X134840167Y-111852189D01*
X134552588Y-112544755D01*
X134551934Y-113294655D01*
X133322260Y-113294655D01*
X133322260Y-113207100D01*
X133163510Y-113048350D01*
X131564260Y-113048350D01*
X131310260Y-113048350D01*
X129711010Y-113048350D01*
X129552260Y-113207100D01*
X128841500Y-113207100D01*
X128841500Y-111545040D01*
X129552260Y-111545040D01*
X129552260Y-112635600D01*
X129711010Y-112794350D01*
X131310260Y-112794350D01*
X131310260Y-111195100D01*
X131564260Y-111195100D01*
X131564260Y-112794350D01*
X133163510Y-112794350D01*
X133322260Y-112635600D01*
X133322260Y-111545040D01*
X133225587Y-111311651D01*
X133046958Y-111133023D01*
X132813569Y-111036350D01*
X131723010Y-111036350D01*
X131564260Y-111195100D01*
X131310260Y-111195100D01*
X131151510Y-111036350D01*
X130060951Y-111036350D01*
X129827562Y-111133023D01*
X129648933Y-111311651D01*
X129552260Y-111545040D01*
X128841500Y-111545040D01*
X128841500Y-99943242D01*
X135710774Y-99943242D01*
X135957077Y-100467708D01*
X136385336Y-100857995D01*
X136795370Y-101027826D01*
X137025260Y-100906505D01*
X137025260Y-99713350D01*
X137279260Y-99713350D01*
X137279260Y-100906505D01*
X137509150Y-101027826D01*
X137919184Y-100857995D01*
X138347443Y-100467708D01*
X138422260Y-100308396D01*
X138497077Y-100467708D01*
X138925336Y-100857995D01*
X139335370Y-101027826D01*
X139565260Y-100906505D01*
X139565260Y-99713350D01*
X137279260Y-99713350D01*
X137025260Y-99713350D01*
X135831441Y-99713350D01*
X135710774Y-99943242D01*
X128841500Y-99943242D01*
X128841500Y-99229458D01*
X135710774Y-99229458D01*
X135831441Y-99459350D01*
X137025260Y-99459350D01*
X137025260Y-98266195D01*
X137279260Y-98266195D01*
X137279260Y-99459350D01*
X139565260Y-99459350D01*
X139565260Y-98266195D01*
X139819260Y-98266195D01*
X139819260Y-99459350D01*
X139839260Y-99459350D01*
X139839260Y-99713350D01*
X139819260Y-99713350D01*
X139819260Y-100906505D01*
X140049150Y-101027826D01*
X140459184Y-100857995D01*
X140887443Y-100467708D01*
X140954558Y-100324797D01*
X141182206Y-100665497D01*
X141663975Y-100987404D01*
X142232260Y-101100443D01*
X142800545Y-100987404D01*
X143282314Y-100665497D01*
X143502260Y-100336324D01*
X143722206Y-100665497D01*
X144203975Y-100987404D01*
X144772260Y-101100443D01*
X145340545Y-100987404D01*
X145822314Y-100665497D01*
X146144221Y-100183728D01*
X146257260Y-99615443D01*
X146257260Y-99557257D01*
X146144221Y-98988972D01*
X145822314Y-98507203D01*
X145340545Y-98185296D01*
X144772260Y-98072257D01*
X144203975Y-98185296D01*
X143722206Y-98507203D01*
X143502260Y-98836376D01*
X143282314Y-98507203D01*
X142800545Y-98185296D01*
X142232260Y-98072257D01*
X141663975Y-98185296D01*
X141182206Y-98507203D01*
X140954558Y-98847903D01*
X140887443Y-98704992D01*
X140459184Y-98314705D01*
X140049150Y-98144874D01*
X139819260Y-98266195D01*
X139565260Y-98266195D01*
X139335370Y-98144874D01*
X138925336Y-98314705D01*
X138497077Y-98704992D01*
X138422260Y-98864304D01*
X138347443Y-98704992D01*
X137919184Y-98314705D01*
X137509150Y-98144874D01*
X137279260Y-98266195D01*
X137025260Y-98266195D01*
X136795370Y-98144874D01*
X136385336Y-98314705D01*
X135957077Y-98704992D01*
X135710774Y-99229458D01*
X128841500Y-99229458D01*
X128841500Y-97917000D01*
X150368000Y-97917000D01*
X150368000Y-116078000D01*
G36*
X173228000Y-116078000D02*
X151685661Y-116078000D01*
X151685661Y-113207100D01*
X152365260Y-113207100D01*
X152365260Y-114297660D01*
X152461933Y-114531049D01*
X152640562Y-114709677D01*
X152873951Y-114806350D01*
X153964510Y-114806350D01*
X154123260Y-114647600D01*
X154123260Y-113048350D01*
X154377260Y-113048350D01*
X154377260Y-114647600D01*
X154536010Y-114806350D01*
X155626569Y-114806350D01*
X155859958Y-114709677D01*
X156038587Y-114531049D01*
X156135260Y-114297660D01*
X156135260Y-113294655D01*
X157364934Y-113294655D01*
X157651303Y-113987722D01*
X158181099Y-114518443D01*
X158873665Y-114806022D01*
X159623565Y-114806676D01*
X160316632Y-114520307D01*
X160847353Y-113990511D01*
X161134932Y-113297945D01*
X161135011Y-113207100D01*
X163795260Y-113207100D01*
X163795260Y-114297660D01*
X163891933Y-114531049D01*
X164070562Y-114709677D01*
X164303951Y-114806350D01*
X165394510Y-114806350D01*
X165553260Y-114647600D01*
X165553260Y-113048350D01*
X165807260Y-113048350D01*
X165807260Y-114647600D01*
X165966010Y-114806350D01*
X167056569Y-114806350D01*
X167289958Y-114709677D01*
X167468587Y-114531049D01*
X167565260Y-114297660D01*
X167565260Y-113294655D01*
X168794934Y-113294655D01*
X169081303Y-113987722D01*
X169611099Y-114518443D01*
X170303665Y-114806022D01*
X171053565Y-114806676D01*
X171746632Y-114520307D01*
X172277353Y-113990511D01*
X172564932Y-113297945D01*
X172565586Y-112548045D01*
X172279217Y-111854978D01*
X171749421Y-111324257D01*
X171056855Y-111036678D01*
X170306955Y-111036024D01*
X169613888Y-111322393D01*
X169083167Y-111852189D01*
X168795588Y-112544755D01*
X168794934Y-113294655D01*
X167565260Y-113294655D01*
X167565260Y-113207100D01*
X167406510Y-113048350D01*
X165807260Y-113048350D01*
X165553260Y-113048350D01*
X163954010Y-113048350D01*
X163795260Y-113207100D01*
X161135011Y-113207100D01*
X161135586Y-112548045D01*
X160849217Y-111854978D01*
X160539820Y-111545040D01*
X163795260Y-111545040D01*
X163795260Y-112635600D01*
X163954010Y-112794350D01*
X165553260Y-112794350D01*
X165553260Y-111195100D01*
X165807260Y-111195100D01*
X165807260Y-112794350D01*
X167406510Y-112794350D01*
X167565260Y-112635600D01*
X167565260Y-111545040D01*
X167468587Y-111311651D01*
X167289958Y-111133023D01*
X167056569Y-111036350D01*
X165966010Y-111036350D01*
X165807260Y-111195100D01*
X165553260Y-111195100D01*
X165394510Y-111036350D01*
X164303951Y-111036350D01*
X164070562Y-111133023D01*
X163891933Y-111311651D01*
X163795260Y-111545040D01*
X160539820Y-111545040D01*
X160319421Y-111324257D01*
X159626855Y-111036678D01*
X158876955Y-111036024D01*
X158183888Y-111322393D01*
X157653167Y-111852189D01*
X157365588Y-112544755D01*
X157364934Y-113294655D01*
X156135260Y-113294655D01*
X156135260Y-113207100D01*
X155976510Y-113048350D01*
X154377260Y-113048350D01*
X154123260Y-113048350D01*
X152524010Y-113048350D01*
X152365260Y-113207100D01*
X151685661Y-113207100D01*
X151685661Y-111545040D01*
X152365260Y-111545040D01*
X152365260Y-112635600D01*
X152524010Y-112794350D01*
X154123260Y-112794350D01*
X154123260Y-111195100D01*
X154377260Y-111195100D01*
X154377260Y-112794350D01*
X155976510Y-112794350D01*
X156135260Y-112635600D01*
X156135260Y-111545040D01*
X156038587Y-111311651D01*
X155859958Y-111133023D01*
X155626569Y-111036350D01*
X154536010Y-111036350D01*
X154377260Y-111195100D01*
X154123260Y-111195100D01*
X153964510Y-111036350D01*
X152873951Y-111036350D01*
X152640562Y-111133023D01*
X152461933Y-111311651D01*
X152365260Y-111545040D01*
X151685661Y-111545040D01*
X151685661Y-99943242D01*
X158570774Y-99943242D01*
X158817077Y-100467708D01*
X159245336Y-100857995D01*
X159655370Y-101027826D01*
X159885260Y-100906505D01*
X159885260Y-99713350D01*
X160139260Y-99713350D01*
X160139260Y-100906505D01*
X160369150Y-101027826D01*
X160779184Y-100857995D01*
X161207443Y-100467708D01*
X161282260Y-100308396D01*
X161357077Y-100467708D01*
X161785336Y-100857995D01*
X162195370Y-101027826D01*
X162425260Y-100906505D01*
X162425260Y-99713350D01*
X160139260Y-99713350D01*
X159885260Y-99713350D01*
X158691441Y-99713350D01*
X158570774Y-99943242D01*
X151685661Y-99943242D01*
X151685661Y-99229458D01*
X158570774Y-99229458D01*
X158691441Y-99459350D01*
X159885260Y-99459350D01*
X159885260Y-98266195D01*
X160139260Y-98266195D01*
X160139260Y-99459350D01*
X162425260Y-99459350D01*
X162425260Y-98266195D01*
X162679260Y-98266195D01*
X162679260Y-99459350D01*
X162699260Y-99459350D01*
X162699260Y-99713350D01*
X162679260Y-99713350D01*
X162679260Y-100906505D01*
X162909150Y-101027826D01*
X163319184Y-100857995D01*
X163747443Y-100467708D01*
X163814558Y-100324797D01*
X164042206Y-100665497D01*
X164523975Y-100987404D01*
X165092260Y-101100443D01*
X165660545Y-100987404D01*
X166142314Y-100665497D01*
X166362260Y-100336324D01*
X166582206Y-100665497D01*
X167063975Y-100987404D01*
X167632260Y-101100443D01*
X168200545Y-100987404D01*
X168682314Y-100665497D01*
X169004221Y-100183728D01*
X169117260Y-99615443D01*
X169117260Y-99557257D01*
X169004221Y-98988972D01*
X168682314Y-98507203D01*
X168200545Y-98185296D01*
X167632260Y-98072257D01*
X167063975Y-98185296D01*
X166582206Y-98507203D01*
X166362260Y-98836376D01*
X166142314Y-98507203D01*
X165660545Y-98185296D01*
X165092260Y-98072257D01*
X164523975Y-98185296D01*
X164042206Y-98507203D01*
X163814558Y-98847903D01*
X163747443Y-98704992D01*
X163319184Y-98314705D01*
X162909150Y-98144874D01*
X162679260Y-98266195D01*
X162425260Y-98266195D01*
X162195370Y-98144874D01*
X161785336Y-98314705D01*
X161357077Y-98704992D01*
X161282260Y-98864304D01*
X161207443Y-98704992D01*
X160779184Y-98314705D01*
X160369150Y-98144874D01*
X160139260Y-98266195D01*
X159885260Y-98266195D01*
X159655370Y-98144874D01*
X159245336Y-98314705D01*
X158817077Y-98704992D01*
X158570774Y-99229458D01*
X151685661Y-99229458D01*
X151685661Y-97917000D01*
X173228000Y-97917000D01*
X173228000Y-116078000D01*
X173228000Y-116078000D01*
G37*
X173228000Y-116078000D02*
X151685661Y-116078000D01*
X151685661Y-113207100D01*
X152365260Y-113207100D01*
X152365260Y-114297660D01*
X152461933Y-114531049D01*
X152640562Y-114709677D01*
X152873951Y-114806350D01*
X153964510Y-114806350D01*
X154123260Y-114647600D01*
X154123260Y-113048350D01*
X154377260Y-113048350D01*
X154377260Y-114647600D01*
X154536010Y-114806350D01*
X155626569Y-114806350D01*
X155859958Y-114709677D01*
X156038587Y-114531049D01*
X156135260Y-114297660D01*
X156135260Y-113294655D01*
X157364934Y-113294655D01*
X157651303Y-113987722D01*
X158181099Y-114518443D01*
X158873665Y-114806022D01*
X159623565Y-114806676D01*
X160316632Y-114520307D01*
X160847353Y-113990511D01*
X161134932Y-113297945D01*
X161135011Y-113207100D01*
X163795260Y-113207100D01*
X163795260Y-114297660D01*
X163891933Y-114531049D01*
X164070562Y-114709677D01*
X164303951Y-114806350D01*
X165394510Y-114806350D01*
X165553260Y-114647600D01*
X165553260Y-113048350D01*
X165807260Y-113048350D01*
X165807260Y-114647600D01*
X165966010Y-114806350D01*
X167056569Y-114806350D01*
X167289958Y-114709677D01*
X167468587Y-114531049D01*
X167565260Y-114297660D01*
X167565260Y-113294655D01*
X168794934Y-113294655D01*
X169081303Y-113987722D01*
X169611099Y-114518443D01*
X170303665Y-114806022D01*
X171053565Y-114806676D01*
X171746632Y-114520307D01*
X172277353Y-113990511D01*
X172564932Y-113297945D01*
X172565586Y-112548045D01*
X172279217Y-111854978D01*
X171749421Y-111324257D01*
X171056855Y-111036678D01*
X170306955Y-111036024D01*
X169613888Y-111322393D01*
X169083167Y-111852189D01*
X168795588Y-112544755D01*
X168794934Y-113294655D01*
X167565260Y-113294655D01*
X167565260Y-113207100D01*
X167406510Y-113048350D01*
X165807260Y-113048350D01*
X165553260Y-113048350D01*
X163954010Y-113048350D01*
X163795260Y-113207100D01*
X161135011Y-113207100D01*
X161135586Y-112548045D01*
X160849217Y-111854978D01*
X160539820Y-111545040D01*
X163795260Y-111545040D01*
X163795260Y-112635600D01*
X163954010Y-112794350D01*
X165553260Y-112794350D01*
X165553260Y-111195100D01*
X165807260Y-111195100D01*
X165807260Y-112794350D01*
X167406510Y-112794350D01*
X167565260Y-112635600D01*
X167565260Y-111545040D01*
X167468587Y-111311651D01*
X167289958Y-111133023D01*
X167056569Y-111036350D01*
X165966010Y-111036350D01*
X165807260Y-111195100D01*
X165553260Y-111195100D01*
X165394510Y-111036350D01*
X164303951Y-111036350D01*
X164070562Y-111133023D01*
X163891933Y-111311651D01*
X163795260Y-111545040D01*
X160539820Y-111545040D01*
X160319421Y-111324257D01*
X159626855Y-111036678D01*
X158876955Y-111036024D01*
X158183888Y-111322393D01*
X157653167Y-111852189D01*
X157365588Y-112544755D01*
X157364934Y-113294655D01*
X156135260Y-113294655D01*
X156135260Y-113207100D01*
X155976510Y-113048350D01*
X154377260Y-113048350D01*
X154123260Y-113048350D01*
X152524010Y-113048350D01*
X152365260Y-113207100D01*
X151685661Y-113207100D01*
X151685661Y-111545040D01*
X152365260Y-111545040D01*
X152365260Y-112635600D01*
X152524010Y-112794350D01*
X154123260Y-112794350D01*
X154123260Y-111195100D01*
X154377260Y-111195100D01*
X154377260Y-112794350D01*
X155976510Y-112794350D01*
X156135260Y-112635600D01*
X156135260Y-111545040D01*
X156038587Y-111311651D01*
X155859958Y-111133023D01*
X155626569Y-111036350D01*
X154536010Y-111036350D01*
X154377260Y-111195100D01*
X154123260Y-111195100D01*
X153964510Y-111036350D01*
X152873951Y-111036350D01*
X152640562Y-111133023D01*
X152461933Y-111311651D01*
X152365260Y-111545040D01*
X151685661Y-111545040D01*
X151685661Y-99943242D01*
X158570774Y-99943242D01*
X158817077Y-100467708D01*
X159245336Y-100857995D01*
X159655370Y-101027826D01*
X159885260Y-100906505D01*
X159885260Y-99713350D01*
X160139260Y-99713350D01*
X160139260Y-100906505D01*
X160369150Y-101027826D01*
X160779184Y-100857995D01*
X161207443Y-100467708D01*
X161282260Y-100308396D01*
X161357077Y-100467708D01*
X161785336Y-100857995D01*
X162195370Y-101027826D01*
X162425260Y-100906505D01*
X162425260Y-99713350D01*
X160139260Y-99713350D01*
X159885260Y-99713350D01*
X158691441Y-99713350D01*
X158570774Y-99943242D01*
X151685661Y-99943242D01*
X151685661Y-99229458D01*
X158570774Y-99229458D01*
X158691441Y-99459350D01*
X159885260Y-99459350D01*
X159885260Y-98266195D01*
X160139260Y-98266195D01*
X160139260Y-99459350D01*
X162425260Y-99459350D01*
X162425260Y-98266195D01*
X162679260Y-98266195D01*
X162679260Y-99459350D01*
X162699260Y-99459350D01*
X162699260Y-99713350D01*
X162679260Y-99713350D01*
X162679260Y-100906505D01*
X162909150Y-101027826D01*
X163319184Y-100857995D01*
X163747443Y-100467708D01*
X163814558Y-100324797D01*
X164042206Y-100665497D01*
X164523975Y-100987404D01*
X165092260Y-101100443D01*
X165660545Y-100987404D01*
X166142314Y-100665497D01*
X166362260Y-100336324D01*
X166582206Y-100665497D01*
X167063975Y-100987404D01*
X167632260Y-101100443D01*
X168200545Y-100987404D01*
X168682314Y-100665497D01*
X169004221Y-100183728D01*
X169117260Y-99615443D01*
X169117260Y-99557257D01*
X169004221Y-98988972D01*
X168682314Y-98507203D01*
X168200545Y-98185296D01*
X167632260Y-98072257D01*
X167063975Y-98185296D01*
X166582206Y-98507203D01*
X166362260Y-98836376D01*
X166142314Y-98507203D01*
X165660545Y-98185296D01*
X165092260Y-98072257D01*
X164523975Y-98185296D01*
X164042206Y-98507203D01*
X163814558Y-98847903D01*
X163747443Y-98704992D01*
X163319184Y-98314705D01*
X162909150Y-98144874D01*
X162679260Y-98266195D01*
X162425260Y-98266195D01*
X162195370Y-98144874D01*
X161785336Y-98314705D01*
X161357077Y-98704992D01*
X161282260Y-98864304D01*
X161207443Y-98704992D01*
X160779184Y-98314705D01*
X160369150Y-98144874D01*
X160139260Y-98266195D01*
X159885260Y-98266195D01*
X159655370Y-98144874D01*
X159245336Y-98314705D01*
X158817077Y-98704992D01*
X158570774Y-99229458D01*
X151685661Y-99229458D01*
X151685661Y-97917000D01*
X173228000Y-97917000D01*
X173228000Y-116078000D01*
G36*
X88720817Y-50807642D02*
X88474514Y-51332108D01*
X88595181Y-51562000D01*
X89789000Y-51562000D01*
X89789000Y-51542000D01*
X90043000Y-51542000D01*
X90043000Y-51562000D01*
X90063000Y-51562000D01*
X90063000Y-51816000D01*
X90043000Y-51816000D01*
X90043000Y-51836000D01*
X89789000Y-51836000D01*
X89789000Y-51816000D01*
X88595181Y-51816000D01*
X88474514Y-52045892D01*
X88720817Y-52570358D01*
X89149076Y-52960645D01*
X89336239Y-53038166D01*
X88014702Y-54359702D01*
X87743303Y-54765880D01*
X87648000Y-55245000D01*
X87648000Y-65026976D01*
X87494310Y-65129668D01*
X87065750Y-65771053D01*
X86915260Y-66527618D01*
X86915260Y-66605082D01*
X87065750Y-67361647D01*
X87494310Y-68003032D01*
X88135695Y-68431592D01*
X88892260Y-68582082D01*
X89036695Y-68553352D01*
X89043000Y-87884368D01*
X89120075Y-88293616D01*
X89362158Y-88669824D01*
X89731534Y-88922208D01*
X90170000Y-89011000D01*
X173892827Y-89011000D01*
X173744528Y-89756550D01*
X173895018Y-90513115D01*
X174323578Y-91154500D01*
X174964963Y-91583060D01*
X175721528Y-91733550D01*
X175798992Y-91733550D01*
X176555557Y-91583060D01*
X177030260Y-91265873D01*
X177504963Y-91583060D01*
X178261528Y-91733550D01*
X178338992Y-91733550D01*
X179095557Y-91583060D01*
X179736942Y-91154500D01*
X179909008Y-90896985D01*
X179958902Y-90951733D01*
X180483368Y-91198036D01*
X180713260Y-91077369D01*
X180713260Y-89883550D01*
X180693260Y-89883550D01*
X180693260Y-89629550D01*
X180713260Y-89629550D01*
X180713260Y-89609550D01*
X180967260Y-89609550D01*
X180967260Y-89629550D01*
X180987260Y-89629550D01*
X180987260Y-89883550D01*
X180967260Y-89883550D01*
X180967260Y-91077369D01*
X181197152Y-91198036D01*
X181653260Y-90983836D01*
X181653260Y-111219610D01*
X181743117Y-111671350D01*
X181784720Y-111880505D01*
X182159087Y-112440783D01*
X183860827Y-114142524D01*
X184421106Y-114516890D01*
X185082000Y-114648350D01*
X185249702Y-114648350D01*
X185458331Y-114972569D01*
X185834944Y-115229898D01*
X186282000Y-115320429D01*
X188782000Y-115320429D01*
X189199641Y-115241844D01*
X189583219Y-114995019D01*
X189840548Y-114618406D01*
X189914206Y-114254670D01*
X191378285Y-114254670D01*
X191507533Y-114547473D01*
X192207806Y-114815738D01*
X192957435Y-114795600D01*
X193556467Y-114547473D01*
X193685715Y-114254670D01*
X192532000Y-113100955D01*
X191378285Y-114254670D01*
X189914206Y-114254670D01*
X189931079Y-114171350D01*
X189931079Y-112597156D01*
X190637612Y-112597156D01*
X190657750Y-113346785D01*
X190905877Y-113945817D01*
X191198680Y-114075065D01*
X192352395Y-112921350D01*
X192711605Y-112921350D01*
X193865320Y-114075065D01*
X194158123Y-113945817D01*
X194426388Y-113245544D01*
X194406250Y-112495915D01*
X194158123Y-111896883D01*
X193865320Y-111767635D01*
X192711605Y-112921350D01*
X192352395Y-112921350D01*
X191198680Y-111767635D01*
X190905877Y-111896883D01*
X190637612Y-112597156D01*
X189931079Y-112597156D01*
X189931079Y-111671350D01*
X189915402Y-111588030D01*
X191378285Y-111588030D01*
X192532000Y-112741745D01*
X193685715Y-111588030D01*
X193556467Y-111295227D01*
X192856194Y-111026962D01*
X192106565Y-111047100D01*
X191507533Y-111295227D01*
X191378285Y-111588030D01*
X189915402Y-111588030D01*
X189852494Y-111253709D01*
X189605669Y-110870131D01*
X189229056Y-110612802D01*
X188782000Y-110522271D01*
X186282000Y-110522271D01*
X185864359Y-110600856D01*
X185480781Y-110847681D01*
X185468561Y-110865565D01*
X185107260Y-110504264D01*
X185107260Y-91090750D01*
X188805500Y-91090750D01*
X188805500Y-92181309D01*
X188902173Y-92414698D01*
X189080801Y-92593327D01*
X189314190Y-92690000D01*
X190404750Y-92690000D01*
X190563500Y-92531250D01*
X190563500Y-90932000D01*
X190817500Y-90932000D01*
X190817500Y-92531250D01*
X190976250Y-92690000D01*
X192066810Y-92690000D01*
X192300199Y-92593327D01*
X192478827Y-92414698D01*
X192575500Y-92181309D01*
X192575500Y-91090750D01*
X192416750Y-90932000D01*
X190817500Y-90932000D01*
X190563500Y-90932000D01*
X188964250Y-90932000D01*
X188805500Y-91090750D01*
X185107260Y-91090750D01*
X185107260Y-91054566D01*
X185309800Y-90751444D01*
X185441259Y-90090550D01*
X185385407Y-89809762D01*
X185395992Y-89756550D01*
X185247693Y-89011000D01*
X189094497Y-89011000D01*
X189080801Y-89016673D01*
X188902173Y-89195302D01*
X188805500Y-89428691D01*
X188805500Y-90519250D01*
X188964250Y-90678000D01*
X190563500Y-90678000D01*
X190563500Y-90658000D01*
X190817500Y-90658000D01*
X190817500Y-90678000D01*
X192416750Y-90678000D01*
X192575500Y-90519250D01*
X192575500Y-89428691D01*
X192478827Y-89195302D01*
X192300199Y-89016673D01*
X192286503Y-89011000D01*
X194560260Y-89011000D01*
X194560260Y-116949350D01*
X183427878Y-116949350D01*
X183666473Y-116374749D01*
X183667524Y-115170534D01*
X183207662Y-114057583D01*
X182356896Y-113205331D01*
X181244749Y-112743527D01*
X180040534Y-112742476D01*
X178927583Y-113202338D01*
X178075331Y-114053104D01*
X177613527Y-115165251D01*
X177612476Y-116369466D01*
X177852079Y-116949350D01*
X174184206Y-116949350D01*
X174393208Y-116643466D01*
X174482000Y-116205000D01*
X174482000Y-97790000D01*
X174404925Y-97380384D01*
X174162842Y-97004176D01*
X173793466Y-96751792D01*
X173355000Y-96663000D01*
X151558661Y-96663000D01*
X151149045Y-96740075D01*
X151029192Y-96817199D01*
X150933466Y-96751792D01*
X150495000Y-96663000D01*
X128714500Y-96663000D01*
X128304884Y-96740075D01*
X128176874Y-96822447D01*
X128073466Y-96751792D01*
X127635000Y-96663000D01*
X106045000Y-96663000D01*
X105635384Y-96740075D01*
X105409267Y-96885577D01*
X105213466Y-96751792D01*
X104775000Y-96663000D01*
X89535000Y-96663000D01*
X89125384Y-96740075D01*
X88749176Y-96982158D01*
X88496792Y-97351534D01*
X88408000Y-97790000D01*
X88408000Y-116205000D01*
X88485075Y-116614616D01*
X88700470Y-116949350D01*
X87877878Y-116949350D01*
X88116473Y-116374749D01*
X88117524Y-115170534D01*
X87657662Y-114057583D01*
X86806896Y-113205331D01*
X85694749Y-112743527D01*
X84490534Y-112742476D01*
X83744260Y-113050830D01*
X83744260Y-54588787D01*
X84485251Y-54896473D01*
X85689466Y-54897524D01*
X86802417Y-54437662D01*
X87654669Y-53586896D01*
X88116473Y-52474749D01*
X88117524Y-51270534D01*
X87850113Y-50623350D01*
X88923039Y-50623350D01*
X88720817Y-50807642D01*
X88720817Y-50807642D01*
G37*
X88720817Y-50807642D02*
X88474514Y-51332108D01*
X88595181Y-51562000D01*
X89789000Y-51562000D01*
X89789000Y-51542000D01*
X90043000Y-51542000D01*
X90043000Y-51562000D01*
X90063000Y-51562000D01*
X90063000Y-51816000D01*
X90043000Y-51816000D01*
X90043000Y-51836000D01*
X89789000Y-51836000D01*
X89789000Y-51816000D01*
X88595181Y-51816000D01*
X88474514Y-52045892D01*
X88720817Y-52570358D01*
X89149076Y-52960645D01*
X89336239Y-53038166D01*
X88014702Y-54359702D01*
X87743303Y-54765880D01*
X87648000Y-55245000D01*
X87648000Y-65026976D01*
X87494310Y-65129668D01*
X87065750Y-65771053D01*
X86915260Y-66527618D01*
X86915260Y-66605082D01*
X87065750Y-67361647D01*
X87494310Y-68003032D01*
X88135695Y-68431592D01*
X88892260Y-68582082D01*
X89036695Y-68553352D01*
X89043000Y-87884368D01*
X89120075Y-88293616D01*
X89362158Y-88669824D01*
X89731534Y-88922208D01*
X90170000Y-89011000D01*
X173892827Y-89011000D01*
X173744528Y-89756550D01*
X173895018Y-90513115D01*
X174323578Y-91154500D01*
X174964963Y-91583060D01*
X175721528Y-91733550D01*
X175798992Y-91733550D01*
X176555557Y-91583060D01*
X177030260Y-91265873D01*
X177504963Y-91583060D01*
X178261528Y-91733550D01*
X178338992Y-91733550D01*
X179095557Y-91583060D01*
X179736942Y-91154500D01*
X179909008Y-90896985D01*
X179958902Y-90951733D01*
X180483368Y-91198036D01*
X180713260Y-91077369D01*
X180713260Y-89883550D01*
X180693260Y-89883550D01*
X180693260Y-89629550D01*
X180713260Y-89629550D01*
X180713260Y-89609550D01*
X180967260Y-89609550D01*
X180967260Y-89629550D01*
X180987260Y-89629550D01*
X180987260Y-89883550D01*
X180967260Y-89883550D01*
X180967260Y-91077369D01*
X181197152Y-91198036D01*
X181653260Y-90983836D01*
X181653260Y-111219610D01*
X181743117Y-111671350D01*
X181784720Y-111880505D01*
X182159087Y-112440783D01*
X183860827Y-114142524D01*
X184421106Y-114516890D01*
X185082000Y-114648350D01*
X185249702Y-114648350D01*
X185458331Y-114972569D01*
X185834944Y-115229898D01*
X186282000Y-115320429D01*
X188782000Y-115320429D01*
X189199641Y-115241844D01*
X189583219Y-114995019D01*
X189840548Y-114618406D01*
X189914206Y-114254670D01*
X191378285Y-114254670D01*
X191507533Y-114547473D01*
X192207806Y-114815738D01*
X192957435Y-114795600D01*
X193556467Y-114547473D01*
X193685715Y-114254670D01*
X192532000Y-113100955D01*
X191378285Y-114254670D01*
X189914206Y-114254670D01*
X189931079Y-114171350D01*
X189931079Y-112597156D01*
X190637612Y-112597156D01*
X190657750Y-113346785D01*
X190905877Y-113945817D01*
X191198680Y-114075065D01*
X192352395Y-112921350D01*
X192711605Y-112921350D01*
X193865320Y-114075065D01*
X194158123Y-113945817D01*
X194426388Y-113245544D01*
X194406250Y-112495915D01*
X194158123Y-111896883D01*
X193865320Y-111767635D01*
X192711605Y-112921350D01*
X192352395Y-112921350D01*
X191198680Y-111767635D01*
X190905877Y-111896883D01*
X190637612Y-112597156D01*
X189931079Y-112597156D01*
X189931079Y-111671350D01*
X189915402Y-111588030D01*
X191378285Y-111588030D01*
X192532000Y-112741745D01*
X193685715Y-111588030D01*
X193556467Y-111295227D01*
X192856194Y-111026962D01*
X192106565Y-111047100D01*
X191507533Y-111295227D01*
X191378285Y-111588030D01*
X189915402Y-111588030D01*
X189852494Y-111253709D01*
X189605669Y-110870131D01*
X189229056Y-110612802D01*
X188782000Y-110522271D01*
X186282000Y-110522271D01*
X185864359Y-110600856D01*
X185480781Y-110847681D01*
X185468561Y-110865565D01*
X185107260Y-110504264D01*
X185107260Y-91090750D01*
X188805500Y-91090750D01*
X188805500Y-92181309D01*
X188902173Y-92414698D01*
X189080801Y-92593327D01*
X189314190Y-92690000D01*
X190404750Y-92690000D01*
X190563500Y-92531250D01*
X190563500Y-90932000D01*
X190817500Y-90932000D01*
X190817500Y-92531250D01*
X190976250Y-92690000D01*
X192066810Y-92690000D01*
X192300199Y-92593327D01*
X192478827Y-92414698D01*
X192575500Y-92181309D01*
X192575500Y-91090750D01*
X192416750Y-90932000D01*
X190817500Y-90932000D01*
X190563500Y-90932000D01*
X188964250Y-90932000D01*
X188805500Y-91090750D01*
X185107260Y-91090750D01*
X185107260Y-91054566D01*
X185309800Y-90751444D01*
X185441259Y-90090550D01*
X185385407Y-89809762D01*
X185395992Y-89756550D01*
X185247693Y-89011000D01*
X189094497Y-89011000D01*
X189080801Y-89016673D01*
X188902173Y-89195302D01*
X188805500Y-89428691D01*
X188805500Y-90519250D01*
X188964250Y-90678000D01*
X190563500Y-90678000D01*
X190563500Y-90658000D01*
X190817500Y-90658000D01*
X190817500Y-90678000D01*
X192416750Y-90678000D01*
X192575500Y-90519250D01*
X192575500Y-89428691D01*
X192478827Y-89195302D01*
X192300199Y-89016673D01*
X192286503Y-89011000D01*
X194560260Y-89011000D01*
X194560260Y-116949350D01*
X183427878Y-116949350D01*
X183666473Y-116374749D01*
X183667524Y-115170534D01*
X183207662Y-114057583D01*
X182356896Y-113205331D01*
X181244749Y-112743527D01*
X180040534Y-112742476D01*
X178927583Y-113202338D01*
X178075331Y-114053104D01*
X177613527Y-115165251D01*
X177612476Y-116369466D01*
X177852079Y-116949350D01*
X174184206Y-116949350D01*
X174393208Y-116643466D01*
X174482000Y-116205000D01*
X174482000Y-97790000D01*
X174404925Y-97380384D01*
X174162842Y-97004176D01*
X173793466Y-96751792D01*
X173355000Y-96663000D01*
X151558661Y-96663000D01*
X151149045Y-96740075D01*
X151029192Y-96817199D01*
X150933466Y-96751792D01*
X150495000Y-96663000D01*
X128714500Y-96663000D01*
X128304884Y-96740075D01*
X128176874Y-96822447D01*
X128073466Y-96751792D01*
X127635000Y-96663000D01*
X106045000Y-96663000D01*
X105635384Y-96740075D01*
X105409267Y-96885577D01*
X105213466Y-96751792D01*
X104775000Y-96663000D01*
X89535000Y-96663000D01*
X89125384Y-96740075D01*
X88749176Y-96982158D01*
X88496792Y-97351534D01*
X88408000Y-97790000D01*
X88408000Y-116205000D01*
X88485075Y-116614616D01*
X88700470Y-116949350D01*
X87877878Y-116949350D01*
X88116473Y-116374749D01*
X88117524Y-115170534D01*
X87657662Y-114057583D01*
X86806896Y-113205331D01*
X85694749Y-112743527D01*
X84490534Y-112742476D01*
X83744260Y-113050830D01*
X83744260Y-54588787D01*
X84485251Y-54896473D01*
X85689466Y-54897524D01*
X86802417Y-54437662D01*
X87654669Y-53586896D01*
X88116473Y-52474749D01*
X88117524Y-51270534D01*
X87850113Y-50623350D01*
X88923039Y-50623350D01*
X88720817Y-50807642D01*
G36*
X133368000Y-55001596D02*
X133368000Y-65026976D01*
X133214310Y-65129668D01*
X132785750Y-65771053D01*
X132635260Y-66527618D01*
X132635260Y-66605082D01*
X132785750Y-67361647D01*
X132943910Y-67598350D01*
X122942145Y-67598350D01*
X123107443Y-67447708D01*
X123353746Y-66923242D01*
X123233079Y-66693350D01*
X122039260Y-66693350D01*
X122039260Y-66713350D01*
X121785260Y-66713350D01*
X121785260Y-66693350D01*
X119499260Y-66693350D01*
X119499260Y-66713350D01*
X119245260Y-66713350D01*
X119245260Y-66693350D01*
X119229260Y-66693350D01*
X119229260Y-66439350D01*
X119245260Y-66439350D01*
X119245260Y-65246195D01*
X119499260Y-65246195D01*
X119499260Y-66439350D01*
X121785260Y-66439350D01*
X121785260Y-65246195D01*
X122039260Y-65246195D01*
X122039260Y-66439350D01*
X123233079Y-66439350D01*
X123353746Y-66209458D01*
X123107443Y-65684992D01*
X122679184Y-65294705D01*
X122269150Y-65124874D01*
X122039260Y-65246195D01*
X121785260Y-65246195D01*
X121555370Y-65124874D01*
X121145336Y-65294705D01*
X120717077Y-65684992D01*
X120642260Y-65844304D01*
X120567443Y-65684992D01*
X120139184Y-65294705D01*
X119729150Y-65124874D01*
X119499260Y-65246195D01*
X119245260Y-65246195D01*
X119229260Y-65237751D01*
X119229260Y-64153350D01*
X119152185Y-63743734D01*
X118910102Y-63367526D01*
X118540726Y-63115142D01*
X118102260Y-63026350D01*
X113022260Y-63026350D01*
X113012000Y-63028281D01*
X113012000Y-55753000D01*
X112916697Y-55273880D01*
X112645298Y-54867702D01*
X112496596Y-54719000D01*
X133085404Y-54719000D01*
X133368000Y-55001596D01*
X133368000Y-55001596D01*
G37*
X133368000Y-55001596D02*
X133368000Y-65026976D01*
X133214310Y-65129668D01*
X132785750Y-65771053D01*
X132635260Y-66527618D01*
X132635260Y-66605082D01*
X132785750Y-67361647D01*
X132943910Y-67598350D01*
X122942145Y-67598350D01*
X123107443Y-67447708D01*
X123353746Y-66923242D01*
X123233079Y-66693350D01*
X122039260Y-66693350D01*
X122039260Y-66713350D01*
X121785260Y-66713350D01*
X121785260Y-66693350D01*
X119499260Y-66693350D01*
X119499260Y-66713350D01*
X119245260Y-66713350D01*
X119245260Y-66693350D01*
X119229260Y-66693350D01*
X119229260Y-66439350D01*
X119245260Y-66439350D01*
X119245260Y-65246195D01*
X119499260Y-65246195D01*
X119499260Y-66439350D01*
X121785260Y-66439350D01*
X121785260Y-65246195D01*
X122039260Y-65246195D01*
X122039260Y-66439350D01*
X123233079Y-66439350D01*
X123353746Y-66209458D01*
X123107443Y-65684992D01*
X122679184Y-65294705D01*
X122269150Y-65124874D01*
X122039260Y-65246195D01*
X121785260Y-65246195D01*
X121555370Y-65124874D01*
X121145336Y-65294705D01*
X120717077Y-65684992D01*
X120642260Y-65844304D01*
X120567443Y-65684992D01*
X120139184Y-65294705D01*
X119729150Y-65124874D01*
X119499260Y-65246195D01*
X119245260Y-65246195D01*
X119229260Y-65237751D01*
X119229260Y-64153350D01*
X119152185Y-63743734D01*
X118910102Y-63367526D01*
X118540726Y-63115142D01*
X118102260Y-63026350D01*
X113022260Y-63026350D01*
X113012000Y-63028281D01*
X113012000Y-55753000D01*
X112916697Y-55273880D01*
X112645298Y-54867702D01*
X112496596Y-54719000D01*
X133085404Y-54719000D01*
X133368000Y-55001596D01*
G36*
X94239435Y-53554242D02*
X94996000Y-53704732D01*
X95200466Y-53664061D01*
X96904700Y-55368295D01*
X96904702Y-55368298D01*
X96988972Y-55424605D01*
X97310881Y-55639698D01*
X97790000Y-55735001D01*
X97790005Y-55735000D01*
X109971404Y-55735000D01*
X110508000Y-56271596D01*
X110508000Y-65026976D01*
X110354310Y-65129668D01*
X109925750Y-65771053D01*
X109775260Y-66527618D01*
X109775260Y-66605082D01*
X109925750Y-67361647D01*
X110083910Y-67598350D01*
X100082145Y-67598350D01*
X100247443Y-67447708D01*
X100493746Y-66923242D01*
X100373079Y-66693350D01*
X99179260Y-66693350D01*
X99179260Y-66713350D01*
X98925260Y-66713350D01*
X98925260Y-66693350D01*
X96639260Y-66693350D01*
X96639260Y-66713350D01*
X96385260Y-66713350D01*
X96385260Y-66693350D01*
X96369260Y-66693350D01*
X96369260Y-66439350D01*
X96385260Y-66439350D01*
X96385260Y-65246195D01*
X96639260Y-65246195D01*
X96639260Y-66439350D01*
X98925260Y-66439350D01*
X98925260Y-65246195D01*
X99179260Y-65246195D01*
X99179260Y-66439350D01*
X100373079Y-66439350D01*
X100493746Y-66209458D01*
X100247443Y-65684992D01*
X99819184Y-65294705D01*
X99409150Y-65124874D01*
X99179260Y-65246195D01*
X98925260Y-65246195D01*
X98695370Y-65124874D01*
X98285336Y-65294705D01*
X97857077Y-65684992D01*
X97782260Y-65844304D01*
X97707443Y-65684992D01*
X97279184Y-65294705D01*
X96869150Y-65124874D01*
X96639260Y-65246195D01*
X96385260Y-65246195D01*
X96369260Y-65237751D01*
X96369260Y-64153350D01*
X96292185Y-63743734D01*
X96050102Y-63367526D01*
X95680726Y-63115142D01*
X95242260Y-63026350D01*
X90162260Y-63026350D01*
X90152000Y-63028282D01*
X90152000Y-55763596D01*
X92251534Y-53664061D01*
X92456000Y-53704732D01*
X93212565Y-53554242D01*
X93726000Y-53211176D01*
X94239435Y-53554242D01*
X94239435Y-53554242D01*
G37*
X94239435Y-53554242D02*
X94996000Y-53704732D01*
X95200466Y-53664061D01*
X96904700Y-55368295D01*
X96904702Y-55368298D01*
X96988972Y-55424605D01*
X97310881Y-55639698D01*
X97790000Y-55735001D01*
X97790005Y-55735000D01*
X109971404Y-55735000D01*
X110508000Y-56271596D01*
X110508000Y-65026976D01*
X110354310Y-65129668D01*
X109925750Y-65771053D01*
X109775260Y-66527618D01*
X109775260Y-66605082D01*
X109925750Y-67361647D01*
X110083910Y-67598350D01*
X100082145Y-67598350D01*
X100247443Y-67447708D01*
X100493746Y-66923242D01*
X100373079Y-66693350D01*
X99179260Y-66693350D01*
X99179260Y-66713350D01*
X98925260Y-66713350D01*
X98925260Y-66693350D01*
X96639260Y-66693350D01*
X96639260Y-66713350D01*
X96385260Y-66713350D01*
X96385260Y-66693350D01*
X96369260Y-66693350D01*
X96369260Y-66439350D01*
X96385260Y-66439350D01*
X96385260Y-65246195D01*
X96639260Y-65246195D01*
X96639260Y-66439350D01*
X98925260Y-66439350D01*
X98925260Y-65246195D01*
X99179260Y-65246195D01*
X99179260Y-66439350D01*
X100373079Y-66439350D01*
X100493746Y-66209458D01*
X100247443Y-65684992D01*
X99819184Y-65294705D01*
X99409150Y-65124874D01*
X99179260Y-65246195D01*
X98925260Y-65246195D01*
X98695370Y-65124874D01*
X98285336Y-65294705D01*
X97857077Y-65684992D01*
X97782260Y-65844304D01*
X97707443Y-65684992D01*
X97279184Y-65294705D01*
X96869150Y-65124874D01*
X96639260Y-65246195D01*
X96385260Y-65246195D01*
X96369260Y-65237751D01*
X96369260Y-64153350D01*
X96292185Y-63743734D01*
X96050102Y-63367526D01*
X95680726Y-63115142D01*
X95242260Y-63026350D01*
X90162260Y-63026350D01*
X90152000Y-63028282D01*
X90152000Y-55763596D01*
X92251534Y-53664061D01*
X92456000Y-53704732D01*
X93212565Y-53554242D01*
X93726000Y-53211176D01*
X94239435Y-53554242D01*
G36*
X154816700Y-52955296D02*
X154943702Y-53082298D01*
X156228000Y-54366595D01*
X156228000Y-65026976D01*
X156074310Y-65129668D01*
X155645750Y-65771053D01*
X155495260Y-66527618D01*
X155495260Y-66605082D01*
X155591786Y-67090350D01*
X146135268Y-67090350D01*
X146213746Y-66923242D01*
X146093079Y-66693350D01*
X144899260Y-66693350D01*
X144899260Y-66713350D01*
X144645260Y-66713350D01*
X144645260Y-66693350D01*
X142359260Y-66693350D01*
X142359260Y-66713350D01*
X142105260Y-66713350D01*
X142105260Y-66693350D01*
X142089260Y-66693350D01*
X142089260Y-66439350D01*
X142105260Y-66439350D01*
X142105260Y-65246195D01*
X142359260Y-65246195D01*
X142359260Y-66439350D01*
X144645260Y-66439350D01*
X144645260Y-65246195D01*
X144899260Y-65246195D01*
X144899260Y-66439350D01*
X146093079Y-66439350D01*
X146213746Y-66209458D01*
X145967443Y-65684992D01*
X145539184Y-65294705D01*
X145129150Y-65124874D01*
X144899260Y-65246195D01*
X144645260Y-65246195D01*
X144415370Y-65124874D01*
X144005336Y-65294705D01*
X143577077Y-65684992D01*
X143502260Y-65844304D01*
X143427443Y-65684992D01*
X142999184Y-65294705D01*
X142589150Y-65124874D01*
X142359260Y-65246195D01*
X142105260Y-65246195D01*
X142089260Y-65237751D01*
X142089260Y-64153350D01*
X142012185Y-63743734D01*
X141770102Y-63367526D01*
X141400726Y-63115142D01*
X140962260Y-63026350D01*
X135882260Y-63026350D01*
X135872000Y-63028281D01*
X135872000Y-54483000D01*
X135776697Y-54003880D01*
X135505298Y-53597702D01*
X134848596Y-52941000D01*
X154802405Y-52941000D01*
X154816700Y-52955296D01*
X154816700Y-52955296D01*
G37*
X154816700Y-52955296D02*
X154943702Y-53082298D01*
X156228000Y-54366595D01*
X156228000Y-65026976D01*
X156074310Y-65129668D01*
X155645750Y-65771053D01*
X155495260Y-66527618D01*
X155495260Y-66605082D01*
X155591786Y-67090350D01*
X146135268Y-67090350D01*
X146213746Y-66923242D01*
X146093079Y-66693350D01*
X144899260Y-66693350D01*
X144899260Y-66713350D01*
X144645260Y-66713350D01*
X144645260Y-66693350D01*
X142359260Y-66693350D01*
X142359260Y-66713350D01*
X142105260Y-66713350D01*
X142105260Y-66693350D01*
X142089260Y-66693350D01*
X142089260Y-66439350D01*
X142105260Y-66439350D01*
X142105260Y-65246195D01*
X142359260Y-65246195D01*
X142359260Y-66439350D01*
X144645260Y-66439350D01*
X144645260Y-65246195D01*
X144899260Y-65246195D01*
X144899260Y-66439350D01*
X146093079Y-66439350D01*
X146213746Y-66209458D01*
X145967443Y-65684992D01*
X145539184Y-65294705D01*
X145129150Y-65124874D01*
X144899260Y-65246195D01*
X144645260Y-65246195D01*
X144415370Y-65124874D01*
X144005336Y-65294705D01*
X143577077Y-65684992D01*
X143502260Y-65844304D01*
X143427443Y-65684992D01*
X142999184Y-65294705D01*
X142589150Y-65124874D01*
X142359260Y-65246195D01*
X142105260Y-65246195D01*
X142089260Y-65237751D01*
X142089260Y-64153350D01*
X142012185Y-63743734D01*
X141770102Y-63367526D01*
X141400726Y-63115142D01*
X140962260Y-63026350D01*
X135882260Y-63026350D01*
X135872000Y-63028281D01*
X135872000Y-54483000D01*
X135776697Y-54003880D01*
X135505298Y-53597702D01*
X134848596Y-52941000D01*
X154802405Y-52941000D01*
X154816700Y-52955296D01*
G36*
X167021000Y-53816500D02*
X167002446Y-53797946D01*
X166888714Y-53911678D01*
X166759467Y-53618877D01*
X166059194Y-53350612D01*
X165309565Y-53370750D01*
X164710533Y-53618877D01*
X164581285Y-53911680D01*
X165735000Y-55065395D01*
X165749143Y-55051253D01*
X165928748Y-55230858D01*
X165914605Y-55245000D01*
X165928748Y-55259143D01*
X165749143Y-55438748D01*
X165735000Y-55424605D01*
X164581285Y-56578320D01*
X164710533Y-56871123D01*
X165410806Y-57139388D01*
X166160435Y-57119250D01*
X166759467Y-56871123D01*
X166888714Y-56578322D01*
X167002446Y-56692054D01*
X167021000Y-56673500D01*
X167021000Y-60706000D01*
X167098075Y-61115616D01*
X167340158Y-61491824D01*
X167709534Y-61744208D01*
X168148000Y-61833000D01*
X168545000Y-61833000D01*
X168545000Y-65427592D01*
X168399184Y-65294705D01*
X167989150Y-65124874D01*
X167759260Y-65246195D01*
X167759260Y-66439350D01*
X167779260Y-66439350D01*
X167779260Y-66693350D01*
X167759260Y-66693350D01*
X167759260Y-66713350D01*
X167505260Y-66713350D01*
X167505260Y-66693350D01*
X165219260Y-66693350D01*
X165219260Y-66713350D01*
X164965260Y-66713350D01*
X164965260Y-66693350D01*
X164949260Y-66693350D01*
X164949260Y-66439350D01*
X164965260Y-66439350D01*
X164965260Y-65246195D01*
X165219260Y-65246195D01*
X165219260Y-66439350D01*
X167505260Y-66439350D01*
X167505260Y-65246195D01*
X167275370Y-65124874D01*
X166865336Y-65294705D01*
X166437077Y-65684992D01*
X166362260Y-65844304D01*
X166287443Y-65684992D01*
X165859184Y-65294705D01*
X165449150Y-65124874D01*
X165219260Y-65246195D01*
X164965260Y-65246195D01*
X164949260Y-65237751D01*
X164949260Y-64153350D01*
X164872185Y-63743734D01*
X164630102Y-63367526D01*
X164260726Y-63115142D01*
X163822260Y-63026350D01*
X158742260Y-63026350D01*
X158732000Y-63028281D01*
X158732000Y-54920806D01*
X163840612Y-54920806D01*
X163860750Y-55670435D01*
X164108877Y-56269467D01*
X164401680Y-56398715D01*
X165555395Y-55245000D01*
X164401680Y-54091285D01*
X164108877Y-54220533D01*
X163840612Y-54920806D01*
X158732000Y-54920806D01*
X158732000Y-53848005D01*
X158732001Y-53848000D01*
X158636698Y-53368881D01*
X158477401Y-53130476D01*
X158365298Y-52962702D01*
X158365295Y-52962700D01*
X156714298Y-51311702D01*
X156206298Y-50803702D01*
X155936382Y-50623350D01*
X167021000Y-50623350D01*
X167021000Y-53816500D01*
X167021000Y-53816500D01*
G37*
X167021000Y-53816500D02*
X167002446Y-53797946D01*
X166888714Y-53911678D01*
X166759467Y-53618877D01*
X166059194Y-53350612D01*
X165309565Y-53370750D01*
X164710533Y-53618877D01*
X164581285Y-53911680D01*
X165735000Y-55065395D01*
X165749143Y-55051253D01*
X165928748Y-55230858D01*
X165914605Y-55245000D01*
X165928748Y-55259143D01*
X165749143Y-55438748D01*
X165735000Y-55424605D01*
X164581285Y-56578320D01*
X164710533Y-56871123D01*
X165410806Y-57139388D01*
X166160435Y-57119250D01*
X166759467Y-56871123D01*
X166888714Y-56578322D01*
X167002446Y-56692054D01*
X167021000Y-56673500D01*
X167021000Y-60706000D01*
X167098075Y-61115616D01*
X167340158Y-61491824D01*
X167709534Y-61744208D01*
X168148000Y-61833000D01*
X168545000Y-61833000D01*
X168545000Y-65427592D01*
X168399184Y-65294705D01*
X167989150Y-65124874D01*
X167759260Y-65246195D01*
X167759260Y-66439350D01*
X167779260Y-66439350D01*
X167779260Y-66693350D01*
X167759260Y-66693350D01*
X167759260Y-66713350D01*
X167505260Y-66713350D01*
X167505260Y-66693350D01*
X165219260Y-66693350D01*
X165219260Y-66713350D01*
X164965260Y-66713350D01*
X164965260Y-66693350D01*
X164949260Y-66693350D01*
X164949260Y-66439350D01*
X164965260Y-66439350D01*
X164965260Y-65246195D01*
X165219260Y-65246195D01*
X165219260Y-66439350D01*
X167505260Y-66439350D01*
X167505260Y-65246195D01*
X167275370Y-65124874D01*
X166865336Y-65294705D01*
X166437077Y-65684992D01*
X166362260Y-65844304D01*
X166287443Y-65684992D01*
X165859184Y-65294705D01*
X165449150Y-65124874D01*
X165219260Y-65246195D01*
X164965260Y-65246195D01*
X164949260Y-65237751D01*
X164949260Y-64153350D01*
X164872185Y-63743734D01*
X164630102Y-63367526D01*
X164260726Y-63115142D01*
X163822260Y-63026350D01*
X158742260Y-63026350D01*
X158732000Y-63028281D01*
X158732000Y-54920806D01*
X163840612Y-54920806D01*
X163860750Y-55670435D01*
X164108877Y-56269467D01*
X164401680Y-56398715D01*
X165555395Y-55245000D01*
X164401680Y-54091285D01*
X164108877Y-54220533D01*
X163840612Y-54920806D01*
X158732000Y-54920806D01*
X158732000Y-53848005D01*
X158732001Y-53848000D01*
X158636698Y-53368881D01*
X158477401Y-53130476D01*
X158365298Y-52962702D01*
X158365295Y-52962700D01*
X156714298Y-51311702D01*
X156206298Y-50803702D01*
X155936382Y-50623350D01*
X167021000Y-50623350D01*
X167021000Y-53816500D01*
M02*
