M48
;DRILL file {KiCad 4.0.6} date 04/25/17 15:32:28
;FORMAT={-:-/ absolute / inch / decimal}
FMAT,2
INCH,TZ
T1C0.030
T2C0.031
T3C0.039
T4C0.051
T5C0.053
%
G90
G05
M72
T1
X4.225Y-1.85
X4.225Y-1.95
X4.225Y-2.05
X4.225Y-2.15
X4.225Y-2.75
X4.225Y-2.85
X4.225Y-2.95
X4.225Y-3.05
X4.225Y-3.65
X4.225Y-3.75
X4.225Y-3.85
X4.225Y-3.95
X4.225Y-4.55
X4.225Y-4.65
X4.225Y-4.75
X4.225Y-4.85
X5.525Y-1.75
X5.525Y-1.85
X5.525Y-1.95
X5.525Y-2.05
X5.525Y-2.15
X5.525Y-2.65
X5.525Y-2.75
X5.525Y-2.85
X5.525Y-2.95
X5.525Y-3.05
X5.525Y-3.55
X5.525Y-3.65
X5.525Y-3.75
X5.525Y-3.85
X5.525Y-3.95
X5.525Y-4.45
X5.525Y-4.55
X5.525Y-4.65
X5.525Y-4.75
X5.525Y-4.85
T2
X4.612Y-5.17
X4.612Y-5.27
X4.612Y-5.37
X4.612Y-5.47
T3
X5.9Y-5.6
X5.975Y-1.6
X5.975Y-1.7
X5.975Y-1.8
X5.975Y-1.9
X5.975Y-2.
X6.Y-5.6
T4
X3.7Y-1.6331
X3.7Y-1.83
X3.7Y-2.0731
X3.7Y-2.27
X3.7Y-2.5231
X3.7Y-2.72
X3.7Y-2.9781
X3.7Y-3.175
X3.7Y-3.425
X3.7Y-3.6219
X3.7Y-3.8781
X3.7Y-4.075
X3.7Y-4.3231
X3.7Y-4.52
X3.7Y-4.7731
X3.7Y-4.97
X3.7Y-5.4831
X3.7Y-5.68
X5.95Y-5.2031
X5.95Y-5.4
T5
X4.8469Y-5.35
X4.9469Y-5.25
X4.9469Y-5.45
X5.0469Y-5.35
X5.45Y-5.35
X5.55Y-5.25
X5.55Y-5.45
X5.65Y-5.35
T0
M30
