M48
;DRILL file {KiCad 4.0.7-e2-6376~58~ubuntu16.04.1} date Tue Oct 31 15:03:53 2017
;FORMAT={-:-/ absolute / inch / decimal}
FMAT,2
INCH,TZ
T1C0.035
T2C0.039
T3C0.040
%
G90
G05
M72
T1
X4.13Y-3.55
X4.225Y-3.75
X4.355Y-3.75
X4.7698Y-3.745
X4.785Y-3.875
T2
X4.025Y-3.245
X4.125Y-3.245
X4.225Y-3.245
X4.325Y-3.245
X5.125Y-3.44
X5.125Y-3.54
X5.125Y-3.64
X5.125Y-3.74
X5.125Y-3.84
X5.125Y-3.94
X5.125Y-4.04
X5.125Y-4.14
X5.125Y-4.24
X5.125Y-4.34
X5.125Y-4.44
X5.125Y-4.54
X5.125Y-4.64
X5.125Y-4.74
X5.125Y-4.84
X5.125Y-4.94
X5.125Y-5.04
X5.125Y-5.14
X5.125Y-5.24
X5.125Y-5.34
X5.225Y-3.44
X5.225Y-3.54
X5.225Y-3.64
X5.225Y-3.74
X5.225Y-3.84
X5.225Y-3.94
X5.225Y-4.04
X5.225Y-4.14
X5.225Y-4.24
X5.225Y-4.34
X5.225Y-4.44
X5.225Y-4.54
X5.225Y-4.64
X5.225Y-4.74
X5.225Y-4.84
X5.225Y-4.94
X5.225Y-5.04
X5.225Y-5.14
X5.225Y-5.24
X5.225Y-5.34
T3
X4.02Y-3.655
X4.02Y-3.755
X4.02Y-3.855
X4.02Y-3.955
X4.02Y-4.055
X4.02Y-4.155
X4.02Y-4.255
X4.02Y-4.355
X4.02Y-4.455
X4.02Y-4.555
X4.02Y-4.655
X4.02Y-4.755
X4.02Y-4.855
X4.02Y-4.955
X4.02Y-5.055
X4.02Y-5.155
X4.82Y-4.055
X4.82Y-4.155
X4.82Y-4.255
X4.82Y-4.355
X4.82Y-4.455
X4.82Y-4.555
X4.82Y-4.655
X4.82Y-4.755
X4.82Y-4.855
X4.82Y-4.955
X4.82Y-5.055
X4.82Y-5.155
T0
M30
